%TF.GenerationSoftware,KiCad,Pcbnew,9.0.2*%
%TF.CreationDate,2025-09-01T18:39:20-04:00*%
%TF.ProjectId,ABAD,41424144-2e6b-4696-9361-645f70636258,rev?*%
%TF.SameCoordinates,Original*%
%TF.FileFunction,Legend,Top*%
%TF.FilePolarity,Positive*%
%FSLAX46Y46*%
G04 Gerber Fmt 4.6, Leading zero omitted, Abs format (unit mm)*
G04 Created by KiCad (PCBNEW 9.0.2) date 2025-09-01 18:39:20*
%MOMM*%
%LPD*%
G01*
G04 APERTURE LIST*
%ADD10C,0.150000*%
%ADD11C,0.300000*%
%ADD12C,0.120000*%
%ADD13C,0.254000*%
G04 APERTURE END LIST*
D10*
X144566779Y-74359819D02*
X144566779Y-73359819D01*
X144566779Y-73359819D02*
X144947731Y-73359819D01*
X144947731Y-73359819D02*
X145042969Y-73407438D01*
X145042969Y-73407438D02*
X145090588Y-73455057D01*
X145090588Y-73455057D02*
X145138207Y-73550295D01*
X145138207Y-73550295D02*
X145138207Y-73693152D01*
X145138207Y-73693152D02*
X145090588Y-73788390D01*
X145090588Y-73788390D02*
X145042969Y-73836009D01*
X145042969Y-73836009D02*
X144947731Y-73883628D01*
X144947731Y-73883628D02*
X144566779Y-73883628D01*
X145471541Y-73359819D02*
X145709636Y-74359819D01*
X145709636Y-74359819D02*
X145900112Y-73645533D01*
X145900112Y-73645533D02*
X146090588Y-74359819D01*
X146090588Y-74359819D02*
X146328684Y-73359819D01*
X147281064Y-74359819D02*
X146947731Y-73883628D01*
X146709636Y-74359819D02*
X146709636Y-73359819D01*
X146709636Y-73359819D02*
X147090588Y-73359819D01*
X147090588Y-73359819D02*
X147185826Y-73407438D01*
X147185826Y-73407438D02*
X147233445Y-73455057D01*
X147233445Y-73455057D02*
X147281064Y-73550295D01*
X147281064Y-73550295D02*
X147281064Y-73693152D01*
X147281064Y-73693152D02*
X147233445Y-73788390D01*
X147233445Y-73788390D02*
X147185826Y-73836009D01*
X147185826Y-73836009D02*
X147090588Y-73883628D01*
X147090588Y-73883628D02*
X146709636Y-73883628D01*
X148947731Y-74359819D02*
X148471541Y-74359819D01*
X148471541Y-74359819D02*
X148471541Y-73359819D01*
X149281065Y-73836009D02*
X149614398Y-73836009D01*
X149757255Y-74359819D02*
X149281065Y-74359819D01*
X149281065Y-74359819D02*
X149281065Y-73359819D01*
X149281065Y-73359819D02*
X149757255Y-73359819D01*
X150185827Y-74359819D02*
X150185827Y-73359819D01*
X150185827Y-73359819D02*
X150423922Y-73359819D01*
X150423922Y-73359819D02*
X150566779Y-73407438D01*
X150566779Y-73407438D02*
X150662017Y-73502676D01*
X150662017Y-73502676D02*
X150709636Y-73597914D01*
X150709636Y-73597914D02*
X150757255Y-73788390D01*
X150757255Y-73788390D02*
X150757255Y-73931247D01*
X150757255Y-73931247D02*
X150709636Y-74121723D01*
X150709636Y-74121723D02*
X150662017Y-74216961D01*
X150662017Y-74216961D02*
X150566779Y-74312200D01*
X150566779Y-74312200D02*
X150423922Y-74359819D01*
X150423922Y-74359819D02*
X150185827Y-74359819D01*
D11*
X159954510Y-71915114D02*
X160168796Y-71986542D01*
X160168796Y-71986542D02*
X160240225Y-72057971D01*
X160240225Y-72057971D02*
X160311653Y-72200828D01*
X160311653Y-72200828D02*
X160311653Y-72415114D01*
X160311653Y-72415114D02*
X160240225Y-72557971D01*
X160240225Y-72557971D02*
X160168796Y-72629400D01*
X160168796Y-72629400D02*
X160025939Y-72700828D01*
X160025939Y-72700828D02*
X159454510Y-72700828D01*
X159454510Y-72700828D02*
X159454510Y-71200828D01*
X159454510Y-71200828D02*
X159954510Y-71200828D01*
X159954510Y-71200828D02*
X160097368Y-71272257D01*
X160097368Y-71272257D02*
X160168796Y-71343685D01*
X160168796Y-71343685D02*
X160240225Y-71486542D01*
X160240225Y-71486542D02*
X160240225Y-71629400D01*
X160240225Y-71629400D02*
X160168796Y-71772257D01*
X160168796Y-71772257D02*
X160097368Y-71843685D01*
X160097368Y-71843685D02*
X159954510Y-71915114D01*
X159954510Y-71915114D02*
X159454510Y-71915114D01*
X161240225Y-71200828D02*
X161525939Y-71200828D01*
X161525939Y-71200828D02*
X161668796Y-71272257D01*
X161668796Y-71272257D02*
X161811653Y-71415114D01*
X161811653Y-71415114D02*
X161883082Y-71700828D01*
X161883082Y-71700828D02*
X161883082Y-72200828D01*
X161883082Y-72200828D02*
X161811653Y-72486542D01*
X161811653Y-72486542D02*
X161668796Y-72629400D01*
X161668796Y-72629400D02*
X161525939Y-72700828D01*
X161525939Y-72700828D02*
X161240225Y-72700828D01*
X161240225Y-72700828D02*
X161097368Y-72629400D01*
X161097368Y-72629400D02*
X160954510Y-72486542D01*
X160954510Y-72486542D02*
X160883082Y-72200828D01*
X160883082Y-72200828D02*
X160883082Y-71700828D01*
X160883082Y-71700828D02*
X160954510Y-71415114D01*
X160954510Y-71415114D02*
X161097368Y-71272257D01*
X161097368Y-71272257D02*
X161240225Y-71200828D01*
X162811654Y-71200828D02*
X163097368Y-71200828D01*
X163097368Y-71200828D02*
X163240225Y-71272257D01*
X163240225Y-71272257D02*
X163383082Y-71415114D01*
X163383082Y-71415114D02*
X163454511Y-71700828D01*
X163454511Y-71700828D02*
X163454511Y-72200828D01*
X163454511Y-72200828D02*
X163383082Y-72486542D01*
X163383082Y-72486542D02*
X163240225Y-72629400D01*
X163240225Y-72629400D02*
X163097368Y-72700828D01*
X163097368Y-72700828D02*
X162811654Y-72700828D01*
X162811654Y-72700828D02*
X162668797Y-72629400D01*
X162668797Y-72629400D02*
X162525939Y-72486542D01*
X162525939Y-72486542D02*
X162454511Y-72200828D01*
X162454511Y-72200828D02*
X162454511Y-71700828D01*
X162454511Y-71700828D02*
X162525939Y-71415114D01*
X162525939Y-71415114D02*
X162668797Y-71272257D01*
X162668797Y-71272257D02*
X162811654Y-71200828D01*
X163883083Y-71200828D02*
X164740226Y-71200828D01*
X164311654Y-72700828D02*
X164311654Y-71200828D01*
D10*
X144569279Y-76934819D02*
X144569279Y-75934819D01*
X144569279Y-75934819D02*
X144950231Y-75934819D01*
X144950231Y-75934819D02*
X145045469Y-75982438D01*
X145045469Y-75982438D02*
X145093088Y-76030057D01*
X145093088Y-76030057D02*
X145140707Y-76125295D01*
X145140707Y-76125295D02*
X145140707Y-76268152D01*
X145140707Y-76268152D02*
X145093088Y-76363390D01*
X145093088Y-76363390D02*
X145045469Y-76411009D01*
X145045469Y-76411009D02*
X144950231Y-76458628D01*
X144950231Y-76458628D02*
X144569279Y-76458628D01*
X145569279Y-76934819D02*
X145569279Y-75934819D01*
X145569279Y-75934819D02*
X145950231Y-75934819D01*
X145950231Y-75934819D02*
X146045469Y-75982438D01*
X146045469Y-75982438D02*
X146093088Y-76030057D01*
X146093088Y-76030057D02*
X146140707Y-76125295D01*
X146140707Y-76125295D02*
X146140707Y-76268152D01*
X146140707Y-76268152D02*
X146093088Y-76363390D01*
X146093088Y-76363390D02*
X146045469Y-76411009D01*
X146045469Y-76411009D02*
X145950231Y-76458628D01*
X145950231Y-76458628D02*
X145569279Y-76458628D01*
X146521660Y-76887200D02*
X146664517Y-76934819D01*
X146664517Y-76934819D02*
X146902612Y-76934819D01*
X146902612Y-76934819D02*
X146997850Y-76887200D01*
X146997850Y-76887200D02*
X147045469Y-76839580D01*
X147045469Y-76839580D02*
X147093088Y-76744342D01*
X147093088Y-76744342D02*
X147093088Y-76649104D01*
X147093088Y-76649104D02*
X147045469Y-76553866D01*
X147045469Y-76553866D02*
X146997850Y-76506247D01*
X146997850Y-76506247D02*
X146902612Y-76458628D01*
X146902612Y-76458628D02*
X146712136Y-76411009D01*
X146712136Y-76411009D02*
X146616898Y-76363390D01*
X146616898Y-76363390D02*
X146569279Y-76315771D01*
X146569279Y-76315771D02*
X146521660Y-76220533D01*
X146521660Y-76220533D02*
X146521660Y-76125295D01*
X146521660Y-76125295D02*
X146569279Y-76030057D01*
X146569279Y-76030057D02*
X146616898Y-75982438D01*
X146616898Y-75982438D02*
X146712136Y-75934819D01*
X146712136Y-75934819D02*
X146950231Y-75934819D01*
X146950231Y-75934819D02*
X147093088Y-75982438D01*
X148759755Y-76934819D02*
X148283565Y-76934819D01*
X148283565Y-76934819D02*
X148283565Y-75934819D01*
X149093089Y-76411009D02*
X149426422Y-76411009D01*
X149569279Y-76934819D02*
X149093089Y-76934819D01*
X149093089Y-76934819D02*
X149093089Y-75934819D01*
X149093089Y-75934819D02*
X149569279Y-75934819D01*
X149997851Y-76934819D02*
X149997851Y-75934819D01*
X149997851Y-75934819D02*
X150235946Y-75934819D01*
X150235946Y-75934819D02*
X150378803Y-75982438D01*
X150378803Y-75982438D02*
X150474041Y-76077676D01*
X150474041Y-76077676D02*
X150521660Y-76172914D01*
X150521660Y-76172914D02*
X150569279Y-76363390D01*
X150569279Y-76363390D02*
X150569279Y-76506247D01*
X150569279Y-76506247D02*
X150521660Y-76696723D01*
X150521660Y-76696723D02*
X150474041Y-76791961D01*
X150474041Y-76791961D02*
X150378803Y-76887200D01*
X150378803Y-76887200D02*
X150235946Y-76934819D01*
X150235946Y-76934819D02*
X149997851Y-76934819D01*
X145145707Y-79394819D02*
X144812374Y-78918628D01*
X144574279Y-79394819D02*
X144574279Y-78394819D01*
X144574279Y-78394819D02*
X144955231Y-78394819D01*
X144955231Y-78394819D02*
X145050469Y-78442438D01*
X145050469Y-78442438D02*
X145098088Y-78490057D01*
X145098088Y-78490057D02*
X145145707Y-78585295D01*
X145145707Y-78585295D02*
X145145707Y-78728152D01*
X145145707Y-78728152D02*
X145098088Y-78823390D01*
X145098088Y-78823390D02*
X145050469Y-78871009D01*
X145050469Y-78871009D02*
X144955231Y-78918628D01*
X144955231Y-78918628D02*
X144574279Y-78918628D01*
X145907612Y-78871009D02*
X145574279Y-78871009D01*
X145574279Y-79394819D02*
X145574279Y-78394819D01*
X145574279Y-78394819D02*
X146050469Y-78394819D01*
X147669517Y-79394819D02*
X147193327Y-79394819D01*
X147193327Y-79394819D02*
X147193327Y-78394819D01*
X148002851Y-78871009D02*
X148336184Y-78871009D01*
X148479041Y-79394819D02*
X148002851Y-79394819D01*
X148002851Y-79394819D02*
X148002851Y-78394819D01*
X148002851Y-78394819D02*
X148479041Y-78394819D01*
X148907613Y-79394819D02*
X148907613Y-78394819D01*
X148907613Y-78394819D02*
X149145708Y-78394819D01*
X149145708Y-78394819D02*
X149288565Y-78442438D01*
X149288565Y-78442438D02*
X149383803Y-78537676D01*
X149383803Y-78537676D02*
X149431422Y-78632914D01*
X149431422Y-78632914D02*
X149479041Y-78823390D01*
X149479041Y-78823390D02*
X149479041Y-78966247D01*
X149479041Y-78966247D02*
X149431422Y-79156723D01*
X149431422Y-79156723D02*
X149383803Y-79251961D01*
X149383803Y-79251961D02*
X149288565Y-79347200D01*
X149288565Y-79347200D02*
X149145708Y-79394819D01*
X149145708Y-79394819D02*
X148907613Y-79394819D01*
D11*
X130354510Y-71815114D02*
X130854510Y-71815114D01*
X131068796Y-72600828D02*
X130354510Y-72600828D01*
X130354510Y-72600828D02*
X130354510Y-71100828D01*
X130354510Y-71100828D02*
X131068796Y-71100828D01*
X131711653Y-72600828D02*
X131711653Y-71100828D01*
X131711653Y-71100828D02*
X132568796Y-72600828D01*
X132568796Y-72600828D02*
X132568796Y-71100828D01*
D10*
X138438095Y-94846819D02*
X139009523Y-94846819D01*
X138723809Y-95846819D02*
X138723809Y-94846819D01*
X139342857Y-95846819D02*
X139342857Y-94846819D01*
X139342857Y-94846819D02*
X139723809Y-94846819D01*
X139723809Y-94846819D02*
X139819047Y-94894438D01*
X139819047Y-94894438D02*
X139866666Y-94942057D01*
X139866666Y-94942057D02*
X139914285Y-95037295D01*
X139914285Y-95037295D02*
X139914285Y-95180152D01*
X139914285Y-95180152D02*
X139866666Y-95275390D01*
X139866666Y-95275390D02*
X139819047Y-95323009D01*
X139819047Y-95323009D02*
X139723809Y-95370628D01*
X139723809Y-95370628D02*
X139342857Y-95370628D01*
X140771428Y-95180152D02*
X140771428Y-95846819D01*
X140533333Y-94799200D02*
X140295238Y-95513485D01*
X140295238Y-95513485D02*
X140914285Y-95513485D01*
X138504761Y-117450057D02*
X138409523Y-117402438D01*
X138409523Y-117402438D02*
X138314285Y-117307200D01*
X138314285Y-117307200D02*
X138171428Y-117164342D01*
X138171428Y-117164342D02*
X138076190Y-117116723D01*
X138076190Y-117116723D02*
X137980952Y-117116723D01*
X138028571Y-117354819D02*
X137933333Y-117307200D01*
X137933333Y-117307200D02*
X137838095Y-117211961D01*
X137838095Y-117211961D02*
X137790476Y-117021485D01*
X137790476Y-117021485D02*
X137790476Y-116688152D01*
X137790476Y-116688152D02*
X137838095Y-116497676D01*
X137838095Y-116497676D02*
X137933333Y-116402438D01*
X137933333Y-116402438D02*
X138028571Y-116354819D01*
X138028571Y-116354819D02*
X138219047Y-116354819D01*
X138219047Y-116354819D02*
X138314285Y-116402438D01*
X138314285Y-116402438D02*
X138409523Y-116497676D01*
X138409523Y-116497676D02*
X138457142Y-116688152D01*
X138457142Y-116688152D02*
X138457142Y-117021485D01*
X138457142Y-117021485D02*
X138409523Y-117211961D01*
X138409523Y-117211961D02*
X138314285Y-117307200D01*
X138314285Y-117307200D02*
X138219047Y-117354819D01*
X138219047Y-117354819D02*
X138028571Y-117354819D01*
X139409523Y-117354819D02*
X138838095Y-117354819D01*
X139123809Y-117354819D02*
X139123809Y-116354819D01*
X139123809Y-116354819D02*
X139028571Y-116497676D01*
X139028571Y-116497676D02*
X138933333Y-116592914D01*
X138933333Y-116592914D02*
X138838095Y-116640533D01*
X157038095Y-58054819D02*
X157609523Y-58054819D01*
X157323809Y-59054819D02*
X157323809Y-58054819D01*
X157942857Y-59054819D02*
X157942857Y-58054819D01*
X157942857Y-58054819D02*
X158323809Y-58054819D01*
X158323809Y-58054819D02*
X158419047Y-58102438D01*
X158419047Y-58102438D02*
X158466666Y-58150057D01*
X158466666Y-58150057D02*
X158514285Y-58245295D01*
X158514285Y-58245295D02*
X158514285Y-58388152D01*
X158514285Y-58388152D02*
X158466666Y-58483390D01*
X158466666Y-58483390D02*
X158419047Y-58531009D01*
X158419047Y-58531009D02*
X158323809Y-58578628D01*
X158323809Y-58578628D02*
X157942857Y-58578628D01*
X158895238Y-58150057D02*
X158942857Y-58102438D01*
X158942857Y-58102438D02*
X159038095Y-58054819D01*
X159038095Y-58054819D02*
X159276190Y-58054819D01*
X159276190Y-58054819D02*
X159371428Y-58102438D01*
X159371428Y-58102438D02*
X159419047Y-58150057D01*
X159419047Y-58150057D02*
X159466666Y-58245295D01*
X159466666Y-58245295D02*
X159466666Y-58340533D01*
X159466666Y-58340533D02*
X159419047Y-58483390D01*
X159419047Y-58483390D02*
X158847619Y-59054819D01*
X158847619Y-59054819D02*
X159466666Y-59054819D01*
X136638095Y-104654819D02*
X137209523Y-104654819D01*
X136923809Y-105654819D02*
X136923809Y-104654819D01*
X137542857Y-105654819D02*
X137542857Y-104654819D01*
X137542857Y-104654819D02*
X137923809Y-104654819D01*
X137923809Y-104654819D02*
X138019047Y-104702438D01*
X138019047Y-104702438D02*
X138066666Y-104750057D01*
X138066666Y-104750057D02*
X138114285Y-104845295D01*
X138114285Y-104845295D02*
X138114285Y-104988152D01*
X138114285Y-104988152D02*
X138066666Y-105083390D01*
X138066666Y-105083390D02*
X138019047Y-105131009D01*
X138019047Y-105131009D02*
X137923809Y-105178628D01*
X137923809Y-105178628D02*
X137542857Y-105178628D01*
X138971428Y-104654819D02*
X138780952Y-104654819D01*
X138780952Y-104654819D02*
X138685714Y-104702438D01*
X138685714Y-104702438D02*
X138638095Y-104750057D01*
X138638095Y-104750057D02*
X138542857Y-104892914D01*
X138542857Y-104892914D02*
X138495238Y-105083390D01*
X138495238Y-105083390D02*
X138495238Y-105464342D01*
X138495238Y-105464342D02*
X138542857Y-105559580D01*
X138542857Y-105559580D02*
X138590476Y-105607200D01*
X138590476Y-105607200D02*
X138685714Y-105654819D01*
X138685714Y-105654819D02*
X138876190Y-105654819D01*
X138876190Y-105654819D02*
X138971428Y-105607200D01*
X138971428Y-105607200D02*
X139019047Y-105559580D01*
X139019047Y-105559580D02*
X139066666Y-105464342D01*
X139066666Y-105464342D02*
X139066666Y-105226247D01*
X139066666Y-105226247D02*
X139019047Y-105131009D01*
X139019047Y-105131009D02*
X138971428Y-105083390D01*
X138971428Y-105083390D02*
X138876190Y-105035771D01*
X138876190Y-105035771D02*
X138685714Y-105035771D01*
X138685714Y-105035771D02*
X138590476Y-105083390D01*
X138590476Y-105083390D02*
X138542857Y-105131009D01*
X138542857Y-105131009D02*
X138495238Y-105226247D01*
X135766666Y-84994819D02*
X135766666Y-85709104D01*
X135766666Y-85709104D02*
X135719047Y-85851961D01*
X135719047Y-85851961D02*
X135623809Y-85947200D01*
X135623809Y-85947200D02*
X135480952Y-85994819D01*
X135480952Y-85994819D02*
X135385714Y-85994819D01*
X136195238Y-85090057D02*
X136242857Y-85042438D01*
X136242857Y-85042438D02*
X136338095Y-84994819D01*
X136338095Y-84994819D02*
X136576190Y-84994819D01*
X136576190Y-84994819D02*
X136671428Y-85042438D01*
X136671428Y-85042438D02*
X136719047Y-85090057D01*
X136719047Y-85090057D02*
X136766666Y-85185295D01*
X136766666Y-85185295D02*
X136766666Y-85280533D01*
X136766666Y-85280533D02*
X136719047Y-85423390D01*
X136719047Y-85423390D02*
X136147619Y-85994819D01*
X136147619Y-85994819D02*
X136766666Y-85994819D01*
X134286666Y-120014819D02*
X134286666Y-120729104D01*
X134286666Y-120729104D02*
X134239047Y-120871961D01*
X134239047Y-120871961D02*
X134143809Y-120967200D01*
X134143809Y-120967200D02*
X134000952Y-121014819D01*
X134000952Y-121014819D02*
X133905714Y-121014819D01*
X135286666Y-121014819D02*
X134715238Y-121014819D01*
X135000952Y-121014819D02*
X135000952Y-120014819D01*
X135000952Y-120014819D02*
X134905714Y-120157676D01*
X134905714Y-120157676D02*
X134810476Y-120252914D01*
X134810476Y-120252914D02*
X134715238Y-120300533D01*
X141838095Y-94906819D02*
X142409523Y-94906819D01*
X142123809Y-95906819D02*
X142123809Y-94906819D01*
X142742857Y-95906819D02*
X142742857Y-94906819D01*
X142742857Y-94906819D02*
X143123809Y-94906819D01*
X143123809Y-94906819D02*
X143219047Y-94954438D01*
X143219047Y-94954438D02*
X143266666Y-95002057D01*
X143266666Y-95002057D02*
X143314285Y-95097295D01*
X143314285Y-95097295D02*
X143314285Y-95240152D01*
X143314285Y-95240152D02*
X143266666Y-95335390D01*
X143266666Y-95335390D02*
X143219047Y-95383009D01*
X143219047Y-95383009D02*
X143123809Y-95430628D01*
X143123809Y-95430628D02*
X142742857Y-95430628D01*
X143647619Y-94906819D02*
X144266666Y-94906819D01*
X144266666Y-94906819D02*
X143933333Y-95287771D01*
X143933333Y-95287771D02*
X144076190Y-95287771D01*
X144076190Y-95287771D02*
X144171428Y-95335390D01*
X144171428Y-95335390D02*
X144219047Y-95383009D01*
X144219047Y-95383009D02*
X144266666Y-95478247D01*
X144266666Y-95478247D02*
X144266666Y-95716342D01*
X144266666Y-95716342D02*
X144219047Y-95811580D01*
X144219047Y-95811580D02*
X144171428Y-95859200D01*
X144171428Y-95859200D02*
X144076190Y-95906819D01*
X144076190Y-95906819D02*
X143790476Y-95906819D01*
X143790476Y-95906819D02*
X143695238Y-95859200D01*
X143695238Y-95859200D02*
X143647619Y-95811580D01*
X139438095Y-104654819D02*
X140009523Y-104654819D01*
X139723809Y-105654819D02*
X139723809Y-104654819D01*
X140342857Y-105654819D02*
X140342857Y-104654819D01*
X140342857Y-104654819D02*
X140723809Y-104654819D01*
X140723809Y-104654819D02*
X140819047Y-104702438D01*
X140819047Y-104702438D02*
X140866666Y-104750057D01*
X140866666Y-104750057D02*
X140914285Y-104845295D01*
X140914285Y-104845295D02*
X140914285Y-104988152D01*
X140914285Y-104988152D02*
X140866666Y-105083390D01*
X140866666Y-105083390D02*
X140819047Y-105131009D01*
X140819047Y-105131009D02*
X140723809Y-105178628D01*
X140723809Y-105178628D02*
X140342857Y-105178628D01*
X141247619Y-104654819D02*
X141914285Y-104654819D01*
X141914285Y-104654819D02*
X141485714Y-105654819D01*
X142938095Y-88694819D02*
X142938095Y-89504342D01*
X142938095Y-89504342D02*
X142985714Y-89599580D01*
X142985714Y-89599580D02*
X143033333Y-89647200D01*
X143033333Y-89647200D02*
X143128571Y-89694819D01*
X143128571Y-89694819D02*
X143319047Y-89694819D01*
X143319047Y-89694819D02*
X143414285Y-89647200D01*
X143414285Y-89647200D02*
X143461904Y-89599580D01*
X143461904Y-89599580D02*
X143509523Y-89504342D01*
X143509523Y-89504342D02*
X143509523Y-88694819D01*
X143890476Y-88694819D02*
X144509523Y-88694819D01*
X144509523Y-88694819D02*
X144176190Y-89075771D01*
X144176190Y-89075771D02*
X144319047Y-89075771D01*
X144319047Y-89075771D02*
X144414285Y-89123390D01*
X144414285Y-89123390D02*
X144461904Y-89171009D01*
X144461904Y-89171009D02*
X144509523Y-89266247D01*
X144509523Y-89266247D02*
X144509523Y-89504342D01*
X144509523Y-89504342D02*
X144461904Y-89599580D01*
X144461904Y-89599580D02*
X144414285Y-89647200D01*
X144414285Y-89647200D02*
X144319047Y-89694819D01*
X144319047Y-89694819D02*
X144033333Y-89694819D01*
X144033333Y-89694819D02*
X143938095Y-89647200D01*
X143938095Y-89647200D02*
X143890476Y-89599580D01*
X159738095Y-58106819D02*
X160309523Y-58106819D01*
X160023809Y-59106819D02*
X160023809Y-58106819D01*
X160642857Y-59106819D02*
X160642857Y-58106819D01*
X160642857Y-58106819D02*
X161023809Y-58106819D01*
X161023809Y-58106819D02*
X161119047Y-58154438D01*
X161119047Y-58154438D02*
X161166666Y-58202057D01*
X161166666Y-58202057D02*
X161214285Y-58297295D01*
X161214285Y-58297295D02*
X161214285Y-58440152D01*
X161214285Y-58440152D02*
X161166666Y-58535390D01*
X161166666Y-58535390D02*
X161119047Y-58583009D01*
X161119047Y-58583009D02*
X161023809Y-58630628D01*
X161023809Y-58630628D02*
X160642857Y-58630628D01*
X162166666Y-59106819D02*
X161595238Y-59106819D01*
X161880952Y-59106819D02*
X161880952Y-58106819D01*
X161880952Y-58106819D02*
X161785714Y-58249676D01*
X161785714Y-58249676D02*
X161690476Y-58344914D01*
X161690476Y-58344914D02*
X161595238Y-58392533D01*
X155238095Y-71604819D02*
X155238095Y-72414342D01*
X155238095Y-72414342D02*
X155285714Y-72509580D01*
X155285714Y-72509580D02*
X155333333Y-72557200D01*
X155333333Y-72557200D02*
X155428571Y-72604819D01*
X155428571Y-72604819D02*
X155619047Y-72604819D01*
X155619047Y-72604819D02*
X155714285Y-72557200D01*
X155714285Y-72557200D02*
X155761904Y-72509580D01*
X155761904Y-72509580D02*
X155809523Y-72414342D01*
X155809523Y-72414342D02*
X155809523Y-71604819D01*
X156190476Y-71604819D02*
X156857142Y-71604819D01*
X156857142Y-71604819D02*
X156428571Y-72604819D01*
X129448095Y-100644819D02*
X130019523Y-100644819D01*
X129733809Y-101644819D02*
X129733809Y-100644819D01*
X130352857Y-101644819D02*
X130352857Y-100644819D01*
X130352857Y-100644819D02*
X130733809Y-100644819D01*
X130733809Y-100644819D02*
X130829047Y-100692438D01*
X130829047Y-100692438D02*
X130876666Y-100740057D01*
X130876666Y-100740057D02*
X130924285Y-100835295D01*
X130924285Y-100835295D02*
X130924285Y-100978152D01*
X130924285Y-100978152D02*
X130876666Y-101073390D01*
X130876666Y-101073390D02*
X130829047Y-101121009D01*
X130829047Y-101121009D02*
X130733809Y-101168628D01*
X130733809Y-101168628D02*
X130352857Y-101168628D01*
X131829047Y-100644819D02*
X131352857Y-100644819D01*
X131352857Y-100644819D02*
X131305238Y-101121009D01*
X131305238Y-101121009D02*
X131352857Y-101073390D01*
X131352857Y-101073390D02*
X131448095Y-101025771D01*
X131448095Y-101025771D02*
X131686190Y-101025771D01*
X131686190Y-101025771D02*
X131781428Y-101073390D01*
X131781428Y-101073390D02*
X131829047Y-101121009D01*
X131829047Y-101121009D02*
X131876666Y-101216247D01*
X131876666Y-101216247D02*
X131876666Y-101454342D01*
X131876666Y-101454342D02*
X131829047Y-101549580D01*
X131829047Y-101549580D02*
X131781428Y-101597200D01*
X131781428Y-101597200D02*
X131686190Y-101644819D01*
X131686190Y-101644819D02*
X131448095Y-101644819D01*
X131448095Y-101644819D02*
X131352857Y-101597200D01*
X131352857Y-101597200D02*
X131305238Y-101549580D01*
X162938095Y-96754819D02*
X162938095Y-97564342D01*
X162938095Y-97564342D02*
X162985714Y-97659580D01*
X162985714Y-97659580D02*
X163033333Y-97707200D01*
X163033333Y-97707200D02*
X163128571Y-97754819D01*
X163128571Y-97754819D02*
X163319047Y-97754819D01*
X163319047Y-97754819D02*
X163414285Y-97707200D01*
X163414285Y-97707200D02*
X163461904Y-97659580D01*
X163461904Y-97659580D02*
X163509523Y-97564342D01*
X163509523Y-97564342D02*
X163509523Y-96754819D01*
X164128571Y-97183390D02*
X164033333Y-97135771D01*
X164033333Y-97135771D02*
X163985714Y-97088152D01*
X163985714Y-97088152D02*
X163938095Y-96992914D01*
X163938095Y-96992914D02*
X163938095Y-96945295D01*
X163938095Y-96945295D02*
X163985714Y-96850057D01*
X163985714Y-96850057D02*
X164033333Y-96802438D01*
X164033333Y-96802438D02*
X164128571Y-96754819D01*
X164128571Y-96754819D02*
X164319047Y-96754819D01*
X164319047Y-96754819D02*
X164414285Y-96802438D01*
X164414285Y-96802438D02*
X164461904Y-96850057D01*
X164461904Y-96850057D02*
X164509523Y-96945295D01*
X164509523Y-96945295D02*
X164509523Y-96992914D01*
X164509523Y-96992914D02*
X164461904Y-97088152D01*
X164461904Y-97088152D02*
X164414285Y-97135771D01*
X164414285Y-97135771D02*
X164319047Y-97183390D01*
X164319047Y-97183390D02*
X164128571Y-97183390D01*
X164128571Y-97183390D02*
X164033333Y-97231009D01*
X164033333Y-97231009D02*
X163985714Y-97278628D01*
X163985714Y-97278628D02*
X163938095Y-97373866D01*
X163938095Y-97373866D02*
X163938095Y-97564342D01*
X163938095Y-97564342D02*
X163985714Y-97659580D01*
X163985714Y-97659580D02*
X164033333Y-97707200D01*
X164033333Y-97707200D02*
X164128571Y-97754819D01*
X164128571Y-97754819D02*
X164319047Y-97754819D01*
X164319047Y-97754819D02*
X164414285Y-97707200D01*
X164414285Y-97707200D02*
X164461904Y-97659580D01*
X164461904Y-97659580D02*
X164509523Y-97564342D01*
X164509523Y-97564342D02*
X164509523Y-97373866D01*
X164509523Y-97373866D02*
X164461904Y-97278628D01*
X164461904Y-97278628D02*
X164414285Y-97231009D01*
X164414285Y-97231009D02*
X164319047Y-97183390D01*
X140361905Y-118854819D02*
X140361905Y-117854819D01*
X140361905Y-117854819D02*
X140600000Y-117854819D01*
X140600000Y-117854819D02*
X140742857Y-117902438D01*
X140742857Y-117902438D02*
X140838095Y-117997676D01*
X140838095Y-117997676D02*
X140885714Y-118092914D01*
X140885714Y-118092914D02*
X140933333Y-118283390D01*
X140933333Y-118283390D02*
X140933333Y-118426247D01*
X140933333Y-118426247D02*
X140885714Y-118616723D01*
X140885714Y-118616723D02*
X140838095Y-118711961D01*
X140838095Y-118711961D02*
X140742857Y-118807200D01*
X140742857Y-118807200D02*
X140600000Y-118854819D01*
X140600000Y-118854819D02*
X140361905Y-118854819D01*
X141885714Y-118854819D02*
X141314286Y-118854819D01*
X141600000Y-118854819D02*
X141600000Y-117854819D01*
X141600000Y-117854819D02*
X141504762Y-117997676D01*
X141504762Y-117997676D02*
X141409524Y-118092914D01*
X141409524Y-118092914D02*
X141314286Y-118140533D01*
X135554819Y-69051904D02*
X136364342Y-69051904D01*
X136364342Y-69051904D02*
X136459580Y-69004285D01*
X136459580Y-69004285D02*
X136507200Y-68956666D01*
X136507200Y-68956666D02*
X136554819Y-68861428D01*
X136554819Y-68861428D02*
X136554819Y-68670952D01*
X136554819Y-68670952D02*
X136507200Y-68575714D01*
X136507200Y-68575714D02*
X136459580Y-68528095D01*
X136459580Y-68528095D02*
X136364342Y-68480476D01*
X136364342Y-68480476D02*
X135554819Y-68480476D01*
X135650057Y-68051904D02*
X135602438Y-68004285D01*
X135602438Y-68004285D02*
X135554819Y-67909047D01*
X135554819Y-67909047D02*
X135554819Y-67670952D01*
X135554819Y-67670952D02*
X135602438Y-67575714D01*
X135602438Y-67575714D02*
X135650057Y-67528095D01*
X135650057Y-67528095D02*
X135745295Y-67480476D01*
X135745295Y-67480476D02*
X135840533Y-67480476D01*
X135840533Y-67480476D02*
X135983390Y-67528095D01*
X135983390Y-67528095D02*
X136554819Y-68099523D01*
X136554819Y-68099523D02*
X136554819Y-67480476D01*
X138504761Y-111450057D02*
X138409523Y-111402438D01*
X138409523Y-111402438D02*
X138314285Y-111307200D01*
X138314285Y-111307200D02*
X138171428Y-111164342D01*
X138171428Y-111164342D02*
X138076190Y-111116723D01*
X138076190Y-111116723D02*
X137980952Y-111116723D01*
X138028571Y-111354819D02*
X137933333Y-111307200D01*
X137933333Y-111307200D02*
X137838095Y-111211961D01*
X137838095Y-111211961D02*
X137790476Y-111021485D01*
X137790476Y-111021485D02*
X137790476Y-110688152D01*
X137790476Y-110688152D02*
X137838095Y-110497676D01*
X137838095Y-110497676D02*
X137933333Y-110402438D01*
X137933333Y-110402438D02*
X138028571Y-110354819D01*
X138028571Y-110354819D02*
X138219047Y-110354819D01*
X138219047Y-110354819D02*
X138314285Y-110402438D01*
X138314285Y-110402438D02*
X138409523Y-110497676D01*
X138409523Y-110497676D02*
X138457142Y-110688152D01*
X138457142Y-110688152D02*
X138457142Y-111021485D01*
X138457142Y-111021485D02*
X138409523Y-111211961D01*
X138409523Y-111211961D02*
X138314285Y-111307200D01*
X138314285Y-111307200D02*
X138219047Y-111354819D01*
X138219047Y-111354819D02*
X138028571Y-111354819D01*
X138838095Y-110450057D02*
X138885714Y-110402438D01*
X138885714Y-110402438D02*
X138980952Y-110354819D01*
X138980952Y-110354819D02*
X139219047Y-110354819D01*
X139219047Y-110354819D02*
X139314285Y-110402438D01*
X139314285Y-110402438D02*
X139361904Y-110450057D01*
X139361904Y-110450057D02*
X139409523Y-110545295D01*
X139409523Y-110545295D02*
X139409523Y-110640533D01*
X139409523Y-110640533D02*
X139361904Y-110783390D01*
X139361904Y-110783390D02*
X138790476Y-111354819D01*
X138790476Y-111354819D02*
X139409523Y-111354819D01*
X163238095Y-106654819D02*
X163238095Y-107464342D01*
X163238095Y-107464342D02*
X163285714Y-107559580D01*
X163285714Y-107559580D02*
X163333333Y-107607200D01*
X163333333Y-107607200D02*
X163428571Y-107654819D01*
X163428571Y-107654819D02*
X163619047Y-107654819D01*
X163619047Y-107654819D02*
X163714285Y-107607200D01*
X163714285Y-107607200D02*
X163761904Y-107559580D01*
X163761904Y-107559580D02*
X163809523Y-107464342D01*
X163809523Y-107464342D02*
X163809523Y-106654819D01*
X164809523Y-107654819D02*
X164238095Y-107654819D01*
X164523809Y-107654819D02*
X164523809Y-106654819D01*
X164523809Y-106654819D02*
X164428571Y-106797676D01*
X164428571Y-106797676D02*
X164333333Y-106892914D01*
X164333333Y-106892914D02*
X164238095Y-106940533D01*
X136138095Y-106587319D02*
X136138095Y-107396842D01*
X136138095Y-107396842D02*
X136185714Y-107492080D01*
X136185714Y-107492080D02*
X136233333Y-107539700D01*
X136233333Y-107539700D02*
X136328571Y-107587319D01*
X136328571Y-107587319D02*
X136519047Y-107587319D01*
X136519047Y-107587319D02*
X136614285Y-107539700D01*
X136614285Y-107539700D02*
X136661904Y-107492080D01*
X136661904Y-107492080D02*
X136709523Y-107396842D01*
X136709523Y-107396842D02*
X136709523Y-106587319D01*
X137614285Y-106920652D02*
X137614285Y-107587319D01*
X137376190Y-106539700D02*
X137138095Y-107253985D01*
X137138095Y-107253985D02*
X137757142Y-107253985D01*
X129666666Y-107354819D02*
X129666666Y-108069104D01*
X129666666Y-108069104D02*
X129619047Y-108211961D01*
X129619047Y-108211961D02*
X129523809Y-108307200D01*
X129523809Y-108307200D02*
X129380952Y-108354819D01*
X129380952Y-108354819D02*
X129285714Y-108354819D01*
X130047619Y-107354819D02*
X130666666Y-107354819D01*
X130666666Y-107354819D02*
X130333333Y-107735771D01*
X130333333Y-107735771D02*
X130476190Y-107735771D01*
X130476190Y-107735771D02*
X130571428Y-107783390D01*
X130571428Y-107783390D02*
X130619047Y-107831009D01*
X130619047Y-107831009D02*
X130666666Y-107926247D01*
X130666666Y-107926247D02*
X130666666Y-108164342D01*
X130666666Y-108164342D02*
X130619047Y-108259580D01*
X130619047Y-108259580D02*
X130571428Y-108307200D01*
X130571428Y-108307200D02*
X130476190Y-108354819D01*
X130476190Y-108354819D02*
X130190476Y-108354819D01*
X130190476Y-108354819D02*
X130095238Y-108307200D01*
X130095238Y-108307200D02*
X130047619Y-108259580D01*
X156438095Y-104454819D02*
X156438095Y-105264342D01*
X156438095Y-105264342D02*
X156485714Y-105359580D01*
X156485714Y-105359580D02*
X156533333Y-105407200D01*
X156533333Y-105407200D02*
X156628571Y-105454819D01*
X156628571Y-105454819D02*
X156819047Y-105454819D01*
X156819047Y-105454819D02*
X156914285Y-105407200D01*
X156914285Y-105407200D02*
X156961904Y-105359580D01*
X156961904Y-105359580D02*
X157009523Y-105264342D01*
X157009523Y-105264342D02*
X157009523Y-104454819D01*
X157914285Y-104454819D02*
X157723809Y-104454819D01*
X157723809Y-104454819D02*
X157628571Y-104502438D01*
X157628571Y-104502438D02*
X157580952Y-104550057D01*
X157580952Y-104550057D02*
X157485714Y-104692914D01*
X157485714Y-104692914D02*
X157438095Y-104883390D01*
X157438095Y-104883390D02*
X157438095Y-105264342D01*
X157438095Y-105264342D02*
X157485714Y-105359580D01*
X157485714Y-105359580D02*
X157533333Y-105407200D01*
X157533333Y-105407200D02*
X157628571Y-105454819D01*
X157628571Y-105454819D02*
X157819047Y-105454819D01*
X157819047Y-105454819D02*
X157914285Y-105407200D01*
X157914285Y-105407200D02*
X157961904Y-105359580D01*
X157961904Y-105359580D02*
X158009523Y-105264342D01*
X158009523Y-105264342D02*
X158009523Y-105026247D01*
X158009523Y-105026247D02*
X157961904Y-104931009D01*
X157961904Y-104931009D02*
X157914285Y-104883390D01*
X157914285Y-104883390D02*
X157819047Y-104835771D01*
X157819047Y-104835771D02*
X157628571Y-104835771D01*
X157628571Y-104835771D02*
X157533333Y-104883390D01*
X157533333Y-104883390D02*
X157485714Y-104931009D01*
X157485714Y-104931009D02*
X157438095Y-105026247D01*
D12*
%TO.C,TP4*%
X140400000Y-96840000D02*
G75*
G02*
X139000000Y-96840000I-700000J0D01*
G01*
X139000000Y-96840000D02*
G75*
G02*
X140400000Y-96840000I700000J0D01*
G01*
%TO.C,Q1*%
X139700000Y-112840000D02*
X139050000Y-112840000D01*
X139700000Y-112840000D02*
X140350000Y-112840000D01*
X139700000Y-115960000D02*
X139050000Y-115960000D01*
X139700000Y-115960000D02*
X140350000Y-115960000D01*
X141102500Y-116240000D02*
X140622500Y-116240000D01*
X140862500Y-115910000D01*
X141102500Y-116240000D01*
G36*
X141102500Y-116240000D02*
G01*
X140622500Y-116240000D01*
X140862500Y-115910000D01*
X141102500Y-116240000D01*
G37*
%TO.C,C4*%
X133738748Y-106765000D02*
X134261252Y-106765000D01*
X133738748Y-108235000D02*
X134261252Y-108235000D01*
%TO.C,R7*%
X158827064Y-64665000D02*
X158372936Y-64665000D01*
X158827064Y-66135000D02*
X158372936Y-66135000D01*
%TO.C,D4*%
X141545000Y-74490000D02*
X144230000Y-74490000D01*
X144230000Y-72570000D02*
X141545000Y-72570000D01*
X144230000Y-74490000D02*
X144230000Y-72570000D01*
%TO.C,R10*%
X138802064Y-72830000D02*
X138347936Y-72830000D01*
X138802064Y-74300000D02*
X138347936Y-74300000D01*
%TO.C,D2*%
X141552500Y-79525000D02*
X144237500Y-79525000D01*
X144237500Y-77605000D02*
X141552500Y-77605000D01*
X144237500Y-79525000D02*
X144237500Y-77605000D01*
%TO.C,C13*%
X160865000Y-101611252D02*
X160865000Y-101088748D01*
X162335000Y-101611252D02*
X162335000Y-101088748D01*
%TO.C,C8*%
X158861252Y-67165000D02*
X158338748Y-67165000D01*
X158861252Y-68635000D02*
X158338748Y-68635000D01*
%TO.C,TP2*%
X159000000Y-60100000D02*
G75*
G02*
X157600000Y-60100000I-700000J0D01*
G01*
X157600000Y-60100000D02*
G75*
G02*
X159000000Y-60100000I700000J0D01*
G01*
%TO.C,RESET_SW2*%
X160750000Y-63100000D02*
X160750000Y-69300000D01*
X161210000Y-63100000D02*
X160750000Y-63100000D01*
X161210000Y-69300000D02*
X160750000Y-69300000D01*
X163990000Y-63100000D02*
X163990000Y-62100000D01*
X164450000Y-63100000D02*
X163990000Y-63100000D01*
X164450000Y-69300000D02*
X163990000Y-69300000D01*
X164450000Y-69300000D02*
X164450000Y-63100000D01*
X163150000Y-64700000D02*
X162100000Y-64700000D01*
X162100000Y-67550000D01*
X163150000Y-67550000D01*
X163150000Y-64700000D01*
%TO.C,TP6*%
X138600000Y-103300000D02*
G75*
G02*
X137200000Y-103300000I-700000J0D01*
G01*
X137200000Y-103300000D02*
G75*
G02*
X138600000Y-103300000I700000J0D01*
G01*
%TO.C,J2*%
X132200000Y-86870000D02*
X133900000Y-86870000D01*
X132200000Y-96210000D02*
X133900000Y-96210000D01*
%TO.C,C18*%
X133815000Y-53751252D02*
X133815000Y-53228748D01*
X135285000Y-53751252D02*
X135285000Y-53228748D01*
%TO.C,C15*%
X153761252Y-105465000D02*
X153238748Y-105465000D01*
X153761252Y-106935000D02*
X153238748Y-106935000D01*
%TO.C,C3*%
X134273748Y-98297500D02*
X134796252Y-98297500D01*
X134273748Y-99767500D02*
X134796252Y-99767500D01*
%TO.C,R3*%
X129800000Y-104005436D02*
X129800000Y-104459564D01*
X131270000Y-104005436D02*
X131270000Y-104459564D01*
%TO.C,C14*%
X151840000Y-75913748D02*
X151840000Y-76436252D01*
X153310000Y-75913748D02*
X153310000Y-76436252D01*
%TO.C,J1*%
X141370000Y-119970000D02*
X141870000Y-119970000D01*
X141620000Y-120470000D02*
X141370000Y-119970000D01*
X141870000Y-119970000D02*
X141620000Y-120470000D01*
%TO.C,TP3*%
X143800000Y-96900000D02*
G75*
G02*
X142400000Y-96900000I-700000J0D01*
G01*
X142400000Y-96900000D02*
G75*
G02*
X143800000Y-96900000I700000J0D01*
G01*
%TO.C,C11*%
X136800000Y-100161252D02*
X136800000Y-99638748D01*
X138270000Y-100161252D02*
X138270000Y-99638748D01*
%TO.C,L1*%
X134135378Y-100372500D02*
X134934622Y-100372500D01*
X134135378Y-101492500D02*
X134934622Y-101492500D01*
%TO.C,TP7*%
X141400000Y-103300000D02*
G75*
G02*
X140000000Y-103300000I-700000J0D01*
G01*
X140000000Y-103300000D02*
G75*
G02*
X141400000Y-103300000I700000J0D01*
G01*
%TO.C,RESET_SW1*%
X130050000Y-62900000D02*
X130050000Y-69100000D01*
X130510000Y-62900000D02*
X130050000Y-62900000D01*
X130510000Y-69100000D02*
X130050000Y-69100000D01*
X133290000Y-62900000D02*
X133290000Y-61900000D01*
X133750000Y-62900000D02*
X133290000Y-62900000D01*
X133750000Y-69100000D02*
X133290000Y-69100000D01*
X133750000Y-69100000D02*
X133750000Y-62900000D01*
X132450000Y-64500000D02*
X131400000Y-64500000D01*
X131400000Y-67350000D01*
X132450000Y-67350000D01*
X132450000Y-64500000D01*
%TO.C,U3*%
X139440000Y-87640000D02*
X139440000Y-86840000D01*
X139440000Y-87640000D02*
X139440000Y-88440000D01*
X142560000Y-87640000D02*
X142560000Y-86840000D01*
X142560000Y-87640000D02*
X142560000Y-88440000D01*
X139490000Y-88940000D02*
X139160000Y-89180000D01*
X139160000Y-88700000D01*
X139490000Y-88940000D01*
G36*
X139490000Y-88940000D02*
G01*
X139160000Y-89180000D01*
X139160000Y-88700000D01*
X139490000Y-88940000D01*
G37*
%TO.C,TP1*%
X161700000Y-60100000D02*
G75*
G02*
X160300000Y-60100000I-700000J0D01*
G01*
X160300000Y-60100000D02*
G75*
G02*
X161700000Y-60100000I700000J0D01*
G01*
%TO.C,U7*%
X154350000Y-78400000D02*
X154350000Y-77900000D01*
X154650000Y-73200000D02*
X155400000Y-73200000D01*
X154850000Y-78400000D02*
X154350000Y-78400000D01*
X157150000Y-73200000D02*
X157650000Y-73200000D01*
X157650000Y-73200000D02*
X157650000Y-73700000D01*
X157650000Y-77900000D02*
X157650000Y-78400000D01*
X157650000Y-78400000D02*
X157150000Y-78400000D01*
X154450000Y-73200000D02*
X154090000Y-73200000D01*
X154450000Y-72840000D01*
X154450000Y-73200000D01*
G36*
X154450000Y-73200000D02*
G01*
X154090000Y-73200000D01*
X154450000Y-72840000D01*
X154450000Y-73200000D01*
G37*
%TO.C,C17*%
X131305000Y-53751252D02*
X131305000Y-53228748D01*
X132775000Y-53751252D02*
X132775000Y-53228748D01*
%TO.C,R12*%
X161340000Y-76402064D02*
X161340000Y-75947936D01*
X162810000Y-76402064D02*
X162810000Y-75947936D01*
%TO.C,TP5*%
X131355000Y-99332500D02*
G75*
G02*
X129955000Y-99332500I-700000J0D01*
G01*
X129955000Y-99332500D02*
G75*
G02*
X131355000Y-99332500I700000J0D01*
G01*
%TO.C,U8*%
X147090000Y-80190000D02*
X147090000Y-81690000D01*
X147090000Y-96410000D02*
X147090000Y-95910000D01*
X163310000Y-80190000D02*
X147090000Y-80190000D01*
X163310000Y-80190000D02*
X163310000Y-81690000D01*
X163310000Y-96410000D02*
X147090000Y-96410000D01*
X163310000Y-96410000D02*
X163310000Y-95910000D01*
X146540000Y-81690000D02*
X146300000Y-81360000D01*
X146780000Y-81360000D01*
X146540000Y-81690000D01*
G36*
X146540000Y-81690000D02*
G01*
X146300000Y-81360000D01*
X146780000Y-81360000D01*
X146540000Y-81690000D01*
G37*
%TO.C,C1*%
X160865000Y-104738748D02*
X160865000Y-105261252D01*
X162335000Y-104738748D02*
X162335000Y-105261252D01*
%TO.C,D1*%
X142065000Y-109615000D02*
X142065000Y-118300000D01*
X147735000Y-109615000D02*
X142065000Y-109615000D01*
X147735000Y-118300000D02*
X147735000Y-109615000D01*
%TO.C,R1*%
X137365000Y-83667064D02*
X137365000Y-83212936D01*
X138835000Y-83667064D02*
X138835000Y-83212936D01*
%TO.C,U2*%
X137400000Y-43990000D02*
X137400000Y-50190000D01*
X137400000Y-43990000D02*
X155800000Y-43990000D01*
X137400000Y-68840000D02*
X137400000Y-69840000D01*
X137400000Y-69840000D02*
X138900000Y-69840000D01*
X155800000Y-43990000D02*
X155800000Y-50190000D01*
X155800000Y-69840000D02*
X154300000Y-69840000D01*
X155800000Y-69840000D02*
X155800000Y-68840000D01*
X137400000Y-50865000D02*
X136900000Y-50865000D01*
X137400000Y-50365000D01*
X137400000Y-50865000D01*
G36*
X137400000Y-50865000D02*
G01*
X136900000Y-50865000D01*
X137400000Y-50365000D01*
X137400000Y-50865000D01*
G37*
%TO.C,C7*%
X131265000Y-56938748D02*
X131265000Y-57461252D01*
X132735000Y-56938748D02*
X132735000Y-57461252D01*
%TO.C,R5*%
X141465000Y-83667064D02*
X141465000Y-83212936D01*
X142935000Y-83667064D02*
X142935000Y-83212936D01*
%TO.C,C10*%
X142765000Y-107438748D02*
X142765000Y-107961252D01*
X144235000Y-107438748D02*
X144235000Y-107961252D01*
%TO.C,R4*%
X139465000Y-83212936D02*
X139465000Y-83667064D01*
X140935000Y-83212936D02*
X140935000Y-83667064D01*
%TO.C,R9*%
X138809564Y-75365000D02*
X138355436Y-75365000D01*
X138809564Y-76835000D02*
X138355436Y-76835000D01*
%TO.C,C12*%
X158665000Y-101138748D02*
X158665000Y-101661252D01*
X160135000Y-101138748D02*
X160135000Y-101661252D01*
%TO.C,Q2*%
X139700000Y-106827500D02*
X139050000Y-106827500D01*
X139700000Y-106827500D02*
X140350000Y-106827500D01*
X139700000Y-109947500D02*
X139050000Y-109947500D01*
X139700000Y-109947500D02*
X140350000Y-109947500D01*
X141102500Y-110227500D02*
X140622500Y-110227500D01*
X140862500Y-109897500D01*
X141102500Y-110227500D01*
G36*
X141102500Y-110227500D02*
G01*
X140622500Y-110227500D01*
X140862500Y-109897500D01*
X141102500Y-110227500D01*
G37*
%TO.C,D3*%
X141552500Y-77075000D02*
X144237500Y-77075000D01*
X144237500Y-75155000D02*
X141552500Y-75155000D01*
X144237500Y-77075000D02*
X144237500Y-75155000D01*
%TO.C,C9*%
X138965000Y-100161252D02*
X138965000Y-99638748D01*
X140435000Y-100161252D02*
X140435000Y-99638748D01*
D13*
%TO.C,U1*%
X148145000Y-108845000D02*
X148526000Y-108845000D01*
X148145000Y-125482000D02*
X148145000Y-108845000D01*
X148399000Y-125482000D02*
X148145000Y-125482000D01*
X148526000Y-108845000D02*
X148569500Y-108801500D01*
X148569000Y-125482000D02*
X148399000Y-125482000D01*
X150231000Y-108845000D02*
X150569000Y-108845000D01*
X150569000Y-125482000D02*
X150231000Y-125482000D01*
X152231000Y-108845000D02*
X152569000Y-108845000D01*
X152569000Y-125482000D02*
X152231000Y-125482000D01*
X154231000Y-108845000D02*
X154569000Y-108845000D01*
X154569000Y-125482000D02*
X154231000Y-125482000D01*
X156231000Y-108845000D02*
X156569000Y-108845000D01*
X156569000Y-125482000D02*
X156231000Y-125482000D01*
X158231000Y-108845000D02*
X158569000Y-108845000D01*
X158569000Y-125482000D02*
X158231000Y-125482000D01*
X160231000Y-108845000D02*
X160569000Y-108845000D01*
X160569000Y-125482000D02*
X160231000Y-125482000D01*
X162231000Y-108845000D02*
X162569000Y-108845000D01*
X162569000Y-125482000D02*
X162231000Y-125482000D01*
X164231000Y-108845000D02*
X164655000Y-108845000D01*
X164655000Y-108845000D02*
X164655000Y-125482000D01*
X164655000Y-125482000D02*
X164231000Y-125482000D01*
X149161000Y-123196000D02*
X163639000Y-123196000D01*
X163639000Y-111131000D01*
X149161000Y-111131000D01*
X149161000Y-123196000D01*
D12*
%TO.C,U4*%
X132690000Y-102790000D02*
X132690000Y-103765000D01*
X132690000Y-105035000D02*
X132690000Y-106010000D01*
X132920000Y-102790000D02*
X132690000Y-102790000D01*
X132920000Y-106010000D02*
X132690000Y-106010000D01*
X135910000Y-103080000D02*
X135910000Y-103765000D01*
X135910000Y-105035000D02*
X135910000Y-106010000D01*
X135910000Y-106010000D02*
X135680000Y-106010000D01*
X136190000Y-102760000D02*
X135910000Y-102760000D01*
X135910000Y-102480000D01*
X136190000Y-102760000D01*
G36*
X136190000Y-102760000D02*
G01*
X135910000Y-102760000D01*
X135910000Y-102480000D01*
X136190000Y-102760000D01*
G37*
%TO.C,R11*%
X159340000Y-76402064D02*
X159340000Y-75947936D01*
X160810000Y-76402064D02*
X160810000Y-75947936D01*
%TO.C,R13*%
X148302500Y-101527064D02*
X148302500Y-101072936D01*
X149772500Y-101527064D02*
X149772500Y-101072936D01*
%TO.C,C2*%
X158565000Y-104738748D02*
X158565000Y-105261252D01*
X160035000Y-104738748D02*
X160035000Y-105261252D01*
%TO.C,R14*%
X146302500Y-101527064D02*
X146302500Y-101072936D01*
X147772500Y-101527064D02*
X147772500Y-101072936D01*
%TO.C,C16*%
X154938748Y-97165000D02*
X155461252Y-97165000D01*
X154938748Y-98635000D02*
X155461252Y-98635000D01*
%TO.C,J3*%
X128680000Y-108992500D02*
X136920000Y-108992500D01*
X128680000Y-119232500D02*
X128680000Y-108992500D01*
X128680000Y-119232500D02*
X136920000Y-119232500D01*
X130800000Y-119232500D02*
X130800000Y-108992500D01*
X131389000Y-110428500D02*
X131469000Y-110507500D01*
X131616000Y-110201500D02*
X131696000Y-110280500D01*
X133904000Y-112944500D02*
X133983000Y-113023500D01*
X134131000Y-112717500D02*
X134210000Y-112796500D01*
X134800000Y-119232500D02*
X134800000Y-108992500D01*
X136920000Y-116312500D02*
X136920000Y-108992500D01*
X136920000Y-119232500D02*
X136920000Y-116912500D01*
X131070000Y-117295500D02*
G75*
G02*
X131070106Y-115929233I1730000J682999D01*
G01*
X132117000Y-114882500D02*
G75*
G02*
X133483267Y-114882606I682999J-1730000D01*
G01*
X133483000Y-118342500D02*
G75*
G02*
X132116733Y-118342394I-683000J1730000D01*
G01*
X134530000Y-115929500D02*
G75*
G02*
X134529894Y-117295767I-1730000J-683000D01*
G01*
X134660000Y-111612500D02*
G75*
G02*
X130940000Y-111612500I-1860000J0D01*
G01*
X130940000Y-111612500D02*
G75*
G02*
X134660000Y-111612500I1860000J0D01*
G01*
X137530000Y-117052500D02*
X136920000Y-116612500D01*
X137530000Y-116172500D01*
X137530000Y-117052500D01*
G36*
X137530000Y-117052500D02*
G01*
X136920000Y-116612500D01*
X137530000Y-116172500D01*
X137530000Y-117052500D01*
G37*
%TO.C,U6*%
X151300000Y-100415000D02*
X151300000Y-100190000D01*
X151300000Y-104250000D02*
X151300000Y-103725000D01*
X151300000Y-104250000D02*
X151825000Y-104250000D01*
X151825000Y-99950000D02*
X151600000Y-99950000D01*
X155600000Y-99950000D02*
X155075000Y-99950000D01*
X155600000Y-99950000D02*
X155600000Y-100475000D01*
X155600000Y-104250000D02*
X155075000Y-104250000D01*
X155600000Y-104250000D02*
X155600000Y-103725000D01*
X151300000Y-99950000D02*
X151060000Y-99620000D01*
X151540000Y-99620000D01*
X151300000Y-99950000D01*
G36*
X151300000Y-99950000D02*
G01*
X151060000Y-99620000D01*
X151540000Y-99620000D01*
X151300000Y-99950000D01*
G37*
%TO.C,R6*%
X133765000Y-57427064D02*
X133765000Y-56972936D01*
X135235000Y-57427064D02*
X135235000Y-56972936D01*
%TO.C,R8*%
X138809564Y-77765000D02*
X138355436Y-77765000D01*
X138809564Y-79235000D02*
X138355436Y-79235000D01*
%TO.C,R2*%
X140172936Y-92565000D02*
X140627064Y-92565000D01*
X140172936Y-94035000D02*
X140627064Y-94035000D01*
%TD*%
M02*
