M48
; DRILL file {KiCad 9.0.2} date 2025-09-01T18:38:52-0400
; FORMAT={-:-/ absolute / metric / decimal}
; #@! TF.CreationDate,2025-09-01T18:38:52-04:00
; #@! TF.GenerationSoftware,Kicad,Pcbnew,9.0.2
; #@! TF.FileFunction,MixedPlating,1,4
FMAT,2
METRIC
; #@! TA.AperFunction,Plated,PTH,ComponentDrill
T1C0.200
; #@! TA.AperFunction,Plated,PTH,ViaDrill
T2C0.300
; #@! TA.AperFunction,Plated,PTH,ComponentDrill
T3C0.460
; #@! TA.AperFunction,Plated,PTH,ComponentDrill
T4C0.600
; #@! TA.AperFunction,Plated,PTH,ComponentDrill
T5C1.300
; #@! TA.AperFunction,Plated,PTH,ComponentDrill
T6C3.200
; #@! TA.AperFunction,NonPlated,NPTH,ComponentDrill
T7C0.650
%
G90
G05
T1
X133.35Y-104.4
X134.3Y-103.825
X134.3Y-104.975
X135.25Y-104.4
X143.7Y-58.65
X143.7Y-60.05
X144.4Y-57.95
X144.4Y-59.35
X144.4Y-60.75
X145.1Y-58.65
X145.1Y-60.05
X145.8Y-57.95
X145.8Y-59.35
X145.8Y-60.75
X146.5Y-58.65
X146.5Y-60.05
T2
X129.4Y-106.6
X130.1Y-54.4
X130.1Y-55.3
X130.1Y-56.2
X131.3Y-108.0
X132.0Y-102.0
X133.3Y-52.54
X133.3Y-55.4
X134.5Y-60.4
X135.2Y-65.6
X135.5Y-97.4
X135.8Y-52.9
X136.0Y-60.4
X136.0Y-61.7
X136.0Y-63.1
X136.1Y-51.4
X136.1Y-64.4
X136.2Y-75.8
X136.2Y-78.2
X136.5Y-52.9
X136.5Y-97.4
X136.5Y-106.1
X137.4Y-72.2
X137.5Y-90.2
X137.5Y-97.4
X137.7Y-88.0
X138.545Y-119.445
X139.4Y-71.6
X139.48Y-57.98
X139.6Y-56.7
X139.7Y-55.4
X141.1Y-100.7
X141.2Y-97.7
X142.0Y-107.438
X142.3Y-71.1
X142.9Y-115.3
X143.0Y-98.5
X143.5Y-70.9
X144.8Y-70.9
X145.1Y-82.5
X145.11Y-84.99
X145.2Y-98.9
X145.3Y-94.9
X145.35Y-103.85
X145.7Y-77.5
X147.1Y-106.7
X147.3Y-71.0
X148.6Y-71.0
X148.7Y-103.4
X149.9Y-71.0
X150.9Y-74.9
X151.2Y-71.0
X151.4Y-107.3
X151.4Y-122.7
X151.5Y-105.0
X152.5Y-70.9
X153.4Y-122.7
X155.4Y-122.7
X155.8Y-105.3
X156.7Y-103.3
X156.8Y-106.4
X157.3Y-51.6
X157.4Y-122.7
X158.3Y-63.6
X158.5Y-73.925
X158.5Y-75.175
X159.4Y-122.7
X159.5Y-107.5
X159.6Y-78.4
T3
X137.24Y-120.75
X146.0Y-120.75
T5
X131.9Y-62.75
X131.9Y-69.25
X132.8Y-111.612
X132.8Y-116.612
X162.6Y-62.95
X162.6Y-69.45
T6
X131.9Y-124.6
X161.1Y-54.2
T7
X134.705Y-88.65
X134.705Y-94.43
T4
G00X131.425Y-87.22
M15
G01X130.625Y-87.22
M16
G05
G00X131.425Y-95.86
M15
G01X130.625Y-95.86
M16
G05
G00X135.755Y-87.22
M15
G01X134.655Y-87.22
M16
G05
G00X135.755Y-95.86
M15
G01X134.655Y-95.86
M16
G05
M30
