%TF.GenerationSoftware,KiCad,Pcbnew,9.0.2*%
%TF.CreationDate,2025-09-01T18:39:20-04:00*%
%TF.ProjectId,ABAD,41424144-2e6b-4696-9361-645f70636258,rev?*%
%TF.SameCoordinates,Original*%
%TF.FileFunction,Copper,L2,Inr*%
%TF.FilePolarity,Positive*%
%FSLAX46Y46*%
G04 Gerber Fmt 4.6, Leading zero omitted, Abs format (unit mm)*
G04 Created by KiCad (PCBNEW 9.0.2) date 2025-09-01 18:39:20*
%MOMM*%
%LPD*%
G01*
G04 APERTURE LIST*
G04 Aperture macros list*
%AMRoundRect*
0 Rectangle with rounded corners*
0 $1 Rounding radius*
0 $2 $3 $4 $5 $6 $7 $8 $9 X,Y pos of 4 corners*
0 Add a 4 corners polygon primitive as box body*
4,1,4,$2,$3,$4,$5,$6,$7,$8,$9,$2,$3,0*
0 Add four circle primitives for the rounded corners*
1,1,$1+$1,$2,$3*
1,1,$1+$1,$4,$5*
1,1,$1+$1,$6,$7*
1,1,$1+$1,$8,$9*
0 Add four rect primitives between the rounded corners*
20,1,$1+$1,$2,$3,$4,$5,0*
20,1,$1+$1,$4,$5,$6,$7,0*
20,1,$1+$1,$6,$7,$8,$9,0*
20,1,$1+$1,$8,$9,$2,$3,0*%
G04 Aperture macros list end*
%TA.AperFunction,ComponentPad*%
%ADD10R,2.250000X2.250000*%
%TD*%
%TA.AperFunction,ComponentPad*%
%ADD11C,2.250000*%
%TD*%
%TA.AperFunction,HeatsinkPad*%
%ADD12O,2.100000X1.000000*%
%TD*%
%TA.AperFunction,HeatsinkPad*%
%ADD13O,1.800000X1.000000*%
%TD*%
%TA.AperFunction,ComponentPad*%
%ADD14C,0.970000*%
%TD*%
%TA.AperFunction,ComponentPad*%
%ADD15C,6.400000*%
%TD*%
%TA.AperFunction,HeatsinkPad*%
%ADD16C,0.600000*%
%TD*%
%TA.AperFunction,ComponentPad*%
%ADD17C,0.500000*%
%TD*%
%TA.AperFunction,ComponentPad*%
%ADD18RoundRect,0.250000X1.000000X-1.000000X1.000000X1.000000X-1.000000X1.000000X-1.000000X-1.000000X0*%
%TD*%
%TA.AperFunction,ComponentPad*%
%ADD19C,2.500000*%
%TD*%
%TA.AperFunction,ViaPad*%
%ADD20C,0.600000*%
%TD*%
G04 APERTURE END LIST*
D10*
%TO.N,/BOOT*%
%TO.C,RESET_SW2*%
X162600000Y-62950000D03*
D11*
%TO.N,GND*%
X162600000Y-69450000D03*
%TD*%
D12*
%TO.N,GND*%
%TO.C,J2*%
X135205000Y-87220000D03*
D13*
X131025000Y-87220000D03*
D12*
X135205000Y-95860000D03*
D13*
X131025000Y-95860000D03*
%TD*%
D14*
%TO.N,GND*%
%TO.C,J1*%
X137240000Y-120750000D03*
X146000000Y-120750000D03*
%TD*%
D10*
%TO.N,/EN_RST*%
%TO.C,RESET_SW1*%
X131900000Y-62750000D03*
D11*
%TO.N,GND*%
X131900000Y-69250000D03*
%TD*%
D15*
%TO.N,N/C*%
%TO.C,H2*%
X161100000Y-54200000D03*
%TD*%
%TO.N,N/C*%
%TO.C,H1*%
X131900000Y-124600000D03*
%TD*%
D16*
%TO.N,GND*%
%TO.C,U2*%
X143700000Y-58650000D03*
X143700000Y-60050000D03*
X144400000Y-57950000D03*
X144400000Y-59350000D03*
X144400000Y-60750000D03*
X145100000Y-58650000D03*
X145100000Y-60050000D03*
X145800000Y-57950000D03*
X145800000Y-59350000D03*
X145800000Y-60750000D03*
X146500000Y-58650000D03*
X146500000Y-60050000D03*
%TD*%
D17*
%TO.N,GND*%
%TO.C,U4*%
X134300000Y-103825000D03*
X135250000Y-104400000D03*
X133350000Y-104400000D03*
X134300000Y-104975000D03*
%TD*%
D18*
%TO.N,GND*%
%TO.C,J3*%
X132800000Y-116612500D03*
D19*
%TO.N,BATT_RAW+*%
X132800000Y-111612500D03*
%TD*%
D20*
%TO.N,GND*%
X138545000Y-119445000D03*
X130100000Y-55300000D03*
X135500000Y-97400000D03*
X137500000Y-97400000D03*
X136100000Y-51400000D03*
X129400000Y-106600000D03*
X157300000Y-51600000D03*
X131300000Y-108000000D03*
X136500000Y-97400000D03*
X130100000Y-56200000D03*
X130100000Y-54400000D03*
%TO.N,+3.3V*%
X143000000Y-98500000D03*
X135800000Y-52900000D03*
X136500000Y-52900000D03*
X159600000Y-78400000D03*
X150900000Y-74900000D03*
X136500000Y-106100000D03*
X156800000Y-106400000D03*
X158300000Y-63600000D03*
X133300000Y-55400000D03*
X148700000Y-103400000D03*
X156700000Y-103300000D03*
X141100000Y-100700000D03*
X151500000Y-105000000D03*
X133300000Y-52540000D03*
X137400000Y-72200000D03*
%TO.N,+BATT*%
X142000000Y-107437500D03*
X132000000Y-102000000D03*
%TO.N,VBUS*%
X141200000Y-97700000D03*
X142900000Y-115300000D03*
%TO.N,Net-(J2-CC1)*%
X137500000Y-90200000D03*
X137700000Y-88000000D03*
%TO.N,/RF_LED*%
X136200000Y-78200000D03*
X135200000Y-65600000D03*
%TO.N,/PPS_LED*%
X134500000Y-60400000D03*
X136200000Y-75800000D03*
%TO.N,/BARO_SDA*%
X139700000Y-55400000D03*
X158500000Y-75175000D03*
%TO.N,/BARO_SCL*%
X158500000Y-73925000D03*
X139600000Y-56700000D03*
%TO.N,/ACCEL_SDA*%
X136000000Y-60400000D03*
X145350000Y-103850000D03*
%TO.N,/ACCEL_SCL*%
X136000000Y-61700000D03*
X145200000Y-98900000D03*
%TO.N,/NRESET*%
X148600000Y-71000000D03*
X159400000Y-122700000D03*
%TO.N,/MOSI*%
X153400000Y-122700000D03*
X144800000Y-70900000D03*
%TO.N,/BUSY*%
X142300000Y-71100000D03*
X147100000Y-106700000D03*
%TO.N,/RF_INT*%
X159500000Y-107500000D03*
X152500000Y-70900000D03*
%TO.N,/ACCEL_INT*%
X151200000Y-71000000D03*
X155800000Y-105300000D03*
%TO.N,/NSS*%
X143500000Y-70900000D03*
X157400000Y-122700000D03*
%TO.N,/PPS*%
X139400000Y-71600000D03*
X145300000Y-94900000D03*
X139480000Y-57980000D03*
%TO.N,/GPS_RX*%
X145100000Y-82500000D03*
X136000000Y-63100000D03*
%TO.N,/SCLK*%
X155400000Y-122700000D03*
X145700000Y-77500000D03*
%TO.N,/GPS_TX*%
X145110000Y-84990000D03*
X136100000Y-64400000D03*
%TO.N,/MISO*%
X147300000Y-71000000D03*
X151400000Y-122700000D03*
%TO.N,/TXCO*%
X149900000Y-71000000D03*
X151400000Y-107300000D03*
%TD*%
%TA.AperFunction,Conductor*%
%TO.N,GND*%
G36*
X159519636Y-50639685D02*
G01*
X159565391Y-50692489D01*
X159575335Y-50761647D01*
X159546310Y-50825203D01*
X159511050Y-50853358D01*
X159195279Y-51022140D01*
X159195261Y-51022151D01*
X158892964Y-51224140D01*
X158892950Y-51224150D01*
X158611893Y-51454807D01*
X158354807Y-51711893D01*
X158124150Y-51992950D01*
X158124140Y-51992964D01*
X157922151Y-52295261D01*
X157922140Y-52295279D01*
X157750756Y-52615916D01*
X157750754Y-52615921D01*
X157611614Y-52951834D01*
X157506067Y-53299776D01*
X157506064Y-53299787D01*
X157435137Y-53656369D01*
X157399500Y-54018209D01*
X157399500Y-54381790D01*
X157435137Y-54743630D01*
X157506064Y-55100212D01*
X157506067Y-55100223D01*
X157611614Y-55448165D01*
X157750754Y-55784078D01*
X157750756Y-55784083D01*
X157922140Y-56104720D01*
X157922151Y-56104738D01*
X158124140Y-56407035D01*
X158124150Y-56407049D01*
X158354807Y-56688106D01*
X158611893Y-56945192D01*
X158611898Y-56945196D01*
X158611899Y-56945197D01*
X158892956Y-57175854D01*
X159195268Y-57377853D01*
X159195277Y-57377858D01*
X159195279Y-57377859D01*
X159515916Y-57549243D01*
X159515918Y-57549243D01*
X159515924Y-57549247D01*
X159851836Y-57688386D01*
X160199767Y-57793930D01*
X160199773Y-57793931D01*
X160199776Y-57793932D01*
X160199787Y-57793935D01*
X160556369Y-57864862D01*
X160918206Y-57900500D01*
X160918209Y-57900500D01*
X161281791Y-57900500D01*
X161281794Y-57900500D01*
X161643631Y-57864862D01*
X161713045Y-57851054D01*
X162000212Y-57793935D01*
X162000223Y-57793932D01*
X162000223Y-57793931D01*
X162000233Y-57793930D01*
X162348164Y-57688386D01*
X162684076Y-57549247D01*
X163004732Y-57377853D01*
X163307044Y-57175854D01*
X163588101Y-56945197D01*
X163845197Y-56688101D01*
X164075854Y-56407044D01*
X164277853Y-56104732D01*
X164416142Y-55846010D01*
X164465104Y-55796167D01*
X164533242Y-55780706D01*
X164598921Y-55804538D01*
X164641290Y-55860095D01*
X164649500Y-55904464D01*
X164649500Y-127845500D01*
X164629815Y-127912539D01*
X164577011Y-127958294D01*
X164525500Y-127969500D01*
X133926685Y-127969500D01*
X133859646Y-127949815D01*
X133813891Y-127897011D01*
X133803947Y-127827853D01*
X133832972Y-127764297D01*
X133857794Y-127742398D01*
X134107044Y-127575854D01*
X134388101Y-127345197D01*
X134645197Y-127088101D01*
X134875854Y-126807044D01*
X135077853Y-126504732D01*
X135249247Y-126184076D01*
X135388386Y-125848164D01*
X135493930Y-125500233D01*
X135493932Y-125500223D01*
X135493935Y-125500212D01*
X135564862Y-125143630D01*
X135600500Y-124781790D01*
X135600500Y-124418209D01*
X135564862Y-124056369D01*
X135493935Y-123699787D01*
X135493932Y-123699776D01*
X135493931Y-123699773D01*
X135493930Y-123699767D01*
X135388386Y-123351836D01*
X135249247Y-123015924D01*
X135077853Y-122695268D01*
X135028331Y-122621153D01*
X150599500Y-122621153D01*
X150599500Y-122778846D01*
X150630261Y-122933489D01*
X150630264Y-122933501D01*
X150690602Y-123079172D01*
X150690609Y-123079185D01*
X150778210Y-123210288D01*
X150778213Y-123210292D01*
X150889707Y-123321786D01*
X150889711Y-123321789D01*
X151020814Y-123409390D01*
X151020827Y-123409397D01*
X151166498Y-123469735D01*
X151166503Y-123469737D01*
X151321153Y-123500499D01*
X151321156Y-123500500D01*
X151321158Y-123500500D01*
X151478844Y-123500500D01*
X151478845Y-123500499D01*
X151633497Y-123469737D01*
X151779179Y-123409394D01*
X151910289Y-123321789D01*
X152021789Y-123210289D01*
X152109394Y-123079179D01*
X152169737Y-122933497D01*
X152200500Y-122778842D01*
X152200500Y-122621158D01*
X152200500Y-122621155D01*
X152200499Y-122621153D01*
X152599500Y-122621153D01*
X152599500Y-122778846D01*
X152630261Y-122933489D01*
X152630264Y-122933501D01*
X152690602Y-123079172D01*
X152690609Y-123079185D01*
X152778210Y-123210288D01*
X152778213Y-123210292D01*
X152889707Y-123321786D01*
X152889711Y-123321789D01*
X153020814Y-123409390D01*
X153020827Y-123409397D01*
X153166498Y-123469735D01*
X153166503Y-123469737D01*
X153321153Y-123500499D01*
X153321156Y-123500500D01*
X153321158Y-123500500D01*
X153478844Y-123500500D01*
X153478845Y-123500499D01*
X153633497Y-123469737D01*
X153779179Y-123409394D01*
X153910289Y-123321789D01*
X154021789Y-123210289D01*
X154109394Y-123079179D01*
X154169737Y-122933497D01*
X154200500Y-122778842D01*
X154200500Y-122621158D01*
X154200500Y-122621155D01*
X154200499Y-122621153D01*
X154599500Y-122621153D01*
X154599500Y-122778846D01*
X154630261Y-122933489D01*
X154630264Y-122933501D01*
X154690602Y-123079172D01*
X154690609Y-123079185D01*
X154778210Y-123210288D01*
X154778213Y-123210292D01*
X154889707Y-123321786D01*
X154889711Y-123321789D01*
X155020814Y-123409390D01*
X155020827Y-123409397D01*
X155166498Y-123469735D01*
X155166503Y-123469737D01*
X155321153Y-123500499D01*
X155321156Y-123500500D01*
X155321158Y-123500500D01*
X155478844Y-123500500D01*
X155478845Y-123500499D01*
X155633497Y-123469737D01*
X155779179Y-123409394D01*
X155910289Y-123321789D01*
X156021789Y-123210289D01*
X156109394Y-123079179D01*
X156169737Y-122933497D01*
X156200500Y-122778842D01*
X156200500Y-122621158D01*
X156200500Y-122621155D01*
X156200499Y-122621153D01*
X156599500Y-122621153D01*
X156599500Y-122778846D01*
X156630261Y-122933489D01*
X156630264Y-122933501D01*
X156690602Y-123079172D01*
X156690609Y-123079185D01*
X156778210Y-123210288D01*
X156778213Y-123210292D01*
X156889707Y-123321786D01*
X156889711Y-123321789D01*
X157020814Y-123409390D01*
X157020827Y-123409397D01*
X157166498Y-123469735D01*
X157166503Y-123469737D01*
X157321153Y-123500499D01*
X157321156Y-123500500D01*
X157321158Y-123500500D01*
X157478844Y-123500500D01*
X157478845Y-123500499D01*
X157633497Y-123469737D01*
X157779179Y-123409394D01*
X157910289Y-123321789D01*
X158021789Y-123210289D01*
X158109394Y-123079179D01*
X158169737Y-122933497D01*
X158200500Y-122778842D01*
X158200500Y-122621158D01*
X158200500Y-122621155D01*
X158200499Y-122621153D01*
X158599500Y-122621153D01*
X158599500Y-122778846D01*
X158630261Y-122933489D01*
X158630264Y-122933501D01*
X158690602Y-123079172D01*
X158690609Y-123079185D01*
X158778210Y-123210288D01*
X158778213Y-123210292D01*
X158889707Y-123321786D01*
X158889711Y-123321789D01*
X159020814Y-123409390D01*
X159020827Y-123409397D01*
X159166498Y-123469735D01*
X159166503Y-123469737D01*
X159321153Y-123500499D01*
X159321156Y-123500500D01*
X159321158Y-123500500D01*
X159478844Y-123500500D01*
X159478845Y-123500499D01*
X159633497Y-123469737D01*
X159779179Y-123409394D01*
X159910289Y-123321789D01*
X160021789Y-123210289D01*
X160109394Y-123079179D01*
X160169737Y-122933497D01*
X160200500Y-122778842D01*
X160200500Y-122621158D01*
X160200500Y-122621155D01*
X160200499Y-122621153D01*
X160169738Y-122466510D01*
X160169737Y-122466503D01*
X160169735Y-122466498D01*
X160109397Y-122320827D01*
X160109390Y-122320814D01*
X160021789Y-122189711D01*
X160021786Y-122189707D01*
X159910292Y-122078213D01*
X159910288Y-122078210D01*
X159779185Y-121990609D01*
X159779172Y-121990602D01*
X159633501Y-121930264D01*
X159633489Y-121930261D01*
X159478845Y-121899500D01*
X159478842Y-121899500D01*
X159321158Y-121899500D01*
X159321155Y-121899500D01*
X159166510Y-121930261D01*
X159166498Y-121930264D01*
X159020827Y-121990602D01*
X159020814Y-121990609D01*
X158889711Y-122078210D01*
X158889707Y-122078213D01*
X158778213Y-122189707D01*
X158778210Y-122189711D01*
X158690609Y-122320814D01*
X158690602Y-122320827D01*
X158630264Y-122466498D01*
X158630261Y-122466510D01*
X158599500Y-122621153D01*
X158200499Y-122621153D01*
X158169738Y-122466510D01*
X158169737Y-122466503D01*
X158169735Y-122466498D01*
X158109397Y-122320827D01*
X158109390Y-122320814D01*
X158021789Y-122189711D01*
X158021786Y-122189707D01*
X157910292Y-122078213D01*
X157910288Y-122078210D01*
X157779185Y-121990609D01*
X157779172Y-121990602D01*
X157633501Y-121930264D01*
X157633489Y-121930261D01*
X157478845Y-121899500D01*
X157478842Y-121899500D01*
X157321158Y-121899500D01*
X157321155Y-121899500D01*
X157166510Y-121930261D01*
X157166498Y-121930264D01*
X157020827Y-121990602D01*
X157020814Y-121990609D01*
X156889711Y-122078210D01*
X156889707Y-122078213D01*
X156778213Y-122189707D01*
X156778210Y-122189711D01*
X156690609Y-122320814D01*
X156690602Y-122320827D01*
X156630264Y-122466498D01*
X156630261Y-122466510D01*
X156599500Y-122621153D01*
X156200499Y-122621153D01*
X156169738Y-122466510D01*
X156169737Y-122466503D01*
X156169735Y-122466498D01*
X156109397Y-122320827D01*
X156109390Y-122320814D01*
X156021789Y-122189711D01*
X156021786Y-122189707D01*
X155910292Y-122078213D01*
X155910288Y-122078210D01*
X155779185Y-121990609D01*
X155779172Y-121990602D01*
X155633501Y-121930264D01*
X155633489Y-121930261D01*
X155478845Y-121899500D01*
X155478842Y-121899500D01*
X155321158Y-121899500D01*
X155321155Y-121899500D01*
X155166510Y-121930261D01*
X155166498Y-121930264D01*
X155020827Y-121990602D01*
X155020814Y-121990609D01*
X154889711Y-122078210D01*
X154889707Y-122078213D01*
X154778213Y-122189707D01*
X154778210Y-122189711D01*
X154690609Y-122320814D01*
X154690602Y-122320827D01*
X154630264Y-122466498D01*
X154630261Y-122466510D01*
X154599500Y-122621153D01*
X154200499Y-122621153D01*
X154169738Y-122466510D01*
X154169737Y-122466503D01*
X154169735Y-122466498D01*
X154109397Y-122320827D01*
X154109390Y-122320814D01*
X154021789Y-122189711D01*
X154021786Y-122189707D01*
X153910292Y-122078213D01*
X153910288Y-122078210D01*
X153779185Y-121990609D01*
X153779172Y-121990602D01*
X153633501Y-121930264D01*
X153633489Y-121930261D01*
X153478845Y-121899500D01*
X153478842Y-121899500D01*
X153321158Y-121899500D01*
X153321155Y-121899500D01*
X153166510Y-121930261D01*
X153166498Y-121930264D01*
X153020827Y-121990602D01*
X153020814Y-121990609D01*
X152889711Y-122078210D01*
X152889707Y-122078213D01*
X152778213Y-122189707D01*
X152778210Y-122189711D01*
X152690609Y-122320814D01*
X152690602Y-122320827D01*
X152630264Y-122466498D01*
X152630261Y-122466510D01*
X152599500Y-122621153D01*
X152200499Y-122621153D01*
X152169738Y-122466510D01*
X152169737Y-122466503D01*
X152169735Y-122466498D01*
X152109397Y-122320827D01*
X152109390Y-122320814D01*
X152021789Y-122189711D01*
X152021786Y-122189707D01*
X151910292Y-122078213D01*
X151910288Y-122078210D01*
X151779185Y-121990609D01*
X151779172Y-121990602D01*
X151633501Y-121930264D01*
X151633489Y-121930261D01*
X151478845Y-121899500D01*
X151478842Y-121899500D01*
X151321158Y-121899500D01*
X151321155Y-121899500D01*
X151166510Y-121930261D01*
X151166498Y-121930264D01*
X151020827Y-121990602D01*
X151020814Y-121990609D01*
X150889711Y-122078210D01*
X150889707Y-122078213D01*
X150778213Y-122189707D01*
X150778210Y-122189711D01*
X150690609Y-122320814D01*
X150690602Y-122320827D01*
X150630264Y-122466498D01*
X150630261Y-122466510D01*
X150599500Y-122621153D01*
X135028331Y-122621153D01*
X134875854Y-122392956D01*
X134645197Y-122111899D01*
X134645196Y-122111898D01*
X134645192Y-122111893D01*
X134388106Y-121854807D01*
X134195997Y-121697148D01*
X134107044Y-121624146D01*
X134073538Y-121601758D01*
X136741794Y-121601758D01*
X136741794Y-121601759D01*
X136773431Y-121622898D01*
X136952681Y-121697145D01*
X136952693Y-121697148D01*
X137142981Y-121734999D01*
X137142984Y-121735000D01*
X137337016Y-121735000D01*
X137337018Y-121734999D01*
X137527306Y-121697148D01*
X137527318Y-121697145D01*
X137706565Y-121622899D01*
X137738204Y-121601758D01*
X145501794Y-121601758D01*
X145501794Y-121601759D01*
X145533431Y-121622898D01*
X145712681Y-121697145D01*
X145712693Y-121697148D01*
X145902981Y-121734999D01*
X145902984Y-121735000D01*
X146097016Y-121735000D01*
X146097018Y-121734999D01*
X146287306Y-121697148D01*
X146287318Y-121697145D01*
X146466565Y-121622899D01*
X146498204Y-121601758D01*
X146000001Y-121103554D01*
X146000000Y-121103554D01*
X145501794Y-121601758D01*
X137738204Y-121601758D01*
X137240001Y-121103554D01*
X137240000Y-121103554D01*
X136741794Y-121601758D01*
X134073538Y-121601758D01*
X133804732Y-121422147D01*
X133804727Y-121422144D01*
X133804720Y-121422140D01*
X133484083Y-121250756D01*
X133484078Y-121250754D01*
X133477924Y-121248205D01*
X133385690Y-121210000D01*
X133148165Y-121111614D01*
X132800223Y-121006067D01*
X132800212Y-121006064D01*
X132443630Y-120935137D01*
X132171111Y-120908296D01*
X132081794Y-120899500D01*
X131718206Y-120899500D01*
X131635679Y-120907628D01*
X131356369Y-120935137D01*
X130999787Y-121006064D01*
X130999776Y-121006067D01*
X130651834Y-121111614D01*
X130315921Y-121250754D01*
X130315916Y-121250756D01*
X129995279Y-121422140D01*
X129995261Y-121422151D01*
X129692964Y-121624140D01*
X129692950Y-121624150D01*
X129411893Y-121854807D01*
X129154807Y-122111893D01*
X128995353Y-122306189D01*
X128937607Y-122345523D01*
X128867763Y-122347394D01*
X128807995Y-122311206D01*
X128777279Y-122248451D01*
X128775500Y-122227524D01*
X128775500Y-120652981D01*
X136255000Y-120652981D01*
X136255000Y-120847018D01*
X136292851Y-121037306D01*
X136292853Y-121037314D01*
X136367102Y-121216568D01*
X136367106Y-121216575D01*
X136388240Y-121248204D01*
X136388241Y-121248205D01*
X136886446Y-120750000D01*
X136840696Y-120704250D01*
X137010000Y-120704250D01*
X137010000Y-120795750D01*
X137045015Y-120880285D01*
X137109715Y-120944985D01*
X137194250Y-120980000D01*
X137285750Y-120980000D01*
X137370285Y-120944985D01*
X137434985Y-120880285D01*
X137470000Y-120795750D01*
X137470000Y-120749999D01*
X137593554Y-120749999D01*
X137593554Y-120750000D01*
X138091758Y-121248204D01*
X138112899Y-121216565D01*
X138187145Y-121037318D01*
X138187148Y-121037306D01*
X138224999Y-120847018D01*
X138225000Y-120847016D01*
X138225000Y-120652983D01*
X138224999Y-120652981D01*
X145015000Y-120652981D01*
X145015000Y-120847018D01*
X145052851Y-121037306D01*
X145052853Y-121037314D01*
X145127102Y-121216568D01*
X145127106Y-121216575D01*
X145148240Y-121248204D01*
X145148241Y-121248205D01*
X145646446Y-120750000D01*
X145600696Y-120704250D01*
X145770000Y-120704250D01*
X145770000Y-120795750D01*
X145805015Y-120880285D01*
X145869715Y-120944985D01*
X145954250Y-120980000D01*
X146045750Y-120980000D01*
X146130285Y-120944985D01*
X146194985Y-120880285D01*
X146230000Y-120795750D01*
X146230000Y-120749999D01*
X146353554Y-120749999D01*
X146353554Y-120750000D01*
X146851758Y-121248204D01*
X146872899Y-121216565D01*
X146947145Y-121037318D01*
X146947148Y-121037306D01*
X146984999Y-120847018D01*
X146985000Y-120847016D01*
X146985000Y-120652983D01*
X146984999Y-120652981D01*
X146947148Y-120462693D01*
X146947145Y-120462681D01*
X146872898Y-120283431D01*
X146851758Y-120251794D01*
X146353554Y-120749999D01*
X146230000Y-120749999D01*
X146230000Y-120704250D01*
X146194985Y-120619715D01*
X146130285Y-120555015D01*
X146045750Y-120520000D01*
X145954250Y-120520000D01*
X145869715Y-120555015D01*
X145805015Y-120619715D01*
X145770000Y-120704250D01*
X145600696Y-120704250D01*
X145148240Y-120251794D01*
X145127104Y-120283426D01*
X145127103Y-120283428D01*
X145052853Y-120462685D01*
X145052851Y-120462693D01*
X145015000Y-120652981D01*
X138224999Y-120652981D01*
X138187148Y-120462693D01*
X138187145Y-120462681D01*
X138112898Y-120283431D01*
X138091758Y-120251794D01*
X137593554Y-120749999D01*
X137470000Y-120749999D01*
X137470000Y-120704250D01*
X137434985Y-120619715D01*
X137370285Y-120555015D01*
X137285750Y-120520000D01*
X137194250Y-120520000D01*
X137109715Y-120555015D01*
X137045015Y-120619715D01*
X137010000Y-120704250D01*
X136840696Y-120704250D01*
X136388240Y-120251794D01*
X136367104Y-120283426D01*
X136367103Y-120283428D01*
X136292853Y-120462685D01*
X136292851Y-120462693D01*
X136255000Y-120652981D01*
X128775500Y-120652981D01*
X128775500Y-119898240D01*
X136741794Y-119898240D01*
X137240000Y-120396446D01*
X137240001Y-120396446D01*
X137738205Y-119898240D01*
X145501794Y-119898240D01*
X146000000Y-120396446D01*
X146000001Y-120396446D01*
X146498205Y-119898241D01*
X146498204Y-119898240D01*
X146466575Y-119877106D01*
X146466568Y-119877102D01*
X146287314Y-119802853D01*
X146287306Y-119802851D01*
X146097017Y-119765000D01*
X145902983Y-119765000D01*
X145712693Y-119802851D01*
X145712685Y-119802853D01*
X145533428Y-119877103D01*
X145533426Y-119877104D01*
X145501794Y-119898240D01*
X137738205Y-119898240D01*
X137706575Y-119877106D01*
X137706568Y-119877102D01*
X137527314Y-119802853D01*
X137527306Y-119802851D01*
X137337017Y-119765000D01*
X137142983Y-119765000D01*
X136952693Y-119802851D01*
X136952685Y-119802853D01*
X136773428Y-119877103D01*
X136773426Y-119877104D01*
X136741794Y-119898240D01*
X128775500Y-119898240D01*
X128775500Y-115562513D01*
X131050000Y-115562513D01*
X131050000Y-116362500D01*
X132199999Y-116362500D01*
X132174979Y-116422902D01*
X132150000Y-116548481D01*
X132150000Y-116676519D01*
X132174979Y-116802098D01*
X132199999Y-116862500D01*
X131050001Y-116862500D01*
X131050001Y-117662486D01*
X131060494Y-117765197D01*
X131115641Y-117931619D01*
X131115643Y-117931624D01*
X131207684Y-118080845D01*
X131331654Y-118204815D01*
X131480875Y-118296856D01*
X131480880Y-118296858D01*
X131647302Y-118352005D01*
X131647309Y-118352006D01*
X131750019Y-118362499D01*
X132549999Y-118362499D01*
X132550000Y-118362498D01*
X132550000Y-117212501D01*
X132610402Y-117237521D01*
X132735981Y-117262500D01*
X132864019Y-117262500D01*
X132989598Y-117237521D01*
X133050000Y-117212501D01*
X133050000Y-118362499D01*
X133849972Y-118362499D01*
X133849986Y-118362498D01*
X133952697Y-118352005D01*
X134119119Y-118296858D01*
X134119124Y-118296856D01*
X134268345Y-118204815D01*
X134392315Y-118080845D01*
X134484356Y-117931624D01*
X134484358Y-117931619D01*
X134539505Y-117765197D01*
X134539506Y-117765190D01*
X134549999Y-117662486D01*
X134550000Y-117662473D01*
X134550000Y-116862500D01*
X133400001Y-116862500D01*
X133425021Y-116802098D01*
X133450000Y-116676519D01*
X133450000Y-116548481D01*
X133425021Y-116422902D01*
X133400001Y-116362500D01*
X134549999Y-116362500D01*
X134549999Y-115562528D01*
X134549998Y-115562513D01*
X134539505Y-115459802D01*
X134484358Y-115293380D01*
X134484355Y-115293374D01*
X134476207Y-115280164D01*
X134476206Y-115280163D01*
X134439808Y-115221153D01*
X142099500Y-115221153D01*
X142099500Y-115378846D01*
X142130261Y-115533489D01*
X142130264Y-115533501D01*
X142190602Y-115679172D01*
X142190609Y-115679185D01*
X142278210Y-115810288D01*
X142278213Y-115810292D01*
X142389707Y-115921786D01*
X142389711Y-115921789D01*
X142520814Y-116009390D01*
X142520827Y-116009397D01*
X142666498Y-116069735D01*
X142666503Y-116069737D01*
X142821153Y-116100499D01*
X142821156Y-116100500D01*
X142821158Y-116100500D01*
X142978844Y-116100500D01*
X142978845Y-116100499D01*
X143133497Y-116069737D01*
X143279179Y-116009394D01*
X143410289Y-115921789D01*
X143521789Y-115810289D01*
X143609394Y-115679179D01*
X143669737Y-115533497D01*
X143700500Y-115378842D01*
X143700500Y-115221158D01*
X143700500Y-115221155D01*
X143700499Y-115221153D01*
X143669738Y-115066510D01*
X143669737Y-115066503D01*
X143612427Y-114928143D01*
X143609397Y-114920827D01*
X143609390Y-114920814D01*
X143521789Y-114789711D01*
X143521786Y-114789707D01*
X143410292Y-114678213D01*
X143410288Y-114678210D01*
X143279185Y-114590609D01*
X143279172Y-114590602D01*
X143133501Y-114530264D01*
X143133489Y-114530261D01*
X142978845Y-114499500D01*
X142978842Y-114499500D01*
X142821158Y-114499500D01*
X142821155Y-114499500D01*
X142666510Y-114530261D01*
X142666498Y-114530264D01*
X142520827Y-114590602D01*
X142520814Y-114590609D01*
X142389711Y-114678210D01*
X142389707Y-114678213D01*
X142278213Y-114789707D01*
X142278210Y-114789711D01*
X142190609Y-114920814D01*
X142190602Y-114920827D01*
X142130264Y-115066498D01*
X142130261Y-115066510D01*
X142099500Y-115221153D01*
X134439808Y-115221153D01*
X134392315Y-115144154D01*
X134268345Y-115020184D01*
X134119124Y-114928143D01*
X134119119Y-114928141D01*
X133952697Y-114872994D01*
X133952690Y-114872993D01*
X133849986Y-114862500D01*
X133050000Y-114862500D01*
X133050000Y-116012498D01*
X132989598Y-115987479D01*
X132864019Y-115962500D01*
X132735981Y-115962500D01*
X132610402Y-115987479D01*
X132550000Y-116012498D01*
X132550000Y-114862500D01*
X131750028Y-114862500D01*
X131750012Y-114862501D01*
X131647302Y-114872994D01*
X131480880Y-114928141D01*
X131480875Y-114928143D01*
X131331654Y-115020184D01*
X131207684Y-115144154D01*
X131115643Y-115293375D01*
X131115641Y-115293380D01*
X131060494Y-115459802D01*
X131060493Y-115459809D01*
X131050000Y-115562513D01*
X128775500Y-115562513D01*
X128775500Y-111497758D01*
X131049500Y-111497758D01*
X131049500Y-111727241D01*
X131074446Y-111916715D01*
X131079452Y-111954738D01*
X131079453Y-111954740D01*
X131138842Y-112176387D01*
X131226650Y-112388376D01*
X131226657Y-112388390D01*
X131341392Y-112587117D01*
X131481081Y-112769161D01*
X131481089Y-112769170D01*
X131643330Y-112931411D01*
X131643338Y-112931418D01*
X131825382Y-113071107D01*
X131825385Y-113071108D01*
X131825388Y-113071111D01*
X132024112Y-113185844D01*
X132024117Y-113185846D01*
X132024123Y-113185849D01*
X132115480Y-113223690D01*
X132236113Y-113273658D01*
X132457762Y-113333048D01*
X132685266Y-113363000D01*
X132685273Y-113363000D01*
X132914727Y-113363000D01*
X132914734Y-113363000D01*
X133142238Y-113333048D01*
X133363887Y-113273658D01*
X133575888Y-113185844D01*
X133774612Y-113071111D01*
X133956661Y-112931419D01*
X133956665Y-112931414D01*
X133956670Y-112931411D01*
X134118911Y-112769170D01*
X134118914Y-112769165D01*
X134118919Y-112769161D01*
X134258611Y-112587112D01*
X134373344Y-112388388D01*
X134461158Y-112176387D01*
X134520548Y-111954738D01*
X134550500Y-111727234D01*
X134550500Y-111497766D01*
X134520548Y-111270262D01*
X134461158Y-111048613D01*
X134373344Y-110836612D01*
X134258611Y-110637888D01*
X134258608Y-110637885D01*
X134258607Y-110637882D01*
X134118918Y-110455838D01*
X134118911Y-110455830D01*
X133956670Y-110293589D01*
X133956661Y-110293581D01*
X133774617Y-110153892D01*
X133575890Y-110039157D01*
X133575876Y-110039150D01*
X133363887Y-109951342D01*
X133142238Y-109891952D01*
X133104215Y-109886946D01*
X132914741Y-109862000D01*
X132914734Y-109862000D01*
X132685266Y-109862000D01*
X132685258Y-109862000D01*
X132468715Y-109890509D01*
X132457762Y-109891952D01*
X132364076Y-109917054D01*
X132236112Y-109951342D01*
X132024123Y-110039150D01*
X132024109Y-110039157D01*
X131825382Y-110153892D01*
X131643338Y-110293581D01*
X131481081Y-110455838D01*
X131341392Y-110637882D01*
X131226657Y-110836609D01*
X131226650Y-110836623D01*
X131138842Y-111048612D01*
X131079453Y-111270259D01*
X131079451Y-111270270D01*
X131049500Y-111497758D01*
X128775500Y-111497758D01*
X128775500Y-107358653D01*
X141199500Y-107358653D01*
X141199500Y-107516346D01*
X141230261Y-107670989D01*
X141230264Y-107671001D01*
X141290602Y-107816672D01*
X141290609Y-107816685D01*
X141378210Y-107947788D01*
X141378213Y-107947792D01*
X141489707Y-108059286D01*
X141489711Y-108059289D01*
X141620814Y-108146890D01*
X141620827Y-108146897D01*
X141766498Y-108207235D01*
X141766503Y-108207237D01*
X141921153Y-108237999D01*
X141921156Y-108238000D01*
X141921158Y-108238000D01*
X142078844Y-108238000D01*
X142078845Y-108237999D01*
X142233497Y-108207237D01*
X142379179Y-108146894D01*
X142510289Y-108059289D01*
X142621789Y-107947789D01*
X142709394Y-107816679D01*
X142769737Y-107670997D01*
X142800500Y-107516342D01*
X142800500Y-107358658D01*
X142800500Y-107358655D01*
X142800499Y-107358653D01*
X142773149Y-107221158D01*
X142769737Y-107204003D01*
X142735282Y-107120821D01*
X142709397Y-107058327D01*
X142709390Y-107058314D01*
X142621789Y-106927211D01*
X142621786Y-106927207D01*
X142510292Y-106815713D01*
X142510288Y-106815710D01*
X142379185Y-106728109D01*
X142379174Y-106728103D01*
X142233501Y-106667764D01*
X142233489Y-106667761D01*
X142078845Y-106637000D01*
X142078842Y-106637000D01*
X141921158Y-106637000D01*
X141921155Y-106637000D01*
X141766510Y-106667761D01*
X141766498Y-106667764D01*
X141620827Y-106728102D01*
X141620814Y-106728109D01*
X141489711Y-106815710D01*
X141489707Y-106815713D01*
X141378213Y-106927207D01*
X141378210Y-106927211D01*
X141290609Y-107058314D01*
X141290602Y-107058327D01*
X141230264Y-107203998D01*
X141230261Y-107204010D01*
X141199500Y-107358653D01*
X128775500Y-107358653D01*
X128775500Y-106021153D01*
X135699500Y-106021153D01*
X135699500Y-106178846D01*
X135730261Y-106333489D01*
X135730264Y-106333501D01*
X135790602Y-106479172D01*
X135790609Y-106479185D01*
X135878210Y-106610288D01*
X135878213Y-106610292D01*
X135989707Y-106721786D01*
X135989711Y-106721789D01*
X136120814Y-106809390D01*
X136120827Y-106809397D01*
X136266498Y-106869735D01*
X136266503Y-106869737D01*
X136421153Y-106900499D01*
X136421156Y-106900500D01*
X136421158Y-106900500D01*
X136578844Y-106900500D01*
X136578845Y-106900499D01*
X136733497Y-106869737D01*
X136846166Y-106823067D01*
X136879172Y-106809397D01*
X136879172Y-106809396D01*
X136879179Y-106809394D01*
X137010289Y-106721789D01*
X137110925Y-106621153D01*
X146299500Y-106621153D01*
X146299500Y-106778846D01*
X146330261Y-106933489D01*
X146330264Y-106933501D01*
X146390602Y-107079172D01*
X146390609Y-107079185D01*
X146478210Y-107210288D01*
X146478213Y-107210292D01*
X146589707Y-107321786D01*
X146589711Y-107321789D01*
X146720814Y-107409390D01*
X146720827Y-107409397D01*
X146866498Y-107469735D01*
X146866503Y-107469737D01*
X147021153Y-107500499D01*
X147021156Y-107500500D01*
X147021158Y-107500500D01*
X147178844Y-107500500D01*
X147178845Y-107500499D01*
X147333497Y-107469737D01*
X147479179Y-107409394D01*
X147610289Y-107321789D01*
X147710925Y-107221153D01*
X150599500Y-107221153D01*
X150599500Y-107378846D01*
X150630261Y-107533489D01*
X150630264Y-107533501D01*
X150690602Y-107679172D01*
X150690609Y-107679185D01*
X150778210Y-107810288D01*
X150778213Y-107810292D01*
X150889707Y-107921786D01*
X150889711Y-107921789D01*
X151020814Y-108009390D01*
X151020827Y-108009397D01*
X151141272Y-108059286D01*
X151166503Y-108069737D01*
X151321153Y-108100499D01*
X151321156Y-108100500D01*
X151321158Y-108100500D01*
X151478844Y-108100500D01*
X151478845Y-108100499D01*
X151633497Y-108069737D01*
X151779179Y-108009394D01*
X151910289Y-107921789D01*
X152021789Y-107810289D01*
X152109394Y-107679179D01*
X152169737Y-107533497D01*
X152192083Y-107421158D01*
X152192084Y-107421153D01*
X158699500Y-107421153D01*
X158699500Y-107578846D01*
X158730261Y-107733489D01*
X158730264Y-107733501D01*
X158790602Y-107879172D01*
X158790609Y-107879185D01*
X158878210Y-108010288D01*
X158878213Y-108010292D01*
X158989707Y-108121786D01*
X158989711Y-108121789D01*
X159120814Y-108209390D01*
X159120827Y-108209397D01*
X159266498Y-108269735D01*
X159266503Y-108269737D01*
X159421153Y-108300499D01*
X159421156Y-108300500D01*
X159421158Y-108300500D01*
X159578844Y-108300500D01*
X159578845Y-108300499D01*
X159733497Y-108269737D01*
X159879179Y-108209394D01*
X160010289Y-108121789D01*
X160121789Y-108010289D01*
X160209394Y-107879179D01*
X160269737Y-107733497D01*
X160300500Y-107578842D01*
X160300500Y-107421158D01*
X160300500Y-107421155D01*
X160300499Y-107421153D01*
X160294476Y-107390874D01*
X160269737Y-107266503D01*
X160250955Y-107221158D01*
X160209397Y-107120827D01*
X160209390Y-107120814D01*
X160121789Y-106989711D01*
X160121786Y-106989707D01*
X160010292Y-106878213D01*
X160010288Y-106878210D01*
X159879185Y-106790609D01*
X159879172Y-106790602D01*
X159733501Y-106730264D01*
X159733489Y-106730261D01*
X159578845Y-106699500D01*
X159578842Y-106699500D01*
X159421158Y-106699500D01*
X159421155Y-106699500D01*
X159266510Y-106730261D01*
X159266498Y-106730264D01*
X159120827Y-106790602D01*
X159120814Y-106790609D01*
X158989711Y-106878210D01*
X158989707Y-106878213D01*
X158878213Y-106989707D01*
X158878210Y-106989711D01*
X158790609Y-107120814D01*
X158790602Y-107120827D01*
X158730264Y-107266498D01*
X158730261Y-107266510D01*
X158699500Y-107421153D01*
X152192084Y-107421153D01*
X152198107Y-107390875D01*
X152198107Y-107390874D01*
X152200500Y-107378844D01*
X152200500Y-107221155D01*
X152200499Y-107221153D01*
X152180543Y-107120827D01*
X152169737Y-107066503D01*
X152169735Y-107066498D01*
X152109397Y-106920827D01*
X152109390Y-106920814D01*
X152021789Y-106789711D01*
X152021786Y-106789707D01*
X151910292Y-106678213D01*
X151910288Y-106678210D01*
X151779185Y-106590609D01*
X151779172Y-106590602D01*
X151633501Y-106530264D01*
X151633489Y-106530261D01*
X151478845Y-106499500D01*
X151478842Y-106499500D01*
X151321158Y-106499500D01*
X151321155Y-106499500D01*
X151166510Y-106530261D01*
X151166498Y-106530264D01*
X151020827Y-106590602D01*
X151020814Y-106590609D01*
X150889711Y-106678210D01*
X150889707Y-106678213D01*
X150778213Y-106789707D01*
X150778210Y-106789711D01*
X150690609Y-106920814D01*
X150690602Y-106920827D01*
X150630264Y-107066498D01*
X150630261Y-107066510D01*
X150599500Y-107221153D01*
X147710925Y-107221153D01*
X147721789Y-107210289D01*
X147781575Y-107120814D01*
X147809390Y-107079185D01*
X147809390Y-107079184D01*
X147809394Y-107079179D01*
X147869737Y-106933497D01*
X147900500Y-106778842D01*
X147900500Y-106621158D01*
X147900500Y-106621155D01*
X147900499Y-106621153D01*
X147882419Y-106530261D01*
X147869737Y-106466503D01*
X147869735Y-106466498D01*
X147809397Y-106320827D01*
X147809390Y-106320814D01*
X147721789Y-106189711D01*
X147721786Y-106189707D01*
X147610292Y-106078213D01*
X147610288Y-106078210D01*
X147479185Y-105990609D01*
X147479172Y-105990602D01*
X147333501Y-105930264D01*
X147333489Y-105930261D01*
X147178845Y-105899500D01*
X147178842Y-105899500D01*
X147021158Y-105899500D01*
X147021155Y-105899500D01*
X146866510Y-105930261D01*
X146866498Y-105930264D01*
X146720827Y-105990602D01*
X146720814Y-105990609D01*
X146589711Y-106078210D01*
X146589707Y-106078213D01*
X146478213Y-106189707D01*
X146478210Y-106189711D01*
X146390609Y-106320814D01*
X146390602Y-106320827D01*
X146330264Y-106466498D01*
X146330261Y-106466510D01*
X146299500Y-106621153D01*
X137110925Y-106621153D01*
X137121789Y-106610289D01*
X137209394Y-106479179D01*
X137269737Y-106333497D01*
X137300500Y-106178842D01*
X137300500Y-106021158D01*
X137300500Y-106021155D01*
X137300499Y-106021153D01*
X137280734Y-105921789D01*
X137269737Y-105866503D01*
X137242398Y-105800500D01*
X137209397Y-105720827D01*
X137209390Y-105720814D01*
X137121789Y-105589711D01*
X137121786Y-105589707D01*
X137010292Y-105478213D01*
X137010288Y-105478210D01*
X136879185Y-105390609D01*
X136879172Y-105390602D01*
X136733501Y-105330264D01*
X136733489Y-105330261D01*
X136578845Y-105299500D01*
X136578842Y-105299500D01*
X136421158Y-105299500D01*
X136421155Y-105299500D01*
X136266510Y-105330261D01*
X136266498Y-105330264D01*
X136120827Y-105390602D01*
X136120814Y-105390609D01*
X135989711Y-105478210D01*
X135989707Y-105478213D01*
X135878213Y-105589707D01*
X135878210Y-105589711D01*
X135790609Y-105720814D01*
X135790602Y-105720827D01*
X135730264Y-105866498D01*
X135730261Y-105866510D01*
X135699500Y-106021153D01*
X128775500Y-106021153D01*
X128775500Y-105652577D01*
X133975975Y-105652577D01*
X134081236Y-105696178D01*
X134081240Y-105696179D01*
X134226126Y-105724999D01*
X134226129Y-105725000D01*
X134373871Y-105725000D01*
X134373873Y-105724999D01*
X134518760Y-105696179D01*
X134518775Y-105696175D01*
X134624024Y-105652578D01*
X134624024Y-105652577D01*
X134300001Y-105328554D01*
X134300000Y-105328554D01*
X133975975Y-105652577D01*
X128775500Y-105652577D01*
X128775500Y-104326126D01*
X132600000Y-104326126D01*
X132600000Y-104473873D01*
X132628820Y-104618759D01*
X132628822Y-104618767D01*
X132672421Y-104724024D01*
X132996446Y-104400000D01*
X132996446Y-104399999D01*
X132672421Y-104075974D01*
X132672420Y-104075974D01*
X132628823Y-104181228D01*
X132628820Y-104181240D01*
X132600000Y-104326126D01*
X128775500Y-104326126D01*
X128775500Y-103722420D01*
X133025974Y-103722420D01*
X133025974Y-103722421D01*
X133439095Y-104135542D01*
X133472580Y-104196865D01*
X133467596Y-104266557D01*
X133439096Y-104310904D01*
X133420710Y-104329289D01*
X133406645Y-104315224D01*
X133369891Y-104300000D01*
X133330109Y-104300000D01*
X133293355Y-104315224D01*
X133265224Y-104343355D01*
X133250000Y-104380109D01*
X133250000Y-104419891D01*
X133265224Y-104456645D01*
X133293355Y-104484776D01*
X133330109Y-104500000D01*
X133369891Y-104500000D01*
X133406645Y-104484776D01*
X133420710Y-104470710D01*
X133439095Y-104489095D01*
X133472580Y-104550418D01*
X133467596Y-104620110D01*
X133439095Y-104664457D01*
X133025974Y-105077577D01*
X133131236Y-105121178D01*
X133131240Y-105121179D01*
X133276126Y-105149999D01*
X133276129Y-105150000D01*
X133423870Y-105150000D01*
X133450467Y-105144709D01*
X133520058Y-105150935D01*
X133575236Y-105193797D01*
X133589221Y-105218873D01*
X133622421Y-105299024D01*
X133946446Y-104975000D01*
X133926555Y-104955109D01*
X134200000Y-104955109D01*
X134200000Y-104994891D01*
X134215224Y-105031645D01*
X134243355Y-105059776D01*
X134280109Y-105075000D01*
X134319891Y-105075000D01*
X134356645Y-105059776D01*
X134384776Y-105031645D01*
X134400000Y-104994891D01*
X134400000Y-104955109D01*
X134384776Y-104918355D01*
X134356645Y-104890224D01*
X134319891Y-104875000D01*
X134280109Y-104875000D01*
X134243355Y-104890224D01*
X134215224Y-104918355D01*
X134200000Y-104955109D01*
X133926555Y-104955109D01*
X133588650Y-104617204D01*
X133555165Y-104555881D01*
X133560149Y-104486189D01*
X133562503Y-104480338D01*
X133597217Y-104400000D01*
X134078554Y-104400000D01*
X134300000Y-104621446D01*
X134521446Y-104400000D01*
X134300000Y-104178554D01*
X134078554Y-104400000D01*
X133597217Y-104400000D01*
X133607257Y-104376765D01*
X133588650Y-104358158D01*
X133555165Y-104296835D01*
X133560149Y-104227143D01*
X133588650Y-104182796D01*
X133946446Y-103825000D01*
X133946446Y-103824999D01*
X133926556Y-103805109D01*
X134200000Y-103805109D01*
X134200000Y-103844891D01*
X134215224Y-103881645D01*
X134243355Y-103909776D01*
X134280109Y-103925000D01*
X134319891Y-103925000D01*
X134356645Y-103909776D01*
X134384776Y-103881645D01*
X134400000Y-103844891D01*
X134400000Y-103824999D01*
X134653554Y-103824999D01*
X134653554Y-103825001D01*
X135011349Y-104182796D01*
X135044834Y-104244119D01*
X135039850Y-104313811D01*
X135011350Y-104358158D01*
X134969508Y-104400000D01*
X135011350Y-104441842D01*
X135044835Y-104503165D01*
X135039851Y-104572857D01*
X135011350Y-104617204D01*
X134653554Y-104975000D01*
X134977577Y-105299024D01*
X135010778Y-105218872D01*
X135054620Y-105164469D01*
X135120914Y-105142405D01*
X135149532Y-105144709D01*
X135176130Y-105150000D01*
X135323871Y-105150000D01*
X135323873Y-105149999D01*
X135468760Y-105121179D01*
X135468775Y-105121175D01*
X135574024Y-105077578D01*
X135574024Y-105077577D01*
X135417600Y-104921153D01*
X150699500Y-104921153D01*
X150699500Y-105078846D01*
X150730261Y-105233489D01*
X150730264Y-105233501D01*
X150790602Y-105379172D01*
X150790609Y-105379185D01*
X150878210Y-105510288D01*
X150878213Y-105510292D01*
X150989707Y-105621786D01*
X150989711Y-105621789D01*
X151120814Y-105709390D01*
X151120827Y-105709397D01*
X151266498Y-105769735D01*
X151266503Y-105769737D01*
X151421153Y-105800499D01*
X151421156Y-105800500D01*
X151421158Y-105800500D01*
X151578844Y-105800500D01*
X151578845Y-105800499D01*
X151733497Y-105769737D01*
X151851592Y-105720821D01*
X151879172Y-105709397D01*
X151879172Y-105709396D01*
X151879179Y-105709394D01*
X152010289Y-105621789D01*
X152121789Y-105510289D01*
X152209394Y-105379179D01*
X152269737Y-105233497D01*
X152272192Y-105221153D01*
X154999500Y-105221153D01*
X154999500Y-105378846D01*
X155030261Y-105533489D01*
X155030264Y-105533501D01*
X155090602Y-105679172D01*
X155090609Y-105679185D01*
X155178210Y-105810288D01*
X155178213Y-105810292D01*
X155289707Y-105921786D01*
X155289711Y-105921789D01*
X155420814Y-106009390D01*
X155420827Y-106009397D01*
X155522023Y-106051313D01*
X155566503Y-106069737D01*
X155720444Y-106100358D01*
X155721153Y-106100499D01*
X155721156Y-106100500D01*
X155721158Y-106100500D01*
X155878844Y-106100500D01*
X155880285Y-106100358D01*
X155881034Y-106100500D01*
X155884934Y-106100500D01*
X155884934Y-106101239D01*
X155948931Y-106113373D01*
X155999644Y-106161436D01*
X156016321Y-106229286D01*
X156014061Y-106247951D01*
X155999500Y-106321153D01*
X155999500Y-106478846D01*
X156030261Y-106633489D01*
X156030264Y-106633501D01*
X156090602Y-106779172D01*
X156090609Y-106779185D01*
X156178210Y-106910288D01*
X156178213Y-106910292D01*
X156289707Y-107021786D01*
X156289711Y-107021789D01*
X156420814Y-107109390D01*
X156420827Y-107109397D01*
X156566498Y-107169735D01*
X156566503Y-107169737D01*
X156721153Y-107200499D01*
X156721156Y-107200500D01*
X156721158Y-107200500D01*
X156878844Y-107200500D01*
X156878845Y-107200499D01*
X157033497Y-107169737D01*
X157151592Y-107120821D01*
X157179172Y-107109397D01*
X157179172Y-107109396D01*
X157179179Y-107109394D01*
X157310289Y-107021789D01*
X157421789Y-106910289D01*
X157509394Y-106779179D01*
X157569737Y-106633497D01*
X157600500Y-106478842D01*
X157600500Y-106321158D01*
X157600500Y-106321155D01*
X157600499Y-106321153D01*
X157574353Y-106189711D01*
X157569737Y-106166503D01*
X157542398Y-106100500D01*
X157509397Y-106020827D01*
X157509390Y-106020814D01*
X157421789Y-105889711D01*
X157421786Y-105889707D01*
X157310292Y-105778213D01*
X157310288Y-105778210D01*
X157179185Y-105690609D01*
X157179172Y-105690602D01*
X157033501Y-105630264D01*
X157033489Y-105630261D01*
X156878845Y-105599500D01*
X156878842Y-105599500D01*
X156721158Y-105599500D01*
X156721150Y-105599500D01*
X156719697Y-105599643D01*
X156718943Y-105599500D01*
X156715066Y-105599500D01*
X156715066Y-105598764D01*
X156651052Y-105586617D01*
X156600346Y-105538547D01*
X156583679Y-105470695D01*
X156585936Y-105452055D01*
X156600433Y-105379179D01*
X156600500Y-105378843D01*
X156600500Y-105221155D01*
X156600499Y-105221153D01*
X156600045Y-105218872D01*
X156569737Y-105066503D01*
X156566951Y-105059776D01*
X156509397Y-104920827D01*
X156509390Y-104920814D01*
X156421789Y-104789711D01*
X156421786Y-104789707D01*
X156310292Y-104678213D01*
X156310288Y-104678210D01*
X156179185Y-104590609D01*
X156179172Y-104590602D01*
X156033501Y-104530264D01*
X156033489Y-104530261D01*
X155878845Y-104499500D01*
X155878842Y-104499500D01*
X155721158Y-104499500D01*
X155721155Y-104499500D01*
X155566510Y-104530261D01*
X155566498Y-104530264D01*
X155420827Y-104590602D01*
X155420814Y-104590609D01*
X155289711Y-104678210D01*
X155289707Y-104678213D01*
X155178213Y-104789707D01*
X155178210Y-104789711D01*
X155090609Y-104920814D01*
X155090602Y-104920827D01*
X155030264Y-105066498D01*
X155030261Y-105066510D01*
X154999500Y-105221153D01*
X152272192Y-105221153D01*
X152272646Y-105218872D01*
X152278216Y-105190874D01*
X152278216Y-105190873D01*
X152300499Y-105078846D01*
X152300500Y-105078844D01*
X152300500Y-104921155D01*
X152300499Y-104921153D01*
X152294347Y-104890224D01*
X152269737Y-104766503D01*
X152252142Y-104724024D01*
X152209397Y-104620827D01*
X152209390Y-104620814D01*
X152121789Y-104489711D01*
X152121786Y-104489707D01*
X152010292Y-104378213D01*
X152010288Y-104378210D01*
X151879185Y-104290609D01*
X151879172Y-104290602D01*
X151733501Y-104230264D01*
X151733489Y-104230261D01*
X151578845Y-104199500D01*
X151578842Y-104199500D01*
X151421158Y-104199500D01*
X151421155Y-104199500D01*
X151266510Y-104230261D01*
X151266498Y-104230264D01*
X151120827Y-104290602D01*
X151120814Y-104290609D01*
X150989711Y-104378210D01*
X150989707Y-104378213D01*
X150878213Y-104489707D01*
X150878210Y-104489711D01*
X150790609Y-104620814D01*
X150790602Y-104620827D01*
X150730264Y-104766498D01*
X150730261Y-104766510D01*
X150699500Y-104921153D01*
X135417600Y-104921153D01*
X135160904Y-104664457D01*
X135127419Y-104603134D01*
X135132403Y-104533442D01*
X135160904Y-104489094D01*
X135179288Y-104470709D01*
X135193355Y-104484776D01*
X135230109Y-104500000D01*
X135269891Y-104500000D01*
X135306645Y-104484776D01*
X135334776Y-104456645D01*
X135350000Y-104419891D01*
X135350000Y-104399999D01*
X135603554Y-104399999D01*
X135603554Y-104400001D01*
X135927577Y-104724024D01*
X135927578Y-104724024D01*
X135971175Y-104618775D01*
X135971179Y-104618760D01*
X135999999Y-104473873D01*
X136000000Y-104473871D01*
X136000000Y-104326128D01*
X135999999Y-104326126D01*
X135971179Y-104181240D01*
X135971178Y-104181236D01*
X135927577Y-104075975D01*
X135603554Y-104399999D01*
X135350000Y-104399999D01*
X135350000Y-104380109D01*
X135334776Y-104343355D01*
X135306645Y-104315224D01*
X135269891Y-104300000D01*
X135230109Y-104300000D01*
X135193355Y-104315224D01*
X135179289Y-104329289D01*
X135160904Y-104310904D01*
X135127419Y-104249581D01*
X135132403Y-104179889D01*
X135160904Y-104135542D01*
X135525292Y-103771153D01*
X144549500Y-103771153D01*
X144549500Y-103928846D01*
X144580261Y-104083489D01*
X144580264Y-104083501D01*
X144640602Y-104229172D01*
X144640609Y-104229185D01*
X144728210Y-104360288D01*
X144728213Y-104360292D01*
X144839707Y-104471786D01*
X144839711Y-104471789D01*
X144970814Y-104559390D01*
X144970827Y-104559397D01*
X145116498Y-104619735D01*
X145116503Y-104619737D01*
X145271153Y-104650499D01*
X145271156Y-104650500D01*
X145271158Y-104650500D01*
X145428844Y-104650500D01*
X145428845Y-104650499D01*
X145583497Y-104619737D01*
X145729179Y-104559394D01*
X145860289Y-104471789D01*
X145971789Y-104360289D01*
X146059394Y-104229179D01*
X146119737Y-104083497D01*
X146150500Y-103928842D01*
X146150500Y-103771158D01*
X146150500Y-103771155D01*
X146150499Y-103771153D01*
X146144347Y-103740224D01*
X146119737Y-103616503D01*
X146105084Y-103581127D01*
X146059397Y-103470827D01*
X146059390Y-103470814D01*
X146001354Y-103383957D01*
X145971789Y-103339711D01*
X145971786Y-103339707D01*
X145953232Y-103321153D01*
X147899500Y-103321153D01*
X147899500Y-103478846D01*
X147930261Y-103633489D01*
X147930264Y-103633501D01*
X147990602Y-103779172D01*
X147990609Y-103779185D01*
X148078210Y-103910288D01*
X148078213Y-103910292D01*
X148189707Y-104021786D01*
X148189711Y-104021789D01*
X148320814Y-104109390D01*
X148320827Y-104109397D01*
X148383948Y-104135542D01*
X148466503Y-104169737D01*
X148602884Y-104196865D01*
X148621153Y-104200499D01*
X148621156Y-104200500D01*
X148621158Y-104200500D01*
X148778844Y-104200500D01*
X148778845Y-104200499D01*
X148933497Y-104169737D01*
X149079179Y-104109394D01*
X149210289Y-104021789D01*
X149321789Y-103910289D01*
X149409394Y-103779179D01*
X149412719Y-103771153D01*
X149425530Y-103740224D01*
X149469737Y-103633497D01*
X149500500Y-103478842D01*
X149500500Y-103321158D01*
X149500500Y-103321155D01*
X149484209Y-103239258D01*
X149484209Y-103239257D01*
X149480608Y-103221153D01*
X155899500Y-103221153D01*
X155899500Y-103378846D01*
X155930261Y-103533489D01*
X155930264Y-103533501D01*
X155990602Y-103679172D01*
X155990609Y-103679185D01*
X156078210Y-103810288D01*
X156078213Y-103810292D01*
X156189707Y-103921786D01*
X156189711Y-103921789D01*
X156320814Y-104009390D01*
X156320827Y-104009397D01*
X156466498Y-104069735D01*
X156466503Y-104069737D01*
X156621153Y-104100499D01*
X156621156Y-104100500D01*
X156621158Y-104100500D01*
X156778844Y-104100500D01*
X156778845Y-104100499D01*
X156933497Y-104069737D01*
X157079179Y-104009394D01*
X157210289Y-103921789D01*
X157321789Y-103810289D01*
X157409394Y-103679179D01*
X157409542Y-103678823D01*
X157450008Y-103581127D01*
X157469737Y-103533497D01*
X157500500Y-103378842D01*
X157500500Y-103221158D01*
X157500500Y-103221155D01*
X157500499Y-103221153D01*
X157485833Y-103147421D01*
X157469737Y-103066503D01*
X157450812Y-103020814D01*
X157409397Y-102920827D01*
X157409390Y-102920814D01*
X157321789Y-102789711D01*
X157321786Y-102789707D01*
X157210292Y-102678213D01*
X157210288Y-102678210D01*
X157079185Y-102590609D01*
X157079172Y-102590602D01*
X156933501Y-102530264D01*
X156933489Y-102530261D01*
X156778845Y-102499500D01*
X156778842Y-102499500D01*
X156621158Y-102499500D01*
X156621155Y-102499500D01*
X156466510Y-102530261D01*
X156466498Y-102530264D01*
X156320827Y-102590602D01*
X156320814Y-102590609D01*
X156189711Y-102678210D01*
X156189707Y-102678213D01*
X156078213Y-102789707D01*
X156078210Y-102789711D01*
X155990609Y-102920814D01*
X155990602Y-102920827D01*
X155930264Y-103066498D01*
X155930261Y-103066510D01*
X155899500Y-103221153D01*
X149480608Y-103221153D01*
X149469738Y-103166510D01*
X149469737Y-103166503D01*
X149461833Y-103147420D01*
X149409397Y-103020827D01*
X149409390Y-103020814D01*
X149321789Y-102889711D01*
X149321786Y-102889707D01*
X149210292Y-102778213D01*
X149210288Y-102778210D01*
X149079185Y-102690609D01*
X149079172Y-102690602D01*
X148933501Y-102630264D01*
X148933489Y-102630261D01*
X148778845Y-102599500D01*
X148778842Y-102599500D01*
X148621158Y-102599500D01*
X148621155Y-102599500D01*
X148466510Y-102630261D01*
X148466498Y-102630264D01*
X148320827Y-102690602D01*
X148320814Y-102690609D01*
X148189711Y-102778210D01*
X148189707Y-102778213D01*
X148078213Y-102889707D01*
X148078210Y-102889711D01*
X147990609Y-103020814D01*
X147990602Y-103020827D01*
X147930264Y-103166498D01*
X147930261Y-103166510D01*
X147899500Y-103321153D01*
X145953232Y-103321153D01*
X145860292Y-103228213D01*
X145860288Y-103228210D01*
X145729185Y-103140609D01*
X145729172Y-103140602D01*
X145583501Y-103080264D01*
X145583489Y-103080261D01*
X145428845Y-103049500D01*
X145428842Y-103049500D01*
X145271158Y-103049500D01*
X145271155Y-103049500D01*
X145116510Y-103080261D01*
X145116498Y-103080264D01*
X144970827Y-103140602D01*
X144970814Y-103140609D01*
X144839711Y-103228210D01*
X144839707Y-103228213D01*
X144728213Y-103339707D01*
X144728210Y-103339711D01*
X144640609Y-103470814D01*
X144640602Y-103470827D01*
X144580264Y-103616498D01*
X144580261Y-103616510D01*
X144549500Y-103771153D01*
X135525292Y-103771153D01*
X135574024Y-103722421D01*
X135468767Y-103678822D01*
X135468759Y-103678820D01*
X135323872Y-103650000D01*
X135176130Y-103650000D01*
X135149527Y-103655291D01*
X135079936Y-103649062D01*
X135024760Y-103606197D01*
X135010778Y-103581127D01*
X134977577Y-103500975D01*
X134653554Y-103824999D01*
X134400000Y-103824999D01*
X134400000Y-103805109D01*
X134384776Y-103768355D01*
X134356645Y-103740224D01*
X134319891Y-103725000D01*
X134280109Y-103725000D01*
X134243355Y-103740224D01*
X134215224Y-103768355D01*
X134200000Y-103805109D01*
X133926556Y-103805109D01*
X133622421Y-103500974D01*
X133589221Y-103581126D01*
X133545380Y-103635529D01*
X133479086Y-103657594D01*
X133450471Y-103655291D01*
X133423869Y-103650000D01*
X133276128Y-103650000D01*
X133131240Y-103678820D01*
X133131228Y-103678823D01*
X133025974Y-103722420D01*
X128775500Y-103722420D01*
X128775500Y-103147420D01*
X133975974Y-103147420D01*
X133975974Y-103147421D01*
X134300000Y-103471446D01*
X134300001Y-103471446D01*
X134624024Y-103147421D01*
X134518767Y-103103822D01*
X134518759Y-103103820D01*
X134373872Y-103075000D01*
X134226128Y-103075000D01*
X134081240Y-103103820D01*
X134081228Y-103103823D01*
X133975974Y-103147420D01*
X128775500Y-103147420D01*
X128775500Y-101921153D01*
X131199500Y-101921153D01*
X131199500Y-102078846D01*
X131230261Y-102233489D01*
X131230264Y-102233501D01*
X131290602Y-102379172D01*
X131290609Y-102379185D01*
X131378210Y-102510288D01*
X131378213Y-102510292D01*
X131489707Y-102621786D01*
X131489711Y-102621789D01*
X131620814Y-102709390D01*
X131620827Y-102709397D01*
X131766498Y-102769735D01*
X131766503Y-102769737D01*
X131921153Y-102800499D01*
X131921156Y-102800500D01*
X131921158Y-102800500D01*
X132078844Y-102800500D01*
X132078845Y-102800499D01*
X132233497Y-102769737D01*
X132379179Y-102709394D01*
X132510289Y-102621789D01*
X132621789Y-102510289D01*
X132709394Y-102379179D01*
X132769737Y-102233497D01*
X132800500Y-102078842D01*
X132800500Y-101921158D01*
X132800500Y-101921155D01*
X132800499Y-101921153D01*
X132769738Y-101766510D01*
X132769737Y-101766503D01*
X132769735Y-101766498D01*
X132709397Y-101620827D01*
X132709390Y-101620814D01*
X132621789Y-101489711D01*
X132621786Y-101489707D01*
X132510292Y-101378213D01*
X132510288Y-101378210D01*
X132379185Y-101290609D01*
X132379172Y-101290602D01*
X132233501Y-101230264D01*
X132233489Y-101230261D01*
X132078845Y-101199500D01*
X132078842Y-101199500D01*
X131921158Y-101199500D01*
X131921155Y-101199500D01*
X131766510Y-101230261D01*
X131766498Y-101230264D01*
X131620827Y-101290602D01*
X131620814Y-101290609D01*
X131489711Y-101378210D01*
X131489707Y-101378213D01*
X131378213Y-101489707D01*
X131378210Y-101489711D01*
X131290609Y-101620814D01*
X131290602Y-101620827D01*
X131230264Y-101766498D01*
X131230261Y-101766510D01*
X131199500Y-101921153D01*
X128775500Y-101921153D01*
X128775500Y-100621153D01*
X140299500Y-100621153D01*
X140299500Y-100778846D01*
X140330261Y-100933489D01*
X140330264Y-100933501D01*
X140390602Y-101079172D01*
X140390609Y-101079185D01*
X140478210Y-101210288D01*
X140478213Y-101210292D01*
X140589707Y-101321786D01*
X140589711Y-101321789D01*
X140720814Y-101409390D01*
X140720827Y-101409397D01*
X140866498Y-101469735D01*
X140866503Y-101469737D01*
X141021153Y-101500499D01*
X141021156Y-101500500D01*
X141021158Y-101500500D01*
X141178844Y-101500500D01*
X141178845Y-101500499D01*
X141333497Y-101469737D01*
X141479179Y-101409394D01*
X141610289Y-101321789D01*
X141721789Y-101210289D01*
X141809394Y-101079179D01*
X141869737Y-100933497D01*
X141900500Y-100778842D01*
X141900500Y-100621158D01*
X141900500Y-100621155D01*
X141900499Y-100621153D01*
X141869738Y-100466510D01*
X141869737Y-100466503D01*
X141869735Y-100466498D01*
X141809397Y-100320827D01*
X141809390Y-100320814D01*
X141721789Y-100189711D01*
X141721786Y-100189707D01*
X141610292Y-100078213D01*
X141610288Y-100078210D01*
X141479185Y-99990609D01*
X141479172Y-99990602D01*
X141333501Y-99930264D01*
X141333489Y-99930261D01*
X141178845Y-99899500D01*
X141178842Y-99899500D01*
X141021158Y-99899500D01*
X141021155Y-99899500D01*
X140866510Y-99930261D01*
X140866498Y-99930264D01*
X140720827Y-99990602D01*
X140720814Y-99990609D01*
X140589711Y-100078210D01*
X140589707Y-100078213D01*
X140478213Y-100189707D01*
X140478210Y-100189711D01*
X140390609Y-100320814D01*
X140390602Y-100320827D01*
X140330264Y-100466498D01*
X140330261Y-100466510D01*
X140299500Y-100621153D01*
X128775500Y-100621153D01*
X128775500Y-97621153D01*
X140399500Y-97621153D01*
X140399500Y-97778846D01*
X140430261Y-97933489D01*
X140430264Y-97933501D01*
X140490602Y-98079172D01*
X140490609Y-98079185D01*
X140578210Y-98210288D01*
X140578213Y-98210292D01*
X140689707Y-98321786D01*
X140689711Y-98321789D01*
X140820814Y-98409390D01*
X140820827Y-98409397D01*
X140966498Y-98469735D01*
X140966503Y-98469737D01*
X141121153Y-98500499D01*
X141121156Y-98500500D01*
X141121158Y-98500500D01*
X141278844Y-98500500D01*
X141278845Y-98500499D01*
X141433497Y-98469737D01*
X141550790Y-98421153D01*
X142199500Y-98421153D01*
X142199500Y-98578846D01*
X142230261Y-98733489D01*
X142230264Y-98733501D01*
X142290602Y-98879172D01*
X142290609Y-98879185D01*
X142378210Y-99010288D01*
X142378213Y-99010292D01*
X142489707Y-99121786D01*
X142489711Y-99121789D01*
X142620814Y-99209390D01*
X142620827Y-99209397D01*
X142766498Y-99269735D01*
X142766503Y-99269737D01*
X142921153Y-99300499D01*
X142921156Y-99300500D01*
X142921158Y-99300500D01*
X143078844Y-99300500D01*
X143078845Y-99300499D01*
X143233497Y-99269737D01*
X143379179Y-99209394D01*
X143510289Y-99121789D01*
X143621789Y-99010289D01*
X143709394Y-98879179D01*
X143733429Y-98821153D01*
X144399500Y-98821153D01*
X144399500Y-98978846D01*
X144430261Y-99133489D01*
X144430264Y-99133501D01*
X144490602Y-99279172D01*
X144490609Y-99279185D01*
X144578210Y-99410288D01*
X144578213Y-99410292D01*
X144689707Y-99521786D01*
X144689711Y-99521789D01*
X144820814Y-99609390D01*
X144820827Y-99609397D01*
X144966498Y-99669735D01*
X144966503Y-99669737D01*
X145121153Y-99700499D01*
X145121156Y-99700500D01*
X145121158Y-99700500D01*
X145278844Y-99700500D01*
X145278845Y-99700499D01*
X145433497Y-99669737D01*
X145579179Y-99609394D01*
X145710289Y-99521789D01*
X145821789Y-99410289D01*
X145909394Y-99279179D01*
X145969737Y-99133497D01*
X146000500Y-98978842D01*
X146000500Y-98821158D01*
X146000500Y-98821155D01*
X146000499Y-98821153D01*
X145969738Y-98666510D01*
X145969737Y-98666503D01*
X145933427Y-98578842D01*
X145909397Y-98520827D01*
X145909390Y-98520814D01*
X145821789Y-98389711D01*
X145821786Y-98389707D01*
X145710292Y-98278213D01*
X145710288Y-98278210D01*
X145579185Y-98190609D01*
X145579172Y-98190602D01*
X145433501Y-98130264D01*
X145433489Y-98130261D01*
X145278845Y-98099500D01*
X145278842Y-98099500D01*
X145121158Y-98099500D01*
X145121155Y-98099500D01*
X144966510Y-98130261D01*
X144966498Y-98130264D01*
X144820827Y-98190602D01*
X144820814Y-98190609D01*
X144689711Y-98278210D01*
X144689707Y-98278213D01*
X144578213Y-98389707D01*
X144578210Y-98389711D01*
X144490609Y-98520814D01*
X144490602Y-98520827D01*
X144430264Y-98666498D01*
X144430261Y-98666510D01*
X144399500Y-98821153D01*
X143733429Y-98821153D01*
X143755603Y-98767621D01*
X143755605Y-98767614D01*
X143769737Y-98733497D01*
X143800500Y-98578842D01*
X143800500Y-98421158D01*
X143800500Y-98421155D01*
X143800499Y-98421153D01*
X143780734Y-98321788D01*
X143769737Y-98266503D01*
X143738298Y-98190602D01*
X143709397Y-98120827D01*
X143709390Y-98120814D01*
X143621789Y-97989711D01*
X143621786Y-97989707D01*
X143510292Y-97878213D01*
X143510288Y-97878210D01*
X143379185Y-97790609D01*
X143379172Y-97790602D01*
X143233501Y-97730264D01*
X143233489Y-97730261D01*
X143078845Y-97699500D01*
X143078842Y-97699500D01*
X142921158Y-97699500D01*
X142921155Y-97699500D01*
X142766510Y-97730261D01*
X142766498Y-97730264D01*
X142620827Y-97790602D01*
X142620814Y-97790609D01*
X142489711Y-97878210D01*
X142489707Y-97878213D01*
X142378213Y-97989707D01*
X142378210Y-97989711D01*
X142290609Y-98120814D01*
X142290602Y-98120827D01*
X142230264Y-98266498D01*
X142230261Y-98266510D01*
X142199500Y-98421153D01*
X141550790Y-98421153D01*
X141579179Y-98409394D01*
X141710289Y-98321789D01*
X141821789Y-98210289D01*
X141909394Y-98079179D01*
X141969737Y-97933497D01*
X142000500Y-97778842D01*
X142000500Y-97621158D01*
X142000500Y-97621155D01*
X142000499Y-97621153D01*
X141969738Y-97466510D01*
X141969737Y-97466503D01*
X141969735Y-97466498D01*
X141909397Y-97320827D01*
X141909390Y-97320814D01*
X141821789Y-97189711D01*
X141821786Y-97189707D01*
X141710292Y-97078213D01*
X141710288Y-97078210D01*
X141579185Y-96990609D01*
X141579172Y-96990602D01*
X141433501Y-96930264D01*
X141433489Y-96930261D01*
X141278845Y-96899500D01*
X141278842Y-96899500D01*
X141121158Y-96899500D01*
X141121155Y-96899500D01*
X140966510Y-96930261D01*
X140966498Y-96930264D01*
X140820827Y-96990602D01*
X140820814Y-96990609D01*
X140689711Y-97078210D01*
X140689707Y-97078213D01*
X140578213Y-97189707D01*
X140578210Y-97189711D01*
X140490609Y-97320814D01*
X140490602Y-97320827D01*
X140430264Y-97466498D01*
X140430261Y-97466510D01*
X140399500Y-97621153D01*
X128775500Y-97621153D01*
X128775500Y-95610000D01*
X129655138Y-95610000D01*
X130458012Y-95610000D01*
X130440795Y-95619940D01*
X130384940Y-95675795D01*
X130345444Y-95744204D01*
X130325000Y-95820504D01*
X130325000Y-95899496D01*
X130345444Y-95975796D01*
X130384940Y-96044205D01*
X130440795Y-96100060D01*
X130458012Y-96110000D01*
X129655138Y-96110000D01*
X129663430Y-96151690D01*
X129663430Y-96151692D01*
X129738807Y-96333671D01*
X129738814Y-96333684D01*
X129848248Y-96497462D01*
X129848251Y-96497466D01*
X129987533Y-96636748D01*
X129987537Y-96636751D01*
X130151315Y-96746185D01*
X130151328Y-96746192D01*
X130333306Y-96821569D01*
X130333318Y-96821572D01*
X130526504Y-96859999D01*
X130526508Y-96860000D01*
X130775000Y-96860000D01*
X130775000Y-96160000D01*
X131275000Y-96160000D01*
X131275000Y-96860000D01*
X131523492Y-96860000D01*
X131523495Y-96859999D01*
X131716681Y-96821572D01*
X131716693Y-96821569D01*
X131898671Y-96746192D01*
X131898684Y-96746185D01*
X132062462Y-96636751D01*
X132062466Y-96636748D01*
X132201748Y-96497466D01*
X132201751Y-96497462D01*
X132311185Y-96333684D01*
X132311192Y-96333671D01*
X132386569Y-96151692D01*
X132386569Y-96151690D01*
X132394862Y-96110000D01*
X131591988Y-96110000D01*
X131609205Y-96100060D01*
X131665060Y-96044205D01*
X131704556Y-95975796D01*
X131725000Y-95899496D01*
X131725000Y-95820504D01*
X131704556Y-95744204D01*
X131665060Y-95675795D01*
X131609205Y-95619940D01*
X131591988Y-95610000D01*
X132394862Y-95610000D01*
X133685138Y-95610000D01*
X134488012Y-95610000D01*
X134470795Y-95619940D01*
X134414940Y-95675795D01*
X134375444Y-95744204D01*
X134355000Y-95820504D01*
X134355000Y-95899496D01*
X134375444Y-95975796D01*
X134414940Y-96044205D01*
X134470795Y-96100060D01*
X134488012Y-96110000D01*
X133685138Y-96110000D01*
X133693430Y-96151690D01*
X133693430Y-96151692D01*
X133768807Y-96333671D01*
X133768814Y-96333684D01*
X133878248Y-96497462D01*
X133878251Y-96497466D01*
X134017533Y-96636748D01*
X134017537Y-96636751D01*
X134181315Y-96746185D01*
X134181328Y-96746192D01*
X134363306Y-96821569D01*
X134363318Y-96821572D01*
X134556504Y-96859999D01*
X134556508Y-96860000D01*
X134955000Y-96860000D01*
X134955000Y-96160000D01*
X135455000Y-96160000D01*
X135455000Y-96860000D01*
X135853492Y-96860000D01*
X135853495Y-96859999D01*
X136046681Y-96821572D01*
X136046693Y-96821569D01*
X136228671Y-96746192D01*
X136228684Y-96746185D01*
X136392462Y-96636751D01*
X136392466Y-96636748D01*
X136531748Y-96497466D01*
X136531751Y-96497462D01*
X136641185Y-96333684D01*
X136641192Y-96333671D01*
X136716569Y-96151692D01*
X136716569Y-96151690D01*
X136724862Y-96110000D01*
X135921988Y-96110000D01*
X135939205Y-96100060D01*
X135995060Y-96044205D01*
X136034556Y-95975796D01*
X136055000Y-95899496D01*
X136055000Y-95820504D01*
X136034556Y-95744204D01*
X135995060Y-95675795D01*
X135939205Y-95619940D01*
X135921988Y-95610000D01*
X136724862Y-95610000D01*
X136716569Y-95568309D01*
X136716569Y-95568307D01*
X136641192Y-95386328D01*
X136641185Y-95386315D01*
X136531751Y-95222537D01*
X136531748Y-95222533D01*
X136392466Y-95083251D01*
X136392462Y-95083248D01*
X136228684Y-94973814D01*
X136228671Y-94973807D01*
X136122009Y-94929627D01*
X136046693Y-94898430D01*
X136046681Y-94898427D01*
X135853495Y-94860000D01*
X135455000Y-94860000D01*
X135455000Y-95560000D01*
X134955000Y-95560000D01*
X134955000Y-95021784D01*
X134974685Y-94954745D01*
X135017000Y-94914397D01*
X135058365Y-94890515D01*
X135127727Y-94821153D01*
X144499500Y-94821153D01*
X144499500Y-94978846D01*
X144530261Y-95133489D01*
X144530264Y-95133501D01*
X144590602Y-95279172D01*
X144590609Y-95279185D01*
X144678210Y-95410288D01*
X144678213Y-95410292D01*
X144789707Y-95521786D01*
X144789711Y-95521789D01*
X144920814Y-95609390D01*
X144920827Y-95609397D01*
X145066498Y-95669735D01*
X145066503Y-95669737D01*
X145221153Y-95700499D01*
X145221156Y-95700500D01*
X145221158Y-95700500D01*
X145378844Y-95700500D01*
X145378845Y-95700499D01*
X145533497Y-95669737D01*
X145679179Y-95609394D01*
X145810289Y-95521789D01*
X145921789Y-95410289D01*
X146009394Y-95279179D01*
X146069737Y-95133497D01*
X146100500Y-94978842D01*
X146100500Y-94821158D01*
X146100500Y-94821155D01*
X146100499Y-94821153D01*
X146069738Y-94666510D01*
X146069737Y-94666503D01*
X146063787Y-94652138D01*
X146009397Y-94520827D01*
X146009390Y-94520814D01*
X145921789Y-94389711D01*
X145921786Y-94389707D01*
X145810292Y-94278213D01*
X145810288Y-94278210D01*
X145679185Y-94190609D01*
X145679172Y-94190602D01*
X145533501Y-94130264D01*
X145533489Y-94130261D01*
X145378845Y-94099500D01*
X145378842Y-94099500D01*
X145221158Y-94099500D01*
X145221155Y-94099500D01*
X145066510Y-94130261D01*
X145066498Y-94130264D01*
X144920827Y-94190602D01*
X144920814Y-94190609D01*
X144789711Y-94278210D01*
X144789707Y-94278213D01*
X144678213Y-94389707D01*
X144678210Y-94389711D01*
X144590609Y-94520814D01*
X144590602Y-94520827D01*
X144530264Y-94666498D01*
X144530261Y-94666510D01*
X144499500Y-94821153D01*
X135127727Y-94821153D01*
X135165515Y-94783365D01*
X135166372Y-94781879D01*
X135186721Y-94746637D01*
X135229645Y-94672288D01*
X135241281Y-94652135D01*
X135280500Y-94505766D01*
X135280500Y-94354234D01*
X135241281Y-94207865D01*
X135165515Y-94076635D01*
X135058365Y-93969485D01*
X134992750Y-93931602D01*
X134927136Y-93893719D01*
X134853950Y-93874109D01*
X134780766Y-93854500D01*
X134629234Y-93854500D01*
X134482863Y-93893719D01*
X134351635Y-93969485D01*
X134351632Y-93969487D01*
X134244487Y-94076632D01*
X134244485Y-94076635D01*
X134168719Y-94207863D01*
X134129500Y-94354234D01*
X134129500Y-94505765D01*
X134168719Y-94652136D01*
X134177014Y-94666503D01*
X134244485Y-94783365D01*
X134244486Y-94783366D01*
X134248549Y-94790403D01*
X134246346Y-94791674D01*
X134266959Y-94844983D01*
X134252923Y-94913428D01*
X134204112Y-94963420D01*
X134190845Y-94969866D01*
X134181324Y-94973809D01*
X134181315Y-94973814D01*
X134017537Y-95083248D01*
X134017533Y-95083251D01*
X133878251Y-95222533D01*
X133878248Y-95222537D01*
X133768814Y-95386315D01*
X133768807Y-95386328D01*
X133693430Y-95568307D01*
X133693430Y-95568309D01*
X133685138Y-95610000D01*
X132394862Y-95610000D01*
X132386569Y-95568309D01*
X132386569Y-95568307D01*
X132311192Y-95386328D01*
X132311185Y-95386315D01*
X132201751Y-95222537D01*
X132201748Y-95222533D01*
X132062466Y-95083251D01*
X132062462Y-95083248D01*
X131898684Y-94973814D01*
X131898671Y-94973807D01*
X131716693Y-94898430D01*
X131716681Y-94898427D01*
X131523495Y-94860000D01*
X131275000Y-94860000D01*
X131275000Y-95560000D01*
X130775000Y-95560000D01*
X130775000Y-94860000D01*
X130526504Y-94860000D01*
X130333318Y-94898427D01*
X130333306Y-94898430D01*
X130151328Y-94973807D01*
X130151315Y-94973814D01*
X129987537Y-95083248D01*
X129987533Y-95083251D01*
X129848251Y-95222533D01*
X129848248Y-95222537D01*
X129738814Y-95386315D01*
X129738807Y-95386328D01*
X129663430Y-95568307D01*
X129663430Y-95568309D01*
X129655138Y-95610000D01*
X128775500Y-95610000D01*
X128775500Y-90121153D01*
X136699500Y-90121153D01*
X136699500Y-90278846D01*
X136730261Y-90433489D01*
X136730264Y-90433501D01*
X136790602Y-90579172D01*
X136790609Y-90579185D01*
X136878210Y-90710288D01*
X136878213Y-90710292D01*
X136989707Y-90821786D01*
X136989711Y-90821789D01*
X137120814Y-90909390D01*
X137120827Y-90909397D01*
X137266498Y-90969735D01*
X137266503Y-90969737D01*
X137421153Y-91000499D01*
X137421156Y-91000500D01*
X137421158Y-91000500D01*
X137578844Y-91000500D01*
X137578845Y-91000499D01*
X137733497Y-90969737D01*
X137879179Y-90909394D01*
X138010289Y-90821789D01*
X138121789Y-90710289D01*
X138209394Y-90579179D01*
X138269737Y-90433497D01*
X138300500Y-90278842D01*
X138300500Y-90121158D01*
X138300500Y-90121155D01*
X138300499Y-90121153D01*
X138269738Y-89966510D01*
X138269737Y-89966503D01*
X138269735Y-89966498D01*
X138209397Y-89820827D01*
X138209390Y-89820814D01*
X138121789Y-89689711D01*
X138121786Y-89689707D01*
X138010292Y-89578213D01*
X138010288Y-89578210D01*
X137879185Y-89490609D01*
X137879172Y-89490602D01*
X137733501Y-89430264D01*
X137733489Y-89430261D01*
X137578845Y-89399500D01*
X137578842Y-89399500D01*
X137421158Y-89399500D01*
X137421155Y-89399500D01*
X137266510Y-89430261D01*
X137266498Y-89430264D01*
X137120827Y-89490602D01*
X137120814Y-89490609D01*
X136989711Y-89578210D01*
X136989707Y-89578213D01*
X136878213Y-89689707D01*
X136878210Y-89689711D01*
X136790609Y-89820814D01*
X136790602Y-89820827D01*
X136730264Y-89966498D01*
X136730261Y-89966510D01*
X136699500Y-90121153D01*
X128775500Y-90121153D01*
X128775500Y-86970000D01*
X129655138Y-86970000D01*
X130458012Y-86970000D01*
X130440795Y-86979940D01*
X130384940Y-87035795D01*
X130345444Y-87104204D01*
X130325000Y-87180504D01*
X130325000Y-87259496D01*
X130345444Y-87335796D01*
X130384940Y-87404205D01*
X130440795Y-87460060D01*
X130458012Y-87470000D01*
X129655138Y-87470000D01*
X129663430Y-87511690D01*
X129663430Y-87511692D01*
X129738807Y-87693671D01*
X129738814Y-87693684D01*
X129848248Y-87857462D01*
X129848251Y-87857466D01*
X129987533Y-87996748D01*
X129987537Y-87996751D01*
X130151315Y-88106185D01*
X130151328Y-88106192D01*
X130333306Y-88181569D01*
X130333318Y-88181572D01*
X130526504Y-88219999D01*
X130526508Y-88220000D01*
X130775000Y-88220000D01*
X130775000Y-87520000D01*
X131275000Y-87520000D01*
X131275000Y-88220000D01*
X131523492Y-88220000D01*
X131523495Y-88219999D01*
X131716681Y-88181572D01*
X131716693Y-88181569D01*
X131898671Y-88106192D01*
X131898684Y-88106185D01*
X132062462Y-87996751D01*
X132062466Y-87996748D01*
X132201748Y-87857466D01*
X132201751Y-87857462D01*
X132311185Y-87693684D01*
X132311192Y-87693671D01*
X132386569Y-87511692D01*
X132386569Y-87511690D01*
X132394862Y-87470000D01*
X131591988Y-87470000D01*
X131609205Y-87460060D01*
X131665060Y-87404205D01*
X131704556Y-87335796D01*
X131725000Y-87259496D01*
X131725000Y-87180504D01*
X131704556Y-87104204D01*
X131665060Y-87035795D01*
X131609205Y-86979940D01*
X131591988Y-86970000D01*
X132394862Y-86970000D01*
X133685138Y-86970000D01*
X134488012Y-86970000D01*
X134470795Y-86979940D01*
X134414940Y-87035795D01*
X134375444Y-87104204D01*
X134355000Y-87180504D01*
X134355000Y-87259496D01*
X134375444Y-87335796D01*
X134414940Y-87404205D01*
X134470795Y-87460060D01*
X134488012Y-87470000D01*
X133685138Y-87470000D01*
X133693430Y-87511690D01*
X133693430Y-87511692D01*
X133768807Y-87693671D01*
X133768814Y-87693684D01*
X133878248Y-87857462D01*
X133878251Y-87857466D01*
X134017533Y-87996748D01*
X134017537Y-87996751D01*
X134181315Y-88106185D01*
X134181328Y-88106192D01*
X134190838Y-88110131D01*
X134245243Y-88153970D01*
X134267310Y-88220264D01*
X134250033Y-88287963D01*
X134246350Y-88293405D01*
X134168719Y-88427863D01*
X134129500Y-88574234D01*
X134129500Y-88725765D01*
X134168719Y-88872136D01*
X134206602Y-88937750D01*
X134244485Y-89003365D01*
X134351635Y-89110515D01*
X134482865Y-89186281D01*
X134629234Y-89225500D01*
X134629236Y-89225500D01*
X134780764Y-89225500D01*
X134780766Y-89225500D01*
X134927135Y-89186281D01*
X135058365Y-89110515D01*
X135165515Y-89003365D01*
X135241281Y-88872135D01*
X135280500Y-88725766D01*
X135280500Y-88574234D01*
X135241281Y-88427865D01*
X135165515Y-88296635D01*
X135058365Y-88189485D01*
X135044654Y-88181569D01*
X135016998Y-88165601D01*
X134968784Y-88115033D01*
X134955000Y-88058215D01*
X134955000Y-87520000D01*
X135455000Y-87520000D01*
X135455000Y-88220000D01*
X135853492Y-88220000D01*
X135853495Y-88219999D01*
X136046681Y-88181572D01*
X136046693Y-88181569D01*
X136228671Y-88106192D01*
X136228684Y-88106185D01*
X136392462Y-87996751D01*
X136392466Y-87996748D01*
X136468061Y-87921153D01*
X136899500Y-87921153D01*
X136899500Y-88078846D01*
X136930261Y-88233489D01*
X136930264Y-88233501D01*
X136990602Y-88379172D01*
X136990609Y-88379185D01*
X137078210Y-88510288D01*
X137078213Y-88510292D01*
X137189707Y-88621786D01*
X137189711Y-88621789D01*
X137320814Y-88709390D01*
X137320827Y-88709397D01*
X137466498Y-88769735D01*
X137466503Y-88769737D01*
X137621153Y-88800499D01*
X137621156Y-88800500D01*
X137621158Y-88800500D01*
X137778844Y-88800500D01*
X137778845Y-88800499D01*
X137933497Y-88769737D01*
X138079179Y-88709394D01*
X138210289Y-88621789D01*
X138321789Y-88510289D01*
X138409394Y-88379179D01*
X138469737Y-88233497D01*
X138500500Y-88078842D01*
X138500500Y-87921158D01*
X138500500Y-87921155D01*
X138500499Y-87921153D01*
X138487830Y-87857462D01*
X138469737Y-87766503D01*
X138439575Y-87693684D01*
X138409397Y-87620827D01*
X138409390Y-87620814D01*
X138321789Y-87489711D01*
X138321786Y-87489707D01*
X138210292Y-87378213D01*
X138210288Y-87378210D01*
X138079185Y-87290609D01*
X138079172Y-87290602D01*
X137933501Y-87230264D01*
X137933489Y-87230261D01*
X137778845Y-87199500D01*
X137778842Y-87199500D01*
X137621158Y-87199500D01*
X137621155Y-87199500D01*
X137466510Y-87230261D01*
X137466498Y-87230264D01*
X137320827Y-87290602D01*
X137320814Y-87290609D01*
X137189711Y-87378210D01*
X137189707Y-87378213D01*
X137078213Y-87489707D01*
X137078210Y-87489711D01*
X136990609Y-87620814D01*
X136990602Y-87620827D01*
X136930264Y-87766498D01*
X136930261Y-87766510D01*
X136899500Y-87921153D01*
X136468061Y-87921153D01*
X136531748Y-87857466D01*
X136531753Y-87857460D01*
X136539295Y-87846174D01*
X136641185Y-87693684D01*
X136641192Y-87693671D01*
X136716569Y-87511692D01*
X136716569Y-87511690D01*
X136724862Y-87470000D01*
X135921988Y-87470000D01*
X135939205Y-87460060D01*
X135995060Y-87404205D01*
X136034556Y-87335796D01*
X136055000Y-87259496D01*
X136055000Y-87180504D01*
X136034556Y-87104204D01*
X135995060Y-87035795D01*
X135939205Y-86979940D01*
X135921988Y-86970000D01*
X136724862Y-86970000D01*
X136716569Y-86928309D01*
X136716569Y-86928307D01*
X136641192Y-86746328D01*
X136641185Y-86746315D01*
X136531751Y-86582537D01*
X136531748Y-86582533D01*
X136392466Y-86443251D01*
X136392462Y-86443248D01*
X136228684Y-86333814D01*
X136228671Y-86333807D01*
X136046693Y-86258430D01*
X136046681Y-86258427D01*
X135853495Y-86220000D01*
X135455000Y-86220000D01*
X135455000Y-86920000D01*
X134955000Y-86920000D01*
X134955000Y-86220000D01*
X134556504Y-86220000D01*
X134363318Y-86258427D01*
X134363306Y-86258430D01*
X134181328Y-86333807D01*
X134181315Y-86333814D01*
X134017537Y-86443248D01*
X134017533Y-86443251D01*
X133878251Y-86582533D01*
X133878248Y-86582537D01*
X133768814Y-86746315D01*
X133768807Y-86746328D01*
X133693430Y-86928307D01*
X133693430Y-86928309D01*
X133685138Y-86970000D01*
X132394862Y-86970000D01*
X132386569Y-86928309D01*
X132386569Y-86928307D01*
X132311192Y-86746328D01*
X132311185Y-86746315D01*
X132201751Y-86582537D01*
X132201748Y-86582533D01*
X132062466Y-86443251D01*
X132062462Y-86443248D01*
X131898684Y-86333814D01*
X131898671Y-86333807D01*
X131716693Y-86258430D01*
X131716681Y-86258427D01*
X131523495Y-86220000D01*
X131275000Y-86220000D01*
X131275000Y-86920000D01*
X130775000Y-86920000D01*
X130775000Y-86220000D01*
X130526504Y-86220000D01*
X130333318Y-86258427D01*
X130333306Y-86258430D01*
X130151328Y-86333807D01*
X130151315Y-86333814D01*
X129987537Y-86443248D01*
X129987533Y-86443251D01*
X129848251Y-86582533D01*
X129848248Y-86582537D01*
X129738814Y-86746315D01*
X129738807Y-86746328D01*
X129663430Y-86928307D01*
X129663430Y-86928309D01*
X129655138Y-86970000D01*
X128775500Y-86970000D01*
X128775500Y-84911153D01*
X144309500Y-84911153D01*
X144309500Y-85068846D01*
X144340261Y-85223489D01*
X144340264Y-85223501D01*
X144400602Y-85369172D01*
X144400609Y-85369185D01*
X144488210Y-85500288D01*
X144488213Y-85500292D01*
X144599707Y-85611786D01*
X144599711Y-85611789D01*
X144730814Y-85699390D01*
X144730827Y-85699397D01*
X144876498Y-85759735D01*
X144876503Y-85759737D01*
X145031153Y-85790499D01*
X145031156Y-85790500D01*
X145031158Y-85790500D01*
X145188844Y-85790500D01*
X145188845Y-85790499D01*
X145343497Y-85759737D01*
X145489179Y-85699394D01*
X145620289Y-85611789D01*
X145731789Y-85500289D01*
X145819394Y-85369179D01*
X145879737Y-85223497D01*
X145910500Y-85068842D01*
X145910500Y-84911158D01*
X145910500Y-84911155D01*
X145910499Y-84911153D01*
X145879738Y-84756510D01*
X145879737Y-84756503D01*
X145879735Y-84756498D01*
X145819397Y-84610827D01*
X145819390Y-84610814D01*
X145731789Y-84479711D01*
X145731786Y-84479707D01*
X145620292Y-84368213D01*
X145620288Y-84368210D01*
X145489185Y-84280609D01*
X145489172Y-84280602D01*
X145343501Y-84220264D01*
X145343489Y-84220261D01*
X145188845Y-84189500D01*
X145188842Y-84189500D01*
X145031158Y-84189500D01*
X145031155Y-84189500D01*
X144876510Y-84220261D01*
X144876498Y-84220264D01*
X144730827Y-84280602D01*
X144730814Y-84280609D01*
X144599711Y-84368210D01*
X144599707Y-84368213D01*
X144488213Y-84479707D01*
X144488210Y-84479711D01*
X144400609Y-84610814D01*
X144400602Y-84610827D01*
X144340264Y-84756498D01*
X144340261Y-84756510D01*
X144309500Y-84911153D01*
X128775500Y-84911153D01*
X128775500Y-82421153D01*
X144299500Y-82421153D01*
X144299500Y-82578846D01*
X144330261Y-82733489D01*
X144330264Y-82733501D01*
X144390602Y-82879172D01*
X144390609Y-82879185D01*
X144478210Y-83010288D01*
X144478213Y-83010292D01*
X144589707Y-83121786D01*
X144589711Y-83121789D01*
X144720814Y-83209390D01*
X144720827Y-83209397D01*
X144866498Y-83269735D01*
X144866503Y-83269737D01*
X145021153Y-83300499D01*
X145021156Y-83300500D01*
X145021158Y-83300500D01*
X145178844Y-83300500D01*
X145178845Y-83300499D01*
X145333497Y-83269737D01*
X145479179Y-83209394D01*
X145610289Y-83121789D01*
X145721789Y-83010289D01*
X145809394Y-82879179D01*
X145869737Y-82733497D01*
X145900500Y-82578842D01*
X145900500Y-82421158D01*
X145900500Y-82421155D01*
X145900499Y-82421153D01*
X145869738Y-82266510D01*
X145869737Y-82266503D01*
X145869735Y-82266498D01*
X145809397Y-82120827D01*
X145809390Y-82120814D01*
X145721789Y-81989711D01*
X145721786Y-81989707D01*
X145610292Y-81878213D01*
X145610288Y-81878210D01*
X145479185Y-81790609D01*
X145479172Y-81790602D01*
X145333501Y-81730264D01*
X145333489Y-81730261D01*
X145178845Y-81699500D01*
X145178842Y-81699500D01*
X145021158Y-81699500D01*
X145021155Y-81699500D01*
X144866510Y-81730261D01*
X144866498Y-81730264D01*
X144720827Y-81790602D01*
X144720814Y-81790609D01*
X144589711Y-81878210D01*
X144589707Y-81878213D01*
X144478213Y-81989707D01*
X144478210Y-81989711D01*
X144390609Y-82120814D01*
X144390602Y-82120827D01*
X144330264Y-82266498D01*
X144330261Y-82266510D01*
X144299500Y-82421153D01*
X128775500Y-82421153D01*
X128775500Y-78121153D01*
X135399500Y-78121153D01*
X135399500Y-78278846D01*
X135430261Y-78433489D01*
X135430264Y-78433501D01*
X135490602Y-78579172D01*
X135490609Y-78579185D01*
X135578210Y-78710288D01*
X135578213Y-78710292D01*
X135689707Y-78821786D01*
X135689711Y-78821789D01*
X135820814Y-78909390D01*
X135820827Y-78909397D01*
X135966498Y-78969735D01*
X135966503Y-78969737D01*
X136121153Y-79000499D01*
X136121156Y-79000500D01*
X136121158Y-79000500D01*
X136278844Y-79000500D01*
X136278845Y-79000499D01*
X136433497Y-78969737D01*
X136579179Y-78909394D01*
X136710289Y-78821789D01*
X136821789Y-78710289D01*
X136909394Y-78579179D01*
X136969737Y-78433497D01*
X136992084Y-78321153D01*
X158799500Y-78321153D01*
X158799500Y-78478846D01*
X158830261Y-78633489D01*
X158830264Y-78633501D01*
X158890602Y-78779172D01*
X158890609Y-78779185D01*
X158978210Y-78910288D01*
X158978213Y-78910292D01*
X159089707Y-79021786D01*
X159089711Y-79021789D01*
X159220814Y-79109390D01*
X159220827Y-79109397D01*
X159366498Y-79169735D01*
X159366503Y-79169737D01*
X159521153Y-79200499D01*
X159521156Y-79200500D01*
X159521158Y-79200500D01*
X159678844Y-79200500D01*
X159678845Y-79200499D01*
X159833497Y-79169737D01*
X159979179Y-79109394D01*
X160110289Y-79021789D01*
X160221789Y-78910289D01*
X160309394Y-78779179D01*
X160369737Y-78633497D01*
X160400500Y-78478842D01*
X160400500Y-78321158D01*
X160400500Y-78321155D01*
X160400499Y-78321153D01*
X160396391Y-78300499D01*
X160369737Y-78166503D01*
X160350955Y-78121158D01*
X160309397Y-78020827D01*
X160309390Y-78020814D01*
X160221789Y-77889711D01*
X160221786Y-77889707D01*
X160110292Y-77778213D01*
X160110288Y-77778210D01*
X159979185Y-77690609D01*
X159979172Y-77690602D01*
X159833501Y-77630264D01*
X159833489Y-77630261D01*
X159678845Y-77599500D01*
X159678842Y-77599500D01*
X159521158Y-77599500D01*
X159521155Y-77599500D01*
X159366510Y-77630261D01*
X159366498Y-77630264D01*
X159220827Y-77690602D01*
X159220814Y-77690609D01*
X159089711Y-77778210D01*
X159089707Y-77778213D01*
X158978213Y-77889707D01*
X158978210Y-77889711D01*
X158890609Y-78020814D01*
X158890602Y-78020827D01*
X158830264Y-78166498D01*
X158830261Y-78166510D01*
X158799500Y-78321153D01*
X136992084Y-78321153D01*
X137000500Y-78278842D01*
X137000500Y-78121158D01*
X137000500Y-78121155D01*
X137000499Y-78121153D01*
X136980543Y-78020827D01*
X136969737Y-77966503D01*
X136937929Y-77889711D01*
X136909397Y-77820827D01*
X136909390Y-77820814D01*
X136821789Y-77689711D01*
X136821786Y-77689707D01*
X136710292Y-77578213D01*
X136710288Y-77578210D01*
X136620429Y-77518168D01*
X136579185Y-77490609D01*
X136579172Y-77490602D01*
X136433501Y-77430264D01*
X136433489Y-77430261D01*
X136387701Y-77421153D01*
X144899500Y-77421153D01*
X144899500Y-77578846D01*
X144930261Y-77733489D01*
X144930264Y-77733501D01*
X144990602Y-77879172D01*
X144990609Y-77879185D01*
X145078210Y-78010288D01*
X145078213Y-78010292D01*
X145189707Y-78121786D01*
X145189711Y-78121789D01*
X145320814Y-78209390D01*
X145320827Y-78209397D01*
X145466498Y-78269735D01*
X145466503Y-78269737D01*
X145621153Y-78300499D01*
X145621156Y-78300500D01*
X145621158Y-78300500D01*
X145778844Y-78300500D01*
X145778845Y-78300499D01*
X145933497Y-78269737D01*
X146079179Y-78209394D01*
X146210289Y-78121789D01*
X146321789Y-78010289D01*
X146409394Y-77879179D01*
X146469737Y-77733497D01*
X146500500Y-77578842D01*
X146500500Y-77421158D01*
X146500500Y-77421155D01*
X146500499Y-77421153D01*
X146469738Y-77266510D01*
X146469737Y-77266503D01*
X146469735Y-77266498D01*
X146409397Y-77120827D01*
X146409390Y-77120814D01*
X146321789Y-76989711D01*
X146321786Y-76989707D01*
X146210292Y-76878213D01*
X146210288Y-76878210D01*
X146079185Y-76790609D01*
X146079172Y-76790602D01*
X145933501Y-76730264D01*
X145933489Y-76730261D01*
X145778845Y-76699500D01*
X145778842Y-76699500D01*
X145621158Y-76699500D01*
X145621155Y-76699500D01*
X145466510Y-76730261D01*
X145466498Y-76730264D01*
X145320827Y-76790602D01*
X145320814Y-76790609D01*
X145189711Y-76878210D01*
X145189707Y-76878213D01*
X145078213Y-76989707D01*
X145078210Y-76989711D01*
X144990609Y-77120814D01*
X144990602Y-77120827D01*
X144930264Y-77266498D01*
X144930261Y-77266510D01*
X144899500Y-77421153D01*
X136387701Y-77421153D01*
X136278845Y-77399500D01*
X136278842Y-77399500D01*
X136121158Y-77399500D01*
X136121155Y-77399500D01*
X135966510Y-77430261D01*
X135966498Y-77430264D01*
X135820827Y-77490602D01*
X135820814Y-77490609D01*
X135689711Y-77578210D01*
X135689707Y-77578213D01*
X135578213Y-77689707D01*
X135578210Y-77689711D01*
X135490609Y-77820814D01*
X135490602Y-77820827D01*
X135430264Y-77966498D01*
X135430261Y-77966510D01*
X135399500Y-78121153D01*
X128775500Y-78121153D01*
X128775500Y-75721153D01*
X135399500Y-75721153D01*
X135399500Y-75878846D01*
X135430261Y-76033489D01*
X135430264Y-76033501D01*
X135490602Y-76179172D01*
X135490609Y-76179185D01*
X135578210Y-76310288D01*
X135578213Y-76310292D01*
X135689707Y-76421786D01*
X135689711Y-76421789D01*
X135820814Y-76509390D01*
X135820827Y-76509397D01*
X135966498Y-76569735D01*
X135966503Y-76569737D01*
X136121153Y-76600499D01*
X136121156Y-76600500D01*
X136121158Y-76600500D01*
X136278844Y-76600500D01*
X136278845Y-76600499D01*
X136433497Y-76569737D01*
X136579179Y-76509394D01*
X136710289Y-76421789D01*
X136821789Y-76310289D01*
X136909394Y-76179179D01*
X136969737Y-76033497D01*
X137000500Y-75878842D01*
X137000500Y-75721158D01*
X137000500Y-75721155D01*
X137000499Y-75721153D01*
X136978269Y-75609397D01*
X136969737Y-75566503D01*
X136951215Y-75521786D01*
X136909397Y-75420827D01*
X136909390Y-75420814D01*
X136821789Y-75289711D01*
X136821786Y-75289707D01*
X136710292Y-75178213D01*
X136710288Y-75178210D01*
X136579185Y-75090609D01*
X136579172Y-75090602D01*
X136433501Y-75030264D01*
X136433489Y-75030261D01*
X136278845Y-74999500D01*
X136278842Y-74999500D01*
X136121158Y-74999500D01*
X136121155Y-74999500D01*
X135966510Y-75030261D01*
X135966498Y-75030264D01*
X135820827Y-75090602D01*
X135820814Y-75090609D01*
X135689711Y-75178210D01*
X135689707Y-75178213D01*
X135578213Y-75289707D01*
X135578210Y-75289711D01*
X135490609Y-75420814D01*
X135490602Y-75420827D01*
X135430264Y-75566498D01*
X135430261Y-75566510D01*
X135399500Y-75721153D01*
X128775500Y-75721153D01*
X128775500Y-74821153D01*
X150099500Y-74821153D01*
X150099500Y-74978846D01*
X150130261Y-75133489D01*
X150130264Y-75133501D01*
X150190602Y-75279172D01*
X150190609Y-75279185D01*
X150278210Y-75410288D01*
X150278213Y-75410292D01*
X150389707Y-75521786D01*
X150389711Y-75521789D01*
X150520814Y-75609390D01*
X150520827Y-75609397D01*
X150666498Y-75669735D01*
X150666503Y-75669737D01*
X150821153Y-75700499D01*
X150821156Y-75700500D01*
X150821158Y-75700500D01*
X150978844Y-75700500D01*
X150978845Y-75700499D01*
X151133497Y-75669737D01*
X151279179Y-75609394D01*
X151410289Y-75521789D01*
X151521789Y-75410289D01*
X151609394Y-75279179D01*
X151669737Y-75133497D01*
X151700500Y-74978842D01*
X151700500Y-74821158D01*
X151700500Y-74821155D01*
X151700499Y-74821153D01*
X151669738Y-74666510D01*
X151669737Y-74666503D01*
X151632398Y-74576358D01*
X151609397Y-74520827D01*
X151609390Y-74520814D01*
X151521789Y-74389711D01*
X151521786Y-74389707D01*
X151410292Y-74278213D01*
X151410288Y-74278210D01*
X151279185Y-74190609D01*
X151279172Y-74190602D01*
X151133501Y-74130264D01*
X151133489Y-74130261D01*
X150978845Y-74099500D01*
X150978842Y-74099500D01*
X150821158Y-74099500D01*
X150821155Y-74099500D01*
X150666510Y-74130261D01*
X150666498Y-74130264D01*
X150520827Y-74190602D01*
X150520814Y-74190609D01*
X150389711Y-74278210D01*
X150389707Y-74278213D01*
X150278213Y-74389707D01*
X150278210Y-74389711D01*
X150190609Y-74520814D01*
X150190602Y-74520827D01*
X150130264Y-74666498D01*
X150130261Y-74666510D01*
X150099500Y-74821153D01*
X128775500Y-74821153D01*
X128775500Y-73846153D01*
X157699500Y-73846153D01*
X157699500Y-74003846D01*
X157730261Y-74158489D01*
X157730264Y-74158501D01*
X157790602Y-74304172D01*
X157790609Y-74304185D01*
X157878210Y-74435288D01*
X157878213Y-74435292D01*
X157905240Y-74462319D01*
X157938725Y-74523642D01*
X157933741Y-74593334D01*
X157905240Y-74637681D01*
X157878213Y-74664707D01*
X157878210Y-74664711D01*
X157790609Y-74795814D01*
X157790602Y-74795827D01*
X157730264Y-74941498D01*
X157730261Y-74941510D01*
X157699500Y-75096153D01*
X157699500Y-75253846D01*
X157730261Y-75408489D01*
X157730264Y-75408501D01*
X157790602Y-75554172D01*
X157790609Y-75554185D01*
X157878210Y-75685288D01*
X157878213Y-75685292D01*
X157989707Y-75796786D01*
X157989711Y-75796789D01*
X158120814Y-75884390D01*
X158120827Y-75884397D01*
X158266498Y-75944735D01*
X158266503Y-75944737D01*
X158421153Y-75975499D01*
X158421156Y-75975500D01*
X158421158Y-75975500D01*
X158578844Y-75975500D01*
X158578845Y-75975499D01*
X158733497Y-75944737D01*
X158879179Y-75884394D01*
X159010289Y-75796789D01*
X159121789Y-75685289D01*
X159209394Y-75554179D01*
X159269737Y-75408497D01*
X159300500Y-75253842D01*
X159300500Y-75096158D01*
X159300500Y-75096155D01*
X159300499Y-75096153D01*
X159287393Y-75030264D01*
X159269737Y-74941503D01*
X159219887Y-74821153D01*
X159209397Y-74795827D01*
X159209390Y-74795814D01*
X159121789Y-74664711D01*
X159121786Y-74664707D01*
X159094760Y-74637681D01*
X159061275Y-74576358D01*
X159066259Y-74506666D01*
X159094760Y-74462319D01*
X159121786Y-74435292D01*
X159121789Y-74435289D01*
X159209394Y-74304179D01*
X159269737Y-74158497D01*
X159300500Y-74003842D01*
X159300500Y-73846158D01*
X159300500Y-73846155D01*
X159300499Y-73846153D01*
X159269738Y-73691510D01*
X159269737Y-73691503D01*
X159269735Y-73691498D01*
X159209397Y-73545827D01*
X159209390Y-73545814D01*
X159121789Y-73414711D01*
X159121786Y-73414707D01*
X159010292Y-73303213D01*
X159010288Y-73303210D01*
X158879185Y-73215609D01*
X158879172Y-73215602D01*
X158733501Y-73155264D01*
X158733489Y-73155261D01*
X158578845Y-73124500D01*
X158578842Y-73124500D01*
X158421158Y-73124500D01*
X158421155Y-73124500D01*
X158266510Y-73155261D01*
X158266498Y-73155264D01*
X158120827Y-73215602D01*
X158120814Y-73215609D01*
X157989711Y-73303210D01*
X157989707Y-73303213D01*
X157878213Y-73414707D01*
X157878210Y-73414711D01*
X157790609Y-73545814D01*
X157790602Y-73545827D01*
X157730264Y-73691498D01*
X157730261Y-73691510D01*
X157699500Y-73846153D01*
X128775500Y-73846153D01*
X128775500Y-72121153D01*
X136599500Y-72121153D01*
X136599500Y-72278846D01*
X136630261Y-72433489D01*
X136630264Y-72433501D01*
X136690602Y-72579172D01*
X136690609Y-72579185D01*
X136778210Y-72710288D01*
X136778213Y-72710292D01*
X136889707Y-72821786D01*
X136889711Y-72821789D01*
X137020814Y-72909390D01*
X137020827Y-72909397D01*
X137166498Y-72969735D01*
X137166503Y-72969737D01*
X137321153Y-73000499D01*
X137321156Y-73000500D01*
X137321158Y-73000500D01*
X137478844Y-73000500D01*
X137478845Y-73000499D01*
X137633497Y-72969737D01*
X137779179Y-72909394D01*
X137910289Y-72821789D01*
X138021789Y-72710289D01*
X138109394Y-72579179D01*
X138169737Y-72433497D01*
X138200500Y-72278842D01*
X138200500Y-72121158D01*
X138200500Y-72121155D01*
X138200499Y-72121153D01*
X138198338Y-72110288D01*
X138169737Y-71966503D01*
X138142398Y-71900500D01*
X138109397Y-71820827D01*
X138109390Y-71820814D01*
X138021789Y-71689711D01*
X138021786Y-71689707D01*
X137910292Y-71578213D01*
X137910288Y-71578210D01*
X137824897Y-71521153D01*
X138599500Y-71521153D01*
X138599500Y-71678846D01*
X138630261Y-71833489D01*
X138630264Y-71833501D01*
X138690602Y-71979172D01*
X138690609Y-71979185D01*
X138778210Y-72110288D01*
X138778213Y-72110292D01*
X138889707Y-72221786D01*
X138889711Y-72221789D01*
X139020814Y-72309390D01*
X139020827Y-72309397D01*
X139166498Y-72369735D01*
X139166503Y-72369737D01*
X139321153Y-72400499D01*
X139321156Y-72400500D01*
X139321158Y-72400500D01*
X139478844Y-72400500D01*
X139478845Y-72400499D01*
X139633497Y-72369737D01*
X139779179Y-72309394D01*
X139910289Y-72221789D01*
X140021789Y-72110289D01*
X140109394Y-71979179D01*
X140169737Y-71833497D01*
X140200500Y-71678842D01*
X140200500Y-71521158D01*
X140200500Y-71521155D01*
X140200499Y-71521153D01*
X140184607Y-71441259D01*
X140169737Y-71366503D01*
X140133569Y-71279185D01*
X140109397Y-71220827D01*
X140109390Y-71220814D01*
X140021790Y-71089712D01*
X140021784Y-71089705D01*
X139953232Y-71021153D01*
X141499500Y-71021153D01*
X141499500Y-71178846D01*
X141530261Y-71333489D01*
X141530264Y-71333501D01*
X141590602Y-71479172D01*
X141590609Y-71479185D01*
X141678210Y-71610288D01*
X141678213Y-71610292D01*
X141789707Y-71721786D01*
X141789711Y-71721789D01*
X141920814Y-71809390D01*
X141920827Y-71809397D01*
X142066498Y-71869735D01*
X142066503Y-71869737D01*
X142221153Y-71900499D01*
X142221156Y-71900500D01*
X142221158Y-71900500D01*
X142378844Y-71900500D01*
X142378845Y-71900499D01*
X142533497Y-71869737D01*
X142651592Y-71820821D01*
X142679172Y-71809397D01*
X142679172Y-71809396D01*
X142679179Y-71809394D01*
X142810289Y-71721789D01*
X142862343Y-71669735D01*
X142926097Y-71605982D01*
X142927022Y-71606907D01*
X142979187Y-71571367D01*
X143049032Y-71569489D01*
X143086198Y-71586260D01*
X143117099Y-71606907D01*
X143120821Y-71609394D01*
X143120823Y-71609395D01*
X143120827Y-71609397D01*
X143266498Y-71669735D01*
X143266503Y-71669737D01*
X143421153Y-71700499D01*
X143421156Y-71700500D01*
X143421158Y-71700500D01*
X143578844Y-71700500D01*
X143578845Y-71700499D01*
X143733497Y-71669737D01*
X143879179Y-71609394D01*
X144010289Y-71521789D01*
X144021790Y-71510288D01*
X144062319Y-71469760D01*
X144123642Y-71436275D01*
X144193334Y-71441259D01*
X144237681Y-71469760D01*
X144289707Y-71521786D01*
X144289711Y-71521789D01*
X144420814Y-71609390D01*
X144420827Y-71609397D01*
X144566498Y-71669735D01*
X144566503Y-71669737D01*
X144721153Y-71700499D01*
X144721156Y-71700500D01*
X144721158Y-71700500D01*
X144878844Y-71700500D01*
X144878845Y-71700499D01*
X145033497Y-71669737D01*
X145179179Y-71609394D01*
X145310289Y-71521789D01*
X145421789Y-71410289D01*
X145509394Y-71279179D01*
X145569737Y-71133497D01*
X145600500Y-70978842D01*
X145600500Y-70921153D01*
X146499500Y-70921153D01*
X146499500Y-71078846D01*
X146530261Y-71233489D01*
X146530264Y-71233501D01*
X146590602Y-71379172D01*
X146590609Y-71379185D01*
X146678210Y-71510288D01*
X146678213Y-71510292D01*
X146789707Y-71621786D01*
X146789711Y-71621789D01*
X146920814Y-71709390D01*
X146920827Y-71709397D01*
X147066498Y-71769735D01*
X147066503Y-71769737D01*
X147221153Y-71800499D01*
X147221156Y-71800500D01*
X147221158Y-71800500D01*
X147378844Y-71800500D01*
X147378845Y-71800499D01*
X147533497Y-71769737D01*
X147679179Y-71709394D01*
X147810289Y-71621789D01*
X147826096Y-71605982D01*
X147862319Y-71569760D01*
X147923642Y-71536275D01*
X147993334Y-71541259D01*
X148037681Y-71569760D01*
X148089707Y-71621786D01*
X148089711Y-71621789D01*
X148220814Y-71709390D01*
X148220827Y-71709397D01*
X148366498Y-71769735D01*
X148366503Y-71769737D01*
X148521153Y-71800499D01*
X148521156Y-71800500D01*
X148521158Y-71800500D01*
X148678844Y-71800500D01*
X148678845Y-71800499D01*
X148833497Y-71769737D01*
X148979179Y-71709394D01*
X149110289Y-71621789D01*
X149126096Y-71605982D01*
X149162319Y-71569760D01*
X149223642Y-71536275D01*
X149293334Y-71541259D01*
X149337681Y-71569760D01*
X149389707Y-71621786D01*
X149389711Y-71621789D01*
X149520814Y-71709390D01*
X149520827Y-71709397D01*
X149666498Y-71769735D01*
X149666503Y-71769737D01*
X149821153Y-71800499D01*
X149821156Y-71800500D01*
X149821158Y-71800500D01*
X149978844Y-71800500D01*
X149978845Y-71800499D01*
X150133497Y-71769737D01*
X150279179Y-71709394D01*
X150410289Y-71621789D01*
X150426096Y-71605982D01*
X150462319Y-71569760D01*
X150523642Y-71536275D01*
X150593334Y-71541259D01*
X150637681Y-71569760D01*
X150689707Y-71621786D01*
X150689711Y-71621789D01*
X150820814Y-71709390D01*
X150820827Y-71709397D01*
X150966498Y-71769735D01*
X150966503Y-71769737D01*
X151121153Y-71800499D01*
X151121156Y-71800500D01*
X151121158Y-71800500D01*
X151278844Y-71800500D01*
X151278845Y-71800499D01*
X151433497Y-71769737D01*
X151579179Y-71709394D01*
X151710289Y-71621789D01*
X151812320Y-71519757D01*
X151873641Y-71486274D01*
X151943333Y-71491258D01*
X151984939Y-71517999D01*
X151985001Y-71517924D01*
X151985647Y-71518454D01*
X151987688Y-71519766D01*
X151989711Y-71521789D01*
X152120814Y-71609390D01*
X152120827Y-71609397D01*
X152266498Y-71669735D01*
X152266503Y-71669737D01*
X152421153Y-71700499D01*
X152421156Y-71700500D01*
X152421158Y-71700500D01*
X152578844Y-71700500D01*
X152578845Y-71700499D01*
X152733497Y-71669737D01*
X152879179Y-71609394D01*
X153010289Y-71521789D01*
X153121789Y-71410289D01*
X153209394Y-71279179D01*
X153269737Y-71133497D01*
X153300500Y-70978842D01*
X153300500Y-70821158D01*
X153300500Y-70821155D01*
X153284174Y-70739081D01*
X153284174Y-70739080D01*
X153269738Y-70666510D01*
X153269737Y-70666503D01*
X153237929Y-70589711D01*
X153209397Y-70520827D01*
X153209390Y-70520814D01*
X153121789Y-70389711D01*
X153121786Y-70389707D01*
X153010292Y-70278213D01*
X153010288Y-70278210D01*
X152879185Y-70190609D01*
X152879172Y-70190602D01*
X152733501Y-70130264D01*
X152733489Y-70130261D01*
X152578845Y-70099500D01*
X152578842Y-70099500D01*
X152421158Y-70099500D01*
X152421155Y-70099500D01*
X152266510Y-70130261D01*
X152266498Y-70130264D01*
X152120827Y-70190602D01*
X152120814Y-70190609D01*
X151989711Y-70278210D01*
X151887680Y-70380241D01*
X151826357Y-70413725D01*
X151756665Y-70408741D01*
X151715060Y-70382000D01*
X151714999Y-70382076D01*
X151714350Y-70381544D01*
X151712311Y-70380233D01*
X151710288Y-70378210D01*
X151579185Y-70290609D01*
X151579172Y-70290602D01*
X151433501Y-70230264D01*
X151433489Y-70230261D01*
X151278845Y-70199500D01*
X151278842Y-70199500D01*
X151121158Y-70199500D01*
X151121155Y-70199500D01*
X150966510Y-70230261D01*
X150966498Y-70230264D01*
X150820827Y-70290602D01*
X150820814Y-70290609D01*
X150689711Y-70378210D01*
X150689707Y-70378213D01*
X150637681Y-70430240D01*
X150576358Y-70463725D01*
X150506666Y-70458741D01*
X150462319Y-70430240D01*
X150410292Y-70378213D01*
X150410288Y-70378210D01*
X150279185Y-70290609D01*
X150279172Y-70290602D01*
X150133501Y-70230264D01*
X150133489Y-70230261D01*
X149978845Y-70199500D01*
X149978842Y-70199500D01*
X149821158Y-70199500D01*
X149821155Y-70199500D01*
X149666510Y-70230261D01*
X149666498Y-70230264D01*
X149520827Y-70290602D01*
X149520814Y-70290609D01*
X149389711Y-70378210D01*
X149389707Y-70378213D01*
X149337681Y-70430240D01*
X149276358Y-70463725D01*
X149206666Y-70458741D01*
X149162319Y-70430240D01*
X149110292Y-70378213D01*
X149110288Y-70378210D01*
X148979185Y-70290609D01*
X148979172Y-70290602D01*
X148833501Y-70230264D01*
X148833489Y-70230261D01*
X148678845Y-70199500D01*
X148678842Y-70199500D01*
X148521158Y-70199500D01*
X148521155Y-70199500D01*
X148366510Y-70230261D01*
X148366498Y-70230264D01*
X148220827Y-70290602D01*
X148220814Y-70290609D01*
X148089711Y-70378210D01*
X148089707Y-70378213D01*
X148037681Y-70430240D01*
X147976358Y-70463725D01*
X147906666Y-70458741D01*
X147862319Y-70430240D01*
X147810292Y-70378213D01*
X147810288Y-70378210D01*
X147679185Y-70290609D01*
X147679172Y-70290602D01*
X147533501Y-70230264D01*
X147533489Y-70230261D01*
X147378845Y-70199500D01*
X147378842Y-70199500D01*
X147221158Y-70199500D01*
X147221155Y-70199500D01*
X147066510Y-70230261D01*
X147066498Y-70230264D01*
X146920827Y-70290602D01*
X146920814Y-70290609D01*
X146789711Y-70378210D01*
X146789707Y-70378213D01*
X146678213Y-70489707D01*
X146678210Y-70489711D01*
X146590609Y-70620814D01*
X146590602Y-70620827D01*
X146530264Y-70766498D01*
X146530261Y-70766510D01*
X146499500Y-70921153D01*
X145600500Y-70921153D01*
X145600500Y-70821158D01*
X145600500Y-70821155D01*
X145600499Y-70821153D01*
X145587529Y-70755948D01*
X145569737Y-70666503D01*
X145537929Y-70589711D01*
X145509397Y-70520827D01*
X145509390Y-70520814D01*
X145421789Y-70389711D01*
X145421786Y-70389707D01*
X145310292Y-70278213D01*
X145310288Y-70278210D01*
X145179185Y-70190609D01*
X145179172Y-70190602D01*
X145033501Y-70130264D01*
X145033489Y-70130261D01*
X144878845Y-70099500D01*
X144878842Y-70099500D01*
X144721158Y-70099500D01*
X144721155Y-70099500D01*
X144566510Y-70130261D01*
X144566498Y-70130264D01*
X144420827Y-70190602D01*
X144420814Y-70190609D01*
X144289711Y-70278210D01*
X144289707Y-70278213D01*
X144237681Y-70330240D01*
X144176358Y-70363725D01*
X144106666Y-70358741D01*
X144062319Y-70330240D01*
X144010292Y-70278213D01*
X144010288Y-70278210D01*
X143879185Y-70190609D01*
X143879172Y-70190602D01*
X143733501Y-70130264D01*
X143733489Y-70130261D01*
X143578845Y-70099500D01*
X143578842Y-70099500D01*
X143421158Y-70099500D01*
X143421155Y-70099500D01*
X143266510Y-70130261D01*
X143266498Y-70130264D01*
X143120827Y-70190602D01*
X143120814Y-70190609D01*
X142989711Y-70278210D01*
X142989707Y-70278213D01*
X142873903Y-70394018D01*
X142872981Y-70393096D01*
X142820782Y-70428642D01*
X142750937Y-70430502D01*
X142713801Y-70413739D01*
X142679185Y-70390609D01*
X142679172Y-70390602D01*
X142533501Y-70330264D01*
X142533489Y-70330261D01*
X142378845Y-70299500D01*
X142378842Y-70299500D01*
X142221158Y-70299500D01*
X142221155Y-70299500D01*
X142066510Y-70330261D01*
X142066498Y-70330264D01*
X141920827Y-70390602D01*
X141920814Y-70390609D01*
X141789711Y-70478210D01*
X141789707Y-70478213D01*
X141678213Y-70589707D01*
X141678210Y-70589711D01*
X141590609Y-70720814D01*
X141590602Y-70720827D01*
X141530264Y-70866498D01*
X141530261Y-70866510D01*
X141499500Y-71021153D01*
X139953232Y-71021153D01*
X139910292Y-70978213D01*
X139910288Y-70978210D01*
X139779185Y-70890609D01*
X139779172Y-70890602D01*
X139633501Y-70830264D01*
X139633489Y-70830261D01*
X139478845Y-70799500D01*
X139478842Y-70799500D01*
X139321158Y-70799500D01*
X139321155Y-70799500D01*
X139166510Y-70830261D01*
X139166498Y-70830264D01*
X139020827Y-70890602D01*
X139020814Y-70890609D01*
X138889711Y-70978210D01*
X138889707Y-70978213D01*
X138778213Y-71089707D01*
X138778210Y-71089711D01*
X138690609Y-71220814D01*
X138690602Y-71220827D01*
X138630264Y-71366498D01*
X138630261Y-71366510D01*
X138599500Y-71521153D01*
X137824897Y-71521153D01*
X137779185Y-71490609D01*
X137779172Y-71490602D01*
X137633501Y-71430264D01*
X137633489Y-71430261D01*
X137478845Y-71399500D01*
X137478842Y-71399500D01*
X137321158Y-71399500D01*
X137321155Y-71399500D01*
X137166510Y-71430261D01*
X137166498Y-71430264D01*
X137020827Y-71490602D01*
X137020814Y-71490609D01*
X136889711Y-71578210D01*
X136889707Y-71578213D01*
X136778213Y-71689707D01*
X136778210Y-71689711D01*
X136690609Y-71820814D01*
X136690602Y-71820827D01*
X136630264Y-71966498D01*
X136630261Y-71966510D01*
X136599500Y-72121153D01*
X128775500Y-72121153D01*
X128775500Y-69122110D01*
X130275000Y-69122110D01*
X130275000Y-69377889D01*
X130315013Y-69630523D01*
X130394051Y-69873781D01*
X130394052Y-69873784D01*
X130510175Y-70101686D01*
X130587850Y-70208595D01*
X130587850Y-70208596D01*
X131298958Y-69497488D01*
X131323978Y-69557890D01*
X131395112Y-69664351D01*
X131485649Y-69754888D01*
X131592110Y-69826022D01*
X131652510Y-69851041D01*
X130941402Y-70562148D01*
X131048313Y-70639824D01*
X131276215Y-70755947D01*
X131276218Y-70755948D01*
X131519476Y-70834986D01*
X131772111Y-70875000D01*
X132027889Y-70875000D01*
X132280523Y-70834986D01*
X132523781Y-70755948D01*
X132523784Y-70755947D01*
X132751685Y-70639825D01*
X132858595Y-70562148D01*
X132858596Y-70562148D01*
X132147488Y-69851041D01*
X132207890Y-69826022D01*
X132314351Y-69754888D01*
X132404888Y-69664351D01*
X132476022Y-69557890D01*
X132501041Y-69497489D01*
X133212148Y-70208596D01*
X133212148Y-70208595D01*
X133289825Y-70101685D01*
X133405947Y-69873784D01*
X133405948Y-69873781D01*
X133484986Y-69630523D01*
X133525000Y-69377889D01*
X133525000Y-69322110D01*
X160975000Y-69322110D01*
X160975000Y-69577889D01*
X161015013Y-69830523D01*
X161094051Y-70073781D01*
X161094052Y-70073784D01*
X161210175Y-70301686D01*
X161287850Y-70408595D01*
X161287850Y-70408596D01*
X161998958Y-69697488D01*
X162023978Y-69757890D01*
X162095112Y-69864351D01*
X162185649Y-69954888D01*
X162292110Y-70026022D01*
X162352510Y-70051041D01*
X161641402Y-70762148D01*
X161748313Y-70839824D01*
X161976215Y-70955947D01*
X161976218Y-70955948D01*
X162219476Y-71034986D01*
X162472111Y-71075000D01*
X162727889Y-71075000D01*
X162980523Y-71034986D01*
X163223781Y-70955948D01*
X163223784Y-70955947D01*
X163451685Y-70839825D01*
X163558595Y-70762148D01*
X163558596Y-70762148D01*
X162847488Y-70051041D01*
X162907890Y-70026022D01*
X163014351Y-69954888D01*
X163104888Y-69864351D01*
X163176022Y-69757890D01*
X163201041Y-69697489D01*
X163912148Y-70408596D01*
X163912148Y-70408595D01*
X163989825Y-70301685D01*
X164105947Y-70073784D01*
X164105948Y-70073781D01*
X164184986Y-69830523D01*
X164225000Y-69577889D01*
X164225000Y-69322110D01*
X164184986Y-69069476D01*
X164105948Y-68826218D01*
X164105947Y-68826215D01*
X163989824Y-68598313D01*
X163912148Y-68491403D01*
X163912148Y-68491402D01*
X163201041Y-69202510D01*
X163176022Y-69142110D01*
X163104888Y-69035649D01*
X163014351Y-68945112D01*
X162907890Y-68873978D01*
X162847487Y-68848957D01*
X163558596Y-68137850D01*
X163451686Y-68060175D01*
X163223784Y-67944052D01*
X163223781Y-67944051D01*
X162980523Y-67865013D01*
X162727889Y-67825000D01*
X162472111Y-67825000D01*
X162219476Y-67865013D01*
X161976218Y-67944051D01*
X161976215Y-67944052D01*
X161748310Y-68060177D01*
X161641403Y-68137849D01*
X161641402Y-68137850D01*
X162352511Y-68848958D01*
X162292110Y-68873978D01*
X162185649Y-68945112D01*
X162095112Y-69035649D01*
X162023978Y-69142110D01*
X161998958Y-69202511D01*
X161287850Y-68491402D01*
X161287849Y-68491403D01*
X161210177Y-68598310D01*
X161094052Y-68826215D01*
X161094051Y-68826218D01*
X161015013Y-69069476D01*
X160975000Y-69322110D01*
X133525000Y-69322110D01*
X133525000Y-69122110D01*
X133484986Y-68869476D01*
X133405948Y-68626218D01*
X133405947Y-68626215D01*
X133289824Y-68398313D01*
X133212148Y-68291403D01*
X133212148Y-68291402D01*
X132501041Y-69002510D01*
X132476022Y-68942110D01*
X132404888Y-68835649D01*
X132314351Y-68745112D01*
X132207890Y-68673978D01*
X132147487Y-68648957D01*
X132858596Y-67937850D01*
X132751686Y-67860175D01*
X132523784Y-67744052D01*
X132523781Y-67744051D01*
X132280523Y-67665013D01*
X132027889Y-67625000D01*
X131772111Y-67625000D01*
X131519476Y-67665013D01*
X131276218Y-67744051D01*
X131276215Y-67744052D01*
X131048310Y-67860177D01*
X130941403Y-67937849D01*
X130941402Y-67937850D01*
X131652511Y-68648958D01*
X131592110Y-68673978D01*
X131485649Y-68745112D01*
X131395112Y-68835649D01*
X131323978Y-68942110D01*
X131298958Y-69002511D01*
X130587850Y-68291402D01*
X130587849Y-68291403D01*
X130510177Y-68398310D01*
X130394052Y-68626215D01*
X130394051Y-68626218D01*
X130315013Y-68869476D01*
X130275000Y-69122110D01*
X128775500Y-69122110D01*
X128775500Y-61577135D01*
X130274500Y-61577135D01*
X130274500Y-63922870D01*
X130274501Y-63922876D01*
X130280908Y-63982483D01*
X130331202Y-64117328D01*
X130331206Y-64117335D01*
X130417452Y-64232544D01*
X130417455Y-64232547D01*
X130532664Y-64318793D01*
X130532671Y-64318797D01*
X130667517Y-64369091D01*
X130667516Y-64369091D01*
X130673507Y-64369735D01*
X130727127Y-64375500D01*
X133072872Y-64375499D01*
X133132483Y-64369091D01*
X133267331Y-64318796D01*
X133382546Y-64232546D01*
X133468796Y-64117331D01*
X133519091Y-63982483D01*
X133525500Y-63922873D01*
X133525499Y-61577128D01*
X133519091Y-61517517D01*
X133468796Y-61382669D01*
X133468795Y-61382668D01*
X133468793Y-61382664D01*
X133382547Y-61267455D01*
X133382544Y-61267452D01*
X133267335Y-61181206D01*
X133267328Y-61181202D01*
X133132482Y-61130908D01*
X133132483Y-61130908D01*
X133072883Y-61124501D01*
X133072881Y-61124500D01*
X133072873Y-61124500D01*
X133072864Y-61124500D01*
X130727129Y-61124500D01*
X130727123Y-61124501D01*
X130667516Y-61130908D01*
X130532671Y-61181202D01*
X130532664Y-61181206D01*
X130417455Y-61267452D01*
X130417452Y-61267455D01*
X130331206Y-61382664D01*
X130331202Y-61382671D01*
X130280908Y-61517517D01*
X130274501Y-61577116D01*
X130274501Y-61577123D01*
X130274500Y-61577135D01*
X128775500Y-61577135D01*
X128775500Y-60321153D01*
X133699500Y-60321153D01*
X133699500Y-60478846D01*
X133730261Y-60633489D01*
X133730264Y-60633501D01*
X133790602Y-60779172D01*
X133790609Y-60779185D01*
X133878210Y-60910288D01*
X133878213Y-60910292D01*
X133989707Y-61021786D01*
X133989711Y-61021789D01*
X134120814Y-61109390D01*
X134120827Y-61109397D01*
X134189112Y-61137681D01*
X134266503Y-61169737D01*
X134421153Y-61200499D01*
X134421156Y-61200500D01*
X134421158Y-61200500D01*
X134578844Y-61200500D01*
X134578845Y-61200499D01*
X134733497Y-61169737D01*
X134846166Y-61123067D01*
X134879172Y-61109397D01*
X134879172Y-61109396D01*
X134879179Y-61109394D01*
X135010289Y-61021789D01*
X135121789Y-60910289D01*
X135129145Y-60899279D01*
X135146898Y-60872712D01*
X135166686Y-60856173D01*
X135183719Y-60836803D01*
X135193057Y-60834134D01*
X135200510Y-60827906D01*
X135226100Y-60824691D01*
X135250900Y-60817605D01*
X135260199Y-60820409D01*
X135269835Y-60819199D01*
X135293099Y-60830329D01*
X135317795Y-60837776D01*
X135326342Y-60846234D01*
X135332862Y-60849353D01*
X135344300Y-60861081D01*
X135349041Y-60866634D01*
X135378211Y-60910289D01*
X135433691Y-60965769D01*
X135436859Y-60969479D01*
X135449230Y-60997096D01*
X135463725Y-61023642D01*
X135463366Y-61028655D01*
X135465422Y-61033244D01*
X135460898Y-61063160D01*
X135458741Y-61093334D01*
X135455597Y-61098225D01*
X135454977Y-61102328D01*
X135447483Y-61110849D01*
X135430240Y-61137681D01*
X135378213Y-61189707D01*
X135378210Y-61189711D01*
X135290609Y-61320814D01*
X135290602Y-61320827D01*
X135230264Y-61466498D01*
X135230261Y-61466510D01*
X135199500Y-61621153D01*
X135199500Y-61778846D01*
X135230261Y-61933489D01*
X135230264Y-61933501D01*
X135290602Y-62079172D01*
X135290609Y-62079185D01*
X135378210Y-62210288D01*
X135378213Y-62210292D01*
X135480240Y-62312319D01*
X135513725Y-62373642D01*
X135508741Y-62443334D01*
X135480240Y-62487681D01*
X135378213Y-62589707D01*
X135378210Y-62589711D01*
X135290609Y-62720814D01*
X135290602Y-62720827D01*
X135230264Y-62866498D01*
X135230261Y-62866510D01*
X135199500Y-63021153D01*
X135199500Y-63178846D01*
X135230261Y-63333489D01*
X135230264Y-63333501D01*
X135290602Y-63479172D01*
X135290609Y-63479185D01*
X135378210Y-63610288D01*
X135378213Y-63610292D01*
X135480240Y-63712319D01*
X135513725Y-63773642D01*
X135508741Y-63843334D01*
X135481999Y-63884947D01*
X135482072Y-63885007D01*
X135481559Y-63885630D01*
X135480247Y-63887674D01*
X135478215Y-63889706D01*
X135478208Y-63889714D01*
X135390609Y-64020814D01*
X135390602Y-64020827D01*
X135330264Y-64166498D01*
X135330261Y-64166510D01*
X135299500Y-64321153D01*
X135299500Y-64478846D01*
X135330261Y-64633489D01*
X135332031Y-64639324D01*
X135329279Y-64640158D01*
X135335503Y-64697359D01*
X135304309Y-64759878D01*
X135244266Y-64795608D01*
X135213445Y-64799500D01*
X135121155Y-64799500D01*
X134966510Y-64830261D01*
X134966498Y-64830264D01*
X134820827Y-64890602D01*
X134820814Y-64890609D01*
X134689711Y-64978210D01*
X134689707Y-64978213D01*
X134578213Y-65089707D01*
X134578210Y-65089711D01*
X134490609Y-65220814D01*
X134490602Y-65220827D01*
X134430264Y-65366498D01*
X134430261Y-65366510D01*
X134399500Y-65521153D01*
X134399500Y-65678846D01*
X134430261Y-65833489D01*
X134430264Y-65833501D01*
X134490602Y-65979172D01*
X134490609Y-65979185D01*
X134578210Y-66110288D01*
X134578213Y-66110292D01*
X134689707Y-66221786D01*
X134689711Y-66221789D01*
X134820814Y-66309390D01*
X134820827Y-66309397D01*
X134966498Y-66369735D01*
X134966503Y-66369737D01*
X135121153Y-66400499D01*
X135121156Y-66400500D01*
X135121158Y-66400500D01*
X135278844Y-66400500D01*
X135278845Y-66400499D01*
X135433497Y-66369737D01*
X135579179Y-66309394D01*
X135710289Y-66221789D01*
X135821789Y-66110289D01*
X135909394Y-65979179D01*
X135969737Y-65833497D01*
X136000500Y-65678842D01*
X136000500Y-65521158D01*
X136000500Y-65521155D01*
X136000499Y-65521153D01*
X135969738Y-65366510D01*
X135969737Y-65366503D01*
X135969732Y-65366492D01*
X135967969Y-65360676D01*
X135970720Y-65359841D01*
X135964497Y-65302641D01*
X135995691Y-65240122D01*
X136055734Y-65204392D01*
X136086555Y-65200500D01*
X136178844Y-65200500D01*
X136178845Y-65200499D01*
X136333497Y-65169737D01*
X136479179Y-65109394D01*
X136610289Y-65021789D01*
X136721789Y-64910289D01*
X136809394Y-64779179D01*
X136869737Y-64633497D01*
X136900500Y-64478842D01*
X136900500Y-64321158D01*
X136900500Y-64321155D01*
X136900499Y-64321153D01*
X136880734Y-64221789D01*
X136869737Y-64166503D01*
X136849371Y-64117335D01*
X136809397Y-64020827D01*
X136809390Y-64020814D01*
X136721789Y-63889711D01*
X136721786Y-63889707D01*
X136619759Y-63787680D01*
X136586274Y-63726357D01*
X136591258Y-63656665D01*
X136603756Y-63631988D01*
X136610745Y-63621332D01*
X136621789Y-63610289D01*
X136681348Y-63521153D01*
X157499500Y-63521153D01*
X157499500Y-63678846D01*
X157530261Y-63833489D01*
X157530264Y-63833501D01*
X157590602Y-63979172D01*
X157590609Y-63979185D01*
X157678210Y-64110288D01*
X157678213Y-64110292D01*
X157789707Y-64221786D01*
X157789711Y-64221789D01*
X157920814Y-64309390D01*
X157920827Y-64309397D01*
X158064943Y-64369091D01*
X158066503Y-64369737D01*
X158221153Y-64400499D01*
X158221156Y-64400500D01*
X158221158Y-64400500D01*
X158378844Y-64400500D01*
X158378845Y-64400499D01*
X158533497Y-64369737D01*
X158660017Y-64317331D01*
X158679172Y-64309397D01*
X158679172Y-64309396D01*
X158679179Y-64309394D01*
X158810289Y-64221789D01*
X158921789Y-64110289D01*
X159009394Y-63979179D01*
X159069737Y-63833497D01*
X159100500Y-63678842D01*
X159100500Y-63521158D01*
X159100500Y-63521155D01*
X159100499Y-63521153D01*
X159069738Y-63366510D01*
X159069737Y-63366503D01*
X159056062Y-63333489D01*
X159009397Y-63220827D01*
X159009390Y-63220814D01*
X158921789Y-63089711D01*
X158921786Y-63089707D01*
X158810292Y-62978213D01*
X158810288Y-62978210D01*
X158679185Y-62890609D01*
X158679172Y-62890602D01*
X158533501Y-62830264D01*
X158533489Y-62830261D01*
X158378845Y-62799500D01*
X158378842Y-62799500D01*
X158221158Y-62799500D01*
X158221155Y-62799500D01*
X158066510Y-62830261D01*
X158066498Y-62830264D01*
X157920827Y-62890602D01*
X157920814Y-62890609D01*
X157789711Y-62978210D01*
X157789707Y-62978213D01*
X157678213Y-63089707D01*
X157678210Y-63089711D01*
X157590609Y-63220814D01*
X157590602Y-63220827D01*
X157530264Y-63366498D01*
X157530261Y-63366510D01*
X157499500Y-63521153D01*
X136681348Y-63521153D01*
X136709394Y-63479179D01*
X136769737Y-63333497D01*
X136800500Y-63178842D01*
X136800500Y-63021158D01*
X136800500Y-63021155D01*
X136800499Y-63021153D01*
X136774531Y-62890606D01*
X136769737Y-62866503D01*
X136769735Y-62866498D01*
X136709397Y-62720827D01*
X136709390Y-62720814D01*
X136621789Y-62589711D01*
X136621786Y-62589707D01*
X136519760Y-62487681D01*
X136486275Y-62426358D01*
X136491259Y-62356666D01*
X136519760Y-62312319D01*
X136621786Y-62210292D01*
X136621789Y-62210289D01*
X136709394Y-62079179D01*
X136769737Y-61933497D01*
X136800500Y-61778842D01*
X136800500Y-61777135D01*
X160974500Y-61777135D01*
X160974500Y-64122870D01*
X160974501Y-64122876D01*
X160980908Y-64182483D01*
X161031202Y-64317328D01*
X161031206Y-64317335D01*
X161117452Y-64432544D01*
X161117455Y-64432547D01*
X161232664Y-64518793D01*
X161232671Y-64518797D01*
X161367517Y-64569091D01*
X161367516Y-64569091D01*
X161374444Y-64569835D01*
X161427127Y-64575500D01*
X163772872Y-64575499D01*
X163832483Y-64569091D01*
X163967331Y-64518796D01*
X164082546Y-64432546D01*
X164168796Y-64317331D01*
X164219091Y-64182483D01*
X164225500Y-64122873D01*
X164225499Y-61777128D01*
X164219091Y-61717517D01*
X164183151Y-61621158D01*
X164168797Y-61582671D01*
X164168793Y-61582664D01*
X164082547Y-61467455D01*
X164082544Y-61467452D01*
X163967335Y-61381206D01*
X163967328Y-61381202D01*
X163832482Y-61330908D01*
X163832483Y-61330908D01*
X163772883Y-61324501D01*
X163772881Y-61324500D01*
X163772873Y-61324500D01*
X163772864Y-61324500D01*
X161427129Y-61324500D01*
X161427123Y-61324501D01*
X161367516Y-61330908D01*
X161232671Y-61381202D01*
X161232664Y-61381206D01*
X161117455Y-61467452D01*
X161117452Y-61467455D01*
X161031206Y-61582664D01*
X161031202Y-61582671D01*
X160980908Y-61717517D01*
X160974501Y-61777116D01*
X160974501Y-61777123D01*
X160974500Y-61777135D01*
X136800500Y-61777135D01*
X136800500Y-61621158D01*
X136800500Y-61621155D01*
X136800499Y-61621153D01*
X136769926Y-61467454D01*
X136769737Y-61466503D01*
X136734406Y-61381206D01*
X136709397Y-61320827D01*
X136709390Y-61320814D01*
X136621789Y-61189711D01*
X136621786Y-61189707D01*
X136569760Y-61137681D01*
X136536275Y-61076358D01*
X136541259Y-61006666D01*
X136569760Y-60962319D01*
X136621786Y-60910292D01*
X136621789Y-60910289D01*
X136709394Y-60779179D01*
X136769737Y-60633497D01*
X136800500Y-60478842D01*
X136800500Y-60321158D01*
X136800500Y-60321155D01*
X136800499Y-60321153D01*
X136769738Y-60166510D01*
X136769737Y-60166503D01*
X136750000Y-60118853D01*
X136709397Y-60020827D01*
X136709390Y-60020814D01*
X136621789Y-59889711D01*
X136621786Y-59889707D01*
X136510292Y-59778213D01*
X136510288Y-59778210D01*
X136379185Y-59690609D01*
X136379172Y-59690602D01*
X136233501Y-59630264D01*
X136233489Y-59630261D01*
X136078845Y-59599500D01*
X136078842Y-59599500D01*
X135921158Y-59599500D01*
X135921155Y-59599500D01*
X135766510Y-59630261D01*
X135766498Y-59630264D01*
X135620827Y-59690602D01*
X135620814Y-59690609D01*
X135489711Y-59778210D01*
X135489707Y-59778213D01*
X135378213Y-59889707D01*
X135353102Y-59927289D01*
X135299489Y-59972093D01*
X135230164Y-59980800D01*
X135167137Y-59950645D01*
X135146898Y-59927289D01*
X135121786Y-59889707D01*
X135010292Y-59778213D01*
X135010288Y-59778210D01*
X134879185Y-59690609D01*
X134879172Y-59690602D01*
X134733501Y-59630264D01*
X134733489Y-59630261D01*
X134578845Y-59599500D01*
X134578842Y-59599500D01*
X134421158Y-59599500D01*
X134421155Y-59599500D01*
X134266510Y-59630261D01*
X134266498Y-59630264D01*
X134120827Y-59690602D01*
X134120814Y-59690609D01*
X133989711Y-59778210D01*
X133989707Y-59778213D01*
X133878213Y-59889707D01*
X133878210Y-59889711D01*
X133790609Y-60020814D01*
X133790602Y-60020827D01*
X133730264Y-60166498D01*
X133730261Y-60166510D01*
X133699500Y-60321153D01*
X128775500Y-60321153D01*
X128775500Y-57901153D01*
X138679500Y-57901153D01*
X138679500Y-58058846D01*
X138710261Y-58213489D01*
X138710264Y-58213501D01*
X138770602Y-58359172D01*
X138770609Y-58359185D01*
X138858210Y-58490288D01*
X138858213Y-58490292D01*
X138969707Y-58601786D01*
X138969711Y-58601789D01*
X139100814Y-58689390D01*
X139100827Y-58689397D01*
X139246498Y-58749735D01*
X139246503Y-58749737D01*
X139401153Y-58780499D01*
X139401156Y-58780500D01*
X139401158Y-58780500D01*
X139558844Y-58780500D01*
X139558845Y-58780499D01*
X139713497Y-58749737D01*
X139859179Y-58689394D01*
X139990289Y-58601789D01*
X140101789Y-58490289D01*
X140189394Y-58359179D01*
X140249737Y-58213497D01*
X140280500Y-58058842D01*
X140280500Y-57901158D01*
X140280500Y-57901155D01*
X140280499Y-57901153D01*
X140249738Y-57746510D01*
X140249737Y-57746503D01*
X140249735Y-57746498D01*
X140189397Y-57600827D01*
X140189390Y-57600814D01*
X140102482Y-57470747D01*
X140081604Y-57404069D01*
X140100089Y-57336689D01*
X140117899Y-57314178D01*
X140221789Y-57210289D01*
X140309394Y-57079179D01*
X140369737Y-56933497D01*
X140400500Y-56778842D01*
X140400500Y-56621158D01*
X140400500Y-56621155D01*
X140400499Y-56621153D01*
X140369738Y-56466510D01*
X140369737Y-56466503D01*
X140345111Y-56407049D01*
X140309397Y-56320827D01*
X140309390Y-56320814D01*
X140221789Y-56189711D01*
X140219766Y-56187688D01*
X140219043Y-56186365D01*
X140217924Y-56185001D01*
X140218182Y-56184788D01*
X140186276Y-56126368D01*
X140191255Y-56056676D01*
X140219757Y-56012320D01*
X140321789Y-55910289D01*
X140409394Y-55779179D01*
X140469737Y-55633497D01*
X140500500Y-55478842D01*
X140500500Y-55321158D01*
X140500500Y-55321155D01*
X140500499Y-55321153D01*
X140469738Y-55166510D01*
X140469737Y-55166503D01*
X140469735Y-55166498D01*
X140409397Y-55020827D01*
X140409390Y-55020814D01*
X140321789Y-54889711D01*
X140321786Y-54889707D01*
X140210292Y-54778213D01*
X140210288Y-54778210D01*
X140079185Y-54690609D01*
X140079172Y-54690602D01*
X139933501Y-54630264D01*
X139933489Y-54630261D01*
X139778845Y-54599500D01*
X139778842Y-54599500D01*
X139621158Y-54599500D01*
X139621155Y-54599500D01*
X139466510Y-54630261D01*
X139466498Y-54630264D01*
X139320827Y-54690602D01*
X139320814Y-54690609D01*
X139189711Y-54778210D01*
X139189707Y-54778213D01*
X139078213Y-54889707D01*
X139078210Y-54889711D01*
X138990609Y-55020814D01*
X138990602Y-55020827D01*
X138930264Y-55166498D01*
X138930261Y-55166510D01*
X138899500Y-55321153D01*
X138899500Y-55478846D01*
X138930261Y-55633489D01*
X138930264Y-55633501D01*
X138990602Y-55779172D01*
X138990609Y-55779185D01*
X139078210Y-55910288D01*
X139080233Y-55912311D01*
X139080955Y-55913633D01*
X139082076Y-55914999D01*
X139081817Y-55915211D01*
X139113723Y-55973631D01*
X139108744Y-56043323D01*
X139080241Y-56087680D01*
X138978210Y-56189711D01*
X138890609Y-56320814D01*
X138890602Y-56320827D01*
X138830264Y-56466498D01*
X138830261Y-56466510D01*
X138799500Y-56621153D01*
X138799500Y-56778846D01*
X138830261Y-56933489D01*
X138830264Y-56933501D01*
X138890602Y-57079172D01*
X138890609Y-57079185D01*
X138977517Y-57209252D01*
X138998395Y-57275930D01*
X138979910Y-57343310D01*
X138962097Y-57365824D01*
X138858210Y-57469711D01*
X138770609Y-57600814D01*
X138770602Y-57600827D01*
X138710264Y-57746498D01*
X138710261Y-57746510D01*
X138679500Y-57901153D01*
X128775500Y-57901153D01*
X128775500Y-55321153D01*
X132499500Y-55321153D01*
X132499500Y-55478846D01*
X132530261Y-55633489D01*
X132530264Y-55633501D01*
X132590602Y-55779172D01*
X132590609Y-55779185D01*
X132678210Y-55910288D01*
X132678213Y-55910292D01*
X132789707Y-56021786D01*
X132789711Y-56021789D01*
X132920814Y-56109390D01*
X132920827Y-56109397D01*
X133066498Y-56169735D01*
X133066503Y-56169737D01*
X133221153Y-56200499D01*
X133221156Y-56200500D01*
X133221158Y-56200500D01*
X133378844Y-56200500D01*
X133378845Y-56200499D01*
X133533497Y-56169737D01*
X133679179Y-56109394D01*
X133810289Y-56021789D01*
X133921789Y-55910289D01*
X134009394Y-55779179D01*
X134069737Y-55633497D01*
X134100500Y-55478842D01*
X134100500Y-55321158D01*
X134100500Y-55321155D01*
X134100499Y-55321153D01*
X134069738Y-55166510D01*
X134069737Y-55166503D01*
X134069735Y-55166498D01*
X134009397Y-55020827D01*
X134009390Y-55020814D01*
X133921789Y-54889711D01*
X133921786Y-54889707D01*
X133810292Y-54778213D01*
X133810288Y-54778210D01*
X133679185Y-54690609D01*
X133679172Y-54690602D01*
X133533501Y-54630264D01*
X133533489Y-54630261D01*
X133378845Y-54599500D01*
X133378842Y-54599500D01*
X133221158Y-54599500D01*
X133221155Y-54599500D01*
X133066510Y-54630261D01*
X133066498Y-54630264D01*
X132920827Y-54690602D01*
X132920814Y-54690609D01*
X132789711Y-54778210D01*
X132789707Y-54778213D01*
X132678213Y-54889707D01*
X132678210Y-54889711D01*
X132590609Y-55020814D01*
X132590602Y-55020827D01*
X132530264Y-55166498D01*
X132530261Y-55166510D01*
X132499500Y-55321153D01*
X128775500Y-55321153D01*
X128775500Y-52461153D01*
X132499500Y-52461153D01*
X132499500Y-52618846D01*
X132530261Y-52773489D01*
X132530264Y-52773501D01*
X132590602Y-52919172D01*
X132590609Y-52919185D01*
X132678210Y-53050288D01*
X132678213Y-53050292D01*
X132789707Y-53161786D01*
X132789711Y-53161789D01*
X132920814Y-53249390D01*
X132920827Y-53249397D01*
X133042481Y-53299787D01*
X133066503Y-53309737D01*
X133221153Y-53340499D01*
X133221156Y-53340500D01*
X133221158Y-53340500D01*
X133378844Y-53340500D01*
X133378845Y-53340499D01*
X133533497Y-53309737D01*
X133679179Y-53249394D01*
X133810289Y-53161789D01*
X133921789Y-53050289D01*
X134009394Y-52919179D01*
X134049997Y-52821153D01*
X134999500Y-52821153D01*
X134999500Y-52978846D01*
X135030261Y-53133489D01*
X135030264Y-53133501D01*
X135090602Y-53279172D01*
X135090609Y-53279185D01*
X135178210Y-53410288D01*
X135178213Y-53410292D01*
X135289707Y-53521786D01*
X135289711Y-53521789D01*
X135420814Y-53609390D01*
X135420827Y-53609397D01*
X135566498Y-53669735D01*
X135566503Y-53669737D01*
X135721153Y-53700499D01*
X135721156Y-53700500D01*
X135721158Y-53700500D01*
X135878844Y-53700500D01*
X135878845Y-53700499D01*
X136033497Y-53669737D01*
X136102549Y-53641134D01*
X136172016Y-53633666D01*
X136197447Y-53641133D01*
X136266503Y-53669737D01*
X136421153Y-53700499D01*
X136421156Y-53700500D01*
X136421158Y-53700500D01*
X136578844Y-53700500D01*
X136578845Y-53700499D01*
X136733497Y-53669737D01*
X136879179Y-53609394D01*
X137010289Y-53521789D01*
X137121789Y-53410289D01*
X137209394Y-53279179D01*
X137269737Y-53133497D01*
X137300500Y-52978842D01*
X137300500Y-52821158D01*
X137300500Y-52821155D01*
X137300499Y-52821153D01*
X137291020Y-52773500D01*
X137269737Y-52666503D01*
X137249996Y-52618844D01*
X137209397Y-52520827D01*
X137209390Y-52520814D01*
X137121789Y-52389711D01*
X137121786Y-52389707D01*
X137010292Y-52278213D01*
X137010288Y-52278210D01*
X136879185Y-52190609D01*
X136879172Y-52190602D01*
X136733501Y-52130264D01*
X136733489Y-52130261D01*
X136578845Y-52099500D01*
X136578842Y-52099500D01*
X136421158Y-52099500D01*
X136421155Y-52099500D01*
X136266511Y-52130260D01*
X136266506Y-52130262D01*
X136266504Y-52130262D01*
X136266503Y-52130263D01*
X136197449Y-52158865D01*
X136127982Y-52166333D01*
X136102552Y-52158865D01*
X136033497Y-52130263D01*
X136033493Y-52130262D01*
X136033488Y-52130260D01*
X135878845Y-52099500D01*
X135878842Y-52099500D01*
X135721158Y-52099500D01*
X135721155Y-52099500D01*
X135566510Y-52130261D01*
X135566498Y-52130264D01*
X135420827Y-52190602D01*
X135420814Y-52190609D01*
X135289711Y-52278210D01*
X135289707Y-52278213D01*
X135178213Y-52389707D01*
X135178210Y-52389711D01*
X135090609Y-52520814D01*
X135090602Y-52520827D01*
X135030264Y-52666498D01*
X135030261Y-52666510D01*
X134999500Y-52821153D01*
X134049997Y-52821153D01*
X134069737Y-52773497D01*
X134100500Y-52618842D01*
X134100500Y-52461158D01*
X134100500Y-52461155D01*
X134100499Y-52461153D01*
X134069738Y-52306510D01*
X134069737Y-52306503D01*
X134065083Y-52295268D01*
X134009397Y-52160827D01*
X134009390Y-52160814D01*
X133921789Y-52029711D01*
X133921786Y-52029707D01*
X133810292Y-51918213D01*
X133810288Y-51918210D01*
X133679185Y-51830609D01*
X133679172Y-51830602D01*
X133533501Y-51770264D01*
X133533489Y-51770261D01*
X133378845Y-51739500D01*
X133378842Y-51739500D01*
X133221158Y-51739500D01*
X133221155Y-51739500D01*
X133066510Y-51770261D01*
X133066498Y-51770264D01*
X132920827Y-51830602D01*
X132920814Y-51830609D01*
X132789711Y-51918210D01*
X132789707Y-51918213D01*
X132678213Y-52029707D01*
X132678210Y-52029711D01*
X132590609Y-52160814D01*
X132590602Y-52160827D01*
X132530264Y-52306498D01*
X132530261Y-52306510D01*
X132499500Y-52461153D01*
X128775500Y-52461153D01*
X128775500Y-50744000D01*
X128795185Y-50676961D01*
X128847989Y-50631206D01*
X128899500Y-50620000D01*
X159452597Y-50620000D01*
X159519636Y-50639685D01*
G37*
%TD.AperFunction*%
%TD*%
M02*
