%TF.GenerationSoftware,KiCad,Pcbnew,9.0.2*%
%TF.CreationDate,2025-09-01T18:39:20-04:00*%
%TF.ProjectId,ABAD,41424144-2e6b-4696-9361-645f70636258,rev?*%
%TF.SameCoordinates,Original*%
%TF.FileFunction,Copper,L3,Inr*%
%TF.FilePolarity,Positive*%
%FSLAX46Y46*%
G04 Gerber Fmt 4.6, Leading zero omitted, Abs format (unit mm)*
G04 Created by KiCad (PCBNEW 9.0.2) date 2025-09-01 18:39:20*
%MOMM*%
%LPD*%
G01*
G04 APERTURE LIST*
G04 Aperture macros list*
%AMRoundRect*
0 Rectangle with rounded corners*
0 $1 Rounding radius*
0 $2 $3 $4 $5 $6 $7 $8 $9 X,Y pos of 4 corners*
0 Add a 4 corners polygon primitive as box body*
4,1,4,$2,$3,$4,$5,$6,$7,$8,$9,$2,$3,0*
0 Add four circle primitives for the rounded corners*
1,1,$1+$1,$2,$3*
1,1,$1+$1,$4,$5*
1,1,$1+$1,$6,$7*
1,1,$1+$1,$8,$9*
0 Add four rect primitives between the rounded corners*
20,1,$1+$1,$2,$3,$4,$5,0*
20,1,$1+$1,$4,$5,$6,$7,0*
20,1,$1+$1,$6,$7,$8,$9,0*
20,1,$1+$1,$8,$9,$2,$3,0*%
G04 Aperture macros list end*
%TA.AperFunction,ComponentPad*%
%ADD10R,2.250000X2.250000*%
%TD*%
%TA.AperFunction,ComponentPad*%
%ADD11C,2.250000*%
%TD*%
%TA.AperFunction,HeatsinkPad*%
%ADD12O,2.100000X1.000000*%
%TD*%
%TA.AperFunction,HeatsinkPad*%
%ADD13O,1.800000X1.000000*%
%TD*%
%TA.AperFunction,ComponentPad*%
%ADD14C,0.970000*%
%TD*%
%TA.AperFunction,ComponentPad*%
%ADD15C,6.400000*%
%TD*%
%TA.AperFunction,HeatsinkPad*%
%ADD16C,0.600000*%
%TD*%
%TA.AperFunction,ComponentPad*%
%ADD17C,0.500000*%
%TD*%
%TA.AperFunction,ComponentPad*%
%ADD18RoundRect,0.250000X1.000000X-1.000000X1.000000X1.000000X-1.000000X1.000000X-1.000000X-1.000000X0*%
%TD*%
%TA.AperFunction,ComponentPad*%
%ADD19C,2.500000*%
%TD*%
%TA.AperFunction,ViaPad*%
%ADD20C,0.600000*%
%TD*%
%TA.AperFunction,Conductor*%
%ADD21C,0.300000*%
%TD*%
G04 APERTURE END LIST*
D10*
%TO.N,/BOOT*%
%TO.C,RESET_SW2*%
X162600000Y-62950000D03*
D11*
%TO.N,GND*%
X162600000Y-69450000D03*
%TD*%
D12*
%TO.N,GND*%
%TO.C,J2*%
X135205000Y-87220000D03*
D13*
X131025000Y-87220000D03*
D12*
X135205000Y-95860000D03*
D13*
X131025000Y-95860000D03*
%TD*%
D14*
%TO.N,GND*%
%TO.C,J1*%
X137240000Y-120750000D03*
X146000000Y-120750000D03*
%TD*%
D10*
%TO.N,/EN_RST*%
%TO.C,RESET_SW1*%
X131900000Y-62750000D03*
D11*
%TO.N,GND*%
X131900000Y-69250000D03*
%TD*%
D15*
%TO.N,N/C*%
%TO.C,H2*%
X161100000Y-54200000D03*
%TD*%
%TO.N,N/C*%
%TO.C,H1*%
X131900000Y-124600000D03*
%TD*%
D16*
%TO.N,GND*%
%TO.C,U2*%
X143700000Y-58650000D03*
X143700000Y-60050000D03*
X144400000Y-57950000D03*
X144400000Y-59350000D03*
X144400000Y-60750000D03*
X145100000Y-58650000D03*
X145100000Y-60050000D03*
X145800000Y-57950000D03*
X145800000Y-59350000D03*
X145800000Y-60750000D03*
X146500000Y-58650000D03*
X146500000Y-60050000D03*
%TD*%
D17*
%TO.N,GND*%
%TO.C,U4*%
X134300000Y-103825000D03*
X135250000Y-104400000D03*
X133350000Y-104400000D03*
X134300000Y-104975000D03*
%TD*%
D18*
%TO.N,GND*%
%TO.C,J3*%
X132800000Y-116612500D03*
D19*
%TO.N,BATT_RAW+*%
X132800000Y-111612500D03*
%TD*%
D20*
%TO.N,GND*%
X138545000Y-119445000D03*
X130100000Y-55300000D03*
X135500000Y-97400000D03*
X137500000Y-97400000D03*
X136100000Y-51400000D03*
X129400000Y-106600000D03*
X157300000Y-51600000D03*
X131300000Y-108000000D03*
X136500000Y-97400000D03*
X130100000Y-56200000D03*
X130100000Y-54400000D03*
%TO.N,+3.3V*%
X143000000Y-98500000D03*
X135800000Y-52900000D03*
X136500000Y-52900000D03*
X159600000Y-78400000D03*
X150900000Y-74900000D03*
X136500000Y-106100000D03*
X156800000Y-106400000D03*
X158300000Y-63600000D03*
X133300000Y-55400000D03*
X148700000Y-103400000D03*
X156700000Y-103300000D03*
X141100000Y-100700000D03*
X151500000Y-105000000D03*
X133300000Y-52540000D03*
X137400000Y-72200000D03*
%TO.N,+BATT*%
X142000000Y-107437500D03*
X132000000Y-102000000D03*
%TO.N,VBUS*%
X141200000Y-97700000D03*
X142900000Y-115300000D03*
%TO.N,Net-(J2-CC1)*%
X137500000Y-90200000D03*
X137700000Y-88000000D03*
%TO.N,/RF_LED*%
X136200000Y-78200000D03*
X135200000Y-65600000D03*
%TO.N,/PPS_LED*%
X134500000Y-60400000D03*
X136200000Y-75800000D03*
%TO.N,/BARO_SDA*%
X139700000Y-55400000D03*
X158500000Y-75175000D03*
%TO.N,/BARO_SCL*%
X158500000Y-73925000D03*
X139600000Y-56700000D03*
%TO.N,/ACCEL_SDA*%
X136000000Y-60400000D03*
X145350000Y-103850000D03*
%TO.N,/ACCEL_SCL*%
X136000000Y-61700000D03*
X145200000Y-98900000D03*
%TO.N,/NRESET*%
X148600000Y-71000000D03*
X159400000Y-122700000D03*
%TO.N,/MOSI*%
X153400000Y-122700000D03*
X144800000Y-70900000D03*
%TO.N,/BUSY*%
X142300000Y-71100000D03*
X147100000Y-106700000D03*
%TO.N,/RF_INT*%
X159500000Y-107500000D03*
X152500000Y-70900000D03*
%TO.N,/ACCEL_INT*%
X151200000Y-71000000D03*
X155800000Y-105300000D03*
%TO.N,/NSS*%
X143500000Y-70900000D03*
X157400000Y-122700000D03*
%TO.N,/PPS*%
X139400000Y-71600000D03*
X145300000Y-94900000D03*
X139480000Y-57980000D03*
%TO.N,/GPS_RX*%
X145100000Y-82500000D03*
X136000000Y-63100000D03*
%TO.N,/SCLK*%
X155400000Y-122700000D03*
X145700000Y-77500000D03*
%TO.N,/GPS_TX*%
X145110000Y-84990000D03*
X136100000Y-64400000D03*
%TO.N,/MISO*%
X147300000Y-71000000D03*
X151400000Y-122700000D03*
%TO.N,/TXCO*%
X149900000Y-71000000D03*
X151400000Y-107300000D03*
%TD*%
D21*
%TO.N,/ACCEL_SDA*%
X136000000Y-60400000D02*
X136000000Y-55400000D01*
X137500000Y-53900000D02*
X140700000Y-53900000D01*
X148800000Y-87500000D02*
X148800000Y-100400000D01*
X141400000Y-54600000D02*
X141400000Y-80100000D01*
X140700000Y-53900000D02*
X141400000Y-54600000D01*
X141400000Y-80100000D02*
X148800000Y-87500000D01*
X136000000Y-55400000D02*
X137500000Y-53900000D01*
X148800000Y-100400000D02*
X145350000Y-103850000D01*
%TO.N,/ACCEL_SCL*%
X137000000Y-61700000D02*
X136000000Y-61700000D01*
X145951000Y-98149000D02*
X145951000Y-87851000D01*
X145200000Y-98900000D02*
X145951000Y-98149000D01*
X145951000Y-87851000D02*
X138749000Y-80649000D01*
X138749000Y-63449000D02*
X137000000Y-61700000D01*
X138749000Y-80649000D02*
X138749000Y-63449000D01*
%TO.N,/PPS*%
X139400000Y-58060000D02*
X139480000Y-57980000D01*
X139400000Y-71600000D02*
X139400000Y-58060000D01*
%TD*%
%TA.AperFunction,Conductor*%
%TO.N,+3.3V*%
G36*
X156999057Y-50607625D02*
G01*
X157010296Y-50606417D01*
X157031985Y-50617274D01*
X157055262Y-50624095D01*
X157062668Y-50632632D01*
X157072775Y-50637692D01*
X157085151Y-50658552D01*
X157101045Y-50676874D01*
X157102659Y-50688060D01*
X157108427Y-50697781D01*
X157107561Y-50722021D01*
X157111026Y-50746028D01*
X157106336Y-50756311D01*
X157105933Y-50767606D01*
X157092101Y-50787527D01*
X157082036Y-50809599D01*
X157071497Y-50817202D01*
X157066085Y-50824998D01*
X157035732Y-50843008D01*
X156920824Y-50890604D01*
X156920814Y-50890609D01*
X156789711Y-50978210D01*
X156789707Y-50978213D01*
X156678213Y-51089707D01*
X156678210Y-51089711D01*
X156590609Y-51220814D01*
X156590602Y-51220827D01*
X156530264Y-51366498D01*
X156530261Y-51366510D01*
X156499500Y-51521153D01*
X156499500Y-51678846D01*
X156530261Y-51833489D01*
X156530264Y-51833501D01*
X156590602Y-51979172D01*
X156590609Y-51979185D01*
X156678210Y-52110288D01*
X156678213Y-52110292D01*
X156789707Y-52221786D01*
X156789711Y-52221789D01*
X156920814Y-52309390D01*
X156920827Y-52309397D01*
X157066498Y-52369735D01*
X157066503Y-52369737D01*
X157221153Y-52400499D01*
X157221156Y-52400500D01*
X157221158Y-52400500D01*
X157378844Y-52400500D01*
X157378845Y-52400499D01*
X157533497Y-52369737D01*
X157661365Y-52316772D01*
X157730831Y-52309304D01*
X157793311Y-52340579D01*
X157828963Y-52400668D01*
X157826470Y-52470493D01*
X157818174Y-52489786D01*
X157750753Y-52615922D01*
X157611614Y-52951834D01*
X157506067Y-53299776D01*
X157506064Y-53299787D01*
X157435137Y-53656369D01*
X157423137Y-53778213D01*
X157399500Y-54018206D01*
X157399500Y-54381794D01*
X157402304Y-54410261D01*
X157435137Y-54743630D01*
X157506064Y-55100212D01*
X157506067Y-55100223D01*
X157611614Y-55448165D01*
X157750754Y-55784078D01*
X157750756Y-55784083D01*
X157922140Y-56104720D01*
X157922151Y-56104738D01*
X158124140Y-56407035D01*
X158124150Y-56407049D01*
X158354807Y-56688106D01*
X158611893Y-56945192D01*
X158611898Y-56945196D01*
X158611899Y-56945197D01*
X158892956Y-57175854D01*
X159195268Y-57377853D01*
X159195277Y-57377858D01*
X159195279Y-57377859D01*
X159515916Y-57549243D01*
X159515918Y-57549243D01*
X159515924Y-57549247D01*
X159851836Y-57688386D01*
X160199767Y-57793930D01*
X160199773Y-57793931D01*
X160199776Y-57793932D01*
X160199787Y-57793935D01*
X160556369Y-57864862D01*
X160918206Y-57900500D01*
X160918209Y-57900500D01*
X161281791Y-57900500D01*
X161281794Y-57900500D01*
X161643631Y-57864862D01*
X161713045Y-57851054D01*
X162000212Y-57793935D01*
X162000223Y-57793932D01*
X162000223Y-57793931D01*
X162000233Y-57793930D01*
X162348164Y-57688386D01*
X162684076Y-57549247D01*
X163004732Y-57377853D01*
X163307044Y-57175854D01*
X163588101Y-56945197D01*
X163845197Y-56688101D01*
X164075854Y-56407044D01*
X164277853Y-56104732D01*
X164416142Y-55846010D01*
X164465104Y-55796167D01*
X164533242Y-55780706D01*
X164598921Y-55804538D01*
X164641290Y-55860095D01*
X164649500Y-55904464D01*
X164649500Y-127845500D01*
X164629815Y-127912539D01*
X164577011Y-127958294D01*
X164525500Y-127969500D01*
X133926685Y-127969500D01*
X133859646Y-127949815D01*
X133813891Y-127897011D01*
X133803947Y-127827853D01*
X133832972Y-127764297D01*
X133857794Y-127742398D01*
X134107044Y-127575854D01*
X134388101Y-127345197D01*
X134645197Y-127088101D01*
X134875854Y-126807044D01*
X135077853Y-126504732D01*
X135249247Y-126184076D01*
X135388386Y-125848164D01*
X135493930Y-125500233D01*
X135493932Y-125500223D01*
X135493935Y-125500212D01*
X135564862Y-125143630D01*
X135600500Y-124781790D01*
X135600500Y-124418209D01*
X135564862Y-124056369D01*
X135493935Y-123699787D01*
X135493932Y-123699776D01*
X135493931Y-123699773D01*
X135493930Y-123699767D01*
X135388386Y-123351836D01*
X135249247Y-123015924D01*
X135077853Y-122695268D01*
X135028331Y-122621153D01*
X150599500Y-122621153D01*
X150599500Y-122778846D01*
X150630261Y-122933489D01*
X150630264Y-122933501D01*
X150690602Y-123079172D01*
X150690609Y-123079185D01*
X150778210Y-123210288D01*
X150778213Y-123210292D01*
X150889707Y-123321786D01*
X150889711Y-123321789D01*
X151020814Y-123409390D01*
X151020827Y-123409397D01*
X151166498Y-123469735D01*
X151166503Y-123469737D01*
X151321153Y-123500499D01*
X151321156Y-123500500D01*
X151321158Y-123500500D01*
X151478844Y-123500500D01*
X151478845Y-123500499D01*
X151633497Y-123469737D01*
X151779179Y-123409394D01*
X151910289Y-123321789D01*
X152021789Y-123210289D01*
X152109394Y-123079179D01*
X152169737Y-122933497D01*
X152200500Y-122778842D01*
X152200500Y-122621158D01*
X152200500Y-122621155D01*
X152200499Y-122621153D01*
X152599500Y-122621153D01*
X152599500Y-122778846D01*
X152630261Y-122933489D01*
X152630264Y-122933501D01*
X152690602Y-123079172D01*
X152690609Y-123079185D01*
X152778210Y-123210288D01*
X152778213Y-123210292D01*
X152889707Y-123321786D01*
X152889711Y-123321789D01*
X153020814Y-123409390D01*
X153020827Y-123409397D01*
X153166498Y-123469735D01*
X153166503Y-123469737D01*
X153321153Y-123500499D01*
X153321156Y-123500500D01*
X153321158Y-123500500D01*
X153478844Y-123500500D01*
X153478845Y-123500499D01*
X153633497Y-123469737D01*
X153779179Y-123409394D01*
X153910289Y-123321789D01*
X154021789Y-123210289D01*
X154109394Y-123079179D01*
X154169737Y-122933497D01*
X154200500Y-122778842D01*
X154200500Y-122621158D01*
X154200500Y-122621155D01*
X154200499Y-122621153D01*
X154599500Y-122621153D01*
X154599500Y-122778846D01*
X154630261Y-122933489D01*
X154630264Y-122933501D01*
X154690602Y-123079172D01*
X154690609Y-123079185D01*
X154778210Y-123210288D01*
X154778213Y-123210292D01*
X154889707Y-123321786D01*
X154889711Y-123321789D01*
X155020814Y-123409390D01*
X155020827Y-123409397D01*
X155166498Y-123469735D01*
X155166503Y-123469737D01*
X155321153Y-123500499D01*
X155321156Y-123500500D01*
X155321158Y-123500500D01*
X155478844Y-123500500D01*
X155478845Y-123500499D01*
X155633497Y-123469737D01*
X155779179Y-123409394D01*
X155910289Y-123321789D01*
X156021789Y-123210289D01*
X156109394Y-123079179D01*
X156169737Y-122933497D01*
X156200500Y-122778842D01*
X156200500Y-122621158D01*
X156200500Y-122621155D01*
X156200499Y-122621153D01*
X156599500Y-122621153D01*
X156599500Y-122778846D01*
X156630261Y-122933489D01*
X156630264Y-122933501D01*
X156690602Y-123079172D01*
X156690609Y-123079185D01*
X156778210Y-123210288D01*
X156778213Y-123210292D01*
X156889707Y-123321786D01*
X156889711Y-123321789D01*
X157020814Y-123409390D01*
X157020827Y-123409397D01*
X157166498Y-123469735D01*
X157166503Y-123469737D01*
X157321153Y-123500499D01*
X157321156Y-123500500D01*
X157321158Y-123500500D01*
X157478844Y-123500500D01*
X157478845Y-123500499D01*
X157633497Y-123469737D01*
X157779179Y-123409394D01*
X157910289Y-123321789D01*
X158021789Y-123210289D01*
X158109394Y-123079179D01*
X158169737Y-122933497D01*
X158200500Y-122778842D01*
X158200500Y-122621158D01*
X158200500Y-122621155D01*
X158200499Y-122621153D01*
X158599500Y-122621153D01*
X158599500Y-122778846D01*
X158630261Y-122933489D01*
X158630264Y-122933501D01*
X158690602Y-123079172D01*
X158690609Y-123079185D01*
X158778210Y-123210288D01*
X158778213Y-123210292D01*
X158889707Y-123321786D01*
X158889711Y-123321789D01*
X159020814Y-123409390D01*
X159020827Y-123409397D01*
X159166498Y-123469735D01*
X159166503Y-123469737D01*
X159321153Y-123500499D01*
X159321156Y-123500500D01*
X159321158Y-123500500D01*
X159478844Y-123500500D01*
X159478845Y-123500499D01*
X159633497Y-123469737D01*
X159779179Y-123409394D01*
X159910289Y-123321789D01*
X160021789Y-123210289D01*
X160109394Y-123079179D01*
X160169737Y-122933497D01*
X160200500Y-122778842D01*
X160200500Y-122621158D01*
X160200500Y-122621155D01*
X160200499Y-122621153D01*
X160169738Y-122466510D01*
X160169737Y-122466503D01*
X160169735Y-122466498D01*
X160109397Y-122320827D01*
X160109390Y-122320814D01*
X160021789Y-122189711D01*
X160021786Y-122189707D01*
X159910292Y-122078213D01*
X159910288Y-122078210D01*
X159779185Y-121990609D01*
X159779172Y-121990602D01*
X159633501Y-121930264D01*
X159633489Y-121930261D01*
X159478845Y-121899500D01*
X159478842Y-121899500D01*
X159321158Y-121899500D01*
X159321155Y-121899500D01*
X159166510Y-121930261D01*
X159166498Y-121930264D01*
X159020827Y-121990602D01*
X159020814Y-121990609D01*
X158889711Y-122078210D01*
X158889707Y-122078213D01*
X158778213Y-122189707D01*
X158778210Y-122189711D01*
X158690609Y-122320814D01*
X158690602Y-122320827D01*
X158630264Y-122466498D01*
X158630261Y-122466510D01*
X158599500Y-122621153D01*
X158200499Y-122621153D01*
X158169738Y-122466510D01*
X158169737Y-122466503D01*
X158169735Y-122466498D01*
X158109397Y-122320827D01*
X158109390Y-122320814D01*
X158021789Y-122189711D01*
X158021786Y-122189707D01*
X157910292Y-122078213D01*
X157910288Y-122078210D01*
X157779185Y-121990609D01*
X157779172Y-121990602D01*
X157633501Y-121930264D01*
X157633489Y-121930261D01*
X157478845Y-121899500D01*
X157478842Y-121899500D01*
X157321158Y-121899500D01*
X157321155Y-121899500D01*
X157166510Y-121930261D01*
X157166498Y-121930264D01*
X157020827Y-121990602D01*
X157020814Y-121990609D01*
X156889711Y-122078210D01*
X156889707Y-122078213D01*
X156778213Y-122189707D01*
X156778210Y-122189711D01*
X156690609Y-122320814D01*
X156690602Y-122320827D01*
X156630264Y-122466498D01*
X156630261Y-122466510D01*
X156599500Y-122621153D01*
X156200499Y-122621153D01*
X156169738Y-122466510D01*
X156169737Y-122466503D01*
X156169735Y-122466498D01*
X156109397Y-122320827D01*
X156109390Y-122320814D01*
X156021789Y-122189711D01*
X156021786Y-122189707D01*
X155910292Y-122078213D01*
X155910288Y-122078210D01*
X155779185Y-121990609D01*
X155779172Y-121990602D01*
X155633501Y-121930264D01*
X155633489Y-121930261D01*
X155478845Y-121899500D01*
X155478842Y-121899500D01*
X155321158Y-121899500D01*
X155321155Y-121899500D01*
X155166510Y-121930261D01*
X155166498Y-121930264D01*
X155020827Y-121990602D01*
X155020814Y-121990609D01*
X154889711Y-122078210D01*
X154889707Y-122078213D01*
X154778213Y-122189707D01*
X154778210Y-122189711D01*
X154690609Y-122320814D01*
X154690602Y-122320827D01*
X154630264Y-122466498D01*
X154630261Y-122466510D01*
X154599500Y-122621153D01*
X154200499Y-122621153D01*
X154169738Y-122466510D01*
X154169737Y-122466503D01*
X154169735Y-122466498D01*
X154109397Y-122320827D01*
X154109390Y-122320814D01*
X154021789Y-122189711D01*
X154021786Y-122189707D01*
X153910292Y-122078213D01*
X153910288Y-122078210D01*
X153779185Y-121990609D01*
X153779172Y-121990602D01*
X153633501Y-121930264D01*
X153633489Y-121930261D01*
X153478845Y-121899500D01*
X153478842Y-121899500D01*
X153321158Y-121899500D01*
X153321155Y-121899500D01*
X153166510Y-121930261D01*
X153166498Y-121930264D01*
X153020827Y-121990602D01*
X153020814Y-121990609D01*
X152889711Y-122078210D01*
X152889707Y-122078213D01*
X152778213Y-122189707D01*
X152778210Y-122189711D01*
X152690609Y-122320814D01*
X152690602Y-122320827D01*
X152630264Y-122466498D01*
X152630261Y-122466510D01*
X152599500Y-122621153D01*
X152200499Y-122621153D01*
X152169738Y-122466510D01*
X152169737Y-122466503D01*
X152169735Y-122466498D01*
X152109397Y-122320827D01*
X152109390Y-122320814D01*
X152021789Y-122189711D01*
X152021786Y-122189707D01*
X151910292Y-122078213D01*
X151910288Y-122078210D01*
X151779185Y-121990609D01*
X151779172Y-121990602D01*
X151633501Y-121930264D01*
X151633489Y-121930261D01*
X151478845Y-121899500D01*
X151478842Y-121899500D01*
X151321158Y-121899500D01*
X151321155Y-121899500D01*
X151166510Y-121930261D01*
X151166498Y-121930264D01*
X151020827Y-121990602D01*
X151020814Y-121990609D01*
X150889711Y-122078210D01*
X150889707Y-122078213D01*
X150778213Y-122189707D01*
X150778210Y-122189711D01*
X150690609Y-122320814D01*
X150690602Y-122320827D01*
X150630264Y-122466498D01*
X150630261Y-122466510D01*
X150599500Y-122621153D01*
X135028331Y-122621153D01*
X134875854Y-122392956D01*
X134645197Y-122111899D01*
X134645196Y-122111898D01*
X134645192Y-122111893D01*
X134388106Y-121854807D01*
X134107049Y-121624150D01*
X134107048Y-121624149D01*
X134107044Y-121624146D01*
X133804732Y-121422147D01*
X133804727Y-121422144D01*
X133804720Y-121422140D01*
X133484083Y-121250756D01*
X133484078Y-121250754D01*
X133148165Y-121111614D01*
X132800223Y-121006067D01*
X132800212Y-121006064D01*
X132443630Y-120935137D01*
X132171111Y-120908296D01*
X132081794Y-120899500D01*
X131718206Y-120899500D01*
X131635679Y-120907628D01*
X131356369Y-120935137D01*
X130999787Y-121006064D01*
X130999776Y-121006067D01*
X130651834Y-121111614D01*
X130315921Y-121250754D01*
X130315916Y-121250756D01*
X129995279Y-121422140D01*
X129995261Y-121422151D01*
X129692964Y-121624140D01*
X129692950Y-121624150D01*
X129411893Y-121854807D01*
X129154807Y-122111893D01*
X128995353Y-122306189D01*
X128937607Y-122345523D01*
X128867763Y-122347394D01*
X128807995Y-122311206D01*
X128777279Y-122248451D01*
X128775500Y-122227524D01*
X128775500Y-120847065D01*
X136254499Y-120847065D01*
X136292371Y-121037454D01*
X136292373Y-121037460D01*
X136366661Y-121216807D01*
X136474513Y-121378221D01*
X136611778Y-121515486D01*
X136611781Y-121515488D01*
X136773191Y-121623338D01*
X136952540Y-121697627D01*
X136952544Y-121697627D01*
X136952545Y-121697628D01*
X137142934Y-121735500D01*
X137142937Y-121735500D01*
X137337065Y-121735500D01*
X137465154Y-121710020D01*
X137527460Y-121697627D01*
X137706809Y-121623338D01*
X137868219Y-121515488D01*
X138005488Y-121378219D01*
X138113338Y-121216809D01*
X138187627Y-121037460D01*
X138200020Y-120975154D01*
X138225500Y-120847065D01*
X145014499Y-120847065D01*
X145052371Y-121037454D01*
X145052373Y-121037460D01*
X145126661Y-121216807D01*
X145234513Y-121378221D01*
X145371778Y-121515486D01*
X145371781Y-121515488D01*
X145533191Y-121623338D01*
X145712540Y-121697627D01*
X145712544Y-121697627D01*
X145712545Y-121697628D01*
X145902934Y-121735500D01*
X145902937Y-121735500D01*
X146097065Y-121735500D01*
X146225154Y-121710020D01*
X146287460Y-121697627D01*
X146466809Y-121623338D01*
X146628219Y-121515488D01*
X146765488Y-121378219D01*
X146873338Y-121216809D01*
X146947627Y-121037460D01*
X146960020Y-120975154D01*
X146985500Y-120847065D01*
X146985500Y-120652934D01*
X146947628Y-120462545D01*
X146947627Y-120462544D01*
X146947627Y-120462540D01*
X146873338Y-120283191D01*
X146765488Y-120121781D01*
X146765486Y-120121778D01*
X146628221Y-119984513D01*
X146547514Y-119930587D01*
X146466809Y-119876662D01*
X146287460Y-119802373D01*
X146287454Y-119802371D01*
X146097065Y-119764500D01*
X146097063Y-119764500D01*
X145902937Y-119764500D01*
X145902935Y-119764500D01*
X145712545Y-119802371D01*
X145712539Y-119802373D01*
X145533192Y-119876661D01*
X145371778Y-119984513D01*
X145234513Y-120121778D01*
X145126661Y-120283192D01*
X145052373Y-120462539D01*
X145052371Y-120462545D01*
X145014500Y-120652934D01*
X145014500Y-120652937D01*
X145014500Y-120847063D01*
X145014500Y-120847065D01*
X145014499Y-120847065D01*
X138225500Y-120847065D01*
X138225500Y-120652934D01*
X138187628Y-120462545D01*
X138187627Y-120462544D01*
X138187627Y-120462540D01*
X138152629Y-120378048D01*
X138145161Y-120308583D01*
X138176435Y-120246104D01*
X138236524Y-120210451D01*
X138306349Y-120212944D01*
X138309639Y-120214171D01*
X138311492Y-120214732D01*
X138311503Y-120214737D01*
X138466153Y-120245499D01*
X138466156Y-120245500D01*
X138466158Y-120245500D01*
X138623844Y-120245500D01*
X138623845Y-120245499D01*
X138778497Y-120214737D01*
X138924179Y-120154394D01*
X139055289Y-120066789D01*
X139166789Y-119955289D01*
X139254394Y-119824179D01*
X139314737Y-119678497D01*
X139345500Y-119523842D01*
X139345500Y-119366158D01*
X139345500Y-119366155D01*
X139345499Y-119366153D01*
X139314738Y-119211510D01*
X139314737Y-119211503D01*
X139314735Y-119211498D01*
X139254397Y-119065827D01*
X139254390Y-119065814D01*
X139166789Y-118934711D01*
X139166786Y-118934707D01*
X139055292Y-118823213D01*
X139055288Y-118823210D01*
X138924185Y-118735609D01*
X138924172Y-118735602D01*
X138778501Y-118675264D01*
X138778489Y-118675261D01*
X138623845Y-118644500D01*
X138623842Y-118644500D01*
X138466158Y-118644500D01*
X138466155Y-118644500D01*
X138311510Y-118675261D01*
X138311498Y-118675264D01*
X138165827Y-118735602D01*
X138165814Y-118735609D01*
X138034711Y-118823210D01*
X138034707Y-118823213D01*
X137923213Y-118934707D01*
X137923210Y-118934711D01*
X137835609Y-119065814D01*
X137835602Y-119065827D01*
X137775264Y-119211498D01*
X137775261Y-119211510D01*
X137744500Y-119366153D01*
X137744500Y-119523846D01*
X137775261Y-119678489D01*
X137777031Y-119684324D01*
X137774997Y-119684940D01*
X137781424Y-119744855D01*
X137750134Y-119807327D01*
X137690036Y-119842964D01*
X137620211Y-119840453D01*
X137611952Y-119837371D01*
X137527460Y-119802373D01*
X137527454Y-119802371D01*
X137337065Y-119764500D01*
X137337063Y-119764500D01*
X137142937Y-119764500D01*
X137142935Y-119764500D01*
X136952545Y-119802371D01*
X136952539Y-119802373D01*
X136773192Y-119876661D01*
X136611778Y-119984513D01*
X136474513Y-120121778D01*
X136366661Y-120283192D01*
X136292373Y-120462539D01*
X136292371Y-120462545D01*
X136254500Y-120652934D01*
X136254500Y-120652937D01*
X136254500Y-120847063D01*
X136254500Y-120847065D01*
X136254499Y-120847065D01*
X128775500Y-120847065D01*
X128775500Y-115562483D01*
X131049500Y-115562483D01*
X131049500Y-117662501D01*
X131049501Y-117662518D01*
X131060000Y-117765296D01*
X131060001Y-117765299D01*
X131115185Y-117931831D01*
X131115186Y-117931834D01*
X131207288Y-118081156D01*
X131331344Y-118205212D01*
X131480666Y-118297314D01*
X131647203Y-118352499D01*
X131749991Y-118363000D01*
X133850008Y-118362999D01*
X133952797Y-118352499D01*
X134119334Y-118297314D01*
X134268656Y-118205212D01*
X134392712Y-118081156D01*
X134484814Y-117931834D01*
X134539999Y-117765297D01*
X134550500Y-117662509D01*
X134550499Y-115562492D01*
X134539999Y-115459703D01*
X134484814Y-115293166D01*
X134440396Y-115221153D01*
X142099500Y-115221153D01*
X142099500Y-115378846D01*
X142130261Y-115533489D01*
X142130264Y-115533501D01*
X142190602Y-115679172D01*
X142190609Y-115679185D01*
X142278210Y-115810288D01*
X142278213Y-115810292D01*
X142389707Y-115921786D01*
X142389711Y-115921789D01*
X142520814Y-116009390D01*
X142520827Y-116009397D01*
X142666498Y-116069735D01*
X142666503Y-116069737D01*
X142821153Y-116100499D01*
X142821156Y-116100500D01*
X142821158Y-116100500D01*
X142978844Y-116100500D01*
X142978845Y-116100499D01*
X143133497Y-116069737D01*
X143279179Y-116009394D01*
X143410289Y-115921789D01*
X143521789Y-115810289D01*
X143609394Y-115679179D01*
X143669737Y-115533497D01*
X143700500Y-115378842D01*
X143700500Y-115221158D01*
X143700500Y-115221155D01*
X143700499Y-115221153D01*
X143669738Y-115066510D01*
X143669737Y-115066503D01*
X143612238Y-114927686D01*
X143609397Y-114920827D01*
X143609390Y-114920814D01*
X143521789Y-114789711D01*
X143521786Y-114789707D01*
X143410292Y-114678213D01*
X143410288Y-114678210D01*
X143279185Y-114590609D01*
X143279172Y-114590602D01*
X143133501Y-114530264D01*
X143133489Y-114530261D01*
X142978845Y-114499500D01*
X142978842Y-114499500D01*
X142821158Y-114499500D01*
X142821155Y-114499500D01*
X142666510Y-114530261D01*
X142666498Y-114530264D01*
X142520827Y-114590602D01*
X142520814Y-114590609D01*
X142389711Y-114678210D01*
X142389707Y-114678213D01*
X142278213Y-114789707D01*
X142278210Y-114789711D01*
X142190609Y-114920814D01*
X142190602Y-114920827D01*
X142130264Y-115066498D01*
X142130261Y-115066510D01*
X142099500Y-115221153D01*
X134440396Y-115221153D01*
X134392712Y-115143844D01*
X134268656Y-115019788D01*
X134119334Y-114927686D01*
X133952797Y-114872501D01*
X133952795Y-114872500D01*
X133850010Y-114862000D01*
X131749998Y-114862000D01*
X131749981Y-114862001D01*
X131647203Y-114872500D01*
X131647200Y-114872501D01*
X131480668Y-114927685D01*
X131480663Y-114927687D01*
X131331342Y-115019789D01*
X131207289Y-115143842D01*
X131115187Y-115293163D01*
X131115186Y-115293166D01*
X131060001Y-115459703D01*
X131060001Y-115459704D01*
X131060000Y-115459704D01*
X131049500Y-115562483D01*
X128775500Y-115562483D01*
X128775500Y-111497758D01*
X131049500Y-111497758D01*
X131049500Y-111727241D01*
X131074446Y-111916715D01*
X131079452Y-111954738D01*
X131079453Y-111954740D01*
X131138842Y-112176387D01*
X131226650Y-112388376D01*
X131226657Y-112388390D01*
X131341392Y-112587117D01*
X131481081Y-112769161D01*
X131481089Y-112769170D01*
X131643330Y-112931411D01*
X131643338Y-112931418D01*
X131825382Y-113071107D01*
X131825385Y-113071108D01*
X131825388Y-113071111D01*
X132024112Y-113185844D01*
X132024117Y-113185846D01*
X132024123Y-113185849D01*
X132115480Y-113223690D01*
X132236113Y-113273658D01*
X132457762Y-113333048D01*
X132685266Y-113363000D01*
X132685273Y-113363000D01*
X132914727Y-113363000D01*
X132914734Y-113363000D01*
X133142238Y-113333048D01*
X133363887Y-113273658D01*
X133575888Y-113185844D01*
X133774612Y-113071111D01*
X133956661Y-112931419D01*
X133956665Y-112931414D01*
X133956670Y-112931411D01*
X134118911Y-112769170D01*
X134118914Y-112769165D01*
X134118919Y-112769161D01*
X134258611Y-112587112D01*
X134373344Y-112388388D01*
X134461158Y-112176387D01*
X134520548Y-111954738D01*
X134550500Y-111727234D01*
X134550500Y-111497766D01*
X134520548Y-111270262D01*
X134461158Y-111048613D01*
X134373344Y-110836612D01*
X134258611Y-110637888D01*
X134258608Y-110637885D01*
X134258607Y-110637882D01*
X134118918Y-110455838D01*
X134118911Y-110455830D01*
X133956670Y-110293589D01*
X133956661Y-110293581D01*
X133774617Y-110153892D01*
X133575890Y-110039157D01*
X133575876Y-110039150D01*
X133363887Y-109951342D01*
X133142238Y-109891952D01*
X133104215Y-109886946D01*
X132914741Y-109862000D01*
X132914734Y-109862000D01*
X132685266Y-109862000D01*
X132685258Y-109862000D01*
X132468715Y-109890509D01*
X132457762Y-109891952D01*
X132364076Y-109917054D01*
X132236112Y-109951342D01*
X132024123Y-110039150D01*
X132024109Y-110039157D01*
X131825382Y-110153892D01*
X131643338Y-110293581D01*
X131481081Y-110455838D01*
X131341392Y-110637882D01*
X131226657Y-110836609D01*
X131226650Y-110836623D01*
X131138842Y-111048612D01*
X131079453Y-111270259D01*
X131079451Y-111270270D01*
X131049500Y-111497758D01*
X128775500Y-111497758D01*
X128775500Y-107921153D01*
X130499500Y-107921153D01*
X130499500Y-108078846D01*
X130530261Y-108233489D01*
X130530264Y-108233501D01*
X130590602Y-108379172D01*
X130590609Y-108379185D01*
X130678210Y-108510288D01*
X130678213Y-108510292D01*
X130789707Y-108621786D01*
X130789711Y-108621789D01*
X130920814Y-108709390D01*
X130920827Y-108709397D01*
X131066498Y-108769735D01*
X131066503Y-108769737D01*
X131221153Y-108800499D01*
X131221156Y-108800500D01*
X131221158Y-108800500D01*
X131378844Y-108800500D01*
X131378845Y-108800499D01*
X131533497Y-108769737D01*
X131679179Y-108709394D01*
X131810289Y-108621789D01*
X131921789Y-108510289D01*
X132009394Y-108379179D01*
X132069737Y-108233497D01*
X132100500Y-108078842D01*
X132100500Y-107921158D01*
X132100500Y-107921155D01*
X132100499Y-107921153D01*
X132079719Y-107816685D01*
X132069737Y-107766503D01*
X132033569Y-107679185D01*
X132009397Y-107620827D01*
X132009390Y-107620814D01*
X131921789Y-107489711D01*
X131921786Y-107489707D01*
X131810292Y-107378213D01*
X131810288Y-107378210D01*
X131781019Y-107358653D01*
X141199500Y-107358653D01*
X141199500Y-107516346D01*
X141230261Y-107670989D01*
X141230264Y-107671001D01*
X141290602Y-107816672D01*
X141290609Y-107816685D01*
X141378210Y-107947788D01*
X141378213Y-107947792D01*
X141489707Y-108059286D01*
X141489711Y-108059289D01*
X141620814Y-108146890D01*
X141620827Y-108146897D01*
X141766498Y-108207235D01*
X141766503Y-108207237D01*
X141898480Y-108233489D01*
X141921153Y-108237999D01*
X141921156Y-108238000D01*
X141921158Y-108238000D01*
X142078844Y-108238000D01*
X142078845Y-108237999D01*
X142233497Y-108207237D01*
X142379179Y-108146894D01*
X142510289Y-108059289D01*
X142621789Y-107947789D01*
X142709394Y-107816679D01*
X142769737Y-107670997D01*
X142800500Y-107516342D01*
X142800500Y-107358658D01*
X142800500Y-107358655D01*
X142800499Y-107358653D01*
X142793166Y-107321786D01*
X142769737Y-107204003D01*
X142735282Y-107120821D01*
X142709397Y-107058327D01*
X142709390Y-107058314D01*
X142621789Y-106927211D01*
X142621786Y-106927207D01*
X142510292Y-106815713D01*
X142510288Y-106815710D01*
X142379185Y-106728109D01*
X142379174Y-106728103D01*
X142233501Y-106667764D01*
X142233489Y-106667761D01*
X142078845Y-106637000D01*
X142078842Y-106637000D01*
X141921158Y-106637000D01*
X141921155Y-106637000D01*
X141766510Y-106667761D01*
X141766498Y-106667764D01*
X141620827Y-106728102D01*
X141620814Y-106728109D01*
X141489711Y-106815710D01*
X141489707Y-106815713D01*
X141378213Y-106927207D01*
X141378210Y-106927211D01*
X141290609Y-107058314D01*
X141290602Y-107058327D01*
X141230264Y-107203998D01*
X141230261Y-107204010D01*
X141199500Y-107358653D01*
X131781019Y-107358653D01*
X131679185Y-107290609D01*
X131679172Y-107290602D01*
X131533501Y-107230264D01*
X131533489Y-107230261D01*
X131378845Y-107199500D01*
X131378842Y-107199500D01*
X131221158Y-107199500D01*
X131221155Y-107199500D01*
X131066510Y-107230261D01*
X131066498Y-107230264D01*
X130920827Y-107290602D01*
X130920814Y-107290609D01*
X130789711Y-107378210D01*
X130789707Y-107378213D01*
X130678213Y-107489707D01*
X130678210Y-107489711D01*
X130590609Y-107620814D01*
X130590602Y-107620827D01*
X130530264Y-107766498D01*
X130530261Y-107766510D01*
X130499500Y-107921153D01*
X128775500Y-107921153D01*
X128775500Y-107377463D01*
X128795185Y-107310424D01*
X128847989Y-107264669D01*
X128917147Y-107254725D01*
X128968392Y-107274362D01*
X129020812Y-107309389D01*
X129020827Y-107309397D01*
X129166498Y-107369735D01*
X129166503Y-107369737D01*
X129321153Y-107400499D01*
X129321156Y-107400500D01*
X129321158Y-107400500D01*
X129478844Y-107400500D01*
X129478845Y-107400499D01*
X129633497Y-107369737D01*
X129749262Y-107321786D01*
X129779172Y-107309397D01*
X129779172Y-107309396D01*
X129779179Y-107309394D01*
X129910289Y-107221789D01*
X130021789Y-107110289D01*
X130109394Y-106979179D01*
X130169737Y-106833497D01*
X130200500Y-106678842D01*
X130200500Y-106621153D01*
X146299500Y-106621153D01*
X146299500Y-106778846D01*
X146330261Y-106933489D01*
X146330264Y-106933501D01*
X146390602Y-107079172D01*
X146390609Y-107079185D01*
X146478210Y-107210288D01*
X146478213Y-107210292D01*
X146589707Y-107321786D01*
X146589711Y-107321789D01*
X146720814Y-107409390D01*
X146720827Y-107409397D01*
X146866498Y-107469735D01*
X146866503Y-107469737D01*
X147021153Y-107500499D01*
X147021156Y-107500500D01*
X147021158Y-107500500D01*
X147178844Y-107500500D01*
X147178845Y-107500499D01*
X147333497Y-107469737D01*
X147479179Y-107409394D01*
X147610289Y-107321789D01*
X147710925Y-107221153D01*
X150599500Y-107221153D01*
X150599500Y-107378846D01*
X150630261Y-107533489D01*
X150630264Y-107533501D01*
X150690602Y-107679172D01*
X150690609Y-107679185D01*
X150778210Y-107810288D01*
X150778213Y-107810292D01*
X150889707Y-107921786D01*
X150889711Y-107921789D01*
X151020814Y-108009390D01*
X151020827Y-108009397D01*
X151141272Y-108059286D01*
X151166503Y-108069737D01*
X151321153Y-108100499D01*
X151321156Y-108100500D01*
X151321158Y-108100500D01*
X151478844Y-108100500D01*
X151478845Y-108100499D01*
X151633497Y-108069737D01*
X151779179Y-108009394D01*
X151910289Y-107921789D01*
X152021789Y-107810289D01*
X152109394Y-107679179D01*
X152169737Y-107533497D01*
X152192083Y-107421158D01*
X152192084Y-107421153D01*
X158699500Y-107421153D01*
X158699500Y-107578846D01*
X158730261Y-107733489D01*
X158730264Y-107733501D01*
X158790602Y-107879172D01*
X158790609Y-107879185D01*
X158878210Y-108010288D01*
X158878213Y-108010292D01*
X158989707Y-108121786D01*
X158989711Y-108121789D01*
X159120814Y-108209390D01*
X159120827Y-108209397D01*
X159266498Y-108269735D01*
X159266503Y-108269737D01*
X159421153Y-108300499D01*
X159421156Y-108300500D01*
X159421158Y-108300500D01*
X159578844Y-108300500D01*
X159578845Y-108300499D01*
X159733497Y-108269737D01*
X159879179Y-108209394D01*
X160010289Y-108121789D01*
X160121789Y-108010289D01*
X160209394Y-107879179D01*
X160269737Y-107733497D01*
X160300500Y-107578842D01*
X160300500Y-107421158D01*
X160300500Y-107421155D01*
X160300499Y-107421153D01*
X160294476Y-107390874D01*
X160269737Y-107266503D01*
X160268977Y-107264669D01*
X160209397Y-107120827D01*
X160209390Y-107120814D01*
X160121789Y-106989711D01*
X160121786Y-106989707D01*
X160010292Y-106878213D01*
X160010288Y-106878210D01*
X159879185Y-106790609D01*
X159879172Y-106790602D01*
X159733501Y-106730264D01*
X159733489Y-106730261D01*
X159578845Y-106699500D01*
X159578842Y-106699500D01*
X159421158Y-106699500D01*
X159421155Y-106699500D01*
X159266510Y-106730261D01*
X159266498Y-106730264D01*
X159120827Y-106790602D01*
X159120814Y-106790609D01*
X158989711Y-106878210D01*
X158989707Y-106878213D01*
X158878213Y-106989707D01*
X158878210Y-106989711D01*
X158790609Y-107120814D01*
X158790602Y-107120827D01*
X158730264Y-107266498D01*
X158730261Y-107266510D01*
X158699500Y-107421153D01*
X152192084Y-107421153D01*
X152198107Y-107390875D01*
X152198107Y-107390874D01*
X152200500Y-107378844D01*
X152200500Y-107221155D01*
X152200499Y-107221153D01*
X152180543Y-107120827D01*
X152169737Y-107066503D01*
X152169735Y-107066498D01*
X152109397Y-106920827D01*
X152109390Y-106920814D01*
X152021789Y-106789711D01*
X152021786Y-106789707D01*
X151910292Y-106678213D01*
X151910288Y-106678210D01*
X151779185Y-106590609D01*
X151779172Y-106590602D01*
X151633501Y-106530264D01*
X151633489Y-106530261D01*
X151478845Y-106499500D01*
X151478842Y-106499500D01*
X151321158Y-106499500D01*
X151321155Y-106499500D01*
X151166510Y-106530261D01*
X151166498Y-106530264D01*
X151020827Y-106590602D01*
X151020814Y-106590609D01*
X150889711Y-106678210D01*
X150889707Y-106678213D01*
X150778213Y-106789707D01*
X150778210Y-106789711D01*
X150690609Y-106920814D01*
X150690602Y-106920827D01*
X150630264Y-107066498D01*
X150630261Y-107066510D01*
X150599500Y-107221153D01*
X147710925Y-107221153D01*
X147721789Y-107210289D01*
X147781575Y-107120814D01*
X147809390Y-107079185D01*
X147809390Y-107079184D01*
X147809394Y-107079179D01*
X147869737Y-106933497D01*
X147900500Y-106778842D01*
X147900500Y-106621158D01*
X147900500Y-106621155D01*
X147900499Y-106621153D01*
X147882419Y-106530261D01*
X147869737Y-106466503D01*
X147828314Y-106366498D01*
X147809397Y-106320827D01*
X147809390Y-106320814D01*
X147721789Y-106189711D01*
X147721786Y-106189707D01*
X147610292Y-106078213D01*
X147610288Y-106078210D01*
X147479185Y-105990609D01*
X147479172Y-105990602D01*
X147333501Y-105930264D01*
X147333489Y-105930261D01*
X147178845Y-105899500D01*
X147178842Y-105899500D01*
X147021158Y-105899500D01*
X147021155Y-105899500D01*
X146866510Y-105930261D01*
X146866498Y-105930264D01*
X146720827Y-105990602D01*
X146720814Y-105990609D01*
X146589711Y-106078210D01*
X146589707Y-106078213D01*
X146478213Y-106189707D01*
X146478210Y-106189711D01*
X146390609Y-106320814D01*
X146390602Y-106320827D01*
X146330264Y-106466498D01*
X146330261Y-106466510D01*
X146299500Y-106621153D01*
X130200500Y-106621153D01*
X130200500Y-106521158D01*
X130200500Y-106521155D01*
X130200499Y-106521153D01*
X130169738Y-106366510D01*
X130169737Y-106366503D01*
X130150812Y-106320814D01*
X130109397Y-106220827D01*
X130109390Y-106220814D01*
X130021789Y-106089711D01*
X130021786Y-106089707D01*
X129910292Y-105978213D01*
X129910288Y-105978210D01*
X129779185Y-105890609D01*
X129779172Y-105890602D01*
X129633501Y-105830264D01*
X129633489Y-105830261D01*
X129478845Y-105799500D01*
X129478842Y-105799500D01*
X129321158Y-105799500D01*
X129321155Y-105799500D01*
X129166510Y-105830261D01*
X129166498Y-105830264D01*
X129020827Y-105890602D01*
X129020814Y-105890609D01*
X128968391Y-105925638D01*
X128901713Y-105946516D01*
X128834333Y-105928031D01*
X128787643Y-105876053D01*
X128775500Y-105822536D01*
X128775500Y-104473920D01*
X132599499Y-104473920D01*
X132628340Y-104618907D01*
X132628343Y-104618917D01*
X132684912Y-104755488D01*
X132684919Y-104755501D01*
X132767048Y-104878415D01*
X132767051Y-104878419D01*
X132871580Y-104982948D01*
X132871584Y-104982951D01*
X132994498Y-105065080D01*
X132994511Y-105065087D01*
X133131082Y-105121656D01*
X133131087Y-105121658D01*
X133131091Y-105121658D01*
X133131092Y-105121659D01*
X133276079Y-105150500D01*
X133276082Y-105150500D01*
X133423918Y-105150500D01*
X133450163Y-105145279D01*
X133519753Y-105151505D01*
X133574931Y-105194366D01*
X133588917Y-105219444D01*
X133634912Y-105330488D01*
X133634919Y-105330501D01*
X133717048Y-105453415D01*
X133717051Y-105453419D01*
X133821580Y-105557948D01*
X133821584Y-105557951D01*
X133944498Y-105640080D01*
X133944511Y-105640087D01*
X134038903Y-105679185D01*
X134081087Y-105696658D01*
X134081091Y-105696658D01*
X134081092Y-105696659D01*
X134226079Y-105725500D01*
X134226082Y-105725500D01*
X134373920Y-105725500D01*
X134471462Y-105706096D01*
X134518913Y-105696658D01*
X134655495Y-105640084D01*
X134778416Y-105557951D01*
X134882951Y-105453416D01*
X134965084Y-105330495D01*
X135010374Y-105221153D01*
X154999500Y-105221153D01*
X154999500Y-105378846D01*
X155030261Y-105533489D01*
X155030264Y-105533501D01*
X155090602Y-105679172D01*
X155090609Y-105679185D01*
X155178210Y-105810288D01*
X155178213Y-105810292D01*
X155289707Y-105921786D01*
X155289711Y-105921789D01*
X155420814Y-106009390D01*
X155420827Y-106009397D01*
X155566498Y-106069735D01*
X155566503Y-106069737D01*
X155721153Y-106100499D01*
X155721156Y-106100500D01*
X155721158Y-106100500D01*
X155878844Y-106100500D01*
X155878845Y-106100499D01*
X156033497Y-106069737D01*
X156179179Y-106009394D01*
X156310289Y-105921789D01*
X156421789Y-105810289D01*
X156509394Y-105679179D01*
X156569737Y-105533497D01*
X156600500Y-105378842D01*
X156600500Y-105221158D01*
X156600500Y-105221155D01*
X156600499Y-105221153D01*
X156595081Y-105193913D01*
X156569737Y-105066503D01*
X156569735Y-105066498D01*
X156509397Y-104920827D01*
X156509390Y-104920814D01*
X156421789Y-104789711D01*
X156421786Y-104789707D01*
X156310292Y-104678213D01*
X156310288Y-104678210D01*
X156179185Y-104590609D01*
X156179172Y-104590602D01*
X156033501Y-104530264D01*
X156033489Y-104530261D01*
X155878845Y-104499500D01*
X155878842Y-104499500D01*
X155721158Y-104499500D01*
X155721155Y-104499500D01*
X155566510Y-104530261D01*
X155566498Y-104530264D01*
X155420827Y-104590602D01*
X155420814Y-104590609D01*
X155289711Y-104678210D01*
X155289707Y-104678213D01*
X155178213Y-104789707D01*
X155178210Y-104789711D01*
X155090609Y-104920814D01*
X155090602Y-104920827D01*
X155030264Y-105066498D01*
X155030261Y-105066510D01*
X154999500Y-105221153D01*
X135010374Y-105221153D01*
X135011084Y-105219439D01*
X135054922Y-105165041D01*
X135121216Y-105142975D01*
X135149834Y-105145278D01*
X135176082Y-105150500D01*
X135323920Y-105150500D01*
X135421462Y-105131096D01*
X135468913Y-105121658D01*
X135491617Y-105112253D01*
X135519982Y-105100505D01*
X135605488Y-105065087D01*
X135605488Y-105065086D01*
X135605495Y-105065084D01*
X135728416Y-104982951D01*
X135832951Y-104878416D01*
X135915084Y-104755495D01*
X135971658Y-104618913D01*
X135989292Y-104530263D01*
X136000500Y-104473920D01*
X136000500Y-104326079D01*
X135971659Y-104181092D01*
X135971658Y-104181091D01*
X135971658Y-104181087D01*
X135931237Y-104083501D01*
X135915087Y-104044511D01*
X135915080Y-104044498D01*
X135832951Y-103921584D01*
X135832948Y-103921580D01*
X135728419Y-103817051D01*
X135728415Y-103817048D01*
X135605501Y-103734919D01*
X135605488Y-103734912D01*
X135468917Y-103678343D01*
X135468907Y-103678340D01*
X135323920Y-103649500D01*
X135323918Y-103649500D01*
X135176082Y-103649500D01*
X135149833Y-103654721D01*
X135080241Y-103648492D01*
X135025065Y-103605629D01*
X135011082Y-103580555D01*
X134965087Y-103469511D01*
X134965080Y-103469498D01*
X134882951Y-103346584D01*
X134882948Y-103346580D01*
X134778419Y-103242051D01*
X134778415Y-103242048D01*
X134655501Y-103159919D01*
X134655488Y-103159912D01*
X134518917Y-103103343D01*
X134518907Y-103103340D01*
X134373920Y-103074500D01*
X134373918Y-103074500D01*
X134226082Y-103074500D01*
X134226080Y-103074500D01*
X134081092Y-103103340D01*
X134081082Y-103103343D01*
X133944511Y-103159912D01*
X133944498Y-103159919D01*
X133821584Y-103242048D01*
X133821580Y-103242051D01*
X133717051Y-103346580D01*
X133717048Y-103346584D01*
X133634919Y-103469498D01*
X133634914Y-103469507D01*
X133588917Y-103580556D01*
X133545076Y-103634959D01*
X133478782Y-103657024D01*
X133450165Y-103654720D01*
X133423922Y-103649500D01*
X133423918Y-103649500D01*
X133276082Y-103649500D01*
X133276080Y-103649500D01*
X133131092Y-103678340D01*
X133131082Y-103678343D01*
X132994511Y-103734912D01*
X132994498Y-103734919D01*
X132871584Y-103817048D01*
X132871580Y-103817051D01*
X132767051Y-103921580D01*
X132767048Y-103921584D01*
X132684919Y-104044498D01*
X132684912Y-104044511D01*
X132628343Y-104181082D01*
X132628340Y-104181092D01*
X132599500Y-104326079D01*
X132599500Y-104326082D01*
X132599500Y-104473918D01*
X132599500Y-104473920D01*
X132599499Y-104473920D01*
X128775500Y-104473920D01*
X128775500Y-101921153D01*
X131199500Y-101921153D01*
X131199500Y-102078846D01*
X131230261Y-102233489D01*
X131230264Y-102233501D01*
X131290602Y-102379172D01*
X131290609Y-102379185D01*
X131378210Y-102510288D01*
X131378213Y-102510292D01*
X131489707Y-102621786D01*
X131489711Y-102621789D01*
X131620814Y-102709390D01*
X131620827Y-102709397D01*
X131766498Y-102769735D01*
X131766503Y-102769737D01*
X131921153Y-102800499D01*
X131921156Y-102800500D01*
X131921158Y-102800500D01*
X132078844Y-102800500D01*
X132078845Y-102800499D01*
X132233497Y-102769737D01*
X132379179Y-102709394D01*
X132510289Y-102621789D01*
X132621789Y-102510289D01*
X132709394Y-102379179D01*
X132769737Y-102233497D01*
X132800500Y-102078842D01*
X132800500Y-101921158D01*
X132800500Y-101921155D01*
X132800499Y-101921153D01*
X132769738Y-101766510D01*
X132769737Y-101766503D01*
X132769735Y-101766498D01*
X132709397Y-101620827D01*
X132709390Y-101620814D01*
X132621789Y-101489711D01*
X132621786Y-101489707D01*
X132510292Y-101378213D01*
X132510288Y-101378210D01*
X132379185Y-101290609D01*
X132379172Y-101290602D01*
X132233501Y-101230264D01*
X132233489Y-101230261D01*
X132078845Y-101199500D01*
X132078842Y-101199500D01*
X131921158Y-101199500D01*
X131921155Y-101199500D01*
X131766510Y-101230261D01*
X131766498Y-101230264D01*
X131620827Y-101290602D01*
X131620814Y-101290609D01*
X131489711Y-101378210D01*
X131489707Y-101378213D01*
X131378213Y-101489707D01*
X131378210Y-101489711D01*
X131290609Y-101620814D01*
X131290602Y-101620827D01*
X131230264Y-101766498D01*
X131230261Y-101766510D01*
X131199500Y-101921153D01*
X128775500Y-101921153D01*
X128775500Y-95958543D01*
X129624499Y-95958543D01*
X129662947Y-96151829D01*
X129662950Y-96151839D01*
X129738364Y-96333907D01*
X129738371Y-96333920D01*
X129847860Y-96497781D01*
X129847863Y-96497785D01*
X129987214Y-96637136D01*
X129987218Y-96637139D01*
X130151079Y-96746628D01*
X130151092Y-96746635D01*
X130333160Y-96822049D01*
X130333165Y-96822051D01*
X130333169Y-96822051D01*
X130333170Y-96822052D01*
X130526456Y-96860500D01*
X130526459Y-96860500D01*
X131523543Y-96860500D01*
X131653582Y-96834632D01*
X131716835Y-96822051D01*
X131898914Y-96746632D01*
X132062782Y-96637139D01*
X132202139Y-96497782D01*
X132311632Y-96333914D01*
X132387051Y-96151835D01*
X132425500Y-95958543D01*
X133654499Y-95958543D01*
X133692947Y-96151829D01*
X133692950Y-96151839D01*
X133768364Y-96333907D01*
X133768371Y-96333920D01*
X133877860Y-96497781D01*
X133877863Y-96497785D01*
X134017214Y-96637136D01*
X134017218Y-96637139D01*
X134181079Y-96746628D01*
X134181092Y-96746635D01*
X134363160Y-96822049D01*
X134363165Y-96822051D01*
X134363169Y-96822051D01*
X134363170Y-96822052D01*
X134556456Y-96860500D01*
X134556459Y-96860500D01*
X134671434Y-96860500D01*
X134738473Y-96880185D01*
X134784228Y-96932989D01*
X134794172Y-97002147D01*
X134785995Y-97031952D01*
X134730264Y-97166498D01*
X134730261Y-97166510D01*
X134699500Y-97321153D01*
X134699500Y-97478846D01*
X134730261Y-97633489D01*
X134730264Y-97633501D01*
X134790602Y-97779172D01*
X134790609Y-97779185D01*
X134878210Y-97910288D01*
X134878213Y-97910292D01*
X134989707Y-98021786D01*
X134989711Y-98021789D01*
X135120814Y-98109390D01*
X135120827Y-98109397D01*
X135266498Y-98169735D01*
X135266503Y-98169737D01*
X135421153Y-98200499D01*
X135421156Y-98200500D01*
X135421158Y-98200500D01*
X135578844Y-98200500D01*
X135578845Y-98200499D01*
X135733497Y-98169737D01*
X135879179Y-98109394D01*
X135931110Y-98074694D01*
X135997785Y-98053816D01*
X136065165Y-98072300D01*
X136068863Y-98074676D01*
X136120821Y-98109394D01*
X136120823Y-98109395D01*
X136120825Y-98109396D01*
X136266498Y-98169735D01*
X136266503Y-98169737D01*
X136421153Y-98200499D01*
X136421156Y-98200500D01*
X136421158Y-98200500D01*
X136578844Y-98200500D01*
X136578845Y-98200499D01*
X136733497Y-98169737D01*
X136879179Y-98109394D01*
X136931110Y-98074694D01*
X136997785Y-98053816D01*
X137065165Y-98072300D01*
X137068863Y-98074676D01*
X137120821Y-98109394D01*
X137120823Y-98109395D01*
X137120825Y-98109396D01*
X137266498Y-98169735D01*
X137266503Y-98169737D01*
X137421153Y-98200499D01*
X137421156Y-98200500D01*
X137421158Y-98200500D01*
X137578844Y-98200500D01*
X137578845Y-98200499D01*
X137733497Y-98169737D01*
X137846166Y-98123067D01*
X137879172Y-98109397D01*
X137879172Y-98109396D01*
X137879179Y-98109394D01*
X138010289Y-98021789D01*
X138121789Y-97910289D01*
X138209394Y-97779179D01*
X138269737Y-97633497D01*
X138272192Y-97621153D01*
X140399500Y-97621153D01*
X140399500Y-97778846D01*
X140430261Y-97933489D01*
X140430264Y-97933501D01*
X140490602Y-98079172D01*
X140490609Y-98079185D01*
X140578210Y-98210288D01*
X140578213Y-98210292D01*
X140689707Y-98321786D01*
X140689711Y-98321789D01*
X140820814Y-98409390D01*
X140820827Y-98409397D01*
X140936064Y-98457129D01*
X140966503Y-98469737D01*
X141121153Y-98500499D01*
X141121156Y-98500500D01*
X141121158Y-98500500D01*
X141278844Y-98500500D01*
X141278845Y-98500499D01*
X141433497Y-98469737D01*
X141579179Y-98409394D01*
X141710289Y-98321789D01*
X141821789Y-98210289D01*
X141909394Y-98079179D01*
X141969737Y-97933497D01*
X142000500Y-97778842D01*
X142000500Y-97621158D01*
X142000500Y-97621155D01*
X142000499Y-97621153D01*
X141972192Y-97478846D01*
X141969737Y-97466503D01*
X141909534Y-97321158D01*
X141909397Y-97320827D01*
X141909390Y-97320814D01*
X141821789Y-97189711D01*
X141821786Y-97189707D01*
X141710292Y-97078213D01*
X141710288Y-97078210D01*
X141579185Y-96990609D01*
X141579172Y-96990602D01*
X141433501Y-96930264D01*
X141433489Y-96930261D01*
X141278845Y-96899500D01*
X141278842Y-96899500D01*
X141121158Y-96899500D01*
X141121155Y-96899500D01*
X140966510Y-96930261D01*
X140966498Y-96930264D01*
X140820827Y-96990602D01*
X140820814Y-96990609D01*
X140689711Y-97078210D01*
X140689707Y-97078213D01*
X140578213Y-97189707D01*
X140578210Y-97189711D01*
X140490609Y-97320814D01*
X140490602Y-97320827D01*
X140430264Y-97466498D01*
X140430261Y-97466510D01*
X140399500Y-97621153D01*
X138272192Y-97621153D01*
X138278216Y-97590874D01*
X138278216Y-97590873D01*
X138300499Y-97478846D01*
X138300500Y-97478844D01*
X138300500Y-97321155D01*
X138300499Y-97321153D01*
X138274353Y-97189711D01*
X138269737Y-97166503D01*
X138269735Y-97166498D01*
X138209397Y-97020827D01*
X138209390Y-97020814D01*
X138121789Y-96889711D01*
X138121786Y-96889707D01*
X138010292Y-96778213D01*
X138010288Y-96778210D01*
X137879185Y-96690609D01*
X137879172Y-96690602D01*
X137733501Y-96630264D01*
X137733489Y-96630261D01*
X137578845Y-96599500D01*
X137578842Y-96599500D01*
X137421158Y-96599500D01*
X137421155Y-96599500D01*
X137266510Y-96630261D01*
X137266498Y-96630264D01*
X137120827Y-96690602D01*
X137120814Y-96690609D01*
X137068891Y-96725304D01*
X137002214Y-96746182D01*
X136934833Y-96727698D01*
X136931109Y-96725304D01*
X136879185Y-96690609D01*
X136879172Y-96690602D01*
X136733501Y-96630264D01*
X136733491Y-96630261D01*
X136659638Y-96615571D01*
X136597728Y-96583186D01*
X136563153Y-96522470D01*
X136566893Y-96452701D01*
X136580728Y-96425063D01*
X136641632Y-96333914D01*
X136717051Y-96151835D01*
X136755500Y-95958541D01*
X136755500Y-95761459D01*
X136755500Y-95761456D01*
X136717052Y-95568170D01*
X136717051Y-95568169D01*
X136717051Y-95568165D01*
X136697842Y-95521789D01*
X136641635Y-95386092D01*
X136641628Y-95386079D01*
X136532139Y-95222218D01*
X136532136Y-95222214D01*
X136392785Y-95082863D01*
X136392781Y-95082860D01*
X136228920Y-94973371D01*
X136228907Y-94973364D01*
X136046839Y-94897950D01*
X136046829Y-94897947D01*
X135853543Y-94859500D01*
X135853541Y-94859500D01*
X135336333Y-94859500D01*
X135269294Y-94839815D01*
X135223539Y-94787011D01*
X135213595Y-94717853D01*
X135228947Y-94673499D01*
X135241278Y-94652140D01*
X135241277Y-94652140D01*
X135241281Y-94652135D01*
X135280500Y-94505766D01*
X135280500Y-94354234D01*
X135241281Y-94207865D01*
X135165515Y-94076635D01*
X135058365Y-93969485D01*
X134992750Y-93931602D01*
X134927136Y-93893719D01*
X134853950Y-93874109D01*
X134780766Y-93854500D01*
X134629234Y-93854500D01*
X134482863Y-93893719D01*
X134351635Y-93969485D01*
X134351632Y-93969487D01*
X134244487Y-94076632D01*
X134244485Y-94076635D01*
X134168719Y-94207863D01*
X134129500Y-94354234D01*
X134129500Y-94505765D01*
X134168719Y-94652136D01*
X134206661Y-94717853D01*
X134244485Y-94783365D01*
X134244486Y-94783366D01*
X134248549Y-94790403D01*
X134246220Y-94791747D01*
X134266645Y-94844584D01*
X134252603Y-94913029D01*
X134203787Y-94963016D01*
X134190528Y-94969456D01*
X134181094Y-94973363D01*
X134181079Y-94973371D01*
X134017218Y-95082860D01*
X134017214Y-95082863D01*
X133877863Y-95222214D01*
X133877860Y-95222218D01*
X133768371Y-95386079D01*
X133768364Y-95386092D01*
X133692950Y-95568160D01*
X133692947Y-95568170D01*
X133654500Y-95761456D01*
X133654500Y-95761459D01*
X133654500Y-95958541D01*
X133654500Y-95958543D01*
X133654499Y-95958543D01*
X132425500Y-95958543D01*
X132425500Y-95958541D01*
X132425500Y-95761459D01*
X132425500Y-95761456D01*
X132387052Y-95568170D01*
X132387051Y-95568169D01*
X132387051Y-95568165D01*
X132367842Y-95521789D01*
X132311635Y-95386092D01*
X132311628Y-95386079D01*
X132202139Y-95222218D01*
X132202136Y-95222214D01*
X132062785Y-95082863D01*
X132062781Y-95082860D01*
X131898920Y-94973371D01*
X131898907Y-94973364D01*
X131716839Y-94897950D01*
X131716829Y-94897947D01*
X131523543Y-94859500D01*
X131523541Y-94859500D01*
X130526459Y-94859500D01*
X130526457Y-94859500D01*
X130333170Y-94897947D01*
X130333160Y-94897950D01*
X130151092Y-94973364D01*
X130151079Y-94973371D01*
X129987218Y-95082860D01*
X129987214Y-95082863D01*
X129847863Y-95222214D01*
X129847860Y-95222218D01*
X129738371Y-95386079D01*
X129738364Y-95386092D01*
X129662950Y-95568160D01*
X129662947Y-95568170D01*
X129624500Y-95761456D01*
X129624500Y-95761459D01*
X129624500Y-95958541D01*
X129624500Y-95958543D01*
X129624499Y-95958543D01*
X128775500Y-95958543D01*
X128775500Y-90121153D01*
X136699500Y-90121153D01*
X136699500Y-90278846D01*
X136730261Y-90433489D01*
X136730264Y-90433501D01*
X136790602Y-90579172D01*
X136790609Y-90579185D01*
X136878210Y-90710288D01*
X136878213Y-90710292D01*
X136989707Y-90821786D01*
X136989711Y-90821789D01*
X137120814Y-90909390D01*
X137120827Y-90909397D01*
X137266498Y-90969735D01*
X137266503Y-90969737D01*
X137421153Y-91000499D01*
X137421156Y-91000500D01*
X137421158Y-91000500D01*
X137578844Y-91000500D01*
X137578845Y-91000499D01*
X137733497Y-90969737D01*
X137879179Y-90909394D01*
X138010289Y-90821789D01*
X138121789Y-90710289D01*
X138209394Y-90579179D01*
X138269737Y-90433497D01*
X138300500Y-90278842D01*
X138300500Y-90121158D01*
X138300500Y-90121155D01*
X138300499Y-90121153D01*
X138269738Y-89966510D01*
X138269737Y-89966503D01*
X138269735Y-89966498D01*
X138209397Y-89820827D01*
X138209390Y-89820814D01*
X138121789Y-89689711D01*
X138121786Y-89689707D01*
X138010292Y-89578213D01*
X138010288Y-89578210D01*
X137879185Y-89490609D01*
X137879172Y-89490602D01*
X137733501Y-89430264D01*
X137733489Y-89430261D01*
X137578845Y-89399500D01*
X137578842Y-89399500D01*
X137421158Y-89399500D01*
X137421155Y-89399500D01*
X137266510Y-89430261D01*
X137266498Y-89430264D01*
X137120827Y-89490602D01*
X137120814Y-89490609D01*
X136989711Y-89578210D01*
X136989707Y-89578213D01*
X136878213Y-89689707D01*
X136878210Y-89689711D01*
X136790609Y-89820814D01*
X136790602Y-89820827D01*
X136730264Y-89966498D01*
X136730261Y-89966510D01*
X136699500Y-90121153D01*
X128775500Y-90121153D01*
X128775500Y-87318543D01*
X129624499Y-87318543D01*
X129662947Y-87511829D01*
X129662950Y-87511839D01*
X129738364Y-87693907D01*
X129738371Y-87693920D01*
X129847860Y-87857781D01*
X129847863Y-87857785D01*
X129987214Y-87997136D01*
X129987218Y-87997139D01*
X130151079Y-88106628D01*
X130151092Y-88106635D01*
X130308436Y-88171808D01*
X130333165Y-88182051D01*
X130333169Y-88182051D01*
X130333170Y-88182052D01*
X130526456Y-88220500D01*
X130526459Y-88220500D01*
X131523543Y-88220500D01*
X131679462Y-88189485D01*
X131716835Y-88182051D01*
X131898914Y-88106632D01*
X132062782Y-87997139D01*
X132202139Y-87857782D01*
X132311632Y-87693914D01*
X132387051Y-87511835D01*
X132402150Y-87435928D01*
X132425500Y-87318543D01*
X133654499Y-87318543D01*
X133692947Y-87511829D01*
X133692950Y-87511839D01*
X133768364Y-87693907D01*
X133768371Y-87693920D01*
X133877860Y-87857781D01*
X133877863Y-87857785D01*
X134017214Y-87997136D01*
X134017218Y-87997139D01*
X134181079Y-88106628D01*
X134181083Y-88106630D01*
X134181086Y-88106632D01*
X134190523Y-88110541D01*
X134244927Y-88154378D01*
X134266995Y-88220672D01*
X134249719Y-88288372D01*
X134246565Y-88293032D01*
X134168719Y-88427863D01*
X134129500Y-88574234D01*
X134129500Y-88725765D01*
X134168719Y-88872136D01*
X134206602Y-88937750D01*
X134244485Y-89003365D01*
X134351635Y-89110515D01*
X134482865Y-89186281D01*
X134629234Y-89225500D01*
X134629236Y-89225500D01*
X134780764Y-89225500D01*
X134780766Y-89225500D01*
X134927135Y-89186281D01*
X135058365Y-89110515D01*
X135165515Y-89003365D01*
X135241281Y-88872135D01*
X135280500Y-88725766D01*
X135280500Y-88574234D01*
X135241281Y-88427865D01*
X135241278Y-88427859D01*
X135228947Y-88406501D01*
X135212473Y-88338602D01*
X135235325Y-88272574D01*
X135290245Y-88229383D01*
X135336333Y-88220500D01*
X135853543Y-88220500D01*
X136009462Y-88189485D01*
X136046835Y-88182051D01*
X136228914Y-88106632D01*
X136392782Y-87997139D01*
X136468768Y-87921153D01*
X136899500Y-87921153D01*
X136899500Y-88078846D01*
X136930261Y-88233489D01*
X136930264Y-88233501D01*
X136990602Y-88379172D01*
X136990609Y-88379185D01*
X137078210Y-88510288D01*
X137078213Y-88510292D01*
X137189707Y-88621786D01*
X137189711Y-88621789D01*
X137320814Y-88709390D01*
X137320827Y-88709397D01*
X137466498Y-88769735D01*
X137466503Y-88769737D01*
X137621153Y-88800499D01*
X137621156Y-88800500D01*
X137621158Y-88800500D01*
X137778844Y-88800500D01*
X137778845Y-88800499D01*
X137933497Y-88769737D01*
X138079179Y-88709394D01*
X138210289Y-88621789D01*
X138321789Y-88510289D01*
X138409394Y-88379179D01*
X138469737Y-88233497D01*
X138500500Y-88078842D01*
X138500500Y-87921158D01*
X138500500Y-87921155D01*
X138500499Y-87921153D01*
X138487894Y-87857785D01*
X138469737Y-87766503D01*
X138455912Y-87733127D01*
X138409397Y-87620827D01*
X138409390Y-87620814D01*
X138321789Y-87489711D01*
X138321786Y-87489707D01*
X138210292Y-87378213D01*
X138210288Y-87378210D01*
X138079185Y-87290609D01*
X138079172Y-87290602D01*
X137933501Y-87230264D01*
X137933489Y-87230261D01*
X137778845Y-87199500D01*
X137778842Y-87199500D01*
X137621158Y-87199500D01*
X137621155Y-87199500D01*
X137466510Y-87230261D01*
X137466498Y-87230264D01*
X137320827Y-87290602D01*
X137320814Y-87290609D01*
X137189711Y-87378210D01*
X137189707Y-87378213D01*
X137078213Y-87489707D01*
X137078210Y-87489711D01*
X136990609Y-87620814D01*
X136990602Y-87620827D01*
X136930264Y-87766498D01*
X136930261Y-87766510D01*
X136899500Y-87921153D01*
X136468768Y-87921153D01*
X136532139Y-87857782D01*
X136556845Y-87820808D01*
X136641628Y-87693920D01*
X136641628Y-87693919D01*
X136641632Y-87693914D01*
X136717051Y-87511835D01*
X136732150Y-87435928D01*
X136755500Y-87318543D01*
X136755500Y-87121456D01*
X136717052Y-86928170D01*
X136717051Y-86928169D01*
X136717051Y-86928165D01*
X136717049Y-86928160D01*
X136641635Y-86746092D01*
X136641628Y-86746079D01*
X136532139Y-86582218D01*
X136532136Y-86582214D01*
X136392785Y-86442863D01*
X136392781Y-86442860D01*
X136228920Y-86333371D01*
X136228907Y-86333364D01*
X136046839Y-86257950D01*
X136046829Y-86257947D01*
X135853543Y-86219500D01*
X135853541Y-86219500D01*
X134556459Y-86219500D01*
X134556457Y-86219500D01*
X134363170Y-86257947D01*
X134363160Y-86257950D01*
X134181092Y-86333364D01*
X134181079Y-86333371D01*
X134017218Y-86442860D01*
X134017214Y-86442863D01*
X133877863Y-86582214D01*
X133877860Y-86582218D01*
X133768371Y-86746079D01*
X133768364Y-86746092D01*
X133692950Y-86928160D01*
X133692947Y-86928170D01*
X133654500Y-87121456D01*
X133654500Y-87121459D01*
X133654500Y-87318541D01*
X133654500Y-87318543D01*
X133654499Y-87318543D01*
X132425500Y-87318543D01*
X132425500Y-87121456D01*
X132387052Y-86928170D01*
X132387051Y-86928169D01*
X132387051Y-86928165D01*
X132387049Y-86928160D01*
X132311635Y-86746092D01*
X132311628Y-86746079D01*
X132202139Y-86582218D01*
X132202136Y-86582214D01*
X132062785Y-86442863D01*
X132062781Y-86442860D01*
X131898920Y-86333371D01*
X131898907Y-86333364D01*
X131716839Y-86257950D01*
X131716829Y-86257947D01*
X131523543Y-86219500D01*
X131523541Y-86219500D01*
X130526459Y-86219500D01*
X130526457Y-86219500D01*
X130333170Y-86257947D01*
X130333160Y-86257950D01*
X130151092Y-86333364D01*
X130151079Y-86333371D01*
X129987218Y-86442860D01*
X129987214Y-86442863D01*
X129847863Y-86582214D01*
X129847860Y-86582218D01*
X129738371Y-86746079D01*
X129738364Y-86746092D01*
X129662950Y-86928160D01*
X129662947Y-86928170D01*
X129624500Y-87121456D01*
X129624500Y-87121459D01*
X129624500Y-87318541D01*
X129624500Y-87318543D01*
X129624499Y-87318543D01*
X128775500Y-87318543D01*
X128775500Y-78121153D01*
X135399500Y-78121153D01*
X135399500Y-78278846D01*
X135430261Y-78433489D01*
X135430264Y-78433501D01*
X135490602Y-78579172D01*
X135490609Y-78579185D01*
X135578210Y-78710288D01*
X135578213Y-78710292D01*
X135689707Y-78821786D01*
X135689711Y-78821789D01*
X135820814Y-78909390D01*
X135820827Y-78909397D01*
X135966498Y-78969735D01*
X135966503Y-78969737D01*
X136121153Y-79000499D01*
X136121156Y-79000500D01*
X136121158Y-79000500D01*
X136278844Y-79000500D01*
X136278845Y-79000499D01*
X136433497Y-78969737D01*
X136579179Y-78909394D01*
X136710289Y-78821789D01*
X136821789Y-78710289D01*
X136909394Y-78579179D01*
X136969737Y-78433497D01*
X137000500Y-78278842D01*
X137000500Y-78121158D01*
X137000500Y-78121155D01*
X137000499Y-78121153D01*
X136978447Y-78010292D01*
X136969737Y-77966503D01*
X136933569Y-77879185D01*
X136909397Y-77820827D01*
X136909390Y-77820814D01*
X136821789Y-77689711D01*
X136821786Y-77689707D01*
X136710292Y-77578213D01*
X136710288Y-77578210D01*
X136579185Y-77490609D01*
X136579172Y-77490602D01*
X136433501Y-77430264D01*
X136433489Y-77430261D01*
X136278845Y-77399500D01*
X136278842Y-77399500D01*
X136121158Y-77399500D01*
X136121155Y-77399500D01*
X135966510Y-77430261D01*
X135966498Y-77430264D01*
X135820827Y-77490602D01*
X135820814Y-77490609D01*
X135689711Y-77578210D01*
X135689707Y-77578213D01*
X135578213Y-77689707D01*
X135578210Y-77689711D01*
X135490609Y-77820814D01*
X135490602Y-77820827D01*
X135430264Y-77966498D01*
X135430261Y-77966510D01*
X135399500Y-78121153D01*
X128775500Y-78121153D01*
X128775500Y-75721153D01*
X135399500Y-75721153D01*
X135399500Y-75878846D01*
X135430261Y-76033489D01*
X135430264Y-76033501D01*
X135490602Y-76179172D01*
X135490609Y-76179185D01*
X135578210Y-76310288D01*
X135578213Y-76310292D01*
X135689707Y-76421786D01*
X135689711Y-76421789D01*
X135820814Y-76509390D01*
X135820827Y-76509397D01*
X135966498Y-76569735D01*
X135966503Y-76569737D01*
X136121153Y-76600499D01*
X136121156Y-76600500D01*
X136121158Y-76600500D01*
X136278844Y-76600500D01*
X136278845Y-76600499D01*
X136433497Y-76569737D01*
X136579179Y-76509394D01*
X136710289Y-76421789D01*
X136821789Y-76310289D01*
X136909394Y-76179179D01*
X136969737Y-76033497D01*
X137000500Y-75878842D01*
X137000500Y-75721158D01*
X137000500Y-75721155D01*
X137000499Y-75721153D01*
X136969738Y-75566510D01*
X136969737Y-75566503D01*
X136964629Y-75554172D01*
X136909397Y-75420827D01*
X136909390Y-75420814D01*
X136821789Y-75289711D01*
X136821786Y-75289707D01*
X136710292Y-75178213D01*
X136710288Y-75178210D01*
X136579185Y-75090609D01*
X136579172Y-75090602D01*
X136433501Y-75030264D01*
X136433489Y-75030261D01*
X136278845Y-74999500D01*
X136278842Y-74999500D01*
X136121158Y-74999500D01*
X136121155Y-74999500D01*
X135966510Y-75030261D01*
X135966498Y-75030264D01*
X135820827Y-75090602D01*
X135820814Y-75090609D01*
X135689711Y-75178210D01*
X135689707Y-75178213D01*
X135578213Y-75289707D01*
X135578210Y-75289711D01*
X135490609Y-75420814D01*
X135490602Y-75420827D01*
X135430264Y-75566498D01*
X135430261Y-75566510D01*
X135399500Y-75721153D01*
X128775500Y-75721153D01*
X128775500Y-69122070D01*
X130274500Y-69122070D01*
X130274500Y-69377929D01*
X130314526Y-69630640D01*
X130393588Y-69873972D01*
X130393589Y-69873975D01*
X130472533Y-70028910D01*
X130508501Y-70099500D01*
X130509750Y-70101950D01*
X130660132Y-70308935D01*
X130660136Y-70308940D01*
X130841059Y-70489863D01*
X130841064Y-70489867D01*
X130898961Y-70531931D01*
X131048053Y-70640252D01*
X131145418Y-70689862D01*
X131276024Y-70756410D01*
X131276027Y-70756411D01*
X131397693Y-70795942D01*
X131519361Y-70835474D01*
X131772070Y-70875500D01*
X131772071Y-70875500D01*
X132027929Y-70875500D01*
X132027930Y-70875500D01*
X132280639Y-70835474D01*
X132523975Y-70756410D01*
X132751947Y-70640252D01*
X132958942Y-70489862D01*
X133139862Y-70308942D01*
X133290252Y-70101947D01*
X133406410Y-69873975D01*
X133485474Y-69630639D01*
X133525500Y-69377930D01*
X133525500Y-69122070D01*
X133485474Y-68869361D01*
X133406410Y-68626025D01*
X133406410Y-68626024D01*
X133366185Y-68547080D01*
X133290252Y-68398053D01*
X133271038Y-68371607D01*
X133139867Y-68191064D01*
X133139863Y-68191059D01*
X132958940Y-68010136D01*
X132958935Y-68010132D01*
X132751950Y-67859750D01*
X132751949Y-67859749D01*
X132751947Y-67859748D01*
X132678910Y-67822533D01*
X132523975Y-67743589D01*
X132523972Y-67743588D01*
X132280640Y-67664526D01*
X132154284Y-67644513D01*
X132027930Y-67624500D01*
X131772070Y-67624500D01*
X131687833Y-67637842D01*
X131519359Y-67664526D01*
X131276027Y-67743588D01*
X131276024Y-67743589D01*
X131048049Y-67859750D01*
X130841064Y-68010132D01*
X130841059Y-68010136D01*
X130660136Y-68191059D01*
X130660132Y-68191064D01*
X130509750Y-68398049D01*
X130393589Y-68626024D01*
X130393588Y-68626027D01*
X130314526Y-68869359D01*
X130274500Y-69122070D01*
X128775500Y-69122070D01*
X128775500Y-61577135D01*
X130274500Y-61577135D01*
X130274500Y-63922870D01*
X130274501Y-63922876D01*
X130280908Y-63982483D01*
X130331202Y-64117328D01*
X130331206Y-64117335D01*
X130417452Y-64232544D01*
X130417455Y-64232547D01*
X130532664Y-64318793D01*
X130532671Y-64318797D01*
X130667517Y-64369091D01*
X130667516Y-64369091D01*
X130674444Y-64369835D01*
X130727127Y-64375500D01*
X133072872Y-64375499D01*
X133132483Y-64369091D01*
X133267331Y-64318796D01*
X133382546Y-64232546D01*
X133468796Y-64117331D01*
X133519091Y-63982483D01*
X133525500Y-63922873D01*
X133525499Y-61577128D01*
X133519330Y-61519737D01*
X133519091Y-61517516D01*
X133468797Y-61382671D01*
X133468793Y-61382664D01*
X133382547Y-61267455D01*
X133382544Y-61267452D01*
X133267335Y-61181206D01*
X133267328Y-61181202D01*
X133132482Y-61130908D01*
X133132483Y-61130908D01*
X133072883Y-61124501D01*
X133072881Y-61124500D01*
X133072873Y-61124500D01*
X133072864Y-61124500D01*
X130727129Y-61124500D01*
X130727123Y-61124501D01*
X130667516Y-61130908D01*
X130532671Y-61181202D01*
X130532664Y-61181206D01*
X130417455Y-61267452D01*
X130417452Y-61267455D01*
X130331206Y-61382664D01*
X130331202Y-61382671D01*
X130280908Y-61517517D01*
X130274501Y-61577116D01*
X130274501Y-61577123D01*
X130274500Y-61577135D01*
X128775500Y-61577135D01*
X128775500Y-60321153D01*
X133699500Y-60321153D01*
X133699500Y-60478846D01*
X133730261Y-60633489D01*
X133730264Y-60633501D01*
X133790602Y-60779172D01*
X133790609Y-60779185D01*
X133878210Y-60910288D01*
X133878213Y-60910292D01*
X133989707Y-61021786D01*
X133989711Y-61021789D01*
X134120814Y-61109390D01*
X134120827Y-61109397D01*
X134189112Y-61137681D01*
X134266503Y-61169737D01*
X134421153Y-61200499D01*
X134421156Y-61200500D01*
X134421158Y-61200500D01*
X134578844Y-61200500D01*
X134578845Y-61200499D01*
X134733497Y-61169737D01*
X134846166Y-61123067D01*
X134879172Y-61109397D01*
X134879172Y-61109396D01*
X134879179Y-61109394D01*
X135010289Y-61021789D01*
X135121789Y-60910289D01*
X135129145Y-60899279D01*
X135146898Y-60872712D01*
X135166686Y-60856173D01*
X135183719Y-60836803D01*
X135193057Y-60834134D01*
X135200510Y-60827906D01*
X135226100Y-60824691D01*
X135250900Y-60817605D01*
X135260199Y-60820409D01*
X135269835Y-60819199D01*
X135293099Y-60830329D01*
X135317795Y-60837776D01*
X135326342Y-60846234D01*
X135332862Y-60849353D01*
X135344300Y-60861081D01*
X135349041Y-60866634D01*
X135378211Y-60910289D01*
X135433691Y-60965769D01*
X135436859Y-60969479D01*
X135449230Y-60997096D01*
X135463725Y-61023642D01*
X135463366Y-61028655D01*
X135465422Y-61033244D01*
X135460898Y-61063160D01*
X135458741Y-61093334D01*
X135455597Y-61098225D01*
X135454977Y-61102328D01*
X135447483Y-61110849D01*
X135430240Y-61137681D01*
X135378213Y-61189707D01*
X135378210Y-61189711D01*
X135290609Y-61320814D01*
X135290602Y-61320827D01*
X135230264Y-61466498D01*
X135230261Y-61466510D01*
X135199500Y-61621153D01*
X135199500Y-61778846D01*
X135230261Y-61933489D01*
X135230264Y-61933501D01*
X135290602Y-62079172D01*
X135290609Y-62079185D01*
X135378210Y-62210288D01*
X135378213Y-62210292D01*
X135480240Y-62312319D01*
X135513725Y-62373642D01*
X135508741Y-62443334D01*
X135480240Y-62487681D01*
X135378213Y-62589707D01*
X135378210Y-62589711D01*
X135290609Y-62720814D01*
X135290602Y-62720827D01*
X135230264Y-62866498D01*
X135230261Y-62866510D01*
X135199500Y-63021153D01*
X135199500Y-63178846D01*
X135230261Y-63333489D01*
X135230264Y-63333501D01*
X135290602Y-63479172D01*
X135290609Y-63479185D01*
X135378210Y-63610288D01*
X135378213Y-63610292D01*
X135480240Y-63712319D01*
X135513725Y-63773642D01*
X135508741Y-63843334D01*
X135481999Y-63884947D01*
X135482072Y-63885007D01*
X135481559Y-63885630D01*
X135480247Y-63887674D01*
X135478215Y-63889706D01*
X135478208Y-63889714D01*
X135390609Y-64020814D01*
X135390602Y-64020827D01*
X135330264Y-64166498D01*
X135330261Y-64166510D01*
X135299500Y-64321153D01*
X135299500Y-64478846D01*
X135330261Y-64633489D01*
X135332031Y-64639324D01*
X135329279Y-64640158D01*
X135335503Y-64697359D01*
X135304309Y-64759878D01*
X135244266Y-64795608D01*
X135213445Y-64799500D01*
X135121155Y-64799500D01*
X134966510Y-64830261D01*
X134966498Y-64830264D01*
X134820827Y-64890602D01*
X134820814Y-64890609D01*
X134689711Y-64978210D01*
X134689707Y-64978213D01*
X134578213Y-65089707D01*
X134578210Y-65089711D01*
X134490609Y-65220814D01*
X134490602Y-65220827D01*
X134430264Y-65366498D01*
X134430261Y-65366510D01*
X134399500Y-65521153D01*
X134399500Y-65678846D01*
X134430261Y-65833489D01*
X134430264Y-65833501D01*
X134490602Y-65979172D01*
X134490609Y-65979185D01*
X134578210Y-66110288D01*
X134578213Y-66110292D01*
X134689707Y-66221786D01*
X134689711Y-66221789D01*
X134820814Y-66309390D01*
X134820827Y-66309397D01*
X134966498Y-66369735D01*
X134966503Y-66369737D01*
X135121153Y-66400499D01*
X135121156Y-66400500D01*
X135121158Y-66400500D01*
X135278844Y-66400500D01*
X135278845Y-66400499D01*
X135433497Y-66369737D01*
X135579179Y-66309394D01*
X135710289Y-66221789D01*
X135821789Y-66110289D01*
X135909394Y-65979179D01*
X135969737Y-65833497D01*
X136000500Y-65678842D01*
X136000500Y-65521158D01*
X136000500Y-65521155D01*
X136000499Y-65521153D01*
X135969738Y-65366510D01*
X135969737Y-65366503D01*
X135969732Y-65366492D01*
X135967969Y-65360676D01*
X135970720Y-65359841D01*
X135964497Y-65302641D01*
X135995691Y-65240122D01*
X136055734Y-65204392D01*
X136086555Y-65200500D01*
X136178844Y-65200500D01*
X136178845Y-65200499D01*
X136333497Y-65169737D01*
X136479179Y-65109394D01*
X136610289Y-65021789D01*
X136721789Y-64910289D01*
X136809394Y-64779179D01*
X136869737Y-64633497D01*
X136900500Y-64478842D01*
X136900500Y-64321158D01*
X136900500Y-64321155D01*
X136900499Y-64321153D01*
X136882873Y-64232544D01*
X136869737Y-64166503D01*
X136849371Y-64117335D01*
X136809397Y-64020827D01*
X136809390Y-64020814D01*
X136721789Y-63889711D01*
X136721786Y-63889707D01*
X136619759Y-63787680D01*
X136586274Y-63726357D01*
X136591258Y-63656665D01*
X136618002Y-63615054D01*
X136617928Y-63614993D01*
X136618454Y-63614351D01*
X136619764Y-63612313D01*
X136621789Y-63610289D01*
X136709394Y-63479179D01*
X136769737Y-63333497D01*
X136800500Y-63178842D01*
X136800500Y-63021158D01*
X136800500Y-63021155D01*
X136800499Y-63021153D01*
X136769738Y-62866510D01*
X136769737Y-62866503D01*
X136769735Y-62866498D01*
X136709397Y-62720827D01*
X136709390Y-62720814D01*
X136620539Y-62587840D01*
X136599661Y-62521163D01*
X136618145Y-62453782D01*
X136670124Y-62407092D01*
X136739094Y-62395916D01*
X136803158Y-62423801D01*
X136811322Y-62431268D01*
X138062181Y-63682127D01*
X138095666Y-63743450D01*
X138098500Y-63769808D01*
X138098500Y-80713069D01*
X138105946Y-80750499D01*
X138105946Y-80750502D01*
X138123497Y-80838736D01*
X138123499Y-80838744D01*
X138172534Y-80957125D01*
X138243726Y-81063673D01*
X138243727Y-81063674D01*
X145264181Y-88084127D01*
X145297666Y-88145450D01*
X145300500Y-88171808D01*
X145300500Y-93981953D01*
X145280815Y-94048992D01*
X145228011Y-94094747D01*
X145200692Y-94103570D01*
X145066508Y-94130261D01*
X145066498Y-94130264D01*
X144920827Y-94190602D01*
X144920814Y-94190609D01*
X144789711Y-94278210D01*
X144789707Y-94278213D01*
X144678213Y-94389707D01*
X144678210Y-94389711D01*
X144590609Y-94520814D01*
X144590602Y-94520827D01*
X144530264Y-94666498D01*
X144530261Y-94666510D01*
X144499500Y-94821153D01*
X144499500Y-94978846D01*
X144530261Y-95133489D01*
X144530264Y-95133501D01*
X144590602Y-95279172D01*
X144590609Y-95279185D01*
X144678210Y-95410288D01*
X144678213Y-95410292D01*
X144789707Y-95521786D01*
X144789711Y-95521789D01*
X144920814Y-95609390D01*
X144920827Y-95609397D01*
X145066498Y-95669735D01*
X145066503Y-95669737D01*
X145160645Y-95688463D01*
X145200691Y-95696429D01*
X145262602Y-95728814D01*
X145297176Y-95789529D01*
X145300500Y-95818046D01*
X145300500Y-97828191D01*
X145291855Y-97857631D01*
X145285332Y-97887618D01*
X145281577Y-97892633D01*
X145280815Y-97895230D01*
X145264181Y-97915873D01*
X145097068Y-98082985D01*
X145035745Y-98116469D01*
X145033579Y-98116920D01*
X144966508Y-98130261D01*
X144966498Y-98130264D01*
X144820827Y-98190602D01*
X144820814Y-98190609D01*
X144689711Y-98278210D01*
X144689707Y-98278213D01*
X144578213Y-98389707D01*
X144578210Y-98389711D01*
X144490609Y-98520814D01*
X144490602Y-98520827D01*
X144430264Y-98666498D01*
X144430261Y-98666510D01*
X144399500Y-98821153D01*
X144399500Y-98978846D01*
X144430261Y-99133489D01*
X144430264Y-99133501D01*
X144490602Y-99279172D01*
X144490609Y-99279185D01*
X144578210Y-99410288D01*
X144578213Y-99410292D01*
X144689707Y-99521786D01*
X144689711Y-99521789D01*
X144820814Y-99609390D01*
X144820827Y-99609397D01*
X144966498Y-99669735D01*
X144966503Y-99669737D01*
X145121153Y-99700499D01*
X145121156Y-99700500D01*
X145121158Y-99700500D01*
X145278844Y-99700500D01*
X145278845Y-99700499D01*
X145433497Y-99669737D01*
X145579179Y-99609394D01*
X145710289Y-99521789D01*
X145821789Y-99410289D01*
X145909394Y-99279179D01*
X145969737Y-99133497D01*
X145983079Y-99066416D01*
X146015463Y-99004509D01*
X146016904Y-99003040D01*
X146456276Y-98563670D01*
X146519039Y-98469738D01*
X146527464Y-98457129D01*
X146547235Y-98409397D01*
X146576501Y-98338744D01*
X146594253Y-98249500D01*
X146601500Y-98213069D01*
X146601500Y-87786931D01*
X146601500Y-87786928D01*
X146576502Y-87661261D01*
X146576501Y-87661260D01*
X146576501Y-87661256D01*
X146527465Y-87542873D01*
X146495293Y-87494724D01*
X146456277Y-87436331D01*
X145022127Y-86002181D01*
X144988642Y-85940858D01*
X144993626Y-85871166D01*
X145035498Y-85815233D01*
X145100962Y-85790816D01*
X145109808Y-85790500D01*
X145188844Y-85790500D01*
X145188845Y-85790499D01*
X145343497Y-85759737D01*
X145489179Y-85699394D01*
X145620289Y-85611789D01*
X145718386Y-85513691D01*
X145779707Y-85480208D01*
X145849399Y-85485192D01*
X145893747Y-85513693D01*
X148113181Y-87733127D01*
X148146666Y-87794450D01*
X148149500Y-87820808D01*
X148149500Y-100079191D01*
X148129815Y-100146230D01*
X148113181Y-100166872D01*
X145247068Y-103032984D01*
X145185745Y-103066469D01*
X145183579Y-103066920D01*
X145116508Y-103080261D01*
X145116498Y-103080264D01*
X144970827Y-103140602D01*
X144970814Y-103140609D01*
X144839711Y-103228210D01*
X144839707Y-103228213D01*
X144728213Y-103339707D01*
X144728210Y-103339711D01*
X144640609Y-103470814D01*
X144640602Y-103470827D01*
X144580264Y-103616498D01*
X144580261Y-103616510D01*
X144549500Y-103771153D01*
X144549500Y-103928846D01*
X144580261Y-104083489D01*
X144580264Y-104083501D01*
X144640602Y-104229172D01*
X144640609Y-104229185D01*
X144728210Y-104360288D01*
X144728213Y-104360292D01*
X144839707Y-104471786D01*
X144839711Y-104471789D01*
X144970814Y-104559390D01*
X144970827Y-104559397D01*
X145114523Y-104618917D01*
X145116503Y-104619737D01*
X145271153Y-104650499D01*
X145271156Y-104650500D01*
X145271158Y-104650500D01*
X145428844Y-104650500D01*
X145428845Y-104650499D01*
X145583497Y-104619737D01*
X145729179Y-104559394D01*
X145860289Y-104471789D01*
X145971789Y-104360289D01*
X146059394Y-104229179D01*
X146119737Y-104083497D01*
X146133079Y-104016416D01*
X146165463Y-103954509D01*
X146166959Y-103952985D01*
X149305277Y-100814669D01*
X149376465Y-100708127D01*
X149425501Y-100589743D01*
X149450500Y-100464069D01*
X149450500Y-87435931D01*
X149450500Y-87435928D01*
X149425502Y-87310261D01*
X149425501Y-87310260D01*
X149425501Y-87310256D01*
X149376465Y-87191873D01*
X149376464Y-87191870D01*
X149305277Y-87085331D01*
X149305271Y-87085324D01*
X145556142Y-83336196D01*
X145522657Y-83274873D01*
X145527641Y-83205181D01*
X145569513Y-83149248D01*
X145574896Y-83145437D01*
X145610289Y-83121789D01*
X145721789Y-83010289D01*
X145809394Y-82879179D01*
X145869737Y-82733497D01*
X145900500Y-82578842D01*
X145900500Y-82421158D01*
X145900500Y-82421155D01*
X145900499Y-82421153D01*
X145869738Y-82266510D01*
X145869737Y-82266503D01*
X145869735Y-82266498D01*
X145809397Y-82120827D01*
X145809390Y-82120814D01*
X145721789Y-81989711D01*
X145721786Y-81989707D01*
X145610292Y-81878213D01*
X145610288Y-81878210D01*
X145479185Y-81790609D01*
X145479172Y-81790602D01*
X145333501Y-81730264D01*
X145333489Y-81730261D01*
X145178845Y-81699500D01*
X145178842Y-81699500D01*
X145021158Y-81699500D01*
X145021155Y-81699500D01*
X144866510Y-81730261D01*
X144866498Y-81730264D01*
X144720827Y-81790602D01*
X144720814Y-81790609D01*
X144589711Y-81878210D01*
X144589707Y-81878213D01*
X144478213Y-81989707D01*
X144454586Y-82025068D01*
X144400973Y-82069872D01*
X144331648Y-82078579D01*
X144268621Y-82048424D01*
X144263803Y-82043857D01*
X142086819Y-79866873D01*
X142053334Y-79805550D01*
X142050500Y-79779192D01*
X142050500Y-77421153D01*
X144899500Y-77421153D01*
X144899500Y-77578846D01*
X144930261Y-77733489D01*
X144930264Y-77733501D01*
X144990602Y-77879172D01*
X144990609Y-77879185D01*
X145078210Y-78010288D01*
X145078213Y-78010292D01*
X145189707Y-78121786D01*
X145189711Y-78121789D01*
X145320814Y-78209390D01*
X145320827Y-78209397D01*
X145466498Y-78269735D01*
X145466503Y-78269737D01*
X145621153Y-78300499D01*
X145621156Y-78300500D01*
X145621158Y-78300500D01*
X145778844Y-78300500D01*
X145778845Y-78300499D01*
X145933497Y-78269737D01*
X146079179Y-78209394D01*
X146210289Y-78121789D01*
X146321789Y-78010289D01*
X146409394Y-77879179D01*
X146469737Y-77733497D01*
X146500500Y-77578842D01*
X146500500Y-77421158D01*
X146500500Y-77421155D01*
X146500499Y-77421153D01*
X146469738Y-77266510D01*
X146469737Y-77266503D01*
X146469735Y-77266498D01*
X146409397Y-77120827D01*
X146409390Y-77120814D01*
X146321789Y-76989711D01*
X146321786Y-76989707D01*
X146210292Y-76878213D01*
X146210288Y-76878210D01*
X146079185Y-76790609D01*
X146079172Y-76790602D01*
X145933501Y-76730264D01*
X145933489Y-76730261D01*
X145778845Y-76699500D01*
X145778842Y-76699500D01*
X145621158Y-76699500D01*
X145621155Y-76699500D01*
X145466510Y-76730261D01*
X145466498Y-76730264D01*
X145320827Y-76790602D01*
X145320814Y-76790609D01*
X145189711Y-76878210D01*
X145189707Y-76878213D01*
X145078213Y-76989707D01*
X145078210Y-76989711D01*
X144990609Y-77120814D01*
X144990602Y-77120827D01*
X144930264Y-77266498D01*
X144930261Y-77266510D01*
X144899500Y-77421153D01*
X142050500Y-77421153D01*
X142050500Y-73846153D01*
X157699500Y-73846153D01*
X157699500Y-74003846D01*
X157730261Y-74158489D01*
X157730264Y-74158501D01*
X157790602Y-74304172D01*
X157790609Y-74304185D01*
X157878210Y-74435288D01*
X157878213Y-74435292D01*
X157905240Y-74462319D01*
X157938725Y-74523642D01*
X157933741Y-74593334D01*
X157905240Y-74637681D01*
X157878213Y-74664707D01*
X157878210Y-74664711D01*
X157790609Y-74795814D01*
X157790602Y-74795827D01*
X157730264Y-74941498D01*
X157730261Y-74941510D01*
X157699500Y-75096153D01*
X157699500Y-75253846D01*
X157730261Y-75408489D01*
X157730264Y-75408501D01*
X157790602Y-75554172D01*
X157790609Y-75554185D01*
X157878210Y-75685288D01*
X157878213Y-75685292D01*
X157989707Y-75796786D01*
X157989711Y-75796789D01*
X158120814Y-75884390D01*
X158120827Y-75884397D01*
X158266498Y-75944735D01*
X158266503Y-75944737D01*
X158421153Y-75975499D01*
X158421156Y-75975500D01*
X158421158Y-75975500D01*
X158578844Y-75975500D01*
X158578845Y-75975499D01*
X158733497Y-75944737D01*
X158879179Y-75884394D01*
X159010289Y-75796789D01*
X159121789Y-75685289D01*
X159209394Y-75554179D01*
X159269737Y-75408497D01*
X159300500Y-75253842D01*
X159300500Y-75096158D01*
X159300500Y-75096155D01*
X159300499Y-75096153D01*
X159287393Y-75030264D01*
X159269737Y-74941503D01*
X159269735Y-74941498D01*
X159209397Y-74795827D01*
X159209390Y-74795814D01*
X159121789Y-74664711D01*
X159121786Y-74664707D01*
X159094760Y-74637681D01*
X159061275Y-74576358D01*
X159066259Y-74506666D01*
X159094760Y-74462319D01*
X159121786Y-74435292D01*
X159121789Y-74435289D01*
X159209394Y-74304179D01*
X159269737Y-74158497D01*
X159300500Y-74003842D01*
X159300500Y-73846158D01*
X159300500Y-73846155D01*
X159300499Y-73846153D01*
X159269738Y-73691510D01*
X159269737Y-73691503D01*
X159269735Y-73691498D01*
X159209397Y-73545827D01*
X159209390Y-73545814D01*
X159121789Y-73414711D01*
X159121786Y-73414707D01*
X159010292Y-73303213D01*
X159010288Y-73303210D01*
X158879185Y-73215609D01*
X158879172Y-73215602D01*
X158733501Y-73155264D01*
X158733489Y-73155261D01*
X158578845Y-73124500D01*
X158578842Y-73124500D01*
X158421158Y-73124500D01*
X158421155Y-73124500D01*
X158266510Y-73155261D01*
X158266498Y-73155264D01*
X158120827Y-73215602D01*
X158120814Y-73215609D01*
X157989711Y-73303210D01*
X157989707Y-73303213D01*
X157878213Y-73414707D01*
X157878210Y-73414711D01*
X157790609Y-73545814D01*
X157790602Y-73545827D01*
X157730264Y-73691498D01*
X157730261Y-73691510D01*
X157699500Y-73846153D01*
X142050500Y-73846153D01*
X142050500Y-72017648D01*
X142070185Y-71950609D01*
X142122989Y-71904854D01*
X142192147Y-71894910D01*
X142198672Y-71896027D01*
X142221158Y-71900500D01*
X142378844Y-71900500D01*
X142378845Y-71900499D01*
X142533497Y-71869737D01*
X142679179Y-71809394D01*
X142810289Y-71721789D01*
X142862343Y-71669735D01*
X142926097Y-71605982D01*
X142927022Y-71606907D01*
X142979187Y-71571367D01*
X143049032Y-71569489D01*
X143086198Y-71586260D01*
X143117099Y-71606907D01*
X143120821Y-71609394D01*
X143120823Y-71609395D01*
X143120827Y-71609397D01*
X143266498Y-71669735D01*
X143266503Y-71669737D01*
X143421153Y-71700499D01*
X143421156Y-71700500D01*
X143421158Y-71700500D01*
X143578844Y-71700500D01*
X143578845Y-71700499D01*
X143733497Y-71669737D01*
X143879179Y-71609394D01*
X144010289Y-71521789D01*
X144021790Y-71510288D01*
X144062319Y-71469760D01*
X144123642Y-71436275D01*
X144193334Y-71441259D01*
X144237681Y-71469760D01*
X144289707Y-71521786D01*
X144289711Y-71521789D01*
X144420814Y-71609390D01*
X144420827Y-71609397D01*
X144566498Y-71669735D01*
X144566503Y-71669737D01*
X144721153Y-71700499D01*
X144721156Y-71700500D01*
X144721158Y-71700500D01*
X144878844Y-71700500D01*
X144878845Y-71700499D01*
X145033497Y-71669737D01*
X145179179Y-71609394D01*
X145310289Y-71521789D01*
X145421789Y-71410289D01*
X145509394Y-71279179D01*
X145569737Y-71133497D01*
X145600500Y-70978842D01*
X145600500Y-70921153D01*
X146499500Y-70921153D01*
X146499500Y-71078846D01*
X146530261Y-71233489D01*
X146530264Y-71233501D01*
X146590602Y-71379172D01*
X146590609Y-71379185D01*
X146678210Y-71510288D01*
X146678213Y-71510292D01*
X146789707Y-71621786D01*
X146789711Y-71621789D01*
X146920814Y-71709390D01*
X146920827Y-71709397D01*
X147066498Y-71769735D01*
X147066503Y-71769737D01*
X147221153Y-71800499D01*
X147221156Y-71800500D01*
X147221158Y-71800500D01*
X147378844Y-71800500D01*
X147378845Y-71800499D01*
X147533497Y-71769737D01*
X147679179Y-71709394D01*
X147810289Y-71621789D01*
X147826096Y-71605982D01*
X147862319Y-71569760D01*
X147923642Y-71536275D01*
X147993334Y-71541259D01*
X148037681Y-71569760D01*
X148089707Y-71621786D01*
X148089711Y-71621789D01*
X148220814Y-71709390D01*
X148220827Y-71709397D01*
X148366498Y-71769735D01*
X148366503Y-71769737D01*
X148521153Y-71800499D01*
X148521156Y-71800500D01*
X148521158Y-71800500D01*
X148678844Y-71800500D01*
X148678845Y-71800499D01*
X148833497Y-71769737D01*
X148979179Y-71709394D01*
X149110289Y-71621789D01*
X149126096Y-71605982D01*
X149162319Y-71569760D01*
X149223642Y-71536275D01*
X149293334Y-71541259D01*
X149337681Y-71569760D01*
X149389707Y-71621786D01*
X149389711Y-71621789D01*
X149520814Y-71709390D01*
X149520827Y-71709397D01*
X149666498Y-71769735D01*
X149666503Y-71769737D01*
X149821153Y-71800499D01*
X149821156Y-71800500D01*
X149821158Y-71800500D01*
X149978844Y-71800500D01*
X149978845Y-71800499D01*
X150133497Y-71769737D01*
X150279179Y-71709394D01*
X150410289Y-71621789D01*
X150426096Y-71605982D01*
X150462319Y-71569760D01*
X150523642Y-71536275D01*
X150593334Y-71541259D01*
X150637681Y-71569760D01*
X150689707Y-71621786D01*
X150689711Y-71621789D01*
X150820814Y-71709390D01*
X150820827Y-71709397D01*
X150966498Y-71769735D01*
X150966503Y-71769737D01*
X151121153Y-71800499D01*
X151121156Y-71800500D01*
X151121158Y-71800500D01*
X151278844Y-71800500D01*
X151278845Y-71800499D01*
X151433497Y-71769737D01*
X151579179Y-71709394D01*
X151710289Y-71621789D01*
X151812320Y-71519757D01*
X151873641Y-71486274D01*
X151943333Y-71491258D01*
X151984939Y-71517999D01*
X151985001Y-71517924D01*
X151985647Y-71518454D01*
X151987688Y-71519766D01*
X151989711Y-71521789D01*
X152120814Y-71609390D01*
X152120827Y-71609397D01*
X152266498Y-71669735D01*
X152266503Y-71669737D01*
X152421153Y-71700499D01*
X152421156Y-71700500D01*
X152421158Y-71700500D01*
X152578844Y-71700500D01*
X152578845Y-71700499D01*
X152733497Y-71669737D01*
X152879179Y-71609394D01*
X153010289Y-71521789D01*
X153121789Y-71410289D01*
X153209394Y-71279179D01*
X153269737Y-71133497D01*
X153300500Y-70978842D01*
X153300500Y-70821158D01*
X153300500Y-70821155D01*
X153300499Y-70821153D01*
X153274384Y-70689867D01*
X153269737Y-70666503D01*
X153213996Y-70531931D01*
X153209397Y-70520827D01*
X153209390Y-70520814D01*
X153121789Y-70389711D01*
X153121786Y-70389707D01*
X153010292Y-70278213D01*
X153010288Y-70278210D01*
X152879185Y-70190609D01*
X152879172Y-70190602D01*
X152733501Y-70130264D01*
X152733489Y-70130261D01*
X152578845Y-70099500D01*
X152578842Y-70099500D01*
X152421158Y-70099500D01*
X152421155Y-70099500D01*
X152266510Y-70130261D01*
X152266498Y-70130264D01*
X152120827Y-70190602D01*
X152120814Y-70190609D01*
X151989711Y-70278210D01*
X151887680Y-70380241D01*
X151826357Y-70413725D01*
X151756665Y-70408741D01*
X151715060Y-70382000D01*
X151714999Y-70382076D01*
X151714350Y-70381544D01*
X151712311Y-70380233D01*
X151710288Y-70378210D01*
X151579185Y-70290609D01*
X151579172Y-70290602D01*
X151433501Y-70230264D01*
X151433489Y-70230261D01*
X151278845Y-70199500D01*
X151278842Y-70199500D01*
X151121158Y-70199500D01*
X151121155Y-70199500D01*
X150966510Y-70230261D01*
X150966498Y-70230264D01*
X150820827Y-70290602D01*
X150820814Y-70290609D01*
X150689711Y-70378210D01*
X150689707Y-70378213D01*
X150637681Y-70430240D01*
X150576358Y-70463725D01*
X150506666Y-70458741D01*
X150462319Y-70430240D01*
X150410292Y-70378213D01*
X150410288Y-70378210D01*
X150279185Y-70290609D01*
X150279172Y-70290602D01*
X150133501Y-70230264D01*
X150133489Y-70230261D01*
X149978845Y-70199500D01*
X149978842Y-70199500D01*
X149821158Y-70199500D01*
X149821155Y-70199500D01*
X149666510Y-70230261D01*
X149666498Y-70230264D01*
X149520827Y-70290602D01*
X149520814Y-70290609D01*
X149389711Y-70378210D01*
X149389707Y-70378213D01*
X149337681Y-70430240D01*
X149276358Y-70463725D01*
X149206666Y-70458741D01*
X149162319Y-70430240D01*
X149110292Y-70378213D01*
X149110288Y-70378210D01*
X148979185Y-70290609D01*
X148979172Y-70290602D01*
X148833501Y-70230264D01*
X148833489Y-70230261D01*
X148678845Y-70199500D01*
X148678842Y-70199500D01*
X148521158Y-70199500D01*
X148521155Y-70199500D01*
X148366510Y-70230261D01*
X148366498Y-70230264D01*
X148220827Y-70290602D01*
X148220814Y-70290609D01*
X148089711Y-70378210D01*
X148089707Y-70378213D01*
X148037681Y-70430240D01*
X147976358Y-70463725D01*
X147906666Y-70458741D01*
X147862319Y-70430240D01*
X147810292Y-70378213D01*
X147810288Y-70378210D01*
X147679185Y-70290609D01*
X147679172Y-70290602D01*
X147533501Y-70230264D01*
X147533489Y-70230261D01*
X147378845Y-70199500D01*
X147378842Y-70199500D01*
X147221158Y-70199500D01*
X147221155Y-70199500D01*
X147066510Y-70230261D01*
X147066498Y-70230264D01*
X146920827Y-70290602D01*
X146920814Y-70290609D01*
X146789711Y-70378210D01*
X146789707Y-70378213D01*
X146678213Y-70489707D01*
X146678210Y-70489711D01*
X146590609Y-70620814D01*
X146590602Y-70620827D01*
X146530264Y-70766498D01*
X146530261Y-70766510D01*
X146499500Y-70921153D01*
X145600500Y-70921153D01*
X145600500Y-70821158D01*
X145600500Y-70821155D01*
X145600499Y-70821153D01*
X145574384Y-70689867D01*
X145569737Y-70666503D01*
X145513996Y-70531931D01*
X145509397Y-70520827D01*
X145509390Y-70520814D01*
X145421789Y-70389711D01*
X145421786Y-70389707D01*
X145310292Y-70278213D01*
X145310288Y-70278210D01*
X145179185Y-70190609D01*
X145179172Y-70190602D01*
X145033501Y-70130264D01*
X145033489Y-70130261D01*
X144878845Y-70099500D01*
X144878842Y-70099500D01*
X144721158Y-70099500D01*
X144721155Y-70099500D01*
X144566510Y-70130261D01*
X144566498Y-70130264D01*
X144420827Y-70190602D01*
X144420814Y-70190609D01*
X144289711Y-70278210D01*
X144289707Y-70278213D01*
X144237681Y-70330240D01*
X144176358Y-70363725D01*
X144106666Y-70358741D01*
X144062319Y-70330240D01*
X144010292Y-70278213D01*
X144010288Y-70278210D01*
X143879185Y-70190609D01*
X143879172Y-70190602D01*
X143733501Y-70130264D01*
X143733489Y-70130261D01*
X143578845Y-70099500D01*
X143578842Y-70099500D01*
X143421158Y-70099500D01*
X143421155Y-70099500D01*
X143266510Y-70130261D01*
X143266498Y-70130264D01*
X143120827Y-70190602D01*
X143120814Y-70190609D01*
X142989711Y-70278210D01*
X142989707Y-70278213D01*
X142873903Y-70394018D01*
X142872981Y-70393096D01*
X142820782Y-70428642D01*
X142750937Y-70430502D01*
X142713801Y-70413739D01*
X142679185Y-70390609D01*
X142679172Y-70390602D01*
X142533501Y-70330264D01*
X142533489Y-70330261D01*
X142378845Y-70299500D01*
X142378842Y-70299500D01*
X142221158Y-70299500D01*
X142198690Y-70303969D01*
X142129099Y-70297740D01*
X142073922Y-70254877D01*
X142050678Y-70188987D01*
X142050500Y-70182351D01*
X142050500Y-69322070D01*
X160974500Y-69322070D01*
X160974500Y-69577930D01*
X160982849Y-69630640D01*
X161014526Y-69830640D01*
X161093588Y-70073972D01*
X161093589Y-70073975D01*
X161153018Y-70190609D01*
X161208501Y-70299500D01*
X161209750Y-70301950D01*
X161360132Y-70508935D01*
X161360136Y-70508940D01*
X161541059Y-70689863D01*
X161541064Y-70689867D01*
X161646555Y-70766510D01*
X161748053Y-70840252D01*
X161897080Y-70916185D01*
X161976024Y-70956410D01*
X161976027Y-70956411D01*
X162045064Y-70978842D01*
X162219361Y-71035474D01*
X162472070Y-71075500D01*
X162472071Y-71075500D01*
X162727929Y-71075500D01*
X162727930Y-71075500D01*
X162980639Y-71035474D01*
X163223975Y-70956410D01*
X163451947Y-70840252D01*
X163658942Y-70689862D01*
X163839862Y-70508942D01*
X163990252Y-70301947D01*
X164106410Y-70073975D01*
X164185474Y-69830639D01*
X164225500Y-69577930D01*
X164225500Y-69322070D01*
X164185474Y-69069361D01*
X164106410Y-68826025D01*
X164106410Y-68826024D01*
X164066185Y-68747080D01*
X163990252Y-68598053D01*
X163971038Y-68571607D01*
X163839867Y-68391064D01*
X163839863Y-68391059D01*
X163658940Y-68210136D01*
X163658935Y-68210132D01*
X163451950Y-68059750D01*
X163451949Y-68059749D01*
X163451947Y-68059748D01*
X163378910Y-68022533D01*
X163223975Y-67943589D01*
X163223972Y-67943588D01*
X162980640Y-67864526D01*
X162854284Y-67844513D01*
X162727930Y-67824500D01*
X162472070Y-67824500D01*
X162387833Y-67837842D01*
X162219359Y-67864526D01*
X161976027Y-67943588D01*
X161976024Y-67943589D01*
X161748049Y-68059750D01*
X161541064Y-68210132D01*
X161541059Y-68210136D01*
X161360136Y-68391059D01*
X161360132Y-68391064D01*
X161209750Y-68598049D01*
X161093589Y-68826024D01*
X161093588Y-68826027D01*
X161014526Y-69069359D01*
X160974500Y-69322070D01*
X142050500Y-69322070D01*
X142050500Y-61777135D01*
X160974500Y-61777135D01*
X160974500Y-64122870D01*
X160974501Y-64122876D01*
X160980908Y-64182483D01*
X161031202Y-64317328D01*
X161031206Y-64317335D01*
X161117452Y-64432544D01*
X161117455Y-64432547D01*
X161232664Y-64518793D01*
X161232671Y-64518797D01*
X161367517Y-64569091D01*
X161367516Y-64569091D01*
X161374444Y-64569835D01*
X161427127Y-64575500D01*
X163772872Y-64575499D01*
X163832483Y-64569091D01*
X163967331Y-64518796D01*
X164082546Y-64432546D01*
X164168796Y-64317331D01*
X164219091Y-64182483D01*
X164225500Y-64122873D01*
X164225499Y-61777128D01*
X164219091Y-61717517D01*
X164183151Y-61621158D01*
X164168797Y-61582671D01*
X164168793Y-61582664D01*
X164082547Y-61467455D01*
X164082544Y-61467452D01*
X163967335Y-61381206D01*
X163967328Y-61381202D01*
X163832482Y-61330908D01*
X163832483Y-61330908D01*
X163772883Y-61324501D01*
X163772881Y-61324500D01*
X163772873Y-61324500D01*
X163772864Y-61324500D01*
X161427129Y-61324500D01*
X161427123Y-61324501D01*
X161367516Y-61330908D01*
X161232671Y-61381202D01*
X161232664Y-61381206D01*
X161117455Y-61467452D01*
X161117452Y-61467455D01*
X161031206Y-61582664D01*
X161031202Y-61582671D01*
X160980908Y-61717517D01*
X160974501Y-61777116D01*
X160974501Y-61777123D01*
X160974500Y-61777135D01*
X142050500Y-61777135D01*
X142050500Y-58571153D01*
X142899500Y-58571153D01*
X142899500Y-58728846D01*
X142930261Y-58883489D01*
X142930264Y-58883501D01*
X142990602Y-59029172D01*
X142990609Y-59029185D01*
X143078210Y-59160288D01*
X143078213Y-59160292D01*
X143180240Y-59262319D01*
X143213725Y-59323642D01*
X143208741Y-59393334D01*
X143180240Y-59437681D01*
X143078213Y-59539707D01*
X143078210Y-59539711D01*
X142990609Y-59670814D01*
X142990602Y-59670827D01*
X142930264Y-59816498D01*
X142930261Y-59816510D01*
X142899500Y-59971153D01*
X142899500Y-60128846D01*
X142930261Y-60283489D01*
X142930264Y-60283501D01*
X142990602Y-60429172D01*
X142990609Y-60429185D01*
X143078210Y-60560288D01*
X143078213Y-60560292D01*
X143189707Y-60671786D01*
X143189711Y-60671789D01*
X143320814Y-60759390D01*
X143320827Y-60759397D01*
X143430082Y-60804651D01*
X143466503Y-60819737D01*
X143521831Y-60830742D01*
X143583740Y-60863126D01*
X143618315Y-60923841D01*
X143619256Y-60928166D01*
X143630261Y-60983492D01*
X143630264Y-60983501D01*
X143690602Y-61129172D01*
X143690609Y-61129185D01*
X143778210Y-61260288D01*
X143778213Y-61260292D01*
X143889707Y-61371786D01*
X143889711Y-61371789D01*
X144020814Y-61459390D01*
X144020827Y-61459397D01*
X144161141Y-61517516D01*
X144166503Y-61519737D01*
X144321153Y-61550499D01*
X144321156Y-61550500D01*
X144321158Y-61550500D01*
X144478844Y-61550500D01*
X144478845Y-61550499D01*
X144633497Y-61519737D01*
X144779179Y-61459394D01*
X144910289Y-61371789D01*
X144961264Y-61320814D01*
X145012319Y-61269760D01*
X145073642Y-61236275D01*
X145143334Y-61241259D01*
X145187681Y-61269760D01*
X145289707Y-61371786D01*
X145289711Y-61371789D01*
X145420814Y-61459390D01*
X145420827Y-61459397D01*
X145561141Y-61517516D01*
X145566503Y-61519737D01*
X145721153Y-61550499D01*
X145721156Y-61550500D01*
X145721158Y-61550500D01*
X145878844Y-61550500D01*
X145878845Y-61550499D01*
X146033497Y-61519737D01*
X146179179Y-61459394D01*
X146310289Y-61371789D01*
X146421789Y-61260289D01*
X146509394Y-61129179D01*
X146569737Y-60983497D01*
X146580743Y-60928166D01*
X146613125Y-60866258D01*
X146673841Y-60831683D01*
X146678118Y-60830752D01*
X146733497Y-60819737D01*
X146879179Y-60759394D01*
X147010289Y-60671789D01*
X147121789Y-60560289D01*
X147209394Y-60429179D01*
X147269737Y-60283497D01*
X147300500Y-60128842D01*
X147300500Y-59971158D01*
X147300500Y-59971155D01*
X147300499Y-59971153D01*
X147292846Y-59932679D01*
X147269737Y-59816503D01*
X147253876Y-59778210D01*
X147209397Y-59670827D01*
X147209390Y-59670814D01*
X147121789Y-59539711D01*
X147121786Y-59539707D01*
X147019760Y-59437681D01*
X146986275Y-59376358D01*
X146991259Y-59306666D01*
X147019760Y-59262319D01*
X147121786Y-59160292D01*
X147121789Y-59160289D01*
X147209394Y-59029179D01*
X147269737Y-58883497D01*
X147300500Y-58728842D01*
X147300500Y-58571158D01*
X147300500Y-58571155D01*
X147300499Y-58571153D01*
X147284414Y-58490289D01*
X147269737Y-58416503D01*
X147269735Y-58416498D01*
X147209397Y-58270827D01*
X147209390Y-58270814D01*
X147121789Y-58139711D01*
X147121786Y-58139707D01*
X147010292Y-58028213D01*
X147010288Y-58028210D01*
X146879185Y-57940609D01*
X146879172Y-57940602D01*
X146733501Y-57880264D01*
X146733492Y-57880261D01*
X146678166Y-57869256D01*
X146616256Y-57836870D01*
X146581682Y-57776154D01*
X146580750Y-57771874D01*
X146569737Y-57716503D01*
X146521823Y-57600827D01*
X146509397Y-57570827D01*
X146509390Y-57570814D01*
X146421789Y-57439711D01*
X146421786Y-57439707D01*
X146310292Y-57328213D01*
X146310288Y-57328210D01*
X146179185Y-57240609D01*
X146179172Y-57240602D01*
X146033501Y-57180264D01*
X146033489Y-57180261D01*
X145878845Y-57149500D01*
X145878842Y-57149500D01*
X145721158Y-57149500D01*
X145721155Y-57149500D01*
X145566510Y-57180261D01*
X145566498Y-57180264D01*
X145420827Y-57240602D01*
X145420814Y-57240609D01*
X145289711Y-57328210D01*
X145289707Y-57328213D01*
X145187681Y-57430240D01*
X145126358Y-57463725D01*
X145056666Y-57458741D01*
X145012319Y-57430240D01*
X144910292Y-57328213D01*
X144910288Y-57328210D01*
X144779185Y-57240609D01*
X144779172Y-57240602D01*
X144633501Y-57180264D01*
X144633489Y-57180261D01*
X144478845Y-57149500D01*
X144478842Y-57149500D01*
X144321158Y-57149500D01*
X144321155Y-57149500D01*
X144166510Y-57180261D01*
X144166498Y-57180264D01*
X144020827Y-57240602D01*
X144020814Y-57240609D01*
X143889711Y-57328210D01*
X143889707Y-57328213D01*
X143778213Y-57439707D01*
X143778210Y-57439711D01*
X143690609Y-57570814D01*
X143690602Y-57570827D01*
X143630264Y-57716498D01*
X143630262Y-57716505D01*
X143619256Y-57771833D01*
X143586870Y-57833743D01*
X143526153Y-57868316D01*
X143521833Y-57869256D01*
X143466505Y-57880262D01*
X143466498Y-57880264D01*
X143320827Y-57940602D01*
X143320814Y-57940609D01*
X143189711Y-58028210D01*
X143189707Y-58028213D01*
X143078213Y-58139707D01*
X143078210Y-58139711D01*
X142990609Y-58270814D01*
X142990602Y-58270827D01*
X142930264Y-58416498D01*
X142930261Y-58416510D01*
X142899500Y-58571153D01*
X142050500Y-58571153D01*
X142050500Y-54535928D01*
X142025502Y-54410261D01*
X142025501Y-54410260D01*
X142025501Y-54410256D01*
X141976465Y-54291873D01*
X141976464Y-54291870D01*
X141905277Y-54185331D01*
X141905271Y-54185324D01*
X141114673Y-53394726D01*
X141114669Y-53394723D01*
X141008127Y-53323535D01*
X140950794Y-53299787D01*
X140889744Y-53274499D01*
X140889738Y-53274497D01*
X140764071Y-53249500D01*
X140764069Y-53249500D01*
X137435931Y-53249500D01*
X137435929Y-53249500D01*
X137310261Y-53274497D01*
X137310255Y-53274499D01*
X137191870Y-53323535D01*
X137085331Y-53394722D01*
X137085324Y-53394728D01*
X135494726Y-54985326D01*
X135423534Y-55091874D01*
X135374499Y-55210255D01*
X135374497Y-55210261D01*
X135349500Y-55335928D01*
X135349500Y-59821730D01*
X135329815Y-59888769D01*
X135277011Y-59934524D01*
X135207853Y-59944468D01*
X135144297Y-59915443D01*
X135125707Y-59894373D01*
X135125653Y-59894419D01*
X135124391Y-59892881D01*
X135122403Y-59890628D01*
X135121793Y-59889716D01*
X135121786Y-59889707D01*
X135010292Y-59778213D01*
X135010288Y-59778210D01*
X134879185Y-59690609D01*
X134879172Y-59690602D01*
X134733501Y-59630264D01*
X134733489Y-59630261D01*
X134578845Y-59599500D01*
X134578842Y-59599500D01*
X134421158Y-59599500D01*
X134421155Y-59599500D01*
X134266510Y-59630261D01*
X134266498Y-59630264D01*
X134120827Y-59690602D01*
X134120814Y-59690609D01*
X133989711Y-59778210D01*
X133989707Y-59778213D01*
X133878213Y-59889707D01*
X133878210Y-59889711D01*
X133790609Y-60020814D01*
X133790602Y-60020827D01*
X133730264Y-60166498D01*
X133730261Y-60166510D01*
X133699500Y-60321153D01*
X128775500Y-60321153D01*
X128775500Y-54321153D01*
X129299500Y-54321153D01*
X129299500Y-54478846D01*
X129330261Y-54633489D01*
X129330264Y-54633501D01*
X129390604Y-54779177D01*
X129390605Y-54779179D01*
X129391899Y-54781115D01*
X129392264Y-54782282D01*
X129393476Y-54784549D01*
X129393045Y-54784778D01*
X129412773Y-54847794D01*
X129394285Y-54915173D01*
X129391899Y-54918885D01*
X129390605Y-54920820D01*
X129390604Y-54920822D01*
X129330264Y-55066498D01*
X129330261Y-55066510D01*
X129299500Y-55221153D01*
X129299500Y-55378846D01*
X129330261Y-55533489D01*
X129330264Y-55533501D01*
X129390604Y-55679177D01*
X129390605Y-55679179D01*
X129391899Y-55681115D01*
X129392264Y-55682282D01*
X129393476Y-55684549D01*
X129393045Y-55684778D01*
X129412773Y-55747794D01*
X129394285Y-55815173D01*
X129391899Y-55818885D01*
X129390605Y-55820820D01*
X129390604Y-55820822D01*
X129330264Y-55966498D01*
X129330261Y-55966510D01*
X129299500Y-56121153D01*
X129299500Y-56278846D01*
X129330261Y-56433489D01*
X129330264Y-56433501D01*
X129390602Y-56579172D01*
X129390609Y-56579185D01*
X129478210Y-56710288D01*
X129478213Y-56710292D01*
X129589707Y-56821786D01*
X129589711Y-56821789D01*
X129720814Y-56909390D01*
X129720827Y-56909397D01*
X129866498Y-56969735D01*
X129866503Y-56969737D01*
X130021153Y-57000499D01*
X130021156Y-57000500D01*
X130021158Y-57000500D01*
X130178844Y-57000500D01*
X130178845Y-57000499D01*
X130333497Y-56969737D01*
X130479179Y-56909394D01*
X130610289Y-56821789D01*
X130721789Y-56710289D01*
X130809394Y-56579179D01*
X130869737Y-56433497D01*
X130900500Y-56278842D01*
X130900500Y-56121158D01*
X130900500Y-56121155D01*
X130900499Y-56121153D01*
X130891957Y-56078211D01*
X130869737Y-55966503D01*
X130869735Y-55966498D01*
X130809397Y-55820827D01*
X130809394Y-55820822D01*
X130809394Y-55820821D01*
X130808103Y-55818889D01*
X130807737Y-55817723D01*
X130806525Y-55815454D01*
X130806955Y-55815223D01*
X130787226Y-55752214D01*
X130805710Y-55684834D01*
X130808100Y-55681115D01*
X130809394Y-55679179D01*
X130869737Y-55533497D01*
X130900500Y-55378842D01*
X130900500Y-55221158D01*
X130900500Y-55221155D01*
X130900499Y-55221153D01*
X130876442Y-55100212D01*
X130869737Y-55066503D01*
X130836113Y-54985326D01*
X130809397Y-54920827D01*
X130809394Y-54920822D01*
X130809394Y-54920821D01*
X130808103Y-54918889D01*
X130807737Y-54917723D01*
X130806525Y-54915454D01*
X130806955Y-54915223D01*
X130787226Y-54852214D01*
X130805710Y-54784834D01*
X130808100Y-54781115D01*
X130809394Y-54779179D01*
X130811396Y-54774347D01*
X130832254Y-54723990D01*
X130869737Y-54633497D01*
X130900500Y-54478842D01*
X130900500Y-54321158D01*
X130900500Y-54321155D01*
X130900499Y-54321153D01*
X130873482Y-54185330D01*
X130869737Y-54166503D01*
X130869735Y-54166498D01*
X130809397Y-54020827D01*
X130809390Y-54020814D01*
X130721789Y-53889711D01*
X130721786Y-53889707D01*
X130610292Y-53778213D01*
X130610288Y-53778210D01*
X130479185Y-53690609D01*
X130479172Y-53690602D01*
X130333501Y-53630264D01*
X130333489Y-53630261D01*
X130178845Y-53599500D01*
X130178842Y-53599500D01*
X130021158Y-53599500D01*
X130021155Y-53599500D01*
X129866510Y-53630261D01*
X129866498Y-53630264D01*
X129720827Y-53690602D01*
X129720814Y-53690609D01*
X129589711Y-53778210D01*
X129589707Y-53778213D01*
X129478213Y-53889707D01*
X129478210Y-53889711D01*
X129390609Y-54020814D01*
X129390602Y-54020827D01*
X129330264Y-54166498D01*
X129330261Y-54166510D01*
X129299500Y-54321153D01*
X128775500Y-54321153D01*
X128775500Y-50743660D01*
X128795185Y-50676621D01*
X128847989Y-50630866D01*
X128899426Y-50619661D01*
X135452383Y-50616112D01*
X135519430Y-50635759D01*
X135565213Y-50688538D01*
X135575194Y-50757692D01*
X135546204Y-50821263D01*
X135540129Y-50827792D01*
X135478210Y-50889711D01*
X135390609Y-51020814D01*
X135390602Y-51020827D01*
X135330264Y-51166498D01*
X135330261Y-51166510D01*
X135299500Y-51321153D01*
X135299500Y-51478846D01*
X135330261Y-51633489D01*
X135330264Y-51633501D01*
X135390602Y-51779172D01*
X135390609Y-51779185D01*
X135478210Y-51910288D01*
X135478213Y-51910292D01*
X135589707Y-52021786D01*
X135589711Y-52021789D01*
X135720814Y-52109390D01*
X135720827Y-52109397D01*
X135866498Y-52169735D01*
X135866503Y-52169737D01*
X136021153Y-52200499D01*
X136021156Y-52200500D01*
X136021158Y-52200500D01*
X136178844Y-52200500D01*
X136178845Y-52200499D01*
X136333497Y-52169737D01*
X136479179Y-52109394D01*
X136610289Y-52021789D01*
X136721789Y-51910289D01*
X136809394Y-51779179D01*
X136869737Y-51633497D01*
X136900500Y-51478842D01*
X136900500Y-51321158D01*
X136900500Y-51321155D01*
X136900499Y-51321153D01*
X136880543Y-51220827D01*
X136869737Y-51166503D01*
X136837929Y-51089711D01*
X136809397Y-51020827D01*
X136809390Y-51020814D01*
X136721789Y-50889711D01*
X136721786Y-50889707D01*
X136659170Y-50827091D01*
X136625685Y-50765768D01*
X136630669Y-50696076D01*
X136672541Y-50640143D01*
X136738005Y-50615726D01*
X136746756Y-50615410D01*
X156988214Y-50604447D01*
X156999057Y-50607625D01*
G37*
%TD.AperFunction*%
%TD*%
M02*
