%TF.GenerationSoftware,KiCad,Pcbnew,9.0.2*%
%TF.CreationDate,2025-07-02T09:24:47-04:00*%
%TF.ProjectId,ABAD,41424144-2e6b-4696-9361-645f70636258,rev?*%
%TF.SameCoordinates,Original*%
%TF.FileFunction,Legend,Top*%
%TF.FilePolarity,Positive*%
%FSLAX46Y46*%
G04 Gerber Fmt 4.6, Leading zero omitted, Abs format (unit mm)*
G04 Created by KiCad (PCBNEW 9.0.2) date 2025-07-02 09:24:47*
%MOMM*%
%LPD*%
G01*
G04 APERTURE LIST*
%ADD10C,0.150000*%
%ADD11C,0.120000*%
G04 APERTURE END LIST*
D10*
X105629819Y-103511904D02*
X106439342Y-103511904D01*
X106439342Y-103511904D02*
X106534580Y-103464285D01*
X106534580Y-103464285D02*
X106582200Y-103416666D01*
X106582200Y-103416666D02*
X106629819Y-103321428D01*
X106629819Y-103321428D02*
X106629819Y-103130952D01*
X106629819Y-103130952D02*
X106582200Y-103035714D01*
X106582200Y-103035714D02*
X106534580Y-102988095D01*
X106534580Y-102988095D02*
X106439342Y-102940476D01*
X106439342Y-102940476D02*
X105629819Y-102940476D01*
X105629819Y-102559523D02*
X105629819Y-101940476D01*
X105629819Y-101940476D02*
X106010771Y-102273809D01*
X106010771Y-102273809D02*
X106010771Y-102130952D01*
X106010771Y-102130952D02*
X106058390Y-102035714D01*
X106058390Y-102035714D02*
X106106009Y-101988095D01*
X106106009Y-101988095D02*
X106201247Y-101940476D01*
X106201247Y-101940476D02*
X106439342Y-101940476D01*
X106439342Y-101940476D02*
X106534580Y-101988095D01*
X106534580Y-101988095D02*
X106582200Y-102035714D01*
X106582200Y-102035714D02*
X106629819Y-102130952D01*
X106629819Y-102130952D02*
X106629819Y-102416666D01*
X106629819Y-102416666D02*
X106582200Y-102511904D01*
X106582200Y-102511904D02*
X106534580Y-102559523D01*
X117094819Y-113441904D02*
X117904342Y-113441904D01*
X117904342Y-113441904D02*
X117999580Y-113394285D01*
X117999580Y-113394285D02*
X118047200Y-113346666D01*
X118047200Y-113346666D02*
X118094819Y-113251428D01*
X118094819Y-113251428D02*
X118094819Y-113060952D01*
X118094819Y-113060952D02*
X118047200Y-112965714D01*
X118047200Y-112965714D02*
X117999580Y-112918095D01*
X117999580Y-112918095D02*
X117904342Y-112870476D01*
X117904342Y-112870476D02*
X117094819Y-112870476D01*
X117190057Y-112441904D02*
X117142438Y-112394285D01*
X117142438Y-112394285D02*
X117094819Y-112299047D01*
X117094819Y-112299047D02*
X117094819Y-112060952D01*
X117094819Y-112060952D02*
X117142438Y-111965714D01*
X117142438Y-111965714D02*
X117190057Y-111918095D01*
X117190057Y-111918095D02*
X117285295Y-111870476D01*
X117285295Y-111870476D02*
X117380533Y-111870476D01*
X117380533Y-111870476D02*
X117523390Y-111918095D01*
X117523390Y-111918095D02*
X118094819Y-112489523D01*
X118094819Y-112489523D02*
X118094819Y-111870476D01*
X132663095Y-124479819D02*
X132663095Y-125289342D01*
X132663095Y-125289342D02*
X132710714Y-125384580D01*
X132710714Y-125384580D02*
X132758333Y-125432200D01*
X132758333Y-125432200D02*
X132853571Y-125479819D01*
X132853571Y-125479819D02*
X133044047Y-125479819D01*
X133044047Y-125479819D02*
X133139285Y-125432200D01*
X133139285Y-125432200D02*
X133186904Y-125384580D01*
X133186904Y-125384580D02*
X133234523Y-125289342D01*
X133234523Y-125289342D02*
X133234523Y-124479819D01*
X134234523Y-125479819D02*
X133663095Y-125479819D01*
X133948809Y-125479819D02*
X133948809Y-124479819D01*
X133948809Y-124479819D02*
X133853571Y-124622676D01*
X133853571Y-124622676D02*
X133758333Y-124717914D01*
X133758333Y-124717914D02*
X133663095Y-124765533D01*
X144331009Y-111680952D02*
X144378628Y-111538095D01*
X144378628Y-111538095D02*
X144426247Y-111490476D01*
X144426247Y-111490476D02*
X144521485Y-111442857D01*
X144521485Y-111442857D02*
X144664342Y-111442857D01*
X144664342Y-111442857D02*
X144759580Y-111490476D01*
X144759580Y-111490476D02*
X144807200Y-111538095D01*
X144807200Y-111538095D02*
X144854819Y-111633333D01*
X144854819Y-111633333D02*
X144854819Y-112014285D01*
X144854819Y-112014285D02*
X143854819Y-112014285D01*
X143854819Y-112014285D02*
X143854819Y-111680952D01*
X143854819Y-111680952D02*
X143902438Y-111585714D01*
X143902438Y-111585714D02*
X143950057Y-111538095D01*
X143950057Y-111538095D02*
X144045295Y-111490476D01*
X144045295Y-111490476D02*
X144140533Y-111490476D01*
X144140533Y-111490476D02*
X144235771Y-111538095D01*
X144235771Y-111538095D02*
X144283390Y-111585714D01*
X144283390Y-111585714D02*
X144331009Y-111680952D01*
X144331009Y-111680952D02*
X144331009Y-112014285D01*
X144854819Y-111014285D02*
X143854819Y-111014285D01*
X143854819Y-111014285D02*
X144854819Y-110442857D01*
X144854819Y-110442857D02*
X143854819Y-110442857D01*
X143950057Y-110014285D02*
X143902438Y-109966666D01*
X143902438Y-109966666D02*
X143854819Y-109871428D01*
X143854819Y-109871428D02*
X143854819Y-109633333D01*
X143854819Y-109633333D02*
X143902438Y-109538095D01*
X143902438Y-109538095D02*
X143950057Y-109490476D01*
X143950057Y-109490476D02*
X144045295Y-109442857D01*
X144045295Y-109442857D02*
X144140533Y-109442857D01*
X144140533Y-109442857D02*
X144283390Y-109490476D01*
X144283390Y-109490476D02*
X144854819Y-110061904D01*
X144854819Y-110061904D02*
X144854819Y-109442857D01*
X143950057Y-109061904D02*
X143902438Y-109014285D01*
X143902438Y-109014285D02*
X143854819Y-108919047D01*
X143854819Y-108919047D02*
X143854819Y-108680952D01*
X143854819Y-108680952D02*
X143902438Y-108585714D01*
X143902438Y-108585714D02*
X143950057Y-108538095D01*
X143950057Y-108538095D02*
X144045295Y-108490476D01*
X144045295Y-108490476D02*
X144140533Y-108490476D01*
X144140533Y-108490476D02*
X144283390Y-108538095D01*
X144283390Y-108538095D02*
X144854819Y-109109523D01*
X144854819Y-109109523D02*
X144854819Y-108490476D01*
X143854819Y-107871428D02*
X143854819Y-107776190D01*
X143854819Y-107776190D02*
X143902438Y-107680952D01*
X143902438Y-107680952D02*
X143950057Y-107633333D01*
X143950057Y-107633333D02*
X144045295Y-107585714D01*
X144045295Y-107585714D02*
X144235771Y-107538095D01*
X144235771Y-107538095D02*
X144473866Y-107538095D01*
X144473866Y-107538095D02*
X144664342Y-107585714D01*
X144664342Y-107585714D02*
X144759580Y-107633333D01*
X144759580Y-107633333D02*
X144807200Y-107680952D01*
X144807200Y-107680952D02*
X144854819Y-107776190D01*
X144854819Y-107776190D02*
X144854819Y-107871428D01*
X144854819Y-107871428D02*
X144807200Y-107966666D01*
X144807200Y-107966666D02*
X144759580Y-108014285D01*
X144759580Y-108014285D02*
X144664342Y-108061904D01*
X144664342Y-108061904D02*
X144473866Y-108109523D01*
X144473866Y-108109523D02*
X144235771Y-108109523D01*
X144235771Y-108109523D02*
X144045295Y-108061904D01*
X144045295Y-108061904D02*
X143950057Y-108014285D01*
X143950057Y-108014285D02*
X143902438Y-107966666D01*
X143902438Y-107966666D02*
X143854819Y-107871428D01*
D11*
%TO.C,RYLR998Conn1*%
X144315000Y-102810000D02*
X144315000Y-102000000D01*
X144480000Y-97554102D02*
X144480000Y-97190000D01*
X144480000Y-98554102D02*
X144480000Y-98445898D01*
X144480000Y-99554102D02*
X144480000Y-99445898D01*
X144480000Y-100554102D02*
X144480000Y-100445898D01*
X145000000Y-102810000D02*
X144315000Y-102810000D01*
X146100000Y-97190000D02*
X144480000Y-97190000D01*
X146100000Y-101500000D02*
X145685000Y-101500000D01*
X146100000Y-101500000D02*
X146100000Y-97190000D01*
%TO.C,U3*%
X107400000Y-100600000D02*
X107400000Y-101125000D01*
X107400000Y-100600000D02*
X107925000Y-100600000D01*
X107400000Y-104375000D02*
X107400000Y-104600000D01*
X107865000Y-104900000D02*
X107640000Y-104900000D01*
X111700000Y-100600000D02*
X111175000Y-100600000D01*
X111700000Y-100600000D02*
X111700000Y-101125000D01*
X111700000Y-104900000D02*
X111175000Y-104900000D01*
X111700000Y-104900000D02*
X111700000Y-104375000D01*
X107400000Y-104900000D02*
X107070000Y-105140000D01*
X107070000Y-104660000D01*
X107400000Y-104900000D01*
G36*
X107400000Y-104900000D02*
G01*
X107070000Y-105140000D01*
X107070000Y-104660000D01*
X107400000Y-104900000D01*
G37*
%TO.C,U2*%
X119130000Y-88390000D02*
X119130000Y-94550000D01*
X119130000Y-88390000D02*
X137370000Y-88390000D01*
X119130000Y-113350000D02*
X119130000Y-114130000D01*
X119130000Y-114130000D02*
X120130000Y-114130000D01*
X137370000Y-88390000D02*
X137370000Y-94805000D01*
X137370000Y-113350000D02*
X137370000Y-114130000D01*
X137370000Y-114130000D02*
X136370000Y-114130000D01*
X119125000Y-95275000D02*
X118625000Y-95275000D01*
X119125000Y-94775000D01*
X119125000Y-95275000D01*
G36*
X119125000Y-95275000D02*
G01*
X118625000Y-95275000D01*
X119125000Y-94775000D01*
X119125000Y-95275000D01*
G37*
%TO.C,U1*%
X131775000Y-118775000D02*
X132275000Y-118775000D01*
X131775000Y-119275000D02*
X131775000Y-118775000D01*
X131775000Y-123975000D02*
X131775000Y-123475000D01*
X132275000Y-123975000D02*
X131775000Y-123975000D01*
X134575000Y-118775000D02*
X135075000Y-118775000D01*
X134775000Y-123975000D02*
X134025000Y-123975000D01*
X135075000Y-118775000D02*
X135075000Y-119275000D01*
X134975000Y-124335000D02*
X134975000Y-123975000D01*
X135335000Y-123975000D01*
X134975000Y-124335000D01*
G36*
X134975000Y-124335000D02*
G01*
X134975000Y-123975000D01*
X135335000Y-123975000D01*
X134975000Y-124335000D01*
G37*
%TO.C,BN220*%
X145690000Y-111740000D02*
X145690000Y-107860000D01*
X147660000Y-106690000D02*
X148810000Y-106690000D01*
X147660000Y-112910000D02*
X148810000Y-112910000D01*
X148810000Y-106690000D02*
X148810000Y-107740000D01*
X148810000Y-111860000D02*
X149800000Y-111860000D01*
X148810000Y-112910000D02*
X148810000Y-111860000D01*
%TD*%
M02*
