%TF.GenerationSoftware,KiCad,Pcbnew,9.0.2*%
%TF.CreationDate,2025-09-22T16:35:15-04:00*%
%TF.ProjectId,ABAD,41424144-2e6b-4696-9361-645f70636258,rev?*%
%TF.SameCoordinates,Original*%
%TF.FileFunction,Plated,1,4,PTH,Mixed*%
%TF.FilePolarity,Positive*%
%FSLAX46Y46*%
G04 Gerber Fmt 4.6, Leading zero omitted, Abs format (unit mm)*
G04 Created by KiCad (PCBNEW 9.0.2) date 2025-09-22 16:35:15*
%MOMM*%
%LPD*%
G01*
G04 APERTURE LIST*
%TA.AperFunction,ViaDrill*%
%ADD10C,0.300000*%
%TD*%
%TA.AperFunction,ComponentDrill*%
%ADD11C,0.460000*%
%TD*%
G04 aperture for slot hole*
%TA.AperFunction,ComponentDrill*%
%ADD12C,0.600000*%
%TD*%
%TA.AperFunction,ComponentDrill*%
%ADD13C,1.000000*%
%TD*%
%TA.AperFunction,ComponentDrill*%
%ADD14C,1.100000*%
%TD*%
%TA.AperFunction,ComponentDrill*%
%ADD15C,3.200000*%
%TD*%
G04 APERTURE END LIST*
D10*
X142470000Y-94940000D03*
X142510000Y-93570000D03*
X142770000Y-101710000D03*
X143030000Y-98550000D03*
X143379265Y-95810735D03*
X144150000Y-86240000D03*
X144400000Y-91020000D03*
X144600000Y-71370000D03*
X144600000Y-72310000D03*
X144610000Y-70490000D03*
X144760000Y-128690000D03*
X144780000Y-89470000D03*
X144850000Y-83280000D03*
X144920000Y-81000000D03*
X144960000Y-100640000D03*
X144970000Y-78910000D03*
X145140000Y-86230000D03*
X145150000Y-85220000D03*
X145150000Y-95010000D03*
X145270000Y-103260000D03*
X145450000Y-91040000D03*
X145565865Y-97538577D03*
X145780000Y-109760000D03*
X146020000Y-95880000D03*
X146030000Y-117020000D03*
X146179942Y-92692141D03*
X146580000Y-89600002D03*
X146650000Y-91080000D03*
X146820000Y-97110000D03*
X147020000Y-92000000D03*
X147770000Y-115930000D03*
X148090000Y-101418000D03*
X148220000Y-98430000D03*
X148330000Y-122050000D03*
X148380000Y-90541000D03*
X148421000Y-96439736D03*
X148450000Y-104570000D03*
X148830000Y-115910000D03*
X148853938Y-93917258D03*
X148930000Y-94940000D03*
X149010000Y-76280000D03*
X149079236Y-86190764D03*
X149120000Y-77610000D03*
X149140000Y-87950000D03*
X149320000Y-97700000D03*
X149650000Y-82360000D03*
X150610000Y-101280000D03*
X150730000Y-117710000D03*
X150910061Y-94884541D03*
X151050000Y-126390000D03*
X151080000Y-105260000D03*
X151080000Y-106450000D03*
X151120000Y-127920000D03*
X151170000Y-92330000D03*
X151290000Y-79910000D03*
X151310801Y-90754182D03*
X151378308Y-87586930D03*
X151410000Y-99000000D03*
X151550000Y-109740000D03*
X151710735Y-86859265D03*
X151779000Y-94810000D03*
X152070000Y-99710000D03*
X152184265Y-89905735D03*
X153000000Y-85650000D03*
X153100000Y-124430000D03*
X153380000Y-93277046D03*
X153380000Y-94760000D03*
X153810000Y-89862271D03*
X154210000Y-87260000D03*
X154270000Y-98930000D03*
X154390000Y-91560000D03*
X154420735Y-94610735D03*
X154610000Y-84950000D03*
X154630000Y-90450000D03*
X154940346Y-97738875D03*
X155037500Y-121362500D03*
X155090026Y-96869379D03*
X155620000Y-89920000D03*
X155720000Y-93530000D03*
X155916054Y-94850000D03*
X156780000Y-97740000D03*
X156890000Y-95860000D03*
X157590000Y-117780000D03*
X157670000Y-65440000D03*
X157750000Y-122360000D03*
X157960000Y-119360000D03*
X158380000Y-117790000D03*
X158770000Y-85740000D03*
X158800000Y-88480000D03*
X158810000Y-96160000D03*
X159018528Y-97740000D03*
X159120000Y-94970000D03*
X159140000Y-90740000D03*
X159429871Y-92351600D03*
X159720000Y-115840000D03*
X159920000Y-93650000D03*
X160010000Y-90870000D03*
X160310000Y-98340000D03*
X160780000Y-83210000D03*
X160820000Y-95090000D03*
X160990000Y-77710000D03*
X161020000Y-87140000D03*
X161420000Y-68900000D03*
X162580000Y-94810000D03*
X162920000Y-121150000D03*
X163420000Y-122760000D03*
X163460000Y-123610000D03*
X163490000Y-115490000D03*
X164190000Y-91059000D03*
X164380000Y-128640000D03*
X165095000Y-96542500D03*
X165230000Y-89200000D03*
X165520000Y-83670000D03*
X165600000Y-98170000D03*
X165950000Y-69780000D03*
X166580000Y-65480000D03*
X166690000Y-98170000D03*
X166710000Y-95450000D03*
X167140000Y-69780000D03*
X167280000Y-89800000D03*
X167530000Y-83630000D03*
X169500000Y-83670000D03*
X169670000Y-128730000D03*
X169950000Y-89550000D03*
D11*
%TO.C,J1*%
X159920000Y-68900000D03*
X168680000Y-68900000D03*
D12*
%TO.C,J2*%
X144380000Y-118590000D02*
X144980000Y-118590000D01*
X144380000Y-127230000D02*
X144980000Y-127230000D01*
X148310000Y-118590000D02*
X149410000Y-118590000D01*
X148310000Y-127230000D02*
X149410000Y-127230000D01*
D13*
%TO.C,J3*%
X168890000Y-93830000D03*
X168890000Y-96370000D03*
D14*
%TO.C,J5*%
X166980000Y-124730000D03*
X166980000Y-127270000D03*
D15*
%TO.C,H2*%
X145830000Y-65870000D03*
%TO.C,H1*%
X167210000Y-118750000D03*
M02*
