%TF.GenerationSoftware,KiCad,Pcbnew,9.0.2*%
%TF.CreationDate,2025-09-22T16:34:47-04:00*%
%TF.ProjectId,ABAD,41424144-2e6b-4696-9361-645f70636258,rev?*%
%TF.SameCoordinates,Original*%
%TF.FileFunction,Copper,L4,Bot*%
%TF.FilePolarity,Positive*%
%FSLAX46Y46*%
G04 Gerber Fmt 4.6, Leading zero omitted, Abs format (unit mm)*
G04 Created by KiCad (PCBNEW 9.0.2) date 2025-09-22 16:34:47*
%MOMM*%
%LPD*%
G01*
G04 APERTURE LIST*
G04 Aperture macros list*
%AMRoundRect*
0 Rectangle with rounded corners*
0 $1 Rounding radius*
0 $2 $3 $4 $5 $6 $7 $8 $9 X,Y pos of 4 corners*
0 Add a 4 corners polygon primitive as box body*
4,1,4,$2,$3,$4,$5,$6,$7,$8,$9,$2,$3,0*
0 Add four circle primitives for the rounded corners*
1,1,$1+$1,$2,$3*
1,1,$1+$1,$4,$5*
1,1,$1+$1,$6,$7*
1,1,$1+$1,$8,$9*
0 Add four rect primitives between the rounded corners*
20,1,$1+$1,$2,$3,$4,$5,0*
20,1,$1+$1,$4,$5,$6,$7,0*
20,1,$1+$1,$6,$7,$8,$9,0*
20,1,$1+$1,$8,$9,$2,$3,0*%
G04 Aperture macros list end*
%TA.AperFunction,HeatsinkPad*%
%ADD10O,2.100000X1.000000*%
%TD*%
%TA.AperFunction,HeatsinkPad*%
%ADD11O,1.600000X1.000000*%
%TD*%
%TA.AperFunction,ComponentPad*%
%ADD12RoundRect,0.249999X0.850001X-0.850001X0.850001X0.850001X-0.850001X0.850001X-0.850001X-0.850001X0*%
%TD*%
%TA.AperFunction,ComponentPad*%
%ADD13C,2.200000*%
%TD*%
%TA.AperFunction,ComponentPad*%
%ADD14C,6.400000*%
%TD*%
%TA.AperFunction,ComponentPad*%
%ADD15R,1.700000X1.700000*%
%TD*%
%TA.AperFunction,ComponentPad*%
%ADD16C,1.700000*%
%TD*%
%TA.AperFunction,SMDPad,CuDef*%
%ADD17R,2.420000X5.080000*%
%TD*%
%TA.AperFunction,SMDPad,CuDef*%
%ADD18R,0.460000X0.950000*%
%TD*%
%TA.AperFunction,ComponentPad*%
%ADD19C,0.970000*%
%TD*%
%TA.AperFunction,ViaPad*%
%ADD20C,0.600000*%
%TD*%
%TA.AperFunction,Conductor*%
%ADD21C,0.200000*%
%TD*%
G04 APERTURE END LIST*
D10*
%TO.P,J2,S1,SHIELD*%
%TO.N,GND*%
X148860000Y-118590000D03*
D11*
X144680000Y-118590000D03*
D10*
X148860000Y-127230000D03*
D11*
X144680000Y-127230000D03*
%TD*%
D12*
%TO.P,J5,1,Pin_1*%
%TO.N,GND*%
X166980000Y-127270000D03*
D13*
%TO.P,J5,2,Pin_2*%
%TO.N,RAW_BATT+*%
X166980000Y-124730000D03*
%TD*%
D14*
%TO.P,H1,1*%
%TO.N,N/C*%
X167210000Y-118750000D03*
%TD*%
D15*
%TO.P,J3,1,Pin_1*%
%TO.N,/BOOTSEL*%
X168890000Y-93830000D03*
D16*
%TO.P,J3,2,Pin_2*%
%TO.N,GND*%
X168890000Y-96370000D03*
%TD*%
D17*
%TO.P,J1,2,Ext*%
%TO.N,GND*%
X168680000Y-65460000D03*
X159920000Y-65460000D03*
D18*
X168680000Y-68450000D03*
X159920000Y-68450000D03*
D19*
X168680000Y-68900000D03*
X159920000Y-68900000D03*
%TD*%
D14*
%TO.P,H2,1*%
%TO.N,N/C*%
X145830000Y-65870000D03*
%TD*%
D20*
%TO.N,GND*%
X147020000Y-92000000D03*
X146580000Y-89600002D03*
X145450000Y-91040000D03*
%TO.N,+3V3*%
X144400000Y-91020000D03*
%TO.N,GND*%
X158810000Y-96160000D03*
X160780000Y-83210000D03*
X144600000Y-72310000D03*
X149320000Y-97700000D03*
X151080000Y-105260000D03*
X145270000Y-103260000D03*
X144760000Y-128690000D03*
X157750000Y-122360000D03*
X161420000Y-68900000D03*
X145565865Y-97538577D03*
X163420000Y-122760000D03*
X166710000Y-95450000D03*
X153000000Y-85650000D03*
X153100000Y-124430000D03*
X143379265Y-95810735D03*
X155037500Y-121362500D03*
X158770000Y-85740000D03*
X148830000Y-115910000D03*
X169670000Y-128730000D03*
X166580000Y-65480000D03*
X150730000Y-117710000D03*
X163490000Y-115490000D03*
X144600000Y-71370000D03*
X147770000Y-115930000D03*
X162920000Y-121150000D03*
X142770000Y-101710000D03*
X165600000Y-98170000D03*
X150610000Y-101280000D03*
X144150000Y-86240000D03*
X165950000Y-69780000D03*
X144970000Y-78910000D03*
X154270000Y-98930000D03*
X158800000Y-88480000D03*
X166690000Y-98170000D03*
X167140000Y-69780000D03*
X153380000Y-93277046D03*
X151050000Y-126390000D03*
X157590000Y-117780000D03*
X143030000Y-98550000D03*
X154630000Y-90450000D03*
X151120000Y-127920000D03*
X151080000Y-106450000D03*
X165230000Y-89200000D03*
X154390000Y-91560000D03*
X163460000Y-123610000D03*
X144610000Y-70490000D03*
X164380000Y-128640000D03*
X145140000Y-86230000D03*
X158380000Y-117790000D03*
X145150000Y-85220000D03*
X157670000Y-65440000D03*
%TO.N,+3V3*%
X144960000Y-100640000D03*
X151550000Y-109740000D03*
X160990000Y-77710000D03*
%TO.N,+BATT*%
X145780000Y-109760000D03*
X157960000Y-119360000D03*
%TO.N,+3V3*%
X154210000Y-87260000D03*
X165520000Y-83670000D03*
X148090000Y-101418000D03*
X148380000Y-90541000D03*
X142510000Y-93570000D03*
X159720000Y-115840000D03*
X145150000Y-95010000D03*
X153380000Y-94760000D03*
X165095000Y-96542500D03*
X169500000Y-83670000D03*
X148421000Y-96439736D03*
X149079236Y-86190764D03*
X167530000Y-83630000D03*
X161020000Y-87140000D03*
X156890000Y-95860000D03*
X159140000Y-90740000D03*
X144780000Y-89470000D03*
%TO.N,+1V1*%
X151779000Y-94810000D03*
X154940346Y-97738875D03*
X151710735Y-86859265D03*
%TO.N,/BATT SENSE*%
X148450000Y-104570000D03*
X150910061Y-94884541D03*
%TO.N,Net-(J2-CC1)*%
X148330000Y-122050000D03*
X146030000Y-117020000D03*
%TO.N,/SWCLK*%
X152184265Y-89905735D03*
X144850000Y-83280000D03*
%TO.N,/RF_LED*%
X167280000Y-89800000D03*
X160010000Y-90870000D03*
%TO.N,/PPS_LED*%
X169950000Y-89550000D03*
X159429871Y-92351600D03*
%TO.N,/SWD*%
X151378308Y-87586930D03*
X144920000Y-81000000D03*
%TO.N,/ACCEL_SDA*%
X148220000Y-98430000D03*
X146820000Y-97110000D03*
%TO.N,/MOSI*%
X149010000Y-76280000D03*
X154610000Y-84950000D03*
%TO.N,/BMP_SCL*%
X146179942Y-92692141D03*
X146650000Y-91080000D03*
%TO.N,/QSPI_SS*%
X159018528Y-97740000D03*
X164190000Y-91059000D03*
%TO.N,/ACCEL_INT*%
X148853938Y-93917258D03*
X146020000Y-95880000D03*
%TO.N,/QSPI_SD1*%
X156780000Y-97740000D03*
X160820000Y-95090000D03*
%TO.N,/GPS_RX*%
X152070000Y-99710000D03*
X151310801Y-90754182D03*
%TO.N,/XIN*%
X153810000Y-89862271D03*
X149140000Y-87950000D03*
%TO.N,/QSPI_SD0*%
X155720000Y-93530000D03*
X159920000Y-93650000D03*
%TO.N,/QSPI_SCLK*%
X160310000Y-98340000D03*
X155090026Y-96869379D03*
%TO.N,/GPS_TX*%
X151410000Y-99000000D03*
X151170000Y-92330000D03*
%TO.N,/RESET*%
X149650000Y-82360000D03*
X155620000Y-89920000D03*
%TO.N,/SCK*%
X151290000Y-79910000D03*
X149120000Y-77610000D03*
%TO.N,/BMP_INT*%
X142470000Y-94940000D03*
X148930000Y-94940000D03*
%TO.N,/QSPI_SD3*%
X154420735Y-94610735D03*
X162580000Y-94810000D03*
%TO.N,/QSPI_SD2*%
X159120000Y-94970000D03*
X155916054Y-94850000D03*
%TD*%
D21*
%TO.N,/BATT SENSE*%
X151300000Y-95274480D02*
X150910061Y-94884541D01*
X151300000Y-97160000D02*
X151300000Y-95274480D01*
X150770000Y-99770000D02*
X150770000Y-97690000D01*
X148450000Y-104570000D02*
X148450000Y-102090000D01*
X148450000Y-102090000D02*
X150770000Y-99770000D01*
X150770000Y-97690000D02*
X151300000Y-97160000D01*
%TO.N,Net-(J2-CC1)*%
X147620000Y-122160000D02*
X148220000Y-122160000D01*
X146040000Y-120580000D02*
X147620000Y-122160000D01*
X146030000Y-117020000D02*
X146040000Y-117030000D01*
X148220000Y-122160000D02*
X148330000Y-122050000D01*
X146040000Y-117030000D02*
X146040000Y-120580000D01*
%TO.N,/SWCLK*%
X152180000Y-89910000D02*
X151907100Y-89910000D01*
X151907100Y-89910000D02*
X151893550Y-89896450D01*
X151893550Y-89853607D02*
X145319943Y-83280000D01*
X151893550Y-89896450D02*
X151893550Y-89853607D01*
X145319943Y-83280000D02*
X144850000Y-83280000D01*
X152184265Y-89905735D02*
X152180000Y-89910000D01*
%TO.N,/RF_LED*%
X161080000Y-89800000D02*
X167280000Y-89800000D01*
X160010000Y-90870000D02*
X161080000Y-89800000D01*
%TO.N,/PPS_LED*%
X169900000Y-89690000D02*
X169950000Y-89640000D01*
X169950000Y-89640000D02*
X169950000Y-89550000D01*
X161322471Y-90459000D02*
X169131000Y-90459000D01*
X159429871Y-92351600D02*
X161322471Y-90459000D01*
X169131000Y-90459000D02*
X169900000Y-89690000D01*
%TO.N,/SWD*%
X151090000Y-87298622D02*
X151090000Y-86530000D01*
X151378308Y-87586930D02*
X151090000Y-87298622D01*
X151090000Y-86530000D02*
X145560000Y-81000000D01*
X145560000Y-81000000D02*
X144920000Y-81000000D01*
%TO.N,/ACCEL_SDA*%
X146900000Y-97110000D02*
X148220000Y-98430000D01*
X146820000Y-97110000D02*
X146900000Y-97110000D01*
%TO.N,/MOSI*%
X150178530Y-76280000D02*
X154610000Y-80711470D01*
X154610000Y-80711470D02*
X154610000Y-84950000D01*
X149010000Y-76280000D02*
X150178530Y-76280000D01*
%TO.N,/BMP_SCL*%
X146650000Y-91080000D02*
X146179942Y-91550058D01*
X146179942Y-91550058D02*
X146179942Y-92692141D01*
%TO.N,/QSPI_SS*%
X160499943Y-97740000D02*
X159018528Y-97740000D01*
X163770000Y-91479000D02*
X163770000Y-94469943D01*
X163770000Y-94469943D02*
X160499943Y-97740000D01*
X164190000Y-91059000D02*
X163770000Y-91479000D01*
%TO.N,/ACCEL_INT*%
X147982742Y-93917258D02*
X146020000Y-95880000D01*
X148853938Y-93917258D02*
X147982742Y-93917258D01*
%TO.N,/QSPI_SD1*%
X158170000Y-97740000D02*
X160820000Y-95090000D01*
X156780000Y-97740000D02*
X158170000Y-97740000D01*
%TO.N,/GPS_RX*%
X151310801Y-91390801D02*
X151639000Y-91719000D01*
X152780000Y-99000000D02*
X152070000Y-99710000D01*
X151639000Y-91719000D02*
X151639000Y-91729000D01*
X152780000Y-92870000D02*
X152780000Y-99000000D01*
X151310801Y-90754182D02*
X151310801Y-91390801D01*
X151639000Y-91729000D02*
X152780000Y-92870000D01*
%TO.N,/XIN*%
X153590000Y-90750000D02*
X152180000Y-90750000D01*
X152180000Y-90750000D02*
X151439000Y-90009000D01*
X151035747Y-90009000D02*
X151024747Y-90020000D01*
X151024747Y-90020000D02*
X149650000Y-90020000D01*
X149140000Y-89510000D02*
X149140000Y-87950000D01*
X153810000Y-90530000D02*
X153590000Y-90750000D01*
X153810000Y-89862271D02*
X153810000Y-90530000D01*
X151439000Y-90009000D02*
X151035747Y-90009000D01*
X149650000Y-90020000D02*
X149140000Y-89510000D01*
%TO.N,/QSPI_SD0*%
X156080000Y-92930000D02*
X159200000Y-92930000D01*
X155720000Y-93530000D02*
X155720000Y-93290000D01*
X159200000Y-92930000D02*
X159920000Y-93650000D01*
X155720000Y-93290000D02*
X156080000Y-92930000D01*
%TO.N,/QSPI_SCLK*%
X155090026Y-97040026D02*
X156390000Y-98340000D01*
X156390000Y-98340000D02*
X160310000Y-98340000D01*
X155090026Y-96869379D02*
X155090026Y-97040026D01*
%TO.N,/GPS_TX*%
X152379000Y-93539000D02*
X151170000Y-92330000D01*
X151410000Y-99000000D02*
X152379000Y-98031000D01*
X152379000Y-98031000D02*
X152379000Y-93539000D01*
%TO.N,/RESET*%
X155620000Y-89920000D02*
X149650000Y-83950000D01*
X149650000Y-83950000D02*
X149650000Y-82360000D01*
%TO.N,/SCK*%
X151260000Y-79910000D02*
X149120000Y-77770000D01*
X149120000Y-77770000D02*
X149120000Y-77610000D01*
X151290000Y-79910000D02*
X151260000Y-79910000D01*
%TO.N,/BMP_INT*%
X146690000Y-96480000D02*
X143220000Y-96480000D01*
X147390000Y-96480000D02*
X148930000Y-94940000D01*
X146690000Y-96480000D02*
X147390000Y-96480000D01*
X142470000Y-95750000D02*
X142470000Y-94940000D01*
X143210000Y-96490000D02*
X142470000Y-95750000D01*
X143220000Y-96480000D02*
X143210000Y-96490000D01*
%TO.N,/QSPI_SD3*%
X154420735Y-94610735D02*
X154420735Y-94566100D01*
X154736835Y-94250000D02*
X162020000Y-94250000D01*
X154420735Y-94566100D02*
X154736835Y-94250000D01*
X162020000Y-94250000D02*
X162580000Y-94810000D01*
%TO.N,/QSPI_SD2*%
X155916054Y-94850000D02*
X159000000Y-94850000D01*
X159000000Y-94850000D02*
X159120000Y-94970000D01*
%TD*%
%TA.AperFunction,Conductor*%
%TO.N,GND*%
G36*
X170552539Y-62150185D02*
G01*
X170598294Y-62202989D01*
X170609500Y-62254500D01*
X170609500Y-62731003D01*
X170589815Y-62798042D01*
X170537011Y-62843797D01*
X170467853Y-62853741D01*
X170404297Y-62824716D01*
X170369318Y-62774336D01*
X170333354Y-62677913D01*
X170333350Y-62677906D01*
X170247190Y-62562812D01*
X170247187Y-62562809D01*
X170132093Y-62476649D01*
X170132086Y-62476645D01*
X169997379Y-62426403D01*
X169997372Y-62426401D01*
X169937844Y-62420000D01*
X168930000Y-62420000D01*
X168930000Y-65336000D01*
X168910315Y-65403039D01*
X168857511Y-65448794D01*
X168806000Y-65460000D01*
X168680000Y-65460000D01*
X168680000Y-65586000D01*
X168660315Y-65653039D01*
X168607511Y-65698794D01*
X168556000Y-65710000D01*
X166970000Y-65710000D01*
X166970000Y-68047844D01*
X166976401Y-68107372D01*
X166976403Y-68107379D01*
X167026645Y-68242086D01*
X167026649Y-68242093D01*
X167112809Y-68357187D01*
X167112812Y-68357190D01*
X167227906Y-68443350D01*
X167227913Y-68443354D01*
X167362620Y-68493596D01*
X167362627Y-68493598D01*
X167422155Y-68499999D01*
X167422172Y-68500000D01*
X167604173Y-68500000D01*
X167671212Y-68519685D01*
X167716967Y-68572489D01*
X167726911Y-68641647D01*
X167725790Y-68648191D01*
X167695000Y-68802981D01*
X167695000Y-68997018D01*
X167732851Y-69187306D01*
X167732853Y-69187314D01*
X167807102Y-69366568D01*
X167807106Y-69366575D01*
X167828240Y-69398204D01*
X167828240Y-69398205D01*
X168415542Y-68810904D01*
X168476865Y-68777419D01*
X168481681Y-68777763D01*
X168450000Y-68854250D01*
X168450000Y-68945750D01*
X168485015Y-69030285D01*
X168549715Y-69094985D01*
X168634250Y-69130000D01*
X168725750Y-69130000D01*
X168810285Y-69094985D01*
X168874985Y-69030285D01*
X168910000Y-68945750D01*
X168910000Y-68854250D01*
X168879633Y-68780938D01*
X168900111Y-68782403D01*
X168944458Y-68810904D01*
X169531758Y-69398204D01*
X169552899Y-69366565D01*
X169627145Y-69187318D01*
X169627148Y-69187306D01*
X169664999Y-68997018D01*
X169665000Y-68997016D01*
X169665000Y-68802983D01*
X169664999Y-68802981D01*
X169634210Y-68648191D01*
X169640437Y-68578600D01*
X169683300Y-68523422D01*
X169749190Y-68500178D01*
X169755827Y-68500000D01*
X169937828Y-68500000D01*
X169937844Y-68499999D01*
X169997372Y-68493598D01*
X169997379Y-68493596D01*
X170132086Y-68443354D01*
X170132093Y-68443350D01*
X170247187Y-68357190D01*
X170247190Y-68357187D01*
X170333350Y-68242093D01*
X170333354Y-68242086D01*
X170369318Y-68145663D01*
X170411189Y-68089729D01*
X170476653Y-68065312D01*
X170544926Y-68080164D01*
X170594332Y-68129569D01*
X170609500Y-68188996D01*
X170609500Y-88795922D01*
X170589815Y-88862961D01*
X170537011Y-88908716D01*
X170467853Y-88918660D01*
X170416609Y-88899024D01*
X170329185Y-88840609D01*
X170329172Y-88840602D01*
X170183501Y-88780264D01*
X170183489Y-88780261D01*
X170028845Y-88749500D01*
X170028842Y-88749500D01*
X169871158Y-88749500D01*
X169871155Y-88749500D01*
X169716510Y-88780261D01*
X169716498Y-88780264D01*
X169570827Y-88840602D01*
X169570814Y-88840609D01*
X169439711Y-88928210D01*
X169439707Y-88928213D01*
X169328213Y-89039707D01*
X169328210Y-89039711D01*
X169240609Y-89170814D01*
X169240602Y-89170827D01*
X169180264Y-89316498D01*
X169180261Y-89316510D01*
X169149500Y-89471153D01*
X169149500Y-89539903D01*
X169129815Y-89606942D01*
X169113181Y-89627584D01*
X168918584Y-89822181D01*
X168857261Y-89855666D01*
X168830903Y-89858500D01*
X168204500Y-89858500D01*
X168137461Y-89838815D01*
X168091706Y-89786011D01*
X168080500Y-89734500D01*
X168080500Y-89721155D01*
X168080499Y-89721153D01*
X168063176Y-89634066D01*
X168049737Y-89566503D01*
X168042423Y-89548846D01*
X167989397Y-89420827D01*
X167989390Y-89420814D01*
X167901789Y-89289711D01*
X167901786Y-89289707D01*
X167790292Y-89178213D01*
X167790288Y-89178210D01*
X167659185Y-89090609D01*
X167659172Y-89090602D01*
X167513501Y-89030264D01*
X167513489Y-89030261D01*
X167358845Y-88999500D01*
X167358842Y-88999500D01*
X167201158Y-88999500D01*
X167201155Y-88999500D01*
X167046510Y-89030261D01*
X167046498Y-89030264D01*
X166900827Y-89090602D01*
X166900814Y-89090609D01*
X166769125Y-89178602D01*
X166702447Y-89199480D01*
X166700234Y-89199500D01*
X161166670Y-89199500D01*
X161166654Y-89199499D01*
X161159058Y-89199499D01*
X161000943Y-89199499D01*
X160924579Y-89219961D01*
X160848214Y-89240423D01*
X160848209Y-89240426D01*
X160711290Y-89319475D01*
X160711282Y-89319481D01*
X159995339Y-90035425D01*
X159980559Y-90043739D01*
X159969818Y-90055039D01*
X159941462Y-90065735D01*
X159937072Y-90068205D01*
X159931768Y-90069500D01*
X159931158Y-90069500D01*
X159776503Y-90100263D01*
X159734452Y-90117680D01*
X159725202Y-90119939D01*
X159699423Y-90118749D01*
X159673768Y-90121507D01*
X159662747Y-90117056D01*
X159655406Y-90116718D01*
X159646826Y-90110627D01*
X159626897Y-90102580D01*
X159519185Y-90030609D01*
X159519172Y-90030602D01*
X159373501Y-89970264D01*
X159373489Y-89970261D01*
X159218845Y-89939500D01*
X159218842Y-89939500D01*
X159061158Y-89939500D01*
X159061155Y-89939500D01*
X158906510Y-89970261D01*
X158906498Y-89970264D01*
X158760827Y-90030602D01*
X158760814Y-90030609D01*
X158629711Y-90118210D01*
X158629707Y-90118213D01*
X158518213Y-90229707D01*
X158518210Y-90229711D01*
X158430609Y-90360814D01*
X158430602Y-90360827D01*
X158370264Y-90506498D01*
X158370261Y-90506510D01*
X158339500Y-90661153D01*
X158339500Y-90818846D01*
X158370261Y-90973489D01*
X158370264Y-90973501D01*
X158430602Y-91119172D01*
X158430609Y-91119185D01*
X158518210Y-91250288D01*
X158518213Y-91250292D01*
X158629707Y-91361786D01*
X158629711Y-91361789D01*
X158760814Y-91449390D01*
X158760827Y-91449397D01*
X158903569Y-91508522D01*
X158957973Y-91552363D01*
X158980038Y-91618657D01*
X158962759Y-91686356D01*
X158925009Y-91726185D01*
X158919578Y-91729813D01*
X158808084Y-91841307D01*
X158808081Y-91841311D01*
X158720480Y-91972414D01*
X158720473Y-91972427D01*
X158660135Y-92118098D01*
X158660132Y-92118110D01*
X158637937Y-92229691D01*
X158605552Y-92291602D01*
X158544836Y-92326177D01*
X158516320Y-92329500D01*
X156166669Y-92329500D01*
X156166653Y-92329499D01*
X156159057Y-92329499D01*
X156000943Y-92329499D01*
X155893587Y-92358265D01*
X155848210Y-92370424D01*
X155848209Y-92370425D01*
X155798096Y-92399359D01*
X155798095Y-92399360D01*
X155781672Y-92408842D01*
X155711285Y-92449479D01*
X155711282Y-92449481D01*
X155599478Y-92561286D01*
X155351287Y-92809476D01*
X155351264Y-92809499D01*
X155347434Y-92813327D01*
X155328668Y-92828725D01*
X155209707Y-92908213D01*
X155098213Y-93019707D01*
X155098210Y-93019711D01*
X155010609Y-93150814D01*
X155010602Y-93150827D01*
X154950264Y-93296498D01*
X154950261Y-93296510D01*
X154919500Y-93451153D01*
X154919500Y-93525499D01*
X154899815Y-93592538D01*
X154847011Y-93638293D01*
X154795500Y-93649499D01*
X154657778Y-93649499D01*
X154550422Y-93678265D01*
X154505045Y-93690424D01*
X154505044Y-93690425D01*
X154458610Y-93717234D01*
X154458595Y-93717243D01*
X154454930Y-93719360D01*
X154368119Y-93769480D01*
X154341848Y-93795750D01*
X154331867Y-93802462D01*
X154309563Y-93809517D01*
X154289029Y-93820730D01*
X154286865Y-93821180D01*
X154187243Y-93840996D01*
X154187233Y-93840999D01*
X154041562Y-93901337D01*
X154041549Y-93901344D01*
X153910449Y-93988943D01*
X153881124Y-94018267D01*
X153819799Y-94051750D01*
X153750108Y-94046763D01*
X153745993Y-94045144D01*
X153613501Y-93990264D01*
X153613491Y-93990261D01*
X153480308Y-93963769D01*
X153418397Y-93931384D01*
X153383823Y-93870668D01*
X153380500Y-93842152D01*
X153380500Y-92959060D01*
X153380501Y-92959047D01*
X153380501Y-92790944D01*
X153380398Y-92790560D01*
X153339577Y-92638216D01*
X153339573Y-92638209D01*
X153260524Y-92501290D01*
X153260518Y-92501282D01*
X152855734Y-92096498D01*
X152321415Y-91562180D01*
X152287931Y-91500858D01*
X152292915Y-91431167D01*
X152334787Y-91375233D01*
X152400251Y-91350816D01*
X152409097Y-91350500D01*
X153503331Y-91350500D01*
X153503347Y-91350501D01*
X153510943Y-91350501D01*
X153669054Y-91350501D01*
X153669057Y-91350501D01*
X153821785Y-91309577D01*
X153890777Y-91269744D01*
X153958716Y-91230520D01*
X154070520Y-91118716D01*
X154070520Y-91118714D01*
X154080723Y-91108512D01*
X154080727Y-91108506D01*
X154168506Y-91020728D01*
X154168511Y-91020724D01*
X154178714Y-91010520D01*
X154178716Y-91010520D01*
X154290520Y-90898716D01*
X154352742Y-90790943D01*
X154355302Y-90786510D01*
X154362242Y-90774489D01*
X154369577Y-90761785D01*
X154410501Y-90609057D01*
X154410501Y-90450943D01*
X154410501Y-90443348D01*
X154410500Y-90443330D01*
X154410500Y-90442036D01*
X154430185Y-90374997D01*
X154431398Y-90373145D01*
X154519390Y-90241456D01*
X154519390Y-90241455D01*
X154519394Y-90241450D01*
X154579737Y-90095768D01*
X154587641Y-90056030D01*
X154620025Y-89994122D01*
X154680740Y-89959547D01*
X154750510Y-89963286D01*
X154807182Y-90004152D01*
X154830875Y-90056031D01*
X154850261Y-90153491D01*
X154850264Y-90153501D01*
X154910602Y-90299172D01*
X154910609Y-90299185D01*
X154998210Y-90430288D01*
X154998213Y-90430292D01*
X155109707Y-90541786D01*
X155109711Y-90541789D01*
X155240814Y-90629390D01*
X155240827Y-90629397D01*
X155351745Y-90675340D01*
X155386503Y-90689737D01*
X155541153Y-90720499D01*
X155541156Y-90720500D01*
X155541158Y-90720500D01*
X155698844Y-90720500D01*
X155698845Y-90720499D01*
X155853497Y-90689737D01*
X155971592Y-90640821D01*
X155999172Y-90629397D01*
X155999172Y-90629396D01*
X155999179Y-90629394D01*
X156130289Y-90541789D01*
X156241789Y-90430289D01*
X156329394Y-90299179D01*
X156389737Y-90153497D01*
X156420500Y-89998842D01*
X156420500Y-89841158D01*
X156420500Y-89841155D01*
X156420499Y-89841153D01*
X156416725Y-89822181D01*
X156389737Y-89686503D01*
X156365332Y-89627584D01*
X156329397Y-89540827D01*
X156329390Y-89540814D01*
X156241789Y-89409711D01*
X156241786Y-89409707D01*
X156130292Y-89298213D01*
X156130288Y-89298210D01*
X155999185Y-89210609D01*
X155999172Y-89210602D01*
X155853501Y-89150264D01*
X155853491Y-89150261D01*
X155698149Y-89119361D01*
X155636238Y-89086976D01*
X155634660Y-89085425D01*
X154653727Y-88104492D01*
X154620242Y-88043169D01*
X154625226Y-87973477D01*
X154667098Y-87917544D01*
X154672502Y-87913718D01*
X154720289Y-87881789D01*
X154831789Y-87770289D01*
X154919394Y-87639179D01*
X154979737Y-87493497D01*
X155010500Y-87338842D01*
X155010500Y-87181158D01*
X155010500Y-87181155D01*
X154990231Y-87079258D01*
X154990231Y-87079257D01*
X154986630Y-87061153D01*
X160219500Y-87061153D01*
X160219500Y-87218846D01*
X160250261Y-87373489D01*
X160250264Y-87373501D01*
X160310602Y-87519172D01*
X160310609Y-87519185D01*
X160398210Y-87650288D01*
X160398213Y-87650292D01*
X160509707Y-87761786D01*
X160509711Y-87761789D01*
X160640814Y-87849390D01*
X160640827Y-87849397D01*
X160786498Y-87909735D01*
X160786503Y-87909737D01*
X160941153Y-87940499D01*
X160941156Y-87940500D01*
X160941158Y-87940500D01*
X161098844Y-87940500D01*
X161098845Y-87940499D01*
X161253497Y-87909737D01*
X161399179Y-87849394D01*
X161530289Y-87761789D01*
X161641789Y-87650289D01*
X161729394Y-87519179D01*
X161789737Y-87373497D01*
X161820500Y-87218842D01*
X161820500Y-87061158D01*
X161820500Y-87061155D01*
X161820499Y-87061153D01*
X161813606Y-87026498D01*
X161789737Y-86906503D01*
X161766745Y-86850994D01*
X161729397Y-86760827D01*
X161729390Y-86760814D01*
X161641789Y-86629711D01*
X161641786Y-86629707D01*
X161530292Y-86518213D01*
X161530288Y-86518210D01*
X161399185Y-86430609D01*
X161399172Y-86430602D01*
X161253501Y-86370264D01*
X161253489Y-86370261D01*
X161098845Y-86339500D01*
X161098842Y-86339500D01*
X160941158Y-86339500D01*
X160941155Y-86339500D01*
X160786510Y-86370261D01*
X160786498Y-86370264D01*
X160640827Y-86430602D01*
X160640814Y-86430609D01*
X160509711Y-86518210D01*
X160509707Y-86518213D01*
X160398213Y-86629707D01*
X160398210Y-86629711D01*
X160310609Y-86760814D01*
X160310602Y-86760827D01*
X160250264Y-86906498D01*
X160250261Y-86906510D01*
X160219500Y-87061153D01*
X154986630Y-87061153D01*
X154979738Y-87026510D01*
X154979737Y-87026503D01*
X154979735Y-87026498D01*
X154919397Y-86880827D01*
X154919390Y-86880814D01*
X154831789Y-86749711D01*
X154831786Y-86749707D01*
X154720292Y-86638213D01*
X154720288Y-86638210D01*
X154589185Y-86550609D01*
X154589172Y-86550602D01*
X154443501Y-86490264D01*
X154443489Y-86490261D01*
X154288845Y-86459500D01*
X154288842Y-86459500D01*
X154131158Y-86459500D01*
X154131155Y-86459500D01*
X153976510Y-86490261D01*
X153976498Y-86490264D01*
X153830827Y-86550602D01*
X153830814Y-86550609D01*
X153699711Y-86638210D01*
X153699707Y-86638213D01*
X153588213Y-86749707D01*
X153588208Y-86749713D01*
X153556289Y-86797483D01*
X153502676Y-86842288D01*
X153433351Y-86850994D01*
X153370324Y-86820838D01*
X153365507Y-86816272D01*
X150286819Y-83737584D01*
X150253334Y-83676261D01*
X150250500Y-83649903D01*
X150250500Y-82939765D01*
X150270185Y-82872726D01*
X150271398Y-82870874D01*
X150278490Y-82860261D01*
X150359394Y-82739179D01*
X150419737Y-82593497D01*
X150450500Y-82438842D01*
X150450500Y-82281158D01*
X150450500Y-82281155D01*
X150450499Y-82281153D01*
X150419738Y-82126510D01*
X150419737Y-82126503D01*
X150419735Y-82126498D01*
X150359397Y-81980827D01*
X150359390Y-81980814D01*
X150271789Y-81849711D01*
X150271786Y-81849707D01*
X150160292Y-81738213D01*
X150160288Y-81738210D01*
X150029185Y-81650609D01*
X150029172Y-81650602D01*
X149883501Y-81590264D01*
X149883489Y-81590261D01*
X149728845Y-81559500D01*
X149728842Y-81559500D01*
X149571158Y-81559500D01*
X149571155Y-81559500D01*
X149416510Y-81590261D01*
X149416498Y-81590264D01*
X149270827Y-81650602D01*
X149270814Y-81650609D01*
X149139711Y-81738210D01*
X149139707Y-81738213D01*
X149028213Y-81849707D01*
X149028210Y-81849711D01*
X148940609Y-81980814D01*
X148940602Y-81980827D01*
X148880264Y-82126498D01*
X148880261Y-82126510D01*
X148849500Y-82281153D01*
X148849500Y-82438846D01*
X148880261Y-82593489D01*
X148880264Y-82593501D01*
X148940602Y-82739172D01*
X148940609Y-82739185D01*
X149019595Y-82857395D01*
X149021510Y-82860261D01*
X149028602Y-82870874D01*
X149049480Y-82937551D01*
X149049500Y-82939765D01*
X149049500Y-83340903D01*
X149029815Y-83407942D01*
X148977011Y-83453697D01*
X148907853Y-83463641D01*
X148844297Y-83434616D01*
X148837819Y-83428584D01*
X146047590Y-80638355D01*
X146047588Y-80638352D01*
X145928717Y-80519481D01*
X145928716Y-80519480D01*
X145841904Y-80469360D01*
X145841904Y-80469359D01*
X145841900Y-80469358D01*
X145791785Y-80440423D01*
X145639057Y-80399499D01*
X145499764Y-80399499D01*
X145432725Y-80379814D01*
X145430873Y-80378601D01*
X145299185Y-80290609D01*
X145299172Y-80290602D01*
X145153501Y-80230264D01*
X145153489Y-80230261D01*
X144998845Y-80199500D01*
X144998842Y-80199500D01*
X144841158Y-80199500D01*
X144841155Y-80199500D01*
X144686510Y-80230261D01*
X144686498Y-80230264D01*
X144540827Y-80290602D01*
X144540814Y-80290609D01*
X144409711Y-80378210D01*
X144409707Y-80378213D01*
X144298213Y-80489707D01*
X144298210Y-80489711D01*
X144210609Y-80620814D01*
X144210602Y-80620827D01*
X144150264Y-80766498D01*
X144150261Y-80766510D01*
X144119500Y-80921153D01*
X144119500Y-81078846D01*
X144150261Y-81233489D01*
X144150264Y-81233501D01*
X144210602Y-81379172D01*
X144210609Y-81379185D01*
X144298210Y-81510288D01*
X144298213Y-81510292D01*
X144409707Y-81621786D01*
X144409711Y-81621789D01*
X144540814Y-81709390D01*
X144540827Y-81709397D01*
X144686498Y-81769735D01*
X144686503Y-81769737D01*
X144841153Y-81800499D01*
X144841156Y-81800500D01*
X144841158Y-81800500D01*
X144998844Y-81800500D01*
X144998845Y-81800499D01*
X145153497Y-81769737D01*
X145209120Y-81746697D01*
X145304808Y-81707063D01*
X145305533Y-81708815D01*
X145365291Y-81696361D01*
X145430539Y-81721348D01*
X145443047Y-81732282D01*
X148920292Y-85209527D01*
X148953777Y-85270850D01*
X148948793Y-85340542D01*
X148906921Y-85396475D01*
X148856809Y-85418824D01*
X148845745Y-85421025D01*
X148845734Y-85421028D01*
X148700063Y-85481366D01*
X148700045Y-85481376D01*
X148587143Y-85556815D01*
X148520466Y-85577693D01*
X148453086Y-85559208D01*
X148430572Y-85541394D01*
X145807533Y-82918355D01*
X145807531Y-82918352D01*
X145688660Y-82799481D01*
X145688652Y-82799475D01*
X145594900Y-82745348D01*
X145594897Y-82745347D01*
X145584214Y-82739179D01*
X145551728Y-82720423D01*
X145402111Y-82680332D01*
X145398376Y-82679073D01*
X145389848Y-82673102D01*
X145365888Y-82660795D01*
X145365354Y-82661595D01*
X145229185Y-82570609D01*
X145229172Y-82570602D01*
X145083501Y-82510264D01*
X145083489Y-82510261D01*
X144928845Y-82479500D01*
X144928842Y-82479500D01*
X144771158Y-82479500D01*
X144771155Y-82479500D01*
X144616510Y-82510261D01*
X144616498Y-82510264D01*
X144470827Y-82570602D01*
X144470814Y-82570609D01*
X144339711Y-82658210D01*
X144339707Y-82658213D01*
X144228213Y-82769707D01*
X144228210Y-82769711D01*
X144140609Y-82900814D01*
X144140602Y-82900827D01*
X144080264Y-83046498D01*
X144080261Y-83046510D01*
X144049500Y-83201153D01*
X144049500Y-83358846D01*
X144080261Y-83513489D01*
X144080264Y-83513501D01*
X144140602Y-83659172D01*
X144140609Y-83659185D01*
X144228210Y-83790288D01*
X144228213Y-83790292D01*
X144339707Y-83901786D01*
X144339711Y-83901789D01*
X144470814Y-83989390D01*
X144470827Y-83989397D01*
X144582071Y-84035475D01*
X144616503Y-84049737D01*
X144771153Y-84080499D01*
X144771156Y-84080500D01*
X144771158Y-84080500D01*
X144928844Y-84080500D01*
X144928845Y-84080499D01*
X145083497Y-84049737D01*
X145117929Y-84035474D01*
X145187395Y-84028005D01*
X145249875Y-84059278D01*
X145253062Y-84062354D01*
X148491196Y-87300488D01*
X148524681Y-87361811D01*
X148519697Y-87431503D01*
X148506618Y-87457059D01*
X148430608Y-87570816D01*
X148430602Y-87570827D01*
X148370264Y-87716498D01*
X148370261Y-87716510D01*
X148339500Y-87871153D01*
X148339500Y-88028846D01*
X148370261Y-88183489D01*
X148370264Y-88183501D01*
X148430602Y-88329172D01*
X148430609Y-88329185D01*
X148518602Y-88460874D01*
X148539480Y-88527551D01*
X148539500Y-88529765D01*
X148539500Y-89430939D01*
X148539499Y-89430943D01*
X148539499Y-89589057D01*
X148542226Y-89599235D01*
X148542463Y-89614589D01*
X148537068Y-89634066D01*
X148536585Y-89654271D01*
X148527933Y-89667050D01*
X148523814Y-89681924D01*
X148508744Y-89695393D01*
X148497415Y-89712129D01*
X148483228Y-89718201D01*
X148471722Y-89728487D01*
X148451763Y-89731671D01*
X148433183Y-89739625D01*
X148418478Y-89740500D01*
X148301155Y-89740500D01*
X148146510Y-89771261D01*
X148146498Y-89771264D01*
X148000827Y-89831602D01*
X148000814Y-89831609D01*
X147869711Y-89919210D01*
X147869707Y-89919213D01*
X147758213Y-90030707D01*
X147758210Y-90030711D01*
X147670609Y-90161814D01*
X147670602Y-90161827D01*
X147610264Y-90307498D01*
X147610261Y-90307510D01*
X147579500Y-90462153D01*
X147579500Y-90621458D01*
X147559815Y-90688497D01*
X147507011Y-90734252D01*
X147437853Y-90744196D01*
X147374297Y-90715171D01*
X147352398Y-90690349D01*
X147271789Y-90569711D01*
X147271786Y-90569707D01*
X147160292Y-90458213D01*
X147160288Y-90458210D01*
X147029185Y-90370609D01*
X147029172Y-90370602D01*
X146883501Y-90310264D01*
X146883489Y-90310261D01*
X146728845Y-90279500D01*
X146728842Y-90279500D01*
X146571158Y-90279500D01*
X146571155Y-90279500D01*
X146416510Y-90310261D01*
X146416498Y-90310264D01*
X146270827Y-90370602D01*
X146270814Y-90370609D01*
X146139711Y-90458210D01*
X146139707Y-90458213D01*
X146028213Y-90569707D01*
X146028210Y-90569711D01*
X145940609Y-90700814D01*
X145940602Y-90700827D01*
X145880264Y-90846498D01*
X145880261Y-90846508D01*
X145849362Y-91001847D01*
X145840603Y-91018591D01*
X145836591Y-91037056D01*
X145826525Y-91050506D01*
X145826721Y-91050637D01*
X145826719Y-91050640D01*
X145823364Y-91054731D01*
X145817828Y-91062129D01*
X145816977Y-91063758D01*
X145815447Y-91065315D01*
X145815439Y-91065322D01*
X145815437Y-91065326D01*
X145811239Y-91069525D01*
X145811237Y-91069523D01*
X145811226Y-91069538D01*
X145699423Y-91181340D01*
X145699422Y-91181342D01*
X145662510Y-91245276D01*
X145635250Y-91292491D01*
X145624135Y-91311744D01*
X145620365Y-91318273D01*
X145579441Y-91471001D01*
X145579441Y-91471003D01*
X145579441Y-91639104D01*
X145579442Y-91639117D01*
X145579442Y-92112375D01*
X145559757Y-92179414D01*
X145558544Y-92181266D01*
X145470551Y-92312955D01*
X145470544Y-92312968D01*
X145410206Y-92458639D01*
X145410203Y-92458651D01*
X145379442Y-92613294D01*
X145379442Y-92770987D01*
X145410203Y-92925630D01*
X145410206Y-92925642D01*
X145470544Y-93071313D01*
X145470551Y-93071326D01*
X145558152Y-93202429D01*
X145558155Y-93202433D01*
X145669649Y-93313927D01*
X145669653Y-93313930D01*
X145800756Y-93401531D01*
X145800769Y-93401538D01*
X145920552Y-93451153D01*
X145946445Y-93461878D01*
X146093645Y-93491158D01*
X146101095Y-93492640D01*
X146101098Y-93492641D01*
X146101100Y-93492641D01*
X146258786Y-93492641D01*
X146258787Y-93492640D01*
X146413439Y-93461878D01*
X146559121Y-93401535D01*
X146690231Y-93313930D01*
X146801731Y-93202430D01*
X146889336Y-93071320D01*
X146949679Y-92925638D01*
X146980442Y-92770983D01*
X146980442Y-92613299D01*
X146980442Y-92613296D01*
X146980441Y-92613294D01*
X146970096Y-92561286D01*
X146949679Y-92458644D01*
X146945883Y-92449479D01*
X146889339Y-92312968D01*
X146889332Y-92312955D01*
X146801340Y-92181266D01*
X146795689Y-92163219D01*
X146785465Y-92147310D01*
X146781013Y-92116348D01*
X146780462Y-92114588D01*
X146780442Y-92112375D01*
X146780442Y-91972000D01*
X146800127Y-91904961D01*
X146852931Y-91859206D01*
X146880250Y-91850382D01*
X146883497Y-91849737D01*
X147029179Y-91789394D01*
X147160289Y-91701789D01*
X147271789Y-91590289D01*
X147359394Y-91459179D01*
X147419737Y-91313497D01*
X147450500Y-91158842D01*
X147450500Y-91001158D01*
X147450500Y-90999541D01*
X147470185Y-90932502D01*
X147522989Y-90886747D01*
X147592147Y-90876803D01*
X147655703Y-90905828D01*
X147677602Y-90930650D01*
X147758210Y-91051288D01*
X147758213Y-91051292D01*
X147869707Y-91162786D01*
X147869711Y-91162789D01*
X148000814Y-91250390D01*
X148000827Y-91250397D01*
X148102467Y-91292497D01*
X148146503Y-91310737D01*
X148263182Y-91333946D01*
X148301153Y-91341499D01*
X148301156Y-91341500D01*
X148301158Y-91341500D01*
X148458844Y-91341500D01*
X148458845Y-91341499D01*
X148613497Y-91310737D01*
X148759179Y-91250394D01*
X148890289Y-91162789D01*
X149001789Y-91051289D01*
X149089394Y-90920179D01*
X149149737Y-90774497D01*
X149178413Y-90630334D01*
X149210798Y-90568423D01*
X149271513Y-90533849D01*
X149341283Y-90537588D01*
X149362028Y-90547137D01*
X149418213Y-90579576D01*
X149418214Y-90579576D01*
X149418215Y-90579577D01*
X149570943Y-90620501D01*
X149570946Y-90620501D01*
X149736653Y-90620501D01*
X149736669Y-90620500D01*
X150386301Y-90620500D01*
X150453340Y-90640185D01*
X150499095Y-90692989D01*
X150510301Y-90744500D01*
X150510301Y-90833028D01*
X150541062Y-90987671D01*
X150541065Y-90987683D01*
X150601403Y-91133354D01*
X150601410Y-91133367D01*
X150689402Y-91265055D01*
X150710280Y-91331732D01*
X150710300Y-91333946D01*
X150710300Y-91469858D01*
X150710607Y-91471003D01*
X150733788Y-91557517D01*
X150732125Y-91627367D01*
X150692962Y-91685229D01*
X150682908Y-91692710D01*
X150659708Y-91708212D01*
X150548213Y-91819707D01*
X150548210Y-91819711D01*
X150460609Y-91950814D01*
X150460602Y-91950827D01*
X150400264Y-92096498D01*
X150400261Y-92096510D01*
X150369500Y-92251153D01*
X150369500Y-92408846D01*
X150400261Y-92563489D01*
X150400264Y-92563501D01*
X150460602Y-92709172D01*
X150460609Y-92709185D01*
X150548210Y-92840288D01*
X150548213Y-92840292D01*
X150659707Y-92951786D01*
X150659711Y-92951789D01*
X150790814Y-93039390D01*
X150790827Y-93039397D01*
X150867912Y-93071326D01*
X150936503Y-93099737D01*
X151001147Y-93112595D01*
X151091849Y-93130638D01*
X151153760Y-93163023D01*
X151155339Y-93164574D01*
X151742181Y-93751416D01*
X151756884Y-93778343D01*
X151773477Y-93804162D01*
X151774368Y-93810362D01*
X151775666Y-93812739D01*
X151778500Y-93839097D01*
X151778500Y-93892152D01*
X151758815Y-93959191D01*
X151706011Y-94004946D01*
X151678692Y-94013769D01*
X151545508Y-94040261D01*
X151545498Y-94040264D01*
X151399828Y-94100602D01*
X151399817Y-94100608D01*
X151343744Y-94138075D01*
X151277066Y-94158952D01*
X151227402Y-94149533D01*
X151143558Y-94114804D01*
X151143550Y-94114802D01*
X150988906Y-94084041D01*
X150988903Y-94084041D01*
X150831219Y-94084041D01*
X150831216Y-94084041D01*
X150676571Y-94114802D01*
X150676559Y-94114805D01*
X150530888Y-94175143D01*
X150530875Y-94175150D01*
X150399772Y-94262751D01*
X150399768Y-94262754D01*
X150288274Y-94374248D01*
X150288271Y-94374252D01*
X150200670Y-94505355D01*
X150200663Y-94505368D01*
X150140325Y-94651039D01*
X150140322Y-94651051D01*
X150109561Y-94805694D01*
X150109561Y-94963387D01*
X150140322Y-95118030D01*
X150140325Y-95118042D01*
X150200663Y-95263713D01*
X150200670Y-95263726D01*
X150288271Y-95394829D01*
X150288274Y-95394833D01*
X150399768Y-95506327D01*
X150399772Y-95506330D01*
X150530875Y-95593931D01*
X150530882Y-95593935D01*
X150622953Y-95632071D01*
X150677355Y-95675911D01*
X150699421Y-95742205D01*
X150699500Y-95746632D01*
X150699500Y-96859902D01*
X150679815Y-96926941D01*
X150663181Y-96947583D01*
X150289481Y-97321282D01*
X150289480Y-97321284D01*
X150248777Y-97391784D01*
X150210423Y-97458215D01*
X150169499Y-97610943D01*
X150169499Y-97610945D01*
X150169499Y-97779046D01*
X150169500Y-97779059D01*
X150169500Y-99469902D01*
X150149815Y-99536941D01*
X150133181Y-99557583D01*
X148835102Y-100855661D01*
X148773779Y-100889146D01*
X148704087Y-100884162D01*
X148659740Y-100855661D01*
X148600292Y-100796213D01*
X148600288Y-100796210D01*
X148469185Y-100708609D01*
X148469172Y-100708602D01*
X148323501Y-100648264D01*
X148323489Y-100648261D01*
X148168845Y-100617500D01*
X148168842Y-100617500D01*
X148011158Y-100617500D01*
X148011155Y-100617500D01*
X147856510Y-100648261D01*
X147856498Y-100648264D01*
X147710827Y-100708602D01*
X147710814Y-100708609D01*
X147579711Y-100796210D01*
X147579707Y-100796213D01*
X147468213Y-100907707D01*
X147468210Y-100907711D01*
X147380609Y-101038814D01*
X147380602Y-101038827D01*
X147320264Y-101184498D01*
X147320261Y-101184510D01*
X147289500Y-101339153D01*
X147289500Y-101496846D01*
X147320261Y-101651489D01*
X147320264Y-101651501D01*
X147380602Y-101797172D01*
X147380609Y-101797185D01*
X147468210Y-101928288D01*
X147468213Y-101928292D01*
X147579707Y-102039786D01*
X147579711Y-102039789D01*
X147710817Y-102127392D01*
X147710819Y-102127392D01*
X147710821Y-102127394D01*
X147772952Y-102153129D01*
X147827356Y-102196969D01*
X147849421Y-102263263D01*
X147849500Y-102267690D01*
X147849500Y-103990234D01*
X147829815Y-104057273D01*
X147828602Y-104059125D01*
X147740609Y-104190814D01*
X147740602Y-104190827D01*
X147680264Y-104336498D01*
X147680261Y-104336510D01*
X147649500Y-104491153D01*
X147649500Y-104648846D01*
X147680261Y-104803489D01*
X147680264Y-104803501D01*
X147740602Y-104949172D01*
X147740609Y-104949185D01*
X147828210Y-105080288D01*
X147828213Y-105080292D01*
X147939707Y-105191786D01*
X147939711Y-105191789D01*
X148070814Y-105279390D01*
X148070827Y-105279397D01*
X148216498Y-105339735D01*
X148216503Y-105339737D01*
X148356554Y-105367595D01*
X148371153Y-105370499D01*
X148371156Y-105370500D01*
X148371158Y-105370500D01*
X148528844Y-105370500D01*
X148528845Y-105370499D01*
X148683497Y-105339737D01*
X148829179Y-105279394D01*
X148960289Y-105191789D01*
X149071789Y-105080289D01*
X149159394Y-104949179D01*
X149219737Y-104803497D01*
X149250500Y-104648842D01*
X149250500Y-104491158D01*
X149250500Y-104491155D01*
X149250499Y-104491153D01*
X149219738Y-104336510D01*
X149219737Y-104336503D01*
X149191424Y-104268148D01*
X149159397Y-104190827D01*
X149159390Y-104190814D01*
X149071398Y-104059125D01*
X149050520Y-103992447D01*
X149050500Y-103990234D01*
X149050500Y-102390096D01*
X149070185Y-102323057D01*
X149086814Y-102302420D01*
X151138713Y-100250521D01*
X151138716Y-100250520D01*
X151229516Y-100159719D01*
X151290835Y-100126237D01*
X151290837Y-100126237D01*
X151300805Y-100126950D01*
X151360527Y-100131221D01*
X151360528Y-100131221D01*
X151360529Y-100131222D01*
X151375274Y-100142260D01*
X151416461Y-100173092D01*
X151420296Y-100178512D01*
X151448210Y-100220288D01*
X151448213Y-100220292D01*
X151559707Y-100331786D01*
X151559711Y-100331789D01*
X151690814Y-100419390D01*
X151690827Y-100419397D01*
X151836498Y-100479735D01*
X151836503Y-100479737D01*
X151991153Y-100510499D01*
X151991156Y-100510500D01*
X151991158Y-100510500D01*
X152148844Y-100510500D01*
X152148845Y-100510499D01*
X152303497Y-100479737D01*
X152449179Y-100419394D01*
X152580289Y-100331789D01*
X152691789Y-100220289D01*
X152779394Y-100089179D01*
X152839737Y-99943497D01*
X152870500Y-99788842D01*
X152870638Y-99788150D01*
X152903023Y-99726239D01*
X152904513Y-99724721D01*
X153260520Y-99368716D01*
X153339577Y-99231784D01*
X153380501Y-99079057D01*
X153380501Y-98920942D01*
X153380501Y-98913347D01*
X153380500Y-98913329D01*
X153380500Y-95677847D01*
X153400185Y-95610808D01*
X153452989Y-95565053D01*
X153480309Y-95556230D01*
X153499136Y-95552485D01*
X153613497Y-95529737D01*
X153753404Y-95471786D01*
X153759172Y-95469397D01*
X153759172Y-95469396D01*
X153759179Y-95469394D01*
X153890289Y-95381789D01*
X153919608Y-95352468D01*
X153980928Y-95318985D01*
X154050620Y-95323969D01*
X154054723Y-95325583D01*
X154187238Y-95380472D01*
X154330632Y-95408995D01*
X154341888Y-95411234D01*
X154341891Y-95411235D01*
X154341893Y-95411235D01*
X154499579Y-95411235D01*
X154499580Y-95411234D01*
X154654232Y-95380472D01*
X154786730Y-95325590D01*
X154799907Y-95320132D01*
X154799907Y-95320131D01*
X154799914Y-95320129D01*
X154931024Y-95232524D01*
X154995684Y-95167863D01*
X155057005Y-95134380D01*
X155126697Y-95139364D01*
X155182631Y-95181235D01*
X155197924Y-95208091D01*
X155206657Y-95229173D01*
X155206663Y-95229185D01*
X155294264Y-95360288D01*
X155294267Y-95360292D01*
X155405761Y-95471786D01*
X155405765Y-95471789D01*
X155536868Y-95559390D01*
X155536881Y-95559397D01*
X155644878Y-95604130D01*
X155682557Y-95619737D01*
X155831632Y-95649390D01*
X155837207Y-95650499D01*
X155837210Y-95650500D01*
X155965556Y-95650500D01*
X156032595Y-95670185D01*
X156078350Y-95722989D01*
X156087016Y-95775066D01*
X156089500Y-95775066D01*
X156089500Y-95938846D01*
X156120261Y-96093489D01*
X156120264Y-96093501D01*
X156180602Y-96239172D01*
X156180609Y-96239185D01*
X156268210Y-96370288D01*
X156268213Y-96370292D01*
X156379707Y-96481786D01*
X156379711Y-96481789D01*
X156510814Y-96569390D01*
X156510827Y-96569397D01*
X156636240Y-96621344D01*
X156656503Y-96629737D01*
X156811153Y-96660499D01*
X156811156Y-96660500D01*
X156811158Y-96660500D01*
X156968844Y-96660500D01*
X156968845Y-96660499D01*
X157123497Y-96629737D01*
X157269179Y-96569394D01*
X157400289Y-96481789D01*
X157511789Y-96370289D01*
X157599394Y-96239179D01*
X157659737Y-96093497D01*
X157690500Y-95938842D01*
X157690500Y-95781158D01*
X157690500Y-95781155D01*
X157690499Y-95781153D01*
X157682711Y-95742000D01*
X157659737Y-95626503D01*
X157657851Y-95621951D01*
X157650383Y-95552485D01*
X157681657Y-95490005D01*
X157741746Y-95454352D01*
X157772413Y-95450500D01*
X158417059Y-95450500D01*
X158484098Y-95470185D01*
X158504740Y-95486819D01*
X158609707Y-95591786D01*
X158609711Y-95591789D01*
X158740814Y-95679390D01*
X158740827Y-95679397D01*
X158837390Y-95719394D01*
X158886503Y-95739737D01*
X158958639Y-95754085D01*
X159021404Y-95766571D01*
X159083315Y-95798956D01*
X159117889Y-95859671D01*
X159114150Y-95929441D01*
X159084894Y-95975869D01*
X157957584Y-97103181D01*
X157896261Y-97136666D01*
X157869903Y-97139500D01*
X157359766Y-97139500D01*
X157292727Y-97119815D01*
X157290875Y-97118602D01*
X157159185Y-97030609D01*
X157159172Y-97030602D01*
X157013501Y-96970264D01*
X157013489Y-96970261D01*
X156858845Y-96939500D01*
X156858842Y-96939500D01*
X156701158Y-96939500D01*
X156701155Y-96939500D01*
X156546510Y-96970261D01*
X156546498Y-96970264D01*
X156400827Y-97030602D01*
X156400814Y-97030609D01*
X156269711Y-97118210D01*
X156269707Y-97118213D01*
X156231259Y-97156662D01*
X156223313Y-97161000D01*
X156217888Y-97168248D01*
X156193128Y-97177482D01*
X156169936Y-97190147D01*
X156160906Y-97189501D01*
X156152424Y-97192665D01*
X156126603Y-97187048D01*
X156100244Y-97185163D01*
X156091190Y-97179344D01*
X156084151Y-97177813D01*
X156055897Y-97156662D01*
X155926845Y-97027610D01*
X155893360Y-96966287D01*
X155890526Y-96939929D01*
X155890526Y-96790534D01*
X155890525Y-96790532D01*
X155867193Y-96673237D01*
X155859763Y-96635882D01*
X155832223Y-96569394D01*
X155799423Y-96490206D01*
X155799416Y-96490193D01*
X155711815Y-96359090D01*
X155711812Y-96359086D01*
X155600318Y-96247592D01*
X155600314Y-96247589D01*
X155469211Y-96159988D01*
X155469198Y-96159981D01*
X155323527Y-96099643D01*
X155323515Y-96099640D01*
X155168871Y-96068879D01*
X155168868Y-96068879D01*
X155011184Y-96068879D01*
X155011181Y-96068879D01*
X154856536Y-96099640D01*
X154856524Y-96099643D01*
X154710853Y-96159981D01*
X154710840Y-96159988D01*
X154579737Y-96247589D01*
X154579733Y-96247592D01*
X154468239Y-96359086D01*
X154468236Y-96359090D01*
X154380635Y-96490193D01*
X154380628Y-96490206D01*
X154320290Y-96635877D01*
X154320287Y-96635889D01*
X154289526Y-96790532D01*
X154289526Y-96948225D01*
X154320287Y-97102868D01*
X154320289Y-97102876D01*
X154326407Y-97117646D01*
X154333875Y-97187115D01*
X154314947Y-97233988D01*
X154230955Y-97359689D01*
X154230948Y-97359702D01*
X154170610Y-97505373D01*
X154170607Y-97505385D01*
X154139846Y-97660028D01*
X154139846Y-97817721D01*
X154170607Y-97972364D01*
X154170610Y-97972376D01*
X154230948Y-98118047D01*
X154230955Y-98118060D01*
X154318556Y-98249163D01*
X154318559Y-98249167D01*
X154430053Y-98360661D01*
X154430057Y-98360664D01*
X154561160Y-98448265D01*
X154561173Y-98448272D01*
X154700502Y-98505983D01*
X154706849Y-98508612D01*
X154861499Y-98539374D01*
X154861502Y-98539375D01*
X154861504Y-98539375D01*
X155019190Y-98539375D01*
X155019191Y-98539374D01*
X155173843Y-98508612D01*
X155319525Y-98448269D01*
X155432438Y-98372822D01*
X155499114Y-98351945D01*
X155566494Y-98370429D01*
X155589009Y-98388244D01*
X155905139Y-98704374D01*
X155905149Y-98704385D01*
X155909479Y-98708715D01*
X155909480Y-98708716D01*
X156021284Y-98820520D01*
X156072845Y-98850288D01*
X156108095Y-98870639D01*
X156108097Y-98870641D01*
X156146151Y-98892611D01*
X156158215Y-98899577D01*
X156310943Y-98940501D01*
X156310946Y-98940501D01*
X156476653Y-98940501D01*
X156476669Y-98940500D01*
X159730234Y-98940500D01*
X159797273Y-98960185D01*
X159799125Y-98961398D01*
X159930814Y-99049390D01*
X159930827Y-99049397D01*
X160002434Y-99079057D01*
X160076503Y-99109737D01*
X160225578Y-99139390D01*
X160231153Y-99140499D01*
X160231156Y-99140500D01*
X160231158Y-99140500D01*
X160388844Y-99140500D01*
X160388845Y-99140499D01*
X160543497Y-99109737D01*
X160689179Y-99049394D01*
X160820289Y-98961789D01*
X160931789Y-98850289D01*
X161019394Y-98719179D01*
X161079737Y-98573497D01*
X161110500Y-98418842D01*
X161110500Y-98261158D01*
X161110500Y-98261155D01*
X161110499Y-98261153D01*
X161079739Y-98106513D01*
X161079738Y-98106512D01*
X161079737Y-98106503D01*
X161079733Y-98106493D01*
X161078721Y-98103156D01*
X161078704Y-98101309D01*
X161078549Y-98100528D01*
X161078697Y-98100498D01*
X161078096Y-98033289D01*
X161109698Y-97979478D01*
X162625524Y-96463653D01*
X164294500Y-96463653D01*
X164294500Y-96621346D01*
X164325261Y-96775989D01*
X164325264Y-96776001D01*
X164385602Y-96921672D01*
X164385609Y-96921685D01*
X164473210Y-97052788D01*
X164473213Y-97052792D01*
X164584707Y-97164286D01*
X164584711Y-97164289D01*
X164715814Y-97251890D01*
X164715827Y-97251897D01*
X164782941Y-97279696D01*
X164861503Y-97312237D01*
X165016153Y-97342999D01*
X165016156Y-97343000D01*
X165016158Y-97343000D01*
X165173844Y-97343000D01*
X165307600Y-97316394D01*
X165307600Y-97316393D01*
X165328497Y-97312237D01*
X165474179Y-97251894D01*
X165605289Y-97164289D01*
X165716789Y-97052789D01*
X165804394Y-96921679D01*
X165864737Y-96775997D01*
X165895500Y-96621342D01*
X165895500Y-96463658D01*
X165895500Y-96463655D01*
X165895499Y-96463653D01*
X165889964Y-96435826D01*
X165864737Y-96309003D01*
X165810063Y-96177007D01*
X165804397Y-96163327D01*
X165804390Y-96163314D01*
X165716789Y-96032211D01*
X165716786Y-96032207D01*
X165605292Y-95920713D01*
X165605288Y-95920710D01*
X165474185Y-95833109D01*
X165474172Y-95833102D01*
X165328501Y-95772764D01*
X165328489Y-95772761D01*
X165173845Y-95742000D01*
X165173842Y-95742000D01*
X165016158Y-95742000D01*
X165016155Y-95742000D01*
X164861510Y-95772761D01*
X164861498Y-95772764D01*
X164715827Y-95833102D01*
X164715814Y-95833109D01*
X164584711Y-95920710D01*
X164584707Y-95920713D01*
X164473213Y-96032207D01*
X164473210Y-96032211D01*
X164385609Y-96163314D01*
X164385602Y-96163327D01*
X164325264Y-96308998D01*
X164325261Y-96309010D01*
X164294500Y-96463653D01*
X162625524Y-96463653D01*
X164128506Y-94960671D01*
X164128511Y-94960667D01*
X164138714Y-94950463D01*
X164138716Y-94950463D01*
X164250520Y-94838659D01*
X164312585Y-94731158D01*
X164314483Y-94727872D01*
X164318249Y-94721348D01*
X164329577Y-94701728D01*
X164370501Y-94549000D01*
X164370501Y-94390886D01*
X164370501Y-94383291D01*
X164370500Y-94383273D01*
X164370500Y-92932135D01*
X167539500Y-92932135D01*
X167539500Y-94727870D01*
X167539501Y-94727876D01*
X167545908Y-94787483D01*
X167596202Y-94922328D01*
X167596206Y-94922335D01*
X167682452Y-95037544D01*
X167682455Y-95037547D01*
X167797664Y-95123793D01*
X167797671Y-95123797D01*
X167826046Y-95134380D01*
X167932517Y-95174091D01*
X167992127Y-95180500D01*
X168002685Y-95180499D01*
X168069723Y-95200179D01*
X168090372Y-95216818D01*
X168760591Y-95887037D01*
X168697007Y-95904075D01*
X168582993Y-95969901D01*
X168489901Y-96062993D01*
X168424075Y-96177007D01*
X168407037Y-96240591D01*
X167774728Y-95608282D01*
X167774727Y-95608282D01*
X167735380Y-95662439D01*
X167638904Y-95851782D01*
X167573242Y-96053869D01*
X167573242Y-96053872D01*
X167540000Y-96263753D01*
X167540000Y-96476246D01*
X167573242Y-96686127D01*
X167573242Y-96686130D01*
X167638904Y-96888217D01*
X167735375Y-97077550D01*
X167774728Y-97131716D01*
X168407037Y-96499408D01*
X168424075Y-96562993D01*
X168489901Y-96677007D01*
X168582993Y-96770099D01*
X168697007Y-96835925D01*
X168760590Y-96852962D01*
X168128282Y-97485269D01*
X168128282Y-97485270D01*
X168182449Y-97524624D01*
X168371782Y-97621095D01*
X168573870Y-97686757D01*
X168783754Y-97720000D01*
X168996246Y-97720000D01*
X169206127Y-97686757D01*
X169206130Y-97686757D01*
X169408217Y-97621095D01*
X169597554Y-97524622D01*
X169651716Y-97485270D01*
X169651717Y-97485270D01*
X169019408Y-96852962D01*
X169082993Y-96835925D01*
X169197007Y-96770099D01*
X169290099Y-96677007D01*
X169355925Y-96562993D01*
X169372962Y-96499409D01*
X170005270Y-97131717D01*
X170005270Y-97131716D01*
X170044622Y-97077554D01*
X170141095Y-96888217D01*
X170206757Y-96686130D01*
X170206757Y-96686127D01*
X170240000Y-96476246D01*
X170240000Y-96263753D01*
X170206757Y-96053872D01*
X170206757Y-96053869D01*
X170141095Y-95851782D01*
X170044624Y-95662449D01*
X170005270Y-95608282D01*
X170005269Y-95608282D01*
X169372962Y-96240590D01*
X169355925Y-96177007D01*
X169290099Y-96062993D01*
X169197007Y-95969901D01*
X169082993Y-95904075D01*
X169019409Y-95887037D01*
X169689627Y-95216818D01*
X169750950Y-95183333D01*
X169777307Y-95180499D01*
X169787872Y-95180499D01*
X169847483Y-95174091D01*
X169982331Y-95123796D01*
X170097546Y-95037546D01*
X170183796Y-94922331D01*
X170234091Y-94787483D01*
X170240500Y-94727873D01*
X170240499Y-92932128D01*
X170234091Y-92872517D01*
X170229648Y-92860606D01*
X170183797Y-92737671D01*
X170183793Y-92737664D01*
X170097547Y-92622455D01*
X170097544Y-92622452D01*
X169982335Y-92536206D01*
X169982328Y-92536202D01*
X169847482Y-92485908D01*
X169847483Y-92485908D01*
X169787883Y-92479501D01*
X169787881Y-92479500D01*
X169787873Y-92479500D01*
X169787864Y-92479500D01*
X167992129Y-92479500D01*
X167992123Y-92479501D01*
X167932516Y-92485908D01*
X167797671Y-92536202D01*
X167797664Y-92536206D01*
X167682455Y-92622452D01*
X167682452Y-92622455D01*
X167596206Y-92737664D01*
X167596202Y-92737671D01*
X167545908Y-92872517D01*
X167540197Y-92925642D01*
X167539501Y-92932123D01*
X167539500Y-92932135D01*
X164370500Y-92932135D01*
X164370500Y-91933543D01*
X164390185Y-91866504D01*
X164442989Y-91820749D01*
X164447048Y-91818982D01*
X164569172Y-91768397D01*
X164569172Y-91768396D01*
X164569179Y-91768394D01*
X164700289Y-91680789D01*
X164811789Y-91569289D01*
X164899394Y-91438179D01*
X164902299Y-91431167D01*
X164926000Y-91373946D01*
X164959737Y-91292497D01*
X164969130Y-91245275D01*
X164986231Y-91159308D01*
X165018616Y-91097397D01*
X165079332Y-91062823D01*
X165107848Y-91059500D01*
X169044331Y-91059500D01*
X169044347Y-91059501D01*
X169051943Y-91059501D01*
X169210054Y-91059501D01*
X169210057Y-91059501D01*
X169362785Y-91018577D01*
X169429702Y-90979942D01*
X169499716Y-90939520D01*
X169611520Y-90827716D01*
X169611520Y-90827714D01*
X169621724Y-90817511D01*
X169621728Y-90817506D01*
X170077010Y-90362223D01*
X170138331Y-90328740D01*
X170140365Y-90328316D01*
X170183497Y-90319737D01*
X170329179Y-90259394D01*
X170416609Y-90200974D01*
X170483286Y-90180097D01*
X170550666Y-90198581D01*
X170597357Y-90250560D01*
X170609500Y-90304077D01*
X170609500Y-116768213D01*
X170589815Y-116835252D01*
X170537011Y-116881007D01*
X170467853Y-116890951D01*
X170404297Y-116861926D01*
X170382398Y-116837104D01*
X170230474Y-116609735D01*
X170185854Y-116542956D01*
X169955197Y-116261899D01*
X169955196Y-116261898D01*
X169955192Y-116261893D01*
X169698106Y-116004807D01*
X169417049Y-115774150D01*
X169417048Y-115774149D01*
X169417044Y-115774146D01*
X169114732Y-115572147D01*
X169114727Y-115572144D01*
X169114720Y-115572140D01*
X168794083Y-115400756D01*
X168794078Y-115400754D01*
X168458165Y-115261614D01*
X168110223Y-115156067D01*
X168110212Y-115156064D01*
X167753630Y-115085137D01*
X167481111Y-115058296D01*
X167391794Y-115049500D01*
X167028206Y-115049500D01*
X166945679Y-115057628D01*
X166666369Y-115085137D01*
X166309787Y-115156064D01*
X166309776Y-115156067D01*
X165961834Y-115261614D01*
X165625921Y-115400754D01*
X165625916Y-115400756D01*
X165305279Y-115572140D01*
X165305261Y-115572151D01*
X165002964Y-115774140D01*
X165002950Y-115774150D01*
X164721893Y-116004807D01*
X164464807Y-116261893D01*
X164234150Y-116542950D01*
X164234140Y-116542964D01*
X164032151Y-116845261D01*
X164032140Y-116845279D01*
X163860756Y-117165916D01*
X163860754Y-117165921D01*
X163721614Y-117501834D01*
X163616067Y-117849776D01*
X163616064Y-117849787D01*
X163545137Y-118206369D01*
X163534887Y-118310444D01*
X163509500Y-118568206D01*
X163509500Y-118931794D01*
X163520337Y-119041829D01*
X163545137Y-119293630D01*
X163616064Y-119650212D01*
X163616067Y-119650223D01*
X163721614Y-119998165D01*
X163860754Y-120334078D01*
X163860756Y-120334083D01*
X164032140Y-120654720D01*
X164032151Y-120654738D01*
X164234140Y-120957035D01*
X164234150Y-120957049D01*
X164464807Y-121238106D01*
X164721893Y-121495192D01*
X164721898Y-121495196D01*
X164721899Y-121495197D01*
X165002956Y-121725854D01*
X165305268Y-121927853D01*
X165305277Y-121927858D01*
X165305279Y-121927859D01*
X165625916Y-122099243D01*
X165625918Y-122099243D01*
X165625924Y-122099247D01*
X165961836Y-122238386D01*
X166309767Y-122343930D01*
X166309773Y-122343931D01*
X166309776Y-122343932D01*
X166309787Y-122343935D01*
X166666369Y-122414862D01*
X167028206Y-122450500D01*
X167028209Y-122450500D01*
X167391791Y-122450500D01*
X167391794Y-122450500D01*
X167753631Y-122414862D01*
X167823045Y-122401054D01*
X168110212Y-122343935D01*
X168110223Y-122343932D01*
X168110223Y-122343931D01*
X168110233Y-122343930D01*
X168458164Y-122238386D01*
X168794076Y-122099247D01*
X169114732Y-121927853D01*
X169417044Y-121725854D01*
X169698101Y-121495197D01*
X169955197Y-121238101D01*
X170185854Y-120957044D01*
X170382399Y-120662893D01*
X170436010Y-120618090D01*
X170505335Y-120609383D01*
X170568362Y-120639537D01*
X170605082Y-120698980D01*
X170609500Y-120731786D01*
X170609500Y-129105500D01*
X170589815Y-129172539D01*
X170537011Y-129218294D01*
X170485500Y-129229500D01*
X142134500Y-129229500D01*
X142067461Y-129209815D01*
X142021706Y-129157011D01*
X142010500Y-129105500D01*
X142010500Y-126980000D01*
X143410138Y-126980000D01*
X144213012Y-126980000D01*
X144195795Y-126989940D01*
X144139940Y-127045795D01*
X144100444Y-127114204D01*
X144080000Y-127190504D01*
X144080000Y-127269496D01*
X144100444Y-127345796D01*
X144139940Y-127414205D01*
X144195795Y-127470060D01*
X144213012Y-127480000D01*
X143410138Y-127480000D01*
X143418430Y-127521690D01*
X143418430Y-127521692D01*
X143493807Y-127703671D01*
X143493814Y-127703684D01*
X143603248Y-127867462D01*
X143603251Y-127867466D01*
X143742533Y-128006748D01*
X143742537Y-128006751D01*
X143906315Y-128116185D01*
X143906328Y-128116192D01*
X144088306Y-128191569D01*
X144088318Y-128191572D01*
X144281504Y-128229999D01*
X144281508Y-128230000D01*
X144430000Y-128230000D01*
X144430000Y-127530000D01*
X144930000Y-127530000D01*
X144930000Y-128230000D01*
X145078492Y-128230000D01*
X145078495Y-128229999D01*
X145271681Y-128191572D01*
X145271693Y-128191569D01*
X145453671Y-128116192D01*
X145453684Y-128116185D01*
X145617462Y-128006751D01*
X145617466Y-128006748D01*
X145756748Y-127867466D01*
X145756751Y-127867462D01*
X145866185Y-127703684D01*
X145866192Y-127703671D01*
X145941569Y-127521692D01*
X145941569Y-127521690D01*
X145949862Y-127480000D01*
X145146988Y-127480000D01*
X145164205Y-127470060D01*
X145220060Y-127414205D01*
X145259556Y-127345796D01*
X145280000Y-127269496D01*
X145280000Y-127190504D01*
X145259556Y-127114204D01*
X145220060Y-127045795D01*
X145164205Y-126989940D01*
X145146988Y-126980000D01*
X145949862Y-126980000D01*
X147340138Y-126980000D01*
X148143012Y-126980000D01*
X148125795Y-126989940D01*
X148069940Y-127045795D01*
X148030444Y-127114204D01*
X148010000Y-127190504D01*
X148010000Y-127269496D01*
X148030444Y-127345796D01*
X148069940Y-127414205D01*
X148125795Y-127470060D01*
X148143012Y-127480000D01*
X147340138Y-127480000D01*
X147348430Y-127521690D01*
X147348430Y-127521692D01*
X147423807Y-127703671D01*
X147423814Y-127703684D01*
X147533248Y-127867462D01*
X147533251Y-127867466D01*
X147672533Y-128006748D01*
X147672537Y-128006751D01*
X147836315Y-128116185D01*
X147836328Y-128116192D01*
X148018306Y-128191569D01*
X148018318Y-128191572D01*
X148211504Y-128229999D01*
X148211508Y-128230000D01*
X148610000Y-128230000D01*
X148610000Y-127530000D01*
X149110000Y-127530000D01*
X149110000Y-128230000D01*
X149508492Y-128230000D01*
X149508495Y-128229999D01*
X149701681Y-128191572D01*
X149701693Y-128191569D01*
X149883671Y-128116192D01*
X149883684Y-128116185D01*
X150047462Y-128006751D01*
X150047466Y-128006748D01*
X150186748Y-127867466D01*
X150186751Y-127867462D01*
X150296185Y-127703684D01*
X150296192Y-127703671D01*
X150371569Y-127521692D01*
X150371570Y-127521688D01*
X150379863Y-127480000D01*
X149576988Y-127480000D01*
X149594205Y-127470060D01*
X149650060Y-127414205D01*
X149689556Y-127345796D01*
X149710000Y-127269496D01*
X149710000Y-127190504D01*
X149689556Y-127114204D01*
X149650060Y-127045795D01*
X149594205Y-126989940D01*
X149576988Y-126980000D01*
X150379862Y-126980000D01*
X150371569Y-126938309D01*
X150371569Y-126938307D01*
X150296192Y-126756328D01*
X150296185Y-126756315D01*
X150186751Y-126592537D01*
X150186748Y-126592533D01*
X150047466Y-126453251D01*
X150047462Y-126453248D01*
X149883684Y-126343814D01*
X149883671Y-126343807D01*
X149701693Y-126268430D01*
X149701681Y-126268427D01*
X149508495Y-126230000D01*
X149110000Y-126230000D01*
X149110000Y-126930000D01*
X148610000Y-126930000D01*
X148610000Y-126391784D01*
X148629685Y-126324745D01*
X148672000Y-126284397D01*
X148713365Y-126260515D01*
X148820515Y-126153365D01*
X148821372Y-126151879D01*
X148841721Y-126116637D01*
X148896279Y-126022138D01*
X148896281Y-126022135D01*
X148935500Y-125875766D01*
X148935500Y-125724234D01*
X148896281Y-125577865D01*
X148820515Y-125446635D01*
X148713365Y-125339485D01*
X148647750Y-125301602D01*
X148582136Y-125263719D01*
X148494688Y-125240288D01*
X148435766Y-125224500D01*
X148284234Y-125224500D01*
X148137863Y-125263719D01*
X148006635Y-125339485D01*
X148006632Y-125339487D01*
X147899487Y-125446632D01*
X147899485Y-125446635D01*
X147823719Y-125577863D01*
X147784500Y-125724234D01*
X147784500Y-125875765D01*
X147823719Y-126022136D01*
X147863153Y-126090437D01*
X147899485Y-126153365D01*
X147899486Y-126153366D01*
X147903549Y-126160403D01*
X147901346Y-126161674D01*
X147921959Y-126214983D01*
X147907923Y-126283428D01*
X147859112Y-126333420D01*
X147845845Y-126339866D01*
X147836324Y-126343809D01*
X147836315Y-126343814D01*
X147672537Y-126453248D01*
X147672533Y-126453251D01*
X147533251Y-126592533D01*
X147533248Y-126592537D01*
X147423814Y-126756315D01*
X147423807Y-126756328D01*
X147348430Y-126938307D01*
X147348430Y-126938309D01*
X147340138Y-126980000D01*
X145949862Y-126980000D01*
X145941569Y-126938309D01*
X145941569Y-126938307D01*
X145866192Y-126756328D01*
X145866185Y-126756315D01*
X145756751Y-126592537D01*
X145756748Y-126592533D01*
X145617466Y-126453251D01*
X145617462Y-126453248D01*
X145453684Y-126343814D01*
X145453671Y-126343807D01*
X145271693Y-126268430D01*
X145271681Y-126268427D01*
X145078495Y-126230000D01*
X144930000Y-126230000D01*
X144930000Y-126930000D01*
X144430000Y-126930000D01*
X144430000Y-126230000D01*
X144281504Y-126230000D01*
X144088318Y-126268427D01*
X144088306Y-126268430D01*
X143906328Y-126343807D01*
X143906315Y-126343814D01*
X143742537Y-126453248D01*
X143742533Y-126453251D01*
X143603251Y-126592533D01*
X143603248Y-126592537D01*
X143493814Y-126756315D01*
X143493807Y-126756328D01*
X143418430Y-126938307D01*
X143418430Y-126938309D01*
X143410138Y-126980000D01*
X142010500Y-126980000D01*
X142010500Y-124604038D01*
X165379500Y-124604038D01*
X165379500Y-124855961D01*
X165418910Y-125104785D01*
X165496760Y-125344383D01*
X165611132Y-125568848D01*
X165679062Y-125662347D01*
X165702542Y-125728153D01*
X165686716Y-125796207D01*
X165666426Y-125822913D01*
X165537680Y-125951659D01*
X165445645Y-126100869D01*
X165445640Y-126100880D01*
X165390494Y-126267302D01*
X165380000Y-126370013D01*
X165380000Y-127020000D01*
X166489252Y-127020000D01*
X166467482Y-127057708D01*
X166430000Y-127197591D01*
X166430000Y-127342409D01*
X166467482Y-127482292D01*
X166489252Y-127520000D01*
X165380001Y-127520000D01*
X165380001Y-128169986D01*
X165390494Y-128272696D01*
X165390494Y-128272698D01*
X165445640Y-128439119D01*
X165445645Y-128439130D01*
X165537680Y-128588340D01*
X165537683Y-128588344D01*
X165661655Y-128712316D01*
X165661659Y-128712319D01*
X165810869Y-128804354D01*
X165810880Y-128804359D01*
X165977302Y-128859505D01*
X166080019Y-128869999D01*
X166729999Y-128869999D01*
X166730000Y-128869998D01*
X166730000Y-127760747D01*
X166767708Y-127782518D01*
X166907591Y-127820000D01*
X167052409Y-127820000D01*
X167192292Y-127782518D01*
X167230000Y-127760747D01*
X167230000Y-128869999D01*
X167879972Y-128869999D01*
X167879986Y-128869998D01*
X167982696Y-128859505D01*
X167982698Y-128859505D01*
X168149119Y-128804359D01*
X168149130Y-128804354D01*
X168298340Y-128712319D01*
X168298344Y-128712316D01*
X168422316Y-128588344D01*
X168422319Y-128588340D01*
X168514354Y-128439130D01*
X168514359Y-128439119D01*
X168569505Y-128272697D01*
X168579999Y-128169986D01*
X168579999Y-127712781D01*
X168599683Y-127645742D01*
X168652487Y-127599987D01*
X168721646Y-127590043D01*
X168785202Y-127619068D01*
X168805917Y-127644985D01*
X168807221Y-127644114D01*
X168898210Y-127780288D01*
X168898213Y-127780292D01*
X169009707Y-127891786D01*
X169009711Y-127891789D01*
X169140814Y-127979390D01*
X169140827Y-127979397D01*
X169286498Y-128039735D01*
X169286503Y-128039737D01*
X169441153Y-128070499D01*
X169441156Y-128070500D01*
X169441158Y-128070500D01*
X169598844Y-128070500D01*
X169598845Y-128070499D01*
X169753497Y-128039737D01*
X169899179Y-127979394D01*
X170030289Y-127891789D01*
X170141789Y-127780289D01*
X170229394Y-127649179D01*
X170289737Y-127503497D01*
X170320500Y-127348842D01*
X170320500Y-127191158D01*
X170320500Y-127191155D01*
X170320499Y-127191153D01*
X170289738Y-127036510D01*
X170289737Y-127036503D01*
X170266333Y-126980000D01*
X170229397Y-126890827D01*
X170229390Y-126890814D01*
X170141789Y-126759711D01*
X170141786Y-126759707D01*
X170030292Y-126648213D01*
X170030288Y-126648210D01*
X169899185Y-126560609D01*
X169899172Y-126560602D01*
X169753501Y-126500264D01*
X169753489Y-126500261D01*
X169598845Y-126469500D01*
X169598842Y-126469500D01*
X169441158Y-126469500D01*
X169441155Y-126469500D01*
X169286510Y-126500261D01*
X169286498Y-126500264D01*
X169140827Y-126560602D01*
X169140814Y-126560609D01*
X169009711Y-126648210D01*
X169009707Y-126648213D01*
X168898213Y-126759707D01*
X168898210Y-126759711D01*
X168807221Y-126895886D01*
X168804886Y-126894326D01*
X168764294Y-126935573D01*
X168696141Y-126950970D01*
X168630484Y-126927077D01*
X168588167Y-126871479D01*
X168579999Y-126827219D01*
X168579999Y-126370028D01*
X168579998Y-126370012D01*
X168569505Y-126267303D01*
X168569505Y-126267301D01*
X168514359Y-126100880D01*
X168514354Y-126100869D01*
X168422319Y-125951659D01*
X168422316Y-125951655D01*
X168293574Y-125822913D01*
X168260089Y-125761590D01*
X168265073Y-125691898D01*
X168280934Y-125662349D01*
X168348870Y-125568845D01*
X168463241Y-125344379D01*
X168541090Y-125104785D01*
X168546357Y-125071531D01*
X168576286Y-125008396D01*
X168635597Y-124971464D01*
X168705460Y-124972462D01*
X168763692Y-125011071D01*
X168783391Y-125043476D01*
X168810602Y-125109173D01*
X168810609Y-125109185D01*
X168898210Y-125240288D01*
X168898213Y-125240292D01*
X169009707Y-125351786D01*
X169009711Y-125351789D01*
X169140814Y-125439390D01*
X169140827Y-125439397D01*
X169286498Y-125499735D01*
X169286503Y-125499737D01*
X169441153Y-125530499D01*
X169441156Y-125530500D01*
X169441158Y-125530500D01*
X169598844Y-125530500D01*
X169598845Y-125530499D01*
X169753497Y-125499737D01*
X169899179Y-125439394D01*
X170030289Y-125351789D01*
X170141789Y-125240289D01*
X170229394Y-125109179D01*
X170289737Y-124963497D01*
X170320500Y-124808842D01*
X170320500Y-124651158D01*
X170320500Y-124651155D01*
X170320499Y-124651153D01*
X170289738Y-124496510D01*
X170289737Y-124496503D01*
X170259944Y-124424576D01*
X170229397Y-124350827D01*
X170229390Y-124350814D01*
X170141789Y-124219711D01*
X170141786Y-124219707D01*
X170030292Y-124108213D01*
X170030288Y-124108210D01*
X169899185Y-124020609D01*
X169899172Y-124020602D01*
X169753501Y-123960264D01*
X169753489Y-123960261D01*
X169598845Y-123929500D01*
X169598842Y-123929500D01*
X169441158Y-123929500D01*
X169441155Y-123929500D01*
X169286510Y-123960261D01*
X169286498Y-123960264D01*
X169140827Y-124020602D01*
X169140814Y-124020609D01*
X169009711Y-124108210D01*
X169009707Y-124108213D01*
X168898213Y-124219707D01*
X168898210Y-124219711D01*
X168810609Y-124350814D01*
X168810602Y-124350827D01*
X168783391Y-124416523D01*
X168739550Y-124470927D01*
X168673256Y-124492992D01*
X168605557Y-124475713D01*
X168557946Y-124424576D01*
X168546357Y-124388469D01*
X168546103Y-124386866D01*
X168541090Y-124355215D01*
X168463241Y-124115621D01*
X168463239Y-124115618D01*
X168463239Y-124115616D01*
X168414826Y-124020602D01*
X168348870Y-123891155D01*
X168329952Y-123865117D01*
X168200798Y-123687350D01*
X168200794Y-123687345D01*
X168022654Y-123509205D01*
X168022649Y-123509201D01*
X167818848Y-123361132D01*
X167818847Y-123361131D01*
X167818845Y-123361130D01*
X167748747Y-123325413D01*
X167594383Y-123246760D01*
X167354785Y-123168910D01*
X167105962Y-123129500D01*
X166854038Y-123129500D01*
X166729626Y-123149205D01*
X166605214Y-123168910D01*
X166365616Y-123246760D01*
X166141151Y-123361132D01*
X165937350Y-123509201D01*
X165937345Y-123509205D01*
X165759205Y-123687345D01*
X165759201Y-123687350D01*
X165611132Y-123891151D01*
X165496760Y-124115616D01*
X165418910Y-124355214D01*
X165379500Y-124604038D01*
X142010500Y-124604038D01*
X142010500Y-118340000D01*
X143410138Y-118340000D01*
X144213012Y-118340000D01*
X144195795Y-118349940D01*
X144139940Y-118405795D01*
X144100444Y-118474204D01*
X144080000Y-118550504D01*
X144080000Y-118629496D01*
X144100444Y-118705796D01*
X144139940Y-118774205D01*
X144195795Y-118830060D01*
X144213012Y-118840000D01*
X143410138Y-118840000D01*
X143418430Y-118881690D01*
X143418430Y-118881692D01*
X143493807Y-119063671D01*
X143493814Y-119063684D01*
X143603248Y-119227462D01*
X143603251Y-119227466D01*
X143742533Y-119366748D01*
X143742537Y-119366751D01*
X143906315Y-119476185D01*
X143906328Y-119476192D01*
X144088306Y-119551569D01*
X144088318Y-119551572D01*
X144281504Y-119589999D01*
X144281508Y-119590000D01*
X144430000Y-119590000D01*
X144430000Y-118890000D01*
X144930000Y-118890000D01*
X144930000Y-119590000D01*
X145078492Y-119590000D01*
X145078495Y-119589999D01*
X145271681Y-119551572D01*
X145277516Y-119549803D01*
X145278180Y-119551993D01*
X145337497Y-119545607D01*
X145399981Y-119576872D01*
X145435643Y-119636955D01*
X145439500Y-119667640D01*
X145439500Y-120493330D01*
X145439499Y-120493348D01*
X145439499Y-120659054D01*
X145439498Y-120659054D01*
X145480423Y-120811786D01*
X145480424Y-120811787D01*
X145502775Y-120850500D01*
X145559480Y-120948716D01*
X145559482Y-120948718D01*
X145678349Y-121067585D01*
X145678355Y-121067590D01*
X147135139Y-122524374D01*
X147135149Y-122524385D01*
X147139479Y-122528715D01*
X147139480Y-122528716D01*
X147251284Y-122640520D01*
X147251286Y-122640521D01*
X147251290Y-122640524D01*
X147388209Y-122719573D01*
X147388216Y-122719577D01*
X147500019Y-122749534D01*
X147540942Y-122760500D01*
X147540943Y-122760500D01*
X147928827Y-122760500D01*
X147976278Y-122769938D01*
X148096503Y-122819737D01*
X148096506Y-122819737D01*
X148096511Y-122819739D01*
X148251153Y-122850499D01*
X148251156Y-122850500D01*
X148251158Y-122850500D01*
X148408844Y-122850500D01*
X148408845Y-122850499D01*
X148563497Y-122819737D01*
X148709179Y-122759394D01*
X148840289Y-122671789D01*
X148951789Y-122560289D01*
X149039394Y-122429179D01*
X149099737Y-122283497D01*
X149130500Y-122128842D01*
X149130500Y-121971158D01*
X149130500Y-121971155D01*
X149130499Y-121971153D01*
X149099738Y-121816510D01*
X149099737Y-121816503D01*
X149099735Y-121816498D01*
X149039397Y-121670827D01*
X149039390Y-121670814D01*
X148951789Y-121539711D01*
X148951786Y-121539707D01*
X148840292Y-121428213D01*
X148840288Y-121428210D01*
X148709185Y-121340609D01*
X148709172Y-121340602D01*
X148563501Y-121280264D01*
X148563489Y-121280261D01*
X148408845Y-121249500D01*
X148408842Y-121249500D01*
X148251158Y-121249500D01*
X148251155Y-121249500D01*
X148096510Y-121280261D01*
X148096498Y-121280264D01*
X147950827Y-121340602D01*
X147950814Y-121340609D01*
X147855010Y-121404624D01*
X147788332Y-121425502D01*
X147720952Y-121407017D01*
X147698438Y-121389203D01*
X146676819Y-120367584D01*
X146643334Y-120306261D01*
X146640500Y-120279903D01*
X146640500Y-118340000D01*
X147340138Y-118340000D01*
X148143012Y-118340000D01*
X148125795Y-118349940D01*
X148069940Y-118405795D01*
X148030444Y-118474204D01*
X148010000Y-118550504D01*
X148010000Y-118629496D01*
X148030444Y-118705796D01*
X148069940Y-118774205D01*
X148125795Y-118830060D01*
X148143012Y-118840000D01*
X147340138Y-118840000D01*
X147348430Y-118881690D01*
X147348430Y-118881692D01*
X147423807Y-119063671D01*
X147423814Y-119063684D01*
X147533248Y-119227462D01*
X147533251Y-119227466D01*
X147672533Y-119366748D01*
X147672537Y-119366751D01*
X147836315Y-119476185D01*
X147836328Y-119476192D01*
X147845838Y-119480131D01*
X147900243Y-119523970D01*
X147922310Y-119590264D01*
X147905033Y-119657963D01*
X147901350Y-119663405D01*
X147823719Y-119797863D01*
X147804313Y-119870289D01*
X147784500Y-119944234D01*
X147784500Y-120095766D01*
X147793603Y-120129738D01*
X147823719Y-120242136D01*
X147845524Y-120279903D01*
X147899485Y-120373365D01*
X148006635Y-120480515D01*
X148137865Y-120556281D01*
X148284234Y-120595500D01*
X148284236Y-120595500D01*
X148435764Y-120595500D01*
X148435766Y-120595500D01*
X148582135Y-120556281D01*
X148713365Y-120480515D01*
X148820515Y-120373365D01*
X148896281Y-120242135D01*
X148935500Y-120095766D01*
X148935500Y-119944234D01*
X148896281Y-119797865D01*
X148820515Y-119666635D01*
X148713365Y-119559485D01*
X148689328Y-119545607D01*
X148671998Y-119535601D01*
X148623784Y-119485033D01*
X148610000Y-119428215D01*
X148610000Y-118890000D01*
X149110000Y-118890000D01*
X149110000Y-119590000D01*
X149508492Y-119590000D01*
X149508495Y-119589999D01*
X149701681Y-119551572D01*
X149701693Y-119551569D01*
X149883671Y-119476192D01*
X149883684Y-119476185D01*
X150047462Y-119366751D01*
X150047466Y-119366748D01*
X150133061Y-119281153D01*
X157159500Y-119281153D01*
X157159500Y-119438846D01*
X157190261Y-119593489D01*
X157190264Y-119593501D01*
X157250602Y-119739172D01*
X157250609Y-119739185D01*
X157338210Y-119870288D01*
X157338213Y-119870292D01*
X157449707Y-119981786D01*
X157449711Y-119981789D01*
X157580814Y-120069390D01*
X157580827Y-120069397D01*
X157726498Y-120129735D01*
X157726503Y-120129737D01*
X157881153Y-120160499D01*
X157881156Y-120160500D01*
X157881158Y-120160500D01*
X158038844Y-120160500D01*
X158038845Y-120160499D01*
X158193497Y-120129737D01*
X158339179Y-120069394D01*
X158470289Y-119981789D01*
X158581789Y-119870289D01*
X158669394Y-119739179D01*
X158729737Y-119593497D01*
X158760500Y-119438842D01*
X158760500Y-119281158D01*
X158760500Y-119281155D01*
X158760499Y-119281153D01*
X158749819Y-119227460D01*
X158729737Y-119126503D01*
X158703717Y-119063684D01*
X158669397Y-118980827D01*
X158669390Y-118980814D01*
X158581789Y-118849711D01*
X158581786Y-118849707D01*
X158470292Y-118738213D01*
X158470288Y-118738210D01*
X158339185Y-118650609D01*
X158339172Y-118650602D01*
X158193501Y-118590264D01*
X158193489Y-118590261D01*
X158038845Y-118559500D01*
X158038842Y-118559500D01*
X157881158Y-118559500D01*
X157881155Y-118559500D01*
X157726510Y-118590261D01*
X157726498Y-118590264D01*
X157580827Y-118650602D01*
X157580814Y-118650609D01*
X157449711Y-118738210D01*
X157449707Y-118738213D01*
X157338213Y-118849707D01*
X157338210Y-118849711D01*
X157250609Y-118980814D01*
X157250602Y-118980827D01*
X157190264Y-119126498D01*
X157190261Y-119126510D01*
X157159500Y-119281153D01*
X150133061Y-119281153D01*
X150186748Y-119227466D01*
X150186753Y-119227460D01*
X150200977Y-119206174D01*
X150296185Y-119063684D01*
X150296192Y-119063671D01*
X150371569Y-118881692D01*
X150371569Y-118881690D01*
X150379862Y-118840000D01*
X149576988Y-118840000D01*
X149594205Y-118830060D01*
X149650060Y-118774205D01*
X149689556Y-118705796D01*
X149710000Y-118629496D01*
X149710000Y-118550504D01*
X149689556Y-118474204D01*
X149650060Y-118405795D01*
X149594205Y-118349940D01*
X149576988Y-118340000D01*
X150379862Y-118340000D01*
X150371569Y-118298309D01*
X150371569Y-118298307D01*
X150296192Y-118116328D01*
X150296185Y-118116315D01*
X150186751Y-117952537D01*
X150186748Y-117952533D01*
X150047466Y-117813251D01*
X150047462Y-117813248D01*
X149883684Y-117703814D01*
X149883671Y-117703807D01*
X149701693Y-117628430D01*
X149701681Y-117628427D01*
X149508495Y-117590000D01*
X149110000Y-117590000D01*
X149110000Y-118290000D01*
X148610000Y-118290000D01*
X148610000Y-117590000D01*
X148211504Y-117590000D01*
X148018318Y-117628427D01*
X148018306Y-117628430D01*
X147836328Y-117703807D01*
X147836315Y-117703814D01*
X147672537Y-117813248D01*
X147672533Y-117813251D01*
X147533251Y-117952533D01*
X147533248Y-117952537D01*
X147423814Y-118116315D01*
X147423807Y-118116328D01*
X147348430Y-118298307D01*
X147348430Y-118298309D01*
X147340138Y-118340000D01*
X146640500Y-118340000D01*
X146640500Y-117584799D01*
X146660185Y-117517760D01*
X146661398Y-117515908D01*
X146739390Y-117399185D01*
X146739390Y-117399184D01*
X146739394Y-117399179D01*
X146799737Y-117253497D01*
X146830500Y-117098842D01*
X146830500Y-116941158D01*
X146830500Y-116941155D01*
X146830499Y-116941153D01*
X146818535Y-116881007D01*
X146799737Y-116786503D01*
X146792161Y-116768213D01*
X146739397Y-116640827D01*
X146739390Y-116640814D01*
X146651789Y-116509711D01*
X146651786Y-116509707D01*
X146540292Y-116398213D01*
X146540288Y-116398210D01*
X146409185Y-116310609D01*
X146409172Y-116310602D01*
X146263501Y-116250264D01*
X146263489Y-116250261D01*
X146108845Y-116219500D01*
X146108842Y-116219500D01*
X145951158Y-116219500D01*
X145951155Y-116219500D01*
X145796510Y-116250261D01*
X145796498Y-116250264D01*
X145650827Y-116310602D01*
X145650814Y-116310609D01*
X145519711Y-116398210D01*
X145519707Y-116398213D01*
X145408213Y-116509707D01*
X145408210Y-116509711D01*
X145320609Y-116640814D01*
X145320602Y-116640827D01*
X145260264Y-116786498D01*
X145260261Y-116786510D01*
X145229500Y-116941153D01*
X145229500Y-117098846D01*
X145260261Y-117253489D01*
X145260264Y-117253501D01*
X145320602Y-117399172D01*
X145320611Y-117399188D01*
X145338446Y-117425881D01*
X145359323Y-117492559D01*
X145340837Y-117559938D01*
X145288858Y-117606628D01*
X145219888Y-117617803D01*
X145211152Y-117616387D01*
X145078495Y-117590000D01*
X144930000Y-117590000D01*
X144930000Y-118290000D01*
X144430000Y-118290000D01*
X144430000Y-117590000D01*
X144281504Y-117590000D01*
X144088318Y-117628427D01*
X144088306Y-117628430D01*
X143906328Y-117703807D01*
X143906315Y-117703814D01*
X143742537Y-117813248D01*
X143742533Y-117813251D01*
X143603251Y-117952533D01*
X143603248Y-117952537D01*
X143493814Y-118116315D01*
X143493807Y-118116328D01*
X143418430Y-118298307D01*
X143418430Y-118298309D01*
X143410138Y-118340000D01*
X142010500Y-118340000D01*
X142010500Y-115761153D01*
X158919500Y-115761153D01*
X158919500Y-115918846D01*
X158950261Y-116073489D01*
X158950264Y-116073501D01*
X159010602Y-116219172D01*
X159010609Y-116219185D01*
X159098210Y-116350288D01*
X159098213Y-116350292D01*
X159209707Y-116461786D01*
X159209711Y-116461789D01*
X159340814Y-116549390D01*
X159340827Y-116549397D01*
X159486498Y-116609735D01*
X159486503Y-116609737D01*
X159641153Y-116640499D01*
X159641156Y-116640500D01*
X159641158Y-116640500D01*
X159798844Y-116640500D01*
X159798845Y-116640499D01*
X159953497Y-116609737D01*
X160099179Y-116549394D01*
X160230289Y-116461789D01*
X160341789Y-116350289D01*
X160429394Y-116219179D01*
X160489737Y-116073497D01*
X160520500Y-115918842D01*
X160520500Y-115761158D01*
X160520500Y-115761155D01*
X160520499Y-115761153D01*
X160489738Y-115606510D01*
X160489737Y-115606503D01*
X160475508Y-115572151D01*
X160429397Y-115460827D01*
X160429390Y-115460814D01*
X160341789Y-115329711D01*
X160341786Y-115329707D01*
X160230292Y-115218213D01*
X160230288Y-115218210D01*
X160099185Y-115130609D01*
X160099172Y-115130602D01*
X159953501Y-115070264D01*
X159953489Y-115070261D01*
X159798845Y-115039500D01*
X159798842Y-115039500D01*
X159641158Y-115039500D01*
X159641155Y-115039500D01*
X159486510Y-115070261D01*
X159486498Y-115070264D01*
X159340827Y-115130602D01*
X159340814Y-115130609D01*
X159209711Y-115218210D01*
X159209707Y-115218213D01*
X159098213Y-115329707D01*
X159098210Y-115329711D01*
X159010609Y-115460814D01*
X159010602Y-115460827D01*
X158950264Y-115606498D01*
X158950261Y-115606510D01*
X158919500Y-115761153D01*
X142010500Y-115761153D01*
X142010500Y-109681153D01*
X144979500Y-109681153D01*
X144979500Y-109838846D01*
X145010261Y-109993489D01*
X145010264Y-109993501D01*
X145070602Y-110139172D01*
X145070609Y-110139185D01*
X145158210Y-110270288D01*
X145158213Y-110270292D01*
X145269707Y-110381786D01*
X145269711Y-110381789D01*
X145400814Y-110469390D01*
X145400827Y-110469397D01*
X145546498Y-110529735D01*
X145546503Y-110529737D01*
X145701153Y-110560499D01*
X145701156Y-110560500D01*
X145701158Y-110560500D01*
X145858844Y-110560500D01*
X145858845Y-110560499D01*
X146013497Y-110529737D01*
X146159179Y-110469394D01*
X146290289Y-110381789D01*
X146401789Y-110270289D01*
X146489394Y-110139179D01*
X146549737Y-109993497D01*
X146580500Y-109838842D01*
X146580500Y-109681158D01*
X146580121Y-109679251D01*
X146580121Y-109679248D01*
X146576522Y-109661153D01*
X150749500Y-109661153D01*
X150749500Y-109818846D01*
X150780261Y-109973489D01*
X150780264Y-109973501D01*
X150840602Y-110119172D01*
X150840609Y-110119185D01*
X150928210Y-110250288D01*
X150928213Y-110250292D01*
X151039707Y-110361786D01*
X151039711Y-110361789D01*
X151170814Y-110449390D01*
X151170827Y-110449397D01*
X151316498Y-110509735D01*
X151316503Y-110509737D01*
X151471153Y-110540499D01*
X151471156Y-110540500D01*
X151471158Y-110540500D01*
X151628844Y-110540500D01*
X151628845Y-110540499D01*
X151783497Y-110509737D01*
X151929179Y-110449394D01*
X152060289Y-110361789D01*
X152171789Y-110250289D01*
X152259394Y-110119179D01*
X152319737Y-109973497D01*
X152350500Y-109818842D01*
X152350500Y-109661158D01*
X152350500Y-109661155D01*
X152350499Y-109661153D01*
X152336714Y-109591851D01*
X152319737Y-109506503D01*
X152285760Y-109424475D01*
X152259397Y-109360827D01*
X152259390Y-109360814D01*
X152171789Y-109229711D01*
X152171786Y-109229707D01*
X152060292Y-109118213D01*
X152060288Y-109118210D01*
X151929185Y-109030609D01*
X151929172Y-109030602D01*
X151783501Y-108970264D01*
X151783489Y-108970261D01*
X151628845Y-108939500D01*
X151628842Y-108939500D01*
X151471158Y-108939500D01*
X151471155Y-108939500D01*
X151316510Y-108970261D01*
X151316498Y-108970264D01*
X151170827Y-109030602D01*
X151170814Y-109030609D01*
X151039711Y-109118210D01*
X151039707Y-109118213D01*
X150928213Y-109229707D01*
X150928210Y-109229711D01*
X150840609Y-109360814D01*
X150840602Y-109360827D01*
X150780264Y-109506498D01*
X150780261Y-109506510D01*
X150749500Y-109661153D01*
X146576522Y-109661153D01*
X146549738Y-109526508D01*
X146549737Y-109526507D01*
X146549737Y-109526503D01*
X146507476Y-109424475D01*
X146489397Y-109380827D01*
X146489390Y-109380814D01*
X146401789Y-109249711D01*
X146401786Y-109249707D01*
X146290292Y-109138213D01*
X146290288Y-109138210D01*
X146159185Y-109050609D01*
X146159172Y-109050602D01*
X146013501Y-108990264D01*
X146013489Y-108990261D01*
X145858845Y-108959500D01*
X145858842Y-108959500D01*
X145701158Y-108959500D01*
X145701155Y-108959500D01*
X145546510Y-108990261D01*
X145546498Y-108990264D01*
X145400827Y-109050602D01*
X145400814Y-109050609D01*
X145269711Y-109138210D01*
X145269707Y-109138213D01*
X145158213Y-109249707D01*
X145158210Y-109249711D01*
X145070609Y-109380814D01*
X145070602Y-109380827D01*
X145010264Y-109526498D01*
X145010261Y-109526510D01*
X144979500Y-109681153D01*
X142010500Y-109681153D01*
X142010500Y-106778603D01*
X158404248Y-106778603D01*
X158404248Y-107081396D01*
X158438145Y-107382252D01*
X158438148Y-107382266D01*
X158505523Y-107677459D01*
X158505526Y-107677467D01*
X158605522Y-107963238D01*
X158605528Y-107963252D01*
X158736895Y-108236038D01*
X158736897Y-108236041D01*
X158897986Y-108492412D01*
X159086766Y-108729136D01*
X159300864Y-108943234D01*
X159537588Y-109132014D01*
X159793959Y-109293103D01*
X160066755Y-109424475D01*
X160066761Y-109424477D01*
X160352532Y-109524473D01*
X160352540Y-109524476D01*
X160352543Y-109524476D01*
X160352544Y-109524477D01*
X160647733Y-109591852D01*
X160647742Y-109591853D01*
X160647747Y-109591854D01*
X160848317Y-109614452D01*
X160948604Y-109625751D01*
X160948607Y-109625752D01*
X160948610Y-109625752D01*
X161251393Y-109625752D01*
X161251394Y-109625751D01*
X161405154Y-109608427D01*
X161552252Y-109591854D01*
X161552255Y-109591853D01*
X161552267Y-109591852D01*
X161847456Y-109524477D01*
X162133245Y-109424475D01*
X162406041Y-109293103D01*
X162662412Y-109132014D01*
X162899136Y-108943234D01*
X163113234Y-108729136D01*
X163302014Y-108492412D01*
X163463103Y-108236041D01*
X163594475Y-107963245D01*
X163694477Y-107677456D01*
X163761852Y-107382267D01*
X163795752Y-107081390D01*
X163795752Y-106778610D01*
X163761852Y-106477733D01*
X163694477Y-106182544D01*
X163594475Y-105896755D01*
X163463103Y-105623959D01*
X163302014Y-105367588D01*
X163113234Y-105130864D01*
X162899136Y-104916766D01*
X162662412Y-104727986D01*
X162406041Y-104566897D01*
X162406038Y-104566895D01*
X162133252Y-104435528D01*
X162133238Y-104435522D01*
X161847467Y-104335526D01*
X161847459Y-104335523D01*
X161626064Y-104284991D01*
X161552267Y-104268148D01*
X161552264Y-104268147D01*
X161552252Y-104268145D01*
X161251396Y-104234248D01*
X161251390Y-104234248D01*
X160948610Y-104234248D01*
X160948603Y-104234248D01*
X160647747Y-104268145D01*
X160647733Y-104268148D01*
X160352540Y-104335523D01*
X160352532Y-104335526D01*
X160066761Y-104435522D01*
X160066747Y-104435528D01*
X159793961Y-104566895D01*
X159537595Y-104727981D01*
X159537591Y-104727983D01*
X159537588Y-104727986D01*
X159442910Y-104803489D01*
X159300863Y-104916766D01*
X159086766Y-105130863D01*
X159038180Y-105191789D01*
X158897986Y-105367588D01*
X158897983Y-105367591D01*
X158897981Y-105367595D01*
X158736895Y-105623961D01*
X158605528Y-105896747D01*
X158605522Y-105896761D01*
X158505526Y-106182532D01*
X158505523Y-106182540D01*
X158438148Y-106477733D01*
X158438145Y-106477747D01*
X158404248Y-106778603D01*
X142010500Y-106778603D01*
X142010500Y-100561153D01*
X144159500Y-100561153D01*
X144159500Y-100718846D01*
X144190261Y-100873489D01*
X144190264Y-100873501D01*
X144250602Y-101019172D01*
X144250609Y-101019185D01*
X144338210Y-101150288D01*
X144338213Y-101150292D01*
X144449707Y-101261786D01*
X144449711Y-101261789D01*
X144580814Y-101349390D01*
X144580827Y-101349397D01*
X144726498Y-101409735D01*
X144726503Y-101409737D01*
X144881153Y-101440499D01*
X144881156Y-101440500D01*
X144881158Y-101440500D01*
X145038844Y-101440500D01*
X145038845Y-101440499D01*
X145193497Y-101409737D01*
X145339179Y-101349394D01*
X145470289Y-101261789D01*
X145581789Y-101150289D01*
X145669394Y-101019179D01*
X145729737Y-100873497D01*
X145760500Y-100718842D01*
X145760500Y-100561158D01*
X145760500Y-100561155D01*
X145760499Y-100561153D01*
X145744304Y-100479735D01*
X145729737Y-100406503D01*
X145698790Y-100331789D01*
X145669397Y-100260827D01*
X145669390Y-100260814D01*
X145581789Y-100129711D01*
X145581786Y-100129707D01*
X145470292Y-100018213D01*
X145470288Y-100018210D01*
X145339185Y-99930609D01*
X145339172Y-99930602D01*
X145193501Y-99870264D01*
X145193489Y-99870261D01*
X145038845Y-99839500D01*
X145038842Y-99839500D01*
X144881158Y-99839500D01*
X144881155Y-99839500D01*
X144726510Y-99870261D01*
X144726498Y-99870264D01*
X144580827Y-99930602D01*
X144580814Y-99930609D01*
X144449711Y-100018210D01*
X144449707Y-100018213D01*
X144338213Y-100129707D01*
X144338210Y-100129711D01*
X144250609Y-100260814D01*
X144250602Y-100260827D01*
X144190264Y-100406498D01*
X144190261Y-100406510D01*
X144159500Y-100561153D01*
X142010500Y-100561153D01*
X142010500Y-96439097D01*
X142030185Y-96372058D01*
X142082989Y-96326303D01*
X142152147Y-96316359D01*
X142215703Y-96345384D01*
X142222181Y-96351416D01*
X142729481Y-96858716D01*
X142841284Y-96970519D01*
X142978215Y-97049577D01*
X143130943Y-97090501D01*
X143130946Y-97090501D01*
X143289055Y-97090501D01*
X143289057Y-97090501D01*
X143305669Y-97086049D01*
X143310614Y-97084725D01*
X143342706Y-97080500D01*
X145896442Y-97080500D01*
X145963481Y-97100185D01*
X146009236Y-97152989D01*
X146017341Y-97183060D01*
X146018311Y-97182868D01*
X146050261Y-97343489D01*
X146050264Y-97343501D01*
X146110602Y-97489172D01*
X146110609Y-97489185D01*
X146198210Y-97620288D01*
X146198213Y-97620292D01*
X146309707Y-97731786D01*
X146309711Y-97731789D01*
X146440814Y-97819390D01*
X146440827Y-97819397D01*
X146586498Y-97879735D01*
X146586503Y-97879737D01*
X146741153Y-97910499D01*
X146741156Y-97910500D01*
X146741158Y-97910500D01*
X146799903Y-97910500D01*
X146866942Y-97930185D01*
X146887584Y-97946819D01*
X147385425Y-98444660D01*
X147418910Y-98505983D01*
X147419361Y-98508149D01*
X147450261Y-98663491D01*
X147450264Y-98663501D01*
X147510602Y-98809172D01*
X147510609Y-98809185D01*
X147598210Y-98940288D01*
X147598213Y-98940292D01*
X147709707Y-99051786D01*
X147709711Y-99051789D01*
X147840814Y-99139390D01*
X147840827Y-99139397D01*
X147986498Y-99199735D01*
X147986503Y-99199737D01*
X148141153Y-99230499D01*
X148141156Y-99230500D01*
X148141158Y-99230500D01*
X148298844Y-99230500D01*
X148298845Y-99230499D01*
X148453497Y-99199737D01*
X148599179Y-99139394D01*
X148730289Y-99051789D01*
X148841789Y-98940289D01*
X148929394Y-98809179D01*
X148989737Y-98663497D01*
X149020500Y-98508842D01*
X149020500Y-98351158D01*
X149020500Y-98351155D01*
X149020499Y-98351153D01*
X149002597Y-98261153D01*
X148989737Y-98196503D01*
X148957240Y-98118047D01*
X148929397Y-98050827D01*
X148929390Y-98050814D01*
X148841789Y-97919711D01*
X148841786Y-97919707D01*
X148730292Y-97808213D01*
X148730288Y-97808210D01*
X148599185Y-97720609D01*
X148599172Y-97720602D01*
X148453501Y-97660264D01*
X148453491Y-97660261D01*
X148298149Y-97629361D01*
X148236238Y-97596976D01*
X148234660Y-97595425D01*
X148049946Y-97410711D01*
X148016461Y-97349388D01*
X148021445Y-97279696D01*
X148063317Y-97223763D01*
X148128781Y-97199346D01*
X148181614Y-97207908D01*
X148181676Y-97207705D01*
X148183183Y-97208162D01*
X148185081Y-97208469D01*
X148187503Y-97209473D01*
X148342153Y-97240235D01*
X148342156Y-97240236D01*
X148342158Y-97240236D01*
X148499844Y-97240236D01*
X148499845Y-97240235D01*
X148654497Y-97209473D01*
X148781995Y-97156662D01*
X148800172Y-97149133D01*
X148800172Y-97149132D01*
X148800179Y-97149130D01*
X148931289Y-97061525D01*
X149042789Y-96950025D01*
X149130394Y-96818915D01*
X149190737Y-96673233D01*
X149221500Y-96518578D01*
X149221500Y-96360894D01*
X149221500Y-96360891D01*
X149221499Y-96360889D01*
X149212641Y-96316359D01*
X149190737Y-96206239D01*
X149178629Y-96177007D01*
X149130397Y-96060563D01*
X149130390Y-96060550D01*
X149042789Y-95929447D01*
X149038924Y-95924737D01*
X149040070Y-95923795D01*
X149010113Y-95868932D01*
X149015097Y-95799240D01*
X149056969Y-95743307D01*
X149107085Y-95720958D01*
X149163497Y-95709737D01*
X149309179Y-95649394D01*
X149440289Y-95561789D01*
X149551789Y-95450289D01*
X149639394Y-95319179D01*
X149699737Y-95173497D01*
X149730500Y-95018842D01*
X149730500Y-94861158D01*
X149730500Y-94861155D01*
X149730499Y-94861153D01*
X149713660Y-94776498D01*
X149699737Y-94706503D01*
X149676768Y-94651051D01*
X149639397Y-94560827D01*
X149639390Y-94560814D01*
X149559066Y-94440602D01*
X149538188Y-94373925D01*
X149556672Y-94306545D01*
X149559052Y-94302840D01*
X149563332Y-94296437D01*
X149623675Y-94150755D01*
X149654438Y-93996100D01*
X149654438Y-93838416D01*
X149654438Y-93838413D01*
X149654437Y-93838411D01*
X149623675Y-93683761D01*
X149592643Y-93608842D01*
X149563335Y-93538085D01*
X149563328Y-93538072D01*
X149475727Y-93406969D01*
X149475724Y-93406965D01*
X149364230Y-93295471D01*
X149364226Y-93295468D01*
X149233123Y-93207867D01*
X149233110Y-93207860D01*
X149087439Y-93147522D01*
X149087427Y-93147519D01*
X148932783Y-93116758D01*
X148932780Y-93116758D01*
X148775096Y-93116758D01*
X148775093Y-93116758D01*
X148620448Y-93147519D01*
X148620436Y-93147522D01*
X148474765Y-93207860D01*
X148474752Y-93207867D01*
X148343063Y-93295860D01*
X148276385Y-93316738D01*
X148274172Y-93316758D01*
X147903682Y-93316758D01*
X147862761Y-93327722D01*
X147862761Y-93327723D01*
X147830013Y-93336498D01*
X147750956Y-93357681D01*
X147750951Y-93357684D01*
X147614032Y-93436733D01*
X147614024Y-93436739D01*
X146142596Y-94908168D01*
X146081273Y-94941653D01*
X146011581Y-94936669D01*
X145955648Y-94894797D01*
X145933298Y-94844678D01*
X145919738Y-94776510D01*
X145919737Y-94776503D01*
X145890745Y-94706510D01*
X145859397Y-94630827D01*
X145859390Y-94630814D01*
X145771789Y-94499711D01*
X145771786Y-94499707D01*
X145660292Y-94388213D01*
X145660288Y-94388210D01*
X145529185Y-94300609D01*
X145529172Y-94300602D01*
X145383501Y-94240264D01*
X145383489Y-94240261D01*
X145228845Y-94209500D01*
X145228842Y-94209500D01*
X145071158Y-94209500D01*
X145071155Y-94209500D01*
X144916510Y-94240261D01*
X144916498Y-94240264D01*
X144770827Y-94300602D01*
X144770814Y-94300609D01*
X144639711Y-94388210D01*
X144639707Y-94388213D01*
X144528213Y-94499707D01*
X144528210Y-94499711D01*
X144440609Y-94630814D01*
X144440602Y-94630827D01*
X144380264Y-94776498D01*
X144380261Y-94776510D01*
X144349500Y-94931153D01*
X144349500Y-95088846D01*
X144380261Y-95243489D01*
X144380264Y-95243501D01*
X144440602Y-95389172D01*
X144440609Y-95389185D01*
X144528210Y-95520288D01*
X144528213Y-95520292D01*
X144639707Y-95631786D01*
X144639711Y-95631789D01*
X144670554Y-95652398D01*
X144715359Y-95706010D01*
X144724066Y-95775335D01*
X144693912Y-95838363D01*
X144634469Y-95875082D01*
X144601663Y-95879500D01*
X143500097Y-95879500D01*
X143433058Y-95859815D01*
X143412416Y-95843181D01*
X143134802Y-95565567D01*
X143101317Y-95504244D01*
X143106301Y-95434552D01*
X143119381Y-95408995D01*
X143179390Y-95319185D01*
X143179390Y-95319184D01*
X143179394Y-95319179D01*
X143239737Y-95173497D01*
X143270500Y-95018842D01*
X143270500Y-94861158D01*
X143270500Y-94861155D01*
X143270499Y-94861153D01*
X143253660Y-94776498D01*
X143239737Y-94706503D01*
X143216768Y-94651051D01*
X143179397Y-94560827D01*
X143179390Y-94560814D01*
X143091789Y-94429711D01*
X143091786Y-94429707D01*
X143024760Y-94362681D01*
X142991275Y-94301358D01*
X142996259Y-94231666D01*
X143024760Y-94187319D01*
X143131786Y-94080292D01*
X143131789Y-94080289D01*
X143219394Y-93949179D01*
X143279737Y-93803497D01*
X143310500Y-93648842D01*
X143310500Y-93491158D01*
X143310500Y-93491155D01*
X143310499Y-93491153D01*
X143295649Y-93416498D01*
X143279737Y-93336503D01*
X143276100Y-93327722D01*
X143219397Y-93190827D01*
X143219390Y-93190814D01*
X143131789Y-93059711D01*
X143131786Y-93059707D01*
X143020292Y-92948213D01*
X143020288Y-92948210D01*
X142889185Y-92860609D01*
X142889172Y-92860602D01*
X142743501Y-92800264D01*
X142743489Y-92800261D01*
X142588845Y-92769500D01*
X142588842Y-92769500D01*
X142431158Y-92769500D01*
X142431155Y-92769500D01*
X142276510Y-92800261D01*
X142276507Y-92800261D01*
X142181952Y-92839427D01*
X142112482Y-92846895D01*
X142050003Y-92815619D01*
X142014351Y-92755530D01*
X142010500Y-92724865D01*
X142010500Y-90941153D01*
X143599500Y-90941153D01*
X143599500Y-91098846D01*
X143630261Y-91253489D01*
X143630264Y-91253501D01*
X143690602Y-91399172D01*
X143690609Y-91399185D01*
X143778210Y-91530288D01*
X143778213Y-91530292D01*
X143889707Y-91641786D01*
X143889711Y-91641789D01*
X144020814Y-91729390D01*
X144020827Y-91729397D01*
X144114983Y-91768397D01*
X144166503Y-91789737D01*
X144321153Y-91820499D01*
X144321156Y-91820500D01*
X144321158Y-91820500D01*
X144478844Y-91820500D01*
X144478845Y-91820499D01*
X144633497Y-91789737D01*
X144746166Y-91743067D01*
X144779172Y-91729397D01*
X144779172Y-91729396D01*
X144779179Y-91729394D01*
X144910289Y-91641789D01*
X145021789Y-91530289D01*
X145109394Y-91399179D01*
X145169737Y-91253497D01*
X145200500Y-91098842D01*
X145200500Y-90941158D01*
X145200500Y-90941155D01*
X145200499Y-90941153D01*
X145178991Y-90833028D01*
X145169737Y-90786503D01*
X145164761Y-90774489D01*
X145109397Y-90640827D01*
X145109390Y-90640814D01*
X145021789Y-90509711D01*
X145021786Y-90509707D01*
X144959008Y-90446929D01*
X144925523Y-90385606D01*
X144930507Y-90315914D01*
X144972379Y-90259981D01*
X145010691Y-90240588D01*
X145013489Y-90239738D01*
X145013497Y-90239737D01*
X145159179Y-90179394D01*
X145290289Y-90091789D01*
X145401789Y-89980289D01*
X145489394Y-89849179D01*
X145492719Y-89841153D01*
X145521667Y-89771264D01*
X145549737Y-89703497D01*
X145580500Y-89548842D01*
X145580500Y-89391158D01*
X145580500Y-89391155D01*
X145580499Y-89391153D01*
X145572707Y-89351982D01*
X145549737Y-89236503D01*
X145549637Y-89236261D01*
X145489397Y-89090827D01*
X145489390Y-89090814D01*
X145401789Y-88959711D01*
X145401786Y-88959707D01*
X145290292Y-88848213D01*
X145290288Y-88848210D01*
X145159185Y-88760609D01*
X145159172Y-88760602D01*
X145013501Y-88700264D01*
X145013489Y-88700261D01*
X144858845Y-88669500D01*
X144858842Y-88669500D01*
X144701158Y-88669500D01*
X144701155Y-88669500D01*
X144546510Y-88700261D01*
X144546498Y-88700264D01*
X144400827Y-88760602D01*
X144400814Y-88760609D01*
X144269711Y-88848210D01*
X144269707Y-88848213D01*
X144158213Y-88959707D01*
X144158210Y-88959711D01*
X144070609Y-89090814D01*
X144070602Y-89090827D01*
X144010264Y-89236498D01*
X144010261Y-89236510D01*
X143979500Y-89391153D01*
X143979500Y-89548846D01*
X144010261Y-89703489D01*
X144010264Y-89703501D01*
X144070602Y-89849172D01*
X144070609Y-89849185D01*
X144158210Y-89980288D01*
X144158213Y-89980292D01*
X144220992Y-90043071D01*
X144254477Y-90104394D01*
X144249493Y-90174086D01*
X144207621Y-90230019D01*
X144169309Y-90249412D01*
X144166498Y-90250264D01*
X144020827Y-90310602D01*
X144020814Y-90310609D01*
X143889711Y-90398210D01*
X143889707Y-90398213D01*
X143778213Y-90509707D01*
X143778210Y-90509711D01*
X143690609Y-90640814D01*
X143690602Y-90640827D01*
X143630264Y-90786498D01*
X143630261Y-90786510D01*
X143599500Y-90941153D01*
X142010500Y-90941153D01*
X142010500Y-76201153D01*
X148209500Y-76201153D01*
X148209500Y-76358846D01*
X148240261Y-76513489D01*
X148240264Y-76513501D01*
X148300602Y-76659172D01*
X148300609Y-76659185D01*
X148388210Y-76790288D01*
X148388213Y-76790292D01*
X148499708Y-76901787D01*
X148501840Y-76903537D01*
X148502655Y-76904734D01*
X148504018Y-76906097D01*
X148503759Y-76906355D01*
X148541172Y-76961284D01*
X148543039Y-77031129D01*
X148510855Y-77087066D01*
X148498210Y-77099711D01*
X148410609Y-77230814D01*
X148410602Y-77230827D01*
X148350264Y-77376498D01*
X148350261Y-77376510D01*
X148319500Y-77531153D01*
X148319500Y-77688846D01*
X148350261Y-77843489D01*
X148350264Y-77843501D01*
X148410602Y-77989172D01*
X148410609Y-77989185D01*
X148498210Y-78120288D01*
X148498213Y-78120292D01*
X148609707Y-78231786D01*
X148609711Y-78231789D01*
X148740817Y-78319392D01*
X148740819Y-78319392D01*
X148740821Y-78319394D01*
X148853470Y-78366054D01*
X148893699Y-78392934D01*
X150462875Y-79962110D01*
X150496360Y-80023433D01*
X150496811Y-80025599D01*
X150520261Y-80143491D01*
X150520264Y-80143501D01*
X150580602Y-80289172D01*
X150580609Y-80289185D01*
X150668210Y-80420288D01*
X150668213Y-80420292D01*
X150779707Y-80531786D01*
X150779711Y-80531789D01*
X150910814Y-80619390D01*
X150910827Y-80619397D01*
X151056498Y-80679735D01*
X151056503Y-80679737D01*
X151211153Y-80710499D01*
X151211156Y-80710500D01*
X151211158Y-80710500D01*
X151368844Y-80710500D01*
X151368845Y-80710499D01*
X151523497Y-80679737D01*
X151640474Y-80631284D01*
X151669172Y-80619397D01*
X151669172Y-80619396D01*
X151669179Y-80619394D01*
X151800289Y-80531789D01*
X151911789Y-80420289D01*
X151999394Y-80289179D01*
X152059737Y-80143497D01*
X152090500Y-79988842D01*
X152090500Y-79831158D01*
X152090500Y-79831155D01*
X152090499Y-79831153D01*
X152059738Y-79676510D01*
X152059737Y-79676503D01*
X152059735Y-79676498D01*
X151999397Y-79530827D01*
X151999390Y-79530814D01*
X151911789Y-79399711D01*
X151911786Y-79399707D01*
X151800292Y-79288213D01*
X151800288Y-79288210D01*
X151669185Y-79200609D01*
X151669172Y-79200602D01*
X151523501Y-79140264D01*
X151523489Y-79140261D01*
X151368845Y-79109500D01*
X151368842Y-79109500D01*
X151360097Y-79109500D01*
X151293058Y-79089815D01*
X151272416Y-79073181D01*
X149956819Y-77757584D01*
X149923334Y-77696261D01*
X149920500Y-77669903D01*
X149920500Y-77531155D01*
X149920499Y-77531153D01*
X149889738Y-77376510D01*
X149889737Y-77376503D01*
X149870812Y-77330814D01*
X149829397Y-77230827D01*
X149829390Y-77230814D01*
X149741789Y-77099711D01*
X149741786Y-77099707D01*
X149734260Y-77092181D01*
X149723647Y-77072744D01*
X149709147Y-77056011D01*
X149707230Y-77042679D01*
X149700775Y-77030858D01*
X149702354Y-77008771D01*
X149699203Y-76986853D01*
X149704798Y-76974601D01*
X149705759Y-76961166D01*
X149719029Y-76943439D01*
X149728228Y-76923297D01*
X149739559Y-76916014D01*
X149747631Y-76905233D01*
X149768376Y-76897495D01*
X149787006Y-76885523D01*
X149808924Y-76882371D01*
X149813095Y-76880816D01*
X149821941Y-76880500D01*
X149878433Y-76880500D01*
X149945472Y-76900185D01*
X149966114Y-76916819D01*
X153973181Y-80923886D01*
X154006666Y-80985209D01*
X154009500Y-81011567D01*
X154009500Y-84370234D01*
X153989815Y-84437273D01*
X153988602Y-84439125D01*
X153900609Y-84570814D01*
X153900602Y-84570827D01*
X153840264Y-84716498D01*
X153840261Y-84716510D01*
X153809500Y-84871153D01*
X153809500Y-85028846D01*
X153840261Y-85183489D01*
X153840264Y-85183501D01*
X153900602Y-85329172D01*
X153900609Y-85329185D01*
X153988210Y-85460288D01*
X153988213Y-85460292D01*
X154099707Y-85571786D01*
X154099711Y-85571789D01*
X154230814Y-85659390D01*
X154230827Y-85659397D01*
X154376498Y-85719735D01*
X154376503Y-85719737D01*
X154531153Y-85750499D01*
X154531156Y-85750500D01*
X154531158Y-85750500D01*
X154688844Y-85750500D01*
X154688845Y-85750499D01*
X154843497Y-85719737D01*
X154989179Y-85659394D01*
X155120289Y-85571789D01*
X155231789Y-85460289D01*
X155319394Y-85329179D01*
X155379737Y-85183497D01*
X155410500Y-85028842D01*
X155410500Y-84871158D01*
X155410500Y-84871155D01*
X155410499Y-84871153D01*
X155379738Y-84716510D01*
X155379737Y-84716503D01*
X155379735Y-84716498D01*
X155319397Y-84570827D01*
X155319390Y-84570814D01*
X155231398Y-84439125D01*
X155210520Y-84372447D01*
X155210500Y-84370234D01*
X155210500Y-83591153D01*
X164719500Y-83591153D01*
X164719500Y-83748846D01*
X164750261Y-83903489D01*
X164750264Y-83903501D01*
X164810602Y-84049172D01*
X164810609Y-84049185D01*
X164898210Y-84180288D01*
X164898213Y-84180292D01*
X165009707Y-84291786D01*
X165009711Y-84291789D01*
X165140814Y-84379390D01*
X165140827Y-84379397D01*
X165280554Y-84437273D01*
X165286503Y-84439737D01*
X165441153Y-84470499D01*
X165441156Y-84470500D01*
X165441158Y-84470500D01*
X165598844Y-84470500D01*
X165598845Y-84470499D01*
X165753497Y-84439737D01*
X165899179Y-84379394D01*
X166030289Y-84291789D01*
X166141789Y-84180289D01*
X166229394Y-84049179D01*
X166238165Y-84028005D01*
X166254156Y-83989397D01*
X166289737Y-83903497D01*
X166320500Y-83748842D01*
X166320500Y-83591158D01*
X166320499Y-83591155D01*
X166316144Y-83569259D01*
X166316144Y-83569257D01*
X166312543Y-83551153D01*
X166729500Y-83551153D01*
X166729500Y-83708846D01*
X166760261Y-83863489D01*
X166760264Y-83863501D01*
X166820602Y-84009172D01*
X166820609Y-84009185D01*
X166908210Y-84140288D01*
X166908213Y-84140292D01*
X167019707Y-84251786D01*
X167019711Y-84251789D01*
X167150814Y-84339390D01*
X167150827Y-84339397D01*
X167296498Y-84399735D01*
X167296503Y-84399737D01*
X167451153Y-84430499D01*
X167451156Y-84430500D01*
X167451158Y-84430500D01*
X167608844Y-84430500D01*
X167608845Y-84430499D01*
X167763497Y-84399737D01*
X167909179Y-84339394D01*
X168040289Y-84251789D01*
X168151789Y-84140289D01*
X168239394Y-84009179D01*
X168299737Y-83863497D01*
X168330500Y-83708842D01*
X168330500Y-83591153D01*
X168699500Y-83591153D01*
X168699500Y-83748846D01*
X168730261Y-83903489D01*
X168730264Y-83903501D01*
X168790602Y-84049172D01*
X168790609Y-84049185D01*
X168878210Y-84180288D01*
X168878213Y-84180292D01*
X168989707Y-84291786D01*
X168989711Y-84291789D01*
X169120814Y-84379390D01*
X169120827Y-84379397D01*
X169260554Y-84437273D01*
X169266503Y-84439737D01*
X169421153Y-84470499D01*
X169421156Y-84470500D01*
X169421158Y-84470500D01*
X169578844Y-84470500D01*
X169578845Y-84470499D01*
X169733497Y-84439737D01*
X169879179Y-84379394D01*
X170010289Y-84291789D01*
X170121789Y-84180289D01*
X170209394Y-84049179D01*
X170218165Y-84028005D01*
X170234156Y-83989397D01*
X170269737Y-83903497D01*
X170300500Y-83748842D01*
X170300500Y-83591158D01*
X170300500Y-83591156D01*
X170300500Y-83591155D01*
X170300499Y-83591153D01*
X170285052Y-83513497D01*
X170269737Y-83436503D01*
X170257907Y-83407942D01*
X170209397Y-83290827D01*
X170209390Y-83290814D01*
X170121789Y-83159711D01*
X170121786Y-83159707D01*
X170010292Y-83048213D01*
X170010288Y-83048210D01*
X169879185Y-82960609D01*
X169879172Y-82960602D01*
X169733501Y-82900264D01*
X169733489Y-82900261D01*
X169578845Y-82869500D01*
X169578842Y-82869500D01*
X169421158Y-82869500D01*
X169421155Y-82869500D01*
X169266510Y-82900261D01*
X169266498Y-82900264D01*
X169120827Y-82960602D01*
X169120814Y-82960609D01*
X168989711Y-83048210D01*
X168989707Y-83048213D01*
X168878213Y-83159707D01*
X168878210Y-83159711D01*
X168790609Y-83290814D01*
X168790602Y-83290827D01*
X168730264Y-83436498D01*
X168730261Y-83436510D01*
X168699500Y-83591153D01*
X168330500Y-83591153D01*
X168330500Y-83551158D01*
X168330500Y-83551155D01*
X168330499Y-83551153D01*
X168299737Y-83396503D01*
X168284139Y-83358846D01*
X168239397Y-83250827D01*
X168239390Y-83250814D01*
X168151789Y-83119711D01*
X168151786Y-83119707D01*
X168040292Y-83008213D01*
X168040288Y-83008210D01*
X167909185Y-82920609D01*
X167909172Y-82920602D01*
X167763501Y-82860264D01*
X167763489Y-82860261D01*
X167608845Y-82829500D01*
X167608842Y-82829500D01*
X167451158Y-82829500D01*
X167451155Y-82829500D01*
X167296510Y-82860261D01*
X167296498Y-82860264D01*
X167150827Y-82920602D01*
X167150814Y-82920609D01*
X167019711Y-83008210D01*
X167019707Y-83008213D01*
X166908213Y-83119707D01*
X166908210Y-83119711D01*
X166820609Y-83250814D01*
X166820602Y-83250827D01*
X166760264Y-83396498D01*
X166760261Y-83396510D01*
X166729500Y-83551153D01*
X166312543Y-83551153D01*
X166289738Y-83436510D01*
X166289737Y-83436503D01*
X166277907Y-83407942D01*
X166229397Y-83290827D01*
X166229390Y-83290814D01*
X166141789Y-83159711D01*
X166141786Y-83159707D01*
X166030292Y-83048213D01*
X166030288Y-83048210D01*
X165899185Y-82960609D01*
X165899172Y-82960602D01*
X165753501Y-82900264D01*
X165753489Y-82900261D01*
X165598845Y-82869500D01*
X165598842Y-82869500D01*
X165441158Y-82869500D01*
X165441155Y-82869500D01*
X165286510Y-82900261D01*
X165286498Y-82900264D01*
X165140827Y-82960602D01*
X165140814Y-82960609D01*
X165009711Y-83048210D01*
X165009707Y-83048213D01*
X164898213Y-83159707D01*
X164898210Y-83159711D01*
X164810609Y-83290814D01*
X164810602Y-83290827D01*
X164750264Y-83436498D01*
X164750261Y-83436510D01*
X164719500Y-83591153D01*
X155210500Y-83591153D01*
X155210500Y-80800529D01*
X155210501Y-80800516D01*
X155210501Y-80632415D01*
X155210501Y-80632413D01*
X155169577Y-80479685D01*
X155140639Y-80429565D01*
X155090520Y-80342754D01*
X154978716Y-80230950D01*
X154978715Y-80230949D01*
X154974385Y-80226619D01*
X154974374Y-80226609D01*
X152378918Y-77631153D01*
X160189500Y-77631153D01*
X160189500Y-77788846D01*
X160220261Y-77943489D01*
X160220264Y-77943501D01*
X160280602Y-78089172D01*
X160280609Y-78089185D01*
X160368210Y-78220288D01*
X160368213Y-78220292D01*
X160479707Y-78331786D01*
X160479711Y-78331789D01*
X160610814Y-78419390D01*
X160610827Y-78419397D01*
X160756498Y-78479735D01*
X160756503Y-78479737D01*
X160911153Y-78510499D01*
X160911156Y-78510500D01*
X160911158Y-78510500D01*
X161068844Y-78510500D01*
X161068845Y-78510499D01*
X161223497Y-78479737D01*
X161369179Y-78419394D01*
X161500289Y-78331789D01*
X161611789Y-78220289D01*
X161699394Y-78089179D01*
X161759737Y-77943497D01*
X161790500Y-77788842D01*
X161790500Y-77631158D01*
X161790500Y-77631155D01*
X161790499Y-77631153D01*
X161759737Y-77476503D01*
X161718314Y-77376498D01*
X161699397Y-77330827D01*
X161699390Y-77330814D01*
X161611789Y-77199711D01*
X161611786Y-77199707D01*
X161500292Y-77088213D01*
X161500288Y-77088210D01*
X161369185Y-77000609D01*
X161369172Y-77000602D01*
X161223501Y-76940264D01*
X161223489Y-76940261D01*
X161068845Y-76909500D01*
X161068842Y-76909500D01*
X160911158Y-76909500D01*
X160911155Y-76909500D01*
X160756510Y-76940261D01*
X160756498Y-76940264D01*
X160610827Y-77000602D01*
X160610814Y-77000609D01*
X160479711Y-77088210D01*
X160479707Y-77088213D01*
X160368213Y-77199707D01*
X160368210Y-77199711D01*
X160280609Y-77330814D01*
X160280602Y-77330827D01*
X160220264Y-77476498D01*
X160220261Y-77476510D01*
X160189500Y-77631153D01*
X152378918Y-77631153D01*
X150666120Y-75918355D01*
X150666118Y-75918352D01*
X150547247Y-75799481D01*
X150547246Y-75799480D01*
X150460434Y-75749360D01*
X150460434Y-75749359D01*
X150460430Y-75749358D01*
X150410315Y-75720423D01*
X150257587Y-75679499D01*
X150099473Y-75679499D01*
X150091877Y-75679499D01*
X150091861Y-75679500D01*
X149589766Y-75679500D01*
X149522727Y-75659815D01*
X149520875Y-75658602D01*
X149389185Y-75570609D01*
X149389172Y-75570602D01*
X149243501Y-75510264D01*
X149243489Y-75510261D01*
X149088845Y-75479500D01*
X149088842Y-75479500D01*
X148931158Y-75479500D01*
X148931155Y-75479500D01*
X148776510Y-75510261D01*
X148776498Y-75510264D01*
X148630827Y-75570602D01*
X148630814Y-75570609D01*
X148499711Y-75658210D01*
X148499707Y-75658213D01*
X148388213Y-75769707D01*
X148388210Y-75769711D01*
X148300609Y-75900814D01*
X148300602Y-75900827D01*
X148240264Y-76046498D01*
X148240261Y-76046510D01*
X148209500Y-76201153D01*
X142010500Y-76201153D01*
X142010500Y-69751758D01*
X159421794Y-69751758D01*
X159421794Y-69751759D01*
X159453431Y-69772898D01*
X159632681Y-69847145D01*
X159632693Y-69847148D01*
X159822981Y-69884999D01*
X159822984Y-69885000D01*
X160017016Y-69885000D01*
X160017018Y-69884999D01*
X160207306Y-69847148D01*
X160207318Y-69847145D01*
X160386565Y-69772899D01*
X160418204Y-69751758D01*
X168181794Y-69751758D01*
X168181794Y-69751759D01*
X168213431Y-69772898D01*
X168392681Y-69847145D01*
X168392693Y-69847148D01*
X168582981Y-69884999D01*
X168582984Y-69885000D01*
X168777016Y-69885000D01*
X168777018Y-69884999D01*
X168967306Y-69847148D01*
X168967318Y-69847145D01*
X169146565Y-69772899D01*
X169178204Y-69751758D01*
X168680001Y-69253554D01*
X168680000Y-69253554D01*
X168181794Y-69751758D01*
X160418204Y-69751758D01*
X159920001Y-69253554D01*
X159920000Y-69253554D01*
X159421794Y-69751758D01*
X142010500Y-69751758D01*
X142010500Y-66862567D01*
X142030185Y-66795528D01*
X142082989Y-66749773D01*
X142152147Y-66739829D01*
X142215703Y-66768854D01*
X142253159Y-66826569D01*
X142315005Y-67030446D01*
X142341614Y-67118165D01*
X142480754Y-67454078D01*
X142480756Y-67454083D01*
X142652140Y-67774720D01*
X142652151Y-67774738D01*
X142854140Y-68077035D01*
X142854150Y-68077049D01*
X143084807Y-68358106D01*
X143341893Y-68615192D01*
X143341898Y-68615196D01*
X143341899Y-68615197D01*
X143622956Y-68845854D01*
X143925268Y-69047853D01*
X143925277Y-69047858D01*
X143925279Y-69047859D01*
X144245916Y-69219243D01*
X144245918Y-69219243D01*
X144245924Y-69219247D01*
X144581836Y-69358386D01*
X144929767Y-69463930D01*
X144929773Y-69463931D01*
X144929776Y-69463932D01*
X144929787Y-69463935D01*
X145286369Y-69534862D01*
X145648206Y-69570500D01*
X145648209Y-69570500D01*
X146011791Y-69570500D01*
X146011794Y-69570500D01*
X146373631Y-69534862D01*
X146443045Y-69521054D01*
X146730212Y-69463935D01*
X146730223Y-69463932D01*
X146730223Y-69463931D01*
X146730233Y-69463930D01*
X147078164Y-69358386D01*
X147414076Y-69219247D01*
X147734732Y-69047853D01*
X148037044Y-68845854D01*
X148318101Y-68615197D01*
X148575197Y-68358101D01*
X148805854Y-68077044D01*
X148825365Y-68047844D01*
X158210000Y-68047844D01*
X158216401Y-68107372D01*
X158216403Y-68107379D01*
X158266645Y-68242086D01*
X158266649Y-68242093D01*
X158352809Y-68357187D01*
X158352812Y-68357190D01*
X158467906Y-68443350D01*
X158467913Y-68443354D01*
X158602620Y-68493596D01*
X158602627Y-68493598D01*
X158662155Y-68499999D01*
X158662172Y-68500000D01*
X158844173Y-68500000D01*
X158911212Y-68519685D01*
X158956967Y-68572489D01*
X158966911Y-68641647D01*
X158965790Y-68648191D01*
X158935000Y-68802981D01*
X158935000Y-68997018D01*
X158972851Y-69187306D01*
X158972853Y-69187314D01*
X159047102Y-69366568D01*
X159047106Y-69366575D01*
X159068240Y-69398204D01*
X159068240Y-69398205D01*
X159655542Y-68810904D01*
X159716865Y-68777419D01*
X159721681Y-68777763D01*
X159690000Y-68854250D01*
X159690000Y-68945750D01*
X159725015Y-69030285D01*
X159789715Y-69094985D01*
X159874250Y-69130000D01*
X159965750Y-69130000D01*
X160050285Y-69094985D01*
X160114985Y-69030285D01*
X160150000Y-68945750D01*
X160150000Y-68854250D01*
X160119633Y-68780938D01*
X160140111Y-68782403D01*
X160184458Y-68810904D01*
X160771758Y-69398204D01*
X160792899Y-69366565D01*
X160867145Y-69187318D01*
X160867148Y-69187306D01*
X160904999Y-68997018D01*
X160905000Y-68997016D01*
X160905000Y-68802983D01*
X160904999Y-68802981D01*
X160874210Y-68648191D01*
X160880437Y-68578600D01*
X160923300Y-68523422D01*
X160989190Y-68500178D01*
X160995827Y-68500000D01*
X161177828Y-68500000D01*
X161177844Y-68499999D01*
X161237372Y-68493598D01*
X161237379Y-68493596D01*
X161372086Y-68443354D01*
X161372093Y-68443350D01*
X161487187Y-68357190D01*
X161487190Y-68357187D01*
X161573350Y-68242093D01*
X161573354Y-68242086D01*
X161623596Y-68107379D01*
X161623598Y-68107372D01*
X161629999Y-68047844D01*
X161630000Y-68047827D01*
X161630000Y-65710000D01*
X158210000Y-65710000D01*
X158210000Y-68047844D01*
X148825365Y-68047844D01*
X149007853Y-67774732D01*
X149179247Y-67454076D01*
X149318386Y-67118164D01*
X149423930Y-66770233D01*
X149423932Y-66770223D01*
X149423935Y-66770212D01*
X149494862Y-66413630D01*
X149530500Y-66051790D01*
X149530500Y-65688205D01*
X149528785Y-65670789D01*
X149494862Y-65326369D01*
X149423935Y-64969787D01*
X149423932Y-64969776D01*
X149423931Y-64969773D01*
X149423930Y-64969767D01*
X149318386Y-64621836D01*
X149179247Y-64285924D01*
X149007853Y-63965268D01*
X148805854Y-63662956D01*
X148575197Y-63381899D01*
X148575196Y-63381898D01*
X148575192Y-63381893D01*
X148318106Y-63124807D01*
X148123019Y-62964704D01*
X148037049Y-62894150D01*
X148037048Y-62894149D01*
X148037044Y-62894146D01*
X148004132Y-62872155D01*
X158210000Y-62872155D01*
X158210000Y-65210000D01*
X159670000Y-65210000D01*
X160170000Y-65210000D01*
X161630000Y-65210000D01*
X161630000Y-62872172D01*
X161629999Y-62872155D01*
X166970000Y-62872155D01*
X166970000Y-65210000D01*
X168430000Y-65210000D01*
X168430000Y-62420000D01*
X167422155Y-62420000D01*
X167362627Y-62426401D01*
X167362620Y-62426403D01*
X167227913Y-62476645D01*
X167227906Y-62476649D01*
X167112812Y-62562809D01*
X167112809Y-62562812D01*
X167026649Y-62677906D01*
X167026645Y-62677913D01*
X166976403Y-62812620D01*
X166976401Y-62812627D01*
X166970000Y-62872155D01*
X161629999Y-62872155D01*
X161623598Y-62812627D01*
X161623596Y-62812620D01*
X161573354Y-62677913D01*
X161573350Y-62677906D01*
X161487190Y-62562812D01*
X161487187Y-62562809D01*
X161372093Y-62476649D01*
X161372086Y-62476645D01*
X161237379Y-62426403D01*
X161237372Y-62426401D01*
X161177844Y-62420000D01*
X160170000Y-62420000D01*
X160170000Y-65210000D01*
X159670000Y-65210000D01*
X159670000Y-62420000D01*
X158662155Y-62420000D01*
X158602627Y-62426401D01*
X158602620Y-62426403D01*
X158467913Y-62476645D01*
X158467906Y-62476649D01*
X158352812Y-62562809D01*
X158352809Y-62562812D01*
X158266649Y-62677906D01*
X158266645Y-62677913D01*
X158216403Y-62812620D01*
X158216401Y-62812627D01*
X158210000Y-62872155D01*
X148004132Y-62872155D01*
X147734732Y-62692147D01*
X147734727Y-62692144D01*
X147734720Y-62692140D01*
X147414083Y-62520756D01*
X147414078Y-62520754D01*
X147078165Y-62381614D01*
X147065881Y-62377888D01*
X147050295Y-62373160D01*
X146991858Y-62334863D01*
X146963402Y-62271051D01*
X146973962Y-62201984D01*
X147020186Y-62149590D01*
X147086292Y-62130500D01*
X170485500Y-62130500D01*
X170552539Y-62150185D01*
G37*
%TD.AperFunction*%
%TD*%
M02*
