%TF.GenerationSoftware,KiCad,Pcbnew,9.0.2*%
%TF.CreationDate,2025-09-22T16:34:47-04:00*%
%TF.ProjectId,ABAD,41424144-2e6b-4696-9361-645f70636258,rev?*%
%TF.SameCoordinates,Original*%
%TF.FileFunction,Copper,L3,Inr*%
%TF.FilePolarity,Positive*%
%FSLAX46Y46*%
G04 Gerber Fmt 4.6, Leading zero omitted, Abs format (unit mm)*
G04 Created by KiCad (PCBNEW 9.0.2) date 2025-09-22 16:34:47*
%MOMM*%
%LPD*%
G01*
G04 APERTURE LIST*
G04 Aperture macros list*
%AMRoundRect*
0 Rectangle with rounded corners*
0 $1 Rounding radius*
0 $2 $3 $4 $5 $6 $7 $8 $9 X,Y pos of 4 corners*
0 Add a 4 corners polygon primitive as box body*
4,1,4,$2,$3,$4,$5,$6,$7,$8,$9,$2,$3,0*
0 Add four circle primitives for the rounded corners*
1,1,$1+$1,$2,$3*
1,1,$1+$1,$4,$5*
1,1,$1+$1,$6,$7*
1,1,$1+$1,$8,$9*
0 Add four rect primitives between the rounded corners*
20,1,$1+$1,$2,$3,$4,$5,0*
20,1,$1+$1,$4,$5,$6,$7,0*
20,1,$1+$1,$6,$7,$8,$9,0*
20,1,$1+$1,$8,$9,$2,$3,0*%
G04 Aperture macros list end*
%TA.AperFunction,HeatsinkPad*%
%ADD10O,2.100000X1.000000*%
%TD*%
%TA.AperFunction,HeatsinkPad*%
%ADD11O,1.600000X1.000000*%
%TD*%
%TA.AperFunction,ComponentPad*%
%ADD12RoundRect,0.249999X0.850001X-0.850001X0.850001X0.850001X-0.850001X0.850001X-0.850001X-0.850001X0*%
%TD*%
%TA.AperFunction,ComponentPad*%
%ADD13C,2.200000*%
%TD*%
%TA.AperFunction,ComponentPad*%
%ADD14C,6.400000*%
%TD*%
%TA.AperFunction,ComponentPad*%
%ADD15R,1.700000X1.700000*%
%TD*%
%TA.AperFunction,ComponentPad*%
%ADD16C,1.700000*%
%TD*%
%TA.AperFunction,ComponentPad*%
%ADD17C,0.970000*%
%TD*%
%TA.AperFunction,ViaPad*%
%ADD18C,0.600000*%
%TD*%
%TA.AperFunction,Conductor*%
%ADD19C,0.500000*%
%TD*%
%TA.AperFunction,Conductor*%
%ADD20C,0.200000*%
%TD*%
G04 APERTURE END LIST*
D10*
%TO.N,GND*%
%TO.C,J2*%
X148860000Y-118590000D03*
D11*
X144680000Y-118590000D03*
D10*
X148860000Y-127230000D03*
D11*
X144680000Y-127230000D03*
%TD*%
D12*
%TO.N,GND*%
%TO.C,J5*%
X166980000Y-127270000D03*
D13*
%TO.N,RAW_BATT+*%
X166980000Y-124730000D03*
%TD*%
D14*
%TO.N,N/C*%
%TO.C,H1*%
X167210000Y-118750000D03*
%TD*%
D15*
%TO.N,/BOOTSEL*%
%TO.C,J3*%
X168890000Y-93830000D03*
D16*
%TO.N,GND*%
X168890000Y-96370000D03*
%TD*%
D17*
%TO.N,GND*%
%TO.C,J1*%
X168680000Y-68900000D03*
X159920000Y-68900000D03*
%TD*%
D14*
%TO.N,N/C*%
%TO.C,H2*%
X145830000Y-65870000D03*
%TD*%
D18*
%TO.N,GND*%
X147020000Y-92000000D03*
X146580000Y-89600002D03*
X145450000Y-91040000D03*
%TO.N,+3V3*%
X144400000Y-91020000D03*
%TO.N,GND*%
X158810000Y-96160000D03*
X160780000Y-83210000D03*
X144600000Y-72310000D03*
X149320000Y-97700000D03*
X151080000Y-105260000D03*
X145270000Y-103260000D03*
X144760000Y-128690000D03*
X157750000Y-122360000D03*
X161420000Y-68900000D03*
X145565865Y-97538577D03*
X163420000Y-122760000D03*
X166710000Y-95450000D03*
X153000000Y-85650000D03*
X153100000Y-124430000D03*
X143379265Y-95810735D03*
X155037500Y-121362500D03*
X158770000Y-85740000D03*
X148830000Y-115910000D03*
X169670000Y-128730000D03*
X166580000Y-65480000D03*
X150730000Y-117710000D03*
X163490000Y-115490000D03*
X144600000Y-71370000D03*
X147770000Y-115930000D03*
X162920000Y-121150000D03*
X142770000Y-101710000D03*
X165600000Y-98170000D03*
X150610000Y-101280000D03*
X144150000Y-86240000D03*
X165950000Y-69780000D03*
X144970000Y-78910000D03*
X154270000Y-98930000D03*
X158800000Y-88480000D03*
X166690000Y-98170000D03*
X167140000Y-69780000D03*
X153380000Y-93277046D03*
X151050000Y-126390000D03*
X157590000Y-117780000D03*
X143030000Y-98550000D03*
X154630000Y-90450000D03*
X151120000Y-127920000D03*
X151080000Y-106450000D03*
X165230000Y-89200000D03*
X154390000Y-91560000D03*
X163460000Y-123610000D03*
X144610000Y-70490000D03*
X164380000Y-128640000D03*
X145140000Y-86230000D03*
X158380000Y-117790000D03*
X145150000Y-85220000D03*
X157670000Y-65440000D03*
%TO.N,+3V3*%
X144960000Y-100640000D03*
X151550000Y-109740000D03*
X160990000Y-77710000D03*
%TO.N,+BATT*%
X145780000Y-109760000D03*
X157960000Y-119360000D03*
%TO.N,+3V3*%
X154210000Y-87260000D03*
X165520000Y-83670000D03*
X148090000Y-101418000D03*
X148380000Y-90541000D03*
X142510000Y-93570000D03*
X159720000Y-115840000D03*
X145150000Y-95010000D03*
X153380000Y-94760000D03*
X165095000Y-96542500D03*
X169500000Y-83670000D03*
X148421000Y-96439736D03*
X149079236Y-86190764D03*
X167530000Y-83630000D03*
X161020000Y-87140000D03*
X156890000Y-95860000D03*
X159140000Y-90740000D03*
X144780000Y-89470000D03*
%TO.N,+1V1*%
X151779000Y-94810000D03*
X154940346Y-97738875D03*
X151710735Y-86859265D03*
%TO.N,/BATT SENSE*%
X148450000Y-104570000D03*
X150910061Y-94884541D03*
%TO.N,Net-(J2-CC1)*%
X148330000Y-122050000D03*
X146030000Y-117020000D03*
%TO.N,/SWCLK*%
X152184265Y-89905735D03*
X144850000Y-83280000D03*
%TO.N,/RF_LED*%
X167280000Y-89800000D03*
X160010000Y-90870000D03*
%TO.N,/PPS_LED*%
X169950000Y-89550000D03*
X159429871Y-92351600D03*
%TO.N,/SWD*%
X151378308Y-87586930D03*
X144920000Y-81000000D03*
%TO.N,/ACCEL_SDA*%
X148220000Y-98430000D03*
X146820000Y-97110000D03*
%TO.N,/MOSI*%
X149010000Y-76280000D03*
X154610000Y-84950000D03*
%TO.N,/BMP_SCL*%
X146179942Y-92692141D03*
X146650000Y-91080000D03*
%TO.N,/QSPI_SS*%
X159018528Y-97740000D03*
X164190000Y-91059000D03*
%TO.N,/ACCEL_INT*%
X148853938Y-93917258D03*
X146020000Y-95880000D03*
%TO.N,/QSPI_SD1*%
X156780000Y-97740000D03*
X160820000Y-95090000D03*
%TO.N,/GPS_RX*%
X152070000Y-99710000D03*
X151310801Y-90754182D03*
%TO.N,/XIN*%
X153810000Y-89862271D03*
X149140000Y-87950000D03*
%TO.N,/QSPI_SD0*%
X155720000Y-93530000D03*
X159920000Y-93650000D03*
%TO.N,/QSPI_SCLK*%
X160310000Y-98340000D03*
X155090026Y-96869379D03*
%TO.N,/GPS_TX*%
X151410000Y-99000000D03*
X151170000Y-92330000D03*
%TO.N,/RESET*%
X149650000Y-82360000D03*
X155620000Y-89920000D03*
%TO.N,/SCK*%
X151290000Y-79910000D03*
X149120000Y-77610000D03*
%TO.N,/BMP_INT*%
X142470000Y-94940000D03*
X148930000Y-94940000D03*
%TO.N,/QSPI_SD3*%
X154420735Y-94610735D03*
X162580000Y-94810000D03*
%TO.N,/QSPI_SD2*%
X159120000Y-94970000D03*
X155916054Y-94850000D03*
%TD*%
D19*
%TO.N,+BATT*%
X155380000Y-119360000D02*
X145780000Y-109760000D01*
X157960000Y-119360000D02*
X155380000Y-119360000D01*
D20*
%TO.N,+1V1*%
X151779000Y-94810000D02*
X152050000Y-94810000D01*
X154640000Y-98260000D02*
X154520000Y-98140000D01*
X151137500Y-86872500D02*
X150569000Y-87441000D01*
X155000000Y-98260000D02*
X154640000Y-98260000D01*
X150569000Y-87441000D02*
X150569000Y-93600000D01*
X155070735Y-97869265D02*
X155070735Y-98189265D01*
X151697500Y-86872500D02*
X151137500Y-86872500D01*
X153960000Y-97580000D02*
X154520000Y-98140000D01*
X154940346Y-97738875D02*
X155070735Y-97869265D01*
X155070735Y-98189265D02*
X155000000Y-98260000D01*
X152050000Y-94810000D02*
X152410000Y-95170000D01*
X152950000Y-97580000D02*
X153960000Y-97580000D01*
X151710735Y-86859265D02*
X151697500Y-86872500D01*
X152410000Y-97040000D02*
X152950000Y-97580000D01*
X150569000Y-93600000D02*
X151779000Y-94810000D01*
X152410000Y-95170000D02*
X152410000Y-97040000D01*
%TD*%
%TA.AperFunction,Conductor*%
%TO.N,+3V3*%
G36*
X170552539Y-62150185D02*
G01*
X170598294Y-62202989D01*
X170609500Y-62254500D01*
X170609500Y-88795922D01*
X170589815Y-88862961D01*
X170537011Y-88908716D01*
X170467853Y-88918660D01*
X170416609Y-88899024D01*
X170329185Y-88840609D01*
X170329172Y-88840602D01*
X170183501Y-88780264D01*
X170183489Y-88780261D01*
X170028845Y-88749500D01*
X170028842Y-88749500D01*
X169871158Y-88749500D01*
X169871155Y-88749500D01*
X169716510Y-88780261D01*
X169716498Y-88780264D01*
X169570827Y-88840602D01*
X169570814Y-88840609D01*
X169439711Y-88928210D01*
X169439707Y-88928213D01*
X169328213Y-89039707D01*
X169328210Y-89039711D01*
X169240609Y-89170814D01*
X169240602Y-89170827D01*
X169180264Y-89316498D01*
X169180261Y-89316510D01*
X169149500Y-89471153D01*
X169149500Y-89628846D01*
X169180261Y-89783489D01*
X169180264Y-89783501D01*
X169240602Y-89929172D01*
X169240609Y-89929185D01*
X169328210Y-90060288D01*
X169328213Y-90060292D01*
X169439707Y-90171786D01*
X169439711Y-90171789D01*
X169570814Y-90259390D01*
X169570827Y-90259397D01*
X169716498Y-90319735D01*
X169716503Y-90319737D01*
X169866664Y-90349606D01*
X169871153Y-90350499D01*
X169871156Y-90350500D01*
X169871158Y-90350500D01*
X170028844Y-90350500D01*
X170028845Y-90350499D01*
X170183497Y-90319737D01*
X170329179Y-90259394D01*
X170416609Y-90200974D01*
X170483286Y-90180097D01*
X170550666Y-90198581D01*
X170597357Y-90250560D01*
X170609500Y-90304077D01*
X170609500Y-116768213D01*
X170589815Y-116835252D01*
X170537011Y-116881007D01*
X170467853Y-116890951D01*
X170404297Y-116861926D01*
X170382398Y-116837104D01*
X170311167Y-116730500D01*
X170185854Y-116542956D01*
X169955197Y-116261899D01*
X169955196Y-116261898D01*
X169955192Y-116261893D01*
X169698106Y-116004807D01*
X169417049Y-115774150D01*
X169417048Y-115774149D01*
X169417044Y-115774146D01*
X169114732Y-115572147D01*
X169114727Y-115572144D01*
X169114720Y-115572140D01*
X168794083Y-115400756D01*
X168794078Y-115400754D01*
X168791550Y-115399707D01*
X168594104Y-115317922D01*
X168458165Y-115261614D01*
X168110223Y-115156067D01*
X168110212Y-115156064D01*
X167753630Y-115085137D01*
X167481111Y-115058296D01*
X167391794Y-115049500D01*
X167028206Y-115049500D01*
X166945679Y-115057628D01*
X166666369Y-115085137D01*
X166309787Y-115156064D01*
X166309776Y-115156067D01*
X165961834Y-115261614D01*
X165625921Y-115400754D01*
X165625916Y-115400756D01*
X165305279Y-115572140D01*
X165305261Y-115572151D01*
X165002964Y-115774140D01*
X165002950Y-115774150D01*
X164721893Y-116004807D01*
X164464807Y-116261893D01*
X164234150Y-116542950D01*
X164234140Y-116542964D01*
X164032151Y-116845261D01*
X164032140Y-116845279D01*
X163860756Y-117165916D01*
X163860754Y-117165921D01*
X163721614Y-117501834D01*
X163616067Y-117849776D01*
X163616064Y-117849787D01*
X163545137Y-118206369D01*
X163524906Y-118411786D01*
X163509500Y-118568206D01*
X163509500Y-118931794D01*
X163520337Y-119041829D01*
X163545137Y-119293630D01*
X163616064Y-119650212D01*
X163616067Y-119650223D01*
X163721614Y-119998165D01*
X163860754Y-120334078D01*
X163860756Y-120334083D01*
X164032140Y-120654720D01*
X164032151Y-120654738D01*
X164234140Y-120957035D01*
X164234150Y-120957049D01*
X164464807Y-121238106D01*
X164721893Y-121495192D01*
X164721898Y-121495196D01*
X164721899Y-121495197D01*
X165002956Y-121725854D01*
X165305268Y-121927853D01*
X165305277Y-121927858D01*
X165305279Y-121927859D01*
X165625916Y-122099243D01*
X165625918Y-122099243D01*
X165625924Y-122099247D01*
X165961836Y-122238386D01*
X166309767Y-122343930D01*
X166309773Y-122343931D01*
X166309776Y-122343932D01*
X166309787Y-122343935D01*
X166666369Y-122414862D01*
X167028206Y-122450500D01*
X167028209Y-122450500D01*
X167391791Y-122450500D01*
X167391794Y-122450500D01*
X167753631Y-122414862D01*
X167823045Y-122401054D01*
X168110212Y-122343935D01*
X168110223Y-122343932D01*
X168110223Y-122343931D01*
X168110233Y-122343930D01*
X168458164Y-122238386D01*
X168794076Y-122099247D01*
X169114732Y-121927853D01*
X169417044Y-121725854D01*
X169698101Y-121495197D01*
X169955197Y-121238101D01*
X170185854Y-120957044D01*
X170382399Y-120662893D01*
X170436010Y-120618090D01*
X170505335Y-120609383D01*
X170568362Y-120639537D01*
X170605082Y-120698980D01*
X170609500Y-120731786D01*
X170609500Y-128286424D01*
X170589815Y-128353463D01*
X170537011Y-128399218D01*
X170467853Y-128409162D01*
X170404297Y-128380137D01*
X170382398Y-128355315D01*
X170291789Y-128219711D01*
X170291786Y-128219707D01*
X170180289Y-128108210D01*
X170086265Y-128045386D01*
X170041460Y-127991774D01*
X170032753Y-127922449D01*
X170062907Y-127859422D01*
X170067456Y-127854621D01*
X170141789Y-127780289D01*
X170229394Y-127649179D01*
X170289737Y-127503497D01*
X170320500Y-127348842D01*
X170320500Y-127191158D01*
X170320500Y-127191155D01*
X170320499Y-127191153D01*
X170312365Y-127150263D01*
X170289737Y-127036503D01*
X170253421Y-126948827D01*
X170229397Y-126890827D01*
X170229390Y-126890814D01*
X170141789Y-126759711D01*
X170141786Y-126759707D01*
X170030292Y-126648213D01*
X170030288Y-126648210D01*
X169899185Y-126560609D01*
X169899172Y-126560602D01*
X169753501Y-126500264D01*
X169753489Y-126500261D01*
X169598845Y-126469500D01*
X169598842Y-126469500D01*
X169441158Y-126469500D01*
X169441155Y-126469500D01*
X169286510Y-126500261D01*
X169286498Y-126500264D01*
X169140827Y-126560602D01*
X169140814Y-126560609D01*
X169009711Y-126648210D01*
X169009707Y-126648213D01*
X168898213Y-126759707D01*
X168898210Y-126759711D01*
X168807602Y-126895315D01*
X168753989Y-126940120D01*
X168684664Y-126948827D01*
X168621637Y-126918672D01*
X168584918Y-126859229D01*
X168580500Y-126826424D01*
X168580500Y-126369995D01*
X168580499Y-126369982D01*
X168577780Y-126343371D01*
X168569999Y-126267202D01*
X168514814Y-126100665D01*
X168422712Y-125951344D01*
X168298656Y-125827288D01*
X168293871Y-125822503D01*
X168260386Y-125761180D01*
X168265370Y-125691488D01*
X168281234Y-125661937D01*
X168348870Y-125568845D01*
X168463241Y-125344379D01*
X168541090Y-125104785D01*
X168546357Y-125071531D01*
X168576286Y-125008396D01*
X168635597Y-124971464D01*
X168705460Y-124972462D01*
X168763692Y-125011071D01*
X168783391Y-125043476D01*
X168810602Y-125109173D01*
X168810609Y-125109185D01*
X168898210Y-125240288D01*
X168898213Y-125240292D01*
X169009707Y-125351786D01*
X169009711Y-125351789D01*
X169140814Y-125439390D01*
X169140827Y-125439397D01*
X169286498Y-125499735D01*
X169286503Y-125499737D01*
X169441153Y-125530499D01*
X169441156Y-125530500D01*
X169441158Y-125530500D01*
X169598844Y-125530500D01*
X169598845Y-125530499D01*
X169753497Y-125499737D01*
X169899179Y-125439394D01*
X170030289Y-125351789D01*
X170141789Y-125240289D01*
X170229394Y-125109179D01*
X170289737Y-124963497D01*
X170320500Y-124808842D01*
X170320500Y-124651158D01*
X170320500Y-124651155D01*
X170320499Y-124651153D01*
X170292192Y-124508846D01*
X170289737Y-124496503D01*
X170259944Y-124424576D01*
X170229397Y-124350827D01*
X170229390Y-124350814D01*
X170141789Y-124219711D01*
X170141786Y-124219707D01*
X170030292Y-124108213D01*
X170030288Y-124108210D01*
X169899185Y-124020609D01*
X169899172Y-124020602D01*
X169753501Y-123960264D01*
X169753489Y-123960261D01*
X169598845Y-123929500D01*
X169598842Y-123929500D01*
X169441158Y-123929500D01*
X169441155Y-123929500D01*
X169286510Y-123960261D01*
X169286498Y-123960264D01*
X169140827Y-124020602D01*
X169140814Y-124020609D01*
X169009711Y-124108210D01*
X169009707Y-124108213D01*
X168898213Y-124219707D01*
X168898210Y-124219711D01*
X168810609Y-124350814D01*
X168810602Y-124350827D01*
X168783391Y-124416523D01*
X168739550Y-124470927D01*
X168673256Y-124492992D01*
X168605557Y-124475713D01*
X168557946Y-124424576D01*
X168546357Y-124388469D01*
X168544974Y-124379737D01*
X168541090Y-124355215D01*
X168463241Y-124115621D01*
X168463239Y-124115618D01*
X168463239Y-124115616D01*
X168414826Y-124020602D01*
X168348870Y-123891155D01*
X168329952Y-123865117D01*
X168200798Y-123687350D01*
X168200794Y-123687345D01*
X168022654Y-123509205D01*
X168022649Y-123509201D01*
X167818848Y-123361132D01*
X167818847Y-123361131D01*
X167818845Y-123361130D01*
X167748747Y-123325413D01*
X167594383Y-123246760D01*
X167354785Y-123168910D01*
X167167072Y-123139179D01*
X167105962Y-123129500D01*
X166854038Y-123129500D01*
X166792928Y-123139179D01*
X166605214Y-123168910D01*
X166365616Y-123246760D01*
X166141151Y-123361132D01*
X165937350Y-123509201D01*
X165937345Y-123509205D01*
X165759205Y-123687345D01*
X165759201Y-123687350D01*
X165611132Y-123891151D01*
X165496760Y-124115616D01*
X165418910Y-124355214D01*
X165379500Y-124604038D01*
X165379500Y-124855961D01*
X165418910Y-125104785D01*
X165496760Y-125344383D01*
X165611132Y-125568848D01*
X165678764Y-125661937D01*
X165702244Y-125727743D01*
X165686418Y-125795797D01*
X165666128Y-125822503D01*
X165537287Y-125951345D01*
X165445187Y-126100662D01*
X165445186Y-126100665D01*
X165390001Y-126267202D01*
X165390001Y-126267203D01*
X165390000Y-126267203D01*
X165379500Y-126369982D01*
X165379500Y-128170017D01*
X165390000Y-128272796D01*
X165445185Y-128439332D01*
X165445187Y-128439337D01*
X165480070Y-128495890D01*
X165537288Y-128588656D01*
X165661344Y-128712712D01*
X165810665Y-128804814D01*
X165977202Y-128859999D01*
X166079990Y-128870500D01*
X166079995Y-128870500D01*
X167880005Y-128870500D01*
X167880010Y-128870500D01*
X167982798Y-128859999D01*
X168149335Y-128804814D01*
X168298656Y-128712712D01*
X168422712Y-128588656D01*
X168514814Y-128439335D01*
X168569999Y-128272798D01*
X168580500Y-128170010D01*
X168580500Y-127713575D01*
X168600185Y-127646536D01*
X168652989Y-127600781D01*
X168722147Y-127590837D01*
X168785703Y-127619862D01*
X168807602Y-127644684D01*
X168898210Y-127780288D01*
X168898213Y-127780292D01*
X169009707Y-127891786D01*
X169009715Y-127891792D01*
X169103733Y-127954613D01*
X169148539Y-128008225D01*
X169157246Y-128077550D01*
X169127092Y-128140577D01*
X169122525Y-128145396D01*
X169048210Y-128219711D01*
X168960609Y-128350814D01*
X168960602Y-128350827D01*
X168900264Y-128496498D01*
X168900261Y-128496510D01*
X168869500Y-128651153D01*
X168869500Y-128808846D01*
X168892306Y-128923497D01*
X168900263Y-128963497D01*
X168930546Y-129036608D01*
X168939427Y-129058047D01*
X168946896Y-129127517D01*
X168915621Y-129189996D01*
X168855532Y-129225648D01*
X168824866Y-129229500D01*
X165180850Y-129229500D01*
X165113811Y-129209815D01*
X165068056Y-129157011D01*
X165058112Y-129087853D01*
X165077748Y-129036608D01*
X165089394Y-129019179D01*
X165149737Y-128873497D01*
X165180500Y-128718842D01*
X165180500Y-128561158D01*
X165180500Y-128561155D01*
X165180499Y-128561153D01*
X165176647Y-128541786D01*
X165149737Y-128406503D01*
X165149735Y-128406498D01*
X165089397Y-128260827D01*
X165089390Y-128260814D01*
X165001789Y-128129711D01*
X165001786Y-128129707D01*
X164890292Y-128018213D01*
X164890288Y-128018210D01*
X164759185Y-127930609D01*
X164759172Y-127930602D01*
X164613501Y-127870264D01*
X164613489Y-127870261D01*
X164458845Y-127839500D01*
X164458842Y-127839500D01*
X164301158Y-127839500D01*
X164301155Y-127839500D01*
X164146510Y-127870261D01*
X164146498Y-127870264D01*
X164000827Y-127930602D01*
X164000814Y-127930609D01*
X163869711Y-128018210D01*
X163869707Y-128018213D01*
X163758213Y-128129707D01*
X163758210Y-128129711D01*
X163670609Y-128260814D01*
X163670602Y-128260827D01*
X163610264Y-128406498D01*
X163610261Y-128406510D01*
X163579500Y-128561153D01*
X163579500Y-128718846D01*
X163610261Y-128873489D01*
X163610264Y-128873501D01*
X163670602Y-129019172D01*
X163670606Y-129019179D01*
X163682252Y-129036608D01*
X163703130Y-129103285D01*
X163684646Y-129170666D01*
X163632668Y-129217356D01*
X163579150Y-129229500D01*
X145588566Y-129229500D01*
X145521527Y-129209815D01*
X145475772Y-129157011D01*
X145465828Y-129087853D01*
X145474005Y-129058048D01*
X145504806Y-128983685D01*
X145529737Y-128923497D01*
X145560500Y-128768842D01*
X145560500Y-128611158D01*
X145560500Y-128611155D01*
X145560499Y-128611153D01*
X145550553Y-128561153D01*
X145529737Y-128456503D01*
X145518879Y-128430289D01*
X145469397Y-128310827D01*
X145469395Y-128310823D01*
X145469394Y-128310821D01*
X145461610Y-128299172D01*
X145443803Y-128272521D01*
X145422925Y-128205844D01*
X145441409Y-128138464D01*
X145478011Y-128100530D01*
X145617782Y-128007139D01*
X145757139Y-127867782D01*
X145866632Y-127703914D01*
X145942051Y-127521835D01*
X145976461Y-127348846D01*
X145980500Y-127328543D01*
X147309499Y-127328543D01*
X147347947Y-127521829D01*
X147347950Y-127521839D01*
X147423364Y-127703907D01*
X147423371Y-127703920D01*
X147532860Y-127867781D01*
X147532863Y-127867785D01*
X147672214Y-128007136D01*
X147672218Y-128007139D01*
X147836079Y-128116628D01*
X147836092Y-128116635D01*
X147988373Y-128179711D01*
X148018165Y-128192051D01*
X148018169Y-128192051D01*
X148018170Y-128192052D01*
X148211456Y-128230500D01*
X148211459Y-128230500D01*
X149508543Y-128230500D01*
X149638582Y-128204632D01*
X149701835Y-128192051D01*
X149883914Y-128116632D01*
X150047782Y-128007139D01*
X150111756Y-127943164D01*
X150173077Y-127909681D01*
X150242769Y-127914665D01*
X150298703Y-127956536D01*
X150321053Y-128006655D01*
X150350261Y-128153491D01*
X150350264Y-128153501D01*
X150410602Y-128299172D01*
X150410609Y-128299185D01*
X150498210Y-128430288D01*
X150498213Y-128430292D01*
X150609707Y-128541786D01*
X150609711Y-128541789D01*
X150740814Y-128629390D01*
X150740827Y-128629397D01*
X150886498Y-128689735D01*
X150886503Y-128689737D01*
X151032823Y-128718842D01*
X151041153Y-128720499D01*
X151041156Y-128720500D01*
X151041158Y-128720500D01*
X151198844Y-128720500D01*
X151198845Y-128720499D01*
X151353497Y-128689737D01*
X151499179Y-128629394D01*
X151630289Y-128541789D01*
X151741789Y-128430289D01*
X151829394Y-128299179D01*
X151889737Y-128153497D01*
X151920500Y-127998842D01*
X151920500Y-127841158D01*
X151920500Y-127841155D01*
X151920499Y-127841153D01*
X151889738Y-127686510D01*
X151889737Y-127686503D01*
X151889735Y-127686498D01*
X151829397Y-127540827D01*
X151829390Y-127540814D01*
X151741789Y-127409711D01*
X151741786Y-127409707D01*
X151630292Y-127298213D01*
X151630288Y-127298210D01*
X151535262Y-127234715D01*
X151490457Y-127181102D01*
X151481750Y-127111777D01*
X151511905Y-127048750D01*
X151535258Y-127028514D01*
X151560289Y-127011789D01*
X151671789Y-126900289D01*
X151759394Y-126769179D01*
X151819737Y-126623497D01*
X151850500Y-126468842D01*
X151850500Y-126311158D01*
X151850500Y-126311155D01*
X151850499Y-126311153D01*
X151841757Y-126267203D01*
X151819737Y-126156503D01*
X151796609Y-126100667D01*
X151759397Y-126010827D01*
X151759390Y-126010814D01*
X151671789Y-125879711D01*
X151671786Y-125879707D01*
X151560292Y-125768213D01*
X151560288Y-125768210D01*
X151429185Y-125680609D01*
X151429172Y-125680602D01*
X151283501Y-125620264D01*
X151283489Y-125620261D01*
X151128845Y-125589500D01*
X151128842Y-125589500D01*
X150971158Y-125589500D01*
X150971155Y-125589500D01*
X150816510Y-125620261D01*
X150816498Y-125620264D01*
X150670827Y-125680602D01*
X150670814Y-125680609D01*
X150539711Y-125768210D01*
X150539707Y-125768213D01*
X150428213Y-125879707D01*
X150428210Y-125879711D01*
X150340609Y-126010814D01*
X150340602Y-126010827D01*
X150280264Y-126156498D01*
X150280261Y-126156510D01*
X150249500Y-126311153D01*
X150249500Y-126356230D01*
X150229815Y-126423269D01*
X150177011Y-126469024D01*
X150107853Y-126478968D01*
X150053626Y-126455077D01*
X150052847Y-126456245D01*
X149883920Y-126343371D01*
X149883907Y-126343364D01*
X149701839Y-126267950D01*
X149701829Y-126267947D01*
X149508543Y-126229500D01*
X149508541Y-126229500D01*
X148991333Y-126229500D01*
X148924294Y-126209815D01*
X148878539Y-126157011D01*
X148868595Y-126087853D01*
X148883947Y-126043499D01*
X148896278Y-126022140D01*
X148896277Y-126022140D01*
X148896281Y-126022135D01*
X148935500Y-125875766D01*
X148935500Y-125724234D01*
X148896281Y-125577865D01*
X148820515Y-125446635D01*
X148713365Y-125339485D01*
X148647750Y-125301602D01*
X148582136Y-125263719D01*
X148494688Y-125240288D01*
X148435766Y-125224500D01*
X148284234Y-125224500D01*
X148137863Y-125263719D01*
X148006635Y-125339485D01*
X148006632Y-125339487D01*
X147899487Y-125446632D01*
X147899485Y-125446635D01*
X147823719Y-125577863D01*
X147784500Y-125724234D01*
X147784500Y-125875765D01*
X147823719Y-126022136D01*
X147861661Y-126087853D01*
X147899485Y-126153365D01*
X147899486Y-126153366D01*
X147903549Y-126160403D01*
X147901220Y-126161747D01*
X147921645Y-126214584D01*
X147907603Y-126283029D01*
X147858787Y-126333016D01*
X147845528Y-126339456D01*
X147836094Y-126343363D01*
X147836079Y-126343371D01*
X147672218Y-126452860D01*
X147672214Y-126452863D01*
X147532863Y-126592214D01*
X147532860Y-126592218D01*
X147423371Y-126756079D01*
X147423364Y-126756092D01*
X147347950Y-126938160D01*
X147347947Y-126938170D01*
X147309500Y-127131456D01*
X147309500Y-127131459D01*
X147309500Y-127328541D01*
X147309500Y-127328543D01*
X147309499Y-127328543D01*
X145980500Y-127328543D01*
X145980500Y-127131456D01*
X145942052Y-126938170D01*
X145942051Y-126938169D01*
X145942051Y-126938165D01*
X145926364Y-126900292D01*
X145866635Y-126756092D01*
X145866628Y-126756079D01*
X145757139Y-126592218D01*
X145757136Y-126592214D01*
X145617785Y-126452863D01*
X145617781Y-126452860D01*
X145453920Y-126343371D01*
X145453907Y-126343364D01*
X145271839Y-126267950D01*
X145271829Y-126267947D01*
X145078543Y-126229500D01*
X145078541Y-126229500D01*
X144281459Y-126229500D01*
X144281457Y-126229500D01*
X144088170Y-126267947D01*
X144088160Y-126267950D01*
X143906092Y-126343364D01*
X143906079Y-126343371D01*
X143742218Y-126452860D01*
X143742214Y-126452863D01*
X143602863Y-126592214D01*
X143602860Y-126592218D01*
X143493371Y-126756079D01*
X143493364Y-126756092D01*
X143417950Y-126938160D01*
X143417947Y-126938170D01*
X143379500Y-127131456D01*
X143379500Y-127131459D01*
X143379500Y-127328541D01*
X143379500Y-127328543D01*
X143379499Y-127328543D01*
X143417947Y-127521829D01*
X143417950Y-127521839D01*
X143493364Y-127703907D01*
X143493371Y-127703920D01*
X143602860Y-127867781D01*
X143602863Y-127867785D01*
X143742214Y-128007136D01*
X143742218Y-128007139D01*
X143906079Y-128116628D01*
X143906086Y-128116632D01*
X143983537Y-128148713D01*
X144037939Y-128192551D01*
X144060005Y-128258845D01*
X144050645Y-128310725D01*
X143990264Y-128456498D01*
X143990261Y-128456510D01*
X143959500Y-128611153D01*
X143959500Y-128768846D01*
X143990261Y-128923489D01*
X143990264Y-128923501D01*
X144045995Y-129058048D01*
X144053464Y-129127517D01*
X144022189Y-129189996D01*
X143962100Y-129225648D01*
X143931434Y-129229500D01*
X142134500Y-129229500D01*
X142067461Y-129209815D01*
X142021706Y-129157011D01*
X142010500Y-129105500D01*
X142010500Y-124351153D01*
X152299500Y-124351153D01*
X152299500Y-124508846D01*
X152330261Y-124663489D01*
X152330264Y-124663501D01*
X152390602Y-124809172D01*
X152390609Y-124809185D01*
X152478210Y-124940288D01*
X152478213Y-124940292D01*
X152589707Y-125051786D01*
X152589711Y-125051789D01*
X152720814Y-125139390D01*
X152720827Y-125139397D01*
X152866498Y-125199735D01*
X152866503Y-125199737D01*
X153021153Y-125230499D01*
X153021156Y-125230500D01*
X153021158Y-125230500D01*
X153178844Y-125230500D01*
X153178845Y-125230499D01*
X153333497Y-125199737D01*
X153479179Y-125139394D01*
X153610289Y-125051789D01*
X153721789Y-124940289D01*
X153809394Y-124809179D01*
X153869737Y-124663497D01*
X153900500Y-124508842D01*
X153900500Y-124351158D01*
X153900500Y-124351155D01*
X153900499Y-124351153D01*
X153874353Y-124219711D01*
X153869737Y-124196503D01*
X153838170Y-124120292D01*
X153809397Y-124050827D01*
X153809390Y-124050814D01*
X153721789Y-123919711D01*
X153721786Y-123919707D01*
X153610292Y-123808213D01*
X153610288Y-123808210D01*
X153479185Y-123720609D01*
X153479172Y-123720602D01*
X153333501Y-123660264D01*
X153333489Y-123660261D01*
X153178845Y-123629500D01*
X153178842Y-123629500D01*
X153021158Y-123629500D01*
X153021155Y-123629500D01*
X152866510Y-123660261D01*
X152866498Y-123660264D01*
X152720827Y-123720602D01*
X152720814Y-123720609D01*
X152589711Y-123808210D01*
X152589707Y-123808213D01*
X152478213Y-123919707D01*
X152478210Y-123919711D01*
X152390609Y-124050814D01*
X152390602Y-124050827D01*
X152330264Y-124196498D01*
X152330261Y-124196510D01*
X152299500Y-124351153D01*
X142010500Y-124351153D01*
X142010500Y-121971153D01*
X147529500Y-121971153D01*
X147529500Y-122128846D01*
X147560261Y-122283489D01*
X147560264Y-122283501D01*
X147620602Y-122429172D01*
X147620609Y-122429185D01*
X147708210Y-122560288D01*
X147708213Y-122560292D01*
X147819707Y-122671786D01*
X147819711Y-122671789D01*
X147950814Y-122759390D01*
X147950827Y-122759397D01*
X148096498Y-122819735D01*
X148096503Y-122819737D01*
X148251153Y-122850499D01*
X148251156Y-122850500D01*
X148251158Y-122850500D01*
X148408844Y-122850500D01*
X148408845Y-122850499D01*
X148563497Y-122819737D01*
X148709179Y-122759394D01*
X148840289Y-122671789D01*
X148951789Y-122560289D01*
X149039394Y-122429179D01*
X149099737Y-122283497D01*
X149100203Y-122281153D01*
X156949500Y-122281153D01*
X156949500Y-122438846D01*
X156980261Y-122593489D01*
X156980264Y-122593501D01*
X157040602Y-122739172D01*
X157040609Y-122739185D01*
X157128210Y-122870288D01*
X157128213Y-122870292D01*
X157239707Y-122981786D01*
X157239711Y-122981789D01*
X157370814Y-123069390D01*
X157370827Y-123069397D01*
X157515931Y-123129500D01*
X157516503Y-123129737D01*
X157604436Y-123147228D01*
X157671153Y-123160499D01*
X157671156Y-123160500D01*
X157671158Y-123160500D01*
X157828844Y-123160500D01*
X157828845Y-123160499D01*
X157983497Y-123129737D01*
X158129179Y-123069394D01*
X158260289Y-122981789D01*
X158371789Y-122870289D01*
X158459394Y-122739179D01*
X158519737Y-122593497D01*
X158550500Y-122438842D01*
X158550500Y-122281158D01*
X158550500Y-122281155D01*
X158550499Y-122281153D01*
X158541992Y-122238385D01*
X158519737Y-122126503D01*
X158519735Y-122126498D01*
X158459397Y-121980827D01*
X158459390Y-121980814D01*
X158371789Y-121849711D01*
X158371786Y-121849707D01*
X158260292Y-121738213D01*
X158260288Y-121738210D01*
X158129185Y-121650609D01*
X158129172Y-121650602D01*
X157983501Y-121590264D01*
X157983489Y-121590261D01*
X157828845Y-121559500D01*
X157828842Y-121559500D01*
X157671158Y-121559500D01*
X157671155Y-121559500D01*
X157516510Y-121590261D01*
X157516498Y-121590264D01*
X157370827Y-121650602D01*
X157370814Y-121650609D01*
X157239711Y-121738210D01*
X157239707Y-121738213D01*
X157128213Y-121849707D01*
X157128210Y-121849711D01*
X157040609Y-121980814D01*
X157040602Y-121980827D01*
X156980264Y-122126498D01*
X156980261Y-122126510D01*
X156949500Y-122281153D01*
X149100203Y-122281153D01*
X149130500Y-122128842D01*
X149130500Y-121971158D01*
X149130500Y-121971155D01*
X149130499Y-121971153D01*
X149120271Y-121919735D01*
X149099737Y-121816503D01*
X149081215Y-121771786D01*
X149039397Y-121670827D01*
X149039390Y-121670814D01*
X148951789Y-121539711D01*
X148951786Y-121539707D01*
X148840292Y-121428213D01*
X148840288Y-121428210D01*
X148769137Y-121380668D01*
X148709185Y-121340609D01*
X148709172Y-121340602D01*
X148571683Y-121283653D01*
X154237000Y-121283653D01*
X154237000Y-121441346D01*
X154267761Y-121595989D01*
X154267764Y-121596001D01*
X154328102Y-121741672D01*
X154328109Y-121741685D01*
X154415710Y-121872788D01*
X154415713Y-121872792D01*
X154527207Y-121984286D01*
X154527211Y-121984289D01*
X154658314Y-122071890D01*
X154658327Y-122071897D01*
X154795816Y-122128846D01*
X154804003Y-122132237D01*
X154928776Y-122157056D01*
X154958653Y-122162999D01*
X154958656Y-122163000D01*
X154958658Y-122163000D01*
X155116344Y-122163000D01*
X155116345Y-122162999D01*
X155128000Y-122160680D01*
X155164361Y-122153449D01*
X155219678Y-122142444D01*
X155270997Y-122132237D01*
X155416679Y-122071894D01*
X155547789Y-121984289D01*
X155659289Y-121872789D01*
X155746894Y-121741679D01*
X155748331Y-121738211D01*
X155780605Y-121660292D01*
X155807237Y-121595997D01*
X155838000Y-121441342D01*
X155838000Y-121283658D01*
X155838000Y-121283655D01*
X155837999Y-121283653D01*
X155837324Y-121280261D01*
X155807237Y-121129003D01*
X155783275Y-121071153D01*
X162119500Y-121071153D01*
X162119500Y-121228846D01*
X162150261Y-121383489D01*
X162150264Y-121383501D01*
X162210602Y-121529172D01*
X162210609Y-121529185D01*
X162298210Y-121660288D01*
X162298213Y-121660292D01*
X162409707Y-121771786D01*
X162409711Y-121771789D01*
X162540814Y-121859390D01*
X162540827Y-121859397D01*
X162686498Y-121919735D01*
X162686503Y-121919737D01*
X162827374Y-121947758D01*
X162889285Y-121980142D01*
X162923859Y-122040858D01*
X162920120Y-122110628D01*
X162890865Y-122157056D01*
X162798210Y-122249711D01*
X162710609Y-122380814D01*
X162710602Y-122380827D01*
X162650264Y-122526498D01*
X162650261Y-122526510D01*
X162619500Y-122681153D01*
X162619500Y-122838846D01*
X162650261Y-122993489D01*
X162650264Y-122993501D01*
X162710602Y-123139171D01*
X162710608Y-123139182D01*
X162721909Y-123156095D01*
X162742786Y-123222773D01*
X162733367Y-123272437D01*
X162690263Y-123376503D01*
X162690262Y-123376506D01*
X162690262Y-123376507D01*
X162690261Y-123376510D01*
X162659500Y-123531153D01*
X162659500Y-123688846D01*
X162690261Y-123843489D01*
X162690264Y-123843501D01*
X162750602Y-123989172D01*
X162750609Y-123989185D01*
X162838210Y-124120288D01*
X162838213Y-124120292D01*
X162949707Y-124231786D01*
X162949711Y-124231789D01*
X163080814Y-124319390D01*
X163080827Y-124319397D01*
X163167301Y-124355215D01*
X163226503Y-124379737D01*
X163381153Y-124410499D01*
X163381156Y-124410500D01*
X163381158Y-124410500D01*
X163538844Y-124410500D01*
X163538845Y-124410499D01*
X163693497Y-124379737D01*
X163839179Y-124319394D01*
X163970289Y-124231789D01*
X164081789Y-124120289D01*
X164169394Y-123989179D01*
X164229737Y-123843497D01*
X164260500Y-123688842D01*
X164260500Y-123531158D01*
X164260500Y-123531155D01*
X164260499Y-123531153D01*
X164229738Y-123376510D01*
X164229737Y-123376503D01*
X164169394Y-123230821D01*
X164158090Y-123213904D01*
X164137213Y-123147228D01*
X164146631Y-123097563D01*
X164189737Y-122993497D01*
X164220500Y-122838842D01*
X164220500Y-122681158D01*
X164220500Y-122681155D01*
X164220499Y-122681153D01*
X164189738Y-122526510D01*
X164189737Y-122526503D01*
X164149427Y-122429185D01*
X164129397Y-122380827D01*
X164129390Y-122380814D01*
X164041789Y-122249711D01*
X164041786Y-122249707D01*
X163930292Y-122138213D01*
X163930288Y-122138210D01*
X163799185Y-122050609D01*
X163799172Y-122050602D01*
X163653501Y-121990264D01*
X163653489Y-121990261D01*
X163512625Y-121962241D01*
X163450714Y-121929856D01*
X163416139Y-121869140D01*
X163419879Y-121799371D01*
X163449133Y-121752944D01*
X163541789Y-121660289D01*
X163629394Y-121529179D01*
X163689737Y-121383497D01*
X163720500Y-121228842D01*
X163720500Y-121071158D01*
X163720500Y-121071155D01*
X163720499Y-121071153D01*
X163703028Y-120983321D01*
X163689737Y-120916503D01*
X163663105Y-120852207D01*
X163629397Y-120770827D01*
X163629390Y-120770814D01*
X163541789Y-120639711D01*
X163541786Y-120639707D01*
X163430292Y-120528213D01*
X163430288Y-120528210D01*
X163299185Y-120440609D01*
X163299172Y-120440602D01*
X163153501Y-120380264D01*
X163153489Y-120380261D01*
X162998845Y-120349500D01*
X162998842Y-120349500D01*
X162841158Y-120349500D01*
X162841155Y-120349500D01*
X162686510Y-120380261D01*
X162686498Y-120380264D01*
X162540827Y-120440602D01*
X162540814Y-120440609D01*
X162409711Y-120528210D01*
X162409707Y-120528213D01*
X162298213Y-120639707D01*
X162298210Y-120639711D01*
X162210609Y-120770814D01*
X162210602Y-120770827D01*
X162150264Y-120916498D01*
X162150261Y-120916510D01*
X162119500Y-121071153D01*
X155783275Y-121071153D01*
X155746897Y-120983327D01*
X155746890Y-120983314D01*
X155659289Y-120852211D01*
X155659286Y-120852207D01*
X155547792Y-120740713D01*
X155547788Y-120740710D01*
X155416685Y-120653109D01*
X155416672Y-120653102D01*
X155271001Y-120592764D01*
X155270989Y-120592761D01*
X155116345Y-120562000D01*
X155116342Y-120562000D01*
X154958658Y-120562000D01*
X154958655Y-120562000D01*
X154804010Y-120592761D01*
X154803998Y-120592764D01*
X154658327Y-120653102D01*
X154658314Y-120653109D01*
X154527211Y-120740710D01*
X154527207Y-120740713D01*
X154415713Y-120852207D01*
X154415710Y-120852211D01*
X154328109Y-120983314D01*
X154328102Y-120983327D01*
X154267764Y-121128998D01*
X154267761Y-121129010D01*
X154237000Y-121283653D01*
X148571683Y-121283653D01*
X148563501Y-121280264D01*
X148563489Y-121280261D01*
X148408845Y-121249500D01*
X148408842Y-121249500D01*
X148251158Y-121249500D01*
X148251155Y-121249500D01*
X148096510Y-121280261D01*
X148096498Y-121280264D01*
X147950827Y-121340602D01*
X147950814Y-121340609D01*
X147819711Y-121428210D01*
X147819707Y-121428213D01*
X147708213Y-121539707D01*
X147708210Y-121539711D01*
X147620609Y-121670814D01*
X147620602Y-121670827D01*
X147560264Y-121816498D01*
X147560261Y-121816510D01*
X147529500Y-121971153D01*
X142010500Y-121971153D01*
X142010500Y-118688543D01*
X143379499Y-118688543D01*
X143417947Y-118881829D01*
X143417950Y-118881839D01*
X143493364Y-119063907D01*
X143493371Y-119063920D01*
X143602860Y-119227781D01*
X143602863Y-119227785D01*
X143742214Y-119367136D01*
X143742218Y-119367139D01*
X143906079Y-119476628D01*
X143906092Y-119476635D01*
X144088160Y-119552049D01*
X144088165Y-119552051D01*
X144088169Y-119552051D01*
X144088170Y-119552052D01*
X144281456Y-119590500D01*
X144281459Y-119590500D01*
X145078543Y-119590500D01*
X145234462Y-119559485D01*
X145271835Y-119552051D01*
X145453914Y-119476632D01*
X145617782Y-119367139D01*
X145757139Y-119227782D01*
X145866632Y-119063914D01*
X145942051Y-118881835D01*
X145980500Y-118688543D01*
X147309499Y-118688543D01*
X147347947Y-118881829D01*
X147347950Y-118881839D01*
X147423364Y-119063907D01*
X147423371Y-119063920D01*
X147532860Y-119227781D01*
X147532863Y-119227785D01*
X147672214Y-119367136D01*
X147672218Y-119367139D01*
X147836079Y-119476628D01*
X147836083Y-119476630D01*
X147836086Y-119476632D01*
X147845523Y-119480541D01*
X147899927Y-119524378D01*
X147921995Y-119590672D01*
X147904719Y-119658372D01*
X147901565Y-119663032D01*
X147823719Y-119797863D01*
X147804313Y-119870289D01*
X147784500Y-119944234D01*
X147784500Y-120095766D01*
X147793603Y-120129738D01*
X147823719Y-120242136D01*
X147861602Y-120307750D01*
X147899485Y-120373365D01*
X148006635Y-120480515D01*
X148137865Y-120556281D01*
X148284234Y-120595500D01*
X148284236Y-120595500D01*
X148435764Y-120595500D01*
X148435766Y-120595500D01*
X148582135Y-120556281D01*
X148713365Y-120480515D01*
X148820515Y-120373365D01*
X148896281Y-120242135D01*
X148935500Y-120095766D01*
X148935500Y-119944234D01*
X148896281Y-119797865D01*
X148896278Y-119797859D01*
X148883947Y-119776501D01*
X148867473Y-119708602D01*
X148890325Y-119642574D01*
X148945245Y-119599383D01*
X148991333Y-119590500D01*
X149508543Y-119590500D01*
X149664462Y-119559485D01*
X149701835Y-119552051D01*
X149883914Y-119476632D01*
X150047782Y-119367139D01*
X150187139Y-119227782D01*
X150296632Y-119063914D01*
X150372051Y-118881835D01*
X150410500Y-118688541D01*
X150410500Y-118613724D01*
X150430185Y-118546685D01*
X150482989Y-118500930D01*
X150552147Y-118490986D01*
X150558683Y-118492105D01*
X150593913Y-118499113D01*
X150651156Y-118510500D01*
X150651158Y-118510500D01*
X150808844Y-118510500D01*
X150808845Y-118510499D01*
X150963497Y-118479737D01*
X151109179Y-118419394D01*
X151240289Y-118331789D01*
X151351789Y-118220289D01*
X151439394Y-118089179D01*
X151499737Y-117943497D01*
X151530500Y-117788842D01*
X151530500Y-117631158D01*
X151530500Y-117631155D01*
X151530499Y-117631153D01*
X151510436Y-117530289D01*
X151499737Y-117476503D01*
X151499735Y-117476498D01*
X151439397Y-117330827D01*
X151439390Y-117330814D01*
X151351789Y-117199711D01*
X151351786Y-117199707D01*
X151240292Y-117088213D01*
X151240288Y-117088210D01*
X151109185Y-117000609D01*
X151109172Y-117000602D01*
X150963501Y-116940264D01*
X150963489Y-116940261D01*
X150808845Y-116909500D01*
X150808842Y-116909500D01*
X150651158Y-116909500D01*
X150651155Y-116909500D01*
X150496510Y-116940261D01*
X150496498Y-116940264D01*
X150350827Y-117000602D01*
X150350814Y-117000609D01*
X150219711Y-117088210D01*
X150219707Y-117088213D01*
X150108213Y-117199707D01*
X150108210Y-117199711D01*
X150020609Y-117330814D01*
X150020602Y-117330827D01*
X149960264Y-117476498D01*
X149960261Y-117476508D01*
X149942236Y-117567126D01*
X149909851Y-117629037D01*
X149849135Y-117663611D01*
X149779365Y-117659870D01*
X149773167Y-117657495D01*
X149701839Y-117627950D01*
X149701829Y-117627947D01*
X149508543Y-117589500D01*
X149508541Y-117589500D01*
X148211459Y-117589500D01*
X148211457Y-117589500D01*
X148018170Y-117627947D01*
X148018160Y-117627950D01*
X147836092Y-117703364D01*
X147836079Y-117703371D01*
X147672218Y-117812860D01*
X147672214Y-117812863D01*
X147532863Y-117952214D01*
X147532860Y-117952218D01*
X147423371Y-118116079D01*
X147423364Y-118116092D01*
X147347950Y-118298160D01*
X147347947Y-118298170D01*
X147309500Y-118491456D01*
X147309500Y-118491459D01*
X147309500Y-118688541D01*
X147309500Y-118688543D01*
X147309499Y-118688543D01*
X145980500Y-118688543D01*
X145980500Y-118688541D01*
X145980500Y-118491459D01*
X145980500Y-118491456D01*
X145942052Y-118298170D01*
X145942051Y-118298169D01*
X145942051Y-118298165D01*
X145904028Y-118206369D01*
X145866635Y-118116092D01*
X145866628Y-118116079D01*
X145792215Y-118004713D01*
X145771337Y-117938036D01*
X145789821Y-117870656D01*
X145841800Y-117823965D01*
X145910770Y-117812789D01*
X145919509Y-117814205D01*
X145951155Y-117820500D01*
X145951158Y-117820500D01*
X146108844Y-117820500D01*
X146108845Y-117820499D01*
X146263497Y-117789737D01*
X146409179Y-117729394D01*
X146540289Y-117641789D01*
X146651789Y-117530289D01*
X146739394Y-117399179D01*
X146799737Y-117253497D01*
X146830500Y-117098842D01*
X146830500Y-116941158D01*
X146830500Y-116941155D01*
X146830499Y-116941153D01*
X146818535Y-116881007D01*
X146799737Y-116786503D01*
X146768256Y-116710500D01*
X146739397Y-116640827D01*
X146739390Y-116640814D01*
X146651789Y-116509711D01*
X146651786Y-116509707D01*
X146540292Y-116398213D01*
X146540288Y-116398210D01*
X146409185Y-116310609D01*
X146409172Y-116310602D01*
X146263501Y-116250264D01*
X146263489Y-116250261D01*
X146108845Y-116219500D01*
X146108842Y-116219500D01*
X145951158Y-116219500D01*
X145951155Y-116219500D01*
X145796510Y-116250261D01*
X145796498Y-116250264D01*
X145650827Y-116310602D01*
X145650814Y-116310609D01*
X145519711Y-116398210D01*
X145519707Y-116398213D01*
X145408213Y-116509707D01*
X145408210Y-116509711D01*
X145320609Y-116640814D01*
X145320602Y-116640827D01*
X145260264Y-116786498D01*
X145260261Y-116786510D01*
X145229500Y-116941153D01*
X145229500Y-117098846D01*
X145260261Y-117253489D01*
X145260264Y-117253501D01*
X145320602Y-117399172D01*
X145320609Y-117399185D01*
X145338053Y-117425291D01*
X145358931Y-117491968D01*
X145340447Y-117559348D01*
X145288468Y-117606039D01*
X145219498Y-117617215D01*
X145210760Y-117615799D01*
X145078545Y-117589500D01*
X145078541Y-117589500D01*
X144281459Y-117589500D01*
X144281457Y-117589500D01*
X144088170Y-117627947D01*
X144088160Y-117627950D01*
X143906092Y-117703364D01*
X143906079Y-117703371D01*
X143742218Y-117812860D01*
X143742214Y-117812863D01*
X143602863Y-117952214D01*
X143602860Y-117952218D01*
X143493371Y-118116079D01*
X143493364Y-118116092D01*
X143417950Y-118298160D01*
X143417947Y-118298170D01*
X143379500Y-118491456D01*
X143379500Y-118491459D01*
X143379500Y-118688541D01*
X143379500Y-118688543D01*
X143379499Y-118688543D01*
X142010500Y-118688543D01*
X142010500Y-115851153D01*
X146969500Y-115851153D01*
X146969500Y-116008846D01*
X147000261Y-116163489D01*
X147000264Y-116163501D01*
X147060602Y-116309172D01*
X147060609Y-116309185D01*
X147148210Y-116440288D01*
X147148213Y-116440292D01*
X147259707Y-116551786D01*
X147259711Y-116551789D01*
X147390814Y-116639390D01*
X147390827Y-116639397D01*
X147536498Y-116699735D01*
X147536503Y-116699737D01*
X147691153Y-116730499D01*
X147691156Y-116730500D01*
X147691158Y-116730500D01*
X147848844Y-116730500D01*
X147848845Y-116730499D01*
X148003497Y-116699737D01*
X148116166Y-116653067D01*
X148149172Y-116639397D01*
X148149172Y-116639396D01*
X148149179Y-116639394D01*
X148246077Y-116574648D01*
X148312750Y-116553772D01*
X148380131Y-116572256D01*
X148383856Y-116574650D01*
X148450814Y-116619390D01*
X148450827Y-116619397D01*
X148596498Y-116679735D01*
X148596503Y-116679737D01*
X148751153Y-116710499D01*
X148751156Y-116710500D01*
X148751158Y-116710500D01*
X148908844Y-116710500D01*
X148908845Y-116710499D01*
X149063497Y-116679737D01*
X149209179Y-116619394D01*
X149340289Y-116531789D01*
X149451789Y-116420289D01*
X149539394Y-116289179D01*
X149599737Y-116143497D01*
X149630500Y-115988842D01*
X149630500Y-115831158D01*
X149630500Y-115831155D01*
X149630499Y-115831153D01*
X149619160Y-115774150D01*
X149599737Y-115676503D01*
X149599735Y-115676498D01*
X149539397Y-115530827D01*
X149539390Y-115530814D01*
X149451789Y-115399711D01*
X149451786Y-115399707D01*
X149340292Y-115288213D01*
X149340288Y-115288210D01*
X149209185Y-115200609D01*
X149209172Y-115200602D01*
X149063501Y-115140264D01*
X149063489Y-115140261D01*
X148908845Y-115109500D01*
X148908842Y-115109500D01*
X148751158Y-115109500D01*
X148751155Y-115109500D01*
X148596510Y-115140261D01*
X148596498Y-115140264D01*
X148450827Y-115200602D01*
X148450814Y-115200609D01*
X148353925Y-115265349D01*
X148287247Y-115286227D01*
X148219867Y-115267742D01*
X148216144Y-115265349D01*
X148149190Y-115220612D01*
X148149172Y-115220602D01*
X148003501Y-115160264D01*
X148003489Y-115160261D01*
X147848845Y-115129500D01*
X147848842Y-115129500D01*
X147691158Y-115129500D01*
X147691155Y-115129500D01*
X147536510Y-115160261D01*
X147536498Y-115160264D01*
X147390827Y-115220602D01*
X147390814Y-115220609D01*
X147259711Y-115308210D01*
X147259707Y-115308213D01*
X147148213Y-115419707D01*
X147148210Y-115419711D01*
X147060609Y-115550814D01*
X147060602Y-115550827D01*
X147000264Y-115696498D01*
X147000261Y-115696510D01*
X146969500Y-115851153D01*
X142010500Y-115851153D01*
X142010500Y-109681153D01*
X144979500Y-109681153D01*
X144979500Y-109838846D01*
X145010261Y-109993489D01*
X145010264Y-109993501D01*
X145070602Y-110139172D01*
X145070609Y-110139185D01*
X145158210Y-110270288D01*
X145158213Y-110270292D01*
X145269710Y-110381789D01*
X145400815Y-110469390D01*
X145400821Y-110469394D01*
X145424475Y-110479191D01*
X145464703Y-110506071D01*
X154797049Y-119838416D01*
X154901584Y-119942951D01*
X154901585Y-119942952D01*
X155024498Y-120025080D01*
X155024511Y-120025087D01*
X155131469Y-120069390D01*
X155161087Y-120081658D01*
X155161091Y-120081658D01*
X155161092Y-120081659D01*
X155306079Y-120110500D01*
X155306082Y-120110500D01*
X157655396Y-120110500D01*
X157702844Y-120119937D01*
X157726503Y-120129737D01*
X157726508Y-120129738D01*
X157726511Y-120129739D01*
X157881153Y-120160499D01*
X157881156Y-120160500D01*
X157881158Y-120160500D01*
X158038844Y-120160500D01*
X158038845Y-120160499D01*
X158193497Y-120129737D01*
X158339179Y-120069394D01*
X158470289Y-119981789D01*
X158581789Y-119870289D01*
X158669394Y-119739179D01*
X158729737Y-119593497D01*
X158760500Y-119438842D01*
X158760500Y-119281158D01*
X158760500Y-119281155D01*
X158760499Y-119281153D01*
X158749883Y-119227782D01*
X158729737Y-119126503D01*
X158729735Y-119126498D01*
X158669397Y-118980827D01*
X158669390Y-118980814D01*
X158581789Y-118849711D01*
X158581786Y-118849707D01*
X158509226Y-118777147D01*
X158475741Y-118715824D01*
X158480725Y-118646132D01*
X158522597Y-118590199D01*
X158572714Y-118567849D01*
X158613497Y-118559737D01*
X158759179Y-118499394D01*
X158890289Y-118411789D01*
X159001789Y-118300289D01*
X159089394Y-118169179D01*
X159149737Y-118023497D01*
X159168127Y-117931041D01*
X159180500Y-117868844D01*
X159180500Y-117711155D01*
X159180499Y-117711153D01*
X159169826Y-117657495D01*
X159149737Y-117556503D01*
X159138879Y-117530289D01*
X159089397Y-117410827D01*
X159089390Y-117410814D01*
X159001789Y-117279711D01*
X159001786Y-117279707D01*
X158890292Y-117168213D01*
X158890288Y-117168210D01*
X158759185Y-117080609D01*
X158759172Y-117080602D01*
X158613501Y-117020264D01*
X158613489Y-117020261D01*
X158458845Y-116989500D01*
X158458842Y-116989500D01*
X158301158Y-116989500D01*
X158301155Y-116989500D01*
X158146510Y-117020261D01*
X158146507Y-117020262D01*
X158146506Y-117020262D01*
X158146503Y-117020263D01*
X158066166Y-117053539D01*
X158044523Y-117062504D01*
X157975053Y-117069972D01*
X157949619Y-117062503D01*
X157823501Y-117010264D01*
X157823489Y-117010261D01*
X157668845Y-116979500D01*
X157668842Y-116979500D01*
X157511158Y-116979500D01*
X157511155Y-116979500D01*
X157356510Y-117010261D01*
X157356498Y-117010264D01*
X157210827Y-117070602D01*
X157210814Y-117070609D01*
X157079711Y-117158210D01*
X157079707Y-117158213D01*
X156968213Y-117269707D01*
X156968210Y-117269711D01*
X156880609Y-117400814D01*
X156880602Y-117400827D01*
X156820264Y-117546498D01*
X156820261Y-117546510D01*
X156789500Y-117701153D01*
X156789500Y-117858846D01*
X156820261Y-118013489D01*
X156820264Y-118013501D01*
X156880602Y-118159172D01*
X156880609Y-118159185D01*
X156968210Y-118290288D01*
X156968213Y-118290292D01*
X157075740Y-118397819D01*
X157109225Y-118459142D01*
X157104241Y-118528834D01*
X157062369Y-118584767D01*
X156996905Y-118609184D01*
X156988059Y-118609500D01*
X155742229Y-118609500D01*
X155675190Y-118589815D01*
X155654548Y-118573181D01*
X152574114Y-115492747D01*
X152492520Y-115411153D01*
X162689500Y-115411153D01*
X162689500Y-115568846D01*
X162720261Y-115723489D01*
X162720264Y-115723501D01*
X162780602Y-115869172D01*
X162780609Y-115869185D01*
X162868210Y-116000288D01*
X162868213Y-116000292D01*
X162979707Y-116111786D01*
X162979711Y-116111789D01*
X163110814Y-116199390D01*
X163110827Y-116199397D01*
X163233633Y-116250264D01*
X163256503Y-116259737D01*
X163404482Y-116289172D01*
X163411153Y-116290499D01*
X163411156Y-116290500D01*
X163411158Y-116290500D01*
X163568844Y-116290500D01*
X163568845Y-116290499D01*
X163723497Y-116259737D01*
X163869179Y-116199394D01*
X164000289Y-116111789D01*
X164111789Y-116000289D01*
X164199394Y-115869179D01*
X164206859Y-115851158D01*
X164238756Y-115774150D01*
X164259737Y-115723497D01*
X164290500Y-115568842D01*
X164290500Y-115411158D01*
X164290500Y-115411155D01*
X164290499Y-115411153D01*
X164288431Y-115400756D01*
X164259737Y-115256503D01*
X164244871Y-115220612D01*
X164199397Y-115110827D01*
X164199390Y-115110814D01*
X164111789Y-114979711D01*
X164111786Y-114979707D01*
X164000292Y-114868213D01*
X164000288Y-114868210D01*
X163869185Y-114780609D01*
X163869172Y-114780602D01*
X163723501Y-114720264D01*
X163723489Y-114720261D01*
X163568845Y-114689500D01*
X163568842Y-114689500D01*
X163411158Y-114689500D01*
X163411155Y-114689500D01*
X163256510Y-114720261D01*
X163256498Y-114720264D01*
X163110827Y-114780602D01*
X163110814Y-114780609D01*
X162979711Y-114868210D01*
X162979707Y-114868213D01*
X162868213Y-114979707D01*
X162868210Y-114979711D01*
X162780609Y-115110814D01*
X162780602Y-115110827D01*
X162720264Y-115256498D01*
X162720261Y-115256510D01*
X162689500Y-115411153D01*
X152492520Y-115411153D01*
X146526071Y-109444703D01*
X146499191Y-109404475D01*
X146489394Y-109380821D01*
X146489389Y-109380814D01*
X146401789Y-109249710D01*
X146290292Y-109138213D01*
X146290288Y-109138210D01*
X146159185Y-109050609D01*
X146159172Y-109050602D01*
X146013501Y-108990264D01*
X146013489Y-108990261D01*
X145858845Y-108959500D01*
X145858842Y-108959500D01*
X145701158Y-108959500D01*
X145701155Y-108959500D01*
X145546510Y-108990261D01*
X145546498Y-108990264D01*
X145400827Y-109050602D01*
X145400814Y-109050609D01*
X145269711Y-109138210D01*
X145269707Y-109138213D01*
X145158213Y-109249707D01*
X145158210Y-109249711D01*
X145070609Y-109380814D01*
X145070602Y-109380827D01*
X145010264Y-109526498D01*
X145010261Y-109526510D01*
X144979500Y-109681153D01*
X142010500Y-109681153D01*
X142010500Y-104491153D01*
X147649500Y-104491153D01*
X147649500Y-104648846D01*
X147680261Y-104803489D01*
X147680264Y-104803501D01*
X147740602Y-104949172D01*
X147740609Y-104949185D01*
X147828210Y-105080288D01*
X147828213Y-105080292D01*
X147939707Y-105191786D01*
X147939711Y-105191789D01*
X148070814Y-105279390D01*
X148070827Y-105279397D01*
X148214342Y-105338842D01*
X148216503Y-105339737D01*
X148356554Y-105367595D01*
X148371153Y-105370499D01*
X148371156Y-105370500D01*
X148371158Y-105370500D01*
X148528844Y-105370500D01*
X148528845Y-105370499D01*
X148683497Y-105339737D01*
X148829179Y-105279394D01*
X148960289Y-105191789D01*
X148970925Y-105181153D01*
X150279500Y-105181153D01*
X150279500Y-105338846D01*
X150310261Y-105493489D01*
X150310264Y-105493501D01*
X150370602Y-105639172D01*
X150370609Y-105639185D01*
X150458210Y-105770288D01*
X150462076Y-105774999D01*
X150460251Y-105776496D01*
X150488725Y-105828642D01*
X150483741Y-105898334D01*
X150460831Y-105933980D01*
X150462076Y-105935001D01*
X150458210Y-105939711D01*
X150370609Y-106070814D01*
X150370602Y-106070827D01*
X150310264Y-106216498D01*
X150310261Y-106216510D01*
X150279500Y-106371153D01*
X150279500Y-106528846D01*
X150310261Y-106683489D01*
X150310264Y-106683501D01*
X150370602Y-106829172D01*
X150370609Y-106829185D01*
X150458210Y-106960288D01*
X150458213Y-106960292D01*
X150569707Y-107071786D01*
X150569711Y-107071789D01*
X150700814Y-107159390D01*
X150700827Y-107159397D01*
X150846498Y-107219735D01*
X150846503Y-107219737D01*
X151001153Y-107250499D01*
X151001156Y-107250500D01*
X151001158Y-107250500D01*
X151158844Y-107250500D01*
X151158845Y-107250499D01*
X151313497Y-107219737D01*
X151459179Y-107159394D01*
X151590289Y-107071789D01*
X151701789Y-106960289D01*
X151789394Y-106829179D01*
X151789397Y-106829172D01*
X151810343Y-106778603D01*
X158404248Y-106778603D01*
X158404248Y-107081396D01*
X158438145Y-107382252D01*
X158438148Y-107382266D01*
X158505523Y-107677459D01*
X158505526Y-107677467D01*
X158605522Y-107963238D01*
X158605528Y-107963252D01*
X158736895Y-108236038D01*
X158736897Y-108236041D01*
X158897986Y-108492412D01*
X159086766Y-108729136D01*
X159300864Y-108943234D01*
X159537588Y-109132014D01*
X159793959Y-109293103D01*
X160066755Y-109424475D01*
X160066761Y-109424477D01*
X160352532Y-109524473D01*
X160352540Y-109524476D01*
X160352543Y-109524476D01*
X160352544Y-109524477D01*
X160647733Y-109591852D01*
X160647742Y-109591853D01*
X160647747Y-109591854D01*
X160848317Y-109614452D01*
X160948604Y-109625751D01*
X160948607Y-109625752D01*
X160948610Y-109625752D01*
X161251393Y-109625752D01*
X161251394Y-109625751D01*
X161405154Y-109608427D01*
X161552252Y-109591854D01*
X161552255Y-109591853D01*
X161552267Y-109591852D01*
X161847456Y-109524477D01*
X162133245Y-109424475D01*
X162406041Y-109293103D01*
X162662412Y-109132014D01*
X162899136Y-108943234D01*
X163113234Y-108729136D01*
X163302014Y-108492412D01*
X163463103Y-108236041D01*
X163594475Y-107963245D01*
X163694477Y-107677456D01*
X163761852Y-107382267D01*
X163795752Y-107081390D01*
X163795752Y-106778610D01*
X163767611Y-106528844D01*
X163761854Y-106477747D01*
X163761853Y-106477742D01*
X163761852Y-106477733D01*
X163694477Y-106182544D01*
X163655385Y-106070827D01*
X163607332Y-105933498D01*
X163594475Y-105896755D01*
X163489377Y-105678518D01*
X163463104Y-105623961D01*
X163463103Y-105623959D01*
X163302014Y-105367588D01*
X163113234Y-105130864D01*
X162899136Y-104916766D01*
X162662412Y-104727986D01*
X162536455Y-104648842D01*
X162406038Y-104566895D01*
X162133252Y-104435528D01*
X162133238Y-104435522D01*
X161847467Y-104335526D01*
X161847459Y-104335523D01*
X161626064Y-104284991D01*
X161552267Y-104268148D01*
X161552264Y-104268147D01*
X161552252Y-104268145D01*
X161251396Y-104234248D01*
X161251390Y-104234248D01*
X160948610Y-104234248D01*
X160948603Y-104234248D01*
X160647747Y-104268145D01*
X160647733Y-104268148D01*
X160352540Y-104335523D01*
X160352532Y-104335526D01*
X160066761Y-104435522D01*
X160066747Y-104435528D01*
X159793961Y-104566895D01*
X159537595Y-104727981D01*
X159537591Y-104727983D01*
X159537588Y-104727986D01*
X159510351Y-104749707D01*
X159300863Y-104916766D01*
X159086766Y-105130863D01*
X159038180Y-105191789D01*
X158897986Y-105367588D01*
X158897983Y-105367591D01*
X158897981Y-105367595D01*
X158736895Y-105623961D01*
X158605528Y-105896747D01*
X158605522Y-105896761D01*
X158505526Y-106182532D01*
X158505523Y-106182540D01*
X158438148Y-106477733D01*
X158438145Y-106477747D01*
X158404248Y-106778603D01*
X151810343Y-106778603D01*
X151831434Y-106727686D01*
X151831436Y-106727679D01*
X151849737Y-106683497D01*
X151880500Y-106528842D01*
X151880500Y-106371158D01*
X151880500Y-106371155D01*
X151880499Y-106371153D01*
X151849738Y-106216510D01*
X151849737Y-106216503D01*
X151835666Y-106182532D01*
X151789397Y-106070827D01*
X151789390Y-106070814D01*
X151701789Y-105939711D01*
X151697924Y-105935001D01*
X151699755Y-105933498D01*
X151671284Y-105881403D01*
X151676242Y-105811710D01*
X151699175Y-105776025D01*
X151697924Y-105774999D01*
X151701784Y-105770293D01*
X151701789Y-105770289D01*
X151789394Y-105639179D01*
X151795698Y-105623961D01*
X151849735Y-105493501D01*
X151849737Y-105493497D01*
X151880500Y-105338842D01*
X151880500Y-105181158D01*
X151880500Y-105181155D01*
X151880499Y-105181153D01*
X151860436Y-105080289D01*
X151849737Y-105026503D01*
X151804283Y-104916766D01*
X151789397Y-104880827D01*
X151789390Y-104880814D01*
X151701789Y-104749711D01*
X151701786Y-104749707D01*
X151590292Y-104638213D01*
X151590288Y-104638210D01*
X151459185Y-104550609D01*
X151459172Y-104550602D01*
X151313501Y-104490264D01*
X151313489Y-104490261D01*
X151158845Y-104459500D01*
X151158842Y-104459500D01*
X151001158Y-104459500D01*
X151001155Y-104459500D01*
X150846510Y-104490261D01*
X150846498Y-104490264D01*
X150700827Y-104550602D01*
X150700814Y-104550609D01*
X150569711Y-104638210D01*
X150569707Y-104638213D01*
X150458213Y-104749707D01*
X150458210Y-104749711D01*
X150370609Y-104880814D01*
X150370602Y-104880827D01*
X150310264Y-105026498D01*
X150310261Y-105026510D01*
X150279500Y-105181153D01*
X148970925Y-105181153D01*
X149064694Y-105087385D01*
X149071786Y-105080292D01*
X149071789Y-105080289D01*
X149159394Y-104949179D01*
X149219737Y-104803497D01*
X149250500Y-104648842D01*
X149250500Y-104491158D01*
X149250500Y-104491155D01*
X149250499Y-104491153D01*
X149219738Y-104336510D01*
X149219737Y-104336503D01*
X149191424Y-104268148D01*
X149159397Y-104190827D01*
X149159390Y-104190814D01*
X149071789Y-104059711D01*
X149071786Y-104059707D01*
X148960292Y-103948213D01*
X148960288Y-103948210D01*
X148829185Y-103860609D01*
X148829172Y-103860602D01*
X148683501Y-103800264D01*
X148683489Y-103800261D01*
X148528845Y-103769500D01*
X148528842Y-103769500D01*
X148371158Y-103769500D01*
X148371155Y-103769500D01*
X148216510Y-103800261D01*
X148216498Y-103800264D01*
X148070827Y-103860602D01*
X148070814Y-103860609D01*
X147939711Y-103948210D01*
X147939707Y-103948213D01*
X147828213Y-104059707D01*
X147828210Y-104059711D01*
X147740609Y-104190814D01*
X147740602Y-104190827D01*
X147680264Y-104336498D01*
X147680261Y-104336510D01*
X147649500Y-104491153D01*
X142010500Y-104491153D01*
X142010500Y-103181153D01*
X144469500Y-103181153D01*
X144469500Y-103338846D01*
X144500261Y-103493489D01*
X144500264Y-103493501D01*
X144560602Y-103639172D01*
X144560609Y-103639185D01*
X144648210Y-103770288D01*
X144648213Y-103770292D01*
X144759707Y-103881786D01*
X144759711Y-103881789D01*
X144890814Y-103969390D01*
X144890827Y-103969397D01*
X145036498Y-104029735D01*
X145036503Y-104029737D01*
X145191153Y-104060499D01*
X145191156Y-104060500D01*
X145191158Y-104060500D01*
X145348844Y-104060500D01*
X145348845Y-104060499D01*
X145503497Y-104029737D01*
X145649179Y-103969394D01*
X145780289Y-103881789D01*
X145891789Y-103770289D01*
X145979394Y-103639179D01*
X146039737Y-103493497D01*
X146070500Y-103338842D01*
X146070500Y-103181158D01*
X146070500Y-103181155D01*
X146070499Y-103181153D01*
X146039738Y-103026510D01*
X146039737Y-103026503D01*
X146039735Y-103026498D01*
X145979397Y-102880827D01*
X145979390Y-102880814D01*
X145891789Y-102749711D01*
X145891786Y-102749707D01*
X145780292Y-102638213D01*
X145780288Y-102638210D01*
X145649185Y-102550609D01*
X145649172Y-102550602D01*
X145503501Y-102490264D01*
X145503489Y-102490261D01*
X145348845Y-102459500D01*
X145348842Y-102459500D01*
X145191158Y-102459500D01*
X145191155Y-102459500D01*
X145036510Y-102490261D01*
X145036498Y-102490264D01*
X144890827Y-102550602D01*
X144890814Y-102550609D01*
X144759711Y-102638210D01*
X144759707Y-102638213D01*
X144648213Y-102749707D01*
X144648210Y-102749711D01*
X144560609Y-102880814D01*
X144560602Y-102880827D01*
X144500264Y-103026498D01*
X144500261Y-103026510D01*
X144469500Y-103181153D01*
X142010500Y-103181153D01*
X142010500Y-102381941D01*
X142030185Y-102314902D01*
X142082989Y-102269147D01*
X142152147Y-102259203D01*
X142215703Y-102288228D01*
X142222181Y-102294260D01*
X142259707Y-102331786D01*
X142259711Y-102331789D01*
X142390814Y-102419390D01*
X142390827Y-102419397D01*
X142487646Y-102459500D01*
X142536503Y-102479737D01*
X142691153Y-102510499D01*
X142691156Y-102510500D01*
X142691158Y-102510500D01*
X142848844Y-102510500D01*
X142848845Y-102510499D01*
X143003497Y-102479737D01*
X143149179Y-102419394D01*
X143280289Y-102331789D01*
X143391789Y-102220289D01*
X143479394Y-102089179D01*
X143539737Y-101943497D01*
X143570500Y-101788842D01*
X143570500Y-101631158D01*
X143570500Y-101631155D01*
X143570499Y-101631153D01*
X143547096Y-101513501D01*
X143539737Y-101476503D01*
X143529500Y-101451788D01*
X143479397Y-101330827D01*
X143479395Y-101330823D01*
X143479394Y-101330821D01*
X143434717Y-101263957D01*
X143392753Y-101201153D01*
X149809500Y-101201153D01*
X149809500Y-101358846D01*
X149840261Y-101513489D01*
X149840264Y-101513501D01*
X149900602Y-101659172D01*
X149900609Y-101659185D01*
X149988210Y-101790288D01*
X149988213Y-101790292D01*
X150099707Y-101901786D01*
X150099711Y-101901789D01*
X150230814Y-101989390D01*
X150230827Y-101989397D01*
X150376498Y-102049735D01*
X150376503Y-102049737D01*
X150531153Y-102080499D01*
X150531156Y-102080500D01*
X150531158Y-102080500D01*
X150688844Y-102080500D01*
X150688845Y-102080499D01*
X150843497Y-102049737D01*
X150989179Y-101989394D01*
X151120289Y-101901789D01*
X151231789Y-101790289D01*
X151319394Y-101659179D01*
X151379737Y-101513497D01*
X151410500Y-101358842D01*
X151410500Y-101201158D01*
X151410500Y-101201155D01*
X151410499Y-101201153D01*
X151402159Y-101159225D01*
X151379737Y-101046503D01*
X151379735Y-101046498D01*
X151319397Y-100900827D01*
X151319390Y-100900814D01*
X151231789Y-100769711D01*
X151231786Y-100769707D01*
X151120292Y-100658213D01*
X151120288Y-100658210D01*
X150989185Y-100570609D01*
X150989172Y-100570602D01*
X150843501Y-100510264D01*
X150843489Y-100510261D01*
X150688845Y-100479500D01*
X150688842Y-100479500D01*
X150531158Y-100479500D01*
X150531155Y-100479500D01*
X150376510Y-100510261D01*
X150376498Y-100510264D01*
X150230827Y-100570602D01*
X150230814Y-100570609D01*
X150099711Y-100658210D01*
X150099707Y-100658213D01*
X149988213Y-100769707D01*
X149988210Y-100769711D01*
X149900609Y-100900814D01*
X149900602Y-100900827D01*
X149840264Y-101046498D01*
X149840261Y-101046510D01*
X149809500Y-101201153D01*
X143392753Y-101201153D01*
X143391789Y-101199710D01*
X143280292Y-101088213D01*
X143280288Y-101088210D01*
X143149185Y-101000609D01*
X143149172Y-101000602D01*
X143003501Y-100940264D01*
X143003489Y-100940261D01*
X142848845Y-100909500D01*
X142848842Y-100909500D01*
X142691158Y-100909500D01*
X142691155Y-100909500D01*
X142536510Y-100940261D01*
X142536498Y-100940264D01*
X142390827Y-101000602D01*
X142390814Y-101000609D01*
X142259711Y-101088210D01*
X142259707Y-101088213D01*
X142222181Y-101125740D01*
X142160858Y-101159225D01*
X142091166Y-101154241D01*
X142035233Y-101112369D01*
X142010816Y-101046905D01*
X142010500Y-101038059D01*
X142010500Y-98786847D01*
X142030185Y-98719808D01*
X142082989Y-98674053D01*
X142152147Y-98664109D01*
X142215703Y-98693134D01*
X142253477Y-98751912D01*
X142256117Y-98762656D01*
X142260261Y-98783489D01*
X142260263Y-98783497D01*
X142320602Y-98929172D01*
X142320609Y-98929185D01*
X142408210Y-99060288D01*
X142408213Y-99060292D01*
X142519707Y-99171786D01*
X142519711Y-99171789D01*
X142650814Y-99259390D01*
X142650827Y-99259397D01*
X142771028Y-99309185D01*
X142796503Y-99319737D01*
X142951153Y-99350499D01*
X142951156Y-99350500D01*
X142951158Y-99350500D01*
X143108844Y-99350500D01*
X143108845Y-99350499D01*
X143263497Y-99319737D01*
X143409179Y-99259394D01*
X143540289Y-99171789D01*
X143651789Y-99060289D01*
X143739394Y-98929179D01*
X143742719Y-98921153D01*
X143799737Y-98783497D01*
X143830500Y-98628842D01*
X143830500Y-98471158D01*
X143830500Y-98471155D01*
X143830499Y-98471153D01*
X143820094Y-98418844D01*
X143806629Y-98351153D01*
X147419500Y-98351153D01*
X147419500Y-98508846D01*
X147450261Y-98663489D01*
X147450264Y-98663501D01*
X147510602Y-98809172D01*
X147510609Y-98809185D01*
X147598210Y-98940288D01*
X147598213Y-98940292D01*
X147709707Y-99051786D01*
X147709711Y-99051789D01*
X147840814Y-99139390D01*
X147840827Y-99139397D01*
X147986440Y-99199711D01*
X147986503Y-99199737D01*
X148141153Y-99230499D01*
X148141156Y-99230500D01*
X148141158Y-99230500D01*
X148298844Y-99230500D01*
X148298845Y-99230499D01*
X148453497Y-99199737D01*
X148599179Y-99139394D01*
X148730289Y-99051789D01*
X148841789Y-98940289D01*
X148854575Y-98921153D01*
X150609500Y-98921153D01*
X150609500Y-99078846D01*
X150640261Y-99233489D01*
X150640264Y-99233501D01*
X150700602Y-99379172D01*
X150700609Y-99379185D01*
X150788210Y-99510288D01*
X150788213Y-99510292D01*
X150899707Y-99621786D01*
X150899711Y-99621789D01*
X151030814Y-99709390D01*
X151030827Y-99709397D01*
X151140082Y-99754651D01*
X151176503Y-99769737D01*
X151188109Y-99772045D01*
X151250020Y-99804428D01*
X151284596Y-99865143D01*
X151285537Y-99869470D01*
X151300261Y-99943492D01*
X151300264Y-99943501D01*
X151360602Y-100089172D01*
X151360609Y-100089185D01*
X151448210Y-100220288D01*
X151448213Y-100220292D01*
X151559707Y-100331786D01*
X151559711Y-100331789D01*
X151690814Y-100419390D01*
X151690827Y-100419397D01*
X151835931Y-100479500D01*
X151836503Y-100479737D01*
X151989967Y-100510263D01*
X151991153Y-100510499D01*
X151991156Y-100510500D01*
X151991158Y-100510500D01*
X152148844Y-100510500D01*
X152148845Y-100510499D01*
X152303497Y-100479737D01*
X152449179Y-100419394D01*
X152580289Y-100331789D01*
X152691789Y-100220289D01*
X152779394Y-100089179D01*
X152839737Y-99943497D01*
X152870500Y-99788842D01*
X152870500Y-99631158D01*
X152870500Y-99631155D01*
X152870499Y-99631153D01*
X152839738Y-99476510D01*
X152839737Y-99476503D01*
X152824737Y-99440289D01*
X152779397Y-99330827D01*
X152779390Y-99330814D01*
X152691789Y-99199711D01*
X152691786Y-99199707D01*
X152580292Y-99088213D01*
X152580288Y-99088210D01*
X152449185Y-99000609D01*
X152449172Y-99000602D01*
X152303501Y-98940264D01*
X152303492Y-98940261D01*
X152291886Y-98937953D01*
X152229975Y-98905567D01*
X152195402Y-98844850D01*
X152194462Y-98840528D01*
X152179738Y-98766508D01*
X152179737Y-98766507D01*
X152179737Y-98766503D01*
X152168974Y-98740518D01*
X152119397Y-98620827D01*
X152119390Y-98620814D01*
X152031789Y-98489711D01*
X152031786Y-98489707D01*
X151920292Y-98378213D01*
X151920288Y-98378210D01*
X151789185Y-98290609D01*
X151789172Y-98290602D01*
X151643501Y-98230264D01*
X151643489Y-98230261D01*
X151488845Y-98199500D01*
X151488842Y-98199500D01*
X151331158Y-98199500D01*
X151331155Y-98199500D01*
X151176510Y-98230261D01*
X151176498Y-98230264D01*
X151030827Y-98290602D01*
X151030814Y-98290609D01*
X150899711Y-98378210D01*
X150899707Y-98378213D01*
X150788213Y-98489707D01*
X150788210Y-98489711D01*
X150700609Y-98620814D01*
X150700602Y-98620827D01*
X150640264Y-98766498D01*
X150640261Y-98766510D01*
X150609500Y-98921153D01*
X148854575Y-98921153D01*
X148867521Y-98901778D01*
X148904675Y-98846175D01*
X148929391Y-98809183D01*
X148929394Y-98809179D01*
X148989737Y-98663497D01*
X149006303Y-98580210D01*
X149038687Y-98518303D01*
X149099403Y-98483729D01*
X149152111Y-98482788D01*
X149241153Y-98500499D01*
X149241156Y-98500500D01*
X149241158Y-98500500D01*
X149398844Y-98500500D01*
X149398845Y-98500499D01*
X149553497Y-98469737D01*
X149699179Y-98409394D01*
X149830289Y-98321789D01*
X149941789Y-98210289D01*
X150029394Y-98079179D01*
X150089737Y-97933497D01*
X150120500Y-97778842D01*
X150120500Y-97621158D01*
X150120500Y-97621155D01*
X150120499Y-97621153D01*
X150105990Y-97548211D01*
X150089737Y-97466503D01*
X150086932Y-97459730D01*
X150029397Y-97320827D01*
X150029390Y-97320814D01*
X149941789Y-97189711D01*
X149941786Y-97189707D01*
X149830292Y-97078213D01*
X149830288Y-97078210D01*
X149699185Y-96990609D01*
X149699172Y-96990602D01*
X149553501Y-96930264D01*
X149553489Y-96930261D01*
X149398845Y-96899500D01*
X149398842Y-96899500D01*
X149241158Y-96899500D01*
X149241155Y-96899500D01*
X149086510Y-96930261D01*
X149086498Y-96930264D01*
X148940827Y-96990602D01*
X148940814Y-96990609D01*
X148809711Y-97078210D01*
X148809707Y-97078213D01*
X148698213Y-97189707D01*
X148698210Y-97189711D01*
X148610609Y-97320814D01*
X148610602Y-97320827D01*
X148550264Y-97466498D01*
X148550261Y-97466508D01*
X148533696Y-97549786D01*
X148501311Y-97611697D01*
X148440595Y-97646271D01*
X148387889Y-97647212D01*
X148298842Y-97629500D01*
X148141158Y-97629500D01*
X148141155Y-97629500D01*
X147986510Y-97660261D01*
X147986498Y-97660264D01*
X147840827Y-97720602D01*
X147840814Y-97720609D01*
X147709711Y-97808210D01*
X147709707Y-97808213D01*
X147598213Y-97919707D01*
X147598210Y-97919711D01*
X147510609Y-98050814D01*
X147510602Y-98050827D01*
X147450264Y-98196498D01*
X147450261Y-98196510D01*
X147419500Y-98351153D01*
X143806629Y-98351153D01*
X143799737Y-98316503D01*
X143798349Y-98313152D01*
X143739397Y-98170827D01*
X143739390Y-98170814D01*
X143651789Y-98039711D01*
X143651786Y-98039707D01*
X143540292Y-97928213D01*
X143540288Y-97928210D01*
X143409185Y-97840609D01*
X143409172Y-97840602D01*
X143263501Y-97780264D01*
X143263489Y-97780261D01*
X143108845Y-97749500D01*
X143108842Y-97749500D01*
X142951158Y-97749500D01*
X142951155Y-97749500D01*
X142796510Y-97780261D01*
X142796498Y-97780264D01*
X142650827Y-97840602D01*
X142650814Y-97840609D01*
X142519711Y-97928210D01*
X142519707Y-97928213D01*
X142408213Y-98039707D01*
X142408210Y-98039711D01*
X142320609Y-98170814D01*
X142320602Y-98170827D01*
X142260264Y-98316498D01*
X142260261Y-98316508D01*
X142256117Y-98337344D01*
X142223732Y-98399255D01*
X142163016Y-98433829D01*
X142093246Y-98430088D01*
X142036575Y-98389222D01*
X142010993Y-98324204D01*
X142010500Y-98313152D01*
X142010500Y-97459730D01*
X144765365Y-97459730D01*
X144765365Y-97617423D01*
X144796126Y-97772066D01*
X144796129Y-97772078D01*
X144856467Y-97917749D01*
X144856474Y-97917762D01*
X144944075Y-98048865D01*
X144944078Y-98048869D01*
X145055572Y-98160363D01*
X145055576Y-98160366D01*
X145186679Y-98247967D01*
X145186692Y-98247974D01*
X145289624Y-98290609D01*
X145332368Y-98308314D01*
X145478311Y-98337344D01*
X145487018Y-98339076D01*
X145487021Y-98339077D01*
X145487023Y-98339077D01*
X145644709Y-98339077D01*
X145644710Y-98339076D01*
X145799362Y-98308314D01*
X145913215Y-98261155D01*
X145945037Y-98247974D01*
X145945037Y-98247973D01*
X145945044Y-98247971D01*
X145945050Y-98247967D01*
X145954035Y-98241964D01*
X146046021Y-98180500D01*
X146076154Y-98160366D01*
X146187654Y-98048866D01*
X146275259Y-97917756D01*
X146286827Y-97889825D01*
X146330666Y-97835423D01*
X146396960Y-97813356D01*
X146448840Y-97822715D01*
X146586503Y-97879737D01*
X146741153Y-97910499D01*
X146741156Y-97910500D01*
X146741158Y-97910500D01*
X146898844Y-97910500D01*
X146898845Y-97910499D01*
X147053497Y-97879737D01*
X147199179Y-97819394D01*
X147330289Y-97731789D01*
X147441789Y-97620289D01*
X147529394Y-97489179D01*
X147589737Y-97343497D01*
X147620500Y-97188842D01*
X147620500Y-97031158D01*
X147620500Y-97031155D01*
X147620499Y-97031153D01*
X147612433Y-96990602D01*
X147589737Y-96876503D01*
X147569474Y-96827584D01*
X147529397Y-96730827D01*
X147529390Y-96730814D01*
X147441789Y-96599711D01*
X147441786Y-96599707D01*
X147330292Y-96488213D01*
X147330288Y-96488210D01*
X147199185Y-96400609D01*
X147199172Y-96400602D01*
X147053501Y-96340264D01*
X147053489Y-96340261D01*
X146898845Y-96309500D01*
X146898842Y-96309500D01*
X146894129Y-96309500D01*
X146827090Y-96289815D01*
X146781335Y-96237011D01*
X146771391Y-96167853D01*
X146779568Y-96138048D01*
X146789735Y-96113501D01*
X146789737Y-96113497D01*
X146820500Y-95958842D01*
X146820500Y-95801158D01*
X146820500Y-95801155D01*
X146820499Y-95801153D01*
X146808434Y-95740499D01*
X146789737Y-95646503D01*
X146789735Y-95646498D01*
X146729397Y-95500827D01*
X146729390Y-95500814D01*
X146641789Y-95369711D01*
X146641786Y-95369707D01*
X146530292Y-95258213D01*
X146530288Y-95258210D01*
X146399185Y-95170609D01*
X146399172Y-95170602D01*
X146253501Y-95110264D01*
X146253489Y-95110261D01*
X146098845Y-95079500D01*
X146098842Y-95079500D01*
X145941158Y-95079500D01*
X145941155Y-95079500D01*
X145786510Y-95110261D01*
X145786498Y-95110264D01*
X145640827Y-95170602D01*
X145640814Y-95170609D01*
X145509711Y-95258210D01*
X145509707Y-95258213D01*
X145398213Y-95369707D01*
X145398210Y-95369711D01*
X145310609Y-95500814D01*
X145310602Y-95500827D01*
X145250264Y-95646498D01*
X145250261Y-95646510D01*
X145219500Y-95801153D01*
X145219500Y-95958846D01*
X145250261Y-96113489D01*
X145250264Y-96113501D01*
X145310602Y-96259172D01*
X145310609Y-96259185D01*
X145398210Y-96390288D01*
X145398213Y-96390292D01*
X145509707Y-96501786D01*
X145509715Y-96501792D01*
X145528100Y-96514077D01*
X145572906Y-96567689D01*
X145581613Y-96637014D01*
X145551459Y-96700041D01*
X145492016Y-96736761D01*
X145483402Y-96738796D01*
X145332373Y-96768838D01*
X145332363Y-96768841D01*
X145186692Y-96829179D01*
X145186679Y-96829186D01*
X145055576Y-96916787D01*
X145055572Y-96916790D01*
X144944078Y-97028284D01*
X144944075Y-97028288D01*
X144856474Y-97159391D01*
X144856467Y-97159404D01*
X144796129Y-97305075D01*
X144796126Y-97305087D01*
X144765365Y-97459730D01*
X142010500Y-97459730D01*
X142010500Y-95801702D01*
X142030185Y-95734663D01*
X142082989Y-95688908D01*
X142152147Y-95678964D01*
X142181947Y-95687139D01*
X142236503Y-95709737D01*
X142361814Y-95734663D01*
X142391153Y-95740499D01*
X142391156Y-95740500D01*
X142454765Y-95740500D01*
X142521804Y-95760185D01*
X142567559Y-95812989D01*
X142578765Y-95864500D01*
X142578765Y-95889581D01*
X142609526Y-96044224D01*
X142609529Y-96044236D01*
X142669867Y-96189907D01*
X142669874Y-96189920D01*
X142757475Y-96321023D01*
X142757478Y-96321027D01*
X142868972Y-96432521D01*
X142868976Y-96432524D01*
X143000079Y-96520125D01*
X143000092Y-96520132D01*
X143145763Y-96580470D01*
X143145768Y-96580472D01*
X143300418Y-96611234D01*
X143300421Y-96611235D01*
X143300423Y-96611235D01*
X143458109Y-96611235D01*
X143458110Y-96611234D01*
X143612762Y-96580472D01*
X143758444Y-96520129D01*
X143889554Y-96432524D01*
X144001054Y-96321024D01*
X144088659Y-96189914D01*
X144149002Y-96044232D01*
X144179765Y-95889577D01*
X144179765Y-95731893D01*
X144179765Y-95731890D01*
X144179764Y-95731888D01*
X144165899Y-95662184D01*
X144149002Y-95577238D01*
X144141609Y-95559390D01*
X144088662Y-95431562D01*
X144088655Y-95431549D01*
X144001054Y-95300446D01*
X144001051Y-95300442D01*
X143889557Y-95188948D01*
X143889553Y-95188945D01*
X143758450Y-95101344D01*
X143758437Y-95101337D01*
X143612766Y-95040999D01*
X143612754Y-95040996D01*
X143458110Y-95010235D01*
X143458107Y-95010235D01*
X143394500Y-95010235D01*
X143327461Y-94990550D01*
X143281706Y-94937746D01*
X143270500Y-94886235D01*
X143270500Y-94861155D01*
X143270499Y-94861153D01*
X143259467Y-94805694D01*
X143239737Y-94706503D01*
X143216768Y-94651051D01*
X143179397Y-94560827D01*
X143179390Y-94560814D01*
X143091789Y-94429711D01*
X143091786Y-94429707D01*
X142980292Y-94318213D01*
X142980288Y-94318210D01*
X142849185Y-94230609D01*
X142849172Y-94230602D01*
X142703501Y-94170264D01*
X142703489Y-94170261D01*
X142548845Y-94139500D01*
X142548842Y-94139500D01*
X142391158Y-94139500D01*
X142391155Y-94139500D01*
X142236510Y-94170261D01*
X142236498Y-94170264D01*
X142181952Y-94192858D01*
X142112482Y-94200327D01*
X142050003Y-94169051D01*
X142014352Y-94108962D01*
X142010500Y-94078297D01*
X142010500Y-93838411D01*
X148053438Y-93838411D01*
X148053438Y-93996104D01*
X148084199Y-94150747D01*
X148084202Y-94150759D01*
X148144540Y-94296430D01*
X148144547Y-94296443D01*
X148224871Y-94416655D01*
X148245749Y-94483332D01*
X148227265Y-94550713D01*
X148224874Y-94554433D01*
X148220609Y-94560816D01*
X148220602Y-94560828D01*
X148160264Y-94706498D01*
X148160261Y-94706510D01*
X148129500Y-94861153D01*
X148129500Y-95018846D01*
X148160261Y-95173489D01*
X148160264Y-95173501D01*
X148220602Y-95319172D01*
X148220609Y-95319185D01*
X148308210Y-95450288D01*
X148308213Y-95450292D01*
X148419707Y-95561786D01*
X148419711Y-95561789D01*
X148550814Y-95649390D01*
X148550827Y-95649397D01*
X148696498Y-95709735D01*
X148696503Y-95709737D01*
X148821814Y-95734663D01*
X148851153Y-95740499D01*
X148851156Y-95740500D01*
X148851158Y-95740500D01*
X149008844Y-95740500D01*
X149008845Y-95740499D01*
X149163497Y-95709737D01*
X149279402Y-95661728D01*
X149309172Y-95649397D01*
X149309172Y-95649396D01*
X149309179Y-95649394D01*
X149440289Y-95561789D01*
X149551789Y-95450289D01*
X149639394Y-95319179D01*
X149648923Y-95296175D01*
X149664647Y-95258213D01*
X149699737Y-95173497D01*
X149730500Y-95018842D01*
X149730500Y-94861158D01*
X149730500Y-94861155D01*
X149730499Y-94861153D01*
X149719467Y-94805694D01*
X149699737Y-94706503D01*
X149676768Y-94651051D01*
X149639397Y-94560827D01*
X149639390Y-94560814D01*
X149565680Y-94450500D01*
X149559065Y-94440601D01*
X149538188Y-94373925D01*
X149556672Y-94306545D01*
X149559052Y-94302840D01*
X149563332Y-94296437D01*
X149623675Y-94150755D01*
X149654438Y-93996100D01*
X149654438Y-93838416D01*
X149654438Y-93838413D01*
X149654437Y-93838411D01*
X149639536Y-93763501D01*
X149623675Y-93683761D01*
X149621725Y-93679054D01*
X149563335Y-93538085D01*
X149563328Y-93538072D01*
X149475727Y-93406969D01*
X149475724Y-93406965D01*
X149364230Y-93295471D01*
X149364226Y-93295468D01*
X149233123Y-93207867D01*
X149233110Y-93207860D01*
X149087439Y-93147522D01*
X149087427Y-93147519D01*
X148932783Y-93116758D01*
X148932780Y-93116758D01*
X148775096Y-93116758D01*
X148775093Y-93116758D01*
X148620448Y-93147519D01*
X148620436Y-93147522D01*
X148474765Y-93207860D01*
X148474752Y-93207867D01*
X148343649Y-93295468D01*
X148343645Y-93295471D01*
X148232151Y-93406965D01*
X148232148Y-93406969D01*
X148144547Y-93538072D01*
X148144540Y-93538085D01*
X148084202Y-93683756D01*
X148084199Y-93683768D01*
X148053438Y-93838411D01*
X142010500Y-93838411D01*
X142010500Y-90961153D01*
X144649500Y-90961153D01*
X144649500Y-91118846D01*
X144680261Y-91273489D01*
X144680264Y-91273501D01*
X144740602Y-91419172D01*
X144740609Y-91419185D01*
X144828210Y-91550288D01*
X144828213Y-91550292D01*
X144939707Y-91661786D01*
X144939711Y-91661789D01*
X145070814Y-91749390D01*
X145070827Y-91749397D01*
X145216498Y-91809735D01*
X145216503Y-91809737D01*
X145371153Y-91840499D01*
X145371156Y-91840500D01*
X145371158Y-91840500D01*
X145528843Y-91840500D01*
X145543101Y-91837663D01*
X145607739Y-91824806D01*
X145677328Y-91831033D01*
X145732506Y-91873895D01*
X145755751Y-91939784D01*
X145739684Y-92007781D01*
X145700823Y-92049523D01*
X145669654Y-92070350D01*
X145669649Y-92070354D01*
X145558155Y-92181848D01*
X145558152Y-92181852D01*
X145470551Y-92312955D01*
X145470544Y-92312968D01*
X145410206Y-92458639D01*
X145410203Y-92458651D01*
X145379442Y-92613294D01*
X145379442Y-92770987D01*
X145410203Y-92925630D01*
X145410206Y-92925642D01*
X145470544Y-93071313D01*
X145470551Y-93071326D01*
X145558152Y-93202429D01*
X145558155Y-93202433D01*
X145669649Y-93313927D01*
X145669653Y-93313930D01*
X145800756Y-93401531D01*
X145800769Y-93401538D01*
X145920552Y-93451153D01*
X145946445Y-93461878D01*
X146101095Y-93492640D01*
X146101098Y-93492641D01*
X146101100Y-93492641D01*
X146258786Y-93492641D01*
X146258787Y-93492640D01*
X146413439Y-93461878D01*
X146559121Y-93401535D01*
X146690231Y-93313930D01*
X146801731Y-93202430D01*
X146889336Y-93071320D01*
X146949679Y-92925638D01*
X146954718Y-92900308D01*
X146987103Y-92838397D01*
X147047819Y-92803823D01*
X147076335Y-92800500D01*
X147098844Y-92800500D01*
X147098845Y-92800499D01*
X147253497Y-92769737D01*
X147399179Y-92709394D01*
X147530289Y-92621789D01*
X147641789Y-92510289D01*
X147729394Y-92379179D01*
X147789737Y-92233497D01*
X147820500Y-92078842D01*
X147820500Y-91921158D01*
X147820500Y-91921155D01*
X147820499Y-91921153D01*
X147804617Y-91841311D01*
X147789737Y-91766503D01*
X147774539Y-91729811D01*
X147729397Y-91620827D01*
X147729390Y-91620814D01*
X147641789Y-91489711D01*
X147641786Y-91489707D01*
X147530292Y-91378213D01*
X147530284Y-91378207D01*
X147490235Y-91351447D01*
X147445429Y-91297835D01*
X147436722Y-91228510D01*
X147437500Y-91224192D01*
X147450500Y-91158842D01*
X147450500Y-91001158D01*
X147450500Y-91001155D01*
X147450499Y-91001153D01*
X147442542Y-90961153D01*
X147419737Y-90846503D01*
X147412561Y-90829179D01*
X147359397Y-90700827D01*
X147359390Y-90700814D01*
X147271789Y-90569711D01*
X147271786Y-90569707D01*
X147160292Y-90458213D01*
X147160288Y-90458210D01*
X147101928Y-90419215D01*
X147057123Y-90365603D01*
X147048416Y-90296278D01*
X147078570Y-90233250D01*
X147086015Y-90226132D01*
X147085982Y-90226099D01*
X147201786Y-90110294D01*
X147201789Y-90110291D01*
X147289394Y-89979181D01*
X147349737Y-89833499D01*
X147380500Y-89678844D01*
X147380500Y-89521160D01*
X147380500Y-89521157D01*
X147380499Y-89521155D01*
X147373665Y-89486797D01*
X147349737Y-89366505D01*
X147349735Y-89366500D01*
X147289397Y-89220829D01*
X147289390Y-89220816D01*
X147201789Y-89089713D01*
X147201786Y-89089709D01*
X147090292Y-88978215D01*
X147090288Y-88978212D01*
X146959185Y-88890611D01*
X146959172Y-88890604D01*
X146813501Y-88830266D01*
X146813489Y-88830263D01*
X146658845Y-88799502D01*
X146658842Y-88799502D01*
X146501158Y-88799502D01*
X146501155Y-88799502D01*
X146346510Y-88830263D01*
X146346498Y-88830266D01*
X146200827Y-88890604D01*
X146200814Y-88890611D01*
X146069711Y-88978212D01*
X146069707Y-88978215D01*
X145958213Y-89089709D01*
X145958210Y-89089713D01*
X145870609Y-89220816D01*
X145870602Y-89220829D01*
X145810264Y-89366500D01*
X145810261Y-89366512D01*
X145779500Y-89521155D01*
X145779500Y-89678848D01*
X145810261Y-89833491D01*
X145810264Y-89833503D01*
X145870602Y-89979174D01*
X145870609Y-89979187D01*
X145958210Y-90110290D01*
X145958213Y-90110294D01*
X145991749Y-90143830D01*
X146025234Y-90205153D01*
X146020250Y-90274845D01*
X145978378Y-90330778D01*
X145912914Y-90355195D01*
X145844641Y-90340343D01*
X145835178Y-90334613D01*
X145829190Y-90330612D01*
X145829172Y-90330602D01*
X145683501Y-90270264D01*
X145683489Y-90270261D01*
X145528845Y-90239500D01*
X145528842Y-90239500D01*
X145371158Y-90239500D01*
X145371155Y-90239500D01*
X145216510Y-90270261D01*
X145216498Y-90270264D01*
X145070827Y-90330602D01*
X145070814Y-90330609D01*
X144939711Y-90418210D01*
X144939707Y-90418213D01*
X144828213Y-90529707D01*
X144828210Y-90529711D01*
X144740609Y-90660814D01*
X144740602Y-90660827D01*
X144680264Y-90806498D01*
X144680261Y-90806510D01*
X144649500Y-90961153D01*
X142010500Y-90961153D01*
X142010500Y-87871153D01*
X148339500Y-87871153D01*
X148339500Y-88028846D01*
X148370261Y-88183489D01*
X148370264Y-88183501D01*
X148430602Y-88329172D01*
X148430609Y-88329185D01*
X148518210Y-88460288D01*
X148518213Y-88460292D01*
X148629707Y-88571786D01*
X148629711Y-88571789D01*
X148760814Y-88659390D01*
X148760827Y-88659397D01*
X148834013Y-88689711D01*
X148906503Y-88719737D01*
X149056131Y-88749500D01*
X149061153Y-88750499D01*
X149061156Y-88750500D01*
X149061158Y-88750500D01*
X149218844Y-88750500D01*
X149218845Y-88750499D01*
X149373497Y-88719737D01*
X149519179Y-88659394D01*
X149650289Y-88571789D01*
X149677983Y-88544095D01*
X149756819Y-88465260D01*
X149818142Y-88431775D01*
X149887834Y-88436759D01*
X149943767Y-88478631D01*
X149968184Y-88544095D01*
X149968500Y-88552941D01*
X149968500Y-93513330D01*
X149968499Y-93513348D01*
X149968499Y-93679054D01*
X149968498Y-93679054D01*
X150009423Y-93831786D01*
X150021779Y-93853185D01*
X150021780Y-93853190D01*
X150021782Y-93853190D01*
X150088479Y-93968714D01*
X150088481Y-93968717D01*
X150207349Y-94087585D01*
X150207355Y-94087590D01*
X150303463Y-94183698D01*
X150336948Y-94245021D01*
X150331964Y-94314713D01*
X150303465Y-94359058D01*
X150288274Y-94374249D01*
X150288269Y-94374255D01*
X150200670Y-94505355D01*
X150200663Y-94505368D01*
X150140325Y-94651039D01*
X150140322Y-94651051D01*
X150109561Y-94805694D01*
X150109561Y-94963387D01*
X150140322Y-95118030D01*
X150140325Y-95118042D01*
X150200663Y-95263713D01*
X150200670Y-95263726D01*
X150288271Y-95394829D01*
X150288274Y-95394833D01*
X150399768Y-95506327D01*
X150399772Y-95506330D01*
X150530875Y-95593931D01*
X150530888Y-95593938D01*
X150667443Y-95650500D01*
X150676564Y-95654278D01*
X150800668Y-95678964D01*
X150831214Y-95685040D01*
X150831217Y-95685041D01*
X150831219Y-95685041D01*
X150988905Y-95685041D01*
X150988906Y-95685040D01*
X151143558Y-95654278D01*
X151289240Y-95593935D01*
X151345314Y-95556466D01*
X151411990Y-95535588D01*
X151461657Y-95545006D01*
X151545503Y-95579737D01*
X151601648Y-95590905D01*
X151706132Y-95611689D01*
X151705765Y-95613532D01*
X151762427Y-95636403D01*
X151802794Y-95693431D01*
X151809500Y-95733656D01*
X151809500Y-96953330D01*
X151809499Y-96953348D01*
X151809499Y-97119054D01*
X151809498Y-97119054D01*
X151850424Y-97271789D01*
X151850425Y-97271790D01*
X151869645Y-97305079D01*
X151869646Y-97305080D01*
X151929477Y-97408712D01*
X151929481Y-97408717D01*
X152048349Y-97527585D01*
X152048355Y-97527590D01*
X152465139Y-97944374D01*
X152465149Y-97944385D01*
X152469479Y-97948715D01*
X152469480Y-97948716D01*
X152581284Y-98060520D01*
X152651488Y-98101052D01*
X152718215Y-98139577D01*
X152870942Y-98180500D01*
X152870943Y-98180500D01*
X153588059Y-98180500D01*
X153655098Y-98200185D01*
X153700853Y-98252989D01*
X153710797Y-98322147D01*
X153681772Y-98385703D01*
X153675740Y-98392181D01*
X153648213Y-98419707D01*
X153648210Y-98419711D01*
X153560609Y-98550814D01*
X153560602Y-98550827D01*
X153500264Y-98696498D01*
X153500261Y-98696510D01*
X153469500Y-98851153D01*
X153469500Y-99008846D01*
X153500261Y-99163489D01*
X153500264Y-99163501D01*
X153560602Y-99309172D01*
X153560609Y-99309185D01*
X153648210Y-99440288D01*
X153648213Y-99440292D01*
X153759707Y-99551786D01*
X153759711Y-99551789D01*
X153890814Y-99639390D01*
X153890827Y-99639397D01*
X154036498Y-99699735D01*
X154036503Y-99699737D01*
X154191153Y-99730499D01*
X154191156Y-99730500D01*
X154191158Y-99730500D01*
X154348844Y-99730500D01*
X154348845Y-99730499D01*
X154503497Y-99699737D01*
X154649179Y-99639394D01*
X154780289Y-99551789D01*
X154891789Y-99440289D01*
X154979394Y-99309179D01*
X155039737Y-99163497D01*
X155070500Y-99008842D01*
X155070500Y-98957941D01*
X155076127Y-98938775D01*
X155076836Y-98918811D01*
X155085770Y-98905936D01*
X155090185Y-98890902D01*
X155105280Y-98877821D01*
X155116670Y-98861409D01*
X155134931Y-98852128D01*
X155142989Y-98845147D01*
X155147019Y-98843392D01*
X155154535Y-98840276D01*
X155231785Y-98819577D01*
X155294277Y-98783497D01*
X155368716Y-98740520D01*
X155480520Y-98628716D01*
X155551255Y-98557981D01*
X155630312Y-98421049D01*
X155671235Y-98268322D01*
X155671235Y-98090824D01*
X155675634Y-98058088D01*
X155677690Y-98050575D01*
X155710083Y-97972372D01*
X155739300Y-97825484D01*
X155740460Y-97821250D01*
X155756593Y-97795097D01*
X155770829Y-97767884D01*
X155774765Y-97765642D01*
X155777145Y-97761785D01*
X155804859Y-97748505D01*
X155817954Y-97741048D01*
X155813485Y-97737825D01*
X155902391Y-97737825D01*
X155904990Y-97739700D01*
X155909485Y-97740262D01*
X155933063Y-97759944D01*
X155957986Y-97777916D01*
X155960076Y-97782492D01*
X155963123Y-97785036D01*
X155967262Y-97798227D01*
X155981678Y-97829794D01*
X156010261Y-97973491D01*
X156010264Y-97973501D01*
X156070602Y-98119172D01*
X156070609Y-98119185D01*
X156158210Y-98250288D01*
X156158213Y-98250292D01*
X156269707Y-98361786D01*
X156269711Y-98361789D01*
X156400814Y-98449390D01*
X156400827Y-98449397D01*
X156544342Y-98508842D01*
X156546503Y-98509737D01*
X156701153Y-98540499D01*
X156701156Y-98540500D01*
X156701158Y-98540500D01*
X156858844Y-98540500D01*
X156858845Y-98540499D01*
X157013497Y-98509737D01*
X157128484Y-98462108D01*
X157159172Y-98449397D01*
X157159172Y-98449396D01*
X157159179Y-98449394D01*
X157290289Y-98361789D01*
X157401789Y-98250289D01*
X157489394Y-98119179D01*
X157493506Y-98109253D01*
X157513691Y-98060520D01*
X157549737Y-97973497D01*
X157580500Y-97818842D01*
X157580500Y-97661158D01*
X157580500Y-97661155D01*
X157580499Y-97661153D01*
X157578809Y-97652657D01*
X157549737Y-97506503D01*
X157535001Y-97470926D01*
X157489397Y-97360827D01*
X157489390Y-97360814D01*
X157401789Y-97229711D01*
X157401786Y-97229707D01*
X157290292Y-97118213D01*
X157290288Y-97118210D01*
X157159185Y-97030609D01*
X157159172Y-97030602D01*
X157013501Y-96970264D01*
X157013489Y-96970261D01*
X156858845Y-96939500D01*
X156858842Y-96939500D01*
X156701158Y-96939500D01*
X156701155Y-96939500D01*
X156546510Y-96970261D01*
X156546498Y-96970264D01*
X156400827Y-97030602D01*
X156400814Y-97030609D01*
X156269711Y-97118210D01*
X156269707Y-97118213D01*
X156158213Y-97229707D01*
X156158210Y-97229711D01*
X156070609Y-97360814D01*
X156070602Y-97360827D01*
X156010264Y-97506498D01*
X156010261Y-97506508D01*
X155981901Y-97649080D01*
X155977526Y-97657442D01*
X155976963Y-97666864D01*
X155961593Y-97687902D01*
X155949516Y-97710991D01*
X155941314Y-97715661D01*
X155935747Y-97723282D01*
X155911443Y-97732671D01*
X155902391Y-97737825D01*
X155813485Y-97737825D01*
X155811376Y-97736304D01*
X155802130Y-97734406D01*
X155783492Y-97716197D01*
X155762358Y-97700958D01*
X155757572Y-97690875D01*
X155752152Y-97685580D01*
X155741941Y-97657941D01*
X155739433Y-97652657D01*
X155739029Y-97650901D01*
X155710083Y-97505378D01*
X155699995Y-97481025D01*
X155697675Y-97470926D01*
X155699167Y-97445983D01*
X155696496Y-97421144D01*
X155701375Y-97409058D01*
X155701847Y-97401181D01*
X155707904Y-97392889D01*
X155715423Y-97374267D01*
X155799420Y-97248558D01*
X155859763Y-97102876D01*
X155890526Y-96948221D01*
X155890526Y-96790537D01*
X155890526Y-96790534D01*
X155890525Y-96790532D01*
X155869780Y-96686243D01*
X155859763Y-96635882D01*
X155819705Y-96539172D01*
X155799423Y-96490206D01*
X155799416Y-96490193D01*
X155711815Y-96359090D01*
X155711812Y-96359086D01*
X155600318Y-96247592D01*
X155600314Y-96247589D01*
X155496419Y-96178168D01*
X155496417Y-96178166D01*
X155469216Y-96159991D01*
X155469198Y-96159981D01*
X155323527Y-96099643D01*
X155323515Y-96099640D01*
X155230576Y-96081153D01*
X158009500Y-96081153D01*
X158009500Y-96238846D01*
X158040261Y-96393489D01*
X158040264Y-96393501D01*
X158100602Y-96539172D01*
X158100609Y-96539185D01*
X158188210Y-96670288D01*
X158188213Y-96670292D01*
X158299707Y-96781786D01*
X158299711Y-96781789D01*
X158430814Y-96869390D01*
X158430823Y-96869395D01*
X158494160Y-96895630D01*
X158548563Y-96939471D01*
X158570628Y-97005765D01*
X158553349Y-97073464D01*
X158515601Y-97113291D01*
X158508240Y-97118209D01*
X158508235Y-97118213D01*
X158396741Y-97229707D01*
X158396738Y-97229711D01*
X158309137Y-97360814D01*
X158309130Y-97360827D01*
X158248792Y-97506498D01*
X158248789Y-97506510D01*
X158218028Y-97661153D01*
X158218028Y-97818846D01*
X158248789Y-97973489D01*
X158248792Y-97973501D01*
X158309130Y-98119172D01*
X158309137Y-98119185D01*
X158396738Y-98250288D01*
X158396741Y-98250292D01*
X158508235Y-98361786D01*
X158508239Y-98361789D01*
X158639342Y-98449390D01*
X158639355Y-98449397D01*
X158782870Y-98508842D01*
X158785031Y-98509737D01*
X158939681Y-98540499D01*
X158939684Y-98540500D01*
X158939686Y-98540500D01*
X159097372Y-98540500D01*
X159097373Y-98540499D01*
X159252025Y-98509737D01*
X159367012Y-98462107D01*
X159436481Y-98454639D01*
X159498960Y-98485914D01*
X159534612Y-98546003D01*
X159536081Y-98552475D01*
X159540262Y-98573494D01*
X159540264Y-98573501D01*
X159600602Y-98719172D01*
X159600609Y-98719185D01*
X159688210Y-98850288D01*
X159688213Y-98850292D01*
X159799707Y-98961786D01*
X159799711Y-98961789D01*
X159930814Y-99049390D01*
X159930827Y-99049397D01*
X160024534Y-99088211D01*
X160076503Y-99109737D01*
X160225578Y-99139390D01*
X160231153Y-99140499D01*
X160231156Y-99140500D01*
X160231158Y-99140500D01*
X160388844Y-99140500D01*
X160388845Y-99140499D01*
X160543497Y-99109737D01*
X160689179Y-99049394D01*
X160820289Y-98961789D01*
X160931789Y-98850289D01*
X161019394Y-98719179D01*
X161079737Y-98573497D01*
X161110500Y-98418842D01*
X161110500Y-98261158D01*
X161110500Y-98261155D01*
X161080285Y-98109258D01*
X161080285Y-98109256D01*
X161080284Y-98109253D01*
X161079737Y-98106503D01*
X161073379Y-98091153D01*
X164799500Y-98091153D01*
X164799500Y-98248846D01*
X164830261Y-98403489D01*
X164830264Y-98403501D01*
X164890602Y-98549172D01*
X164890609Y-98549185D01*
X164978210Y-98680288D01*
X164978213Y-98680292D01*
X165089707Y-98791786D01*
X165089711Y-98791789D01*
X165220814Y-98879390D01*
X165220827Y-98879397D01*
X165366498Y-98939735D01*
X165366503Y-98939737D01*
X165521153Y-98970499D01*
X165521156Y-98970500D01*
X165521158Y-98970500D01*
X165678844Y-98970500D01*
X165678845Y-98970499D01*
X165833497Y-98939737D01*
X165979179Y-98879394D01*
X166076110Y-98814626D01*
X166142786Y-98793749D01*
X166210166Y-98812233D01*
X166213876Y-98814617D01*
X166310821Y-98879394D01*
X166310823Y-98879395D01*
X166310827Y-98879397D01*
X166456498Y-98939735D01*
X166456503Y-98939737D01*
X166611153Y-98970499D01*
X166611156Y-98970500D01*
X166611158Y-98970500D01*
X166768844Y-98970500D01*
X166768845Y-98970499D01*
X166923497Y-98939737D01*
X167069179Y-98879394D01*
X167200289Y-98791789D01*
X167311789Y-98680289D01*
X167399394Y-98549179D01*
X167459737Y-98403497D01*
X167490500Y-98248842D01*
X167490500Y-98091158D01*
X167490500Y-98091155D01*
X167490499Y-98091153D01*
X167488116Y-98079172D01*
X167459737Y-97936503D01*
X167448966Y-97910499D01*
X167399397Y-97790827D01*
X167399390Y-97790814D01*
X167311789Y-97659711D01*
X167311786Y-97659707D01*
X167200292Y-97548213D01*
X167200288Y-97548210D01*
X167069185Y-97460609D01*
X167069172Y-97460602D01*
X166923501Y-97400264D01*
X166923489Y-97400261D01*
X166768845Y-97369500D01*
X166768842Y-97369500D01*
X166611158Y-97369500D01*
X166611155Y-97369500D01*
X166456510Y-97400261D01*
X166456498Y-97400264D01*
X166310827Y-97460602D01*
X166310814Y-97460609D01*
X166213891Y-97525372D01*
X166147213Y-97546250D01*
X166079833Y-97527765D01*
X166076109Y-97525372D01*
X165979185Y-97460609D01*
X165979172Y-97460602D01*
X165833501Y-97400264D01*
X165833489Y-97400261D01*
X165678845Y-97369500D01*
X165678842Y-97369500D01*
X165521158Y-97369500D01*
X165521155Y-97369500D01*
X165366510Y-97400261D01*
X165366498Y-97400264D01*
X165220827Y-97460602D01*
X165220814Y-97460609D01*
X165089711Y-97548210D01*
X165089707Y-97548213D01*
X164978213Y-97659707D01*
X164978210Y-97659711D01*
X164890609Y-97790814D01*
X164890602Y-97790827D01*
X164830264Y-97936498D01*
X164830261Y-97936510D01*
X164799500Y-98091153D01*
X161073379Y-98091153D01*
X161060691Y-98060521D01*
X161019397Y-97960827D01*
X161019390Y-97960814D01*
X160931789Y-97829711D01*
X160931786Y-97829707D01*
X160820292Y-97718213D01*
X160820288Y-97718210D01*
X160689185Y-97630609D01*
X160689172Y-97630602D01*
X160543501Y-97570264D01*
X160543489Y-97570261D01*
X160388845Y-97539500D01*
X160388842Y-97539500D01*
X160231158Y-97539500D01*
X160231155Y-97539500D01*
X160076510Y-97570261D01*
X160076507Y-97570262D01*
X160076506Y-97570262D01*
X160076503Y-97570263D01*
X160018994Y-97594084D01*
X159961515Y-97617892D01*
X159892045Y-97625360D01*
X159829566Y-97594084D01*
X159793914Y-97533995D01*
X159792449Y-97527540D01*
X159788265Y-97506503D01*
X159773529Y-97470926D01*
X159727925Y-97360827D01*
X159727918Y-97360814D01*
X159640317Y-97229711D01*
X159640314Y-97229707D01*
X159528820Y-97118213D01*
X159528816Y-97118210D01*
X159397713Y-97030609D01*
X159397703Y-97030604D01*
X159334367Y-97004369D01*
X159279963Y-96960527D01*
X159257899Y-96894233D01*
X159275179Y-96826534D01*
X159312933Y-96786704D01*
X159320289Y-96781789D01*
X159431789Y-96670289D01*
X159519394Y-96539179D01*
X159527284Y-96520132D01*
X159539682Y-96490200D01*
X159579737Y-96393497D01*
X159610500Y-96238842D01*
X159610500Y-96081158D01*
X159610500Y-96081155D01*
X159610499Y-96081153D01*
X159605050Y-96053760D01*
X159579737Y-95926503D01*
X159564442Y-95889577D01*
X159521050Y-95784818D01*
X159513581Y-95715349D01*
X159544856Y-95652870D01*
X159566716Y-95634266D01*
X159630289Y-95591789D01*
X159741789Y-95480289D01*
X159829394Y-95349179D01*
X159830583Y-95346307D01*
X159831608Y-95345034D01*
X159832264Y-95343809D01*
X159832496Y-95343933D01*
X159874420Y-95291902D01*
X159940712Y-95269832D01*
X160008413Y-95287107D01*
X160056027Y-95338241D01*
X160059708Y-95346301D01*
X160110602Y-95469172D01*
X160110609Y-95469185D01*
X160198210Y-95600288D01*
X160198213Y-95600292D01*
X160309707Y-95711786D01*
X160309711Y-95711789D01*
X160440814Y-95799390D01*
X160440827Y-95799397D01*
X160512743Y-95829185D01*
X160586503Y-95859737D01*
X160736518Y-95889577D01*
X160741153Y-95890499D01*
X160741156Y-95890500D01*
X160741158Y-95890500D01*
X160898844Y-95890500D01*
X160898845Y-95890499D01*
X161053497Y-95859737D01*
X161193607Y-95801702D01*
X161199172Y-95799397D01*
X161199172Y-95799396D01*
X161199179Y-95799394D01*
X161330289Y-95711789D01*
X161441789Y-95600289D01*
X161529394Y-95469179D01*
X161589737Y-95323497D01*
X161613607Y-95203497D01*
X161619160Y-95175581D01*
X161651545Y-95113670D01*
X161712261Y-95079096D01*
X161782030Y-95082835D01*
X161838702Y-95123702D01*
X161855338Y-95152319D01*
X161870604Y-95189176D01*
X161870609Y-95189185D01*
X161958210Y-95320288D01*
X161958213Y-95320292D01*
X162069707Y-95431786D01*
X162069711Y-95431789D01*
X162200814Y-95519390D01*
X162200827Y-95519397D01*
X162303165Y-95561786D01*
X162346503Y-95579737D01*
X162501153Y-95610499D01*
X162501156Y-95610500D01*
X162501158Y-95610500D01*
X162658844Y-95610500D01*
X162658845Y-95610499D01*
X162813497Y-95579737D01*
X162959179Y-95519394D01*
X163090289Y-95431789D01*
X163150925Y-95371153D01*
X165909500Y-95371153D01*
X165909500Y-95528846D01*
X165940261Y-95683489D01*
X165940264Y-95683501D01*
X166000602Y-95829172D01*
X166000609Y-95829185D01*
X166088210Y-95960288D01*
X166088213Y-95960292D01*
X166199707Y-96071786D01*
X166199711Y-96071789D01*
X166330814Y-96159390D01*
X166330827Y-96159397D01*
X166476498Y-96219735D01*
X166476503Y-96219737D01*
X166616524Y-96247589D01*
X166631153Y-96250499D01*
X166631156Y-96250500D01*
X166631158Y-96250500D01*
X166788844Y-96250500D01*
X166788845Y-96250499D01*
X166943497Y-96219737D01*
X167089179Y-96159394D01*
X167220289Y-96071789D01*
X167331789Y-95960289D01*
X167361897Y-95915229D01*
X167415508Y-95870424D01*
X167484833Y-95861717D01*
X167547861Y-95891871D01*
X167584581Y-95951314D01*
X167583334Y-96021172D01*
X167582954Y-96022363D01*
X167575849Y-96044232D01*
X167572752Y-96053763D01*
X167542054Y-96247589D01*
X167539500Y-96263713D01*
X167539500Y-96476287D01*
X167541389Y-96488211D01*
X167570227Y-96670292D01*
X167572754Y-96686243D01*
X167637338Y-96885012D01*
X167638444Y-96888414D01*
X167734951Y-97077820D01*
X167859890Y-97249786D01*
X168010213Y-97400109D01*
X168182179Y-97525048D01*
X168182181Y-97525049D01*
X168182184Y-97525051D01*
X168371588Y-97621557D01*
X168573757Y-97687246D01*
X168783713Y-97720500D01*
X168783714Y-97720500D01*
X168996286Y-97720500D01*
X168996287Y-97720500D01*
X169206243Y-97687246D01*
X169408412Y-97621557D01*
X169597816Y-97525051D01*
X169647200Y-97489172D01*
X169769786Y-97400109D01*
X169769788Y-97400106D01*
X169769792Y-97400104D01*
X169920104Y-97249792D01*
X169920106Y-97249788D01*
X169920109Y-97249786D01*
X170033625Y-97093542D01*
X170045051Y-97077816D01*
X170141557Y-96888412D01*
X170207246Y-96686243D01*
X170240500Y-96476287D01*
X170240500Y-96263713D01*
X170207246Y-96053757D01*
X170141557Y-95851588D01*
X170045051Y-95662184D01*
X170045049Y-95662181D01*
X170045048Y-95662179D01*
X169920109Y-95490213D01*
X169806569Y-95376673D01*
X169773084Y-95315350D01*
X169778068Y-95245658D01*
X169819940Y-95189725D01*
X169850915Y-95172810D01*
X169982331Y-95123796D01*
X170097546Y-95037546D01*
X170183796Y-94922331D01*
X170234091Y-94787483D01*
X170240500Y-94727873D01*
X170240499Y-92932128D01*
X170234091Y-92872517D01*
X170222070Y-92840288D01*
X170183797Y-92737671D01*
X170183793Y-92737664D01*
X170097547Y-92622455D01*
X170097544Y-92622452D01*
X169982335Y-92536206D01*
X169982328Y-92536202D01*
X169847482Y-92485908D01*
X169847483Y-92485908D01*
X169787883Y-92479501D01*
X169787881Y-92479500D01*
X169787873Y-92479500D01*
X169787864Y-92479500D01*
X167992129Y-92479500D01*
X167992123Y-92479501D01*
X167932516Y-92485908D01*
X167797671Y-92536202D01*
X167797664Y-92536206D01*
X167682455Y-92622452D01*
X167682452Y-92622455D01*
X167596206Y-92737664D01*
X167596202Y-92737671D01*
X167545908Y-92872517D01*
X167540197Y-92925642D01*
X167539501Y-92932123D01*
X167539500Y-92932135D01*
X167539500Y-94727870D01*
X167539501Y-94727876D01*
X167545908Y-94787483D01*
X167567076Y-94844236D01*
X167596204Y-94922331D01*
X167682454Y-95037546D01*
X167697549Y-95048846D01*
X167797664Y-95123793D01*
X167797671Y-95123797D01*
X167929082Y-95172810D01*
X167985016Y-95214681D01*
X168009433Y-95280145D01*
X167994582Y-95348418D01*
X167973431Y-95376673D01*
X167859889Y-95490215D01*
X167734949Y-95662182D01*
X167730255Y-95671395D01*
X167682280Y-95722189D01*
X167614458Y-95738983D01*
X167548324Y-95716444D01*
X167504874Y-95661728D01*
X167497903Y-95592207D01*
X167498155Y-95590905D01*
X167510500Y-95528844D01*
X167510500Y-95371155D01*
X167510499Y-95371153D01*
X167505060Y-95343809D01*
X167479737Y-95216503D01*
X167419394Y-95070821D01*
X167351570Y-94969316D01*
X167351567Y-94969310D01*
X167331789Y-94939711D01*
X167331786Y-94939707D01*
X167220292Y-94828213D01*
X167220288Y-94828210D01*
X167089185Y-94740609D01*
X167089172Y-94740602D01*
X166943501Y-94680264D01*
X166943489Y-94680261D01*
X166788845Y-94649500D01*
X166788842Y-94649500D01*
X166631158Y-94649500D01*
X166631155Y-94649500D01*
X166476510Y-94680261D01*
X166476498Y-94680264D01*
X166330827Y-94740602D01*
X166330814Y-94740609D01*
X166199711Y-94828210D01*
X166199707Y-94828213D01*
X166088213Y-94939707D01*
X166088210Y-94939711D01*
X166000609Y-95070814D01*
X166000602Y-95070827D01*
X165940264Y-95216498D01*
X165940261Y-95216510D01*
X165909500Y-95371153D01*
X163150925Y-95371153D01*
X163201789Y-95320289D01*
X163215048Y-95300446D01*
X163217902Y-95296175D01*
X163289390Y-95189185D01*
X163289390Y-95189184D01*
X163289394Y-95189179D01*
X163292685Y-95181235D01*
X163316476Y-95123796D01*
X163349737Y-95043497D01*
X163380500Y-94888842D01*
X163380500Y-94731158D01*
X163380500Y-94731155D01*
X163380499Y-94731153D01*
X163379845Y-94727864D01*
X163349737Y-94576503D01*
X163343239Y-94560816D01*
X163289397Y-94430827D01*
X163289390Y-94430814D01*
X163201789Y-94299711D01*
X163201786Y-94299707D01*
X163090292Y-94188213D01*
X163090288Y-94188210D01*
X162959185Y-94100609D01*
X162959172Y-94100602D01*
X162813501Y-94040264D01*
X162813489Y-94040261D01*
X162658845Y-94009500D01*
X162658842Y-94009500D01*
X162501158Y-94009500D01*
X162501155Y-94009500D01*
X162346510Y-94040261D01*
X162346498Y-94040264D01*
X162200827Y-94100602D01*
X162200814Y-94100609D01*
X162069711Y-94188210D01*
X162069707Y-94188213D01*
X161958213Y-94299707D01*
X161958210Y-94299711D01*
X161870609Y-94430814D01*
X161870602Y-94430827D01*
X161810264Y-94576498D01*
X161810261Y-94576508D01*
X161780839Y-94724419D01*
X161748454Y-94786330D01*
X161687738Y-94820904D01*
X161617968Y-94817163D01*
X161561296Y-94776297D01*
X161544661Y-94747681D01*
X161529394Y-94710821D01*
X161529390Y-94710814D01*
X161441789Y-94579711D01*
X161441786Y-94579707D01*
X161330292Y-94468213D01*
X161330288Y-94468210D01*
X161199185Y-94380609D01*
X161199172Y-94380602D01*
X161053501Y-94320264D01*
X161053489Y-94320261D01*
X160898845Y-94289500D01*
X160898842Y-94289500D01*
X160741158Y-94289500D01*
X160741157Y-94289500D01*
X160705268Y-94296638D01*
X160635676Y-94290409D01*
X160580500Y-94247545D01*
X160557257Y-94181655D01*
X160573326Y-94113658D01*
X160577978Y-94106128D01*
X160581671Y-94100602D01*
X160617631Y-94046784D01*
X160629389Y-94029187D01*
X160629390Y-94029184D01*
X160629394Y-94029179D01*
X160689737Y-93883497D01*
X160720500Y-93728842D01*
X160720500Y-93571158D01*
X160720500Y-93571155D01*
X160720499Y-93571153D01*
X160713919Y-93538072D01*
X160689737Y-93416503D01*
X160683537Y-93401535D01*
X160629397Y-93270827D01*
X160629390Y-93270814D01*
X160541789Y-93139711D01*
X160541786Y-93139707D01*
X160430292Y-93028213D01*
X160430288Y-93028210D01*
X160299185Y-92940609D01*
X160299175Y-92940604D01*
X160202826Y-92900695D01*
X160148423Y-92856854D01*
X160126358Y-92790560D01*
X160138731Y-92737152D01*
X160136934Y-92736408D01*
X160187926Y-92613299D01*
X160199608Y-92585097D01*
X160230371Y-92430442D01*
X160230371Y-92272758D01*
X160230371Y-92272755D01*
X160230370Y-92272753D01*
X160222560Y-92233489D01*
X160199608Y-92118103D01*
X160190659Y-92096498D01*
X160139268Y-91972427D01*
X160139261Y-91972414D01*
X160058382Y-91851371D01*
X160037504Y-91784694D01*
X160055988Y-91717314D01*
X160107967Y-91670623D01*
X160137293Y-91660863D01*
X160189333Y-91650510D01*
X160243497Y-91639737D01*
X160389179Y-91579394D01*
X160520289Y-91491789D01*
X160631789Y-91380289D01*
X160719394Y-91249179D01*
X160779737Y-91103497D01*
X160804271Y-90980158D01*
X160804272Y-90980153D01*
X163389500Y-90980153D01*
X163389500Y-91137846D01*
X163420261Y-91292489D01*
X163420264Y-91292501D01*
X163480602Y-91438172D01*
X163480609Y-91438185D01*
X163568210Y-91569288D01*
X163568213Y-91569292D01*
X163679707Y-91680786D01*
X163679711Y-91680789D01*
X163810814Y-91768390D01*
X163810827Y-91768397D01*
X163956498Y-91828735D01*
X163956503Y-91828737D01*
X164111153Y-91859499D01*
X164111156Y-91859500D01*
X164111158Y-91859500D01*
X164268844Y-91859500D01*
X164268845Y-91859499D01*
X164423497Y-91828737D01*
X164569179Y-91768394D01*
X164700289Y-91680789D01*
X164811789Y-91569289D01*
X164899394Y-91438179D01*
X164959737Y-91292497D01*
X164990500Y-91137842D01*
X164990500Y-90980158D01*
X164990500Y-90980155D01*
X164990499Y-90980153D01*
X164984481Y-90949899D01*
X164959737Y-90825503D01*
X164924039Y-90739320D01*
X164899397Y-90679827D01*
X164899390Y-90679814D01*
X164811789Y-90548711D01*
X164811786Y-90548707D01*
X164700292Y-90437213D01*
X164700288Y-90437210D01*
X164569185Y-90349609D01*
X164569172Y-90349602D01*
X164423501Y-90289264D01*
X164423489Y-90289261D01*
X164268845Y-90258500D01*
X164268842Y-90258500D01*
X164111158Y-90258500D01*
X164111155Y-90258500D01*
X163956510Y-90289261D01*
X163956498Y-90289264D01*
X163810827Y-90349602D01*
X163810814Y-90349609D01*
X163679711Y-90437210D01*
X163679707Y-90437213D01*
X163568213Y-90548707D01*
X163568210Y-90548711D01*
X163480609Y-90679814D01*
X163480602Y-90679827D01*
X163420264Y-90825498D01*
X163420261Y-90825510D01*
X163389500Y-90980153D01*
X160804272Y-90980153D01*
X160810290Y-90949899D01*
X160810295Y-90949871D01*
X160810500Y-90948840D01*
X160810500Y-90791155D01*
X160810499Y-90791153D01*
X160796445Y-90720499D01*
X160779737Y-90636503D01*
X160752882Y-90571668D01*
X160719397Y-90490827D01*
X160719390Y-90490814D01*
X160631789Y-90359711D01*
X160631786Y-90359707D01*
X160520292Y-90248213D01*
X160520288Y-90248210D01*
X160389185Y-90160609D01*
X160389172Y-90160602D01*
X160243501Y-90100264D01*
X160243489Y-90100261D01*
X160088845Y-90069500D01*
X160088842Y-90069500D01*
X159931158Y-90069500D01*
X159931155Y-90069500D01*
X159776510Y-90100261D01*
X159776498Y-90100264D01*
X159630827Y-90160602D01*
X159630814Y-90160609D01*
X159499711Y-90248210D01*
X159499707Y-90248213D01*
X159388213Y-90359707D01*
X159388210Y-90359711D01*
X159300609Y-90490814D01*
X159300602Y-90490827D01*
X159240264Y-90636498D01*
X159240261Y-90636510D01*
X159209500Y-90791153D01*
X159209500Y-90948846D01*
X159240261Y-91103489D01*
X159240264Y-91103501D01*
X159300602Y-91249172D01*
X159300609Y-91249185D01*
X159381488Y-91370228D01*
X159402366Y-91436906D01*
X159383882Y-91504286D01*
X159331903Y-91550976D01*
X159302579Y-91560736D01*
X159196378Y-91581861D01*
X159196369Y-91581864D01*
X159050698Y-91642202D01*
X159050685Y-91642209D01*
X158919582Y-91729810D01*
X158919578Y-91729813D01*
X158808084Y-91841307D01*
X158808081Y-91841311D01*
X158720480Y-91972414D01*
X158720473Y-91972427D01*
X158660135Y-92118098D01*
X158660132Y-92118110D01*
X158629371Y-92272753D01*
X158629371Y-92430446D01*
X158660132Y-92585089D01*
X158660135Y-92585101D01*
X158720473Y-92730772D01*
X158720480Y-92730785D01*
X158808081Y-92861888D01*
X158808084Y-92861892D01*
X158919578Y-92973386D01*
X158919582Y-92973389D01*
X159050685Y-93060990D01*
X159050697Y-93060997D01*
X159147044Y-93100904D01*
X159201448Y-93144744D01*
X159223513Y-93211038D01*
X159211147Y-93264451D01*
X159212937Y-93265193D01*
X159150264Y-93416498D01*
X159150261Y-93416510D01*
X159119500Y-93571153D01*
X159119500Y-93728846D01*
X159150261Y-93883489D01*
X159150264Y-93883501D01*
X159197711Y-93998048D01*
X159205180Y-94067517D01*
X159173905Y-94129996D01*
X159113816Y-94165648D01*
X159083150Y-94169500D01*
X159041155Y-94169500D01*
X158886510Y-94200261D01*
X158886498Y-94200264D01*
X158740827Y-94260602D01*
X158740814Y-94260609D01*
X158609711Y-94348210D01*
X158609707Y-94348213D01*
X158498213Y-94459707D01*
X158498210Y-94459711D01*
X158410609Y-94590814D01*
X158410602Y-94590827D01*
X158350264Y-94736498D01*
X158350261Y-94736510D01*
X158319500Y-94891153D01*
X158319500Y-95048846D01*
X158350261Y-95203489D01*
X158350264Y-95203501D01*
X158408949Y-95345181D01*
X158416418Y-95414650D01*
X158385142Y-95477129D01*
X158363280Y-95495735D01*
X158299707Y-95538213D01*
X158188213Y-95649707D01*
X158188210Y-95649711D01*
X158100609Y-95780814D01*
X158100602Y-95780827D01*
X158040264Y-95926498D01*
X158040261Y-95926510D01*
X158009500Y-96081153D01*
X155230576Y-96081153D01*
X155168871Y-96068879D01*
X155168868Y-96068879D01*
X155011184Y-96068879D01*
X155011181Y-96068879D01*
X154856536Y-96099640D01*
X154856524Y-96099643D01*
X154710853Y-96159981D01*
X154710840Y-96159988D01*
X154579737Y-96247589D01*
X154579733Y-96247592D01*
X154468239Y-96359086D01*
X154468236Y-96359090D01*
X154380635Y-96490193D01*
X154380628Y-96490206D01*
X154320290Y-96635877D01*
X154320287Y-96635889D01*
X154289526Y-96790532D01*
X154289526Y-96885012D01*
X154269841Y-96952051D01*
X154217037Y-96997806D01*
X154147879Y-97007750D01*
X154133433Y-97004787D01*
X154078193Y-96989985D01*
X154039057Y-96979499D01*
X153880943Y-96979499D01*
X153873347Y-96979499D01*
X153873331Y-96979500D01*
X153250097Y-96979500D01*
X153220656Y-96970855D01*
X153190670Y-96964332D01*
X153185654Y-96960577D01*
X153183058Y-96959815D01*
X153162416Y-96943181D01*
X153046819Y-96827584D01*
X153013334Y-96766261D01*
X153010500Y-96739903D01*
X153010500Y-95259059D01*
X153010501Y-95259046D01*
X153010501Y-95090945D01*
X153010501Y-95090943D01*
X152969577Y-94938215D01*
X152922400Y-94856503D01*
X152915315Y-94844232D01*
X152901847Y-94820904D01*
X152890520Y-94801284D01*
X152778716Y-94689480D01*
X152778715Y-94689479D01*
X152774385Y-94685149D01*
X152774374Y-94685139D01*
X152537590Y-94448355D01*
X152530521Y-94441286D01*
X152530520Y-94441284D01*
X152433269Y-94344033D01*
X152433268Y-94344031D01*
X152417850Y-94325245D01*
X152400787Y-94299708D01*
X152289292Y-94188213D01*
X152289288Y-94188210D01*
X152158185Y-94100609D01*
X152158172Y-94100602D01*
X152012501Y-94040264D01*
X152012491Y-94040261D01*
X151857149Y-94009361D01*
X151795238Y-93976976D01*
X151793660Y-93975425D01*
X151205819Y-93387584D01*
X151191115Y-93360656D01*
X151174523Y-93334838D01*
X151173631Y-93328637D01*
X151172334Y-93326261D01*
X151169500Y-93299903D01*
X151169500Y-93248046D01*
X151184137Y-93198199D01*
X152579500Y-93198199D01*
X152579500Y-93355892D01*
X152610261Y-93510535D01*
X152610264Y-93510547D01*
X152670602Y-93656218D01*
X152670609Y-93656231D01*
X152758210Y-93787334D01*
X152758213Y-93787338D01*
X152869707Y-93898832D01*
X152869711Y-93898835D01*
X153000814Y-93986436D01*
X153000827Y-93986443D01*
X153130825Y-94040289D01*
X153146503Y-94046783D01*
X153298931Y-94077103D01*
X153301153Y-94077545D01*
X153301156Y-94077546D01*
X153301158Y-94077546D01*
X153458844Y-94077546D01*
X153545050Y-94060398D01*
X153576354Y-94054171D01*
X153645946Y-94060398D01*
X153701123Y-94103261D01*
X153724368Y-94169150D01*
X153711923Y-94225202D01*
X153713672Y-94225927D01*
X153650999Y-94377233D01*
X153650996Y-94377245D01*
X153620235Y-94531888D01*
X153620235Y-94689581D01*
X153650996Y-94844224D01*
X153650999Y-94844236D01*
X153711337Y-94989907D01*
X153711344Y-94989920D01*
X153798945Y-95121023D01*
X153798948Y-95121027D01*
X153910442Y-95232521D01*
X153910446Y-95232524D01*
X154041549Y-95320125D01*
X154041562Y-95320132D01*
X154164752Y-95371158D01*
X154187238Y-95380472D01*
X154341888Y-95411234D01*
X154341891Y-95411235D01*
X154341893Y-95411235D01*
X154499579Y-95411235D01*
X154499580Y-95411234D01*
X154654232Y-95380472D01*
X154791802Y-95323489D01*
X154799907Y-95320132D01*
X154799907Y-95320131D01*
X154799914Y-95320129D01*
X154931024Y-95232524D01*
X154995684Y-95167863D01*
X155057005Y-95134380D01*
X155126697Y-95139364D01*
X155182631Y-95181235D01*
X155197924Y-95208091D01*
X155206657Y-95229173D01*
X155206663Y-95229185D01*
X155294264Y-95360288D01*
X155294267Y-95360292D01*
X155405761Y-95471786D01*
X155405765Y-95471789D01*
X155536868Y-95559390D01*
X155536881Y-95559397D01*
X155682552Y-95619735D01*
X155682557Y-95619737D01*
X155837207Y-95650499D01*
X155837210Y-95650500D01*
X155837212Y-95650500D01*
X155994898Y-95650500D01*
X155994899Y-95650499D01*
X156149551Y-95619737D01*
X156295233Y-95559394D01*
X156426343Y-95471789D01*
X156537843Y-95360289D01*
X156625448Y-95229179D01*
X156685791Y-95083497D01*
X156716554Y-94928842D01*
X156716554Y-94771158D01*
X156716554Y-94771155D01*
X156716553Y-94771153D01*
X156685791Y-94616503D01*
X156675150Y-94590814D01*
X156625451Y-94470827D01*
X156625444Y-94470814D01*
X156537843Y-94339711D01*
X156537840Y-94339707D01*
X156426345Y-94228212D01*
X156413635Y-94219719D01*
X156384179Y-94200038D01*
X156339376Y-94146428D01*
X156330667Y-94077103D01*
X156349968Y-94028047D01*
X156429394Y-93909179D01*
X156489737Y-93763497D01*
X156520500Y-93608842D01*
X156520500Y-93451158D01*
X156520500Y-93451155D01*
X156520499Y-93451153D01*
X156510629Y-93401535D01*
X156489737Y-93296503D01*
X156453020Y-93207860D01*
X156429397Y-93150827D01*
X156429390Y-93150814D01*
X156341789Y-93019711D01*
X156341786Y-93019707D01*
X156230292Y-92908213D01*
X156230288Y-92908210D01*
X156099185Y-92820609D01*
X156099172Y-92820602D01*
X155953501Y-92760264D01*
X155953489Y-92760261D01*
X155798845Y-92729500D01*
X155798842Y-92729500D01*
X155641158Y-92729500D01*
X155641155Y-92729500D01*
X155486510Y-92760261D01*
X155486498Y-92760264D01*
X155340827Y-92820602D01*
X155340814Y-92820609D01*
X155209711Y-92908210D01*
X155209707Y-92908213D01*
X155098213Y-93019707D01*
X155098210Y-93019711D01*
X155010609Y-93150814D01*
X155010602Y-93150827D01*
X154950264Y-93296498D01*
X154950261Y-93296510D01*
X154919500Y-93451153D01*
X154919500Y-93608846D01*
X154948384Y-93754056D01*
X154942157Y-93823648D01*
X154899294Y-93878825D01*
X154833404Y-93902069D01*
X154779315Y-93892808D01*
X154654236Y-93840999D01*
X154654224Y-93840996D01*
X154499580Y-93810235D01*
X154499577Y-93810235D01*
X154341893Y-93810235D01*
X154341888Y-93810235D01*
X154224379Y-93833609D01*
X154154787Y-93827382D01*
X154099610Y-93784519D01*
X154076366Y-93718629D01*
X154088822Y-93662582D01*
X154087063Y-93661854D01*
X154148575Y-93513348D01*
X154149737Y-93510543D01*
X154180500Y-93355888D01*
X154180500Y-93198204D01*
X154180500Y-93198201D01*
X154180499Y-93198199D01*
X154164299Y-93116758D01*
X154149737Y-93043549D01*
X154143384Y-93028211D01*
X154089397Y-92897873D01*
X154089390Y-92897860D01*
X154001789Y-92766757D01*
X154001786Y-92766753D01*
X153890292Y-92655259D01*
X153890288Y-92655256D01*
X153759185Y-92567655D01*
X153759172Y-92567648D01*
X153613501Y-92507310D01*
X153613489Y-92507307D01*
X153458845Y-92476546D01*
X153458842Y-92476546D01*
X153301158Y-92476546D01*
X153301155Y-92476546D01*
X153146510Y-92507307D01*
X153146498Y-92507310D01*
X153000827Y-92567648D01*
X153000814Y-92567655D01*
X152869711Y-92655256D01*
X152869707Y-92655259D01*
X152758213Y-92766753D01*
X152758210Y-92766757D01*
X152670609Y-92897860D01*
X152670602Y-92897873D01*
X152610264Y-93043544D01*
X152610261Y-93043556D01*
X152579500Y-93198199D01*
X151184137Y-93198199D01*
X151189185Y-93181007D01*
X151241989Y-93135252D01*
X151269309Y-93126429D01*
X151317927Y-93116758D01*
X151403497Y-93099737D01*
X151429945Y-93088781D01*
X151457060Y-93077551D01*
X151549172Y-93039397D01*
X151549172Y-93039396D01*
X151549179Y-93039394D01*
X151680289Y-92951789D01*
X151791789Y-92840289D01*
X151879394Y-92709179D01*
X151939737Y-92563497D01*
X151970500Y-92408842D01*
X151970500Y-92251158D01*
X151970500Y-92251155D01*
X151970499Y-92251153D01*
X151956713Y-92181848D01*
X151939737Y-92096503D01*
X151932423Y-92078846D01*
X151879397Y-91950827D01*
X151879390Y-91950814D01*
X151791789Y-91819711D01*
X151791786Y-91819707D01*
X151680290Y-91708211D01*
X151650873Y-91688555D01*
X151606069Y-91634942D01*
X151597363Y-91565617D01*
X151627519Y-91502590D01*
X151672315Y-91470892D01*
X151689980Y-91463576D01*
X151821090Y-91375971D01*
X151932590Y-91264471D01*
X152020195Y-91133361D01*
X152023935Y-91124333D01*
X152080536Y-90987683D01*
X152080538Y-90987679D01*
X152111301Y-90833024D01*
X152111301Y-90830235D01*
X152111714Y-90828826D01*
X152111898Y-90826964D01*
X152112251Y-90826998D01*
X152130986Y-90763196D01*
X152183790Y-90717441D01*
X152235301Y-90706235D01*
X152263109Y-90706235D01*
X152263110Y-90706234D01*
X152417762Y-90675472D01*
X152563444Y-90615129D01*
X152694554Y-90527524D01*
X152806054Y-90416024D01*
X152893659Y-90284914D01*
X152895188Y-90281223D01*
X152896505Y-90279587D01*
X152896529Y-90279544D01*
X152896537Y-90279548D01*
X152939026Y-90226817D01*
X153005319Y-90204749D01*
X153073019Y-90222025D01*
X153112853Y-90259779D01*
X153188210Y-90372560D01*
X153299707Y-90484057D01*
X153299711Y-90484060D01*
X153430814Y-90571661D01*
X153430827Y-90571668D01*
X153570192Y-90629394D01*
X153576503Y-90632008D01*
X153721320Y-90660814D01*
X153731153Y-90662770D01*
X153731156Y-90662771D01*
X153731158Y-90662771D01*
X153768824Y-90662771D01*
X153788004Y-90668403D01*
X153807985Y-90669117D01*
X153820845Y-90678046D01*
X153835863Y-90682456D01*
X153848952Y-90697561D01*
X153865377Y-90708966D01*
X153879585Y-90732914D01*
X153881618Y-90735260D01*
X153883375Y-90739294D01*
X153893275Y-90763196D01*
X153908856Y-90800813D01*
X153916323Y-90870283D01*
X153885047Y-90932761D01*
X153881976Y-90935945D01*
X153768210Y-91049711D01*
X153680609Y-91180814D01*
X153680602Y-91180827D01*
X153620264Y-91326498D01*
X153620261Y-91326510D01*
X153589500Y-91481153D01*
X153589500Y-91638846D01*
X153620261Y-91793489D01*
X153620264Y-91793501D01*
X153680602Y-91939172D01*
X153680609Y-91939185D01*
X153768210Y-92070288D01*
X153768213Y-92070292D01*
X153879707Y-92181786D01*
X153879711Y-92181789D01*
X154010814Y-92269390D01*
X154010827Y-92269397D01*
X154156498Y-92329735D01*
X154156503Y-92329737D01*
X154311153Y-92360499D01*
X154311156Y-92360500D01*
X154311158Y-92360500D01*
X154468844Y-92360500D01*
X154468845Y-92360499D01*
X154623497Y-92329737D01*
X154769179Y-92269394D01*
X154900289Y-92181789D01*
X155011789Y-92070289D01*
X155099394Y-91939179D01*
X155106859Y-91921158D01*
X155139932Y-91841311D01*
X155159737Y-91793497D01*
X155190500Y-91638842D01*
X155190500Y-91481158D01*
X155190500Y-91481155D01*
X155190499Y-91481153D01*
X155178173Y-91419185D01*
X155159737Y-91326503D01*
X155151003Y-91305416D01*
X155111144Y-91209187D01*
X155103675Y-91139718D01*
X155134950Y-91077239D01*
X155138024Y-91074053D01*
X155140285Y-91071791D01*
X155140289Y-91071789D01*
X155251789Y-90960289D01*
X155339394Y-90829179D01*
X155357398Y-90785710D01*
X155401238Y-90731309D01*
X155467531Y-90709243D01*
X155496145Y-90711546D01*
X155541158Y-90720500D01*
X155698844Y-90720500D01*
X155698845Y-90720499D01*
X155853497Y-90689737D01*
X155999179Y-90629394D01*
X156130289Y-90541789D01*
X156241789Y-90430289D01*
X156329394Y-90299179D01*
X156389737Y-90153497D01*
X156420500Y-89998842D01*
X156420500Y-89841158D01*
X156420500Y-89841155D01*
X156420499Y-89841153D01*
X156418977Y-89833503D01*
X156389737Y-89686503D01*
X156378818Y-89660142D01*
X156329397Y-89540827D01*
X156329390Y-89540814D01*
X156241789Y-89409711D01*
X156241786Y-89409707D01*
X156130292Y-89298213D01*
X156130288Y-89298210D01*
X155999185Y-89210609D01*
X155999172Y-89210602D01*
X155853501Y-89150264D01*
X155853489Y-89150261D01*
X155698845Y-89119500D01*
X155698842Y-89119500D01*
X155541158Y-89119500D01*
X155541155Y-89119500D01*
X155386510Y-89150261D01*
X155386498Y-89150264D01*
X155240827Y-89210602D01*
X155240814Y-89210609D01*
X155109711Y-89298210D01*
X155109707Y-89298213D01*
X154998213Y-89409707D01*
X154998210Y-89409711D01*
X154910609Y-89540814D01*
X154910606Y-89540821D01*
X154892601Y-89584288D01*
X154876073Y-89604796D01*
X154862666Y-89627468D01*
X154854495Y-89631572D01*
X154848759Y-89638691D01*
X154823768Y-89647008D01*
X154800232Y-89658832D01*
X154788530Y-89658736D01*
X154782465Y-89660755D01*
X154764962Y-89660142D01*
X154759353Y-89659547D01*
X154708842Y-89649500D01*
X154664623Y-89649500D01*
X154658098Y-89648808D01*
X154631618Y-89637884D01*
X154604137Y-89629815D01*
X154599730Y-89624730D01*
X154593508Y-89622163D01*
X154577134Y-89598652D01*
X154558382Y-89577011D01*
X154556615Y-89572952D01*
X154519397Y-89483098D01*
X154519390Y-89483085D01*
X154431789Y-89351982D01*
X154431786Y-89351978D01*
X154320292Y-89240484D01*
X154320288Y-89240481D01*
X154189185Y-89152880D01*
X154189172Y-89152873D01*
X154043501Y-89092535D01*
X154043489Y-89092532D01*
X153888845Y-89061771D01*
X153888842Y-89061771D01*
X153731158Y-89061771D01*
X153731155Y-89061771D01*
X153576510Y-89092532D01*
X153576498Y-89092535D01*
X153430827Y-89152873D01*
X153430814Y-89152880D01*
X153299711Y-89240481D01*
X153299707Y-89240484D01*
X153188213Y-89351978D01*
X153188210Y-89351982D01*
X153100609Y-89483085D01*
X153100601Y-89483101D01*
X153099070Y-89486797D01*
X153097751Y-89488432D01*
X153097736Y-89488462D01*
X153097730Y-89488459D01*
X153055225Y-89541197D01*
X152988929Y-89563256D01*
X152921231Y-89545972D01*
X152881411Y-89508225D01*
X152806057Y-89395450D01*
X152806051Y-89395442D01*
X152694557Y-89283948D01*
X152694553Y-89283945D01*
X152563450Y-89196344D01*
X152563437Y-89196337D01*
X152417766Y-89135999D01*
X152417754Y-89135996D01*
X152263110Y-89105235D01*
X152263107Y-89105235D01*
X152105423Y-89105235D01*
X152105420Y-89105235D01*
X151950775Y-89135996D01*
X151950763Y-89135999D01*
X151805092Y-89196337D01*
X151805079Y-89196344D01*
X151673976Y-89283945D01*
X151673972Y-89283948D01*
X151562478Y-89395442D01*
X151562475Y-89395446D01*
X151474874Y-89526549D01*
X151474867Y-89526562D01*
X151414529Y-89672233D01*
X151412759Y-89678070D01*
X151410824Y-89677483D01*
X151382730Y-89731187D01*
X151322014Y-89765760D01*
X151252244Y-89762019D01*
X151195573Y-89721151D01*
X151169993Y-89656132D01*
X151169500Y-89645083D01*
X151169500Y-88511430D01*
X151189185Y-88444391D01*
X151239084Y-88401153D01*
X157999500Y-88401153D01*
X157999500Y-88558846D01*
X158030261Y-88713489D01*
X158030264Y-88713501D01*
X158090602Y-88859172D01*
X158090609Y-88859185D01*
X158178210Y-88990288D01*
X158178213Y-88990292D01*
X158289707Y-89101786D01*
X158289711Y-89101789D01*
X158420814Y-89189390D01*
X158420827Y-89189397D01*
X158496712Y-89220829D01*
X158566503Y-89249737D01*
X158712823Y-89278842D01*
X158721153Y-89280499D01*
X158721156Y-89280500D01*
X158721158Y-89280500D01*
X158878844Y-89280500D01*
X158878845Y-89280499D01*
X159033497Y-89249737D01*
X159179179Y-89189394D01*
X159281309Y-89121153D01*
X164429500Y-89121153D01*
X164429500Y-89278846D01*
X164460261Y-89433489D01*
X164460264Y-89433501D01*
X164520602Y-89579172D01*
X164520609Y-89579185D01*
X164608210Y-89710288D01*
X164608213Y-89710292D01*
X164719707Y-89821786D01*
X164719711Y-89821789D01*
X164850814Y-89909390D01*
X164850827Y-89909397D01*
X164996498Y-89969735D01*
X164996503Y-89969737D01*
X165142823Y-89998842D01*
X165151153Y-90000499D01*
X165151156Y-90000500D01*
X165151158Y-90000500D01*
X165308844Y-90000500D01*
X165308845Y-90000499D01*
X165463497Y-89969737D01*
X165609179Y-89909394D01*
X165740289Y-89821789D01*
X165840924Y-89721154D01*
X166479500Y-89721154D01*
X166479500Y-89878846D01*
X166510261Y-90033489D01*
X166510264Y-90033501D01*
X166570602Y-90179172D01*
X166570609Y-90179185D01*
X166658210Y-90310288D01*
X166658213Y-90310292D01*
X166769707Y-90421786D01*
X166769711Y-90421789D01*
X166900814Y-90509390D01*
X166900827Y-90509397D01*
X167046440Y-90569711D01*
X167046503Y-90569737D01*
X167201153Y-90600499D01*
X167201156Y-90600500D01*
X167201158Y-90600500D01*
X167358844Y-90600500D01*
X167358845Y-90600499D01*
X167513497Y-90569737D01*
X167659179Y-90509394D01*
X167790289Y-90421789D01*
X167901789Y-90310289D01*
X167989394Y-90179179D01*
X168049737Y-90033497D01*
X168080500Y-89878842D01*
X168080500Y-89721158D01*
X168080500Y-89721154D01*
X168056132Y-89598652D01*
X168049737Y-89566503D01*
X168033188Y-89526549D01*
X167989397Y-89420827D01*
X167989390Y-89420814D01*
X167901789Y-89289711D01*
X167901786Y-89289707D01*
X167790292Y-89178213D01*
X167790288Y-89178210D01*
X167659185Y-89090609D01*
X167659172Y-89090602D01*
X167513501Y-89030264D01*
X167513489Y-89030261D01*
X167358845Y-88999500D01*
X167358842Y-88999500D01*
X167201158Y-88999500D01*
X167201155Y-88999500D01*
X167046510Y-89030261D01*
X167046498Y-89030264D01*
X166900827Y-89090602D01*
X166900814Y-89090609D01*
X166769711Y-89178210D01*
X166769707Y-89178213D01*
X166658213Y-89289707D01*
X166658210Y-89289711D01*
X166570609Y-89420814D01*
X166570602Y-89420827D01*
X166510264Y-89566498D01*
X166510261Y-89566510D01*
X166479500Y-89721154D01*
X165840924Y-89721154D01*
X165851789Y-89710289D01*
X165892407Y-89649500D01*
X165894629Y-89646175D01*
X165939390Y-89579185D01*
X165939390Y-89579184D01*
X165939394Y-89579179D01*
X165945990Y-89563256D01*
X165955285Y-89540814D01*
X165999737Y-89433497D01*
X166030500Y-89278842D01*
X166030500Y-89121158D01*
X166030500Y-89121155D01*
X166030499Y-89121153D01*
X166011847Y-89027385D01*
X165999737Y-88966503D01*
X165975801Y-88908716D01*
X165939397Y-88820827D01*
X165939390Y-88820814D01*
X165851789Y-88689711D01*
X165851786Y-88689707D01*
X165740292Y-88578213D01*
X165740288Y-88578210D01*
X165609185Y-88490609D01*
X165609172Y-88490602D01*
X165463501Y-88430264D01*
X165463489Y-88430261D01*
X165308845Y-88399500D01*
X165308842Y-88399500D01*
X165151158Y-88399500D01*
X165151155Y-88399500D01*
X164996510Y-88430261D01*
X164996498Y-88430264D01*
X164850827Y-88490602D01*
X164850814Y-88490609D01*
X164719711Y-88578210D01*
X164719707Y-88578213D01*
X164608213Y-88689707D01*
X164608210Y-88689711D01*
X164520609Y-88820814D01*
X164520602Y-88820827D01*
X164460264Y-88966498D01*
X164460261Y-88966510D01*
X164429500Y-89121153D01*
X159281309Y-89121153D01*
X159310289Y-89101789D01*
X159322369Y-89089709D01*
X159384694Y-89027385D01*
X159421786Y-88990292D01*
X159421789Y-88990289D01*
X159509394Y-88859179D01*
X159569737Y-88713497D01*
X159600500Y-88558842D01*
X159600500Y-88401158D01*
X159600500Y-88401155D01*
X159600499Y-88401153D01*
X159591650Y-88356665D01*
X159569737Y-88246503D01*
X159569735Y-88246498D01*
X159509397Y-88100827D01*
X159509390Y-88100814D01*
X159421789Y-87969711D01*
X159421786Y-87969707D01*
X159310292Y-87858213D01*
X159310288Y-87858210D01*
X159179185Y-87770609D01*
X159179172Y-87770602D01*
X159033501Y-87710264D01*
X159033489Y-87710261D01*
X158878845Y-87679500D01*
X158878842Y-87679500D01*
X158721158Y-87679500D01*
X158721155Y-87679500D01*
X158566510Y-87710261D01*
X158566498Y-87710264D01*
X158420827Y-87770602D01*
X158420814Y-87770609D01*
X158289711Y-87858210D01*
X158289707Y-87858213D01*
X158178213Y-87969707D01*
X158178210Y-87969711D01*
X158090609Y-88100814D01*
X158090602Y-88100827D01*
X158030264Y-88246498D01*
X158030261Y-88246510D01*
X157999500Y-88401153D01*
X151239084Y-88401153D01*
X151241989Y-88398636D01*
X151293500Y-88387430D01*
X151457152Y-88387430D01*
X151457153Y-88387429D01*
X151611805Y-88356667D01*
X151757487Y-88296324D01*
X151888597Y-88208719D01*
X152000097Y-88097219D01*
X152087702Y-87966109D01*
X152148045Y-87820427D01*
X152178808Y-87665772D01*
X152178808Y-87574347D01*
X152198493Y-87507308D01*
X152217411Y-87486056D01*
X152216716Y-87485361D01*
X152221020Y-87481056D01*
X152221024Y-87481054D01*
X152332524Y-87369554D01*
X152420129Y-87238444D01*
X152480472Y-87092762D01*
X152511235Y-86938107D01*
X152511235Y-86780423D01*
X152511235Y-86780420D01*
X152511234Y-86780418D01*
X152480472Y-86625768D01*
X152445153Y-86540499D01*
X152430635Y-86505449D01*
X152423166Y-86435980D01*
X152454441Y-86373501D01*
X152514530Y-86337849D01*
X152584356Y-86340343D01*
X152614087Y-86354894D01*
X152620821Y-86359394D01*
X152620823Y-86359395D01*
X152620827Y-86359397D01*
X152766498Y-86419735D01*
X152766503Y-86419737D01*
X152848162Y-86435980D01*
X152921153Y-86450499D01*
X152921156Y-86450500D01*
X152921158Y-86450500D01*
X153078844Y-86450500D01*
X153078845Y-86450499D01*
X153233497Y-86419737D01*
X153379179Y-86359394D01*
X153510289Y-86271789D01*
X153621789Y-86160289D01*
X153709394Y-86029179D01*
X153769737Y-85883497D01*
X153800500Y-85728842D01*
X153800500Y-85571941D01*
X153820185Y-85504902D01*
X153872989Y-85459147D01*
X153942147Y-85449203D01*
X154005703Y-85478228D01*
X154012181Y-85484260D01*
X154099707Y-85571786D01*
X154099711Y-85571789D01*
X154230814Y-85659390D01*
X154230827Y-85659397D01*
X154376498Y-85719735D01*
X154376503Y-85719737D01*
X154531153Y-85750499D01*
X154531156Y-85750500D01*
X154531158Y-85750500D01*
X154688844Y-85750500D01*
X154688845Y-85750499D01*
X154843497Y-85719737D01*
X154956166Y-85673067D01*
X154984932Y-85661153D01*
X157969500Y-85661153D01*
X157969500Y-85818846D01*
X158000261Y-85973489D01*
X158000264Y-85973501D01*
X158060602Y-86119172D01*
X158060609Y-86119185D01*
X158148210Y-86250288D01*
X158148213Y-86250292D01*
X158259707Y-86361786D01*
X158259711Y-86361789D01*
X158390814Y-86449390D01*
X158390827Y-86449397D01*
X158522131Y-86503784D01*
X158536503Y-86509737D01*
X158691153Y-86540499D01*
X158691156Y-86540500D01*
X158691158Y-86540500D01*
X158848844Y-86540500D01*
X158848845Y-86540499D01*
X159003497Y-86509737D01*
X159149179Y-86449394D01*
X159280289Y-86361789D01*
X159391789Y-86250289D01*
X159479394Y-86119179D01*
X159539737Y-85973497D01*
X159570500Y-85818842D01*
X159570500Y-85661158D01*
X159570500Y-85661155D01*
X159570499Y-85661153D01*
X159558172Y-85599181D01*
X159539737Y-85506503D01*
X159528025Y-85478228D01*
X159479397Y-85360827D01*
X159479390Y-85360814D01*
X159391789Y-85229711D01*
X159391786Y-85229707D01*
X159280292Y-85118213D01*
X159280288Y-85118210D01*
X159149185Y-85030609D01*
X159149172Y-85030602D01*
X159003501Y-84970264D01*
X159003489Y-84970261D01*
X158848845Y-84939500D01*
X158848842Y-84939500D01*
X158691158Y-84939500D01*
X158691155Y-84939500D01*
X158536510Y-84970261D01*
X158536498Y-84970264D01*
X158390827Y-85030602D01*
X158390814Y-85030609D01*
X158259711Y-85118210D01*
X158259707Y-85118213D01*
X158148213Y-85229707D01*
X158148210Y-85229711D01*
X158060609Y-85360814D01*
X158060602Y-85360827D01*
X158000264Y-85506498D01*
X158000261Y-85506510D01*
X157969500Y-85661153D01*
X154984932Y-85661153D01*
X154989172Y-85659397D01*
X154989172Y-85659396D01*
X154989179Y-85659394D01*
X155120289Y-85571789D01*
X155120925Y-85571153D01*
X155124694Y-85567385D01*
X155231786Y-85460292D01*
X155231789Y-85460289D01*
X155319394Y-85329179D01*
X155379737Y-85183497D01*
X155410500Y-85028842D01*
X155410500Y-84871158D01*
X155410500Y-84871155D01*
X155410499Y-84871153D01*
X155404467Y-84840827D01*
X155379737Y-84716503D01*
X155330740Y-84598213D01*
X155319397Y-84570827D01*
X155319390Y-84570814D01*
X155231789Y-84439711D01*
X155231786Y-84439707D01*
X155120292Y-84328213D01*
X155120288Y-84328210D01*
X154989185Y-84240609D01*
X154989172Y-84240602D01*
X154843501Y-84180264D01*
X154843489Y-84180261D01*
X154688845Y-84149500D01*
X154688842Y-84149500D01*
X154531158Y-84149500D01*
X154531155Y-84149500D01*
X154376510Y-84180261D01*
X154376498Y-84180264D01*
X154230827Y-84240602D01*
X154230814Y-84240609D01*
X154099711Y-84328210D01*
X154099707Y-84328213D01*
X153988213Y-84439707D01*
X153988210Y-84439711D01*
X153900609Y-84570814D01*
X153900602Y-84570827D01*
X153840264Y-84716498D01*
X153840261Y-84716510D01*
X153809500Y-84871153D01*
X153809500Y-85028059D01*
X153789815Y-85095098D01*
X153737011Y-85140853D01*
X153667853Y-85150797D01*
X153604297Y-85121772D01*
X153597819Y-85115740D01*
X153510292Y-85028213D01*
X153510288Y-85028210D01*
X153379185Y-84940609D01*
X153379172Y-84940602D01*
X153233501Y-84880264D01*
X153233489Y-84880261D01*
X153078845Y-84849500D01*
X153078842Y-84849500D01*
X152921158Y-84849500D01*
X152921155Y-84849500D01*
X152766510Y-84880261D01*
X152766498Y-84880264D01*
X152620827Y-84940602D01*
X152620814Y-84940609D01*
X152489711Y-85028210D01*
X152489707Y-85028213D01*
X152378213Y-85139707D01*
X152378210Y-85139711D01*
X152290609Y-85270814D01*
X152290602Y-85270827D01*
X152230264Y-85416498D01*
X152230261Y-85416510D01*
X152199500Y-85571153D01*
X152199500Y-85728846D01*
X152230261Y-85883489D01*
X152230264Y-85883501D01*
X152280099Y-86003815D01*
X152287568Y-86073285D01*
X152256292Y-86135764D01*
X152196203Y-86171415D01*
X152126378Y-86168921D01*
X152096648Y-86154370D01*
X152089918Y-86149873D01*
X152089907Y-86149867D01*
X151944236Y-86089529D01*
X151944224Y-86089526D01*
X151789580Y-86058765D01*
X151789577Y-86058765D01*
X151631893Y-86058765D01*
X151631890Y-86058765D01*
X151477245Y-86089526D01*
X151477233Y-86089529D01*
X151331562Y-86149867D01*
X151331549Y-86149874D01*
X151200446Y-86237475D01*
X151195736Y-86241341D01*
X151194541Y-86239884D01*
X151140917Y-86269166D01*
X151114559Y-86272000D01*
X151058441Y-86272000D01*
X151018136Y-86282799D01*
X151018137Y-86282800D01*
X150905714Y-86312923D01*
X150905709Y-86312926D01*
X150768790Y-86391975D01*
X150768782Y-86391981D01*
X150088481Y-87072282D01*
X150088477Y-87072287D01*
X150043900Y-87149499D01*
X150043900Y-87149500D01*
X150009423Y-87209214D01*
X149968497Y-87361951D01*
X149968223Y-87364035D01*
X149967503Y-87365662D01*
X149966396Y-87369794D01*
X149965751Y-87369621D01*
X149939954Y-87427931D01*
X149881627Y-87466399D01*
X149811762Y-87467227D01*
X149757604Y-87435525D01*
X149650292Y-87328213D01*
X149650288Y-87328210D01*
X149519185Y-87240609D01*
X149519172Y-87240602D01*
X149373501Y-87180264D01*
X149373489Y-87180261D01*
X149218845Y-87149500D01*
X149218842Y-87149500D01*
X149061158Y-87149500D01*
X149061155Y-87149500D01*
X148906510Y-87180261D01*
X148906498Y-87180264D01*
X148760827Y-87240602D01*
X148760814Y-87240609D01*
X148629711Y-87328210D01*
X148629707Y-87328213D01*
X148518213Y-87439707D01*
X148518210Y-87439711D01*
X148430609Y-87570814D01*
X148430602Y-87570827D01*
X148370264Y-87716498D01*
X148370261Y-87716510D01*
X148339500Y-87871153D01*
X142010500Y-87871153D01*
X142010500Y-86161153D01*
X143349500Y-86161153D01*
X143349500Y-86318846D01*
X143380261Y-86473489D01*
X143380264Y-86473501D01*
X143440602Y-86619172D01*
X143440609Y-86619185D01*
X143528210Y-86750288D01*
X143528213Y-86750292D01*
X143639707Y-86861786D01*
X143639711Y-86861789D01*
X143770814Y-86949390D01*
X143770827Y-86949397D01*
X143892363Y-86999738D01*
X143916503Y-87009737D01*
X144071153Y-87040499D01*
X144071156Y-87040500D01*
X144071158Y-87040500D01*
X144228844Y-87040500D01*
X144228845Y-87040499D01*
X144383497Y-87009737D01*
X144529179Y-86949394D01*
X144583594Y-86913034D01*
X144650266Y-86892157D01*
X144717647Y-86910640D01*
X144721358Y-86913025D01*
X144760821Y-86939394D01*
X144760824Y-86939395D01*
X144760825Y-86939396D01*
X144811727Y-86960480D01*
X144906503Y-86999737D01*
X145061153Y-87030499D01*
X145061156Y-87030500D01*
X145061158Y-87030500D01*
X145218844Y-87030500D01*
X145218845Y-87030499D01*
X145373497Y-86999737D01*
X145486166Y-86953067D01*
X145519172Y-86939397D01*
X145519172Y-86939396D01*
X145519179Y-86939394D01*
X145650289Y-86851789D01*
X145761789Y-86740289D01*
X145849394Y-86609179D01*
X145909737Y-86463497D01*
X145940500Y-86308842D01*
X145940500Y-86151158D01*
X145940500Y-86151155D01*
X145940499Y-86151153D01*
X145934139Y-86119179D01*
X145909737Y-85996503D01*
X145900208Y-85973497D01*
X145849397Y-85850827D01*
X145849395Y-85850823D01*
X145849394Y-85850821D01*
X145816354Y-85801373D01*
X145795476Y-85734696D01*
X145813960Y-85667316D01*
X145816315Y-85663650D01*
X145859394Y-85599179D01*
X145919737Y-85453497D01*
X145950500Y-85298842D01*
X145950500Y-85141158D01*
X145950500Y-85141155D01*
X145950499Y-85141153D01*
X145945936Y-85118213D01*
X145919737Y-84986503D01*
X145913010Y-84970263D01*
X145859397Y-84840827D01*
X145859390Y-84840814D01*
X145771789Y-84709711D01*
X145771786Y-84709707D01*
X145660292Y-84598213D01*
X145660288Y-84598210D01*
X145529185Y-84510609D01*
X145529172Y-84510602D01*
X145383501Y-84450264D01*
X145383489Y-84450261D01*
X145228845Y-84419500D01*
X145228842Y-84419500D01*
X145071158Y-84419500D01*
X145071155Y-84419500D01*
X144916510Y-84450261D01*
X144916498Y-84450264D01*
X144770827Y-84510602D01*
X144770814Y-84510609D01*
X144639711Y-84598210D01*
X144639707Y-84598213D01*
X144528213Y-84709707D01*
X144528210Y-84709711D01*
X144440609Y-84840814D01*
X144440602Y-84840827D01*
X144380264Y-84986498D01*
X144380261Y-84986510D01*
X144349500Y-85141153D01*
X144349500Y-85298843D01*
X144349944Y-85303354D01*
X144336921Y-85371999D01*
X144288853Y-85422706D01*
X144226540Y-85439500D01*
X144071155Y-85439500D01*
X143916510Y-85470261D01*
X143916498Y-85470264D01*
X143770827Y-85530602D01*
X143770814Y-85530609D01*
X143639711Y-85618210D01*
X143639707Y-85618213D01*
X143528213Y-85729707D01*
X143528210Y-85729711D01*
X143440609Y-85860814D01*
X143440602Y-85860827D01*
X143380264Y-86006498D01*
X143380261Y-86006510D01*
X143349500Y-86161153D01*
X142010500Y-86161153D01*
X142010500Y-83201153D01*
X144049500Y-83201153D01*
X144049500Y-83358846D01*
X144080261Y-83513489D01*
X144080264Y-83513501D01*
X144140602Y-83659172D01*
X144140609Y-83659185D01*
X144228210Y-83790288D01*
X144228213Y-83790292D01*
X144339707Y-83901786D01*
X144339711Y-83901789D01*
X144470814Y-83989390D01*
X144470827Y-83989397D01*
X144616498Y-84049735D01*
X144616503Y-84049737D01*
X144771153Y-84080499D01*
X144771156Y-84080500D01*
X144771158Y-84080500D01*
X144928844Y-84080500D01*
X144928845Y-84080499D01*
X145083497Y-84049737D01*
X145229179Y-83989394D01*
X145360289Y-83901789D01*
X145471789Y-83790289D01*
X145559394Y-83659179D01*
X145619737Y-83513497D01*
X145650500Y-83358842D01*
X145650500Y-83201158D01*
X145650500Y-83201155D01*
X145650499Y-83201153D01*
X145619737Y-83046503D01*
X145590745Y-82976510D01*
X145559397Y-82900827D01*
X145559390Y-82900814D01*
X145471789Y-82769711D01*
X145471786Y-82769707D01*
X145360292Y-82658213D01*
X145360288Y-82658210D01*
X145229185Y-82570609D01*
X145229172Y-82570602D01*
X145083501Y-82510264D01*
X145083489Y-82510261D01*
X144928845Y-82479500D01*
X144928842Y-82479500D01*
X144771158Y-82479500D01*
X144771155Y-82479500D01*
X144616510Y-82510261D01*
X144616498Y-82510264D01*
X144470827Y-82570602D01*
X144470814Y-82570609D01*
X144339711Y-82658210D01*
X144339707Y-82658213D01*
X144228213Y-82769707D01*
X144228210Y-82769711D01*
X144140609Y-82900814D01*
X144140602Y-82900827D01*
X144080264Y-83046498D01*
X144080261Y-83046510D01*
X144049500Y-83201153D01*
X142010500Y-83201153D01*
X142010500Y-82281153D01*
X148849500Y-82281153D01*
X148849500Y-82438846D01*
X148880261Y-82593489D01*
X148880264Y-82593501D01*
X148940602Y-82739172D01*
X148940609Y-82739185D01*
X149028210Y-82870288D01*
X149028213Y-82870292D01*
X149139707Y-82981786D01*
X149139711Y-82981789D01*
X149270814Y-83069390D01*
X149270827Y-83069397D01*
X149416498Y-83129735D01*
X149416503Y-83129737D01*
X149571153Y-83160499D01*
X149571156Y-83160500D01*
X149571158Y-83160500D01*
X149728844Y-83160500D01*
X149728845Y-83160499D01*
X149876378Y-83131153D01*
X159979500Y-83131153D01*
X159979500Y-83288846D01*
X160010261Y-83443489D01*
X160010264Y-83443501D01*
X160070602Y-83589172D01*
X160070609Y-83589185D01*
X160158210Y-83720288D01*
X160158213Y-83720292D01*
X160269707Y-83831786D01*
X160269711Y-83831789D01*
X160400814Y-83919390D01*
X160400827Y-83919397D01*
X160546498Y-83979735D01*
X160546503Y-83979737D01*
X160701153Y-84010499D01*
X160701156Y-84010500D01*
X160701158Y-84010500D01*
X160858844Y-84010500D01*
X160858845Y-84010499D01*
X161013497Y-83979737D01*
X161159179Y-83919394D01*
X161290289Y-83831789D01*
X161401789Y-83720289D01*
X161489394Y-83589179D01*
X161549737Y-83443497D01*
X161580500Y-83288842D01*
X161580500Y-83131158D01*
X161580500Y-83131155D01*
X161580499Y-83131153D01*
X161550788Y-82981789D01*
X161549737Y-82976503D01*
X161549735Y-82976498D01*
X161489397Y-82830827D01*
X161489390Y-82830814D01*
X161401789Y-82699711D01*
X161401786Y-82699707D01*
X161290292Y-82588213D01*
X161290288Y-82588210D01*
X161159185Y-82500609D01*
X161159172Y-82500602D01*
X161013501Y-82440264D01*
X161013489Y-82440261D01*
X160858845Y-82409500D01*
X160858842Y-82409500D01*
X160701158Y-82409500D01*
X160701155Y-82409500D01*
X160546510Y-82440261D01*
X160546498Y-82440264D01*
X160400827Y-82500602D01*
X160400814Y-82500609D01*
X160269711Y-82588210D01*
X160269707Y-82588213D01*
X160158213Y-82699707D01*
X160158210Y-82699711D01*
X160070609Y-82830814D01*
X160070602Y-82830827D01*
X160010264Y-82976498D01*
X160010261Y-82976510D01*
X159979500Y-83131153D01*
X149876378Y-83131153D01*
X149883497Y-83129737D01*
X150029179Y-83069394D01*
X150029185Y-83069390D01*
X150100164Y-83021964D01*
X150131224Y-83001209D01*
X150160289Y-82981789D01*
X150271789Y-82870289D01*
X150359394Y-82739179D01*
X150419737Y-82593497D01*
X150450500Y-82438842D01*
X150450500Y-82281158D01*
X150450500Y-82281155D01*
X150450499Y-82281153D01*
X150419738Y-82126510D01*
X150419737Y-82126503D01*
X150419735Y-82126498D01*
X150359397Y-81980827D01*
X150359390Y-81980814D01*
X150271789Y-81849711D01*
X150271786Y-81849707D01*
X150160292Y-81738213D01*
X150160288Y-81738210D01*
X150029185Y-81650609D01*
X150029172Y-81650602D01*
X149883501Y-81590264D01*
X149883489Y-81590261D01*
X149728845Y-81559500D01*
X149728842Y-81559500D01*
X149571158Y-81559500D01*
X149571155Y-81559500D01*
X149416510Y-81590261D01*
X149416498Y-81590264D01*
X149270827Y-81650602D01*
X149270814Y-81650609D01*
X149139711Y-81738210D01*
X149139707Y-81738213D01*
X149028213Y-81849707D01*
X149028210Y-81849711D01*
X148940609Y-81980814D01*
X148940602Y-81980827D01*
X148880264Y-82126498D01*
X148880261Y-82126510D01*
X148849500Y-82281153D01*
X142010500Y-82281153D01*
X142010500Y-80921153D01*
X144119500Y-80921153D01*
X144119500Y-81078846D01*
X144150261Y-81233489D01*
X144150264Y-81233501D01*
X144210602Y-81379172D01*
X144210609Y-81379185D01*
X144298210Y-81510288D01*
X144298213Y-81510292D01*
X144409707Y-81621786D01*
X144409711Y-81621789D01*
X144540814Y-81709390D01*
X144540827Y-81709397D01*
X144686498Y-81769735D01*
X144686503Y-81769737D01*
X144841153Y-81800499D01*
X144841156Y-81800500D01*
X144841158Y-81800500D01*
X144998844Y-81800500D01*
X144998845Y-81800499D01*
X145153497Y-81769737D01*
X145299179Y-81709394D01*
X145430289Y-81621789D01*
X145541789Y-81510289D01*
X145629394Y-81379179D01*
X145689737Y-81233497D01*
X145720500Y-81078842D01*
X145720500Y-80921158D01*
X145720500Y-80921155D01*
X145720499Y-80921153D01*
X145689738Y-80766510D01*
X145689737Y-80766503D01*
X145653797Y-80679735D01*
X145629397Y-80620827D01*
X145629390Y-80620814D01*
X145541789Y-80489711D01*
X145541786Y-80489707D01*
X145430292Y-80378213D01*
X145430288Y-80378210D01*
X145299185Y-80290609D01*
X145299172Y-80290602D01*
X145153501Y-80230264D01*
X145153489Y-80230261D01*
X144998845Y-80199500D01*
X144998842Y-80199500D01*
X144841158Y-80199500D01*
X144841155Y-80199500D01*
X144686510Y-80230261D01*
X144686498Y-80230264D01*
X144540827Y-80290602D01*
X144540814Y-80290609D01*
X144409711Y-80378210D01*
X144409707Y-80378213D01*
X144298213Y-80489707D01*
X144298210Y-80489711D01*
X144210609Y-80620814D01*
X144210602Y-80620827D01*
X144150264Y-80766498D01*
X144150261Y-80766510D01*
X144119500Y-80921153D01*
X142010500Y-80921153D01*
X142010500Y-79831153D01*
X150489500Y-79831153D01*
X150489500Y-79988846D01*
X150520261Y-80143489D01*
X150520264Y-80143501D01*
X150580602Y-80289172D01*
X150580609Y-80289185D01*
X150668210Y-80420288D01*
X150668213Y-80420292D01*
X150779707Y-80531786D01*
X150779711Y-80531789D01*
X150910814Y-80619390D01*
X150910827Y-80619397D01*
X151056498Y-80679735D01*
X151056503Y-80679737D01*
X151211153Y-80710499D01*
X151211156Y-80710500D01*
X151211158Y-80710500D01*
X151368844Y-80710500D01*
X151368845Y-80710499D01*
X151523497Y-80679737D01*
X151636166Y-80633067D01*
X151669172Y-80619397D01*
X151669172Y-80619396D01*
X151669179Y-80619394D01*
X151800289Y-80531789D01*
X151911789Y-80420289D01*
X151999394Y-80289179D01*
X152059737Y-80143497D01*
X152090500Y-79988842D01*
X152090500Y-79831158D01*
X152090500Y-79831155D01*
X152090499Y-79831153D01*
X152059738Y-79676510D01*
X152059737Y-79676503D01*
X151999794Y-79531786D01*
X151999397Y-79530827D01*
X151999390Y-79530814D01*
X151911789Y-79399711D01*
X151911786Y-79399707D01*
X151800292Y-79288213D01*
X151800288Y-79288210D01*
X151669185Y-79200609D01*
X151669172Y-79200602D01*
X151523501Y-79140264D01*
X151523489Y-79140261D01*
X151368845Y-79109500D01*
X151368842Y-79109500D01*
X151211158Y-79109500D01*
X151211155Y-79109500D01*
X151056510Y-79140261D01*
X151056498Y-79140264D01*
X150910827Y-79200602D01*
X150910814Y-79200609D01*
X150779711Y-79288210D01*
X150779707Y-79288213D01*
X150668213Y-79399707D01*
X150668210Y-79399711D01*
X150580609Y-79530814D01*
X150580602Y-79530827D01*
X150520264Y-79676498D01*
X150520261Y-79676510D01*
X150489500Y-79831153D01*
X142010500Y-79831153D01*
X142010500Y-78831153D01*
X144169500Y-78831153D01*
X144169500Y-78988846D01*
X144200261Y-79143489D01*
X144200264Y-79143501D01*
X144260602Y-79289172D01*
X144260609Y-79289185D01*
X144348210Y-79420288D01*
X144348213Y-79420292D01*
X144459707Y-79531786D01*
X144459711Y-79531789D01*
X144590814Y-79619390D01*
X144590827Y-79619397D01*
X144728683Y-79676498D01*
X144736503Y-79679737D01*
X144891153Y-79710499D01*
X144891156Y-79710500D01*
X144891158Y-79710500D01*
X145048844Y-79710500D01*
X145048845Y-79710499D01*
X145059179Y-79708443D01*
X145084287Y-79703450D01*
X145084292Y-79703449D01*
X145169800Y-79686439D01*
X145203497Y-79679737D01*
X145349179Y-79619394D01*
X145480289Y-79531789D01*
X145591789Y-79420289D01*
X145679394Y-79289179D01*
X145739737Y-79143497D01*
X145770500Y-78988842D01*
X145770500Y-78831158D01*
X145770500Y-78831155D01*
X145770499Y-78831153D01*
X145739738Y-78676510D01*
X145739737Y-78676503D01*
X145739735Y-78676498D01*
X145679397Y-78530827D01*
X145679390Y-78530814D01*
X145591789Y-78399711D01*
X145591786Y-78399707D01*
X145480292Y-78288213D01*
X145480288Y-78288210D01*
X145349185Y-78200609D01*
X145349172Y-78200602D01*
X145203501Y-78140264D01*
X145203489Y-78140261D01*
X145048845Y-78109500D01*
X145048842Y-78109500D01*
X144891158Y-78109500D01*
X144891155Y-78109500D01*
X144736510Y-78140261D01*
X144736498Y-78140264D01*
X144590827Y-78200602D01*
X144590814Y-78200609D01*
X144459711Y-78288210D01*
X144459707Y-78288213D01*
X144348213Y-78399707D01*
X144348210Y-78399711D01*
X144260609Y-78530814D01*
X144260602Y-78530827D01*
X144200264Y-78676498D01*
X144200261Y-78676510D01*
X144169500Y-78831153D01*
X142010500Y-78831153D01*
X142010500Y-76201153D01*
X148209500Y-76201153D01*
X148209500Y-76358846D01*
X148240261Y-76513489D01*
X148240264Y-76513501D01*
X148300602Y-76659172D01*
X148300609Y-76659185D01*
X148388210Y-76790288D01*
X148388213Y-76790292D01*
X148499708Y-76901787D01*
X148501840Y-76903537D01*
X148502655Y-76904734D01*
X148504018Y-76906097D01*
X148503759Y-76906355D01*
X148541172Y-76961284D01*
X148543039Y-77031129D01*
X148510855Y-77087066D01*
X148498210Y-77099711D01*
X148410609Y-77230814D01*
X148410602Y-77230827D01*
X148350264Y-77376498D01*
X148350261Y-77376510D01*
X148319500Y-77531153D01*
X148319500Y-77688846D01*
X148350261Y-77843489D01*
X148350264Y-77843501D01*
X148410602Y-77989172D01*
X148410609Y-77989185D01*
X148498210Y-78120288D01*
X148498213Y-78120292D01*
X148609707Y-78231786D01*
X148609711Y-78231789D01*
X148740814Y-78319390D01*
X148740827Y-78319397D01*
X148886498Y-78379735D01*
X148886503Y-78379737D01*
X149041153Y-78410499D01*
X149041156Y-78410500D01*
X149041158Y-78410500D01*
X149198844Y-78410500D01*
X149198845Y-78410499D01*
X149353497Y-78379737D01*
X149499179Y-78319394D01*
X149630289Y-78231789D01*
X149741789Y-78120289D01*
X149829394Y-77989179D01*
X149889737Y-77843497D01*
X149920500Y-77688842D01*
X149920500Y-77531158D01*
X149920500Y-77531155D01*
X149920499Y-77531153D01*
X149889738Y-77376510D01*
X149889737Y-77376503D01*
X149889735Y-77376498D01*
X149829397Y-77230827D01*
X149829390Y-77230814D01*
X149741789Y-77099711D01*
X149741786Y-77099707D01*
X149630289Y-76988210D01*
X149628158Y-76986461D01*
X149627342Y-76985263D01*
X149625982Y-76983903D01*
X149626240Y-76983644D01*
X149588827Y-76928713D01*
X149586960Y-76858868D01*
X149619147Y-76802930D01*
X149631789Y-76790289D01*
X149719394Y-76659179D01*
X149779737Y-76513497D01*
X149810500Y-76358842D01*
X149810500Y-76201158D01*
X149810500Y-76201155D01*
X149810499Y-76201153D01*
X149779738Y-76046510D01*
X149779737Y-76046503D01*
X149779735Y-76046498D01*
X149719397Y-75900827D01*
X149719390Y-75900814D01*
X149631789Y-75769711D01*
X149631786Y-75769707D01*
X149520292Y-75658213D01*
X149520288Y-75658210D01*
X149389185Y-75570609D01*
X149389172Y-75570602D01*
X149243501Y-75510264D01*
X149243489Y-75510261D01*
X149088845Y-75479500D01*
X149088842Y-75479500D01*
X148931158Y-75479500D01*
X148931155Y-75479500D01*
X148776510Y-75510261D01*
X148776498Y-75510264D01*
X148630827Y-75570602D01*
X148630814Y-75570609D01*
X148499711Y-75658210D01*
X148499707Y-75658213D01*
X148388213Y-75769707D01*
X148388210Y-75769711D01*
X148300609Y-75900814D01*
X148300602Y-75900827D01*
X148240264Y-76046498D01*
X148240261Y-76046510D01*
X148209500Y-76201153D01*
X142010500Y-76201153D01*
X142010500Y-71291153D01*
X143799500Y-71291153D01*
X143799500Y-71448846D01*
X143830261Y-71603489D01*
X143830264Y-71603501D01*
X143890602Y-71749171D01*
X143890603Y-71749172D01*
X143890606Y-71749179D01*
X143890609Y-71749184D01*
X143890610Y-71749185D01*
X143905260Y-71771112D01*
X143926136Y-71837790D01*
X143907649Y-71905170D01*
X143905260Y-71908888D01*
X143890610Y-71930814D01*
X143890602Y-71930828D01*
X143830264Y-72076498D01*
X143830261Y-72076510D01*
X143799500Y-72231153D01*
X143799500Y-72388846D01*
X143830261Y-72543489D01*
X143830264Y-72543501D01*
X143890602Y-72689172D01*
X143890609Y-72689185D01*
X143978210Y-72820288D01*
X143978213Y-72820292D01*
X144089707Y-72931786D01*
X144089711Y-72931789D01*
X144220814Y-73019390D01*
X144220827Y-73019397D01*
X144366498Y-73079735D01*
X144366503Y-73079737D01*
X144521153Y-73110499D01*
X144521156Y-73110500D01*
X144521158Y-73110500D01*
X144678844Y-73110500D01*
X144678845Y-73110499D01*
X144833497Y-73079737D01*
X144979179Y-73019394D01*
X145110289Y-72931789D01*
X145221789Y-72820289D01*
X145309394Y-72689179D01*
X145369737Y-72543497D01*
X145400500Y-72388842D01*
X145400500Y-72231158D01*
X145400500Y-72231155D01*
X145400499Y-72231153D01*
X145369738Y-72076510D01*
X145369737Y-72076503D01*
X145309397Y-71930828D01*
X145309397Y-71930827D01*
X145309389Y-71930812D01*
X145294742Y-71908892D01*
X145273863Y-71842215D01*
X145292347Y-71774835D01*
X145294742Y-71771108D01*
X145309389Y-71749187D01*
X145309390Y-71749184D01*
X145309394Y-71749179D01*
X145369737Y-71603497D01*
X145400500Y-71448842D01*
X145400500Y-71291158D01*
X145400500Y-71291155D01*
X145400499Y-71291153D01*
X145369738Y-71136510D01*
X145369737Y-71136503D01*
X145309394Y-70990821D01*
X145309392Y-70990818D01*
X145307480Y-70986202D01*
X145300011Y-70916732D01*
X145316955Y-70874776D01*
X145316525Y-70874546D01*
X145318667Y-70870538D01*
X145318944Y-70869850D01*
X145319394Y-70869179D01*
X145379737Y-70723497D01*
X145410500Y-70568842D01*
X145410500Y-70411158D01*
X145410500Y-70411155D01*
X145410499Y-70411153D01*
X145403555Y-70376242D01*
X145379737Y-70256503D01*
X145339427Y-70159185D01*
X145319397Y-70110827D01*
X145319390Y-70110814D01*
X145231789Y-69979711D01*
X145231786Y-69979707D01*
X145120292Y-69868213D01*
X145120288Y-69868210D01*
X144989185Y-69780609D01*
X144989172Y-69780602D01*
X144843501Y-69720264D01*
X144843489Y-69720261D01*
X144688845Y-69689500D01*
X144688842Y-69689500D01*
X144531158Y-69689500D01*
X144531155Y-69689500D01*
X144376510Y-69720261D01*
X144376498Y-69720264D01*
X144230827Y-69780602D01*
X144230814Y-69780609D01*
X144099711Y-69868210D01*
X144099707Y-69868213D01*
X143988213Y-69979707D01*
X143988210Y-69979711D01*
X143900609Y-70110814D01*
X143900602Y-70110827D01*
X143840264Y-70256498D01*
X143840261Y-70256510D01*
X143809500Y-70411153D01*
X143809500Y-70568846D01*
X143840261Y-70723489D01*
X143840264Y-70723501D01*
X143902518Y-70873798D01*
X143909987Y-70943268D01*
X143893050Y-70985218D01*
X143893479Y-70985447D01*
X143891350Y-70989429D01*
X143891070Y-70990124D01*
X143890615Y-70990804D01*
X143890602Y-70990828D01*
X143830264Y-71136498D01*
X143830261Y-71136510D01*
X143799500Y-71291153D01*
X142010500Y-71291153D01*
X142010500Y-66862567D01*
X142030185Y-66795528D01*
X142082989Y-66749773D01*
X142152147Y-66739829D01*
X142215703Y-66768854D01*
X142253159Y-66826569D01*
X142315005Y-67030446D01*
X142341614Y-67118165D01*
X142480754Y-67454078D01*
X142480756Y-67454083D01*
X142652140Y-67774720D01*
X142652151Y-67774738D01*
X142854140Y-68077035D01*
X142854150Y-68077049D01*
X143084807Y-68358106D01*
X143341893Y-68615192D01*
X143341898Y-68615196D01*
X143341899Y-68615197D01*
X143622956Y-68845854D01*
X143925268Y-69047853D01*
X143925277Y-69047858D01*
X143925279Y-69047859D01*
X144245916Y-69219243D01*
X144245918Y-69219243D01*
X144245924Y-69219247D01*
X144581836Y-69358386D01*
X144929767Y-69463930D01*
X144929773Y-69463931D01*
X144929776Y-69463932D01*
X144929787Y-69463935D01*
X145252972Y-69528219D01*
X145286369Y-69534862D01*
X145648206Y-69570500D01*
X145648209Y-69570500D01*
X146011791Y-69570500D01*
X146011794Y-69570500D01*
X146373631Y-69534862D01*
X146470529Y-69515588D01*
X146730212Y-69463935D01*
X146730223Y-69463932D01*
X146730223Y-69463931D01*
X146730233Y-69463930D01*
X147078164Y-69358386D01*
X147414076Y-69219247D01*
X147734732Y-69047853D01*
X148037044Y-68845854D01*
X148089342Y-68802934D01*
X158934500Y-68802934D01*
X158934500Y-68997065D01*
X158972371Y-69187454D01*
X158972373Y-69187460D01*
X159043172Y-69358385D01*
X159046662Y-69366809D01*
X159069383Y-69400814D01*
X159154513Y-69528221D01*
X159291778Y-69665486D01*
X159291781Y-69665488D01*
X159453191Y-69773338D01*
X159632540Y-69847627D01*
X159632544Y-69847627D01*
X159632545Y-69847628D01*
X159822934Y-69885500D01*
X159822937Y-69885500D01*
X160017065Y-69885500D01*
X160151079Y-69858842D01*
X160207460Y-69847627D01*
X160386809Y-69773338D01*
X160494842Y-69701153D01*
X165149500Y-69701153D01*
X165149500Y-69858846D01*
X165180261Y-70013489D01*
X165180264Y-70013501D01*
X165240602Y-70159172D01*
X165240609Y-70159185D01*
X165328210Y-70290288D01*
X165328213Y-70290292D01*
X165439707Y-70401786D01*
X165439711Y-70401789D01*
X165570814Y-70489390D01*
X165570827Y-70489397D01*
X165716498Y-70549735D01*
X165716503Y-70549737D01*
X165871153Y-70580499D01*
X165871156Y-70580500D01*
X165871158Y-70580500D01*
X166028844Y-70580500D01*
X166028845Y-70580499D01*
X166183497Y-70549737D01*
X166329179Y-70489394D01*
X166460289Y-70401789D01*
X166460293Y-70401784D01*
X166464999Y-70397924D01*
X166466501Y-70399755D01*
X166518597Y-70371284D01*
X166588290Y-70376242D01*
X166623974Y-70399175D01*
X166625001Y-70397924D01*
X166629711Y-70401789D01*
X166760814Y-70489390D01*
X166760827Y-70489397D01*
X166906498Y-70549735D01*
X166906503Y-70549737D01*
X167061153Y-70580499D01*
X167061156Y-70580500D01*
X167061158Y-70580500D01*
X167218844Y-70580500D01*
X167218845Y-70580499D01*
X167373497Y-70549737D01*
X167519179Y-70489394D01*
X167650289Y-70401789D01*
X167761789Y-70290289D01*
X167849394Y-70159179D01*
X167909737Y-70013497D01*
X167940500Y-69858842D01*
X167940500Y-69823119D01*
X167960185Y-69756080D01*
X168012989Y-69710325D01*
X168082147Y-69700381D01*
X168133388Y-69720016D01*
X168213191Y-69773338D01*
X168392540Y-69847627D01*
X168392544Y-69847627D01*
X168392545Y-69847628D01*
X168582934Y-69885500D01*
X168582937Y-69885500D01*
X168777065Y-69885500D01*
X168911079Y-69858842D01*
X168967460Y-69847627D01*
X169146809Y-69773338D01*
X169308219Y-69665488D01*
X169445488Y-69528219D01*
X169553338Y-69366809D01*
X169627627Y-69187460D01*
X169648926Y-69080384D01*
X169665500Y-68997065D01*
X169665500Y-68802934D01*
X169627628Y-68612545D01*
X169627627Y-68612544D01*
X169627627Y-68612540D01*
X169553338Y-68433191D01*
X169445488Y-68271781D01*
X169445486Y-68271778D01*
X169308221Y-68134513D01*
X169222198Y-68077035D01*
X169146809Y-68026662D01*
X168967460Y-67952373D01*
X168967454Y-67952371D01*
X168777065Y-67914500D01*
X168777063Y-67914500D01*
X168582937Y-67914500D01*
X168582935Y-67914500D01*
X168392545Y-67952371D01*
X168392539Y-67952373D01*
X168213192Y-68026661D01*
X168051778Y-68134513D01*
X167914513Y-68271778D01*
X167806661Y-68433192D01*
X167732373Y-68612539D01*
X167732371Y-68612545D01*
X167694500Y-68802934D01*
X167694500Y-68957646D01*
X167674815Y-69024685D01*
X167622011Y-69070440D01*
X167552853Y-69080384D01*
X167523048Y-69072208D01*
X167464236Y-69047848D01*
X167373497Y-69010263D01*
X167373492Y-69010262D01*
X167373489Y-69010261D01*
X167218845Y-68979500D01*
X167218842Y-68979500D01*
X167061158Y-68979500D01*
X167061155Y-68979500D01*
X166906510Y-69010261D01*
X166906498Y-69010264D01*
X166760827Y-69070602D01*
X166760814Y-69070609D01*
X166629711Y-69158210D01*
X166625001Y-69162076D01*
X166623503Y-69160251D01*
X166571358Y-69188725D01*
X166501666Y-69183741D01*
X166466019Y-69160831D01*
X166464999Y-69162076D01*
X166460288Y-69158210D01*
X166329185Y-69070609D01*
X166329172Y-69070602D01*
X166183501Y-69010264D01*
X166183489Y-69010261D01*
X166028845Y-68979500D01*
X166028842Y-68979500D01*
X165871158Y-68979500D01*
X165871155Y-68979500D01*
X165716510Y-69010261D01*
X165716498Y-69010264D01*
X165570827Y-69070602D01*
X165570814Y-69070609D01*
X165439711Y-69158210D01*
X165439707Y-69158213D01*
X165328213Y-69269707D01*
X165328210Y-69269711D01*
X165240609Y-69400814D01*
X165240602Y-69400827D01*
X165180264Y-69546498D01*
X165180261Y-69546510D01*
X165149500Y-69701153D01*
X160494842Y-69701153D01*
X160548219Y-69665488D01*
X160685488Y-69528219D01*
X160693929Y-69515584D01*
X160747536Y-69470780D01*
X160816860Y-69462069D01*
X160879889Y-69492220D01*
X160884713Y-69496792D01*
X160909707Y-69521786D01*
X160909711Y-69521789D01*
X161040814Y-69609390D01*
X161040827Y-69609397D01*
X161176240Y-69665486D01*
X161186503Y-69669737D01*
X161285858Y-69689500D01*
X161341153Y-69700499D01*
X161341156Y-69700500D01*
X161341158Y-69700500D01*
X161498844Y-69700500D01*
X161498845Y-69700499D01*
X161653497Y-69669737D01*
X161799179Y-69609394D01*
X161799186Y-69609388D01*
X161799190Y-69609387D01*
X161825262Y-69591966D01*
X161825266Y-69591964D01*
X161893309Y-69546498D01*
X161930289Y-69521789D01*
X162041789Y-69410289D01*
X162129394Y-69279179D01*
X162189737Y-69133497D01*
X162220500Y-68978842D01*
X162220500Y-68821158D01*
X162220500Y-68821155D01*
X162220499Y-68821153D01*
X162189738Y-68666510D01*
X162189737Y-68666503D01*
X162168486Y-68615197D01*
X162129397Y-68520827D01*
X162129390Y-68520814D01*
X162041789Y-68389711D01*
X162041786Y-68389707D01*
X161930292Y-68278213D01*
X161930288Y-68278210D01*
X161799185Y-68190609D01*
X161799172Y-68190602D01*
X161653501Y-68130264D01*
X161653489Y-68130261D01*
X161498845Y-68099500D01*
X161498842Y-68099500D01*
X161341158Y-68099500D01*
X161341155Y-68099500D01*
X161186510Y-68130261D01*
X161186498Y-68130264D01*
X161040827Y-68190602D01*
X161040814Y-68190609D01*
X160909711Y-68278210D01*
X160909707Y-68278213D01*
X160884714Y-68303207D01*
X160823391Y-68336692D01*
X160753699Y-68331708D01*
X160697766Y-68289836D01*
X160693930Y-68284415D01*
X160685489Y-68271782D01*
X160685485Y-68271777D01*
X160548221Y-68134513D01*
X160462198Y-68077035D01*
X160386809Y-68026662D01*
X160207460Y-67952373D01*
X160207454Y-67952371D01*
X160017065Y-67914500D01*
X160017063Y-67914500D01*
X159822937Y-67914500D01*
X159822935Y-67914500D01*
X159632545Y-67952371D01*
X159632539Y-67952373D01*
X159453192Y-68026661D01*
X159291778Y-68134513D01*
X159154513Y-68271778D01*
X159046661Y-68433192D01*
X158972373Y-68612539D01*
X158972371Y-68612545D01*
X158934500Y-68802934D01*
X148089342Y-68802934D01*
X148318101Y-68615197D01*
X148575197Y-68358101D01*
X148805854Y-68077044D01*
X149007853Y-67774732D01*
X149179247Y-67454076D01*
X149318386Y-67118164D01*
X149423930Y-66770233D01*
X149423932Y-66770223D01*
X149423935Y-66770212D01*
X149494862Y-66413630D01*
X149516947Y-66189397D01*
X149530500Y-66051794D01*
X149530500Y-65688206D01*
X149517759Y-65558842D01*
X149498886Y-65367220D01*
X149498886Y-65367218D01*
X149498289Y-65361153D01*
X156869500Y-65361153D01*
X156869500Y-65518846D01*
X156900261Y-65673489D01*
X156900264Y-65673501D01*
X156960602Y-65819172D01*
X156960609Y-65819185D01*
X157048210Y-65950288D01*
X157048213Y-65950292D01*
X157159707Y-66061786D01*
X157159711Y-66061789D01*
X157290814Y-66149390D01*
X157290827Y-66149397D01*
X157436498Y-66209735D01*
X157436503Y-66209737D01*
X157591153Y-66240499D01*
X157591156Y-66240500D01*
X157591158Y-66240500D01*
X157748844Y-66240500D01*
X157748845Y-66240499D01*
X157903497Y-66209737D01*
X158049179Y-66149394D01*
X158180289Y-66061789D01*
X158291789Y-65950289D01*
X158379394Y-65819179D01*
X158439737Y-65673497D01*
X158470500Y-65518842D01*
X158470500Y-65401153D01*
X165779500Y-65401153D01*
X165779500Y-65558846D01*
X165810261Y-65713489D01*
X165810264Y-65713501D01*
X165870602Y-65859172D01*
X165870609Y-65859185D01*
X165958210Y-65990288D01*
X165958213Y-65990292D01*
X166069707Y-66101786D01*
X166069711Y-66101789D01*
X166200814Y-66189390D01*
X166200827Y-66189397D01*
X166346498Y-66249735D01*
X166346503Y-66249737D01*
X166501153Y-66280499D01*
X166501156Y-66280500D01*
X166501158Y-66280500D01*
X166658844Y-66280500D01*
X166658845Y-66280499D01*
X166813497Y-66249737D01*
X166959179Y-66189394D01*
X167090289Y-66101789D01*
X167201789Y-65990289D01*
X167289394Y-65859179D01*
X167349737Y-65713497D01*
X167380500Y-65558842D01*
X167380500Y-65401158D01*
X167380500Y-65401155D01*
X167380499Y-65401153D01*
X167349738Y-65246510D01*
X167349737Y-65246503D01*
X167349735Y-65246498D01*
X167289397Y-65100827D01*
X167289390Y-65100814D01*
X167201789Y-64969711D01*
X167201786Y-64969707D01*
X167090292Y-64858213D01*
X167090288Y-64858210D01*
X166959185Y-64770609D01*
X166959172Y-64770602D01*
X166813501Y-64710264D01*
X166813489Y-64710261D01*
X166658845Y-64679500D01*
X166658842Y-64679500D01*
X166501158Y-64679500D01*
X166501155Y-64679500D01*
X166346510Y-64710261D01*
X166346498Y-64710264D01*
X166200827Y-64770602D01*
X166200814Y-64770609D01*
X166069711Y-64858210D01*
X166069707Y-64858213D01*
X165958213Y-64969707D01*
X165958210Y-64969711D01*
X165870609Y-65100814D01*
X165870602Y-65100827D01*
X165810264Y-65246498D01*
X165810261Y-65246510D01*
X165779500Y-65401153D01*
X158470500Y-65401153D01*
X158470500Y-65361158D01*
X158470500Y-65361155D01*
X158470499Y-65361153D01*
X158447695Y-65246510D01*
X158439737Y-65206503D01*
X158395965Y-65100827D01*
X158379397Y-65060827D01*
X158379390Y-65060814D01*
X158291789Y-64929711D01*
X158291786Y-64929707D01*
X158180292Y-64818213D01*
X158180288Y-64818210D01*
X158049185Y-64730609D01*
X158049172Y-64730602D01*
X157903501Y-64670264D01*
X157903489Y-64670261D01*
X157748845Y-64639500D01*
X157748842Y-64639500D01*
X157591158Y-64639500D01*
X157591155Y-64639500D01*
X157436510Y-64670261D01*
X157436498Y-64670264D01*
X157290827Y-64730602D01*
X157290814Y-64730609D01*
X157159711Y-64818210D01*
X157159707Y-64818213D01*
X157048213Y-64929707D01*
X157048210Y-64929711D01*
X156960609Y-65060814D01*
X156960602Y-65060827D01*
X156900264Y-65206498D01*
X156900261Y-65206510D01*
X156869500Y-65361153D01*
X149498289Y-65361153D01*
X149494862Y-65326368D01*
X149423935Y-64969787D01*
X149423932Y-64969776D01*
X149423931Y-64969773D01*
X149423930Y-64969767D01*
X149318386Y-64621836D01*
X149179247Y-64285924D01*
X149007853Y-63965268D01*
X148805854Y-63662956D01*
X148575197Y-63381899D01*
X148575196Y-63381898D01*
X148575192Y-63381893D01*
X148318106Y-63124807D01*
X148037049Y-62894150D01*
X148037048Y-62894149D01*
X148037044Y-62894146D01*
X147734732Y-62692147D01*
X147734727Y-62692144D01*
X147734720Y-62692140D01*
X147414083Y-62520756D01*
X147414078Y-62520754D01*
X147078165Y-62381614D01*
X147065881Y-62377888D01*
X147050295Y-62373160D01*
X146991858Y-62334863D01*
X146963402Y-62271051D01*
X146973962Y-62201984D01*
X147020186Y-62149590D01*
X147086292Y-62130500D01*
X170485500Y-62130500D01*
X170552539Y-62150185D01*
G37*
%TD.AperFunction*%
%TD*%
M02*
