%TF.GenerationSoftware,KiCad,Pcbnew,9.0.2*%
%TF.CreationDate,2025-09-22T16:34:47-04:00*%
%TF.ProjectId,ABAD,41424144-2e6b-4696-9361-645f70636258,rev?*%
%TF.SameCoordinates,Original*%
%TF.FileFunction,Legend,Top*%
%TF.FilePolarity,Positive*%
%FSLAX46Y46*%
G04 Gerber Fmt 4.6, Leading zero omitted, Abs format (unit mm)*
G04 Created by KiCad (PCBNEW 9.0.2) date 2025-09-22 16:34:47*
%MOMM*%
%LPD*%
G01*
G04 APERTURE LIST*
%ADD10C,0.150000*%
%ADD11C,0.120000*%
%ADD12C,0.152500*%
%ADD13C,0.254000*%
%ADD14C,0.000000*%
%ADD15C,0.100000*%
G04 APERTURE END LIST*
D10*
X155629580Y-97659166D02*
X155677200Y-97706785D01*
X155677200Y-97706785D02*
X155724819Y-97849642D01*
X155724819Y-97849642D02*
X155724819Y-97944880D01*
X155724819Y-97944880D02*
X155677200Y-98087737D01*
X155677200Y-98087737D02*
X155581961Y-98182975D01*
X155581961Y-98182975D02*
X155486723Y-98230594D01*
X155486723Y-98230594D02*
X155296247Y-98278213D01*
X155296247Y-98278213D02*
X155153390Y-98278213D01*
X155153390Y-98278213D02*
X154962914Y-98230594D01*
X154962914Y-98230594D02*
X154867676Y-98182975D01*
X154867676Y-98182975D02*
X154772438Y-98087737D01*
X154772438Y-98087737D02*
X154724819Y-97944880D01*
X154724819Y-97944880D02*
X154724819Y-97849642D01*
X154724819Y-97849642D02*
X154772438Y-97706785D01*
X154772438Y-97706785D02*
X154820057Y-97659166D01*
X155724819Y-96706785D02*
X155724819Y-97278213D01*
X155724819Y-96992499D02*
X154724819Y-96992499D01*
X154724819Y-96992499D02*
X154867676Y-97087737D01*
X154867676Y-97087737D02*
X154962914Y-97182975D01*
X154962914Y-97182975D02*
X155010533Y-97278213D01*
X151717319Y-119523333D02*
X152431604Y-119523333D01*
X152431604Y-119523333D02*
X152574461Y-119570952D01*
X152574461Y-119570952D02*
X152669700Y-119666190D01*
X152669700Y-119666190D02*
X152717319Y-119809047D01*
X152717319Y-119809047D02*
X152717319Y-119904285D01*
X151812557Y-119094761D02*
X151764938Y-119047142D01*
X151764938Y-119047142D02*
X151717319Y-118951904D01*
X151717319Y-118951904D02*
X151717319Y-118713809D01*
X151717319Y-118713809D02*
X151764938Y-118618571D01*
X151764938Y-118618571D02*
X151812557Y-118570952D01*
X151812557Y-118570952D02*
X151907795Y-118523333D01*
X151907795Y-118523333D02*
X152003033Y-118523333D01*
X152003033Y-118523333D02*
X152145890Y-118570952D01*
X152145890Y-118570952D02*
X152717319Y-119142380D01*
X152717319Y-119142380D02*
X152717319Y-118523333D01*
X144104819Y-107646666D02*
X143628628Y-107979999D01*
X144104819Y-108218094D02*
X143104819Y-108218094D01*
X143104819Y-108218094D02*
X143104819Y-107837142D01*
X143104819Y-107837142D02*
X143152438Y-107741904D01*
X143152438Y-107741904D02*
X143200057Y-107694285D01*
X143200057Y-107694285D02*
X143295295Y-107646666D01*
X143295295Y-107646666D02*
X143438152Y-107646666D01*
X143438152Y-107646666D02*
X143533390Y-107694285D01*
X143533390Y-107694285D02*
X143581009Y-107741904D01*
X143581009Y-107741904D02*
X143628628Y-107837142D01*
X143628628Y-107837142D02*
X143628628Y-108218094D01*
X143104819Y-107313332D02*
X143104819Y-106694285D01*
X143104819Y-106694285D02*
X143485771Y-107027618D01*
X143485771Y-107027618D02*
X143485771Y-106884761D01*
X143485771Y-106884761D02*
X143533390Y-106789523D01*
X143533390Y-106789523D02*
X143581009Y-106741904D01*
X143581009Y-106741904D02*
X143676247Y-106694285D01*
X143676247Y-106694285D02*
X143914342Y-106694285D01*
X143914342Y-106694285D02*
X144009580Y-106741904D01*
X144009580Y-106741904D02*
X144057200Y-106789523D01*
X144057200Y-106789523D02*
X144104819Y-106884761D01*
X144104819Y-106884761D02*
X144104819Y-107170475D01*
X144104819Y-107170475D02*
X144057200Y-107265713D01*
X144057200Y-107265713D02*
X144009580Y-107313332D01*
X146947069Y-98768529D02*
X147756592Y-98768529D01*
X147756592Y-98768529D02*
X147851830Y-98720910D01*
X147851830Y-98720910D02*
X147899450Y-98673291D01*
X147899450Y-98673291D02*
X147947069Y-98578053D01*
X147947069Y-98578053D02*
X147947069Y-98387577D01*
X147947069Y-98387577D02*
X147899450Y-98292339D01*
X147899450Y-98292339D02*
X147851830Y-98244720D01*
X147851830Y-98244720D02*
X147756592Y-98197101D01*
X147756592Y-98197101D02*
X146947069Y-98197101D01*
X146947069Y-97292339D02*
X146947069Y-97482815D01*
X146947069Y-97482815D02*
X146994688Y-97578053D01*
X146994688Y-97578053D02*
X147042307Y-97625672D01*
X147042307Y-97625672D02*
X147185164Y-97720910D01*
X147185164Y-97720910D02*
X147375640Y-97768529D01*
X147375640Y-97768529D02*
X147756592Y-97768529D01*
X147756592Y-97768529D02*
X147851830Y-97720910D01*
X147851830Y-97720910D02*
X147899450Y-97673291D01*
X147899450Y-97673291D02*
X147947069Y-97578053D01*
X147947069Y-97578053D02*
X147947069Y-97387577D01*
X147947069Y-97387577D02*
X147899450Y-97292339D01*
X147899450Y-97292339D02*
X147851830Y-97244720D01*
X147851830Y-97244720D02*
X147756592Y-97197101D01*
X147756592Y-97197101D02*
X147518497Y-97197101D01*
X147518497Y-97197101D02*
X147423259Y-97244720D01*
X147423259Y-97244720D02*
X147375640Y-97292339D01*
X147375640Y-97292339D02*
X147328021Y-97387577D01*
X147328021Y-97387577D02*
X147328021Y-97578053D01*
X147328021Y-97578053D02*
X147375640Y-97673291D01*
X147375640Y-97673291D02*
X147423259Y-97720910D01*
X147423259Y-97720910D02*
X147518497Y-97768529D01*
X150639580Y-96626666D02*
X150687200Y-96674285D01*
X150687200Y-96674285D02*
X150734819Y-96817142D01*
X150734819Y-96817142D02*
X150734819Y-96912380D01*
X150734819Y-96912380D02*
X150687200Y-97055237D01*
X150687200Y-97055237D02*
X150591961Y-97150475D01*
X150591961Y-97150475D02*
X150496723Y-97198094D01*
X150496723Y-97198094D02*
X150306247Y-97245713D01*
X150306247Y-97245713D02*
X150163390Y-97245713D01*
X150163390Y-97245713D02*
X149972914Y-97198094D01*
X149972914Y-97198094D02*
X149877676Y-97150475D01*
X149877676Y-97150475D02*
X149782438Y-97055237D01*
X149782438Y-97055237D02*
X149734819Y-96912380D01*
X149734819Y-96912380D02*
X149734819Y-96817142D01*
X149734819Y-96817142D02*
X149782438Y-96674285D01*
X149782438Y-96674285D02*
X149830057Y-96626666D01*
X150734819Y-96150475D02*
X150734819Y-95959999D01*
X150734819Y-95959999D02*
X150687200Y-95864761D01*
X150687200Y-95864761D02*
X150639580Y-95817142D01*
X150639580Y-95817142D02*
X150496723Y-95721904D01*
X150496723Y-95721904D02*
X150306247Y-95674285D01*
X150306247Y-95674285D02*
X149925295Y-95674285D01*
X149925295Y-95674285D02*
X149830057Y-95721904D01*
X149830057Y-95721904D02*
X149782438Y-95769523D01*
X149782438Y-95769523D02*
X149734819Y-95864761D01*
X149734819Y-95864761D02*
X149734819Y-96055237D01*
X149734819Y-96055237D02*
X149782438Y-96150475D01*
X149782438Y-96150475D02*
X149830057Y-96198094D01*
X149830057Y-96198094D02*
X149925295Y-96245713D01*
X149925295Y-96245713D02*
X150163390Y-96245713D01*
X150163390Y-96245713D02*
X150258628Y-96198094D01*
X150258628Y-96198094D02*
X150306247Y-96150475D01*
X150306247Y-96150475D02*
X150353866Y-96055237D01*
X150353866Y-96055237D02*
X150353866Y-95864761D01*
X150353866Y-95864761D02*
X150306247Y-95769523D01*
X150306247Y-95769523D02*
X150258628Y-95721904D01*
X150258628Y-95721904D02*
X150163390Y-95674285D01*
X160832080Y-118295357D02*
X160879700Y-118342976D01*
X160879700Y-118342976D02*
X160927319Y-118485833D01*
X160927319Y-118485833D02*
X160927319Y-118581071D01*
X160927319Y-118581071D02*
X160879700Y-118723928D01*
X160879700Y-118723928D02*
X160784461Y-118819166D01*
X160784461Y-118819166D02*
X160689223Y-118866785D01*
X160689223Y-118866785D02*
X160498747Y-118914404D01*
X160498747Y-118914404D02*
X160355890Y-118914404D01*
X160355890Y-118914404D02*
X160165414Y-118866785D01*
X160165414Y-118866785D02*
X160070176Y-118819166D01*
X160070176Y-118819166D02*
X159974938Y-118723928D01*
X159974938Y-118723928D02*
X159927319Y-118581071D01*
X159927319Y-118581071D02*
X159927319Y-118485833D01*
X159927319Y-118485833D02*
X159974938Y-118342976D01*
X159974938Y-118342976D02*
X160022557Y-118295357D01*
X160927319Y-117342976D02*
X160927319Y-117914404D01*
X160927319Y-117628690D02*
X159927319Y-117628690D01*
X159927319Y-117628690D02*
X160070176Y-117723928D01*
X160070176Y-117723928D02*
X160165414Y-117819166D01*
X160165414Y-117819166D02*
X160213033Y-117914404D01*
X159927319Y-116438214D02*
X159927319Y-116914404D01*
X159927319Y-116914404D02*
X160403509Y-116962023D01*
X160403509Y-116962023D02*
X160355890Y-116914404D01*
X160355890Y-116914404D02*
X160308271Y-116819166D01*
X160308271Y-116819166D02*
X160308271Y-116581071D01*
X160308271Y-116581071D02*
X160355890Y-116485833D01*
X160355890Y-116485833D02*
X160403509Y-116438214D01*
X160403509Y-116438214D02*
X160498747Y-116390595D01*
X160498747Y-116390595D02*
X160736842Y-116390595D01*
X160736842Y-116390595D02*
X160832080Y-116438214D01*
X160832080Y-116438214D02*
X160879700Y-116485833D01*
X160879700Y-116485833D02*
X160927319Y-116581071D01*
X160927319Y-116581071D02*
X160927319Y-116819166D01*
X160927319Y-116819166D02*
X160879700Y-116914404D01*
X160879700Y-116914404D02*
X160832080Y-116962023D01*
X158489580Y-120762857D02*
X158537200Y-120810476D01*
X158537200Y-120810476D02*
X158584819Y-120953333D01*
X158584819Y-120953333D02*
X158584819Y-121048571D01*
X158584819Y-121048571D02*
X158537200Y-121191428D01*
X158537200Y-121191428D02*
X158441961Y-121286666D01*
X158441961Y-121286666D02*
X158346723Y-121334285D01*
X158346723Y-121334285D02*
X158156247Y-121381904D01*
X158156247Y-121381904D02*
X158013390Y-121381904D01*
X158013390Y-121381904D02*
X157822914Y-121334285D01*
X157822914Y-121334285D02*
X157727676Y-121286666D01*
X157727676Y-121286666D02*
X157632438Y-121191428D01*
X157632438Y-121191428D02*
X157584819Y-121048571D01*
X157584819Y-121048571D02*
X157584819Y-120953333D01*
X157584819Y-120953333D02*
X157632438Y-120810476D01*
X157632438Y-120810476D02*
X157680057Y-120762857D01*
X158584819Y-119810476D02*
X158584819Y-120381904D01*
X158584819Y-120096190D02*
X157584819Y-120096190D01*
X157584819Y-120096190D02*
X157727676Y-120191428D01*
X157727676Y-120191428D02*
X157822914Y-120286666D01*
X157822914Y-120286666D02*
X157870533Y-120381904D01*
X157918152Y-118953333D02*
X158584819Y-118953333D01*
X157537200Y-119191428D02*
X158251485Y-119429523D01*
X158251485Y-119429523D02*
X158251485Y-118810476D01*
X144837142Y-93319580D02*
X144789523Y-93367200D01*
X144789523Y-93367200D02*
X144646666Y-93414819D01*
X144646666Y-93414819D02*
X144551428Y-93414819D01*
X144551428Y-93414819D02*
X144408571Y-93367200D01*
X144408571Y-93367200D02*
X144313333Y-93271961D01*
X144313333Y-93271961D02*
X144265714Y-93176723D01*
X144265714Y-93176723D02*
X144218095Y-92986247D01*
X144218095Y-92986247D02*
X144218095Y-92843390D01*
X144218095Y-92843390D02*
X144265714Y-92652914D01*
X144265714Y-92652914D02*
X144313333Y-92557676D01*
X144313333Y-92557676D02*
X144408571Y-92462438D01*
X144408571Y-92462438D02*
X144551428Y-92414819D01*
X144551428Y-92414819D02*
X144646666Y-92414819D01*
X144646666Y-92414819D02*
X144789523Y-92462438D01*
X144789523Y-92462438D02*
X144837142Y-92510057D01*
X145789523Y-93414819D02*
X145218095Y-93414819D01*
X145503809Y-93414819D02*
X145503809Y-92414819D01*
X145503809Y-92414819D02*
X145408571Y-92557676D01*
X145408571Y-92557676D02*
X145313333Y-92652914D01*
X145313333Y-92652914D02*
X145218095Y-92700533D01*
X146360952Y-92843390D02*
X146265714Y-92795771D01*
X146265714Y-92795771D02*
X146218095Y-92748152D01*
X146218095Y-92748152D02*
X146170476Y-92652914D01*
X146170476Y-92652914D02*
X146170476Y-92605295D01*
X146170476Y-92605295D02*
X146218095Y-92510057D01*
X146218095Y-92510057D02*
X146265714Y-92462438D01*
X146265714Y-92462438D02*
X146360952Y-92414819D01*
X146360952Y-92414819D02*
X146551428Y-92414819D01*
X146551428Y-92414819D02*
X146646666Y-92462438D01*
X146646666Y-92462438D02*
X146694285Y-92510057D01*
X146694285Y-92510057D02*
X146741904Y-92605295D01*
X146741904Y-92605295D02*
X146741904Y-92652914D01*
X146741904Y-92652914D02*
X146694285Y-92748152D01*
X146694285Y-92748152D02*
X146646666Y-92795771D01*
X146646666Y-92795771D02*
X146551428Y-92843390D01*
X146551428Y-92843390D02*
X146360952Y-92843390D01*
X146360952Y-92843390D02*
X146265714Y-92891009D01*
X146265714Y-92891009D02*
X146218095Y-92938628D01*
X146218095Y-92938628D02*
X146170476Y-93033866D01*
X146170476Y-93033866D02*
X146170476Y-93224342D01*
X146170476Y-93224342D02*
X146218095Y-93319580D01*
X146218095Y-93319580D02*
X146265714Y-93367200D01*
X146265714Y-93367200D02*
X146360952Y-93414819D01*
X146360952Y-93414819D02*
X146551428Y-93414819D01*
X146551428Y-93414819D02*
X146646666Y-93367200D01*
X146646666Y-93367200D02*
X146694285Y-93319580D01*
X146694285Y-93319580D02*
X146741904Y-93224342D01*
X146741904Y-93224342D02*
X146741904Y-93033866D01*
X146741904Y-93033866D02*
X146694285Y-92938628D01*
X146694285Y-92938628D02*
X146646666Y-92891009D01*
X146646666Y-92891009D02*
X146551428Y-92843390D01*
X147496819Y-115911904D02*
X147496819Y-115340476D01*
X148496819Y-115626190D02*
X147496819Y-115626190D01*
X148496819Y-115007142D02*
X147496819Y-115007142D01*
X147496819Y-115007142D02*
X147496819Y-114626190D01*
X147496819Y-114626190D02*
X147544438Y-114530952D01*
X147544438Y-114530952D02*
X147592057Y-114483333D01*
X147592057Y-114483333D02*
X147687295Y-114435714D01*
X147687295Y-114435714D02*
X147830152Y-114435714D01*
X147830152Y-114435714D02*
X147925390Y-114483333D01*
X147925390Y-114483333D02*
X147973009Y-114530952D01*
X147973009Y-114530952D02*
X148020628Y-114626190D01*
X148020628Y-114626190D02*
X148020628Y-115007142D01*
X147496819Y-113530952D02*
X147496819Y-114007142D01*
X147496819Y-114007142D02*
X147973009Y-114054761D01*
X147973009Y-114054761D02*
X147925390Y-114007142D01*
X147925390Y-114007142D02*
X147877771Y-113911904D01*
X147877771Y-113911904D02*
X147877771Y-113673809D01*
X147877771Y-113673809D02*
X147925390Y-113578571D01*
X147925390Y-113578571D02*
X147973009Y-113530952D01*
X147973009Y-113530952D02*
X148068247Y-113483333D01*
X148068247Y-113483333D02*
X148306342Y-113483333D01*
X148306342Y-113483333D02*
X148401580Y-113530952D01*
X148401580Y-113530952D02*
X148449200Y-113578571D01*
X148449200Y-113578571D02*
X148496819Y-113673809D01*
X148496819Y-113673809D02*
X148496819Y-113911904D01*
X148496819Y-113911904D02*
X148449200Y-114007142D01*
X148449200Y-114007142D02*
X148401580Y-114054761D01*
X141828095Y-78986819D02*
X142399523Y-78986819D01*
X142113809Y-79986819D02*
X142113809Y-78986819D01*
X142732857Y-79986819D02*
X142732857Y-78986819D01*
X142732857Y-78986819D02*
X143113809Y-78986819D01*
X143113809Y-78986819D02*
X143209047Y-79034438D01*
X143209047Y-79034438D02*
X143256666Y-79082057D01*
X143256666Y-79082057D02*
X143304285Y-79177295D01*
X143304285Y-79177295D02*
X143304285Y-79320152D01*
X143304285Y-79320152D02*
X143256666Y-79415390D01*
X143256666Y-79415390D02*
X143209047Y-79463009D01*
X143209047Y-79463009D02*
X143113809Y-79510628D01*
X143113809Y-79510628D02*
X142732857Y-79510628D01*
X143637619Y-78986819D02*
X144304285Y-78986819D01*
X144304285Y-78986819D02*
X143875714Y-79986819D01*
X143367142Y-94059580D02*
X143319523Y-94107200D01*
X143319523Y-94107200D02*
X143176666Y-94154819D01*
X143176666Y-94154819D02*
X143081428Y-94154819D01*
X143081428Y-94154819D02*
X142938571Y-94107200D01*
X142938571Y-94107200D02*
X142843333Y-94011961D01*
X142843333Y-94011961D02*
X142795714Y-93916723D01*
X142795714Y-93916723D02*
X142748095Y-93726247D01*
X142748095Y-93726247D02*
X142748095Y-93583390D01*
X142748095Y-93583390D02*
X142795714Y-93392914D01*
X142795714Y-93392914D02*
X142843333Y-93297676D01*
X142843333Y-93297676D02*
X142938571Y-93202438D01*
X142938571Y-93202438D02*
X143081428Y-93154819D01*
X143081428Y-93154819D02*
X143176666Y-93154819D01*
X143176666Y-93154819D02*
X143319523Y-93202438D01*
X143319523Y-93202438D02*
X143367142Y-93250057D01*
X144319523Y-94154819D02*
X143748095Y-94154819D01*
X144033809Y-94154819D02*
X144033809Y-93154819D01*
X144033809Y-93154819D02*
X143938571Y-93297676D01*
X143938571Y-93297676D02*
X143843333Y-93392914D01*
X143843333Y-93392914D02*
X143748095Y-93440533D01*
X144795714Y-94154819D02*
X144986190Y-94154819D01*
X144986190Y-94154819D02*
X145081428Y-94107200D01*
X145081428Y-94107200D02*
X145129047Y-94059580D01*
X145129047Y-94059580D02*
X145224285Y-93916723D01*
X145224285Y-93916723D02*
X145271904Y-93726247D01*
X145271904Y-93726247D02*
X145271904Y-93345295D01*
X145271904Y-93345295D02*
X145224285Y-93250057D01*
X145224285Y-93250057D02*
X145176666Y-93202438D01*
X145176666Y-93202438D02*
X145081428Y-93154819D01*
X145081428Y-93154819D02*
X144890952Y-93154819D01*
X144890952Y-93154819D02*
X144795714Y-93202438D01*
X144795714Y-93202438D02*
X144748095Y-93250057D01*
X144748095Y-93250057D02*
X144700476Y-93345295D01*
X144700476Y-93345295D02*
X144700476Y-93583390D01*
X144700476Y-93583390D02*
X144748095Y-93678628D01*
X144748095Y-93678628D02*
X144795714Y-93726247D01*
X144795714Y-93726247D02*
X144890952Y-93773866D01*
X144890952Y-93773866D02*
X145081428Y-93773866D01*
X145081428Y-93773866D02*
X145176666Y-93726247D01*
X145176666Y-93726247D02*
X145224285Y-93678628D01*
X145224285Y-93678628D02*
X145271904Y-93583390D01*
X142781333Y-90894819D02*
X142448000Y-90418628D01*
X142209905Y-90894819D02*
X142209905Y-89894819D01*
X142209905Y-89894819D02*
X142590857Y-89894819D01*
X142590857Y-89894819D02*
X142686095Y-89942438D01*
X142686095Y-89942438D02*
X142733714Y-89990057D01*
X142733714Y-89990057D02*
X142781333Y-90085295D01*
X142781333Y-90085295D02*
X142781333Y-90228152D01*
X142781333Y-90228152D02*
X142733714Y-90323390D01*
X142733714Y-90323390D02*
X142686095Y-90371009D01*
X142686095Y-90371009D02*
X142590857Y-90418628D01*
X142590857Y-90418628D02*
X142209905Y-90418628D01*
X143257524Y-90894819D02*
X143448000Y-90894819D01*
X143448000Y-90894819D02*
X143543238Y-90847200D01*
X143543238Y-90847200D02*
X143590857Y-90799580D01*
X143590857Y-90799580D02*
X143686095Y-90656723D01*
X143686095Y-90656723D02*
X143733714Y-90466247D01*
X143733714Y-90466247D02*
X143733714Y-90085295D01*
X143733714Y-90085295D02*
X143686095Y-89990057D01*
X143686095Y-89990057D02*
X143638476Y-89942438D01*
X143638476Y-89942438D02*
X143543238Y-89894819D01*
X143543238Y-89894819D02*
X143352762Y-89894819D01*
X143352762Y-89894819D02*
X143257524Y-89942438D01*
X143257524Y-89942438D02*
X143209905Y-89990057D01*
X143209905Y-89990057D02*
X143162286Y-90085295D01*
X143162286Y-90085295D02*
X143162286Y-90323390D01*
X143162286Y-90323390D02*
X143209905Y-90418628D01*
X143209905Y-90418628D02*
X143257524Y-90466247D01*
X143257524Y-90466247D02*
X143352762Y-90513866D01*
X143352762Y-90513866D02*
X143543238Y-90513866D01*
X143543238Y-90513866D02*
X143638476Y-90466247D01*
X143638476Y-90466247D02*
X143686095Y-90418628D01*
X143686095Y-90418628D02*
X143733714Y-90323390D01*
X150528095Y-67720319D02*
X150528095Y-68529842D01*
X150528095Y-68529842D02*
X150575714Y-68625080D01*
X150575714Y-68625080D02*
X150623333Y-68672700D01*
X150623333Y-68672700D02*
X150718571Y-68720319D01*
X150718571Y-68720319D02*
X150909047Y-68720319D01*
X150909047Y-68720319D02*
X151004285Y-68672700D01*
X151004285Y-68672700D02*
X151051904Y-68625080D01*
X151051904Y-68625080D02*
X151099523Y-68529842D01*
X151099523Y-68529842D02*
X151099523Y-67720319D01*
X151480476Y-67720319D02*
X152099523Y-67720319D01*
X152099523Y-67720319D02*
X151766190Y-68101271D01*
X151766190Y-68101271D02*
X151909047Y-68101271D01*
X151909047Y-68101271D02*
X152004285Y-68148890D01*
X152004285Y-68148890D02*
X152051904Y-68196509D01*
X152051904Y-68196509D02*
X152099523Y-68291747D01*
X152099523Y-68291747D02*
X152099523Y-68529842D01*
X152099523Y-68529842D02*
X152051904Y-68625080D01*
X152051904Y-68625080D02*
X152004285Y-68672700D01*
X152004285Y-68672700D02*
X151909047Y-68720319D01*
X151909047Y-68720319D02*
X151623333Y-68720319D01*
X151623333Y-68720319D02*
X151528095Y-68672700D01*
X151528095Y-68672700D02*
X151480476Y-68625080D01*
X153782319Y-117875357D02*
X153306128Y-118208690D01*
X153782319Y-118446785D02*
X152782319Y-118446785D01*
X152782319Y-118446785D02*
X152782319Y-118065833D01*
X152782319Y-118065833D02*
X152829938Y-117970595D01*
X152829938Y-117970595D02*
X152877557Y-117922976D01*
X152877557Y-117922976D02*
X152972795Y-117875357D01*
X152972795Y-117875357D02*
X153115652Y-117875357D01*
X153115652Y-117875357D02*
X153210890Y-117922976D01*
X153210890Y-117922976D02*
X153258509Y-117970595D01*
X153258509Y-117970595D02*
X153306128Y-118065833D01*
X153306128Y-118065833D02*
X153306128Y-118446785D01*
X153782319Y-116922976D02*
X153782319Y-117494404D01*
X153782319Y-117208690D02*
X152782319Y-117208690D01*
X152782319Y-117208690D02*
X152925176Y-117303928D01*
X152925176Y-117303928D02*
X153020414Y-117399166D01*
X153020414Y-117399166D02*
X153068033Y-117494404D01*
X152782319Y-116589642D02*
X152782319Y-115970595D01*
X152782319Y-115970595D02*
X153163271Y-116303928D01*
X153163271Y-116303928D02*
X153163271Y-116161071D01*
X153163271Y-116161071D02*
X153210890Y-116065833D01*
X153210890Y-116065833D02*
X153258509Y-116018214D01*
X153258509Y-116018214D02*
X153353747Y-115970595D01*
X153353747Y-115970595D02*
X153591842Y-115970595D01*
X153591842Y-115970595D02*
X153687080Y-116018214D01*
X153687080Y-116018214D02*
X153734700Y-116065833D01*
X153734700Y-116065833D02*
X153782319Y-116161071D01*
X153782319Y-116161071D02*
X153782319Y-116446785D01*
X153782319Y-116446785D02*
X153734700Y-116542023D01*
X153734700Y-116542023D02*
X153687080Y-116589642D01*
X164324819Y-86629344D02*
X163324819Y-86629344D01*
X163324819Y-86629344D02*
X163324819Y-86391249D01*
X163324819Y-86391249D02*
X163372438Y-86248392D01*
X163372438Y-86248392D02*
X163467676Y-86153154D01*
X163467676Y-86153154D02*
X163562914Y-86105535D01*
X163562914Y-86105535D02*
X163753390Y-86057916D01*
X163753390Y-86057916D02*
X163896247Y-86057916D01*
X163896247Y-86057916D02*
X164086723Y-86105535D01*
X164086723Y-86105535D02*
X164181961Y-86153154D01*
X164181961Y-86153154D02*
X164277200Y-86248392D01*
X164277200Y-86248392D02*
X164324819Y-86391249D01*
X164324819Y-86391249D02*
X164324819Y-86629344D01*
X163324819Y-85724582D02*
X163324819Y-85105535D01*
X163324819Y-85105535D02*
X163705771Y-85438868D01*
X163705771Y-85438868D02*
X163705771Y-85296011D01*
X163705771Y-85296011D02*
X163753390Y-85200773D01*
X163753390Y-85200773D02*
X163801009Y-85153154D01*
X163801009Y-85153154D02*
X163896247Y-85105535D01*
X163896247Y-85105535D02*
X164134342Y-85105535D01*
X164134342Y-85105535D02*
X164229580Y-85153154D01*
X164229580Y-85153154D02*
X164277200Y-85200773D01*
X164277200Y-85200773D02*
X164324819Y-85296011D01*
X164324819Y-85296011D02*
X164324819Y-85581725D01*
X164324819Y-85581725D02*
X164277200Y-85676963D01*
X164277200Y-85676963D02*
X164229580Y-85724582D01*
X155168095Y-122744819D02*
X155739523Y-122744819D01*
X155453809Y-123744819D02*
X155453809Y-122744819D01*
X156072857Y-123744819D02*
X156072857Y-122744819D01*
X156072857Y-122744819D02*
X156453809Y-122744819D01*
X156453809Y-122744819D02*
X156549047Y-122792438D01*
X156549047Y-122792438D02*
X156596666Y-122840057D01*
X156596666Y-122840057D02*
X156644285Y-122935295D01*
X156644285Y-122935295D02*
X156644285Y-123078152D01*
X156644285Y-123078152D02*
X156596666Y-123173390D01*
X156596666Y-123173390D02*
X156549047Y-123221009D01*
X156549047Y-123221009D02*
X156453809Y-123268628D01*
X156453809Y-123268628D02*
X156072857Y-123268628D01*
X156977619Y-122744819D02*
X157596666Y-122744819D01*
X157596666Y-122744819D02*
X157263333Y-123125771D01*
X157263333Y-123125771D02*
X157406190Y-123125771D01*
X157406190Y-123125771D02*
X157501428Y-123173390D01*
X157501428Y-123173390D02*
X157549047Y-123221009D01*
X157549047Y-123221009D02*
X157596666Y-123316247D01*
X157596666Y-123316247D02*
X157596666Y-123554342D01*
X157596666Y-123554342D02*
X157549047Y-123649580D01*
X157549047Y-123649580D02*
X157501428Y-123697200D01*
X157501428Y-123697200D02*
X157406190Y-123744819D01*
X157406190Y-123744819D02*
X157120476Y-123744819D01*
X157120476Y-123744819D02*
X157025238Y-123697200D01*
X157025238Y-123697200D02*
X156977619Y-123649580D01*
X151117142Y-123714819D02*
X150783809Y-123238628D01*
X150545714Y-123714819D02*
X150545714Y-122714819D01*
X150545714Y-122714819D02*
X150926666Y-122714819D01*
X150926666Y-122714819D02*
X151021904Y-122762438D01*
X151021904Y-122762438D02*
X151069523Y-122810057D01*
X151069523Y-122810057D02*
X151117142Y-122905295D01*
X151117142Y-122905295D02*
X151117142Y-123048152D01*
X151117142Y-123048152D02*
X151069523Y-123143390D01*
X151069523Y-123143390D02*
X151021904Y-123191009D01*
X151021904Y-123191009D02*
X150926666Y-123238628D01*
X150926666Y-123238628D02*
X150545714Y-123238628D01*
X152069523Y-123714819D02*
X151498095Y-123714819D01*
X151783809Y-123714819D02*
X151783809Y-122714819D01*
X151783809Y-122714819D02*
X151688571Y-122857676D01*
X151688571Y-122857676D02*
X151593333Y-122952914D01*
X151593333Y-122952914D02*
X151498095Y-123000533D01*
X153021904Y-123714819D02*
X152450476Y-123714819D01*
X152736190Y-123714819D02*
X152736190Y-122714819D01*
X152736190Y-122714819D02*
X152640952Y-122857676D01*
X152640952Y-122857676D02*
X152545714Y-122952914D01*
X152545714Y-122952914D02*
X152450476Y-123000533D01*
X158617142Y-88639580D02*
X158569523Y-88687200D01*
X158569523Y-88687200D02*
X158426666Y-88734819D01*
X158426666Y-88734819D02*
X158331428Y-88734819D01*
X158331428Y-88734819D02*
X158188571Y-88687200D01*
X158188571Y-88687200D02*
X158093333Y-88591961D01*
X158093333Y-88591961D02*
X158045714Y-88496723D01*
X158045714Y-88496723D02*
X157998095Y-88306247D01*
X157998095Y-88306247D02*
X157998095Y-88163390D01*
X157998095Y-88163390D02*
X158045714Y-87972914D01*
X158045714Y-87972914D02*
X158093333Y-87877676D01*
X158093333Y-87877676D02*
X158188571Y-87782438D01*
X158188571Y-87782438D02*
X158331428Y-87734819D01*
X158331428Y-87734819D02*
X158426666Y-87734819D01*
X158426666Y-87734819D02*
X158569523Y-87782438D01*
X158569523Y-87782438D02*
X158617142Y-87830057D01*
X158998095Y-87830057D02*
X159045714Y-87782438D01*
X159045714Y-87782438D02*
X159140952Y-87734819D01*
X159140952Y-87734819D02*
X159379047Y-87734819D01*
X159379047Y-87734819D02*
X159474285Y-87782438D01*
X159474285Y-87782438D02*
X159521904Y-87830057D01*
X159521904Y-87830057D02*
X159569523Y-87925295D01*
X159569523Y-87925295D02*
X159569523Y-88020533D01*
X159569523Y-88020533D02*
X159521904Y-88163390D01*
X159521904Y-88163390D02*
X158950476Y-88734819D01*
X158950476Y-88734819D02*
X159569523Y-88734819D01*
X159950476Y-87830057D02*
X159998095Y-87782438D01*
X159998095Y-87782438D02*
X160093333Y-87734819D01*
X160093333Y-87734819D02*
X160331428Y-87734819D01*
X160331428Y-87734819D02*
X160426666Y-87782438D01*
X160426666Y-87782438D02*
X160474285Y-87830057D01*
X160474285Y-87830057D02*
X160521904Y-87925295D01*
X160521904Y-87925295D02*
X160521904Y-88020533D01*
X160521904Y-88020533D02*
X160474285Y-88163390D01*
X160474285Y-88163390D02*
X159902857Y-88734819D01*
X159902857Y-88734819D02*
X160521904Y-88734819D01*
X168324819Y-86618094D02*
X167324819Y-86618094D01*
X167324819Y-86618094D02*
X167324819Y-86379999D01*
X167324819Y-86379999D02*
X167372438Y-86237142D01*
X167372438Y-86237142D02*
X167467676Y-86141904D01*
X167467676Y-86141904D02*
X167562914Y-86094285D01*
X167562914Y-86094285D02*
X167753390Y-86046666D01*
X167753390Y-86046666D02*
X167896247Y-86046666D01*
X167896247Y-86046666D02*
X168086723Y-86094285D01*
X168086723Y-86094285D02*
X168181961Y-86141904D01*
X168181961Y-86141904D02*
X168277200Y-86237142D01*
X168277200Y-86237142D02*
X168324819Y-86379999D01*
X168324819Y-86379999D02*
X168324819Y-86618094D01*
X167420057Y-85665713D02*
X167372438Y-85618094D01*
X167372438Y-85618094D02*
X167324819Y-85522856D01*
X167324819Y-85522856D02*
X167324819Y-85284761D01*
X167324819Y-85284761D02*
X167372438Y-85189523D01*
X167372438Y-85189523D02*
X167420057Y-85141904D01*
X167420057Y-85141904D02*
X167515295Y-85094285D01*
X167515295Y-85094285D02*
X167610533Y-85094285D01*
X167610533Y-85094285D02*
X167753390Y-85141904D01*
X167753390Y-85141904D02*
X168324819Y-85713332D01*
X168324819Y-85713332D02*
X168324819Y-85094285D01*
X164654819Y-128148094D02*
X163654819Y-128148094D01*
X163654819Y-128148094D02*
X163654819Y-127909999D01*
X163654819Y-127909999D02*
X163702438Y-127767142D01*
X163702438Y-127767142D02*
X163797676Y-127671904D01*
X163797676Y-127671904D02*
X163892914Y-127624285D01*
X163892914Y-127624285D02*
X164083390Y-127576666D01*
X164083390Y-127576666D02*
X164226247Y-127576666D01*
X164226247Y-127576666D02*
X164416723Y-127624285D01*
X164416723Y-127624285D02*
X164511961Y-127671904D01*
X164511961Y-127671904D02*
X164607200Y-127767142D01*
X164607200Y-127767142D02*
X164654819Y-127909999D01*
X164654819Y-127909999D02*
X164654819Y-128148094D01*
X163988152Y-126719523D02*
X164654819Y-126719523D01*
X163607200Y-126957618D02*
X164321485Y-127195713D01*
X164321485Y-127195713D02*
X164321485Y-126576666D01*
X144199580Y-88702857D02*
X144247200Y-88750476D01*
X144247200Y-88750476D02*
X144294819Y-88893333D01*
X144294819Y-88893333D02*
X144294819Y-88988571D01*
X144294819Y-88988571D02*
X144247200Y-89131428D01*
X144247200Y-89131428D02*
X144151961Y-89226666D01*
X144151961Y-89226666D02*
X144056723Y-89274285D01*
X144056723Y-89274285D02*
X143866247Y-89321904D01*
X143866247Y-89321904D02*
X143723390Y-89321904D01*
X143723390Y-89321904D02*
X143532914Y-89274285D01*
X143532914Y-89274285D02*
X143437676Y-89226666D01*
X143437676Y-89226666D02*
X143342438Y-89131428D01*
X143342438Y-89131428D02*
X143294819Y-88988571D01*
X143294819Y-88988571D02*
X143294819Y-88893333D01*
X143294819Y-88893333D02*
X143342438Y-88750476D01*
X143342438Y-88750476D02*
X143390057Y-88702857D01*
X144294819Y-87750476D02*
X144294819Y-88321904D01*
X144294819Y-88036190D02*
X143294819Y-88036190D01*
X143294819Y-88036190D02*
X143437676Y-88131428D01*
X143437676Y-88131428D02*
X143532914Y-88226666D01*
X143532914Y-88226666D02*
X143580533Y-88321904D01*
X144294819Y-86798095D02*
X144294819Y-87369523D01*
X144294819Y-87083809D02*
X143294819Y-87083809D01*
X143294819Y-87083809D02*
X143437676Y-87179047D01*
X143437676Y-87179047D02*
X143532914Y-87274285D01*
X143532914Y-87274285D02*
X143580533Y-87369523D01*
X159402319Y-126453333D02*
X160116604Y-126453333D01*
X160116604Y-126453333D02*
X160259461Y-126500952D01*
X160259461Y-126500952D02*
X160354700Y-126596190D01*
X160354700Y-126596190D02*
X160402319Y-126739047D01*
X160402319Y-126739047D02*
X160402319Y-126834285D01*
X159402319Y-125500952D02*
X159402319Y-125977142D01*
X159402319Y-125977142D02*
X159878509Y-126024761D01*
X159878509Y-126024761D02*
X159830890Y-125977142D01*
X159830890Y-125977142D02*
X159783271Y-125881904D01*
X159783271Y-125881904D02*
X159783271Y-125643809D01*
X159783271Y-125643809D02*
X159830890Y-125548571D01*
X159830890Y-125548571D02*
X159878509Y-125500952D01*
X159878509Y-125500952D02*
X159973747Y-125453333D01*
X159973747Y-125453333D02*
X160211842Y-125453333D01*
X160211842Y-125453333D02*
X160307080Y-125500952D01*
X160307080Y-125500952D02*
X160354700Y-125548571D01*
X160354700Y-125548571D02*
X160402319Y-125643809D01*
X160402319Y-125643809D02*
X160402319Y-125881904D01*
X160402319Y-125881904D02*
X160354700Y-125977142D01*
X160354700Y-125977142D02*
X160307080Y-126024761D01*
X152928095Y-96647319D02*
X152928095Y-97456842D01*
X152928095Y-97456842D02*
X152975714Y-97552080D01*
X152975714Y-97552080D02*
X153023333Y-97599700D01*
X153023333Y-97599700D02*
X153118571Y-97647319D01*
X153118571Y-97647319D02*
X153309047Y-97647319D01*
X153309047Y-97647319D02*
X153404285Y-97599700D01*
X153404285Y-97599700D02*
X153451904Y-97552080D01*
X153451904Y-97552080D02*
X153499523Y-97456842D01*
X153499523Y-97456842D02*
X153499523Y-96647319D01*
X153928095Y-96742557D02*
X153975714Y-96694938D01*
X153975714Y-96694938D02*
X154070952Y-96647319D01*
X154070952Y-96647319D02*
X154309047Y-96647319D01*
X154309047Y-96647319D02*
X154404285Y-96694938D01*
X154404285Y-96694938D02*
X154451904Y-96742557D01*
X154451904Y-96742557D02*
X154499523Y-96837795D01*
X154499523Y-96837795D02*
X154499523Y-96933033D01*
X154499523Y-96933033D02*
X154451904Y-97075890D01*
X154451904Y-97075890D02*
X153880476Y-97647319D01*
X153880476Y-97647319D02*
X154499523Y-97647319D01*
X152442319Y-117865357D02*
X151966128Y-118198690D01*
X152442319Y-118436785D02*
X151442319Y-118436785D01*
X151442319Y-118436785D02*
X151442319Y-118055833D01*
X151442319Y-118055833D02*
X151489938Y-117960595D01*
X151489938Y-117960595D02*
X151537557Y-117912976D01*
X151537557Y-117912976D02*
X151632795Y-117865357D01*
X151632795Y-117865357D02*
X151775652Y-117865357D01*
X151775652Y-117865357D02*
X151870890Y-117912976D01*
X151870890Y-117912976D02*
X151918509Y-117960595D01*
X151918509Y-117960595D02*
X151966128Y-118055833D01*
X151966128Y-118055833D02*
X151966128Y-118436785D01*
X152442319Y-116912976D02*
X152442319Y-117484404D01*
X152442319Y-117198690D02*
X151442319Y-117198690D01*
X151442319Y-117198690D02*
X151585176Y-117293928D01*
X151585176Y-117293928D02*
X151680414Y-117389166D01*
X151680414Y-117389166D02*
X151728033Y-117484404D01*
X151775652Y-116055833D02*
X152442319Y-116055833D01*
X151394700Y-116293928D02*
X152108985Y-116532023D01*
X152108985Y-116532023D02*
X152108985Y-115912976D01*
X141828095Y-81046819D02*
X142399523Y-81046819D01*
X142113809Y-82046819D02*
X142113809Y-81046819D01*
X142732857Y-82046819D02*
X142732857Y-81046819D01*
X142732857Y-81046819D02*
X143113809Y-81046819D01*
X143113809Y-81046819D02*
X143209047Y-81094438D01*
X143209047Y-81094438D02*
X143256666Y-81142057D01*
X143256666Y-81142057D02*
X143304285Y-81237295D01*
X143304285Y-81237295D02*
X143304285Y-81380152D01*
X143304285Y-81380152D02*
X143256666Y-81475390D01*
X143256666Y-81475390D02*
X143209047Y-81523009D01*
X143209047Y-81523009D02*
X143113809Y-81570628D01*
X143113809Y-81570628D02*
X142732857Y-81570628D01*
X143875714Y-81475390D02*
X143780476Y-81427771D01*
X143780476Y-81427771D02*
X143732857Y-81380152D01*
X143732857Y-81380152D02*
X143685238Y-81284914D01*
X143685238Y-81284914D02*
X143685238Y-81237295D01*
X143685238Y-81237295D02*
X143732857Y-81142057D01*
X143732857Y-81142057D02*
X143780476Y-81094438D01*
X143780476Y-81094438D02*
X143875714Y-81046819D01*
X143875714Y-81046819D02*
X144066190Y-81046819D01*
X144066190Y-81046819D02*
X144161428Y-81094438D01*
X144161428Y-81094438D02*
X144209047Y-81142057D01*
X144209047Y-81142057D02*
X144256666Y-81237295D01*
X144256666Y-81237295D02*
X144256666Y-81284914D01*
X144256666Y-81284914D02*
X144209047Y-81380152D01*
X144209047Y-81380152D02*
X144161428Y-81427771D01*
X144161428Y-81427771D02*
X144066190Y-81475390D01*
X144066190Y-81475390D02*
X143875714Y-81475390D01*
X143875714Y-81475390D02*
X143780476Y-81523009D01*
X143780476Y-81523009D02*
X143732857Y-81570628D01*
X143732857Y-81570628D02*
X143685238Y-81665866D01*
X143685238Y-81665866D02*
X143685238Y-81856342D01*
X143685238Y-81856342D02*
X143732857Y-81951580D01*
X143732857Y-81951580D02*
X143780476Y-81999200D01*
X143780476Y-81999200D02*
X143875714Y-82046819D01*
X143875714Y-82046819D02*
X144066190Y-82046819D01*
X144066190Y-82046819D02*
X144161428Y-81999200D01*
X144161428Y-81999200D02*
X144209047Y-81951580D01*
X144209047Y-81951580D02*
X144256666Y-81856342D01*
X144256666Y-81856342D02*
X144256666Y-81665866D01*
X144256666Y-81665866D02*
X144209047Y-81570628D01*
X144209047Y-81570628D02*
X144161428Y-81523009D01*
X144161428Y-81523009D02*
X144066190Y-81475390D01*
X152729580Y-97659166D02*
X152777200Y-97706785D01*
X152777200Y-97706785D02*
X152824819Y-97849642D01*
X152824819Y-97849642D02*
X152824819Y-97944880D01*
X152824819Y-97944880D02*
X152777200Y-98087737D01*
X152777200Y-98087737D02*
X152681961Y-98182975D01*
X152681961Y-98182975D02*
X152586723Y-98230594D01*
X152586723Y-98230594D02*
X152396247Y-98278213D01*
X152396247Y-98278213D02*
X152253390Y-98278213D01*
X152253390Y-98278213D02*
X152062914Y-98230594D01*
X152062914Y-98230594D02*
X151967676Y-98182975D01*
X151967676Y-98182975D02*
X151872438Y-98087737D01*
X151872438Y-98087737D02*
X151824819Y-97944880D01*
X151824819Y-97944880D02*
X151824819Y-97849642D01*
X151824819Y-97849642D02*
X151872438Y-97706785D01*
X151872438Y-97706785D02*
X151920057Y-97659166D01*
X152158152Y-96802023D02*
X152824819Y-96802023D01*
X151777200Y-97040118D02*
X152491485Y-97278213D01*
X152491485Y-97278213D02*
X152491485Y-96659166D01*
X166448095Y-115054819D02*
X166448095Y-114054819D01*
X166448095Y-114531009D02*
X167019523Y-114531009D01*
X167019523Y-115054819D02*
X167019523Y-114054819D01*
X168019523Y-115054819D02*
X167448095Y-115054819D01*
X167733809Y-115054819D02*
X167733809Y-114054819D01*
X167733809Y-114054819D02*
X167638571Y-114197676D01*
X167638571Y-114197676D02*
X167543333Y-114292914D01*
X167543333Y-114292914D02*
X167448095Y-114340533D01*
X151709580Y-97676666D02*
X151757200Y-97724285D01*
X151757200Y-97724285D02*
X151804819Y-97867142D01*
X151804819Y-97867142D02*
X151804819Y-97962380D01*
X151804819Y-97962380D02*
X151757200Y-98105237D01*
X151757200Y-98105237D02*
X151661961Y-98200475D01*
X151661961Y-98200475D02*
X151566723Y-98248094D01*
X151566723Y-98248094D02*
X151376247Y-98295713D01*
X151376247Y-98295713D02*
X151233390Y-98295713D01*
X151233390Y-98295713D02*
X151042914Y-98248094D01*
X151042914Y-98248094D02*
X150947676Y-98200475D01*
X150947676Y-98200475D02*
X150852438Y-98105237D01*
X150852438Y-98105237D02*
X150804819Y-97962380D01*
X150804819Y-97962380D02*
X150804819Y-97867142D01*
X150804819Y-97867142D02*
X150852438Y-97724285D01*
X150852438Y-97724285D02*
X150900057Y-97676666D01*
X150804819Y-96771904D02*
X150804819Y-97248094D01*
X150804819Y-97248094D02*
X151281009Y-97295713D01*
X151281009Y-97295713D02*
X151233390Y-97248094D01*
X151233390Y-97248094D02*
X151185771Y-97152856D01*
X151185771Y-97152856D02*
X151185771Y-96914761D01*
X151185771Y-96914761D02*
X151233390Y-96819523D01*
X151233390Y-96819523D02*
X151281009Y-96771904D01*
X151281009Y-96771904D02*
X151376247Y-96724285D01*
X151376247Y-96724285D02*
X151614342Y-96724285D01*
X151614342Y-96724285D02*
X151709580Y-96771904D01*
X151709580Y-96771904D02*
X151757200Y-96819523D01*
X151757200Y-96819523D02*
X151804819Y-96914761D01*
X151804819Y-96914761D02*
X151804819Y-97152856D01*
X151804819Y-97152856D02*
X151757200Y-97248094D01*
X151757200Y-97248094D02*
X151709580Y-97295713D01*
X144074819Y-105176666D02*
X143598628Y-105509999D01*
X144074819Y-105748094D02*
X143074819Y-105748094D01*
X143074819Y-105748094D02*
X143074819Y-105367142D01*
X143074819Y-105367142D02*
X143122438Y-105271904D01*
X143122438Y-105271904D02*
X143170057Y-105224285D01*
X143170057Y-105224285D02*
X143265295Y-105176666D01*
X143265295Y-105176666D02*
X143408152Y-105176666D01*
X143408152Y-105176666D02*
X143503390Y-105224285D01*
X143503390Y-105224285D02*
X143551009Y-105271904D01*
X143551009Y-105271904D02*
X143598628Y-105367142D01*
X143598628Y-105367142D02*
X143598628Y-105748094D01*
X143408152Y-104319523D02*
X144074819Y-104319523D01*
X143027200Y-104557618D02*
X143741485Y-104795713D01*
X143741485Y-104795713D02*
X143741485Y-104176666D01*
X142387142Y-98425580D02*
X142339523Y-98473200D01*
X142339523Y-98473200D02*
X142196666Y-98520819D01*
X142196666Y-98520819D02*
X142101428Y-98520819D01*
X142101428Y-98520819D02*
X141958571Y-98473200D01*
X141958571Y-98473200D02*
X141863333Y-98377961D01*
X141863333Y-98377961D02*
X141815714Y-98282723D01*
X141815714Y-98282723D02*
X141768095Y-98092247D01*
X141768095Y-98092247D02*
X141768095Y-97949390D01*
X141768095Y-97949390D02*
X141815714Y-97758914D01*
X141815714Y-97758914D02*
X141863333Y-97663676D01*
X141863333Y-97663676D02*
X141958571Y-97568438D01*
X141958571Y-97568438D02*
X142101428Y-97520819D01*
X142101428Y-97520819D02*
X142196666Y-97520819D01*
X142196666Y-97520819D02*
X142339523Y-97568438D01*
X142339523Y-97568438D02*
X142387142Y-97616057D01*
X143339523Y-98520819D02*
X142768095Y-98520819D01*
X143053809Y-98520819D02*
X143053809Y-97520819D01*
X143053809Y-97520819D02*
X142958571Y-97663676D01*
X142958571Y-97663676D02*
X142863333Y-97758914D01*
X142863333Y-97758914D02*
X142768095Y-97806533D01*
X143672857Y-97520819D02*
X144339523Y-97520819D01*
X144339523Y-97520819D02*
X143910952Y-98520819D01*
X151729580Y-87419166D02*
X151777200Y-87466785D01*
X151777200Y-87466785D02*
X151824819Y-87609642D01*
X151824819Y-87609642D02*
X151824819Y-87704880D01*
X151824819Y-87704880D02*
X151777200Y-87847737D01*
X151777200Y-87847737D02*
X151681961Y-87942975D01*
X151681961Y-87942975D02*
X151586723Y-87990594D01*
X151586723Y-87990594D02*
X151396247Y-88038213D01*
X151396247Y-88038213D02*
X151253390Y-88038213D01*
X151253390Y-88038213D02*
X151062914Y-87990594D01*
X151062914Y-87990594D02*
X150967676Y-87942975D01*
X150967676Y-87942975D02*
X150872438Y-87847737D01*
X150872438Y-87847737D02*
X150824819Y-87704880D01*
X150824819Y-87704880D02*
X150824819Y-87609642D01*
X150824819Y-87609642D02*
X150872438Y-87466785D01*
X150872438Y-87466785D02*
X150920057Y-87419166D01*
X150920057Y-87038213D02*
X150872438Y-86990594D01*
X150872438Y-86990594D02*
X150824819Y-86895356D01*
X150824819Y-86895356D02*
X150824819Y-86657261D01*
X150824819Y-86657261D02*
X150872438Y-86562023D01*
X150872438Y-86562023D02*
X150920057Y-86514404D01*
X150920057Y-86514404D02*
X151015295Y-86466785D01*
X151015295Y-86466785D02*
X151110533Y-86466785D01*
X151110533Y-86466785D02*
X151253390Y-86514404D01*
X151253390Y-86514404D02*
X151824819Y-87085832D01*
X151824819Y-87085832D02*
X151824819Y-86466785D01*
X164814580Y-95229166D02*
X164862200Y-95276785D01*
X164862200Y-95276785D02*
X164909819Y-95419642D01*
X164909819Y-95419642D02*
X164909819Y-95514880D01*
X164909819Y-95514880D02*
X164862200Y-95657737D01*
X164862200Y-95657737D02*
X164766961Y-95752975D01*
X164766961Y-95752975D02*
X164671723Y-95800594D01*
X164671723Y-95800594D02*
X164481247Y-95848213D01*
X164481247Y-95848213D02*
X164338390Y-95848213D01*
X164338390Y-95848213D02*
X164147914Y-95800594D01*
X164147914Y-95800594D02*
X164052676Y-95752975D01*
X164052676Y-95752975D02*
X163957438Y-95657737D01*
X163957438Y-95657737D02*
X163909819Y-95514880D01*
X163909819Y-95514880D02*
X163909819Y-95419642D01*
X163909819Y-95419642D02*
X163957438Y-95276785D01*
X163957438Y-95276785D02*
X164005057Y-95229166D01*
X163909819Y-94895832D02*
X163909819Y-94276785D01*
X163909819Y-94276785D02*
X164290771Y-94610118D01*
X164290771Y-94610118D02*
X164290771Y-94467261D01*
X164290771Y-94467261D02*
X164338390Y-94372023D01*
X164338390Y-94372023D02*
X164386009Y-94324404D01*
X164386009Y-94324404D02*
X164481247Y-94276785D01*
X164481247Y-94276785D02*
X164719342Y-94276785D01*
X164719342Y-94276785D02*
X164814580Y-94324404D01*
X164814580Y-94324404D02*
X164862200Y-94372023D01*
X164862200Y-94372023D02*
X164909819Y-94467261D01*
X164909819Y-94467261D02*
X164909819Y-94752975D01*
X164909819Y-94752975D02*
X164862200Y-94848213D01*
X164862200Y-94848213D02*
X164814580Y-94895832D01*
X164919819Y-91569166D02*
X164443628Y-91902499D01*
X164919819Y-92140594D02*
X163919819Y-92140594D01*
X163919819Y-92140594D02*
X163919819Y-91759642D01*
X163919819Y-91759642D02*
X163967438Y-91664404D01*
X163967438Y-91664404D02*
X164015057Y-91616785D01*
X164015057Y-91616785D02*
X164110295Y-91569166D01*
X164110295Y-91569166D02*
X164253152Y-91569166D01*
X164253152Y-91569166D02*
X164348390Y-91616785D01*
X164348390Y-91616785D02*
X164396009Y-91664404D01*
X164396009Y-91664404D02*
X164443628Y-91759642D01*
X164443628Y-91759642D02*
X164443628Y-92140594D01*
X164919819Y-90616785D02*
X164919819Y-91188213D01*
X164919819Y-90902499D02*
X163919819Y-90902499D01*
X163919819Y-90902499D02*
X164062676Y-90997737D01*
X164062676Y-90997737D02*
X164157914Y-91092975D01*
X164157914Y-91092975D02*
X164205533Y-91188213D01*
X167343333Y-87464819D02*
X167010000Y-86988628D01*
X166771905Y-87464819D02*
X166771905Y-86464819D01*
X166771905Y-86464819D02*
X167152857Y-86464819D01*
X167152857Y-86464819D02*
X167248095Y-86512438D01*
X167248095Y-86512438D02*
X167295714Y-86560057D01*
X167295714Y-86560057D02*
X167343333Y-86655295D01*
X167343333Y-86655295D02*
X167343333Y-86798152D01*
X167343333Y-86798152D02*
X167295714Y-86893390D01*
X167295714Y-86893390D02*
X167248095Y-86941009D01*
X167248095Y-86941009D02*
X167152857Y-86988628D01*
X167152857Y-86988628D02*
X166771905Y-86988628D01*
X168248095Y-86464819D02*
X167771905Y-86464819D01*
X167771905Y-86464819D02*
X167724286Y-86941009D01*
X167724286Y-86941009D02*
X167771905Y-86893390D01*
X167771905Y-86893390D02*
X167867143Y-86845771D01*
X167867143Y-86845771D02*
X168105238Y-86845771D01*
X168105238Y-86845771D02*
X168200476Y-86893390D01*
X168200476Y-86893390D02*
X168248095Y-86941009D01*
X168248095Y-86941009D02*
X168295714Y-87036247D01*
X168295714Y-87036247D02*
X168295714Y-87274342D01*
X168295714Y-87274342D02*
X168248095Y-87369580D01*
X168248095Y-87369580D02*
X168200476Y-87417200D01*
X168200476Y-87417200D02*
X168105238Y-87464819D01*
X168105238Y-87464819D02*
X167867143Y-87464819D01*
X167867143Y-87464819D02*
X167771905Y-87417200D01*
X167771905Y-87417200D02*
X167724286Y-87369580D01*
X162257142Y-86409580D02*
X162209523Y-86457200D01*
X162209523Y-86457200D02*
X162066666Y-86504819D01*
X162066666Y-86504819D02*
X161971428Y-86504819D01*
X161971428Y-86504819D02*
X161828571Y-86457200D01*
X161828571Y-86457200D02*
X161733333Y-86361961D01*
X161733333Y-86361961D02*
X161685714Y-86266723D01*
X161685714Y-86266723D02*
X161638095Y-86076247D01*
X161638095Y-86076247D02*
X161638095Y-85933390D01*
X161638095Y-85933390D02*
X161685714Y-85742914D01*
X161685714Y-85742914D02*
X161733333Y-85647676D01*
X161733333Y-85647676D02*
X161828571Y-85552438D01*
X161828571Y-85552438D02*
X161971428Y-85504819D01*
X161971428Y-85504819D02*
X162066666Y-85504819D01*
X162066666Y-85504819D02*
X162209523Y-85552438D01*
X162209523Y-85552438D02*
X162257142Y-85600057D01*
X162638095Y-85600057D02*
X162685714Y-85552438D01*
X162685714Y-85552438D02*
X162780952Y-85504819D01*
X162780952Y-85504819D02*
X163019047Y-85504819D01*
X163019047Y-85504819D02*
X163114285Y-85552438D01*
X163114285Y-85552438D02*
X163161904Y-85600057D01*
X163161904Y-85600057D02*
X163209523Y-85695295D01*
X163209523Y-85695295D02*
X163209523Y-85790533D01*
X163209523Y-85790533D02*
X163161904Y-85933390D01*
X163161904Y-85933390D02*
X162590476Y-86504819D01*
X162590476Y-86504819D02*
X163209523Y-86504819D01*
X164161904Y-86504819D02*
X163590476Y-86504819D01*
X163876190Y-86504819D02*
X163876190Y-85504819D01*
X163876190Y-85504819D02*
X163780952Y-85647676D01*
X163780952Y-85647676D02*
X163685714Y-85742914D01*
X163685714Y-85742914D02*
X163590476Y-85790533D01*
X154689580Y-97659166D02*
X154737200Y-97706785D01*
X154737200Y-97706785D02*
X154784819Y-97849642D01*
X154784819Y-97849642D02*
X154784819Y-97944880D01*
X154784819Y-97944880D02*
X154737200Y-98087737D01*
X154737200Y-98087737D02*
X154641961Y-98182975D01*
X154641961Y-98182975D02*
X154546723Y-98230594D01*
X154546723Y-98230594D02*
X154356247Y-98278213D01*
X154356247Y-98278213D02*
X154213390Y-98278213D01*
X154213390Y-98278213D02*
X154022914Y-98230594D01*
X154022914Y-98230594D02*
X153927676Y-98182975D01*
X153927676Y-98182975D02*
X153832438Y-98087737D01*
X153832438Y-98087737D02*
X153784819Y-97944880D01*
X153784819Y-97944880D02*
X153784819Y-97849642D01*
X153784819Y-97849642D02*
X153832438Y-97706785D01*
X153832438Y-97706785D02*
X153880057Y-97659166D01*
X153784819Y-96802023D02*
X153784819Y-96992499D01*
X153784819Y-96992499D02*
X153832438Y-97087737D01*
X153832438Y-97087737D02*
X153880057Y-97135356D01*
X153880057Y-97135356D02*
X154022914Y-97230594D01*
X154022914Y-97230594D02*
X154213390Y-97278213D01*
X154213390Y-97278213D02*
X154594342Y-97278213D01*
X154594342Y-97278213D02*
X154689580Y-97230594D01*
X154689580Y-97230594D02*
X154737200Y-97182975D01*
X154737200Y-97182975D02*
X154784819Y-97087737D01*
X154784819Y-97087737D02*
X154784819Y-96897261D01*
X154784819Y-96897261D02*
X154737200Y-96802023D01*
X154737200Y-96802023D02*
X154689580Y-96754404D01*
X154689580Y-96754404D02*
X154594342Y-96706785D01*
X154594342Y-96706785D02*
X154356247Y-96706785D01*
X154356247Y-96706785D02*
X154261009Y-96754404D01*
X154261009Y-96754404D02*
X154213390Y-96802023D01*
X154213390Y-96802023D02*
X154165771Y-96897261D01*
X154165771Y-96897261D02*
X154165771Y-97087737D01*
X154165771Y-97087737D02*
X154213390Y-97182975D01*
X154213390Y-97182975D02*
X154261009Y-97230594D01*
X154261009Y-97230594D02*
X154356247Y-97278213D01*
X171206666Y-94454819D02*
X171206666Y-95169104D01*
X171206666Y-95169104D02*
X171159047Y-95311961D01*
X171159047Y-95311961D02*
X171063809Y-95407200D01*
X171063809Y-95407200D02*
X170920952Y-95454819D01*
X170920952Y-95454819D02*
X170825714Y-95454819D01*
X171587619Y-94454819D02*
X172206666Y-94454819D01*
X172206666Y-94454819D02*
X171873333Y-94835771D01*
X171873333Y-94835771D02*
X172016190Y-94835771D01*
X172016190Y-94835771D02*
X172111428Y-94883390D01*
X172111428Y-94883390D02*
X172159047Y-94931009D01*
X172159047Y-94931009D02*
X172206666Y-95026247D01*
X172206666Y-95026247D02*
X172206666Y-95264342D01*
X172206666Y-95264342D02*
X172159047Y-95359580D01*
X172159047Y-95359580D02*
X172111428Y-95407200D01*
X172111428Y-95407200D02*
X172016190Y-95454819D01*
X172016190Y-95454819D02*
X171730476Y-95454819D01*
X171730476Y-95454819D02*
X171635238Y-95407200D01*
X171635238Y-95407200D02*
X171587619Y-95359580D01*
X156408095Y-113906819D02*
X156979523Y-113906819D01*
X156693809Y-114906819D02*
X156693809Y-113906819D01*
X157312857Y-114906819D02*
X157312857Y-113906819D01*
X157312857Y-113906819D02*
X157693809Y-113906819D01*
X157693809Y-113906819D02*
X157789047Y-113954438D01*
X157789047Y-113954438D02*
X157836666Y-114002057D01*
X157836666Y-114002057D02*
X157884285Y-114097295D01*
X157884285Y-114097295D02*
X157884285Y-114240152D01*
X157884285Y-114240152D02*
X157836666Y-114335390D01*
X157836666Y-114335390D02*
X157789047Y-114383009D01*
X157789047Y-114383009D02*
X157693809Y-114430628D01*
X157693809Y-114430628D02*
X157312857Y-114430628D01*
X158265238Y-114002057D02*
X158312857Y-113954438D01*
X158312857Y-113954438D02*
X158408095Y-113906819D01*
X158408095Y-113906819D02*
X158646190Y-113906819D01*
X158646190Y-113906819D02*
X158741428Y-113954438D01*
X158741428Y-113954438D02*
X158789047Y-114002057D01*
X158789047Y-114002057D02*
X158836666Y-114097295D01*
X158836666Y-114097295D02*
X158836666Y-114192533D01*
X158836666Y-114192533D02*
X158789047Y-114335390D01*
X158789047Y-114335390D02*
X158217619Y-114906819D01*
X158217619Y-114906819D02*
X158836666Y-114906819D01*
X151784819Y-87416666D02*
X151308628Y-87749999D01*
X151784819Y-87988094D02*
X150784819Y-87988094D01*
X150784819Y-87988094D02*
X150784819Y-87607142D01*
X150784819Y-87607142D02*
X150832438Y-87511904D01*
X150832438Y-87511904D02*
X150880057Y-87464285D01*
X150880057Y-87464285D02*
X150975295Y-87416666D01*
X150975295Y-87416666D02*
X151118152Y-87416666D01*
X151118152Y-87416666D02*
X151213390Y-87464285D01*
X151213390Y-87464285D02*
X151261009Y-87511904D01*
X151261009Y-87511904D02*
X151308628Y-87607142D01*
X151308628Y-87607142D02*
X151308628Y-87988094D01*
X150880057Y-87035713D02*
X150832438Y-86988094D01*
X150832438Y-86988094D02*
X150784819Y-86892856D01*
X150784819Y-86892856D02*
X150784819Y-86654761D01*
X150784819Y-86654761D02*
X150832438Y-86559523D01*
X150832438Y-86559523D02*
X150880057Y-86511904D01*
X150880057Y-86511904D02*
X150975295Y-86464285D01*
X150975295Y-86464285D02*
X151070533Y-86464285D01*
X151070533Y-86464285D02*
X151213390Y-86511904D01*
X151213390Y-86511904D02*
X151784819Y-87083332D01*
X151784819Y-87083332D02*
X151784819Y-86464285D01*
X146222476Y-85450069D02*
X146889142Y-86450069D01*
X146889142Y-85450069D02*
X146222476Y-86450069D01*
X147793904Y-86450069D02*
X147222476Y-86450069D01*
X147508190Y-86450069D02*
X147508190Y-85450069D01*
X147508190Y-85450069D02*
X147412952Y-85592926D01*
X147412952Y-85592926D02*
X147317714Y-85688164D01*
X147317714Y-85688164D02*
X147222476Y-85735783D01*
X145019580Y-105622857D02*
X145067200Y-105670476D01*
X145067200Y-105670476D02*
X145114819Y-105813333D01*
X145114819Y-105813333D02*
X145114819Y-105908571D01*
X145114819Y-105908571D02*
X145067200Y-106051428D01*
X145067200Y-106051428D02*
X144971961Y-106146666D01*
X144971961Y-106146666D02*
X144876723Y-106194285D01*
X144876723Y-106194285D02*
X144686247Y-106241904D01*
X144686247Y-106241904D02*
X144543390Y-106241904D01*
X144543390Y-106241904D02*
X144352914Y-106194285D01*
X144352914Y-106194285D02*
X144257676Y-106146666D01*
X144257676Y-106146666D02*
X144162438Y-106051428D01*
X144162438Y-106051428D02*
X144114819Y-105908571D01*
X144114819Y-105908571D02*
X144114819Y-105813333D01*
X144114819Y-105813333D02*
X144162438Y-105670476D01*
X144162438Y-105670476D02*
X144210057Y-105622857D01*
X145114819Y-104670476D02*
X145114819Y-105241904D01*
X145114819Y-104956190D02*
X144114819Y-104956190D01*
X144114819Y-104956190D02*
X144257676Y-105051428D01*
X144257676Y-105051428D02*
X144352914Y-105146666D01*
X144352914Y-105146666D02*
X144400533Y-105241904D01*
X144114819Y-104337142D02*
X144114819Y-103718095D01*
X144114819Y-103718095D02*
X144495771Y-104051428D01*
X144495771Y-104051428D02*
X144495771Y-103908571D01*
X144495771Y-103908571D02*
X144543390Y-103813333D01*
X144543390Y-103813333D02*
X144591009Y-103765714D01*
X144591009Y-103765714D02*
X144686247Y-103718095D01*
X144686247Y-103718095D02*
X144924342Y-103718095D01*
X144924342Y-103718095D02*
X145019580Y-103765714D01*
X145019580Y-103765714D02*
X145067200Y-103813333D01*
X145067200Y-103813333D02*
X145114819Y-103908571D01*
X145114819Y-103908571D02*
X145114819Y-104194285D01*
X145114819Y-104194285D02*
X145067200Y-104289523D01*
X145067200Y-104289523D02*
X145019580Y-104337142D01*
X160437142Y-120359580D02*
X160389523Y-120407200D01*
X160389523Y-120407200D02*
X160246666Y-120454819D01*
X160246666Y-120454819D02*
X160151428Y-120454819D01*
X160151428Y-120454819D02*
X160008571Y-120407200D01*
X160008571Y-120407200D02*
X159913333Y-120311961D01*
X159913333Y-120311961D02*
X159865714Y-120216723D01*
X159865714Y-120216723D02*
X159818095Y-120026247D01*
X159818095Y-120026247D02*
X159818095Y-119883390D01*
X159818095Y-119883390D02*
X159865714Y-119692914D01*
X159865714Y-119692914D02*
X159913333Y-119597676D01*
X159913333Y-119597676D02*
X160008571Y-119502438D01*
X160008571Y-119502438D02*
X160151428Y-119454819D01*
X160151428Y-119454819D02*
X160246666Y-119454819D01*
X160246666Y-119454819D02*
X160389523Y-119502438D01*
X160389523Y-119502438D02*
X160437142Y-119550057D01*
X161389523Y-120454819D02*
X160818095Y-120454819D01*
X161103809Y-120454819D02*
X161103809Y-119454819D01*
X161103809Y-119454819D02*
X161008571Y-119597676D01*
X161008571Y-119597676D02*
X160913333Y-119692914D01*
X160913333Y-119692914D02*
X160818095Y-119740533D01*
X162246666Y-119454819D02*
X162056190Y-119454819D01*
X162056190Y-119454819D02*
X161960952Y-119502438D01*
X161960952Y-119502438D02*
X161913333Y-119550057D01*
X161913333Y-119550057D02*
X161818095Y-119692914D01*
X161818095Y-119692914D02*
X161770476Y-119883390D01*
X161770476Y-119883390D02*
X161770476Y-120264342D01*
X161770476Y-120264342D02*
X161818095Y-120359580D01*
X161818095Y-120359580D02*
X161865714Y-120407200D01*
X161865714Y-120407200D02*
X161960952Y-120454819D01*
X161960952Y-120454819D02*
X162151428Y-120454819D01*
X162151428Y-120454819D02*
X162246666Y-120407200D01*
X162246666Y-120407200D02*
X162294285Y-120359580D01*
X162294285Y-120359580D02*
X162341904Y-120264342D01*
X162341904Y-120264342D02*
X162341904Y-120026247D01*
X162341904Y-120026247D02*
X162294285Y-119931009D01*
X162294285Y-119931009D02*
X162246666Y-119883390D01*
X162246666Y-119883390D02*
X162151428Y-119835771D01*
X162151428Y-119835771D02*
X161960952Y-119835771D01*
X161960952Y-119835771D02*
X161865714Y-119883390D01*
X161865714Y-119883390D02*
X161818095Y-119931009D01*
X161818095Y-119931009D02*
X161770476Y-120026247D01*
X156754819Y-66013333D02*
X157469104Y-66013333D01*
X157469104Y-66013333D02*
X157611961Y-66060952D01*
X157611961Y-66060952D02*
X157707200Y-66156190D01*
X157707200Y-66156190D02*
X157754819Y-66299047D01*
X157754819Y-66299047D02*
X157754819Y-66394285D01*
X157754819Y-65013333D02*
X157754819Y-65584761D01*
X157754819Y-65299047D02*
X156754819Y-65299047D01*
X156754819Y-65299047D02*
X156897676Y-65394285D01*
X156897676Y-65394285D02*
X156992914Y-65489523D01*
X156992914Y-65489523D02*
X157040533Y-65584761D01*
X142627142Y-101875580D02*
X142579523Y-101923200D01*
X142579523Y-101923200D02*
X142436666Y-101970819D01*
X142436666Y-101970819D02*
X142341428Y-101970819D01*
X142341428Y-101970819D02*
X142198571Y-101923200D01*
X142198571Y-101923200D02*
X142103333Y-101827961D01*
X142103333Y-101827961D02*
X142055714Y-101732723D01*
X142055714Y-101732723D02*
X142008095Y-101542247D01*
X142008095Y-101542247D02*
X142008095Y-101399390D01*
X142008095Y-101399390D02*
X142055714Y-101208914D01*
X142055714Y-101208914D02*
X142103333Y-101113676D01*
X142103333Y-101113676D02*
X142198571Y-101018438D01*
X142198571Y-101018438D02*
X142341428Y-100970819D01*
X142341428Y-100970819D02*
X142436666Y-100970819D01*
X142436666Y-100970819D02*
X142579523Y-101018438D01*
X142579523Y-101018438D02*
X142627142Y-101066057D01*
X143008095Y-101066057D02*
X143055714Y-101018438D01*
X143055714Y-101018438D02*
X143150952Y-100970819D01*
X143150952Y-100970819D02*
X143389047Y-100970819D01*
X143389047Y-100970819D02*
X143484285Y-101018438D01*
X143484285Y-101018438D02*
X143531904Y-101066057D01*
X143531904Y-101066057D02*
X143579523Y-101161295D01*
X143579523Y-101161295D02*
X143579523Y-101256533D01*
X143579523Y-101256533D02*
X143531904Y-101399390D01*
X143531904Y-101399390D02*
X142960476Y-101970819D01*
X142960476Y-101970819D02*
X143579523Y-101970819D01*
X144198571Y-100970819D02*
X144293809Y-100970819D01*
X144293809Y-100970819D02*
X144389047Y-101018438D01*
X144389047Y-101018438D02*
X144436666Y-101066057D01*
X144436666Y-101066057D02*
X144484285Y-101161295D01*
X144484285Y-101161295D02*
X144531904Y-101351771D01*
X144531904Y-101351771D02*
X144531904Y-101589866D01*
X144531904Y-101589866D02*
X144484285Y-101780342D01*
X144484285Y-101780342D02*
X144436666Y-101875580D01*
X144436666Y-101875580D02*
X144389047Y-101923200D01*
X144389047Y-101923200D02*
X144293809Y-101970819D01*
X144293809Y-101970819D02*
X144198571Y-101970819D01*
X144198571Y-101970819D02*
X144103333Y-101923200D01*
X144103333Y-101923200D02*
X144055714Y-101875580D01*
X144055714Y-101875580D02*
X144008095Y-101780342D01*
X144008095Y-101780342D02*
X143960476Y-101589866D01*
X143960476Y-101589866D02*
X143960476Y-101351771D01*
X143960476Y-101351771D02*
X144008095Y-101161295D01*
X144008095Y-101161295D02*
X144055714Y-101066057D01*
X144055714Y-101066057D02*
X144103333Y-101018438D01*
X144103333Y-101018438D02*
X144198571Y-100970819D01*
X187474819Y-173688857D02*
X186998628Y-174022190D01*
X187474819Y-174260285D02*
X186474819Y-174260285D01*
X186474819Y-174260285D02*
X186474819Y-173879333D01*
X186474819Y-173879333D02*
X186522438Y-173784095D01*
X186522438Y-173784095D02*
X186570057Y-173736476D01*
X186570057Y-173736476D02*
X186665295Y-173688857D01*
X186665295Y-173688857D02*
X186808152Y-173688857D01*
X186808152Y-173688857D02*
X186903390Y-173736476D01*
X186903390Y-173736476D02*
X186951009Y-173784095D01*
X186951009Y-173784095D02*
X186998628Y-173879333D01*
X186998628Y-173879333D02*
X186998628Y-174260285D01*
X187474819Y-172736476D02*
X187474819Y-173307904D01*
X187474819Y-173022190D02*
X186474819Y-173022190D01*
X186474819Y-173022190D02*
X186617676Y-173117428D01*
X186617676Y-173117428D02*
X186712914Y-173212666D01*
X186712914Y-173212666D02*
X186760533Y-173307904D01*
X186474819Y-171831714D02*
X186474819Y-172307904D01*
X186474819Y-172307904D02*
X186951009Y-172355523D01*
X186951009Y-172355523D02*
X186903390Y-172307904D01*
X186903390Y-172307904D02*
X186855771Y-172212666D01*
X186855771Y-172212666D02*
X186855771Y-171974571D01*
X186855771Y-171974571D02*
X186903390Y-171879333D01*
X186903390Y-171879333D02*
X186951009Y-171831714D01*
X186951009Y-171831714D02*
X187046247Y-171784095D01*
X187046247Y-171784095D02*
X187284342Y-171784095D01*
X187284342Y-171784095D02*
X187379580Y-171831714D01*
X187379580Y-171831714D02*
X187427200Y-171879333D01*
X187427200Y-171879333D02*
X187474819Y-171974571D01*
X187474819Y-171974571D02*
X187474819Y-172212666D01*
X187474819Y-172212666D02*
X187427200Y-172307904D01*
X187427200Y-172307904D02*
X187379580Y-172355523D01*
X147374819Y-100670857D02*
X146898628Y-101004190D01*
X147374819Y-101242285D02*
X146374819Y-101242285D01*
X146374819Y-101242285D02*
X146374819Y-100861333D01*
X146374819Y-100861333D02*
X146422438Y-100766095D01*
X146422438Y-100766095D02*
X146470057Y-100718476D01*
X146470057Y-100718476D02*
X146565295Y-100670857D01*
X146565295Y-100670857D02*
X146708152Y-100670857D01*
X146708152Y-100670857D02*
X146803390Y-100718476D01*
X146803390Y-100718476D02*
X146851009Y-100766095D01*
X146851009Y-100766095D02*
X146898628Y-100861333D01*
X146898628Y-100861333D02*
X146898628Y-101242285D01*
X147374819Y-99718476D02*
X147374819Y-100289904D01*
X147374819Y-100004190D02*
X146374819Y-100004190D01*
X146374819Y-100004190D02*
X146517676Y-100099428D01*
X146517676Y-100099428D02*
X146612914Y-100194666D01*
X146612914Y-100194666D02*
X146660533Y-100289904D01*
X146470057Y-99337523D02*
X146422438Y-99289904D01*
X146422438Y-99289904D02*
X146374819Y-99194666D01*
X146374819Y-99194666D02*
X146374819Y-98956571D01*
X146374819Y-98956571D02*
X146422438Y-98861333D01*
X146422438Y-98861333D02*
X146470057Y-98813714D01*
X146470057Y-98813714D02*
X146565295Y-98766095D01*
X146565295Y-98766095D02*
X146660533Y-98766095D01*
X146660533Y-98766095D02*
X146803390Y-98813714D01*
X146803390Y-98813714D02*
X147374819Y-99385142D01*
X147374819Y-99385142D02*
X147374819Y-98766095D01*
X145264819Y-94596666D02*
X144788628Y-94929999D01*
X145264819Y-95168094D02*
X144264819Y-95168094D01*
X144264819Y-95168094D02*
X144264819Y-94787142D01*
X144264819Y-94787142D02*
X144312438Y-94691904D01*
X144312438Y-94691904D02*
X144360057Y-94644285D01*
X144360057Y-94644285D02*
X144455295Y-94596666D01*
X144455295Y-94596666D02*
X144598152Y-94596666D01*
X144598152Y-94596666D02*
X144693390Y-94644285D01*
X144693390Y-94644285D02*
X144741009Y-94691904D01*
X144741009Y-94691904D02*
X144788628Y-94787142D01*
X144788628Y-94787142D02*
X144788628Y-95168094D01*
X144693390Y-94025237D02*
X144645771Y-94120475D01*
X144645771Y-94120475D02*
X144598152Y-94168094D01*
X144598152Y-94168094D02*
X144502914Y-94215713D01*
X144502914Y-94215713D02*
X144455295Y-94215713D01*
X144455295Y-94215713D02*
X144360057Y-94168094D01*
X144360057Y-94168094D02*
X144312438Y-94120475D01*
X144312438Y-94120475D02*
X144264819Y-94025237D01*
X144264819Y-94025237D02*
X144264819Y-93834761D01*
X144264819Y-93834761D02*
X144312438Y-93739523D01*
X144312438Y-93739523D02*
X144360057Y-93691904D01*
X144360057Y-93691904D02*
X144455295Y-93644285D01*
X144455295Y-93644285D02*
X144502914Y-93644285D01*
X144502914Y-93644285D02*
X144598152Y-93691904D01*
X144598152Y-93691904D02*
X144645771Y-93739523D01*
X144645771Y-93739523D02*
X144693390Y-93834761D01*
X144693390Y-93834761D02*
X144693390Y-94025237D01*
X144693390Y-94025237D02*
X144741009Y-94120475D01*
X144741009Y-94120475D02*
X144788628Y-94168094D01*
X144788628Y-94168094D02*
X144883866Y-94215713D01*
X144883866Y-94215713D02*
X145074342Y-94215713D01*
X145074342Y-94215713D02*
X145169580Y-94168094D01*
X145169580Y-94168094D02*
X145217200Y-94120475D01*
X145217200Y-94120475D02*
X145264819Y-94025237D01*
X145264819Y-94025237D02*
X145264819Y-93834761D01*
X145264819Y-93834761D02*
X145217200Y-93739523D01*
X145217200Y-93739523D02*
X145169580Y-93691904D01*
X145169580Y-93691904D02*
X145074342Y-93644285D01*
X145074342Y-93644285D02*
X144883866Y-93644285D01*
X144883866Y-93644285D02*
X144788628Y-93691904D01*
X144788628Y-93691904D02*
X144741009Y-93739523D01*
X144741009Y-93739523D02*
X144693390Y-93834761D01*
X159217261Y-130360057D02*
X159122023Y-130312438D01*
X159122023Y-130312438D02*
X159026785Y-130217200D01*
X159026785Y-130217200D02*
X158883928Y-130074342D01*
X158883928Y-130074342D02*
X158788690Y-130026723D01*
X158788690Y-130026723D02*
X158693452Y-130026723D01*
X158741071Y-130264819D02*
X158645833Y-130217200D01*
X158645833Y-130217200D02*
X158550595Y-130121961D01*
X158550595Y-130121961D02*
X158502976Y-129931485D01*
X158502976Y-129931485D02*
X158502976Y-129598152D01*
X158502976Y-129598152D02*
X158550595Y-129407676D01*
X158550595Y-129407676D02*
X158645833Y-129312438D01*
X158645833Y-129312438D02*
X158741071Y-129264819D01*
X158741071Y-129264819D02*
X158931547Y-129264819D01*
X158931547Y-129264819D02*
X159026785Y-129312438D01*
X159026785Y-129312438D02*
X159122023Y-129407676D01*
X159122023Y-129407676D02*
X159169642Y-129598152D01*
X159169642Y-129598152D02*
X159169642Y-129931485D01*
X159169642Y-129931485D02*
X159122023Y-130121961D01*
X159122023Y-130121961D02*
X159026785Y-130217200D01*
X159026785Y-130217200D02*
X158931547Y-130264819D01*
X158931547Y-130264819D02*
X158741071Y-130264819D01*
X160122023Y-130264819D02*
X159550595Y-130264819D01*
X159836309Y-130264819D02*
X159836309Y-129264819D01*
X159836309Y-129264819D02*
X159741071Y-129407676D01*
X159741071Y-129407676D02*
X159645833Y-129502914D01*
X159645833Y-129502914D02*
X159550595Y-129550533D01*
X164452557Y-123765238D02*
X164404938Y-123860476D01*
X164404938Y-123860476D02*
X164309700Y-123955714D01*
X164309700Y-123955714D02*
X164166842Y-124098571D01*
X164166842Y-124098571D02*
X164119223Y-124193809D01*
X164119223Y-124193809D02*
X164119223Y-124289047D01*
X164357319Y-124241428D02*
X164309700Y-124336666D01*
X164309700Y-124336666D02*
X164214461Y-124431904D01*
X164214461Y-124431904D02*
X164023985Y-124479523D01*
X164023985Y-124479523D02*
X163690652Y-124479523D01*
X163690652Y-124479523D02*
X163500176Y-124431904D01*
X163500176Y-124431904D02*
X163404938Y-124336666D01*
X163404938Y-124336666D02*
X163357319Y-124241428D01*
X163357319Y-124241428D02*
X163357319Y-124050952D01*
X163357319Y-124050952D02*
X163404938Y-123955714D01*
X163404938Y-123955714D02*
X163500176Y-123860476D01*
X163500176Y-123860476D02*
X163690652Y-123812857D01*
X163690652Y-123812857D02*
X164023985Y-123812857D01*
X164023985Y-123812857D02*
X164214461Y-123860476D01*
X164214461Y-123860476D02*
X164309700Y-123955714D01*
X164309700Y-123955714D02*
X164357319Y-124050952D01*
X164357319Y-124050952D02*
X164357319Y-124241428D01*
X163452557Y-123431904D02*
X163404938Y-123384285D01*
X163404938Y-123384285D02*
X163357319Y-123289047D01*
X163357319Y-123289047D02*
X163357319Y-123050952D01*
X163357319Y-123050952D02*
X163404938Y-122955714D01*
X163404938Y-122955714D02*
X163452557Y-122908095D01*
X163452557Y-122908095D02*
X163547795Y-122860476D01*
X163547795Y-122860476D02*
X163643033Y-122860476D01*
X163643033Y-122860476D02*
X163785890Y-122908095D01*
X163785890Y-122908095D02*
X164357319Y-123479523D01*
X164357319Y-123479523D02*
X164357319Y-122860476D01*
X159309580Y-96476666D02*
X159357200Y-96524285D01*
X159357200Y-96524285D02*
X159404819Y-96667142D01*
X159404819Y-96667142D02*
X159404819Y-96762380D01*
X159404819Y-96762380D02*
X159357200Y-96905237D01*
X159357200Y-96905237D02*
X159261961Y-97000475D01*
X159261961Y-97000475D02*
X159166723Y-97048094D01*
X159166723Y-97048094D02*
X158976247Y-97095713D01*
X158976247Y-97095713D02*
X158833390Y-97095713D01*
X158833390Y-97095713D02*
X158642914Y-97048094D01*
X158642914Y-97048094D02*
X158547676Y-97000475D01*
X158547676Y-97000475D02*
X158452438Y-96905237D01*
X158452438Y-96905237D02*
X158404819Y-96762380D01*
X158404819Y-96762380D02*
X158404819Y-96667142D01*
X158404819Y-96667142D02*
X158452438Y-96524285D01*
X158452438Y-96524285D02*
X158500057Y-96476666D01*
X158833390Y-95905237D02*
X158785771Y-96000475D01*
X158785771Y-96000475D02*
X158738152Y-96048094D01*
X158738152Y-96048094D02*
X158642914Y-96095713D01*
X158642914Y-96095713D02*
X158595295Y-96095713D01*
X158595295Y-96095713D02*
X158500057Y-96048094D01*
X158500057Y-96048094D02*
X158452438Y-96000475D01*
X158452438Y-96000475D02*
X158404819Y-95905237D01*
X158404819Y-95905237D02*
X158404819Y-95714761D01*
X158404819Y-95714761D02*
X158452438Y-95619523D01*
X158452438Y-95619523D02*
X158500057Y-95571904D01*
X158500057Y-95571904D02*
X158595295Y-95524285D01*
X158595295Y-95524285D02*
X158642914Y-95524285D01*
X158642914Y-95524285D02*
X158738152Y-95571904D01*
X158738152Y-95571904D02*
X158785771Y-95619523D01*
X158785771Y-95619523D02*
X158833390Y-95714761D01*
X158833390Y-95714761D02*
X158833390Y-95905237D01*
X158833390Y-95905237D02*
X158881009Y-96000475D01*
X158881009Y-96000475D02*
X158928628Y-96048094D01*
X158928628Y-96048094D02*
X159023866Y-96095713D01*
X159023866Y-96095713D02*
X159214342Y-96095713D01*
X159214342Y-96095713D02*
X159309580Y-96048094D01*
X159309580Y-96048094D02*
X159357200Y-96000475D01*
X159357200Y-96000475D02*
X159404819Y-95905237D01*
X159404819Y-95905237D02*
X159404819Y-95714761D01*
X159404819Y-95714761D02*
X159357200Y-95619523D01*
X159357200Y-95619523D02*
X159309580Y-95571904D01*
X159309580Y-95571904D02*
X159214342Y-95524285D01*
X159214342Y-95524285D02*
X159023866Y-95524285D01*
X159023866Y-95524285D02*
X158928628Y-95571904D01*
X158928628Y-95571904D02*
X158881009Y-95619523D01*
X158881009Y-95619523D02*
X158833390Y-95714761D01*
X158634819Y-119324404D02*
X159444342Y-119324404D01*
X159444342Y-119324404D02*
X159539580Y-119276785D01*
X159539580Y-119276785D02*
X159587200Y-119229166D01*
X159587200Y-119229166D02*
X159634819Y-119133928D01*
X159634819Y-119133928D02*
X159634819Y-118943452D01*
X159634819Y-118943452D02*
X159587200Y-118848214D01*
X159587200Y-118848214D02*
X159539580Y-118800595D01*
X159539580Y-118800595D02*
X159444342Y-118752976D01*
X159444342Y-118752976D02*
X158634819Y-118752976D01*
X158968152Y-117848214D02*
X159634819Y-117848214D01*
X158587200Y-118086309D02*
X159301485Y-118324404D01*
X159301485Y-118324404D02*
X159301485Y-117705357D01*
X170254819Y-107504404D02*
X171064342Y-107504404D01*
X171064342Y-107504404D02*
X171159580Y-107456785D01*
X171159580Y-107456785D02*
X171207200Y-107409166D01*
X171207200Y-107409166D02*
X171254819Y-107313928D01*
X171254819Y-107313928D02*
X171254819Y-107123452D01*
X171254819Y-107123452D02*
X171207200Y-107028214D01*
X171207200Y-107028214D02*
X171159580Y-106980595D01*
X171159580Y-106980595D02*
X171064342Y-106932976D01*
X171064342Y-106932976D02*
X170254819Y-106932976D01*
X170254819Y-106552023D02*
X170254819Y-105885357D01*
X170254819Y-105885357D02*
X171254819Y-106313928D01*
X166334819Y-86608094D02*
X165334819Y-86608094D01*
X165334819Y-86608094D02*
X165334819Y-86369999D01*
X165334819Y-86369999D02*
X165382438Y-86227142D01*
X165382438Y-86227142D02*
X165477676Y-86131904D01*
X165477676Y-86131904D02*
X165572914Y-86084285D01*
X165572914Y-86084285D02*
X165763390Y-86036666D01*
X165763390Y-86036666D02*
X165906247Y-86036666D01*
X165906247Y-86036666D02*
X166096723Y-86084285D01*
X166096723Y-86084285D02*
X166191961Y-86131904D01*
X166191961Y-86131904D02*
X166287200Y-86227142D01*
X166287200Y-86227142D02*
X166334819Y-86369999D01*
X166334819Y-86369999D02*
X166334819Y-86608094D01*
X166334819Y-85084285D02*
X166334819Y-85655713D01*
X166334819Y-85369999D02*
X165334819Y-85369999D01*
X165334819Y-85369999D02*
X165477676Y-85465237D01*
X165477676Y-85465237D02*
X165572914Y-85560475D01*
X165572914Y-85560475D02*
X165620533Y-85655713D01*
X147717142Y-116274819D02*
X147383809Y-115798628D01*
X147145714Y-116274819D02*
X147145714Y-115274819D01*
X147145714Y-115274819D02*
X147526666Y-115274819D01*
X147526666Y-115274819D02*
X147621904Y-115322438D01*
X147621904Y-115322438D02*
X147669523Y-115370057D01*
X147669523Y-115370057D02*
X147717142Y-115465295D01*
X147717142Y-115465295D02*
X147717142Y-115608152D01*
X147717142Y-115608152D02*
X147669523Y-115703390D01*
X147669523Y-115703390D02*
X147621904Y-115751009D01*
X147621904Y-115751009D02*
X147526666Y-115798628D01*
X147526666Y-115798628D02*
X147145714Y-115798628D01*
X148669523Y-116274819D02*
X148098095Y-116274819D01*
X148383809Y-116274819D02*
X148383809Y-115274819D01*
X148383809Y-115274819D02*
X148288571Y-115417676D01*
X148288571Y-115417676D02*
X148193333Y-115512914D01*
X148193333Y-115512914D02*
X148098095Y-115560533D01*
X149288571Y-115274819D02*
X149383809Y-115274819D01*
X149383809Y-115274819D02*
X149479047Y-115322438D01*
X149479047Y-115322438D02*
X149526666Y-115370057D01*
X149526666Y-115370057D02*
X149574285Y-115465295D01*
X149574285Y-115465295D02*
X149621904Y-115655771D01*
X149621904Y-115655771D02*
X149621904Y-115893866D01*
X149621904Y-115893866D02*
X149574285Y-116084342D01*
X149574285Y-116084342D02*
X149526666Y-116179580D01*
X149526666Y-116179580D02*
X149479047Y-116227200D01*
X149479047Y-116227200D02*
X149383809Y-116274819D01*
X149383809Y-116274819D02*
X149288571Y-116274819D01*
X149288571Y-116274819D02*
X149193333Y-116227200D01*
X149193333Y-116227200D02*
X149145714Y-116179580D01*
X149145714Y-116179580D02*
X149098095Y-116084342D01*
X149098095Y-116084342D02*
X149050476Y-115893866D01*
X149050476Y-115893866D02*
X149050476Y-115655771D01*
X149050476Y-115655771D02*
X149098095Y-115465295D01*
X149098095Y-115465295D02*
X149145714Y-115370057D01*
X149145714Y-115370057D02*
X149193333Y-115322438D01*
X149193333Y-115322438D02*
X149288571Y-115274819D01*
X148083333Y-93059580D02*
X148035714Y-93107200D01*
X148035714Y-93107200D02*
X147892857Y-93154819D01*
X147892857Y-93154819D02*
X147797619Y-93154819D01*
X147797619Y-93154819D02*
X147654762Y-93107200D01*
X147654762Y-93107200D02*
X147559524Y-93011961D01*
X147559524Y-93011961D02*
X147511905Y-92916723D01*
X147511905Y-92916723D02*
X147464286Y-92726247D01*
X147464286Y-92726247D02*
X147464286Y-92583390D01*
X147464286Y-92583390D02*
X147511905Y-92392914D01*
X147511905Y-92392914D02*
X147559524Y-92297676D01*
X147559524Y-92297676D02*
X147654762Y-92202438D01*
X147654762Y-92202438D02*
X147797619Y-92154819D01*
X147797619Y-92154819D02*
X147892857Y-92154819D01*
X147892857Y-92154819D02*
X148035714Y-92202438D01*
X148035714Y-92202438D02*
X148083333Y-92250057D01*
X148416667Y-92154819D02*
X149083333Y-92154819D01*
X149083333Y-92154819D02*
X148654762Y-93154819D01*
X143738095Y-94634819D02*
X143738095Y-95444342D01*
X143738095Y-95444342D02*
X143785714Y-95539580D01*
X143785714Y-95539580D02*
X143833333Y-95587200D01*
X143833333Y-95587200D02*
X143928571Y-95634819D01*
X143928571Y-95634819D02*
X144119047Y-95634819D01*
X144119047Y-95634819D02*
X144214285Y-95587200D01*
X144214285Y-95587200D02*
X144261904Y-95539580D01*
X144261904Y-95539580D02*
X144309523Y-95444342D01*
X144309523Y-95444342D02*
X144309523Y-94634819D01*
X145261904Y-94634819D02*
X144785714Y-94634819D01*
X144785714Y-94634819D02*
X144738095Y-95111009D01*
X144738095Y-95111009D02*
X144785714Y-95063390D01*
X144785714Y-95063390D02*
X144880952Y-95015771D01*
X144880952Y-95015771D02*
X145119047Y-95015771D01*
X145119047Y-95015771D02*
X145214285Y-95063390D01*
X145214285Y-95063390D02*
X145261904Y-95111009D01*
X145261904Y-95111009D02*
X145309523Y-95206247D01*
X145309523Y-95206247D02*
X145309523Y-95444342D01*
X145309523Y-95444342D02*
X145261904Y-95539580D01*
X145261904Y-95539580D02*
X145214285Y-95587200D01*
X145214285Y-95587200D02*
X145119047Y-95634819D01*
X145119047Y-95634819D02*
X144880952Y-95634819D01*
X144880952Y-95634819D02*
X144785714Y-95587200D01*
X144785714Y-95587200D02*
X144738095Y-95539580D01*
X165029819Y-93764404D02*
X165839342Y-93764404D01*
X165839342Y-93764404D02*
X165934580Y-93716785D01*
X165934580Y-93716785D02*
X165982200Y-93669166D01*
X165982200Y-93669166D02*
X166029819Y-93573928D01*
X166029819Y-93573928D02*
X166029819Y-93383452D01*
X166029819Y-93383452D02*
X165982200Y-93288214D01*
X165982200Y-93288214D02*
X165934580Y-93240595D01*
X165934580Y-93240595D02*
X165839342Y-93192976D01*
X165839342Y-93192976D02*
X165029819Y-93192976D01*
X166029819Y-92192976D02*
X166029819Y-92764404D01*
X166029819Y-92478690D02*
X165029819Y-92478690D01*
X165029819Y-92478690D02*
X165172676Y-92573928D01*
X165172676Y-92573928D02*
X165267914Y-92669166D01*
X165267914Y-92669166D02*
X165315533Y-92764404D01*
X153818095Y-123974819D02*
X154389523Y-123974819D01*
X154103809Y-124974819D02*
X154103809Y-123974819D01*
X154722857Y-124974819D02*
X154722857Y-123974819D01*
X154722857Y-123974819D02*
X155103809Y-123974819D01*
X155103809Y-123974819D02*
X155199047Y-124022438D01*
X155199047Y-124022438D02*
X155246666Y-124070057D01*
X155246666Y-124070057D02*
X155294285Y-124165295D01*
X155294285Y-124165295D02*
X155294285Y-124308152D01*
X155294285Y-124308152D02*
X155246666Y-124403390D01*
X155246666Y-124403390D02*
X155199047Y-124451009D01*
X155199047Y-124451009D02*
X155103809Y-124498628D01*
X155103809Y-124498628D02*
X154722857Y-124498628D01*
X156151428Y-124308152D02*
X156151428Y-124974819D01*
X155913333Y-123927200D02*
X155675238Y-124641485D01*
X155675238Y-124641485D02*
X156294285Y-124641485D01*
X20923095Y-86874819D02*
X20923095Y-85874819D01*
X20923095Y-86351009D02*
X21494523Y-86351009D01*
X21494523Y-86874819D02*
X21494523Y-85874819D01*
X21923095Y-85970057D02*
X21970714Y-85922438D01*
X21970714Y-85922438D02*
X22065952Y-85874819D01*
X22065952Y-85874819D02*
X22304047Y-85874819D01*
X22304047Y-85874819D02*
X22399285Y-85922438D01*
X22399285Y-85922438D02*
X22446904Y-85970057D01*
X22446904Y-85970057D02*
X22494523Y-86065295D01*
X22494523Y-86065295D02*
X22494523Y-86160533D01*
X22494523Y-86160533D02*
X22446904Y-86303390D01*
X22446904Y-86303390D02*
X21875476Y-86874819D01*
X21875476Y-86874819D02*
X22494523Y-86874819D01*
X169353333Y-87454819D02*
X169020000Y-86978628D01*
X168781905Y-87454819D02*
X168781905Y-86454819D01*
X168781905Y-86454819D02*
X169162857Y-86454819D01*
X169162857Y-86454819D02*
X169258095Y-86502438D01*
X169258095Y-86502438D02*
X169305714Y-86550057D01*
X169305714Y-86550057D02*
X169353333Y-86645295D01*
X169353333Y-86645295D02*
X169353333Y-86788152D01*
X169353333Y-86788152D02*
X169305714Y-86883390D01*
X169305714Y-86883390D02*
X169258095Y-86931009D01*
X169258095Y-86931009D02*
X169162857Y-86978628D01*
X169162857Y-86978628D02*
X168781905Y-86978628D01*
X170210476Y-86454819D02*
X170020000Y-86454819D01*
X170020000Y-86454819D02*
X169924762Y-86502438D01*
X169924762Y-86502438D02*
X169877143Y-86550057D01*
X169877143Y-86550057D02*
X169781905Y-86692914D01*
X169781905Y-86692914D02*
X169734286Y-86883390D01*
X169734286Y-86883390D02*
X169734286Y-87264342D01*
X169734286Y-87264342D02*
X169781905Y-87359580D01*
X169781905Y-87359580D02*
X169829524Y-87407200D01*
X169829524Y-87407200D02*
X169924762Y-87454819D01*
X169924762Y-87454819D02*
X170115238Y-87454819D01*
X170115238Y-87454819D02*
X170210476Y-87407200D01*
X170210476Y-87407200D02*
X170258095Y-87359580D01*
X170258095Y-87359580D02*
X170305714Y-87264342D01*
X170305714Y-87264342D02*
X170305714Y-87026247D01*
X170305714Y-87026247D02*
X170258095Y-86931009D01*
X170258095Y-86931009D02*
X170210476Y-86883390D01*
X170210476Y-86883390D02*
X170115238Y-86835771D01*
X170115238Y-86835771D02*
X169924762Y-86835771D01*
X169924762Y-86835771D02*
X169829524Y-86883390D01*
X169829524Y-86883390D02*
X169781905Y-86931009D01*
X169781905Y-86931009D02*
X169734286Y-87026247D01*
X157249580Y-91822857D02*
X157297200Y-91870476D01*
X157297200Y-91870476D02*
X157344819Y-92013333D01*
X157344819Y-92013333D02*
X157344819Y-92108571D01*
X157344819Y-92108571D02*
X157297200Y-92251428D01*
X157297200Y-92251428D02*
X157201961Y-92346666D01*
X157201961Y-92346666D02*
X157106723Y-92394285D01*
X157106723Y-92394285D02*
X156916247Y-92441904D01*
X156916247Y-92441904D02*
X156773390Y-92441904D01*
X156773390Y-92441904D02*
X156582914Y-92394285D01*
X156582914Y-92394285D02*
X156487676Y-92346666D01*
X156487676Y-92346666D02*
X156392438Y-92251428D01*
X156392438Y-92251428D02*
X156344819Y-92108571D01*
X156344819Y-92108571D02*
X156344819Y-92013333D01*
X156344819Y-92013333D02*
X156392438Y-91870476D01*
X156392438Y-91870476D02*
X156440057Y-91822857D01*
X157344819Y-90870476D02*
X157344819Y-91441904D01*
X157344819Y-91156190D02*
X156344819Y-91156190D01*
X156344819Y-91156190D02*
X156487676Y-91251428D01*
X156487676Y-91251428D02*
X156582914Y-91346666D01*
X156582914Y-91346666D02*
X156630533Y-91441904D01*
X156344819Y-90251428D02*
X156344819Y-90156190D01*
X156344819Y-90156190D02*
X156392438Y-90060952D01*
X156392438Y-90060952D02*
X156440057Y-90013333D01*
X156440057Y-90013333D02*
X156535295Y-89965714D01*
X156535295Y-89965714D02*
X156725771Y-89918095D01*
X156725771Y-89918095D02*
X156963866Y-89918095D01*
X156963866Y-89918095D02*
X157154342Y-89965714D01*
X157154342Y-89965714D02*
X157249580Y-90013333D01*
X157249580Y-90013333D02*
X157297200Y-90060952D01*
X157297200Y-90060952D02*
X157344819Y-90156190D01*
X157344819Y-90156190D02*
X157344819Y-90251428D01*
X157344819Y-90251428D02*
X157297200Y-90346666D01*
X157297200Y-90346666D02*
X157249580Y-90394285D01*
X157249580Y-90394285D02*
X157154342Y-90441904D01*
X157154342Y-90441904D02*
X156963866Y-90489523D01*
X156963866Y-90489523D02*
X156725771Y-90489523D01*
X156725771Y-90489523D02*
X156535295Y-90441904D01*
X156535295Y-90441904D02*
X156440057Y-90394285D01*
X156440057Y-90394285D02*
X156392438Y-90346666D01*
X156392438Y-90346666D02*
X156344819Y-90251428D01*
X152669580Y-87885357D02*
X152717200Y-87932976D01*
X152717200Y-87932976D02*
X152764819Y-88075833D01*
X152764819Y-88075833D02*
X152764819Y-88171071D01*
X152764819Y-88171071D02*
X152717200Y-88313928D01*
X152717200Y-88313928D02*
X152621961Y-88409166D01*
X152621961Y-88409166D02*
X152526723Y-88456785D01*
X152526723Y-88456785D02*
X152336247Y-88504404D01*
X152336247Y-88504404D02*
X152193390Y-88504404D01*
X152193390Y-88504404D02*
X152002914Y-88456785D01*
X152002914Y-88456785D02*
X151907676Y-88409166D01*
X151907676Y-88409166D02*
X151812438Y-88313928D01*
X151812438Y-88313928D02*
X151764819Y-88171071D01*
X151764819Y-88171071D02*
X151764819Y-88075833D01*
X151764819Y-88075833D02*
X151812438Y-87932976D01*
X151812438Y-87932976D02*
X151860057Y-87885357D01*
X152764819Y-86932976D02*
X152764819Y-87504404D01*
X152764819Y-87218690D02*
X151764819Y-87218690D01*
X151764819Y-87218690D02*
X151907676Y-87313928D01*
X151907676Y-87313928D02*
X152002914Y-87409166D01*
X152002914Y-87409166D02*
X152050533Y-87504404D01*
X151860057Y-86552023D02*
X151812438Y-86504404D01*
X151812438Y-86504404D02*
X151764819Y-86409166D01*
X151764819Y-86409166D02*
X151764819Y-86171071D01*
X151764819Y-86171071D02*
X151812438Y-86075833D01*
X151812438Y-86075833D02*
X151860057Y-86028214D01*
X151860057Y-86028214D02*
X151955295Y-85980595D01*
X151955295Y-85980595D02*
X152050533Y-85980595D01*
X152050533Y-85980595D02*
X152193390Y-86028214D01*
X152193390Y-86028214D02*
X152764819Y-86599642D01*
X152764819Y-86599642D02*
X152764819Y-85980595D01*
X165383333Y-89784819D02*
X165050000Y-89308628D01*
X164811905Y-89784819D02*
X164811905Y-88784819D01*
X164811905Y-88784819D02*
X165192857Y-88784819D01*
X165192857Y-88784819D02*
X165288095Y-88832438D01*
X165288095Y-88832438D02*
X165335714Y-88880057D01*
X165335714Y-88880057D02*
X165383333Y-88975295D01*
X165383333Y-88975295D02*
X165383333Y-89118152D01*
X165383333Y-89118152D02*
X165335714Y-89213390D01*
X165335714Y-89213390D02*
X165288095Y-89261009D01*
X165288095Y-89261009D02*
X165192857Y-89308628D01*
X165192857Y-89308628D02*
X164811905Y-89308628D01*
X165716667Y-88784819D02*
X166383333Y-88784819D01*
X166383333Y-88784819D02*
X165954762Y-89784819D01*
X152358095Y-125964819D02*
X152929523Y-125964819D01*
X152643809Y-126964819D02*
X152643809Y-125964819D01*
X153262857Y-126964819D02*
X153262857Y-125964819D01*
X153262857Y-125964819D02*
X153643809Y-125964819D01*
X153643809Y-125964819D02*
X153739047Y-126012438D01*
X153739047Y-126012438D02*
X153786666Y-126060057D01*
X153786666Y-126060057D02*
X153834285Y-126155295D01*
X153834285Y-126155295D02*
X153834285Y-126298152D01*
X153834285Y-126298152D02*
X153786666Y-126393390D01*
X153786666Y-126393390D02*
X153739047Y-126441009D01*
X153739047Y-126441009D02*
X153643809Y-126488628D01*
X153643809Y-126488628D02*
X153262857Y-126488628D01*
X154786666Y-126964819D02*
X154215238Y-126964819D01*
X154500952Y-126964819D02*
X154500952Y-125964819D01*
X154500952Y-125964819D02*
X154405714Y-126107676D01*
X154405714Y-126107676D02*
X154310476Y-126202914D01*
X154310476Y-126202914D02*
X154215238Y-126250533D01*
X149654819Y-121264404D02*
X150464342Y-121264404D01*
X150464342Y-121264404D02*
X150559580Y-121216785D01*
X150559580Y-121216785D02*
X150607200Y-121169166D01*
X150607200Y-121169166D02*
X150654819Y-121073928D01*
X150654819Y-121073928D02*
X150654819Y-120883452D01*
X150654819Y-120883452D02*
X150607200Y-120788214D01*
X150607200Y-120788214D02*
X150559580Y-120740595D01*
X150559580Y-120740595D02*
X150464342Y-120692976D01*
X150464342Y-120692976D02*
X149654819Y-120692976D01*
X150083390Y-120073928D02*
X150035771Y-120169166D01*
X150035771Y-120169166D02*
X149988152Y-120216785D01*
X149988152Y-120216785D02*
X149892914Y-120264404D01*
X149892914Y-120264404D02*
X149845295Y-120264404D01*
X149845295Y-120264404D02*
X149750057Y-120216785D01*
X149750057Y-120216785D02*
X149702438Y-120169166D01*
X149702438Y-120169166D02*
X149654819Y-120073928D01*
X149654819Y-120073928D02*
X149654819Y-119883452D01*
X149654819Y-119883452D02*
X149702438Y-119788214D01*
X149702438Y-119788214D02*
X149750057Y-119740595D01*
X149750057Y-119740595D02*
X149845295Y-119692976D01*
X149845295Y-119692976D02*
X149892914Y-119692976D01*
X149892914Y-119692976D02*
X149988152Y-119740595D01*
X149988152Y-119740595D02*
X150035771Y-119788214D01*
X150035771Y-119788214D02*
X150083390Y-119883452D01*
X150083390Y-119883452D02*
X150083390Y-120073928D01*
X150083390Y-120073928D02*
X150131009Y-120169166D01*
X150131009Y-120169166D02*
X150178628Y-120216785D01*
X150178628Y-120216785D02*
X150273866Y-120264404D01*
X150273866Y-120264404D02*
X150464342Y-120264404D01*
X150464342Y-120264404D02*
X150559580Y-120216785D01*
X150559580Y-120216785D02*
X150607200Y-120169166D01*
X150607200Y-120169166D02*
X150654819Y-120073928D01*
X150654819Y-120073928D02*
X150654819Y-119883452D01*
X150654819Y-119883452D02*
X150607200Y-119788214D01*
X150607200Y-119788214D02*
X150559580Y-119740595D01*
X150559580Y-119740595D02*
X150464342Y-119692976D01*
X150464342Y-119692976D02*
X150273866Y-119692976D01*
X150273866Y-119692976D02*
X150178628Y-119740595D01*
X150178628Y-119740595D02*
X150131009Y-119788214D01*
X150131009Y-119788214D02*
X150083390Y-119883452D01*
D11*
%TO.C,C1*%
X154470000Y-97384664D02*
X154470000Y-97600336D01*
X153750000Y-97384664D02*
X153750000Y-97600336D01*
%TO.C,J2*%
X147535000Y-118210000D02*
X145755000Y-118210000D01*
X147535000Y-127610000D02*
X145755000Y-127610000D01*
X150455000Y-120110000D02*
X150455000Y-119310000D01*
%TO.C,R3*%
X144440000Y-107633641D02*
X144440000Y-107326359D01*
X145200000Y-107633641D02*
X145200000Y-107326359D01*
D12*
%TO.C,U6*%
X144064000Y-96631500D02*
X144309500Y-96631500D01*
X144064000Y-97377500D02*
X144064000Y-96631500D01*
X144064000Y-99038500D02*
X144064000Y-99784000D01*
X144064000Y-99784000D02*
X144309500Y-99784000D01*
X146716000Y-96631500D02*
X146470500Y-96631500D01*
X146716000Y-97377500D02*
X146716000Y-96631500D01*
X146716000Y-99038500D02*
X146716000Y-99784000D01*
X146716000Y-99784000D02*
X146470500Y-99784000D01*
D10*
X146227000Y-96303000D02*
G75*
G02*
X146077000Y-96303000I-75000J0D01*
G01*
X146077000Y-96303000D02*
G75*
G02*
X146227000Y-96303000I75000J0D01*
G01*
D11*
%TO.C,C9*%
X148760000Y-96352164D02*
X148760000Y-96567836D01*
X149480000Y-96352164D02*
X149480000Y-96567836D01*
%TO.C,C15*%
X158952500Y-117544664D02*
X158952500Y-117760336D01*
X159672500Y-117544664D02*
X159672500Y-117760336D01*
%TO.C,C14*%
X159002500Y-119810336D02*
X159002500Y-119594664D01*
X159722500Y-119810336D02*
X159722500Y-119594664D01*
%TO.C,C18*%
X145587836Y-92160000D02*
X145372164Y-92160000D01*
X145587836Y-91440000D02*
X145372164Y-91440000D01*
%TO.C,TP5*%
X150190000Y-114650000D02*
G75*
G02*
X148790000Y-114650000I-700000J0D01*
G01*
X148790000Y-114650000D02*
G75*
G02*
X150190000Y-114650000I700000J0D01*
G01*
%TO.C,TP7*%
X142390000Y-80280000D02*
X143790000Y-80280000D01*
X142390000Y-81680000D02*
X142390000Y-80280000D01*
X143790000Y-80280000D02*
X143790000Y-81680000D01*
X143790000Y-81680000D02*
X142390000Y-81680000D01*
%TO.C,C19*%
X143902164Y-94500000D02*
X144117836Y-94500000D01*
X143902164Y-95220000D02*
X144117836Y-95220000D01*
%TO.C,R9*%
X142794359Y-91230000D02*
X143101641Y-91230000D01*
X142794359Y-91990000D02*
X143101641Y-91990000D01*
D13*
%TO.C,U3*%
X146628000Y-69955000D02*
X163265000Y-69955000D01*
X146628000Y-70209000D02*
X146628000Y-69955000D01*
X146628000Y-70379000D02*
X146628000Y-70209000D01*
X146628000Y-72379000D02*
X146628000Y-72041000D01*
X146628000Y-74379000D02*
X146628000Y-74041000D01*
X146628000Y-76379000D02*
X146628000Y-76041000D01*
X146628000Y-78379000D02*
X146628000Y-78041000D01*
X146628000Y-80379000D02*
X146628000Y-80041000D01*
X146628000Y-82379000D02*
X146628000Y-82041000D01*
X146628000Y-84379000D02*
X146628000Y-84041000D01*
X146628000Y-86465000D02*
X146628000Y-86041000D01*
X150184000Y-75924000D02*
X150184000Y-72114000D01*
X150311000Y-72114000D02*
X153994000Y-72114000D01*
X153486000Y-75924000D02*
X150184000Y-75924000D01*
X153994000Y-72114000D02*
X153994000Y-75416000D01*
X153994000Y-75416000D02*
X153486000Y-75924000D01*
X163265000Y-69955000D02*
X163265000Y-70336000D01*
X163265000Y-70336000D02*
X163308500Y-70379500D01*
X163265000Y-72041000D02*
X163265000Y-72379000D01*
X163265000Y-74041000D02*
X163265000Y-74379000D01*
X163265000Y-76041000D02*
X163265000Y-76379000D01*
X163265000Y-78041000D02*
X163265000Y-78379000D01*
X163265000Y-80041000D02*
X163265000Y-80379000D01*
X163265000Y-82041000D02*
X163265000Y-82379000D01*
X163265000Y-84041000D02*
X163265000Y-84379000D01*
X163265000Y-86041000D02*
X163265000Y-86465000D01*
X163265000Y-86465000D02*
X146628000Y-86465000D01*
D11*
%TO.C,R13*%
X151777500Y-117078859D02*
X151777500Y-117386141D01*
X152537500Y-117078859D02*
X152537500Y-117386141D01*
%TO.C,D3*%
X164560000Y-84891250D02*
X164560000Y-87576250D01*
X164560000Y-87576250D02*
X166480000Y-87576250D01*
X166480000Y-87576250D02*
X166480000Y-84891250D01*
%TO.C,TP3*%
X159350000Y-124020000D02*
G75*
G02*
X157950000Y-124020000I-700000J0D01*
G01*
X157950000Y-124020000D02*
G75*
G02*
X159350000Y-124020000I700000J0D01*
G01*
%TO.C,R11*%
X151606359Y-124050000D02*
X151913641Y-124050000D01*
X151606359Y-124810000D02*
X151913641Y-124810000D01*
%TO.C,C22*%
X159367836Y-86760000D02*
X159152164Y-86760000D01*
X159367836Y-87480000D02*
X159152164Y-87480000D01*
%TO.C,D2*%
X168560000Y-84880000D02*
X168560000Y-87565000D01*
X168560000Y-87565000D02*
X170480000Y-87565000D01*
X170480000Y-87565000D02*
X170480000Y-84880000D01*
%TO.C,D4*%
X161500000Y-125800000D02*
X161500000Y-128460000D01*
X163200000Y-125800000D02*
X161500000Y-125800000D01*
X163200000Y-125800000D02*
X163200000Y-128460000D01*
%TO.C,C11*%
X144640000Y-88167836D02*
X144640000Y-87952164D01*
X145360000Y-88167836D02*
X145360000Y-87952164D01*
%TO.C,J5*%
X163760000Y-123110000D02*
X170200000Y-123110000D01*
X163760000Y-128890000D02*
X163760000Y-123110000D01*
X163760000Y-128890000D02*
X170200000Y-128890000D01*
X164280000Y-128890000D02*
X164280000Y-123110000D01*
X169580000Y-123700000D02*
X169580000Y-123110000D01*
X169580000Y-126240000D02*
X169580000Y-125760000D01*
X169580000Y-128890000D02*
X169580000Y-128300000D01*
X170200000Y-123700000D02*
X170200000Y-123110000D01*
X170200000Y-126240000D02*
X170200000Y-125760000D01*
X170200000Y-128890000D02*
X170200000Y-128300000D01*
X171160000Y-127710000D02*
X170550000Y-127270000D01*
X171160000Y-126830000D01*
X171160000Y-127710000D01*
G36*
X171160000Y-127710000D02*
G01*
X170550000Y-127270000D01*
X171160000Y-126830000D01*
X171160000Y-127710000D01*
G37*
%TO.C,U2*%
X149800000Y-88772500D02*
X149800000Y-89422500D01*
X149800000Y-95992500D02*
X149800000Y-95342500D01*
X150450000Y-88772500D02*
X149800000Y-88772500D01*
X150450000Y-95992500D02*
X149800000Y-95992500D01*
X156370000Y-88772500D02*
X157020000Y-88772500D01*
X156370000Y-95992500D02*
X156720000Y-95992500D01*
X157020000Y-88772500D02*
X157020000Y-89422500D01*
X157020000Y-95342500D02*
X157020000Y-95752500D01*
X157260000Y-96322500D02*
X156780000Y-96322500D01*
X157020000Y-95992500D01*
X157260000Y-96322500D01*
G36*
X157260000Y-96322500D02*
G01*
X156780000Y-96322500D01*
X157020000Y-95992500D01*
X157260000Y-96322500D01*
G37*
%TO.C,R14*%
X152777500Y-117376141D02*
X152777500Y-117068859D01*
X153537500Y-117376141D02*
X153537500Y-117068859D01*
%TO.C,TP8*%
X142390000Y-82340000D02*
X143790000Y-82340000D01*
X142390000Y-83740000D02*
X142390000Y-82340000D01*
X143790000Y-82340000D02*
X143790000Y-83740000D01*
X143790000Y-83740000D02*
X142390000Y-83740000D01*
%TO.C,C4*%
X150850000Y-97384664D02*
X150850000Y-97600336D01*
X151570000Y-97384664D02*
X151570000Y-97600336D01*
%TO.C,C5*%
X149830000Y-97402164D02*
X149830000Y-97617836D01*
X150550000Y-97402164D02*
X150550000Y-97617836D01*
%TO.C,R4*%
X144410000Y-105163641D02*
X144410000Y-104856359D01*
X145170000Y-105163641D02*
X145170000Y-104856359D01*
%TO.C,C17*%
X143137836Y-96546000D02*
X142922164Y-96546000D01*
X143137836Y-97266000D02*
X142922164Y-97266000D01*
%TO.C,C2*%
X152170000Y-87360336D02*
X152170000Y-87144664D01*
X152890000Y-87360336D02*
X152890000Y-87144664D01*
%TO.C,C3*%
X165255000Y-95170336D02*
X165255000Y-94954664D01*
X165975000Y-95170336D02*
X165975000Y-94954664D01*
%TO.C,R1*%
X165255000Y-91556141D02*
X165255000Y-91248859D01*
X166015000Y-91556141D02*
X166015000Y-91248859D01*
%TO.C,R5*%
X167356359Y-87780000D02*
X167663641Y-87780000D01*
X167356359Y-88540000D02*
X167663641Y-88540000D01*
%TO.C,C21*%
X162792164Y-86850000D02*
X163007836Y-86850000D01*
X162792164Y-87570000D02*
X163007836Y-87570000D01*
%TO.C,C6*%
X152810000Y-97384664D02*
X152810000Y-97600336D01*
X153530000Y-97384664D02*
X153530000Y-97600336D01*
%TO.C,J3*%
X167510000Y-92450000D02*
X168890000Y-92450000D01*
X167510000Y-93830000D02*
X167510000Y-92450000D01*
X167510000Y-95100000D02*
X167510000Y-97750000D01*
X167510000Y-95100000D02*
X170270000Y-95100000D01*
X167510000Y-97750000D02*
X170270000Y-97750000D01*
X170270000Y-95100000D02*
X170270000Y-97750000D01*
%TO.C,TP2*%
X158370000Y-115900000D02*
G75*
G02*
X156970000Y-115900000I-700000J0D01*
G01*
X156970000Y-115900000D02*
G75*
G02*
X158370000Y-115900000I700000J0D01*
G01*
%TO.C,R2*%
X149780000Y-87096359D02*
X149780000Y-87403641D01*
X150540000Y-87096359D02*
X150540000Y-87403641D01*
D12*
%TO.C,X1*%
X145263000Y-88200000D02*
X145263000Y-89657000D01*
X145263000Y-89657000D02*
X146520000Y-89657000D01*
X145499000Y-86771500D02*
X148801000Y-86771500D01*
X145499000Y-89428500D02*
X145499000Y-86771500D01*
X145621000Y-89428500D02*
X145499000Y-89428500D01*
X148801000Y-86771500D02*
X148801000Y-89428500D01*
X148801000Y-89428500D02*
X145621000Y-89428500D01*
D11*
%TO.C,C13*%
X145460000Y-105087836D02*
X145460000Y-104872164D01*
X146180000Y-105087836D02*
X146180000Y-104872164D01*
%TO.C,C16*%
X160972164Y-120800000D02*
X161187836Y-120800000D01*
X160972164Y-121520000D02*
X161187836Y-121520000D01*
%TO.C,J1*%
X164050000Y-69680000D02*
X164300000Y-69180000D01*
X164300000Y-69180000D02*
X164550000Y-69680000D01*
X164550000Y-69680000D02*
X164050000Y-69680000D01*
%TO.C,C20*%
X143377836Y-99996000D02*
X143162164Y-99996000D01*
X143377836Y-100716000D02*
X143162164Y-100716000D01*
%TO.C,R15*%
X146700000Y-100969641D02*
X146700000Y-100662359D01*
X147460000Y-100969641D02*
X147460000Y-100662359D01*
%TO.C,R12*%
X147710000Y-100181641D02*
X147710000Y-99874359D01*
X148470000Y-100181641D02*
X148470000Y-99874359D01*
%TO.C,R8*%
X145600000Y-94583641D02*
X145600000Y-94276359D01*
X146360000Y-94583641D02*
X146360000Y-94276359D01*
%TO.C,Q1*%
X159312500Y-125850000D02*
X158662500Y-125850000D01*
X159312500Y-125850000D02*
X159962500Y-125850000D01*
X159312500Y-128970000D02*
X158662500Y-128970000D01*
X159312500Y-128970000D02*
X159962500Y-128970000D01*
X160715000Y-129250000D02*
X160235000Y-129250000D01*
X160475000Y-128920000D01*
X160715000Y-129250000D01*
G36*
X160715000Y-129250000D02*
G01*
X160235000Y-129250000D01*
X160475000Y-128920000D01*
X160715000Y-129250000D01*
G37*
%TO.C,Q2*%
X159942500Y-123670000D02*
X159942500Y-123020000D01*
X159942500Y-123670000D02*
X159942500Y-124320000D01*
X163062500Y-123670000D02*
X163062500Y-123020000D01*
X163062500Y-123670000D02*
X163062500Y-124320000D01*
X163342500Y-122747500D02*
X163012500Y-122507500D01*
X163342500Y-122267500D01*
X163342500Y-122747500D01*
G36*
X163342500Y-122747500D02*
G01*
X163012500Y-122507500D01*
X163342500Y-122267500D01*
X163342500Y-122747500D01*
G37*
%TO.C,C8*%
X157430000Y-96202164D02*
X157430000Y-96417836D01*
X158150000Y-96202164D02*
X158150000Y-96417836D01*
%TO.C,U4*%
X160020000Y-118562500D02*
X160020000Y-117762500D01*
X160020000Y-118562500D02*
X160020000Y-119362500D01*
X163140000Y-118562500D02*
X163140000Y-117762500D01*
X163140000Y-118562500D02*
X163140000Y-119362500D01*
X160070000Y-119862500D02*
X159740000Y-120102500D01*
X159740000Y-119622500D01*
X160070000Y-119862500D01*
G36*
X160070000Y-119862500D02*
G01*
X159740000Y-120102500D01*
X159740000Y-119622500D01*
X160070000Y-119862500D01*
G37*
D13*
%TO.C,U7*%
X153100000Y-98742500D02*
X169100000Y-98742500D01*
X153100000Y-100261500D02*
X153100000Y-98742500D01*
X153100000Y-102761500D02*
X153100000Y-101723500D01*
X153100000Y-105261500D02*
X153100000Y-104223500D01*
X153100000Y-107761500D02*
X153100000Y-106723500D01*
X153100000Y-110261500D02*
X153100000Y-109223500D01*
X153100000Y-112761500D02*
X153100000Y-111723500D01*
X153100000Y-114742500D02*
X153100000Y-114223500D01*
X169100000Y-98742500D02*
X169100000Y-98911500D01*
X169100000Y-101623500D02*
X169100000Y-102248500D01*
X169100000Y-102701500D02*
X169100000Y-102248500D01*
X169100000Y-104223500D02*
X169100000Y-104163500D01*
X169100000Y-104223500D02*
X169100000Y-105261500D01*
X169100000Y-106723500D02*
X169100000Y-107761500D01*
X169100000Y-109223500D02*
X169100000Y-110261500D01*
X169100000Y-111723500D02*
X169100000Y-112761500D01*
X169100000Y-114223500D02*
X169100000Y-114742500D01*
X169100000Y-114742500D02*
X153100000Y-114742500D01*
X152700000Y-99842500D02*
G75*
G02*
X152500000Y-99842500I-100000J0D01*
G01*
X152500000Y-99842500D02*
G75*
G02*
X152700000Y-99842500I100000J0D01*
G01*
D14*
G36*
X156200000Y-101530000D02*
G01*
X155000000Y-100930000D01*
X156200000Y-100330000D01*
X156200000Y-101530000D01*
G37*
D11*
%TO.C,D1*%
X166570000Y-84870000D02*
X166570000Y-87555000D01*
X166570000Y-87555000D02*
X168490000Y-87555000D01*
X168490000Y-87555000D02*
X168490000Y-84870000D01*
%TO.C,R10*%
X148126359Y-116610000D02*
X148433641Y-116610000D01*
X148126359Y-117370000D02*
X148433641Y-117370000D01*
%TO.C,C7*%
X148357836Y-91180000D02*
X148142164Y-91180000D01*
X148357836Y-91900000D02*
X148142164Y-91900000D01*
D15*
%TO.C,U5*%
X143208000Y-92230000D02*
X143708000Y-92230000D01*
X143208000Y-92930000D02*
X143208000Y-92230000D01*
X143208000Y-93730000D02*
X143208000Y-94430000D01*
X143208000Y-94430000D02*
X143708000Y-94430000D01*
X144708000Y-94430000D02*
X145408000Y-94430000D01*
X145408000Y-92230000D02*
X144708000Y-92230000D01*
X145408000Y-92930000D02*
X145408000Y-92230000D01*
X145408000Y-94430000D02*
X145408000Y-93730000D01*
X145792000Y-93646000D02*
G75*
G02*
X145525000Y-93646000I-133500J0D01*
G01*
X145525000Y-93646000D02*
G75*
G02*
X145792000Y-93646000I133500J0D01*
G01*
D14*
G36*
X145278000Y-94281000D02*
G01*
X145024000Y-94281000D01*
X145278000Y-94027000D01*
X145278000Y-94281000D01*
G37*
D11*
%TO.C,U1*%
X159215000Y-90242500D02*
X159485000Y-90242500D01*
X159215000Y-93002500D02*
X159215000Y-90242500D01*
X159215000Y-93002500D02*
X159215000Y-95762500D01*
X159215000Y-95762500D02*
X159485000Y-95762500D01*
X164735000Y-90242500D02*
X164465000Y-90242500D01*
X164735000Y-93002500D02*
X164735000Y-90242500D01*
X164735000Y-93002500D02*
X164735000Y-95762500D01*
X164735000Y-95762500D02*
X164465000Y-95762500D01*
X164795000Y-89717500D02*
X164465000Y-89477500D01*
X164795000Y-89237500D01*
X164795000Y-89717500D01*
G36*
X164795000Y-89717500D02*
G01*
X164465000Y-89477500D01*
X164795000Y-89237500D01*
X164795000Y-89717500D01*
G37*
%TO.C,TP4*%
X157870000Y-125560000D02*
G75*
G02*
X156470000Y-125560000I-700000J0D01*
G01*
X156470000Y-125560000D02*
G75*
G02*
X157870000Y-125560000I700000J0D01*
G01*
%TO.C,R6*%
X169366359Y-87790000D02*
X169673641Y-87790000D01*
X169366359Y-88550000D02*
X169673641Y-88550000D01*
%TO.C,C10*%
X157690000Y-91287836D02*
X157690000Y-91072164D01*
X158410000Y-91287836D02*
X158410000Y-91072164D01*
%TO.C,C12*%
X153110000Y-87350336D02*
X153110000Y-87134664D01*
X153830000Y-87350336D02*
X153830000Y-87134664D01*
%TO.C,R7*%
X165703641Y-87780000D02*
X165396359Y-87780000D01*
X165703641Y-88540000D02*
X165396359Y-88540000D01*
%TO.C,TP1*%
X154170000Y-128080000D02*
G75*
G02*
X152770000Y-128080000I-700000J0D01*
G01*
X152770000Y-128080000D02*
G75*
G02*
X154170000Y-128080000I700000J0D01*
G01*
%TO.C,U8*%
X151040000Y-120502500D02*
X151040000Y-119702500D01*
X151040000Y-120502500D02*
X151040000Y-121302500D01*
X154160000Y-120502500D02*
X154160000Y-119702500D01*
X154160000Y-120502500D02*
X154160000Y-121302500D01*
X151090000Y-121802500D02*
X150760000Y-122042500D01*
X150760000Y-121562500D01*
X151090000Y-121802500D01*
G36*
X151090000Y-121802500D02*
G01*
X150760000Y-122042500D01*
X150760000Y-121562500D01*
X151090000Y-121802500D01*
G37*
%TD*%
M02*
