%TF.GenerationSoftware,KiCad,Pcbnew,9.0.2*%
%TF.CreationDate,2025-09-22T16:34:47-04:00*%
%TF.ProjectId,ABAD,41424144-2e6b-4696-9361-645f70636258,rev?*%
%TF.SameCoordinates,Original*%
%TF.FileFunction,Copper,L2,Inr*%
%TF.FilePolarity,Positive*%
%FSLAX46Y46*%
G04 Gerber Fmt 4.6, Leading zero omitted, Abs format (unit mm)*
G04 Created by KiCad (PCBNEW 9.0.2) date 2025-09-22 16:34:47*
%MOMM*%
%LPD*%
G01*
G04 APERTURE LIST*
G04 Aperture macros list*
%AMRoundRect*
0 Rectangle with rounded corners*
0 $1 Rounding radius*
0 $2 $3 $4 $5 $6 $7 $8 $9 X,Y pos of 4 corners*
0 Add a 4 corners polygon primitive as box body*
4,1,4,$2,$3,$4,$5,$6,$7,$8,$9,$2,$3,0*
0 Add four circle primitives for the rounded corners*
1,1,$1+$1,$2,$3*
1,1,$1+$1,$4,$5*
1,1,$1+$1,$6,$7*
1,1,$1+$1,$8,$9*
0 Add four rect primitives between the rounded corners*
20,1,$1+$1,$2,$3,$4,$5,0*
20,1,$1+$1,$4,$5,$6,$7,0*
20,1,$1+$1,$6,$7,$8,$9,0*
20,1,$1+$1,$8,$9,$2,$3,0*%
G04 Aperture macros list end*
%TA.AperFunction,HeatsinkPad*%
%ADD10O,2.100000X1.000000*%
%TD*%
%TA.AperFunction,HeatsinkPad*%
%ADD11O,1.600000X1.000000*%
%TD*%
%TA.AperFunction,ComponentPad*%
%ADD12RoundRect,0.249999X0.850001X-0.850001X0.850001X0.850001X-0.850001X0.850001X-0.850001X-0.850001X0*%
%TD*%
%TA.AperFunction,ComponentPad*%
%ADD13C,2.200000*%
%TD*%
%TA.AperFunction,ComponentPad*%
%ADD14C,6.400000*%
%TD*%
%TA.AperFunction,ComponentPad*%
%ADD15R,1.700000X1.700000*%
%TD*%
%TA.AperFunction,ComponentPad*%
%ADD16C,1.700000*%
%TD*%
%TA.AperFunction,ComponentPad*%
%ADD17C,0.970000*%
%TD*%
%TA.AperFunction,ViaPad*%
%ADD18C,0.600000*%
%TD*%
G04 APERTURE END LIST*
D10*
%TO.N,GND*%
%TO.C,J2*%
X148860000Y-118590000D03*
D11*
X144680000Y-118590000D03*
D10*
X148860000Y-127230000D03*
D11*
X144680000Y-127230000D03*
%TD*%
D12*
%TO.N,GND*%
%TO.C,J5*%
X166980000Y-127270000D03*
D13*
%TO.N,RAW_BATT+*%
X166980000Y-124730000D03*
%TD*%
D14*
%TO.N,N/C*%
%TO.C,H1*%
X167210000Y-118750000D03*
%TD*%
D15*
%TO.N,/BOOTSEL*%
%TO.C,J3*%
X168890000Y-93830000D03*
D16*
%TO.N,GND*%
X168890000Y-96370000D03*
%TD*%
D17*
%TO.N,GND*%
%TO.C,J1*%
X168680000Y-68900000D03*
X159920000Y-68900000D03*
%TD*%
D14*
%TO.N,N/C*%
%TO.C,H2*%
X145830000Y-65870000D03*
%TD*%
D18*
%TO.N,GND*%
X147020000Y-92000000D03*
X146580000Y-89600002D03*
X145450000Y-91040000D03*
%TO.N,+3V3*%
X144400000Y-91020000D03*
%TO.N,GND*%
X158810000Y-96160000D03*
X160780000Y-83210000D03*
X144600000Y-72310000D03*
X149320000Y-97700000D03*
X151080000Y-105260000D03*
X145270000Y-103260000D03*
X144760000Y-128690000D03*
X157750000Y-122360000D03*
X161420000Y-68900000D03*
X145565865Y-97538577D03*
X163420000Y-122760000D03*
X166710000Y-95450000D03*
X153000000Y-85650000D03*
X153100000Y-124430000D03*
X143379265Y-95810735D03*
X155037500Y-121362500D03*
X158770000Y-85740000D03*
X148830000Y-115910000D03*
X169670000Y-128730000D03*
X166580000Y-65480000D03*
X150730000Y-117710000D03*
X163490000Y-115490000D03*
X144600000Y-71370000D03*
X147770000Y-115930000D03*
X162920000Y-121150000D03*
X142770000Y-101710000D03*
X165600000Y-98170000D03*
X150610000Y-101280000D03*
X144150000Y-86240000D03*
X165950000Y-69780000D03*
X144970000Y-78910000D03*
X154270000Y-98930000D03*
X158800000Y-88480000D03*
X166690000Y-98170000D03*
X167140000Y-69780000D03*
X153380000Y-93277046D03*
X151050000Y-126390000D03*
X157590000Y-117780000D03*
X143030000Y-98550000D03*
X154630000Y-90450000D03*
X151120000Y-127920000D03*
X151080000Y-106450000D03*
X165230000Y-89200000D03*
X154390000Y-91560000D03*
X163460000Y-123610000D03*
X144610000Y-70490000D03*
X164380000Y-128640000D03*
X145140000Y-86230000D03*
X158380000Y-117790000D03*
X145150000Y-85220000D03*
X157670000Y-65440000D03*
%TO.N,+3V3*%
X144960000Y-100640000D03*
X151550000Y-109740000D03*
X160990000Y-77710000D03*
%TO.N,+BATT*%
X145780000Y-109760000D03*
X157960000Y-119360000D03*
%TO.N,+3V3*%
X154210000Y-87260000D03*
X165520000Y-83670000D03*
X148090000Y-101418000D03*
X148380000Y-90541000D03*
X142510000Y-93570000D03*
X159720000Y-115840000D03*
X145150000Y-95010000D03*
X153380000Y-94760000D03*
X165095000Y-96542500D03*
X169500000Y-83670000D03*
X148421000Y-96439736D03*
X149079236Y-86190764D03*
X167530000Y-83630000D03*
X161020000Y-87140000D03*
X156890000Y-95860000D03*
X159140000Y-90740000D03*
X144780000Y-89470000D03*
%TO.N,+1V1*%
X151779000Y-94810000D03*
X154940346Y-97738875D03*
X151710735Y-86859265D03*
%TO.N,/BATT SENSE*%
X148450000Y-104570000D03*
X150910061Y-94884541D03*
%TO.N,Net-(J2-CC1)*%
X148330000Y-122050000D03*
X146030000Y-117020000D03*
%TO.N,/SWCLK*%
X152184265Y-89905735D03*
X144850000Y-83280000D03*
%TO.N,/RF_LED*%
X167280000Y-89800000D03*
X160010000Y-90870000D03*
%TO.N,/PPS_LED*%
X169950000Y-89550000D03*
X159429871Y-92351600D03*
%TO.N,/SWD*%
X151378308Y-87586930D03*
X144920000Y-81000000D03*
%TO.N,/ACCEL_SDA*%
X148220000Y-98430000D03*
X146820000Y-97110000D03*
%TO.N,/MOSI*%
X149010000Y-76280000D03*
X154610000Y-84950000D03*
%TO.N,/BMP_SCL*%
X146179942Y-92692141D03*
X146650000Y-91080000D03*
%TO.N,/QSPI_SS*%
X159018528Y-97740000D03*
X164190000Y-91059000D03*
%TO.N,/ACCEL_INT*%
X148853938Y-93917258D03*
X146020000Y-95880000D03*
%TO.N,/QSPI_SD1*%
X156780000Y-97740000D03*
X160820000Y-95090000D03*
%TO.N,/GPS_RX*%
X152070000Y-99710000D03*
X151310801Y-90754182D03*
%TO.N,/XIN*%
X153810000Y-89862271D03*
X149140000Y-87950000D03*
%TO.N,/QSPI_SD0*%
X155720000Y-93530000D03*
X159920000Y-93650000D03*
%TO.N,/QSPI_SCLK*%
X160310000Y-98340000D03*
X155090026Y-96869379D03*
%TO.N,/GPS_TX*%
X151410000Y-99000000D03*
X151170000Y-92330000D03*
%TO.N,/RESET*%
X149650000Y-82360000D03*
X155620000Y-89920000D03*
%TO.N,/SCK*%
X151290000Y-79910000D03*
X149120000Y-77610000D03*
%TO.N,/BMP_INT*%
X142470000Y-94940000D03*
X148930000Y-94940000D03*
%TO.N,/QSPI_SD3*%
X154420735Y-94610735D03*
X162580000Y-94810000D03*
%TO.N,/QSPI_SD2*%
X159120000Y-94970000D03*
X155916054Y-94850000D03*
%TD*%
%TA.AperFunction,Conductor*%
%TO.N,GND*%
G36*
X170552539Y-62150185D02*
G01*
X170598294Y-62202989D01*
X170609500Y-62254500D01*
X170609500Y-88795922D01*
X170589815Y-88862961D01*
X170537011Y-88908716D01*
X170467853Y-88918660D01*
X170416609Y-88899024D01*
X170329185Y-88840609D01*
X170329172Y-88840602D01*
X170183501Y-88780264D01*
X170183489Y-88780261D01*
X170028845Y-88749500D01*
X170028842Y-88749500D01*
X169871158Y-88749500D01*
X169871155Y-88749500D01*
X169716510Y-88780261D01*
X169716498Y-88780264D01*
X169570827Y-88840602D01*
X169570814Y-88840609D01*
X169439711Y-88928210D01*
X169439707Y-88928213D01*
X169328213Y-89039707D01*
X169328210Y-89039711D01*
X169240609Y-89170814D01*
X169240602Y-89170827D01*
X169180264Y-89316498D01*
X169180261Y-89316510D01*
X169149500Y-89471153D01*
X169149500Y-89628846D01*
X169180261Y-89783489D01*
X169180264Y-89783501D01*
X169240602Y-89929172D01*
X169240609Y-89929185D01*
X169328210Y-90060288D01*
X169328213Y-90060292D01*
X169439707Y-90171786D01*
X169439711Y-90171789D01*
X169570814Y-90259390D01*
X169570827Y-90259397D01*
X169694466Y-90310609D01*
X169716503Y-90319737D01*
X169866664Y-90349606D01*
X169871153Y-90350499D01*
X169871156Y-90350500D01*
X169871158Y-90350500D01*
X170028844Y-90350500D01*
X170028845Y-90350499D01*
X170183497Y-90319737D01*
X170329179Y-90259394D01*
X170416609Y-90200974D01*
X170483286Y-90180097D01*
X170550666Y-90198581D01*
X170597357Y-90250560D01*
X170609500Y-90304077D01*
X170609500Y-116768213D01*
X170589815Y-116835252D01*
X170537011Y-116881007D01*
X170467853Y-116890951D01*
X170404297Y-116861926D01*
X170382398Y-116837104D01*
X170230474Y-116609735D01*
X170185854Y-116542956D01*
X169955197Y-116261899D01*
X169955196Y-116261898D01*
X169955192Y-116261893D01*
X169698106Y-116004807D01*
X169417049Y-115774150D01*
X169417048Y-115774149D01*
X169417044Y-115774146D01*
X169114732Y-115572147D01*
X169114727Y-115572144D01*
X169114720Y-115572140D01*
X168794083Y-115400756D01*
X168794078Y-115400754D01*
X168458165Y-115261614D01*
X168110223Y-115156067D01*
X168110212Y-115156064D01*
X167753630Y-115085137D01*
X167481111Y-115058296D01*
X167391794Y-115049500D01*
X167028206Y-115049500D01*
X166945679Y-115057628D01*
X166666369Y-115085137D01*
X166309787Y-115156064D01*
X166309776Y-115156067D01*
X165961834Y-115261614D01*
X165625921Y-115400754D01*
X165625916Y-115400756D01*
X165305279Y-115572140D01*
X165305261Y-115572151D01*
X165002964Y-115774140D01*
X165002950Y-115774150D01*
X164721893Y-116004807D01*
X164464807Y-116261893D01*
X164234150Y-116542950D01*
X164234140Y-116542964D01*
X164032151Y-116845261D01*
X164032140Y-116845279D01*
X163860756Y-117165916D01*
X163860754Y-117165921D01*
X163721614Y-117501834D01*
X163616067Y-117849776D01*
X163616064Y-117849787D01*
X163545137Y-118206369D01*
X163534887Y-118310444D01*
X163509500Y-118568206D01*
X163509500Y-118931794D01*
X163520337Y-119041829D01*
X163545137Y-119293630D01*
X163616064Y-119650212D01*
X163616067Y-119650223D01*
X163721614Y-119998165D01*
X163860754Y-120334078D01*
X163860756Y-120334083D01*
X164032140Y-120654720D01*
X164032151Y-120654738D01*
X164234140Y-120957035D01*
X164234150Y-120957049D01*
X164464807Y-121238106D01*
X164721893Y-121495192D01*
X164721898Y-121495196D01*
X164721899Y-121495197D01*
X165002956Y-121725854D01*
X165305268Y-121927853D01*
X165305277Y-121927858D01*
X165305279Y-121927859D01*
X165625916Y-122099243D01*
X165625918Y-122099243D01*
X165625924Y-122099247D01*
X165961836Y-122238386D01*
X166309767Y-122343930D01*
X166309773Y-122343931D01*
X166309776Y-122343932D01*
X166309787Y-122343935D01*
X166666369Y-122414862D01*
X167028206Y-122450500D01*
X167028209Y-122450500D01*
X167391791Y-122450500D01*
X167391794Y-122450500D01*
X167753631Y-122414862D01*
X167823045Y-122401054D01*
X168110212Y-122343935D01*
X168110223Y-122343932D01*
X168110223Y-122343931D01*
X168110233Y-122343930D01*
X168458164Y-122238386D01*
X168794076Y-122099247D01*
X169114732Y-121927853D01*
X169417044Y-121725854D01*
X169698101Y-121495197D01*
X169955197Y-121238101D01*
X170185854Y-120957044D01*
X170382399Y-120662893D01*
X170436010Y-120618090D01*
X170505335Y-120609383D01*
X170568362Y-120639537D01*
X170605082Y-120698980D01*
X170609500Y-120731786D01*
X170609500Y-129105500D01*
X170589815Y-129172539D01*
X170537011Y-129218294D01*
X170485500Y-129229500D01*
X142134500Y-129229500D01*
X142067461Y-129209815D01*
X142021706Y-129157011D01*
X142010500Y-129105500D01*
X142010500Y-126980000D01*
X143410138Y-126980000D01*
X144213012Y-126980000D01*
X144195795Y-126989940D01*
X144139940Y-127045795D01*
X144100444Y-127114204D01*
X144080000Y-127190504D01*
X144080000Y-127269496D01*
X144100444Y-127345796D01*
X144139940Y-127414205D01*
X144195795Y-127470060D01*
X144213012Y-127480000D01*
X143410138Y-127480000D01*
X143418430Y-127521690D01*
X143418430Y-127521692D01*
X143493807Y-127703671D01*
X143493814Y-127703684D01*
X143603248Y-127867462D01*
X143603251Y-127867466D01*
X143742533Y-128006748D01*
X143742537Y-128006751D01*
X143906315Y-128116185D01*
X143906328Y-128116192D01*
X144088306Y-128191569D01*
X144088318Y-128191572D01*
X144281504Y-128229999D01*
X144281508Y-128230000D01*
X144430000Y-128230000D01*
X144430000Y-127530000D01*
X144930000Y-127530000D01*
X144930000Y-128230000D01*
X145078492Y-128230000D01*
X145078495Y-128229999D01*
X145271681Y-128191572D01*
X145271693Y-128191569D01*
X145453671Y-128116192D01*
X145453684Y-128116185D01*
X145617462Y-128006751D01*
X145617466Y-128006748D01*
X145756748Y-127867466D01*
X145756751Y-127867462D01*
X145866185Y-127703684D01*
X145866192Y-127703671D01*
X145941569Y-127521692D01*
X145941569Y-127521690D01*
X145949862Y-127480000D01*
X145146988Y-127480000D01*
X145164205Y-127470060D01*
X145220060Y-127414205D01*
X145259556Y-127345796D01*
X145280000Y-127269496D01*
X145280000Y-127190504D01*
X145259556Y-127114204D01*
X145220060Y-127045795D01*
X145164205Y-126989940D01*
X145146988Y-126980000D01*
X145949862Y-126980000D01*
X147340138Y-126980000D01*
X148143012Y-126980000D01*
X148125795Y-126989940D01*
X148069940Y-127045795D01*
X148030444Y-127114204D01*
X148010000Y-127190504D01*
X148010000Y-127269496D01*
X148030444Y-127345796D01*
X148069940Y-127414205D01*
X148125795Y-127470060D01*
X148143012Y-127480000D01*
X147340138Y-127480000D01*
X147348430Y-127521690D01*
X147348430Y-127521692D01*
X147423807Y-127703671D01*
X147423814Y-127703684D01*
X147533248Y-127867462D01*
X147533251Y-127867466D01*
X147672533Y-128006748D01*
X147672537Y-128006751D01*
X147836315Y-128116185D01*
X147836328Y-128116192D01*
X148018306Y-128191569D01*
X148018318Y-128191572D01*
X148211504Y-128229999D01*
X148211508Y-128230000D01*
X148610000Y-128230000D01*
X148610000Y-127530000D01*
X149110000Y-127530000D01*
X149110000Y-128230000D01*
X149508492Y-128230000D01*
X149508495Y-128229999D01*
X149701681Y-128191572D01*
X149701693Y-128191569D01*
X149883671Y-128116192D01*
X149883684Y-128116185D01*
X150047462Y-128006751D01*
X150047466Y-128006748D01*
X150186748Y-127867466D01*
X150186751Y-127867462D01*
X150296185Y-127703684D01*
X150296192Y-127703671D01*
X150371569Y-127521692D01*
X150371570Y-127521688D01*
X150379863Y-127480000D01*
X149576988Y-127480000D01*
X149594205Y-127470060D01*
X149650060Y-127414205D01*
X149689556Y-127345796D01*
X149710000Y-127269496D01*
X149710000Y-127190504D01*
X149689556Y-127114204D01*
X149650060Y-127045795D01*
X149594205Y-126989940D01*
X149576988Y-126980000D01*
X150379862Y-126980000D01*
X150371569Y-126938309D01*
X150371569Y-126938307D01*
X150296192Y-126756328D01*
X150296185Y-126756315D01*
X150186751Y-126592537D01*
X150186748Y-126592533D01*
X150047466Y-126453251D01*
X150047462Y-126453248D01*
X149883684Y-126343814D01*
X149883671Y-126343807D01*
X149701693Y-126268430D01*
X149701681Y-126268427D01*
X149508495Y-126230000D01*
X149110000Y-126230000D01*
X149110000Y-126930000D01*
X148610000Y-126930000D01*
X148610000Y-126391784D01*
X148629685Y-126324745D01*
X148672000Y-126284397D01*
X148713365Y-126260515D01*
X148820515Y-126153365D01*
X148821372Y-126151879D01*
X148841721Y-126116637D01*
X148896279Y-126022138D01*
X148896281Y-126022135D01*
X148935500Y-125875766D01*
X148935500Y-125724234D01*
X148896281Y-125577865D01*
X148820515Y-125446635D01*
X148713365Y-125339485D01*
X148647750Y-125301602D01*
X148582136Y-125263719D01*
X148494688Y-125240288D01*
X148435766Y-125224500D01*
X148284234Y-125224500D01*
X148137863Y-125263719D01*
X148006635Y-125339485D01*
X148006632Y-125339487D01*
X147899487Y-125446632D01*
X147899485Y-125446635D01*
X147823719Y-125577863D01*
X147784500Y-125724234D01*
X147784500Y-125875765D01*
X147823719Y-126022136D01*
X147863153Y-126090437D01*
X147899485Y-126153365D01*
X147899486Y-126153366D01*
X147903549Y-126160403D01*
X147901346Y-126161674D01*
X147921959Y-126214983D01*
X147907923Y-126283428D01*
X147859112Y-126333420D01*
X147845845Y-126339866D01*
X147836324Y-126343809D01*
X147836315Y-126343814D01*
X147672537Y-126453248D01*
X147672533Y-126453251D01*
X147533251Y-126592533D01*
X147533248Y-126592537D01*
X147423814Y-126756315D01*
X147423807Y-126756328D01*
X147348430Y-126938307D01*
X147348430Y-126938309D01*
X147340138Y-126980000D01*
X145949862Y-126980000D01*
X145941569Y-126938309D01*
X145941569Y-126938307D01*
X145866192Y-126756328D01*
X145866185Y-126756315D01*
X145756751Y-126592537D01*
X145756748Y-126592533D01*
X145617466Y-126453251D01*
X145617462Y-126453248D01*
X145453684Y-126343814D01*
X145453671Y-126343807D01*
X145271693Y-126268430D01*
X145271681Y-126268427D01*
X145078495Y-126230000D01*
X144930000Y-126230000D01*
X144930000Y-126930000D01*
X144430000Y-126930000D01*
X144430000Y-126230000D01*
X144281504Y-126230000D01*
X144088318Y-126268427D01*
X144088306Y-126268430D01*
X143906328Y-126343807D01*
X143906315Y-126343814D01*
X143742537Y-126453248D01*
X143742533Y-126453251D01*
X143603251Y-126592533D01*
X143603248Y-126592537D01*
X143493814Y-126756315D01*
X143493807Y-126756328D01*
X143418430Y-126938307D01*
X143418430Y-126938309D01*
X143410138Y-126980000D01*
X142010500Y-126980000D01*
X142010500Y-124604038D01*
X165379500Y-124604038D01*
X165379500Y-124855961D01*
X165418910Y-125104785D01*
X165496760Y-125344383D01*
X165611132Y-125568848D01*
X165679062Y-125662347D01*
X165702542Y-125728153D01*
X165686716Y-125796207D01*
X165666426Y-125822913D01*
X165537680Y-125951659D01*
X165445645Y-126100869D01*
X165445640Y-126100880D01*
X165390494Y-126267302D01*
X165380000Y-126370013D01*
X165380000Y-127020000D01*
X166489252Y-127020000D01*
X166467482Y-127057708D01*
X166430000Y-127197591D01*
X166430000Y-127342409D01*
X166467482Y-127482292D01*
X166489252Y-127520000D01*
X165380001Y-127520000D01*
X165380001Y-128169986D01*
X165390494Y-128272696D01*
X165390494Y-128272698D01*
X165445640Y-128439119D01*
X165445645Y-128439130D01*
X165537680Y-128588340D01*
X165537683Y-128588344D01*
X165661655Y-128712316D01*
X165661659Y-128712319D01*
X165810869Y-128804354D01*
X165810880Y-128804359D01*
X165977302Y-128859505D01*
X166080019Y-128869999D01*
X166729999Y-128869999D01*
X166730000Y-128869998D01*
X166730000Y-127760747D01*
X166767708Y-127782518D01*
X166907591Y-127820000D01*
X167052409Y-127820000D01*
X167192292Y-127782518D01*
X167230000Y-127760747D01*
X167230000Y-128869999D01*
X167879972Y-128869999D01*
X167879986Y-128869998D01*
X167982696Y-128859505D01*
X167982698Y-128859505D01*
X168149119Y-128804359D01*
X168149130Y-128804354D01*
X168298340Y-128712319D01*
X168298344Y-128712316D01*
X168422316Y-128588344D01*
X168422319Y-128588340D01*
X168514354Y-128439130D01*
X168514359Y-128439119D01*
X168569505Y-128272697D01*
X168579999Y-128169986D01*
X168579999Y-127712781D01*
X168599683Y-127645742D01*
X168652487Y-127599987D01*
X168721646Y-127590043D01*
X168785202Y-127619068D01*
X168805917Y-127644985D01*
X168807221Y-127644114D01*
X168898210Y-127780288D01*
X168898213Y-127780292D01*
X169009707Y-127891786D01*
X169009711Y-127891789D01*
X169140814Y-127979390D01*
X169140827Y-127979397D01*
X169286498Y-128039735D01*
X169286503Y-128039737D01*
X169441153Y-128070499D01*
X169441156Y-128070500D01*
X169441158Y-128070500D01*
X169598844Y-128070500D01*
X169598845Y-128070499D01*
X169753497Y-128039737D01*
X169899179Y-127979394D01*
X170030289Y-127891789D01*
X170141789Y-127780289D01*
X170229394Y-127649179D01*
X170289737Y-127503497D01*
X170320500Y-127348842D01*
X170320500Y-127191158D01*
X170320500Y-127191155D01*
X170320499Y-127191153D01*
X170289738Y-127036510D01*
X170289737Y-127036503D01*
X170266333Y-126980000D01*
X170229397Y-126890827D01*
X170229390Y-126890814D01*
X170141789Y-126759711D01*
X170141786Y-126759707D01*
X170030292Y-126648213D01*
X170030288Y-126648210D01*
X169899185Y-126560609D01*
X169899172Y-126560602D01*
X169753501Y-126500264D01*
X169753489Y-126500261D01*
X169598845Y-126469500D01*
X169598842Y-126469500D01*
X169441158Y-126469500D01*
X169441155Y-126469500D01*
X169286510Y-126500261D01*
X169286498Y-126500264D01*
X169140827Y-126560602D01*
X169140814Y-126560609D01*
X169009711Y-126648210D01*
X169009707Y-126648213D01*
X168898213Y-126759707D01*
X168898210Y-126759711D01*
X168807221Y-126895886D01*
X168804886Y-126894326D01*
X168764294Y-126935573D01*
X168696141Y-126950970D01*
X168630484Y-126927077D01*
X168588167Y-126871479D01*
X168579999Y-126827219D01*
X168579999Y-126370028D01*
X168579998Y-126370012D01*
X168569505Y-126267303D01*
X168569505Y-126267301D01*
X168514359Y-126100880D01*
X168514354Y-126100869D01*
X168422319Y-125951659D01*
X168422316Y-125951655D01*
X168293574Y-125822913D01*
X168260089Y-125761590D01*
X168265073Y-125691898D01*
X168280934Y-125662349D01*
X168348870Y-125568845D01*
X168463241Y-125344379D01*
X168541090Y-125104785D01*
X168546357Y-125071531D01*
X168576286Y-125008396D01*
X168635597Y-124971464D01*
X168705460Y-124972462D01*
X168763692Y-125011071D01*
X168783391Y-125043476D01*
X168810602Y-125109173D01*
X168810609Y-125109185D01*
X168898210Y-125240288D01*
X168898213Y-125240292D01*
X169009707Y-125351786D01*
X169009711Y-125351789D01*
X169140814Y-125439390D01*
X169140827Y-125439397D01*
X169286498Y-125499735D01*
X169286503Y-125499737D01*
X169441153Y-125530499D01*
X169441156Y-125530500D01*
X169441158Y-125530500D01*
X169598844Y-125530500D01*
X169598845Y-125530499D01*
X169753497Y-125499737D01*
X169899179Y-125439394D01*
X170030289Y-125351789D01*
X170141789Y-125240289D01*
X170229394Y-125109179D01*
X170289737Y-124963497D01*
X170320500Y-124808842D01*
X170320500Y-124651158D01*
X170320500Y-124651155D01*
X170320499Y-124651153D01*
X170289738Y-124496510D01*
X170289737Y-124496503D01*
X170259944Y-124424576D01*
X170229397Y-124350827D01*
X170229390Y-124350814D01*
X170141789Y-124219711D01*
X170141786Y-124219707D01*
X170030292Y-124108213D01*
X170030288Y-124108210D01*
X169899185Y-124020609D01*
X169899172Y-124020602D01*
X169753501Y-123960264D01*
X169753489Y-123960261D01*
X169598845Y-123929500D01*
X169598842Y-123929500D01*
X169441158Y-123929500D01*
X169441155Y-123929500D01*
X169286510Y-123960261D01*
X169286498Y-123960264D01*
X169140827Y-124020602D01*
X169140814Y-124020609D01*
X169009711Y-124108210D01*
X169009707Y-124108213D01*
X168898213Y-124219707D01*
X168898210Y-124219711D01*
X168810609Y-124350814D01*
X168810602Y-124350827D01*
X168783391Y-124416523D01*
X168739550Y-124470927D01*
X168673256Y-124492992D01*
X168605557Y-124475713D01*
X168557946Y-124424576D01*
X168546357Y-124388469D01*
X168546103Y-124386866D01*
X168541090Y-124355215D01*
X168463241Y-124115621D01*
X168463239Y-124115618D01*
X168463239Y-124115616D01*
X168414826Y-124020602D01*
X168348870Y-123891155D01*
X168329952Y-123865117D01*
X168200798Y-123687350D01*
X168200794Y-123687345D01*
X168022654Y-123509205D01*
X168022649Y-123509201D01*
X167818848Y-123361132D01*
X167818847Y-123361131D01*
X167818845Y-123361130D01*
X167748747Y-123325413D01*
X167594383Y-123246760D01*
X167354785Y-123168910D01*
X167105962Y-123129500D01*
X166854038Y-123129500D01*
X166729626Y-123149205D01*
X166605214Y-123168910D01*
X166365616Y-123246760D01*
X166141151Y-123361132D01*
X165937350Y-123509201D01*
X165937345Y-123509205D01*
X165759205Y-123687345D01*
X165759201Y-123687350D01*
X165611132Y-123891151D01*
X165496760Y-124115616D01*
X165418910Y-124355214D01*
X165379500Y-124604038D01*
X142010500Y-124604038D01*
X142010500Y-121971153D01*
X147529500Y-121971153D01*
X147529500Y-122128846D01*
X147560261Y-122283489D01*
X147560264Y-122283501D01*
X147620602Y-122429172D01*
X147620609Y-122429185D01*
X147708210Y-122560288D01*
X147708213Y-122560292D01*
X147819707Y-122671786D01*
X147819711Y-122671789D01*
X147950814Y-122759390D01*
X147950827Y-122759397D01*
X148096498Y-122819735D01*
X148096503Y-122819737D01*
X148251153Y-122850499D01*
X148251156Y-122850500D01*
X148251158Y-122850500D01*
X148408844Y-122850500D01*
X148408845Y-122850499D01*
X148563497Y-122819737D01*
X148709179Y-122759394D01*
X148840289Y-122671789D01*
X148951789Y-122560289D01*
X149039394Y-122429179D01*
X149099737Y-122283497D01*
X149130500Y-122128842D01*
X149130500Y-121971158D01*
X149130500Y-121971155D01*
X149130499Y-121971153D01*
X149099738Y-121816510D01*
X149099737Y-121816503D01*
X149099735Y-121816498D01*
X149039397Y-121670827D01*
X149039390Y-121670814D01*
X148951789Y-121539711D01*
X148951786Y-121539707D01*
X148840292Y-121428213D01*
X148840288Y-121428210D01*
X148709185Y-121340609D01*
X148709172Y-121340602D01*
X148563501Y-121280264D01*
X148563489Y-121280261D01*
X148408845Y-121249500D01*
X148408842Y-121249500D01*
X148251158Y-121249500D01*
X148251155Y-121249500D01*
X148096510Y-121280261D01*
X148096498Y-121280264D01*
X147950827Y-121340602D01*
X147950814Y-121340609D01*
X147819711Y-121428210D01*
X147819707Y-121428213D01*
X147708213Y-121539707D01*
X147708210Y-121539711D01*
X147620609Y-121670814D01*
X147620602Y-121670827D01*
X147560264Y-121816498D01*
X147560261Y-121816510D01*
X147529500Y-121971153D01*
X142010500Y-121971153D01*
X142010500Y-118340000D01*
X143410138Y-118340000D01*
X144213012Y-118340000D01*
X144195795Y-118349940D01*
X144139940Y-118405795D01*
X144100444Y-118474204D01*
X144080000Y-118550504D01*
X144080000Y-118629496D01*
X144100444Y-118705796D01*
X144139940Y-118774205D01*
X144195795Y-118830060D01*
X144213012Y-118840000D01*
X143410138Y-118840000D01*
X143418430Y-118881690D01*
X143418430Y-118881692D01*
X143493807Y-119063671D01*
X143493814Y-119063684D01*
X143603248Y-119227462D01*
X143603251Y-119227466D01*
X143742533Y-119366748D01*
X143742537Y-119366751D01*
X143906315Y-119476185D01*
X143906328Y-119476192D01*
X144088306Y-119551569D01*
X144088318Y-119551572D01*
X144281504Y-119589999D01*
X144281508Y-119590000D01*
X144430000Y-119590000D01*
X144430000Y-118890000D01*
X144930000Y-118890000D01*
X144930000Y-119590000D01*
X145078492Y-119590000D01*
X145078495Y-119589999D01*
X145271681Y-119551572D01*
X145271693Y-119551569D01*
X145453671Y-119476192D01*
X145453684Y-119476185D01*
X145617462Y-119366751D01*
X145617466Y-119366748D01*
X145756748Y-119227466D01*
X145756751Y-119227462D01*
X145866185Y-119063684D01*
X145866192Y-119063671D01*
X145941569Y-118881692D01*
X145941569Y-118881690D01*
X145949862Y-118840000D01*
X145146988Y-118840000D01*
X145164205Y-118830060D01*
X145220060Y-118774205D01*
X145259556Y-118705796D01*
X145280000Y-118629496D01*
X145280000Y-118550504D01*
X145259556Y-118474204D01*
X145220060Y-118405795D01*
X145164205Y-118349940D01*
X145146988Y-118340000D01*
X145949862Y-118340000D01*
X147340138Y-118340000D01*
X148143012Y-118340000D01*
X148125795Y-118349940D01*
X148069940Y-118405795D01*
X148030444Y-118474204D01*
X148010000Y-118550504D01*
X148010000Y-118629496D01*
X148030444Y-118705796D01*
X148069940Y-118774205D01*
X148125795Y-118830060D01*
X148143012Y-118840000D01*
X147340138Y-118840000D01*
X147348430Y-118881690D01*
X147348430Y-118881692D01*
X147423807Y-119063671D01*
X147423814Y-119063684D01*
X147533248Y-119227462D01*
X147533251Y-119227466D01*
X147672533Y-119366748D01*
X147672537Y-119366751D01*
X147836315Y-119476185D01*
X147836328Y-119476192D01*
X147845838Y-119480131D01*
X147900243Y-119523970D01*
X147922310Y-119590264D01*
X147905033Y-119657963D01*
X147901350Y-119663405D01*
X147823719Y-119797863D01*
X147804313Y-119870289D01*
X147784500Y-119944234D01*
X147784500Y-120095766D01*
X147793603Y-120129738D01*
X147823719Y-120242136D01*
X147861602Y-120307750D01*
X147899485Y-120373365D01*
X148006635Y-120480515D01*
X148137865Y-120556281D01*
X148284234Y-120595500D01*
X148284236Y-120595500D01*
X148435764Y-120595500D01*
X148435766Y-120595500D01*
X148582135Y-120556281D01*
X148713365Y-120480515D01*
X148820515Y-120373365D01*
X148896281Y-120242135D01*
X148935500Y-120095766D01*
X148935500Y-119944234D01*
X148896281Y-119797865D01*
X148820515Y-119666635D01*
X148713365Y-119559485D01*
X148699654Y-119551569D01*
X148671998Y-119535601D01*
X148623784Y-119485033D01*
X148610000Y-119428215D01*
X148610000Y-118890000D01*
X149110000Y-118890000D01*
X149110000Y-119590000D01*
X149508492Y-119590000D01*
X149508495Y-119589999D01*
X149701681Y-119551572D01*
X149701693Y-119551569D01*
X149883671Y-119476192D01*
X149883684Y-119476185D01*
X150047462Y-119366751D01*
X150047466Y-119366748D01*
X150133061Y-119281153D01*
X157159500Y-119281153D01*
X157159500Y-119438846D01*
X157190261Y-119593489D01*
X157190264Y-119593501D01*
X157250602Y-119739172D01*
X157250609Y-119739185D01*
X157338210Y-119870288D01*
X157338213Y-119870292D01*
X157449707Y-119981786D01*
X157449711Y-119981789D01*
X157580814Y-120069390D01*
X157580827Y-120069397D01*
X157726498Y-120129735D01*
X157726503Y-120129737D01*
X157881153Y-120160499D01*
X157881156Y-120160500D01*
X157881158Y-120160500D01*
X158038844Y-120160500D01*
X158038845Y-120160499D01*
X158193497Y-120129737D01*
X158339179Y-120069394D01*
X158470289Y-119981789D01*
X158581789Y-119870289D01*
X158669394Y-119739179D01*
X158729737Y-119593497D01*
X158760500Y-119438842D01*
X158760500Y-119281158D01*
X158760500Y-119281155D01*
X158760499Y-119281153D01*
X158749819Y-119227460D01*
X158729737Y-119126503D01*
X158703717Y-119063684D01*
X158669397Y-118980827D01*
X158669390Y-118980814D01*
X158581789Y-118849711D01*
X158581786Y-118849707D01*
X158470292Y-118738213D01*
X158470288Y-118738210D01*
X158339185Y-118650609D01*
X158339172Y-118650602D01*
X158193501Y-118590264D01*
X158193489Y-118590261D01*
X158038845Y-118559500D01*
X158038842Y-118559500D01*
X157881158Y-118559500D01*
X157881155Y-118559500D01*
X157726510Y-118590261D01*
X157726498Y-118590264D01*
X157580827Y-118650602D01*
X157580814Y-118650609D01*
X157449711Y-118738210D01*
X157449707Y-118738213D01*
X157338213Y-118849707D01*
X157338210Y-118849711D01*
X157250609Y-118980814D01*
X157250602Y-118980827D01*
X157190264Y-119126498D01*
X157190261Y-119126510D01*
X157159500Y-119281153D01*
X150133061Y-119281153D01*
X150186748Y-119227466D01*
X150186753Y-119227460D01*
X150200977Y-119206174D01*
X150296185Y-119063684D01*
X150296192Y-119063671D01*
X150371569Y-118881692D01*
X150371569Y-118881690D01*
X150379862Y-118840000D01*
X149576988Y-118840000D01*
X149594205Y-118830060D01*
X149650060Y-118774205D01*
X149689556Y-118705796D01*
X149710000Y-118629496D01*
X149710000Y-118550504D01*
X149689556Y-118474204D01*
X149650060Y-118405795D01*
X149594205Y-118349940D01*
X149576988Y-118340000D01*
X150379862Y-118340000D01*
X150371569Y-118298309D01*
X150371569Y-118298307D01*
X150296192Y-118116328D01*
X150296185Y-118116315D01*
X150186751Y-117952537D01*
X150186748Y-117952533D01*
X150047466Y-117813251D01*
X150047462Y-117813248D01*
X149883684Y-117703814D01*
X149883671Y-117703807D01*
X149701693Y-117628430D01*
X149701681Y-117628427D01*
X149508495Y-117590000D01*
X149110000Y-117590000D01*
X149110000Y-118290000D01*
X148610000Y-118290000D01*
X148610000Y-117590000D01*
X148211504Y-117590000D01*
X148018318Y-117628427D01*
X148018306Y-117628430D01*
X147836328Y-117703807D01*
X147836315Y-117703814D01*
X147672537Y-117813248D01*
X147672533Y-117813251D01*
X147533251Y-117952533D01*
X147533248Y-117952537D01*
X147423814Y-118116315D01*
X147423807Y-118116328D01*
X147348430Y-118298307D01*
X147348430Y-118298309D01*
X147340138Y-118340000D01*
X145949862Y-118340000D01*
X145941569Y-118298309D01*
X145941569Y-118298307D01*
X145866192Y-118116328D01*
X145866185Y-118116315D01*
X145791522Y-118004575D01*
X145770644Y-117937898D01*
X145789128Y-117870518D01*
X145841107Y-117823827D01*
X145910077Y-117812651D01*
X145918816Y-117814067D01*
X145951155Y-117820500D01*
X145951158Y-117820500D01*
X146108844Y-117820500D01*
X146108845Y-117820499D01*
X146263497Y-117789737D01*
X146409179Y-117729394D01*
X146540289Y-117641789D01*
X146651789Y-117530289D01*
X146739394Y-117399179D01*
X146799737Y-117253497D01*
X146830500Y-117098842D01*
X146830500Y-116941158D01*
X146830500Y-116941155D01*
X146830499Y-116941153D01*
X146818535Y-116881007D01*
X146799737Y-116786503D01*
X146792161Y-116768213D01*
X146739397Y-116640827D01*
X146739390Y-116640814D01*
X146651789Y-116509711D01*
X146651786Y-116509707D01*
X146540292Y-116398213D01*
X146540288Y-116398210D01*
X146409185Y-116310609D01*
X146409172Y-116310602D01*
X146263501Y-116250264D01*
X146263489Y-116250261D01*
X146108845Y-116219500D01*
X146108842Y-116219500D01*
X145951158Y-116219500D01*
X145951155Y-116219500D01*
X145796510Y-116250261D01*
X145796498Y-116250264D01*
X145650827Y-116310602D01*
X145650814Y-116310609D01*
X145519711Y-116398210D01*
X145519707Y-116398213D01*
X145408213Y-116509707D01*
X145408210Y-116509711D01*
X145320609Y-116640814D01*
X145320602Y-116640827D01*
X145260264Y-116786498D01*
X145260261Y-116786510D01*
X145229500Y-116941153D01*
X145229500Y-117098846D01*
X145260261Y-117253489D01*
X145260264Y-117253501D01*
X145320602Y-117399172D01*
X145320611Y-117399188D01*
X145338446Y-117425881D01*
X145359323Y-117492559D01*
X145340837Y-117559938D01*
X145288858Y-117606628D01*
X145219888Y-117617803D01*
X145211152Y-117616387D01*
X145078495Y-117590000D01*
X144930000Y-117590000D01*
X144930000Y-118290000D01*
X144430000Y-118290000D01*
X144430000Y-117590000D01*
X144281504Y-117590000D01*
X144088318Y-117628427D01*
X144088306Y-117628430D01*
X143906328Y-117703807D01*
X143906315Y-117703814D01*
X143742537Y-117813248D01*
X143742533Y-117813251D01*
X143603251Y-117952533D01*
X143603248Y-117952537D01*
X143493814Y-118116315D01*
X143493807Y-118116328D01*
X143418430Y-118298307D01*
X143418430Y-118298309D01*
X143410138Y-118340000D01*
X142010500Y-118340000D01*
X142010500Y-115761153D01*
X158919500Y-115761153D01*
X158919500Y-115918846D01*
X158950261Y-116073489D01*
X158950264Y-116073501D01*
X159010602Y-116219172D01*
X159010609Y-116219185D01*
X159098210Y-116350288D01*
X159098213Y-116350292D01*
X159209707Y-116461786D01*
X159209711Y-116461789D01*
X159340814Y-116549390D01*
X159340827Y-116549397D01*
X159486498Y-116609735D01*
X159486503Y-116609737D01*
X159641153Y-116640499D01*
X159641156Y-116640500D01*
X159641158Y-116640500D01*
X159798844Y-116640500D01*
X159798845Y-116640499D01*
X159953497Y-116609737D01*
X160099179Y-116549394D01*
X160230289Y-116461789D01*
X160341789Y-116350289D01*
X160429394Y-116219179D01*
X160489737Y-116073497D01*
X160520500Y-115918842D01*
X160520500Y-115761158D01*
X160520500Y-115761155D01*
X160520499Y-115761153D01*
X160489738Y-115606510D01*
X160489737Y-115606503D01*
X160475508Y-115572151D01*
X160429397Y-115460827D01*
X160429390Y-115460814D01*
X160341789Y-115329711D01*
X160341786Y-115329707D01*
X160230292Y-115218213D01*
X160230288Y-115218210D01*
X160099185Y-115130609D01*
X160099172Y-115130602D01*
X159953501Y-115070264D01*
X159953489Y-115070261D01*
X159798845Y-115039500D01*
X159798842Y-115039500D01*
X159641158Y-115039500D01*
X159641155Y-115039500D01*
X159486510Y-115070261D01*
X159486498Y-115070264D01*
X159340827Y-115130602D01*
X159340814Y-115130609D01*
X159209711Y-115218210D01*
X159209707Y-115218213D01*
X159098213Y-115329707D01*
X159098210Y-115329711D01*
X159010609Y-115460814D01*
X159010602Y-115460827D01*
X158950264Y-115606498D01*
X158950261Y-115606510D01*
X158919500Y-115761153D01*
X142010500Y-115761153D01*
X142010500Y-109681153D01*
X144979500Y-109681153D01*
X144979500Y-109838846D01*
X145010261Y-109993489D01*
X145010264Y-109993501D01*
X145070602Y-110139172D01*
X145070609Y-110139185D01*
X145158210Y-110270288D01*
X145158213Y-110270292D01*
X145269707Y-110381786D01*
X145269711Y-110381789D01*
X145400814Y-110469390D01*
X145400827Y-110469397D01*
X145546498Y-110529735D01*
X145546503Y-110529737D01*
X145701153Y-110560499D01*
X145701156Y-110560500D01*
X145701158Y-110560500D01*
X145858844Y-110560500D01*
X145858845Y-110560499D01*
X146013497Y-110529737D01*
X146159179Y-110469394D01*
X146290289Y-110381789D01*
X146401789Y-110270289D01*
X146489394Y-110139179D01*
X146549737Y-109993497D01*
X146580500Y-109838842D01*
X146580500Y-109681158D01*
X146580121Y-109679251D01*
X146580121Y-109679248D01*
X146576522Y-109661153D01*
X150749500Y-109661153D01*
X150749500Y-109818846D01*
X150780261Y-109973489D01*
X150780264Y-109973501D01*
X150840602Y-110119172D01*
X150840609Y-110119185D01*
X150928210Y-110250288D01*
X150928213Y-110250292D01*
X151039707Y-110361786D01*
X151039711Y-110361789D01*
X151170814Y-110449390D01*
X151170827Y-110449397D01*
X151316498Y-110509735D01*
X151316503Y-110509737D01*
X151471153Y-110540499D01*
X151471156Y-110540500D01*
X151471158Y-110540500D01*
X151628844Y-110540500D01*
X151628845Y-110540499D01*
X151783497Y-110509737D01*
X151929179Y-110449394D01*
X152060289Y-110361789D01*
X152171789Y-110250289D01*
X152259394Y-110119179D01*
X152319737Y-109973497D01*
X152350500Y-109818842D01*
X152350500Y-109661158D01*
X152350500Y-109661155D01*
X152350499Y-109661153D01*
X152336714Y-109591851D01*
X152319737Y-109506503D01*
X152285760Y-109424475D01*
X152259397Y-109360827D01*
X152259390Y-109360814D01*
X152171789Y-109229711D01*
X152171786Y-109229707D01*
X152060292Y-109118213D01*
X152060288Y-109118210D01*
X151929185Y-109030609D01*
X151929172Y-109030602D01*
X151783501Y-108970264D01*
X151783489Y-108970261D01*
X151628845Y-108939500D01*
X151628842Y-108939500D01*
X151471158Y-108939500D01*
X151471155Y-108939500D01*
X151316510Y-108970261D01*
X151316498Y-108970264D01*
X151170827Y-109030602D01*
X151170814Y-109030609D01*
X151039711Y-109118210D01*
X151039707Y-109118213D01*
X150928213Y-109229707D01*
X150928210Y-109229711D01*
X150840609Y-109360814D01*
X150840602Y-109360827D01*
X150780264Y-109506498D01*
X150780261Y-109506510D01*
X150749500Y-109661153D01*
X146576522Y-109661153D01*
X146549738Y-109526508D01*
X146549737Y-109526507D01*
X146549737Y-109526503D01*
X146507476Y-109424475D01*
X146489397Y-109380827D01*
X146489390Y-109380814D01*
X146401789Y-109249711D01*
X146401786Y-109249707D01*
X146290292Y-109138213D01*
X146290288Y-109138210D01*
X146159185Y-109050609D01*
X146159172Y-109050602D01*
X146013501Y-108990264D01*
X146013489Y-108990261D01*
X145858845Y-108959500D01*
X145858842Y-108959500D01*
X145701158Y-108959500D01*
X145701155Y-108959500D01*
X145546510Y-108990261D01*
X145546498Y-108990264D01*
X145400827Y-109050602D01*
X145400814Y-109050609D01*
X145269711Y-109138210D01*
X145269707Y-109138213D01*
X145158213Y-109249707D01*
X145158210Y-109249711D01*
X145070609Y-109380814D01*
X145070602Y-109380827D01*
X145010264Y-109526498D01*
X145010261Y-109526510D01*
X144979500Y-109681153D01*
X142010500Y-109681153D01*
X142010500Y-106778603D01*
X158404248Y-106778603D01*
X158404248Y-107081396D01*
X158438145Y-107382252D01*
X158438148Y-107382266D01*
X158505523Y-107677459D01*
X158505526Y-107677467D01*
X158605522Y-107963238D01*
X158605528Y-107963252D01*
X158736895Y-108236038D01*
X158736897Y-108236041D01*
X158897986Y-108492412D01*
X159086766Y-108729136D01*
X159300864Y-108943234D01*
X159537588Y-109132014D01*
X159793959Y-109293103D01*
X160066755Y-109424475D01*
X160066761Y-109424477D01*
X160352532Y-109524473D01*
X160352540Y-109524476D01*
X160352543Y-109524476D01*
X160352544Y-109524477D01*
X160647733Y-109591852D01*
X160647742Y-109591853D01*
X160647747Y-109591854D01*
X160848317Y-109614452D01*
X160948604Y-109625751D01*
X160948607Y-109625752D01*
X160948610Y-109625752D01*
X161251393Y-109625752D01*
X161251394Y-109625751D01*
X161405154Y-109608427D01*
X161552252Y-109591854D01*
X161552255Y-109591853D01*
X161552267Y-109591852D01*
X161847456Y-109524477D01*
X162133245Y-109424475D01*
X162406041Y-109293103D01*
X162662412Y-109132014D01*
X162899136Y-108943234D01*
X163113234Y-108729136D01*
X163302014Y-108492412D01*
X163463103Y-108236041D01*
X163594475Y-107963245D01*
X163694477Y-107677456D01*
X163761852Y-107382267D01*
X163795752Y-107081390D01*
X163795752Y-106778610D01*
X163761852Y-106477733D01*
X163694477Y-106182544D01*
X163594475Y-105896755D01*
X163463103Y-105623959D01*
X163302014Y-105367588D01*
X163113234Y-105130864D01*
X162899136Y-104916766D01*
X162662412Y-104727986D01*
X162406041Y-104566897D01*
X162406038Y-104566895D01*
X162133252Y-104435528D01*
X162133238Y-104435522D01*
X161847467Y-104335526D01*
X161847459Y-104335523D01*
X161626064Y-104284991D01*
X161552267Y-104268148D01*
X161552264Y-104268147D01*
X161552252Y-104268145D01*
X161251396Y-104234248D01*
X161251390Y-104234248D01*
X160948610Y-104234248D01*
X160948603Y-104234248D01*
X160647747Y-104268145D01*
X160647733Y-104268148D01*
X160352540Y-104335523D01*
X160352532Y-104335526D01*
X160066761Y-104435522D01*
X160066747Y-104435528D01*
X159793961Y-104566895D01*
X159537595Y-104727981D01*
X159537591Y-104727983D01*
X159537588Y-104727986D01*
X159442910Y-104803489D01*
X159300863Y-104916766D01*
X159086766Y-105130863D01*
X159038180Y-105191789D01*
X158897986Y-105367588D01*
X158897983Y-105367591D01*
X158897981Y-105367595D01*
X158736895Y-105623961D01*
X158605528Y-105896747D01*
X158605522Y-105896761D01*
X158505526Y-106182532D01*
X158505523Y-106182540D01*
X158438148Y-106477733D01*
X158438145Y-106477747D01*
X158404248Y-106778603D01*
X142010500Y-106778603D01*
X142010500Y-104491153D01*
X147649500Y-104491153D01*
X147649500Y-104648846D01*
X147680261Y-104803489D01*
X147680264Y-104803501D01*
X147740602Y-104949172D01*
X147740609Y-104949185D01*
X147828210Y-105080288D01*
X147828213Y-105080292D01*
X147939707Y-105191786D01*
X147939711Y-105191789D01*
X148070814Y-105279390D01*
X148070827Y-105279397D01*
X148216498Y-105339735D01*
X148216503Y-105339737D01*
X148356554Y-105367595D01*
X148371153Y-105370499D01*
X148371156Y-105370500D01*
X148371158Y-105370500D01*
X148528844Y-105370500D01*
X148528845Y-105370499D01*
X148683497Y-105339737D01*
X148829179Y-105279394D01*
X148960289Y-105191789D01*
X149071789Y-105080289D01*
X149159394Y-104949179D01*
X149219737Y-104803497D01*
X149250500Y-104648842D01*
X149250500Y-104491158D01*
X149250500Y-104491155D01*
X149250499Y-104491153D01*
X149219738Y-104336510D01*
X149219737Y-104336503D01*
X149191424Y-104268148D01*
X149159397Y-104190827D01*
X149159390Y-104190814D01*
X149071789Y-104059711D01*
X149071786Y-104059707D01*
X148960292Y-103948213D01*
X148960288Y-103948210D01*
X148829185Y-103860609D01*
X148829172Y-103860602D01*
X148683501Y-103800264D01*
X148683489Y-103800261D01*
X148528845Y-103769500D01*
X148528842Y-103769500D01*
X148371158Y-103769500D01*
X148371155Y-103769500D01*
X148216510Y-103800261D01*
X148216498Y-103800264D01*
X148070827Y-103860602D01*
X148070814Y-103860609D01*
X147939711Y-103948210D01*
X147939707Y-103948213D01*
X147828213Y-104059707D01*
X147828210Y-104059711D01*
X147740609Y-104190814D01*
X147740602Y-104190827D01*
X147680264Y-104336498D01*
X147680261Y-104336510D01*
X147649500Y-104491153D01*
X142010500Y-104491153D01*
X142010500Y-100561153D01*
X144159500Y-100561153D01*
X144159500Y-100718846D01*
X144190261Y-100873489D01*
X144190264Y-100873501D01*
X144250602Y-101019172D01*
X144250609Y-101019185D01*
X144338210Y-101150288D01*
X144338213Y-101150292D01*
X144449707Y-101261786D01*
X144449711Y-101261789D01*
X144580814Y-101349390D01*
X144580827Y-101349397D01*
X144726498Y-101409735D01*
X144726503Y-101409737D01*
X144881153Y-101440499D01*
X144881156Y-101440500D01*
X144881158Y-101440500D01*
X145038844Y-101440500D01*
X145038845Y-101440499D01*
X145193497Y-101409737D01*
X145339179Y-101349394D01*
X145354506Y-101339153D01*
X147289500Y-101339153D01*
X147289500Y-101496846D01*
X147320261Y-101651489D01*
X147320264Y-101651501D01*
X147380602Y-101797172D01*
X147380609Y-101797185D01*
X147468210Y-101928288D01*
X147468213Y-101928292D01*
X147579707Y-102039786D01*
X147579711Y-102039789D01*
X147710814Y-102127390D01*
X147710827Y-102127397D01*
X147856498Y-102187735D01*
X147856503Y-102187737D01*
X148011153Y-102218499D01*
X148011156Y-102218500D01*
X148011158Y-102218500D01*
X148168844Y-102218500D01*
X148168845Y-102218499D01*
X148323497Y-102187737D01*
X148469179Y-102127394D01*
X148600289Y-102039789D01*
X148711789Y-101928289D01*
X148799394Y-101797179D01*
X148859737Y-101651497D01*
X148890500Y-101496842D01*
X148890500Y-101339158D01*
X148890500Y-101339155D01*
X148890499Y-101339153D01*
X148875110Y-101261789D01*
X148859737Y-101184503D01*
X148859735Y-101184498D01*
X148799397Y-101038827D01*
X148799390Y-101038814D01*
X148711789Y-100907711D01*
X148711786Y-100907707D01*
X148600292Y-100796213D01*
X148600288Y-100796210D01*
X148469185Y-100708609D01*
X148469172Y-100708602D01*
X148323501Y-100648264D01*
X148323489Y-100648261D01*
X148168845Y-100617500D01*
X148168842Y-100617500D01*
X148011158Y-100617500D01*
X148011155Y-100617500D01*
X147856510Y-100648261D01*
X147856498Y-100648264D01*
X147710827Y-100708602D01*
X147710814Y-100708609D01*
X147579711Y-100796210D01*
X147579707Y-100796213D01*
X147468213Y-100907707D01*
X147468210Y-100907711D01*
X147380609Y-101038814D01*
X147380602Y-101038827D01*
X147320264Y-101184498D01*
X147320261Y-101184510D01*
X147289500Y-101339153D01*
X145354506Y-101339153D01*
X145470289Y-101261789D01*
X145470292Y-101261786D01*
X145486694Y-101245385D01*
X145581786Y-101150292D01*
X145581789Y-101150289D01*
X145669394Y-101019179D01*
X145729737Y-100873497D01*
X145760500Y-100718842D01*
X145760500Y-100561158D01*
X145760500Y-100561155D01*
X145760499Y-100561153D01*
X145744304Y-100479735D01*
X145729737Y-100406503D01*
X145698790Y-100331789D01*
X145669397Y-100260827D01*
X145669390Y-100260814D01*
X145581789Y-100129711D01*
X145581786Y-100129707D01*
X145470292Y-100018213D01*
X145470288Y-100018210D01*
X145339185Y-99930609D01*
X145339172Y-99930602D01*
X145193501Y-99870264D01*
X145193489Y-99870261D01*
X145038845Y-99839500D01*
X145038842Y-99839500D01*
X144881158Y-99839500D01*
X144881155Y-99839500D01*
X144726510Y-99870261D01*
X144726498Y-99870264D01*
X144580827Y-99930602D01*
X144580814Y-99930609D01*
X144449711Y-100018210D01*
X144449707Y-100018213D01*
X144338213Y-100129707D01*
X144338210Y-100129711D01*
X144250609Y-100260814D01*
X144250602Y-100260827D01*
X144190264Y-100406498D01*
X144190261Y-100406510D01*
X144159500Y-100561153D01*
X142010500Y-100561153D01*
X142010500Y-98351153D01*
X147419500Y-98351153D01*
X147419500Y-98508846D01*
X147450261Y-98663489D01*
X147450264Y-98663501D01*
X147510602Y-98809172D01*
X147510609Y-98809185D01*
X147598210Y-98940288D01*
X147598213Y-98940292D01*
X147709707Y-99051786D01*
X147709711Y-99051789D01*
X147840814Y-99139390D01*
X147840827Y-99139397D01*
X147986440Y-99199711D01*
X147986503Y-99199737D01*
X148141153Y-99230499D01*
X148141156Y-99230500D01*
X148141158Y-99230500D01*
X148298844Y-99230500D01*
X148298845Y-99230499D01*
X148453497Y-99199737D01*
X148599179Y-99139394D01*
X148730289Y-99051789D01*
X148841789Y-98940289D01*
X148854575Y-98921153D01*
X150609500Y-98921153D01*
X150609500Y-99078846D01*
X150640261Y-99233489D01*
X150640264Y-99233501D01*
X150700602Y-99379172D01*
X150700609Y-99379185D01*
X150788210Y-99510288D01*
X150788213Y-99510292D01*
X150899707Y-99621786D01*
X150899711Y-99621789D01*
X151030814Y-99709390D01*
X151030827Y-99709397D01*
X151140082Y-99754651D01*
X151176503Y-99769737D01*
X151188109Y-99772045D01*
X151250020Y-99804428D01*
X151284596Y-99865143D01*
X151285537Y-99869470D01*
X151300261Y-99943492D01*
X151300264Y-99943501D01*
X151360602Y-100089172D01*
X151360609Y-100089185D01*
X151448210Y-100220288D01*
X151448213Y-100220292D01*
X151559707Y-100331786D01*
X151559711Y-100331789D01*
X151690814Y-100419390D01*
X151690827Y-100419397D01*
X151836498Y-100479735D01*
X151836503Y-100479737D01*
X151991153Y-100510499D01*
X151991156Y-100510500D01*
X151991158Y-100510500D01*
X152148844Y-100510500D01*
X152148845Y-100510499D01*
X152303497Y-100479737D01*
X152449179Y-100419394D01*
X152580289Y-100331789D01*
X152691789Y-100220289D01*
X152779394Y-100089179D01*
X152839737Y-99943497D01*
X152870500Y-99788842D01*
X152870500Y-99631158D01*
X152870500Y-99631155D01*
X152870499Y-99631153D01*
X152839738Y-99476510D01*
X152839737Y-99476503D01*
X152799427Y-99379185D01*
X152779397Y-99330827D01*
X152779390Y-99330814D01*
X152691789Y-99199711D01*
X152691786Y-99199707D01*
X152580292Y-99088213D01*
X152580288Y-99088210D01*
X152449185Y-99000609D01*
X152449172Y-99000602D01*
X152303501Y-98940264D01*
X152303492Y-98940261D01*
X152291886Y-98937953D01*
X152229975Y-98905567D01*
X152195402Y-98844850D01*
X152194462Y-98840528D01*
X152179738Y-98766508D01*
X152179737Y-98766507D01*
X152179737Y-98766503D01*
X152179735Y-98766498D01*
X152119397Y-98620827D01*
X152119390Y-98620814D01*
X152031789Y-98489711D01*
X152031786Y-98489707D01*
X151920292Y-98378213D01*
X151920288Y-98378210D01*
X151789185Y-98290609D01*
X151789172Y-98290602D01*
X151643501Y-98230264D01*
X151643489Y-98230261D01*
X151488845Y-98199500D01*
X151488842Y-98199500D01*
X151331158Y-98199500D01*
X151331155Y-98199500D01*
X151176510Y-98230261D01*
X151176498Y-98230264D01*
X151030827Y-98290602D01*
X151030814Y-98290609D01*
X150899711Y-98378210D01*
X150899707Y-98378213D01*
X150788213Y-98489707D01*
X150788210Y-98489711D01*
X150700609Y-98620814D01*
X150700602Y-98620827D01*
X150640264Y-98766498D01*
X150640261Y-98766510D01*
X150609500Y-98921153D01*
X148854575Y-98921153D01*
X148867521Y-98901778D01*
X148904675Y-98846175D01*
X148929391Y-98809183D01*
X148929394Y-98809179D01*
X148989737Y-98663497D01*
X149020500Y-98508842D01*
X149020500Y-98351158D01*
X149020500Y-98351155D01*
X149020499Y-98351153D01*
X149008455Y-98290606D01*
X148989737Y-98196503D01*
X148952456Y-98106498D01*
X148929397Y-98050827D01*
X148929390Y-98050814D01*
X148841789Y-97919711D01*
X148841786Y-97919707D01*
X148730292Y-97808213D01*
X148730288Y-97808210D01*
X148653712Y-97757043D01*
X148599185Y-97720609D01*
X148599172Y-97720602D01*
X148453501Y-97660264D01*
X148453489Y-97660261D01*
X148452318Y-97660028D01*
X154139846Y-97660028D01*
X154139846Y-97817721D01*
X154170607Y-97972364D01*
X154170610Y-97972376D01*
X154230948Y-98118047D01*
X154230955Y-98118060D01*
X154318556Y-98249163D01*
X154318559Y-98249167D01*
X154430053Y-98360661D01*
X154430057Y-98360664D01*
X154561160Y-98448265D01*
X154561173Y-98448272D01*
X154706844Y-98508610D01*
X154706849Y-98508612D01*
X154861499Y-98539374D01*
X154861502Y-98539375D01*
X154861504Y-98539375D01*
X155019190Y-98539375D01*
X155019191Y-98539374D01*
X155173843Y-98508612D01*
X155319525Y-98448269D01*
X155450635Y-98360664D01*
X155562135Y-98249164D01*
X155649740Y-98118054D01*
X155710083Y-97972372D01*
X155740846Y-97817717D01*
X155740846Y-97661158D01*
X155979500Y-97661158D01*
X155979500Y-97818842D01*
X155984072Y-97841826D01*
X155984072Y-97841834D01*
X156010261Y-97973491D01*
X156010264Y-97973501D01*
X156070602Y-98119172D01*
X156070609Y-98119185D01*
X156158210Y-98250288D01*
X156158213Y-98250292D01*
X156269707Y-98361786D01*
X156269711Y-98361789D01*
X156400814Y-98449390D01*
X156400827Y-98449397D01*
X156543782Y-98508610D01*
X156546503Y-98509737D01*
X156695497Y-98539374D01*
X156701153Y-98540499D01*
X156701156Y-98540500D01*
X156701158Y-98540500D01*
X156858844Y-98540500D01*
X156858845Y-98540499D01*
X157013497Y-98509737D01*
X157128484Y-98462108D01*
X157159172Y-98449397D01*
X157159172Y-98449396D01*
X157159179Y-98449394D01*
X157290289Y-98361789D01*
X157401789Y-98250289D01*
X157489394Y-98119179D01*
X157549737Y-97973497D01*
X157580500Y-97818842D01*
X157580500Y-97661158D01*
X157580500Y-97661155D01*
X157580499Y-97661153D01*
X158218028Y-97661153D01*
X158218028Y-97818846D01*
X158248789Y-97973489D01*
X158248792Y-97973501D01*
X158309130Y-98119172D01*
X158309137Y-98119185D01*
X158396738Y-98250288D01*
X158396741Y-98250292D01*
X158508235Y-98361786D01*
X158508239Y-98361789D01*
X158639342Y-98449390D01*
X158639355Y-98449397D01*
X158782310Y-98508610D01*
X158785031Y-98509737D01*
X158934025Y-98539374D01*
X158939681Y-98540499D01*
X158939684Y-98540500D01*
X158939686Y-98540500D01*
X159097372Y-98540500D01*
X159097373Y-98540499D01*
X159252025Y-98509737D01*
X159367012Y-98462107D01*
X159436481Y-98454639D01*
X159498960Y-98485914D01*
X159534612Y-98546003D01*
X159536081Y-98552475D01*
X159540262Y-98573494D01*
X159540264Y-98573501D01*
X159600602Y-98719172D01*
X159600609Y-98719185D01*
X159688210Y-98850288D01*
X159688213Y-98850292D01*
X159799707Y-98961786D01*
X159799711Y-98961789D01*
X159930814Y-99049390D01*
X159930827Y-99049397D01*
X160024534Y-99088211D01*
X160076503Y-99109737D01*
X160225578Y-99139390D01*
X160231153Y-99140499D01*
X160231156Y-99140500D01*
X160231158Y-99140500D01*
X160388844Y-99140500D01*
X160388845Y-99140499D01*
X160543497Y-99109737D01*
X160689179Y-99049394D01*
X160820289Y-98961789D01*
X160931789Y-98850289D01*
X161019394Y-98719179D01*
X161079737Y-98573497D01*
X161110500Y-98418842D01*
X161110500Y-98261158D01*
X161110500Y-98261155D01*
X161110499Y-98261153D01*
X161104355Y-98230264D01*
X161079737Y-98106503D01*
X161079735Y-98106498D01*
X161019397Y-97960827D01*
X161019390Y-97960814D01*
X160931789Y-97829711D01*
X160931786Y-97829707D01*
X160820292Y-97718213D01*
X160820288Y-97718210D01*
X160689185Y-97630609D01*
X160689172Y-97630602D01*
X160543501Y-97570264D01*
X160543489Y-97570261D01*
X160388845Y-97539500D01*
X160388842Y-97539500D01*
X160231158Y-97539500D01*
X160231155Y-97539500D01*
X160076510Y-97570261D01*
X160076507Y-97570262D01*
X160076506Y-97570262D01*
X160076503Y-97570263D01*
X160018994Y-97594084D01*
X159961515Y-97617892D01*
X159892045Y-97625360D01*
X159829566Y-97594084D01*
X159793914Y-97533995D01*
X159792449Y-97527540D01*
X159788265Y-97506503D01*
X159779470Y-97485269D01*
X159727925Y-97360827D01*
X159727918Y-97360814D01*
X159640317Y-97229711D01*
X159640314Y-97229707D01*
X159528820Y-97118213D01*
X159528816Y-97118210D01*
X159397713Y-97030609D01*
X159397700Y-97030602D01*
X159252029Y-96970264D01*
X159252017Y-96970261D01*
X159097373Y-96939500D01*
X159097370Y-96939500D01*
X158939686Y-96939500D01*
X158939683Y-96939500D01*
X158785038Y-96970261D01*
X158785026Y-96970264D01*
X158639355Y-97030602D01*
X158639342Y-97030609D01*
X158508239Y-97118210D01*
X158508235Y-97118213D01*
X158396741Y-97229707D01*
X158396738Y-97229711D01*
X158309137Y-97360814D01*
X158309130Y-97360827D01*
X158248792Y-97506498D01*
X158248789Y-97506510D01*
X158218028Y-97661153D01*
X157580499Y-97661153D01*
X157572371Y-97620292D01*
X157549737Y-97506503D01*
X157540942Y-97485269D01*
X157489397Y-97360827D01*
X157489390Y-97360814D01*
X157401789Y-97229711D01*
X157401786Y-97229707D01*
X157290292Y-97118213D01*
X157290288Y-97118210D01*
X157159185Y-97030609D01*
X157159172Y-97030602D01*
X157013501Y-96970264D01*
X157013489Y-96970261D01*
X156858845Y-96939500D01*
X156858842Y-96939500D01*
X156701158Y-96939500D01*
X156701155Y-96939500D01*
X156546510Y-96970261D01*
X156546498Y-96970264D01*
X156400827Y-97030602D01*
X156400814Y-97030609D01*
X156269711Y-97118210D01*
X156269707Y-97118213D01*
X156158213Y-97229707D01*
X156158210Y-97229711D01*
X156070609Y-97360814D01*
X156070602Y-97360827D01*
X156010264Y-97506498D01*
X156010261Y-97506508D01*
X155984272Y-97637159D01*
X155984271Y-97637167D01*
X155979500Y-97661158D01*
X155740846Y-97661158D01*
X155740846Y-97660033D01*
X155710083Y-97505378D01*
X155703965Y-97490609D01*
X155696496Y-97421144D01*
X155715423Y-97374267D01*
X155799420Y-97248558D01*
X155802868Y-97240235D01*
X155859761Y-97102880D01*
X155859763Y-97102876D01*
X155890526Y-96948221D01*
X155890526Y-96790537D01*
X155890526Y-96790534D01*
X155890525Y-96790532D01*
X155867193Y-96673237D01*
X155859763Y-96635882D01*
X155841526Y-96591853D01*
X155799423Y-96490206D01*
X155799416Y-96490193D01*
X155711815Y-96359090D01*
X155711812Y-96359086D01*
X155600318Y-96247592D01*
X155600314Y-96247589D01*
X155469211Y-96159988D01*
X155469198Y-96159981D01*
X155323527Y-96099643D01*
X155323515Y-96099640D01*
X155168871Y-96068879D01*
X155168868Y-96068879D01*
X155011184Y-96068879D01*
X155011181Y-96068879D01*
X154856536Y-96099640D01*
X154856524Y-96099643D01*
X154710853Y-96159981D01*
X154710840Y-96159988D01*
X154579737Y-96247589D01*
X154579733Y-96247592D01*
X154468239Y-96359086D01*
X154468236Y-96359090D01*
X154380635Y-96490193D01*
X154380628Y-96490206D01*
X154320290Y-96635877D01*
X154320287Y-96635889D01*
X154289526Y-96790532D01*
X154289526Y-96948225D01*
X154320287Y-97102868D01*
X154320289Y-97102875D01*
X154326407Y-97117646D01*
X154333875Y-97187115D01*
X154314947Y-97233988D01*
X154230955Y-97359689D01*
X154230948Y-97359702D01*
X154170610Y-97505373D01*
X154170607Y-97505385D01*
X154139846Y-97660028D01*
X148452318Y-97660028D01*
X148298845Y-97629500D01*
X148298842Y-97629500D01*
X148141158Y-97629500D01*
X148141155Y-97629500D01*
X147986510Y-97660261D01*
X147986498Y-97660264D01*
X147840827Y-97720602D01*
X147840814Y-97720609D01*
X147709711Y-97808210D01*
X147709707Y-97808213D01*
X147598213Y-97919707D01*
X147598210Y-97919711D01*
X147510609Y-98050814D01*
X147510602Y-98050827D01*
X147450264Y-98196498D01*
X147450261Y-98196510D01*
X147419500Y-98351153D01*
X142010500Y-98351153D01*
X142010500Y-95801702D01*
X142030185Y-95734663D01*
X142082989Y-95688908D01*
X142152147Y-95678964D01*
X142181947Y-95687139D01*
X142236503Y-95709737D01*
X142361814Y-95734663D01*
X142391153Y-95740499D01*
X142391156Y-95740500D01*
X142391158Y-95740500D01*
X142548844Y-95740500D01*
X142548845Y-95740499D01*
X142703497Y-95709737D01*
X142826524Y-95658778D01*
X142849172Y-95649397D01*
X142849172Y-95649396D01*
X142849179Y-95649394D01*
X142980289Y-95561789D01*
X143091789Y-95450289D01*
X143179394Y-95319179D01*
X143239737Y-95173497D01*
X143270500Y-95018842D01*
X143270500Y-94931153D01*
X144349500Y-94931153D01*
X144349500Y-95088846D01*
X144380261Y-95243489D01*
X144380264Y-95243501D01*
X144440602Y-95389172D01*
X144440609Y-95389185D01*
X144528210Y-95520288D01*
X144528213Y-95520292D01*
X144639707Y-95631786D01*
X144639711Y-95631789D01*
X144770814Y-95719390D01*
X144770827Y-95719397D01*
X144905226Y-95775066D01*
X144916503Y-95779737D01*
X145026928Y-95801702D01*
X145071153Y-95810499D01*
X145071156Y-95810500D01*
X145071158Y-95810500D01*
X145095500Y-95810500D01*
X145162539Y-95830185D01*
X145208294Y-95882989D01*
X145219500Y-95934500D01*
X145219500Y-95958846D01*
X145250261Y-96113489D01*
X145250264Y-96113501D01*
X145310602Y-96259172D01*
X145310609Y-96259185D01*
X145398210Y-96390288D01*
X145398213Y-96390292D01*
X145509707Y-96501786D01*
X145509711Y-96501789D01*
X145640814Y-96589390D01*
X145640827Y-96589397D01*
X145786498Y-96649735D01*
X145786503Y-96649737D01*
X145904625Y-96673233D01*
X145941153Y-96680499D01*
X145941156Y-96680500D01*
X145945871Y-96680500D01*
X146012910Y-96700185D01*
X146058665Y-96752989D01*
X146068609Y-96822147D01*
X146060432Y-96851952D01*
X146050264Y-96876498D01*
X146050261Y-96876510D01*
X146019500Y-97031153D01*
X146019500Y-97188846D01*
X146050261Y-97343489D01*
X146050264Y-97343501D01*
X146110602Y-97489172D01*
X146110609Y-97489185D01*
X146198210Y-97620288D01*
X146198213Y-97620292D01*
X146309707Y-97731786D01*
X146309711Y-97731789D01*
X146440814Y-97819390D01*
X146440827Y-97819397D01*
X146494996Y-97841834D01*
X146586503Y-97879737D01*
X146741153Y-97910499D01*
X146741156Y-97910500D01*
X146741158Y-97910500D01*
X146898844Y-97910500D01*
X146898845Y-97910499D01*
X147053497Y-97879737D01*
X147199179Y-97819394D01*
X147330289Y-97731789D01*
X147441789Y-97620289D01*
X147529394Y-97489179D01*
X147589737Y-97343497D01*
X147620500Y-97188842D01*
X147620500Y-97070677D01*
X147640185Y-97003638D01*
X147692989Y-96957883D01*
X147762147Y-96947939D01*
X147825703Y-96976964D01*
X147832181Y-96982996D01*
X147910707Y-97061522D01*
X147910711Y-97061525D01*
X148041814Y-97149126D01*
X148041827Y-97149133D01*
X148187498Y-97209471D01*
X148187503Y-97209473D01*
X148342153Y-97240235D01*
X148342156Y-97240236D01*
X148342158Y-97240236D01*
X148499844Y-97240236D01*
X148499845Y-97240235D01*
X148654497Y-97209473D01*
X148800179Y-97149130D01*
X148931289Y-97061525D01*
X149042789Y-96950025D01*
X149130394Y-96818915D01*
X149190737Y-96673233D01*
X149221500Y-96518578D01*
X149221500Y-96360894D01*
X149221500Y-96360891D01*
X149221499Y-96360889D01*
X149211277Y-96309500D01*
X149190737Y-96206239D01*
X149174837Y-96167853D01*
X149130397Y-96060563D01*
X149130390Y-96060550D01*
X149042789Y-95929447D01*
X149038924Y-95924737D01*
X149040070Y-95923795D01*
X149010113Y-95868932D01*
X149015097Y-95799240D01*
X149056969Y-95743307D01*
X149107085Y-95720958D01*
X149163497Y-95709737D01*
X149286524Y-95658778D01*
X149309172Y-95649397D01*
X149309172Y-95649396D01*
X149309179Y-95649394D01*
X149440289Y-95561789D01*
X149551789Y-95450289D01*
X149639394Y-95319179D01*
X149699737Y-95173497D01*
X149730500Y-95018842D01*
X149730500Y-94861158D01*
X149730500Y-94861155D01*
X149723069Y-94823799D01*
X149723069Y-94823798D01*
X149719468Y-94805694D01*
X150109561Y-94805694D01*
X150109561Y-94963387D01*
X150140322Y-95118030D01*
X150140325Y-95118042D01*
X150200663Y-95263713D01*
X150200670Y-95263726D01*
X150288271Y-95394829D01*
X150288274Y-95394833D01*
X150399768Y-95506327D01*
X150399772Y-95506330D01*
X150530875Y-95593931D01*
X150530888Y-95593938D01*
X150667443Y-95650500D01*
X150676564Y-95654278D01*
X150800668Y-95678964D01*
X150831214Y-95685040D01*
X150831217Y-95685041D01*
X150831219Y-95685041D01*
X150988905Y-95685041D01*
X150988906Y-95685040D01*
X151143558Y-95654278D01*
X151289240Y-95593935D01*
X151345314Y-95556466D01*
X151411990Y-95535588D01*
X151461657Y-95545006D01*
X151545503Y-95579737D01*
X151700153Y-95610499D01*
X151700156Y-95610500D01*
X151700158Y-95610500D01*
X151857844Y-95610500D01*
X151857845Y-95610499D01*
X152012497Y-95579737D01*
X152158179Y-95519394D01*
X152289289Y-95431789D01*
X152400789Y-95320289D01*
X152452105Y-95243489D01*
X152491779Y-95184114D01*
X152493603Y-95185333D01*
X152535623Y-95142527D01*
X152603755Y-95127042D01*
X152669443Y-95150851D01*
X152699159Y-95181912D01*
X152758210Y-95270288D01*
X152758213Y-95270292D01*
X152869707Y-95381786D01*
X152869711Y-95381789D01*
X153000814Y-95469390D01*
X153000827Y-95469397D01*
X153146498Y-95529735D01*
X153146503Y-95529737D01*
X153280883Y-95556467D01*
X153301153Y-95560499D01*
X153301156Y-95560500D01*
X153301158Y-95560500D01*
X153458844Y-95560500D01*
X153458845Y-95560499D01*
X153613497Y-95529737D01*
X153731592Y-95480821D01*
X153759172Y-95469397D01*
X153759172Y-95469396D01*
X153759179Y-95469394D01*
X153890289Y-95381789D01*
X153919608Y-95352468D01*
X153980928Y-95318985D01*
X154050620Y-95323969D01*
X154054723Y-95325583D01*
X154187238Y-95380472D01*
X154341888Y-95411234D01*
X154341891Y-95411235D01*
X154341893Y-95411235D01*
X154499579Y-95411235D01*
X154499580Y-95411234D01*
X154654232Y-95380472D01*
X154786730Y-95325590D01*
X154799907Y-95320132D01*
X154799907Y-95320131D01*
X154799914Y-95320129D01*
X154931024Y-95232524D01*
X154995684Y-95167863D01*
X155057005Y-95134380D01*
X155126697Y-95139364D01*
X155182631Y-95181235D01*
X155197924Y-95208091D01*
X155206657Y-95229173D01*
X155206663Y-95229185D01*
X155294264Y-95360288D01*
X155294267Y-95360292D01*
X155405761Y-95471786D01*
X155405765Y-95471789D01*
X155536868Y-95559390D01*
X155536881Y-95559397D01*
X155682552Y-95619735D01*
X155682557Y-95619737D01*
X155817093Y-95646498D01*
X155837207Y-95650499D01*
X155837210Y-95650500D01*
X155965556Y-95650500D01*
X156032595Y-95670185D01*
X156078350Y-95722989D01*
X156087016Y-95775066D01*
X156089500Y-95775066D01*
X156089500Y-95938846D01*
X156120261Y-96093489D01*
X156120264Y-96093501D01*
X156180602Y-96239172D01*
X156180609Y-96239185D01*
X156268210Y-96370288D01*
X156268213Y-96370292D01*
X156379707Y-96481786D01*
X156379711Y-96481789D01*
X156510814Y-96569390D01*
X156510827Y-96569397D01*
X156636240Y-96621344D01*
X156656503Y-96629737D01*
X156811153Y-96660499D01*
X156811156Y-96660500D01*
X156811158Y-96660500D01*
X156968844Y-96660500D01*
X156968845Y-96660499D01*
X157123497Y-96629737D01*
X157269179Y-96569394D01*
X157400289Y-96481789D01*
X157418425Y-96463653D01*
X164294500Y-96463653D01*
X164294500Y-96621346D01*
X164325261Y-96775989D01*
X164325264Y-96776001D01*
X164385602Y-96921672D01*
X164385609Y-96921685D01*
X164473210Y-97052788D01*
X164473213Y-97052792D01*
X164584707Y-97164286D01*
X164584711Y-97164289D01*
X164715814Y-97251890D01*
X164715827Y-97251897D01*
X164861498Y-97312235D01*
X164861503Y-97312237D01*
X165016153Y-97342999D01*
X165016156Y-97343000D01*
X165016158Y-97343000D01*
X165173844Y-97343000D01*
X165307600Y-97316394D01*
X165307600Y-97316393D01*
X165328497Y-97312237D01*
X165474179Y-97251894D01*
X165605289Y-97164289D01*
X165716789Y-97052789D01*
X165804394Y-96921679D01*
X165864737Y-96775997D01*
X165895500Y-96621342D01*
X165895500Y-96463658D01*
X165895500Y-96463655D01*
X165895499Y-96463653D01*
X165876928Y-96370292D01*
X165864737Y-96309003D01*
X165844102Y-96259185D01*
X165804397Y-96163327D01*
X165804390Y-96163314D01*
X165716789Y-96032211D01*
X165716786Y-96032207D01*
X165605292Y-95920713D01*
X165605288Y-95920710D01*
X165474185Y-95833109D01*
X165474172Y-95833102D01*
X165328501Y-95772764D01*
X165328489Y-95772761D01*
X165173845Y-95742000D01*
X165173842Y-95742000D01*
X165016158Y-95742000D01*
X165016155Y-95742000D01*
X164861510Y-95772761D01*
X164861498Y-95772764D01*
X164715827Y-95833102D01*
X164715814Y-95833109D01*
X164584711Y-95920710D01*
X164584707Y-95920713D01*
X164473213Y-96032207D01*
X164473210Y-96032211D01*
X164385609Y-96163314D01*
X164385602Y-96163327D01*
X164325264Y-96308998D01*
X164325261Y-96309010D01*
X164294500Y-96463653D01*
X157418425Y-96463653D01*
X157511789Y-96370289D01*
X157599394Y-96239179D01*
X157659737Y-96093497D01*
X157690500Y-95938842D01*
X157690500Y-95781158D01*
X157690500Y-95781155D01*
X157690499Y-95781153D01*
X157682711Y-95742000D01*
X157659737Y-95626503D01*
X157659735Y-95626498D01*
X157599397Y-95480827D01*
X157599390Y-95480814D01*
X157511789Y-95349711D01*
X157511786Y-95349707D01*
X157400292Y-95238213D01*
X157400288Y-95238210D01*
X157269185Y-95150609D01*
X157269172Y-95150602D01*
X157123501Y-95090264D01*
X157123489Y-95090261D01*
X156968845Y-95059500D01*
X156968842Y-95059500D01*
X156840498Y-95059500D01*
X156831745Y-95056929D01*
X156822715Y-95058218D01*
X156798748Y-95047240D01*
X156773459Y-95039815D01*
X156767486Y-95032922D01*
X156759191Y-95029123D01*
X156744961Y-95006926D01*
X156727704Y-94987011D01*
X156725407Y-94976426D01*
X156721482Y-94970303D01*
X156719526Y-94949321D01*
X156716498Y-94935362D01*
X156716504Y-94929088D01*
X156716554Y-94928842D01*
X156716554Y-94891153D01*
X158319500Y-94891153D01*
X158319500Y-95048846D01*
X158350261Y-95203489D01*
X158350264Y-95203501D01*
X158410602Y-95349172D01*
X158410609Y-95349185D01*
X158498210Y-95480288D01*
X158498213Y-95480292D01*
X158609707Y-95591786D01*
X158609711Y-95591789D01*
X158740814Y-95679390D01*
X158740827Y-95679397D01*
X158874253Y-95734663D01*
X158886503Y-95739737D01*
X159041153Y-95770499D01*
X159041156Y-95770500D01*
X159041158Y-95770500D01*
X159198844Y-95770500D01*
X159198845Y-95770499D01*
X159353497Y-95739737D01*
X159499179Y-95679394D01*
X159630289Y-95591789D01*
X159741789Y-95480289D01*
X159829394Y-95349179D01*
X159830583Y-95346307D01*
X159831608Y-95345034D01*
X159832264Y-95343809D01*
X159832496Y-95343933D01*
X159874420Y-95291902D01*
X159940712Y-95269832D01*
X160008413Y-95287107D01*
X160056027Y-95338241D01*
X160059708Y-95346301D01*
X160110602Y-95469172D01*
X160110609Y-95469185D01*
X160198210Y-95600288D01*
X160198213Y-95600292D01*
X160309707Y-95711786D01*
X160309711Y-95711789D01*
X160440814Y-95799390D01*
X160440827Y-95799397D01*
X160586498Y-95859735D01*
X160586503Y-95859737D01*
X160703398Y-95882989D01*
X160741153Y-95890499D01*
X160741156Y-95890500D01*
X160741158Y-95890500D01*
X160898844Y-95890500D01*
X160898845Y-95890499D01*
X161053497Y-95859737D01*
X161193607Y-95801702D01*
X161199172Y-95799397D01*
X161199172Y-95799396D01*
X161199179Y-95799394D01*
X161330289Y-95711789D01*
X161441789Y-95600289D01*
X161529394Y-95469179D01*
X161589737Y-95323497D01*
X161613607Y-95203497D01*
X161619160Y-95175581D01*
X161651545Y-95113670D01*
X161712261Y-95079096D01*
X161782030Y-95082835D01*
X161838702Y-95123702D01*
X161855338Y-95152319D01*
X161870604Y-95189176D01*
X161870609Y-95189185D01*
X161958210Y-95320288D01*
X161958213Y-95320292D01*
X162069707Y-95431786D01*
X162069711Y-95431789D01*
X162200814Y-95519390D01*
X162200827Y-95519397D01*
X162300060Y-95560500D01*
X162346503Y-95579737D01*
X162501153Y-95610499D01*
X162501156Y-95610500D01*
X162501158Y-95610500D01*
X162658844Y-95610500D01*
X162658845Y-95610499D01*
X162813497Y-95579737D01*
X162959179Y-95519394D01*
X163090289Y-95431789D01*
X163201789Y-95320289D01*
X163289394Y-95189179D01*
X163291816Y-95183333D01*
X163310028Y-95139364D01*
X163349737Y-95043497D01*
X163380500Y-94888842D01*
X163380500Y-94731158D01*
X163380500Y-94731155D01*
X163380499Y-94731153D01*
X163379845Y-94727864D01*
X163349737Y-94576503D01*
X163343239Y-94560816D01*
X163289397Y-94430827D01*
X163289390Y-94430814D01*
X163201789Y-94299711D01*
X163201786Y-94299707D01*
X163090292Y-94188213D01*
X163090288Y-94188210D01*
X162959185Y-94100609D01*
X162959172Y-94100602D01*
X162813501Y-94040264D01*
X162813489Y-94040261D01*
X162658845Y-94009500D01*
X162658842Y-94009500D01*
X162501158Y-94009500D01*
X162501155Y-94009500D01*
X162346510Y-94040261D01*
X162346498Y-94040264D01*
X162200827Y-94100602D01*
X162200814Y-94100609D01*
X162069711Y-94188210D01*
X162069707Y-94188213D01*
X161958213Y-94299707D01*
X161958210Y-94299711D01*
X161870609Y-94430814D01*
X161870602Y-94430827D01*
X161810264Y-94576498D01*
X161810261Y-94576508D01*
X161780839Y-94724419D01*
X161748454Y-94786330D01*
X161687738Y-94820904D01*
X161617968Y-94817163D01*
X161561296Y-94776297D01*
X161544661Y-94747681D01*
X161529394Y-94710821D01*
X161529390Y-94710814D01*
X161441789Y-94579711D01*
X161441786Y-94579707D01*
X161330292Y-94468213D01*
X161330288Y-94468210D01*
X161199185Y-94380609D01*
X161199172Y-94380602D01*
X161053501Y-94320264D01*
X161053489Y-94320261D01*
X160898845Y-94289500D01*
X160898842Y-94289500D01*
X160741158Y-94289500D01*
X160741157Y-94289500D01*
X160705268Y-94296638D01*
X160635676Y-94290409D01*
X160580500Y-94247545D01*
X160557257Y-94181655D01*
X160573326Y-94113658D01*
X160577978Y-94106128D01*
X160581667Y-94100608D01*
X160629394Y-94029179D01*
X160689737Y-93883497D01*
X160720500Y-93728842D01*
X160720500Y-93571158D01*
X160720500Y-93571155D01*
X160720499Y-93571153D01*
X160704882Y-93492641D01*
X160689737Y-93416503D01*
X160683537Y-93401535D01*
X160629397Y-93270827D01*
X160629390Y-93270814D01*
X160541789Y-93139711D01*
X160541786Y-93139707D01*
X160430295Y-93028216D01*
X160430285Y-93028208D01*
X160299185Y-92940609D01*
X160299175Y-92940604D01*
X160278729Y-92932135D01*
X167539500Y-92932135D01*
X167539500Y-94727870D01*
X167539501Y-94727876D01*
X167545908Y-94787483D01*
X167596202Y-94922328D01*
X167596206Y-94922335D01*
X167682452Y-95037544D01*
X167682455Y-95037547D01*
X167797664Y-95123793D01*
X167797671Y-95123797D01*
X167826046Y-95134380D01*
X167932517Y-95174091D01*
X167992127Y-95180500D01*
X168002685Y-95180499D01*
X168069723Y-95200179D01*
X168090372Y-95216818D01*
X168760591Y-95887037D01*
X168697007Y-95904075D01*
X168582993Y-95969901D01*
X168489901Y-96062993D01*
X168424075Y-96177007D01*
X168407037Y-96240591D01*
X167774728Y-95608282D01*
X167774727Y-95608282D01*
X167735380Y-95662439D01*
X167638904Y-95851782D01*
X167573242Y-96053869D01*
X167573242Y-96053872D01*
X167540000Y-96263753D01*
X167540000Y-96476246D01*
X167573242Y-96686127D01*
X167573242Y-96686130D01*
X167638904Y-96888217D01*
X167735375Y-97077550D01*
X167774728Y-97131716D01*
X168407037Y-96499408D01*
X168424075Y-96562993D01*
X168489901Y-96677007D01*
X168582993Y-96770099D01*
X168697007Y-96835925D01*
X168760590Y-96852962D01*
X168128282Y-97485269D01*
X168128282Y-97485270D01*
X168182449Y-97524624D01*
X168371782Y-97621095D01*
X168573870Y-97686757D01*
X168783754Y-97720000D01*
X168996246Y-97720000D01*
X169206127Y-97686757D01*
X169206130Y-97686757D01*
X169408217Y-97621095D01*
X169597554Y-97524622D01*
X169651716Y-97485270D01*
X169651717Y-97485270D01*
X169019408Y-96852962D01*
X169082993Y-96835925D01*
X169197007Y-96770099D01*
X169290099Y-96677007D01*
X169355925Y-96562993D01*
X169372962Y-96499409D01*
X170005270Y-97131717D01*
X170005270Y-97131716D01*
X170044622Y-97077554D01*
X170141095Y-96888217D01*
X170206757Y-96686130D01*
X170206757Y-96686127D01*
X170240000Y-96476246D01*
X170240000Y-96263753D01*
X170206757Y-96053872D01*
X170206757Y-96053869D01*
X170141095Y-95851782D01*
X170044624Y-95662449D01*
X170005270Y-95608282D01*
X170005269Y-95608282D01*
X169372962Y-96240590D01*
X169355925Y-96177007D01*
X169290099Y-96062993D01*
X169197007Y-95969901D01*
X169082993Y-95904075D01*
X169019409Y-95887037D01*
X169689627Y-95216818D01*
X169750950Y-95183333D01*
X169777307Y-95180499D01*
X169787872Y-95180499D01*
X169847483Y-95174091D01*
X169982331Y-95123796D01*
X170097546Y-95037546D01*
X170183796Y-94922331D01*
X170234091Y-94787483D01*
X170240500Y-94727873D01*
X170240499Y-92932128D01*
X170234091Y-92872517D01*
X170229648Y-92860606D01*
X170183797Y-92737671D01*
X170183793Y-92737664D01*
X170097547Y-92622455D01*
X170097544Y-92622452D01*
X169982335Y-92536206D01*
X169982328Y-92536202D01*
X169847482Y-92485908D01*
X169847483Y-92485908D01*
X169787883Y-92479501D01*
X169787881Y-92479500D01*
X169787873Y-92479500D01*
X169787864Y-92479500D01*
X167992129Y-92479500D01*
X167992123Y-92479501D01*
X167932516Y-92485908D01*
X167797671Y-92536202D01*
X167797664Y-92536206D01*
X167682455Y-92622452D01*
X167682452Y-92622455D01*
X167596206Y-92737664D01*
X167596202Y-92737671D01*
X167545908Y-92872517D01*
X167540197Y-92925642D01*
X167539501Y-92932123D01*
X167539500Y-92932135D01*
X160278729Y-92932135D01*
X160202826Y-92900695D01*
X160148423Y-92856854D01*
X160126358Y-92790560D01*
X160138731Y-92737152D01*
X160136934Y-92736408D01*
X160187928Y-92613296D01*
X160199608Y-92585097D01*
X160230371Y-92430442D01*
X160230371Y-92272758D01*
X160230371Y-92272755D01*
X160230370Y-92272753D01*
X160226073Y-92251153D01*
X160199608Y-92118103D01*
X160159437Y-92021121D01*
X160139268Y-91972427D01*
X160139261Y-91972414D01*
X160058382Y-91851371D01*
X160037504Y-91784694D01*
X160055988Y-91717314D01*
X160107967Y-91670623D01*
X160137293Y-91660863D01*
X160189333Y-91650510D01*
X160243497Y-91639737D01*
X160383218Y-91581863D01*
X160389172Y-91579397D01*
X160389172Y-91579396D01*
X160389179Y-91579394D01*
X160520289Y-91491789D01*
X160631789Y-91380289D01*
X160719394Y-91249179D01*
X160779737Y-91103497D01*
X160804271Y-90980158D01*
X160804272Y-90980153D01*
X163389500Y-90980153D01*
X163389500Y-91137846D01*
X163420261Y-91292489D01*
X163420264Y-91292501D01*
X163480602Y-91438172D01*
X163480609Y-91438185D01*
X163568210Y-91569288D01*
X163568213Y-91569292D01*
X163679707Y-91680786D01*
X163679711Y-91680789D01*
X163810814Y-91768390D01*
X163810827Y-91768397D01*
X163936617Y-91820500D01*
X163956503Y-91828737D01*
X164111153Y-91859499D01*
X164111156Y-91859500D01*
X164111158Y-91859500D01*
X164268844Y-91859500D01*
X164268845Y-91859499D01*
X164423497Y-91828737D01*
X164569179Y-91768394D01*
X164700289Y-91680789D01*
X164811789Y-91569289D01*
X164899394Y-91438179D01*
X164959737Y-91292497D01*
X164990500Y-91137842D01*
X164990500Y-90980158D01*
X164990500Y-90980155D01*
X164990499Y-90980153D01*
X164984481Y-90949899D01*
X164959737Y-90825503D01*
X164943581Y-90786498D01*
X164899397Y-90679827D01*
X164899390Y-90679814D01*
X164811789Y-90548711D01*
X164811786Y-90548707D01*
X164700292Y-90437213D01*
X164700288Y-90437210D01*
X164569185Y-90349609D01*
X164569172Y-90349602D01*
X164423501Y-90289264D01*
X164423489Y-90289261D01*
X164268845Y-90258500D01*
X164268842Y-90258500D01*
X164111158Y-90258500D01*
X164111155Y-90258500D01*
X163956510Y-90289261D01*
X163956498Y-90289264D01*
X163810827Y-90349602D01*
X163810814Y-90349609D01*
X163679711Y-90437210D01*
X163679707Y-90437213D01*
X163568213Y-90548707D01*
X163568210Y-90548711D01*
X163480609Y-90679814D01*
X163480602Y-90679827D01*
X163420264Y-90825498D01*
X163420261Y-90825510D01*
X163389500Y-90980153D01*
X160804272Y-90980153D01*
X160810290Y-90949899D01*
X160810295Y-90949871D01*
X160810500Y-90948840D01*
X160810500Y-90791155D01*
X160810499Y-90791153D01*
X160804938Y-90763196D01*
X160779737Y-90636503D01*
X160773505Y-90621458D01*
X160719397Y-90490827D01*
X160719390Y-90490814D01*
X160631789Y-90359711D01*
X160631786Y-90359707D01*
X160520292Y-90248213D01*
X160520288Y-90248210D01*
X160389185Y-90160609D01*
X160389172Y-90160602D01*
X160243501Y-90100264D01*
X160243489Y-90100261D01*
X160088845Y-90069500D01*
X160088842Y-90069500D01*
X159931158Y-90069500D01*
X159931155Y-90069500D01*
X159776505Y-90100261D01*
X159776497Y-90100264D01*
X159743238Y-90114040D01*
X159673768Y-90121507D01*
X159626897Y-90102580D01*
X159519185Y-90030609D01*
X159519172Y-90030602D01*
X159373501Y-89970264D01*
X159373489Y-89970261D01*
X159218845Y-89939500D01*
X159218842Y-89939500D01*
X159061158Y-89939500D01*
X159061155Y-89939500D01*
X158906510Y-89970261D01*
X158906498Y-89970264D01*
X158760827Y-90030602D01*
X158760814Y-90030609D01*
X158629711Y-90118210D01*
X158629707Y-90118213D01*
X158518213Y-90229707D01*
X158518210Y-90229711D01*
X158430609Y-90360814D01*
X158430602Y-90360827D01*
X158370264Y-90506498D01*
X158370261Y-90506510D01*
X158339500Y-90661153D01*
X158339500Y-90818846D01*
X158370261Y-90973489D01*
X158370264Y-90973501D01*
X158430602Y-91119172D01*
X158430609Y-91119185D01*
X158518210Y-91250288D01*
X158518213Y-91250292D01*
X158629707Y-91361786D01*
X158629711Y-91361789D01*
X158760814Y-91449390D01*
X158760827Y-91449397D01*
X158903569Y-91508522D01*
X158957973Y-91552363D01*
X158980038Y-91618657D01*
X158962759Y-91686356D01*
X158925009Y-91726185D01*
X158919578Y-91729813D01*
X158808084Y-91841307D01*
X158808081Y-91841311D01*
X158720480Y-91972414D01*
X158720473Y-91972427D01*
X158660135Y-92118098D01*
X158660132Y-92118110D01*
X158629371Y-92272753D01*
X158629371Y-92430446D01*
X158660132Y-92585089D01*
X158660135Y-92585101D01*
X158720473Y-92730772D01*
X158720480Y-92730785D01*
X158808081Y-92861888D01*
X158808084Y-92861892D01*
X158919578Y-92973386D01*
X158919582Y-92973389D01*
X159050685Y-93060990D01*
X159050697Y-93060997D01*
X159147044Y-93100904D01*
X159201448Y-93144744D01*
X159223513Y-93211038D01*
X159211147Y-93264451D01*
X159212937Y-93265193D01*
X159150264Y-93416498D01*
X159150261Y-93416510D01*
X159119500Y-93571153D01*
X159119500Y-93728846D01*
X159150261Y-93883489D01*
X159150264Y-93883501D01*
X159197711Y-93998048D01*
X159205180Y-94067517D01*
X159173905Y-94129996D01*
X159113816Y-94165648D01*
X159083150Y-94169500D01*
X159041155Y-94169500D01*
X158886510Y-94200261D01*
X158886498Y-94200264D01*
X158740827Y-94260602D01*
X158740814Y-94260609D01*
X158609711Y-94348210D01*
X158609707Y-94348213D01*
X158498213Y-94459707D01*
X158498210Y-94459711D01*
X158410609Y-94590814D01*
X158410602Y-94590827D01*
X158350264Y-94736498D01*
X158350261Y-94736510D01*
X158319500Y-94891153D01*
X156716554Y-94891153D01*
X156716554Y-94771158D01*
X156716554Y-94771155D01*
X156716553Y-94771153D01*
X156685791Y-94616503D01*
X156675150Y-94590814D01*
X156625451Y-94470827D01*
X156625444Y-94470814D01*
X156537843Y-94339711D01*
X156537840Y-94339707D01*
X156426345Y-94228212D01*
X156413635Y-94219719D01*
X156384179Y-94200038D01*
X156339376Y-94146428D01*
X156330667Y-94077103D01*
X156349968Y-94028047D01*
X156429394Y-93909179D01*
X156489737Y-93763497D01*
X156520500Y-93608842D01*
X156520500Y-93451158D01*
X156520500Y-93451155D01*
X156520499Y-93451153D01*
X156510629Y-93401535D01*
X156489737Y-93296503D01*
X156453020Y-93207860D01*
X156429397Y-93150827D01*
X156429390Y-93150814D01*
X156341789Y-93019711D01*
X156341786Y-93019707D01*
X156230292Y-92908213D01*
X156230288Y-92908210D01*
X156099185Y-92820609D01*
X156099172Y-92820602D01*
X155953501Y-92760264D01*
X155953489Y-92760261D01*
X155798845Y-92729500D01*
X155798842Y-92729500D01*
X155641158Y-92729500D01*
X155641155Y-92729500D01*
X155486510Y-92760261D01*
X155486498Y-92760264D01*
X155340827Y-92820602D01*
X155340814Y-92820609D01*
X155209711Y-92908210D01*
X155209707Y-92908213D01*
X155098213Y-93019707D01*
X155098210Y-93019711D01*
X155010609Y-93150814D01*
X155010602Y-93150827D01*
X154950264Y-93296498D01*
X154950261Y-93296510D01*
X154919500Y-93451153D01*
X154919500Y-93608846D01*
X154948384Y-93754056D01*
X154942157Y-93823648D01*
X154899294Y-93878825D01*
X154833404Y-93902069D01*
X154779315Y-93892808D01*
X154654236Y-93840999D01*
X154654224Y-93840996D01*
X154499580Y-93810235D01*
X154499577Y-93810235D01*
X154341893Y-93810235D01*
X154341890Y-93810235D01*
X154187245Y-93840996D01*
X154187233Y-93840999D01*
X154041562Y-93901337D01*
X154041549Y-93901344D01*
X153910449Y-93988943D01*
X153881124Y-94018267D01*
X153819799Y-94051750D01*
X153750108Y-94046763D01*
X153745993Y-94045144D01*
X153613501Y-93990264D01*
X153613489Y-93990261D01*
X153458845Y-93959500D01*
X153458842Y-93959500D01*
X153301158Y-93959500D01*
X153301155Y-93959500D01*
X153146510Y-93990261D01*
X153146498Y-93990264D01*
X153000827Y-94050602D01*
X153000814Y-94050609D01*
X152869711Y-94138210D01*
X152869707Y-94138213D01*
X152758213Y-94249707D01*
X152758210Y-94249711D01*
X152667221Y-94385886D01*
X152665406Y-94384673D01*
X152623317Y-94427505D01*
X152555176Y-94442953D01*
X152489501Y-94419108D01*
X152459840Y-94388086D01*
X152400792Y-94299715D01*
X152400786Y-94299707D01*
X152289292Y-94188213D01*
X152289288Y-94188210D01*
X152158185Y-94100609D01*
X152158172Y-94100602D01*
X152012501Y-94040264D01*
X152012489Y-94040261D01*
X151857845Y-94009500D01*
X151857842Y-94009500D01*
X151700158Y-94009500D01*
X151700155Y-94009500D01*
X151545510Y-94040261D01*
X151545498Y-94040264D01*
X151399828Y-94100602D01*
X151399817Y-94100608D01*
X151343744Y-94138075D01*
X151277066Y-94158952D01*
X151227402Y-94149533D01*
X151143558Y-94114804D01*
X151143550Y-94114802D01*
X150988906Y-94084041D01*
X150988903Y-94084041D01*
X150831219Y-94084041D01*
X150831216Y-94084041D01*
X150676571Y-94114802D01*
X150676559Y-94114805D01*
X150530888Y-94175143D01*
X150530875Y-94175150D01*
X150399772Y-94262751D01*
X150399768Y-94262754D01*
X150288274Y-94374248D01*
X150288271Y-94374252D01*
X150200670Y-94505355D01*
X150200663Y-94505368D01*
X150140325Y-94651039D01*
X150140322Y-94651051D01*
X150109561Y-94805694D01*
X149719468Y-94805694D01*
X149704641Y-94731158D01*
X149699737Y-94706503D01*
X149676768Y-94651051D01*
X149639397Y-94560827D01*
X149639390Y-94560814D01*
X149559066Y-94440602D01*
X149538188Y-94373925D01*
X149556672Y-94306545D01*
X149559052Y-94302840D01*
X149563332Y-94296437D01*
X149623675Y-94150755D01*
X149654438Y-93996100D01*
X149654438Y-93838416D01*
X149654438Y-93838413D01*
X149654437Y-93838411D01*
X149647492Y-93803497D01*
X149623675Y-93683761D01*
X149609211Y-93648842D01*
X149563335Y-93538085D01*
X149563328Y-93538072D01*
X149475727Y-93406969D01*
X149475724Y-93406965D01*
X149364230Y-93295471D01*
X149364226Y-93295468D01*
X149233123Y-93207867D01*
X149233110Y-93207860D01*
X149087439Y-93147522D01*
X149087427Y-93147519D01*
X148932783Y-93116758D01*
X148932780Y-93116758D01*
X148775096Y-93116758D01*
X148775093Y-93116758D01*
X148620448Y-93147519D01*
X148620436Y-93147522D01*
X148474765Y-93207860D01*
X148474752Y-93207867D01*
X148343649Y-93295468D01*
X148343645Y-93295471D01*
X148232151Y-93406965D01*
X148232148Y-93406969D01*
X148144547Y-93538072D01*
X148144540Y-93538085D01*
X148084202Y-93683756D01*
X148084199Y-93683768D01*
X148053438Y-93838411D01*
X148053438Y-93996104D01*
X148084199Y-94150747D01*
X148084202Y-94150759D01*
X148144540Y-94296430D01*
X148144547Y-94296443D01*
X148224871Y-94416655D01*
X148245749Y-94483332D01*
X148227265Y-94550713D01*
X148224874Y-94554433D01*
X148220609Y-94560816D01*
X148220602Y-94560828D01*
X148160264Y-94706498D01*
X148160261Y-94706510D01*
X148129500Y-94861153D01*
X148129500Y-95018846D01*
X148160261Y-95173489D01*
X148160264Y-95173501D01*
X148220602Y-95319172D01*
X148220609Y-95319185D01*
X148308210Y-95450288D01*
X148312076Y-95454999D01*
X148310928Y-95455940D01*
X148340886Y-95510803D01*
X148335902Y-95580495D01*
X148294030Y-95636428D01*
X148243912Y-95658778D01*
X148187508Y-95669997D01*
X148187498Y-95670000D01*
X148041827Y-95730338D01*
X148041814Y-95730345D01*
X147910711Y-95817946D01*
X147910707Y-95817949D01*
X147799213Y-95929443D01*
X147799210Y-95929447D01*
X147711609Y-96060550D01*
X147711602Y-96060563D01*
X147651264Y-96206234D01*
X147651261Y-96206246D01*
X147620500Y-96360889D01*
X147620500Y-96479059D01*
X147600815Y-96546098D01*
X147548011Y-96591853D01*
X147478853Y-96601797D01*
X147415297Y-96572772D01*
X147408819Y-96566740D01*
X147330292Y-96488213D01*
X147330288Y-96488210D01*
X147199185Y-96400609D01*
X147199172Y-96400602D01*
X147053501Y-96340264D01*
X147053489Y-96340261D01*
X146898845Y-96309500D01*
X146898842Y-96309500D01*
X146894129Y-96309500D01*
X146827090Y-96289815D01*
X146781335Y-96237011D01*
X146771391Y-96167853D01*
X146779568Y-96138048D01*
X146789735Y-96113501D01*
X146789737Y-96113497D01*
X146820500Y-95958842D01*
X146820500Y-95801158D01*
X146820500Y-95801155D01*
X146820499Y-95801153D01*
X146814402Y-95770500D01*
X146789737Y-95646503D01*
X146778650Y-95619737D01*
X146729397Y-95500827D01*
X146729390Y-95500814D01*
X146641789Y-95369711D01*
X146641786Y-95369707D01*
X146530292Y-95258213D01*
X146530288Y-95258210D01*
X146399185Y-95170609D01*
X146399172Y-95170602D01*
X146253501Y-95110264D01*
X146253489Y-95110261D01*
X146098845Y-95079500D01*
X146098842Y-95079500D01*
X146074500Y-95079500D01*
X146007461Y-95059815D01*
X145961706Y-95007011D01*
X145950500Y-94955500D01*
X145950500Y-94931155D01*
X145950499Y-94931153D01*
X145942542Y-94891153D01*
X145919737Y-94776503D01*
X145917521Y-94771153D01*
X145859397Y-94630827D01*
X145859390Y-94630814D01*
X145771789Y-94499711D01*
X145771786Y-94499707D01*
X145660292Y-94388213D01*
X145660288Y-94388210D01*
X145529185Y-94300609D01*
X145529172Y-94300602D01*
X145383501Y-94240264D01*
X145383489Y-94240261D01*
X145228845Y-94209500D01*
X145228842Y-94209500D01*
X145071158Y-94209500D01*
X145071155Y-94209500D01*
X144916510Y-94240261D01*
X144916498Y-94240264D01*
X144770827Y-94300602D01*
X144770814Y-94300609D01*
X144639711Y-94388210D01*
X144639707Y-94388213D01*
X144528213Y-94499707D01*
X144528210Y-94499711D01*
X144440609Y-94630814D01*
X144440602Y-94630827D01*
X144380264Y-94776498D01*
X144380261Y-94776510D01*
X144349500Y-94931153D01*
X143270500Y-94931153D01*
X143270500Y-94861158D01*
X143270500Y-94861155D01*
X143270499Y-94861153D01*
X143263069Y-94823799D01*
X143239737Y-94706503D01*
X143216768Y-94651051D01*
X143179397Y-94560827D01*
X143179390Y-94560814D01*
X143091789Y-94429711D01*
X143091786Y-94429707D01*
X143024760Y-94362681D01*
X142991275Y-94301358D01*
X142996259Y-94231666D01*
X143024760Y-94187319D01*
X143131786Y-94080292D01*
X143131789Y-94080289D01*
X143219394Y-93949179D01*
X143279737Y-93803497D01*
X143310500Y-93648842D01*
X143310500Y-93491158D01*
X143310500Y-93491155D01*
X143310499Y-93491153D01*
X143295649Y-93416498D01*
X143279737Y-93336503D01*
X143270386Y-93313927D01*
X143219397Y-93190827D01*
X143219390Y-93190814D01*
X143131789Y-93059711D01*
X143131786Y-93059707D01*
X143020292Y-92948213D01*
X143020288Y-92948210D01*
X142889185Y-92860609D01*
X142889172Y-92860602D01*
X142743501Y-92800264D01*
X142743489Y-92800261D01*
X142588845Y-92769500D01*
X142588842Y-92769500D01*
X142431158Y-92769500D01*
X142431155Y-92769500D01*
X142276510Y-92800261D01*
X142276507Y-92800261D01*
X142181952Y-92839427D01*
X142149313Y-92842935D01*
X142116853Y-92847603D01*
X142114765Y-92846649D01*
X142112482Y-92846895D01*
X142083139Y-92832206D01*
X142053297Y-92818578D01*
X142052055Y-92816646D01*
X142050003Y-92815619D01*
X142033257Y-92787396D01*
X142015523Y-92759800D01*
X142015087Y-92756771D01*
X142014351Y-92755530D01*
X142010500Y-92724865D01*
X142010500Y-92613294D01*
X145379442Y-92613294D01*
X145379442Y-92770987D01*
X145410203Y-92925630D01*
X145410206Y-92925642D01*
X145470544Y-93071313D01*
X145470551Y-93071326D01*
X145558152Y-93202429D01*
X145558155Y-93202433D01*
X145669649Y-93313927D01*
X145669653Y-93313930D01*
X145800756Y-93401531D01*
X145800769Y-93401538D01*
X145920552Y-93451153D01*
X145946445Y-93461878D01*
X146093645Y-93491158D01*
X146101095Y-93492640D01*
X146101098Y-93492641D01*
X146101100Y-93492641D01*
X146258786Y-93492641D01*
X146258787Y-93492640D01*
X146413439Y-93461878D01*
X146559121Y-93401535D01*
X146690231Y-93313930D01*
X146801731Y-93202430D01*
X146889336Y-93071320D01*
X146949679Y-92925638D01*
X146980442Y-92770983D01*
X146980442Y-92613299D01*
X146980442Y-92613296D01*
X146980441Y-92613294D01*
X146955102Y-92485908D01*
X146949679Y-92458644D01*
X146937998Y-92430444D01*
X146889339Y-92312968D01*
X146889334Y-92312959D01*
X146848037Y-92251153D01*
X150369500Y-92251153D01*
X150369500Y-92408846D01*
X150400261Y-92563489D01*
X150400264Y-92563501D01*
X150460602Y-92709172D01*
X150460609Y-92709185D01*
X150548210Y-92840288D01*
X150548213Y-92840292D01*
X150659707Y-92951786D01*
X150659711Y-92951789D01*
X150790814Y-93039390D01*
X150790827Y-93039397D01*
X150867912Y-93071326D01*
X150936503Y-93099737D01*
X151045093Y-93121337D01*
X151091153Y-93130499D01*
X151091156Y-93130500D01*
X151091158Y-93130500D01*
X151248844Y-93130500D01*
X151248845Y-93130499D01*
X151403497Y-93099737D01*
X151549179Y-93039394D01*
X151680289Y-92951789D01*
X151791789Y-92840289D01*
X151879394Y-92709179D01*
X151939737Y-92563497D01*
X151970500Y-92408842D01*
X151970500Y-92251158D01*
X151970500Y-92251155D01*
X151970499Y-92251153D01*
X151944035Y-92118110D01*
X151939737Y-92096503D01*
X151908513Y-92021121D01*
X151879397Y-91950827D01*
X151879390Y-91950814D01*
X151791789Y-91819711D01*
X151791786Y-91819707D01*
X151680290Y-91708211D01*
X151650873Y-91688555D01*
X151606069Y-91634942D01*
X151597363Y-91565617D01*
X151627519Y-91502590D01*
X151672315Y-91470892D01*
X151689980Y-91463576D01*
X151821090Y-91375971D01*
X151932590Y-91264471D01*
X152020195Y-91133361D01*
X152080538Y-90987679D01*
X152111301Y-90833024D01*
X152111301Y-90830235D01*
X152111714Y-90828826D01*
X152111898Y-90826964D01*
X152112251Y-90826998D01*
X152130986Y-90763196D01*
X152183790Y-90717441D01*
X152235301Y-90706235D01*
X152263109Y-90706235D01*
X152263110Y-90706234D01*
X152417762Y-90675472D01*
X152563444Y-90615129D01*
X152694554Y-90527524D01*
X152806054Y-90416024D01*
X152893659Y-90284914D01*
X152895188Y-90281223D01*
X152896505Y-90279587D01*
X152896529Y-90279544D01*
X152896537Y-90279548D01*
X152939026Y-90226817D01*
X153005319Y-90204749D01*
X153073019Y-90222025D01*
X153112853Y-90259779D01*
X153188210Y-90372560D01*
X153299707Y-90484057D01*
X153299711Y-90484060D01*
X153430814Y-90571661D01*
X153430827Y-90571668D01*
X153570192Y-90629394D01*
X153576503Y-90632008D01*
X153723024Y-90661153D01*
X153731153Y-90662770D01*
X153731156Y-90662771D01*
X153731158Y-90662771D01*
X153888844Y-90662771D01*
X153888845Y-90662770D01*
X154043497Y-90632008D01*
X154189179Y-90571665D01*
X154320289Y-90484060D01*
X154431789Y-90372560D01*
X154519394Y-90241450D01*
X154579737Y-90095768D01*
X154587641Y-90056030D01*
X154620025Y-89994122D01*
X154680740Y-89959547D01*
X154750510Y-89963286D01*
X154807182Y-90004152D01*
X154830875Y-90056031D01*
X154850261Y-90153491D01*
X154850264Y-90153501D01*
X154910602Y-90299172D01*
X154910609Y-90299185D01*
X154998210Y-90430288D01*
X154998213Y-90430292D01*
X155109707Y-90541786D01*
X155109711Y-90541789D01*
X155240814Y-90629390D01*
X155240827Y-90629397D01*
X155362563Y-90679821D01*
X155386503Y-90689737D01*
X155541153Y-90720499D01*
X155541156Y-90720500D01*
X155541158Y-90720500D01*
X155698844Y-90720500D01*
X155698845Y-90720499D01*
X155853497Y-90689737D01*
X155971592Y-90640821D01*
X155999172Y-90629397D01*
X155999172Y-90629396D01*
X155999179Y-90629394D01*
X156130289Y-90541789D01*
X156241789Y-90430289D01*
X156329394Y-90299179D01*
X156389737Y-90153497D01*
X156420500Y-89998842D01*
X156420500Y-89841158D01*
X156420500Y-89841155D01*
X156400231Y-89739258D01*
X156400231Y-89739257D01*
X156396630Y-89721153D01*
X166479500Y-89721153D01*
X166479500Y-89878846D01*
X166510261Y-90033489D01*
X166510264Y-90033501D01*
X166570602Y-90179172D01*
X166570609Y-90179185D01*
X166658210Y-90310288D01*
X166658213Y-90310292D01*
X166769707Y-90421786D01*
X166769711Y-90421789D01*
X166900814Y-90509390D01*
X166900827Y-90509397D01*
X167046440Y-90569711D01*
X167046503Y-90569737D01*
X167201153Y-90600499D01*
X167201156Y-90600500D01*
X167201158Y-90600500D01*
X167358844Y-90600500D01*
X167358845Y-90600499D01*
X167513497Y-90569737D01*
X167658414Y-90509711D01*
X167659172Y-90509397D01*
X167659172Y-90509396D01*
X167659179Y-90509394D01*
X167790289Y-90421789D01*
X167901789Y-90310289D01*
X167989394Y-90179179D01*
X168049737Y-90033497D01*
X168080500Y-89878842D01*
X168080500Y-89721158D01*
X168080500Y-89721155D01*
X168080499Y-89721153D01*
X168073606Y-89686498D01*
X168049737Y-89566503D01*
X168042423Y-89548846D01*
X167989397Y-89420827D01*
X167989390Y-89420814D01*
X167901789Y-89289711D01*
X167901786Y-89289707D01*
X167790292Y-89178213D01*
X167790288Y-89178210D01*
X167659185Y-89090609D01*
X167659172Y-89090602D01*
X167513501Y-89030264D01*
X167513489Y-89030261D01*
X167358845Y-88999500D01*
X167358842Y-88999500D01*
X167201158Y-88999500D01*
X167201155Y-88999500D01*
X167046510Y-89030261D01*
X167046498Y-89030264D01*
X166900827Y-89090602D01*
X166900814Y-89090609D01*
X166769711Y-89178210D01*
X166769707Y-89178213D01*
X166658213Y-89289707D01*
X166658210Y-89289711D01*
X166570609Y-89420814D01*
X166570602Y-89420827D01*
X166510264Y-89566498D01*
X166510261Y-89566510D01*
X166479500Y-89721153D01*
X156396630Y-89721153D01*
X156389738Y-89686510D01*
X156389737Y-89686503D01*
X156338687Y-89563256D01*
X156329397Y-89540827D01*
X156329390Y-89540814D01*
X156241789Y-89409711D01*
X156241786Y-89409707D01*
X156130292Y-89298213D01*
X156130288Y-89298210D01*
X155999185Y-89210609D01*
X155999172Y-89210602D01*
X155853501Y-89150264D01*
X155853489Y-89150261D01*
X155698845Y-89119500D01*
X155698842Y-89119500D01*
X155541158Y-89119500D01*
X155541155Y-89119500D01*
X155386510Y-89150261D01*
X155386498Y-89150264D01*
X155240827Y-89210602D01*
X155240814Y-89210609D01*
X155109711Y-89298210D01*
X155109707Y-89298213D01*
X154998213Y-89409707D01*
X154998210Y-89409711D01*
X154910609Y-89540814D01*
X154910602Y-89540827D01*
X154850264Y-89686498D01*
X154850261Y-89686507D01*
X154842358Y-89726240D01*
X154809972Y-89788151D01*
X154749256Y-89822724D01*
X154679486Y-89818983D01*
X154622815Y-89778116D01*
X154599124Y-89726238D01*
X154588384Y-89672245D01*
X154579737Y-89628774D01*
X154546629Y-89548844D01*
X154519397Y-89483098D01*
X154519390Y-89483085D01*
X154431789Y-89351982D01*
X154431786Y-89351978D01*
X154320292Y-89240484D01*
X154320288Y-89240481D01*
X154189185Y-89152880D01*
X154189172Y-89152873D01*
X154043501Y-89092535D01*
X154043489Y-89092532D01*
X153888845Y-89061771D01*
X153888842Y-89061771D01*
X153731158Y-89061771D01*
X153731155Y-89061771D01*
X153576510Y-89092532D01*
X153576498Y-89092535D01*
X153430827Y-89152873D01*
X153430814Y-89152880D01*
X153299711Y-89240481D01*
X153299707Y-89240484D01*
X153188213Y-89351978D01*
X153188210Y-89351982D01*
X153100609Y-89483085D01*
X153100601Y-89483101D01*
X153099070Y-89486797D01*
X153097751Y-89488432D01*
X153097736Y-89488462D01*
X153097730Y-89488459D01*
X153055225Y-89541197D01*
X152988929Y-89563256D01*
X152921231Y-89545972D01*
X152881411Y-89508225D01*
X152806057Y-89395450D01*
X152806051Y-89395442D01*
X152694557Y-89283948D01*
X152694553Y-89283945D01*
X152563450Y-89196344D01*
X152563437Y-89196337D01*
X152417766Y-89135999D01*
X152417754Y-89135996D01*
X152263110Y-89105235D01*
X152263107Y-89105235D01*
X152105423Y-89105235D01*
X152105420Y-89105235D01*
X151950775Y-89135996D01*
X151950763Y-89135999D01*
X151805092Y-89196337D01*
X151805079Y-89196344D01*
X151673976Y-89283945D01*
X151673972Y-89283948D01*
X151562478Y-89395442D01*
X151562475Y-89395446D01*
X151474874Y-89526549D01*
X151474867Y-89526562D01*
X151414529Y-89672233D01*
X151414526Y-89672245D01*
X151383765Y-89826888D01*
X151383765Y-89829682D01*
X151383351Y-89831090D01*
X151383168Y-89832953D01*
X151382814Y-89832918D01*
X151364080Y-89896721D01*
X151311276Y-89942476D01*
X151259765Y-89953682D01*
X151231956Y-89953682D01*
X151077311Y-89984443D01*
X151077299Y-89984446D01*
X150931628Y-90044784D01*
X150931615Y-90044791D01*
X150800512Y-90132392D01*
X150800508Y-90132395D01*
X150689014Y-90243889D01*
X150689011Y-90243893D01*
X150601410Y-90374996D01*
X150601403Y-90375009D01*
X150541065Y-90520680D01*
X150541062Y-90520692D01*
X150510301Y-90675335D01*
X150510301Y-90833028D01*
X150541062Y-90987671D01*
X150541065Y-90987683D01*
X150601403Y-91133354D01*
X150601410Y-91133367D01*
X150689011Y-91264470D01*
X150689014Y-91264474D01*
X150800508Y-91375968D01*
X150800514Y-91375973D01*
X150829926Y-91395626D01*
X150874730Y-91449238D01*
X150883437Y-91518563D01*
X150853282Y-91581590D01*
X150808488Y-91613288D01*
X150790821Y-91620606D01*
X150790814Y-91620609D01*
X150659711Y-91708210D01*
X150659707Y-91708213D01*
X150548213Y-91819707D01*
X150548210Y-91819711D01*
X150460609Y-91950814D01*
X150460602Y-91950827D01*
X150400264Y-92096498D01*
X150400261Y-92096510D01*
X150369500Y-92251153D01*
X146848037Y-92251153D01*
X146801731Y-92181852D01*
X146801728Y-92181848D01*
X146702324Y-92082444D01*
X146668839Y-92021121D01*
X146673823Y-91951429D01*
X146715695Y-91895496D01*
X146765814Y-91873146D01*
X146799557Y-91866433D01*
X146883497Y-91849737D01*
X147029179Y-91789394D01*
X147160289Y-91701789D01*
X147271789Y-91590289D01*
X147359394Y-91459179D01*
X147419737Y-91313497D01*
X147450500Y-91158842D01*
X147450500Y-91001158D01*
X147450500Y-90999541D01*
X147470185Y-90932502D01*
X147522989Y-90886747D01*
X147592147Y-90876803D01*
X147655703Y-90905828D01*
X147677602Y-90930650D01*
X147758210Y-91051288D01*
X147758213Y-91051292D01*
X147869707Y-91162786D01*
X147869711Y-91162789D01*
X148000814Y-91250390D01*
X148000827Y-91250397D01*
X148102448Y-91292489D01*
X148146503Y-91310737D01*
X148301153Y-91341499D01*
X148301156Y-91341500D01*
X148301158Y-91341500D01*
X148458844Y-91341500D01*
X148458845Y-91341499D01*
X148613497Y-91310737D01*
X148759179Y-91250394D01*
X148890289Y-91162789D01*
X149001789Y-91051289D01*
X149089394Y-90920179D01*
X149149737Y-90774497D01*
X149180500Y-90619842D01*
X149180500Y-90462158D01*
X149180500Y-90462155D01*
X149180499Y-90462153D01*
X149175538Y-90437211D01*
X149149737Y-90307503D01*
X149140383Y-90284920D01*
X149089397Y-90161827D01*
X149089390Y-90161814D01*
X149001789Y-90030711D01*
X149001786Y-90030707D01*
X148890292Y-89919213D01*
X148890288Y-89919210D01*
X148759185Y-89831609D01*
X148759172Y-89831602D01*
X148613501Y-89771264D01*
X148613489Y-89771261D01*
X148458845Y-89740500D01*
X148458842Y-89740500D01*
X148301158Y-89740500D01*
X148301155Y-89740500D01*
X148146510Y-89771261D01*
X148146498Y-89771264D01*
X148000827Y-89831602D01*
X148000814Y-89831609D01*
X147869711Y-89919210D01*
X147869707Y-89919213D01*
X147758213Y-90030707D01*
X147758210Y-90030711D01*
X147670609Y-90161814D01*
X147670602Y-90161827D01*
X147610264Y-90307498D01*
X147610261Y-90307510D01*
X147579500Y-90462153D01*
X147579500Y-90621458D01*
X147559815Y-90688497D01*
X147507011Y-90734252D01*
X147437853Y-90744196D01*
X147374297Y-90715171D01*
X147352398Y-90690349D01*
X147271789Y-90569711D01*
X147271786Y-90569707D01*
X147160292Y-90458213D01*
X147160288Y-90458210D01*
X147029185Y-90370609D01*
X147029172Y-90370602D01*
X146883501Y-90310264D01*
X146883489Y-90310261D01*
X146728845Y-90279500D01*
X146728842Y-90279500D01*
X146571158Y-90279500D01*
X146571155Y-90279500D01*
X146416510Y-90310261D01*
X146416498Y-90310264D01*
X146270827Y-90370602D01*
X146270814Y-90370609D01*
X146139711Y-90458210D01*
X146139707Y-90458213D01*
X146028213Y-90569707D01*
X146028210Y-90569711D01*
X145940609Y-90700814D01*
X145940602Y-90700827D01*
X145880264Y-90846498D01*
X145880261Y-90846510D01*
X145849500Y-91001153D01*
X145849500Y-91158846D01*
X145880261Y-91313489D01*
X145880264Y-91313501D01*
X145940602Y-91459172D01*
X145940609Y-91459185D01*
X146028210Y-91590288D01*
X146028213Y-91590292D01*
X146127617Y-91689696D01*
X146161102Y-91751019D01*
X146156118Y-91820711D01*
X146114246Y-91876644D01*
X146064128Y-91898994D01*
X145946450Y-91922402D01*
X145946440Y-91922405D01*
X145800769Y-91982743D01*
X145800756Y-91982750D01*
X145669653Y-92070351D01*
X145669649Y-92070354D01*
X145558155Y-92181848D01*
X145558152Y-92181852D01*
X145470551Y-92312955D01*
X145470544Y-92312968D01*
X145410206Y-92458639D01*
X145410203Y-92458651D01*
X145379442Y-92613294D01*
X142010500Y-92613294D01*
X142010500Y-90941153D01*
X143599500Y-90941153D01*
X143599500Y-91098846D01*
X143630261Y-91253489D01*
X143630264Y-91253501D01*
X143690602Y-91399172D01*
X143690609Y-91399185D01*
X143778210Y-91530288D01*
X143778213Y-91530292D01*
X143889707Y-91641786D01*
X143889711Y-91641789D01*
X144020814Y-91729390D01*
X144020827Y-91729397D01*
X144114983Y-91768397D01*
X144166503Y-91789737D01*
X144321153Y-91820499D01*
X144321156Y-91820500D01*
X144321158Y-91820500D01*
X144478844Y-91820500D01*
X144478845Y-91820499D01*
X144633497Y-91789737D01*
X144746166Y-91743067D01*
X144779172Y-91729397D01*
X144779172Y-91729396D01*
X144779179Y-91729394D01*
X144910289Y-91641789D01*
X145021789Y-91530289D01*
X145109394Y-91399179D01*
X145169737Y-91253497D01*
X145200500Y-91098842D01*
X145200500Y-90941158D01*
X145200500Y-90941155D01*
X145200499Y-90941153D01*
X145178991Y-90833026D01*
X145169737Y-90786503D01*
X145142398Y-90720500D01*
X145109397Y-90640827D01*
X145109390Y-90640814D01*
X145021789Y-90509711D01*
X145021786Y-90509707D01*
X144959008Y-90446929D01*
X144925523Y-90385606D01*
X144930507Y-90315914D01*
X144972379Y-90259981D01*
X145010691Y-90240588D01*
X145013489Y-90239738D01*
X145013497Y-90239737D01*
X145159179Y-90179394D01*
X145290289Y-90091789D01*
X145401789Y-89980289D01*
X145489394Y-89849179D01*
X145496130Y-89832918D01*
X145514672Y-89788151D01*
X145549737Y-89703497D01*
X145580500Y-89548842D01*
X145580500Y-89391158D01*
X145580500Y-89391155D01*
X145580499Y-89391153D01*
X145572707Y-89351982D01*
X145549737Y-89236503D01*
X145549735Y-89236498D01*
X145489397Y-89090827D01*
X145489390Y-89090814D01*
X145401789Y-88959711D01*
X145401786Y-88959707D01*
X145290292Y-88848213D01*
X145290288Y-88848210D01*
X145159185Y-88760609D01*
X145159172Y-88760602D01*
X145013501Y-88700264D01*
X145013489Y-88700261D01*
X144858845Y-88669500D01*
X144858842Y-88669500D01*
X144701158Y-88669500D01*
X144701155Y-88669500D01*
X144546510Y-88700261D01*
X144546498Y-88700264D01*
X144400827Y-88760602D01*
X144400814Y-88760609D01*
X144269711Y-88848210D01*
X144269707Y-88848213D01*
X144158213Y-88959707D01*
X144158210Y-88959711D01*
X144070609Y-89090814D01*
X144070602Y-89090827D01*
X144010264Y-89236498D01*
X144010261Y-89236510D01*
X143979500Y-89391153D01*
X143979500Y-89548846D01*
X144010261Y-89703489D01*
X144010264Y-89703501D01*
X144070602Y-89849172D01*
X144070609Y-89849185D01*
X144158210Y-89980288D01*
X144158213Y-89980292D01*
X144220992Y-90043071D01*
X144254477Y-90104394D01*
X144249493Y-90174086D01*
X144207621Y-90230019D01*
X144169309Y-90249412D01*
X144166498Y-90250264D01*
X144020827Y-90310602D01*
X144020814Y-90310609D01*
X143889711Y-90398210D01*
X143889707Y-90398213D01*
X143778213Y-90509707D01*
X143778210Y-90509711D01*
X143690609Y-90640814D01*
X143690602Y-90640827D01*
X143630264Y-90786498D01*
X143630261Y-90786510D01*
X143599500Y-90941153D01*
X142010500Y-90941153D01*
X142010500Y-86111917D01*
X148278736Y-86111917D01*
X148278736Y-86269610D01*
X148309497Y-86424253D01*
X148309500Y-86424265D01*
X148369838Y-86569936D01*
X148369845Y-86569949D01*
X148457446Y-86701052D01*
X148457449Y-86701056D01*
X148568943Y-86812550D01*
X148568947Y-86812553D01*
X148700050Y-86900154D01*
X148700063Y-86900161D01*
X148845734Y-86960499D01*
X148845739Y-86960501D01*
X148845743Y-86960501D01*
X148851571Y-86962270D01*
X148851113Y-86963779D01*
X148906209Y-86992598D01*
X148940784Y-87053314D01*
X148937045Y-87123083D01*
X148896180Y-87179756D01*
X148867560Y-87196393D01*
X148760827Y-87240602D01*
X148760814Y-87240609D01*
X148629711Y-87328210D01*
X148629707Y-87328213D01*
X148518213Y-87439707D01*
X148518210Y-87439711D01*
X148430609Y-87570814D01*
X148430602Y-87570827D01*
X148370264Y-87716498D01*
X148370261Y-87716510D01*
X148339500Y-87871153D01*
X148339500Y-88028846D01*
X148370261Y-88183489D01*
X148370264Y-88183501D01*
X148430602Y-88329172D01*
X148430609Y-88329185D01*
X148518210Y-88460288D01*
X148518213Y-88460292D01*
X148629707Y-88571786D01*
X148629711Y-88571789D01*
X148760814Y-88659390D01*
X148760827Y-88659397D01*
X148906498Y-88719735D01*
X148906503Y-88719737D01*
X149056131Y-88749500D01*
X149061153Y-88750499D01*
X149061156Y-88750500D01*
X149061158Y-88750500D01*
X149218844Y-88750500D01*
X149218845Y-88750499D01*
X149373497Y-88719737D01*
X149519179Y-88659394D01*
X149650289Y-88571789D01*
X149761789Y-88460289D01*
X149849394Y-88329179D01*
X149909737Y-88183497D01*
X149940500Y-88028842D01*
X149940500Y-87871158D01*
X149940500Y-87871155D01*
X149940499Y-87871153D01*
X149920436Y-87770289D01*
X149909737Y-87716503D01*
X149909735Y-87716498D01*
X149849397Y-87570827D01*
X149849389Y-87570813D01*
X149807474Y-87508083D01*
X150577808Y-87508083D01*
X150577808Y-87665776D01*
X150608569Y-87820419D01*
X150608572Y-87820431D01*
X150668910Y-87966102D01*
X150668917Y-87966115D01*
X150756518Y-88097218D01*
X150756521Y-88097222D01*
X150868015Y-88208716D01*
X150868019Y-88208719D01*
X150999122Y-88296320D01*
X150999135Y-88296327D01*
X151144806Y-88356665D01*
X151144811Y-88356667D01*
X151299461Y-88387429D01*
X151299464Y-88387430D01*
X151299466Y-88387430D01*
X151457152Y-88387430D01*
X151457153Y-88387429D01*
X151611805Y-88356667D01*
X151757487Y-88296324D01*
X151888597Y-88208719D01*
X152000097Y-88097219D01*
X152087702Y-87966109D01*
X152148045Y-87820427D01*
X152178808Y-87665772D01*
X152178808Y-87574347D01*
X152198493Y-87507308D01*
X152217411Y-87486056D01*
X152216716Y-87485361D01*
X152221020Y-87481056D01*
X152221024Y-87481054D01*
X152332524Y-87369554D01*
X152420129Y-87238444D01*
X152443858Y-87181158D01*
X152443860Y-87181153D01*
X153409500Y-87181153D01*
X153409500Y-87338846D01*
X153440261Y-87493489D01*
X153440264Y-87493501D01*
X153500602Y-87639172D01*
X153500609Y-87639185D01*
X153588210Y-87770288D01*
X153588213Y-87770292D01*
X153699707Y-87881786D01*
X153699711Y-87881789D01*
X153830814Y-87969390D01*
X153830827Y-87969397D01*
X153974342Y-88028842D01*
X153976503Y-88029737D01*
X154131153Y-88060499D01*
X154131156Y-88060500D01*
X154131158Y-88060500D01*
X154288844Y-88060500D01*
X154288845Y-88060499D01*
X154443497Y-88029737D01*
X154589179Y-87969394D01*
X154720289Y-87881789D01*
X154831789Y-87770289D01*
X154919394Y-87639179D01*
X154979737Y-87493497D01*
X155010500Y-87338842D01*
X155010500Y-87181158D01*
X155010500Y-87181155D01*
X154990231Y-87079258D01*
X154990231Y-87079257D01*
X154986630Y-87061153D01*
X160219500Y-87061153D01*
X160219500Y-87218846D01*
X160250261Y-87373489D01*
X160250264Y-87373501D01*
X160310602Y-87519172D01*
X160310609Y-87519185D01*
X160398210Y-87650288D01*
X160398213Y-87650292D01*
X160509707Y-87761786D01*
X160509711Y-87761789D01*
X160640814Y-87849390D01*
X160640827Y-87849397D01*
X160786498Y-87909735D01*
X160786503Y-87909737D01*
X160941153Y-87940499D01*
X160941156Y-87940500D01*
X160941158Y-87940500D01*
X161098844Y-87940500D01*
X161098845Y-87940499D01*
X161253497Y-87909737D01*
X161399179Y-87849394D01*
X161530289Y-87761789D01*
X161641789Y-87650289D01*
X161729394Y-87519179D01*
X161789737Y-87373497D01*
X161820500Y-87218842D01*
X161820500Y-87061158D01*
X161820500Y-87061155D01*
X161820499Y-87061153D01*
X161800478Y-86960501D01*
X161789737Y-86906503D01*
X161750821Y-86812550D01*
X161729397Y-86760827D01*
X161729390Y-86760814D01*
X161641789Y-86629711D01*
X161641786Y-86629707D01*
X161530292Y-86518213D01*
X161530288Y-86518210D01*
X161399185Y-86430609D01*
X161399172Y-86430602D01*
X161253501Y-86370264D01*
X161253489Y-86370261D01*
X161098845Y-86339500D01*
X161098842Y-86339500D01*
X160941158Y-86339500D01*
X160941155Y-86339500D01*
X160786510Y-86370261D01*
X160786498Y-86370264D01*
X160640827Y-86430602D01*
X160640814Y-86430609D01*
X160509711Y-86518210D01*
X160509707Y-86518213D01*
X160398213Y-86629707D01*
X160398210Y-86629711D01*
X160310609Y-86760814D01*
X160310602Y-86760827D01*
X160250264Y-86906498D01*
X160250261Y-86906510D01*
X160219500Y-87061153D01*
X154986630Y-87061153D01*
X154979738Y-87026510D01*
X154979737Y-87026503D01*
X154953131Y-86962270D01*
X154919397Y-86880827D01*
X154919390Y-86880814D01*
X154831789Y-86749711D01*
X154831786Y-86749707D01*
X154720292Y-86638213D01*
X154720288Y-86638210D01*
X154589185Y-86550609D01*
X154589172Y-86550602D01*
X154443501Y-86490264D01*
X154443489Y-86490261D01*
X154288845Y-86459500D01*
X154288842Y-86459500D01*
X154131158Y-86459500D01*
X154131155Y-86459500D01*
X153976510Y-86490261D01*
X153976498Y-86490264D01*
X153830827Y-86550602D01*
X153830814Y-86550609D01*
X153699711Y-86638210D01*
X153699707Y-86638213D01*
X153588213Y-86749707D01*
X153588210Y-86749711D01*
X153500609Y-86880814D01*
X153500602Y-86880827D01*
X153440264Y-87026498D01*
X153440261Y-87026510D01*
X153409500Y-87181153D01*
X152443860Y-87181153D01*
X152466036Y-87127614D01*
X152466036Y-87127613D01*
X152480472Y-87092762D01*
X152511235Y-86938107D01*
X152511235Y-86780423D01*
X152511235Y-86780420D01*
X152511234Y-86780418D01*
X152507336Y-86760821D01*
X152480472Y-86625768D01*
X152457346Y-86569936D01*
X152420132Y-86480092D01*
X152420125Y-86480079D01*
X152332524Y-86348976D01*
X152332521Y-86348972D01*
X152221027Y-86237478D01*
X152221023Y-86237475D01*
X152089920Y-86149874D01*
X152089907Y-86149867D01*
X151944236Y-86089529D01*
X151944224Y-86089526D01*
X151789580Y-86058765D01*
X151789577Y-86058765D01*
X151631893Y-86058765D01*
X151631890Y-86058765D01*
X151477245Y-86089526D01*
X151477233Y-86089529D01*
X151331562Y-86149867D01*
X151331549Y-86149874D01*
X151200446Y-86237475D01*
X151200442Y-86237478D01*
X151088948Y-86348972D01*
X151088945Y-86348976D01*
X151001344Y-86480079D01*
X151001337Y-86480092D01*
X150940999Y-86625763D01*
X150940996Y-86625775D01*
X150910235Y-86780418D01*
X150910235Y-86871847D01*
X150890550Y-86938886D01*
X150871631Y-86960138D01*
X150872326Y-86960833D01*
X150756521Y-87076637D01*
X150756518Y-87076641D01*
X150668917Y-87207744D01*
X150668910Y-87207757D01*
X150608572Y-87353428D01*
X150608569Y-87353440D01*
X150577808Y-87508083D01*
X149807474Y-87508083D01*
X149761789Y-87439711D01*
X149761786Y-87439707D01*
X149650292Y-87328213D01*
X149650288Y-87328210D01*
X149519185Y-87240609D01*
X149519172Y-87240602D01*
X149373501Y-87180264D01*
X149367665Y-87178494D01*
X149368121Y-87176988D01*
X149313011Y-87148150D01*
X149278446Y-87087429D01*
X149282197Y-87017660D01*
X149323072Y-86960994D01*
X149351667Y-86944373D01*
X149458415Y-86900158D01*
X149589525Y-86812553D01*
X149701025Y-86701053D01*
X149788630Y-86569943D01*
X149848973Y-86424261D01*
X149879736Y-86269606D01*
X149879736Y-86111922D01*
X149879736Y-86111919D01*
X149879735Y-86111917D01*
X149875282Y-86089529D01*
X149848973Y-85957267D01*
X149848971Y-85957262D01*
X149788633Y-85811591D01*
X149788626Y-85811578D01*
X149701025Y-85680475D01*
X149701022Y-85680471D01*
X149589528Y-85568977D01*
X149589524Y-85568974D01*
X149458421Y-85481373D01*
X149458408Y-85481366D01*
X149312737Y-85421028D01*
X149312725Y-85421025D01*
X149158081Y-85390264D01*
X149158078Y-85390264D01*
X149000394Y-85390264D01*
X149000391Y-85390264D01*
X148845746Y-85421025D01*
X148845734Y-85421028D01*
X148700063Y-85481366D01*
X148700050Y-85481373D01*
X148568947Y-85568974D01*
X148568943Y-85568977D01*
X148457449Y-85680471D01*
X148457446Y-85680475D01*
X148369845Y-85811578D01*
X148369838Y-85811591D01*
X148309500Y-85957262D01*
X148309497Y-85957274D01*
X148278736Y-86111917D01*
X142010500Y-86111917D01*
X142010500Y-84871153D01*
X153809500Y-84871153D01*
X153809500Y-85028846D01*
X153840261Y-85183489D01*
X153840264Y-85183501D01*
X153900602Y-85329172D01*
X153900609Y-85329185D01*
X153988210Y-85460288D01*
X153988213Y-85460292D01*
X154099707Y-85571786D01*
X154099711Y-85571789D01*
X154230814Y-85659390D01*
X154230827Y-85659397D01*
X154281715Y-85680475D01*
X154376503Y-85719737D01*
X154531153Y-85750499D01*
X154531156Y-85750500D01*
X154531158Y-85750500D01*
X154688844Y-85750500D01*
X154688845Y-85750499D01*
X154843497Y-85719737D01*
X154989179Y-85659394D01*
X155120289Y-85571789D01*
X155231789Y-85460289D01*
X155319394Y-85329179D01*
X155379737Y-85183497D01*
X155410500Y-85028842D01*
X155410500Y-84871158D01*
X155410500Y-84871155D01*
X155410499Y-84871153D01*
X155379738Y-84716510D01*
X155379737Y-84716503D01*
X155379735Y-84716498D01*
X155319397Y-84570827D01*
X155319390Y-84570814D01*
X155231789Y-84439711D01*
X155231786Y-84439707D01*
X155120292Y-84328213D01*
X155120288Y-84328210D01*
X154989185Y-84240609D01*
X154989172Y-84240602D01*
X154843501Y-84180264D01*
X154843489Y-84180261D01*
X154688845Y-84149500D01*
X154688842Y-84149500D01*
X154531158Y-84149500D01*
X154531155Y-84149500D01*
X154376510Y-84180261D01*
X154376498Y-84180264D01*
X154230827Y-84240602D01*
X154230814Y-84240609D01*
X154099711Y-84328210D01*
X154099707Y-84328213D01*
X153988213Y-84439707D01*
X153988210Y-84439711D01*
X153900609Y-84570814D01*
X153900602Y-84570827D01*
X153840264Y-84716498D01*
X153840261Y-84716510D01*
X153809500Y-84871153D01*
X142010500Y-84871153D01*
X142010500Y-83201153D01*
X144049500Y-83201153D01*
X144049500Y-83358846D01*
X144080261Y-83513489D01*
X144080264Y-83513501D01*
X144140602Y-83659172D01*
X144140609Y-83659185D01*
X144228210Y-83790288D01*
X144228213Y-83790292D01*
X144339707Y-83901786D01*
X144339711Y-83901789D01*
X144470814Y-83989390D01*
X144470827Y-83989397D01*
X144615139Y-84049172D01*
X144616503Y-84049737D01*
X144771153Y-84080499D01*
X144771156Y-84080500D01*
X144771158Y-84080500D01*
X144928844Y-84080500D01*
X144928845Y-84080499D01*
X145083497Y-84049737D01*
X145229179Y-83989394D01*
X145360289Y-83901789D01*
X145471789Y-83790289D01*
X145559394Y-83659179D01*
X145587570Y-83591156D01*
X145587571Y-83591153D01*
X164719500Y-83591153D01*
X164719500Y-83748846D01*
X164750261Y-83903489D01*
X164750264Y-83903501D01*
X164810602Y-84049172D01*
X164810609Y-84049185D01*
X164898210Y-84180288D01*
X164898213Y-84180292D01*
X165009707Y-84291786D01*
X165009711Y-84291789D01*
X165140814Y-84379390D01*
X165140827Y-84379397D01*
X165286440Y-84439711D01*
X165286503Y-84439737D01*
X165441153Y-84470499D01*
X165441156Y-84470500D01*
X165441158Y-84470500D01*
X165598844Y-84470500D01*
X165598845Y-84470499D01*
X165753497Y-84439737D01*
X165899179Y-84379394D01*
X166030289Y-84291789D01*
X166141789Y-84180289D01*
X166229394Y-84049179D01*
X166289737Y-83903497D01*
X166320500Y-83748842D01*
X166320500Y-83591158D01*
X166320499Y-83591155D01*
X166316144Y-83569259D01*
X166316144Y-83569257D01*
X166312543Y-83551153D01*
X166729500Y-83551153D01*
X166729500Y-83708846D01*
X166760261Y-83863489D01*
X166760264Y-83863501D01*
X166820602Y-84009172D01*
X166820609Y-84009185D01*
X166908210Y-84140288D01*
X166908213Y-84140292D01*
X167019707Y-84251786D01*
X167019711Y-84251789D01*
X167150814Y-84339390D01*
X167150827Y-84339397D01*
X167296498Y-84399735D01*
X167296503Y-84399737D01*
X167451153Y-84430499D01*
X167451156Y-84430500D01*
X167451158Y-84430500D01*
X167608844Y-84430500D01*
X167608845Y-84430499D01*
X167763497Y-84399737D01*
X167909179Y-84339394D01*
X168040289Y-84251789D01*
X168151789Y-84140289D01*
X168239394Y-84009179D01*
X168299737Y-83863497D01*
X168330500Y-83708842D01*
X168330500Y-83591153D01*
X168699500Y-83591153D01*
X168699500Y-83748846D01*
X168730261Y-83903489D01*
X168730264Y-83903501D01*
X168790602Y-84049172D01*
X168790609Y-84049185D01*
X168878210Y-84180288D01*
X168878213Y-84180292D01*
X168989707Y-84291786D01*
X168989711Y-84291789D01*
X169120814Y-84379390D01*
X169120827Y-84379397D01*
X169266440Y-84439711D01*
X169266503Y-84439737D01*
X169421153Y-84470499D01*
X169421156Y-84470500D01*
X169421158Y-84470500D01*
X169578844Y-84470500D01*
X169578845Y-84470499D01*
X169733497Y-84439737D01*
X169879179Y-84379394D01*
X170010289Y-84291789D01*
X170121789Y-84180289D01*
X170209394Y-84049179D01*
X170269737Y-83903497D01*
X170300500Y-83748842D01*
X170300500Y-83591158D01*
X170300500Y-83591156D01*
X170300500Y-83591155D01*
X170300499Y-83591153D01*
X170285051Y-83513492D01*
X170269737Y-83436503D01*
X170269735Y-83436498D01*
X170209397Y-83290827D01*
X170209390Y-83290814D01*
X170121789Y-83159711D01*
X170121786Y-83159707D01*
X170010292Y-83048213D01*
X170010288Y-83048210D01*
X169879185Y-82960609D01*
X169879172Y-82960602D01*
X169733501Y-82900264D01*
X169733489Y-82900261D01*
X169578845Y-82869500D01*
X169578842Y-82869500D01*
X169421158Y-82869500D01*
X169421155Y-82869500D01*
X169266510Y-82900261D01*
X169266498Y-82900264D01*
X169120827Y-82960602D01*
X169120814Y-82960609D01*
X168989711Y-83048210D01*
X168989707Y-83048213D01*
X168878213Y-83159707D01*
X168878210Y-83159711D01*
X168790609Y-83290814D01*
X168790602Y-83290827D01*
X168730264Y-83436498D01*
X168730261Y-83436510D01*
X168699500Y-83591153D01*
X168330500Y-83591153D01*
X168330500Y-83551158D01*
X168330500Y-83551155D01*
X168330499Y-83551153D01*
X168327806Y-83537614D01*
X168299737Y-83396503D01*
X168284138Y-83358844D01*
X168239397Y-83250827D01*
X168239390Y-83250814D01*
X168151789Y-83119711D01*
X168151786Y-83119707D01*
X168040292Y-83008213D01*
X168040288Y-83008210D01*
X167909185Y-82920609D01*
X167909172Y-82920602D01*
X167763501Y-82860264D01*
X167763489Y-82860261D01*
X167608845Y-82829500D01*
X167608842Y-82829500D01*
X167451158Y-82829500D01*
X167451155Y-82829500D01*
X167296510Y-82860261D01*
X167296498Y-82860264D01*
X167150827Y-82920602D01*
X167150814Y-82920609D01*
X167019711Y-83008210D01*
X167019707Y-83008213D01*
X166908213Y-83119707D01*
X166908210Y-83119711D01*
X166820609Y-83250814D01*
X166820602Y-83250827D01*
X166760264Y-83396498D01*
X166760261Y-83396510D01*
X166729500Y-83551153D01*
X166312543Y-83551153D01*
X166289738Y-83436510D01*
X166289737Y-83436503D01*
X166289735Y-83436498D01*
X166229397Y-83290827D01*
X166229390Y-83290814D01*
X166141789Y-83159711D01*
X166141786Y-83159707D01*
X166030292Y-83048213D01*
X166030288Y-83048210D01*
X165899185Y-82960609D01*
X165899172Y-82960602D01*
X165753501Y-82900264D01*
X165753489Y-82900261D01*
X165598845Y-82869500D01*
X165598842Y-82869500D01*
X165441158Y-82869500D01*
X165441155Y-82869500D01*
X165286510Y-82900261D01*
X165286498Y-82900264D01*
X165140827Y-82960602D01*
X165140814Y-82960609D01*
X165009711Y-83048210D01*
X165009707Y-83048213D01*
X164898213Y-83159707D01*
X164898210Y-83159711D01*
X164810609Y-83290814D01*
X164810602Y-83290827D01*
X164750264Y-83436498D01*
X164750261Y-83436510D01*
X164719500Y-83591153D01*
X145587571Y-83591153D01*
X145609745Y-83537621D01*
X145609747Y-83537614D01*
X145619737Y-83513497D01*
X145650500Y-83358842D01*
X145650500Y-83201158D01*
X145650500Y-83201155D01*
X145650499Y-83201153D01*
X145619737Y-83046503D01*
X145584156Y-82960602D01*
X145559397Y-82900827D01*
X145559390Y-82900814D01*
X145471789Y-82769711D01*
X145471786Y-82769707D01*
X145360292Y-82658213D01*
X145360288Y-82658210D01*
X145229185Y-82570609D01*
X145229172Y-82570602D01*
X145083501Y-82510264D01*
X145083489Y-82510261D01*
X144928845Y-82479500D01*
X144928842Y-82479500D01*
X144771158Y-82479500D01*
X144771155Y-82479500D01*
X144616510Y-82510261D01*
X144616498Y-82510264D01*
X144470827Y-82570602D01*
X144470814Y-82570609D01*
X144339711Y-82658210D01*
X144339707Y-82658213D01*
X144228213Y-82769707D01*
X144228210Y-82769711D01*
X144140609Y-82900814D01*
X144140602Y-82900827D01*
X144080264Y-83046498D01*
X144080261Y-83046510D01*
X144049500Y-83201153D01*
X142010500Y-83201153D01*
X142010500Y-82281153D01*
X148849500Y-82281153D01*
X148849500Y-82438846D01*
X148880261Y-82593489D01*
X148880264Y-82593501D01*
X148940602Y-82739172D01*
X148940609Y-82739185D01*
X149028210Y-82870288D01*
X149028213Y-82870292D01*
X149139707Y-82981786D01*
X149139711Y-82981789D01*
X149270814Y-83069390D01*
X149270827Y-83069397D01*
X149392288Y-83119707D01*
X149416503Y-83129737D01*
X149571153Y-83160499D01*
X149571156Y-83160500D01*
X149571158Y-83160500D01*
X149728844Y-83160500D01*
X149728845Y-83160499D01*
X149883497Y-83129737D01*
X150029179Y-83069394D01*
X150160289Y-82981789D01*
X150271789Y-82870289D01*
X150359394Y-82739179D01*
X150419737Y-82593497D01*
X150450500Y-82438842D01*
X150450500Y-82281158D01*
X150450500Y-82281155D01*
X150450499Y-82281153D01*
X150419738Y-82126510D01*
X150419737Y-82126503D01*
X150419735Y-82126498D01*
X150359397Y-81980827D01*
X150359390Y-81980814D01*
X150271789Y-81849711D01*
X150271786Y-81849707D01*
X150160292Y-81738213D01*
X150160288Y-81738210D01*
X150029185Y-81650609D01*
X150029172Y-81650602D01*
X149883501Y-81590264D01*
X149883489Y-81590261D01*
X149728845Y-81559500D01*
X149728842Y-81559500D01*
X149571158Y-81559500D01*
X149571155Y-81559500D01*
X149416510Y-81590261D01*
X149416498Y-81590264D01*
X149270827Y-81650602D01*
X149270814Y-81650609D01*
X149139711Y-81738210D01*
X149139707Y-81738213D01*
X149028213Y-81849707D01*
X149028210Y-81849711D01*
X148940609Y-81980814D01*
X148940602Y-81980827D01*
X148880264Y-82126498D01*
X148880261Y-82126510D01*
X148849500Y-82281153D01*
X142010500Y-82281153D01*
X142010500Y-80921153D01*
X144119500Y-80921153D01*
X144119500Y-81078846D01*
X144150261Y-81233489D01*
X144150264Y-81233501D01*
X144210602Y-81379172D01*
X144210609Y-81379185D01*
X144298210Y-81510288D01*
X144298213Y-81510292D01*
X144409707Y-81621786D01*
X144409711Y-81621789D01*
X144540814Y-81709390D01*
X144540827Y-81709397D01*
X144686498Y-81769735D01*
X144686503Y-81769737D01*
X144841153Y-81800499D01*
X144841156Y-81800500D01*
X144841158Y-81800500D01*
X144998844Y-81800500D01*
X144998845Y-81800499D01*
X145153497Y-81769737D01*
X145299179Y-81709394D01*
X145430289Y-81621789D01*
X145541789Y-81510289D01*
X145629394Y-81379179D01*
X145689737Y-81233497D01*
X145720500Y-81078842D01*
X145720500Y-80921158D01*
X145720500Y-80921155D01*
X145720499Y-80921153D01*
X145689738Y-80766510D01*
X145689737Y-80766503D01*
X145653797Y-80679735D01*
X145629397Y-80620827D01*
X145629390Y-80620814D01*
X145541789Y-80489711D01*
X145541786Y-80489707D01*
X145430292Y-80378213D01*
X145430288Y-80378210D01*
X145299185Y-80290609D01*
X145299172Y-80290602D01*
X145153501Y-80230264D01*
X145153489Y-80230261D01*
X144998845Y-80199500D01*
X144998842Y-80199500D01*
X144841158Y-80199500D01*
X144841155Y-80199500D01*
X144686510Y-80230261D01*
X144686498Y-80230264D01*
X144540827Y-80290602D01*
X144540814Y-80290609D01*
X144409711Y-80378210D01*
X144409707Y-80378213D01*
X144298213Y-80489707D01*
X144298210Y-80489711D01*
X144210609Y-80620814D01*
X144210602Y-80620827D01*
X144150264Y-80766498D01*
X144150261Y-80766510D01*
X144119500Y-80921153D01*
X142010500Y-80921153D01*
X142010500Y-79831153D01*
X150489500Y-79831153D01*
X150489500Y-79988846D01*
X150520261Y-80143489D01*
X150520264Y-80143501D01*
X150580602Y-80289172D01*
X150580609Y-80289185D01*
X150668210Y-80420288D01*
X150668213Y-80420292D01*
X150779707Y-80531786D01*
X150779711Y-80531789D01*
X150910814Y-80619390D01*
X150910827Y-80619397D01*
X151056498Y-80679735D01*
X151056503Y-80679737D01*
X151211153Y-80710499D01*
X151211156Y-80710500D01*
X151211158Y-80710500D01*
X151368844Y-80710500D01*
X151368845Y-80710499D01*
X151523497Y-80679737D01*
X151636166Y-80633067D01*
X151669172Y-80619397D01*
X151669172Y-80619396D01*
X151669179Y-80619394D01*
X151800289Y-80531789D01*
X151911789Y-80420289D01*
X151999394Y-80289179D01*
X152059737Y-80143497D01*
X152090500Y-79988842D01*
X152090500Y-79831158D01*
X152090500Y-79831155D01*
X152090499Y-79831153D01*
X152059738Y-79676510D01*
X152059737Y-79676503D01*
X152059735Y-79676498D01*
X151999397Y-79530827D01*
X151999390Y-79530814D01*
X151911789Y-79399711D01*
X151911786Y-79399707D01*
X151800292Y-79288213D01*
X151800288Y-79288210D01*
X151669185Y-79200609D01*
X151669172Y-79200602D01*
X151523501Y-79140264D01*
X151523489Y-79140261D01*
X151368845Y-79109500D01*
X151368842Y-79109500D01*
X151211158Y-79109500D01*
X151211155Y-79109500D01*
X151056510Y-79140261D01*
X151056498Y-79140264D01*
X150910827Y-79200602D01*
X150910814Y-79200609D01*
X150779711Y-79288210D01*
X150779707Y-79288213D01*
X150668213Y-79399707D01*
X150668210Y-79399711D01*
X150580609Y-79530814D01*
X150580602Y-79530827D01*
X150520264Y-79676498D01*
X150520261Y-79676510D01*
X150489500Y-79831153D01*
X142010500Y-79831153D01*
X142010500Y-76201153D01*
X148209500Y-76201153D01*
X148209500Y-76358846D01*
X148240261Y-76513489D01*
X148240264Y-76513501D01*
X148300602Y-76659172D01*
X148300609Y-76659185D01*
X148388210Y-76790288D01*
X148388213Y-76790292D01*
X148499708Y-76901787D01*
X148501840Y-76903537D01*
X148502655Y-76904734D01*
X148504018Y-76906097D01*
X148503759Y-76906355D01*
X148541172Y-76961284D01*
X148543039Y-77031129D01*
X148510855Y-77087066D01*
X148498210Y-77099711D01*
X148410609Y-77230814D01*
X148410602Y-77230827D01*
X148350264Y-77376498D01*
X148350261Y-77376510D01*
X148319500Y-77531153D01*
X148319500Y-77688846D01*
X148350261Y-77843489D01*
X148350264Y-77843501D01*
X148410602Y-77989172D01*
X148410609Y-77989185D01*
X148498210Y-78120288D01*
X148498213Y-78120292D01*
X148609707Y-78231786D01*
X148609711Y-78231789D01*
X148740814Y-78319390D01*
X148740827Y-78319397D01*
X148886498Y-78379735D01*
X148886503Y-78379737D01*
X149041153Y-78410499D01*
X149041156Y-78410500D01*
X149041158Y-78410500D01*
X149198844Y-78410500D01*
X149198845Y-78410499D01*
X149353497Y-78379737D01*
X149499179Y-78319394D01*
X149630289Y-78231789D01*
X149741789Y-78120289D01*
X149829394Y-77989179D01*
X149889737Y-77843497D01*
X149920500Y-77688842D01*
X149920500Y-77631153D01*
X160189500Y-77631153D01*
X160189500Y-77788846D01*
X160220261Y-77943489D01*
X160220264Y-77943501D01*
X160280602Y-78089172D01*
X160280609Y-78089185D01*
X160368210Y-78220288D01*
X160368213Y-78220292D01*
X160479707Y-78331786D01*
X160479711Y-78331789D01*
X160610814Y-78419390D01*
X160610827Y-78419397D01*
X160756498Y-78479735D01*
X160756503Y-78479737D01*
X160911153Y-78510499D01*
X160911156Y-78510500D01*
X160911158Y-78510500D01*
X161068844Y-78510500D01*
X161068845Y-78510499D01*
X161223497Y-78479737D01*
X161369179Y-78419394D01*
X161500289Y-78331789D01*
X161611789Y-78220289D01*
X161699394Y-78089179D01*
X161759737Y-77943497D01*
X161790500Y-77788842D01*
X161790500Y-77631158D01*
X161790500Y-77631155D01*
X161790499Y-77631153D01*
X161759737Y-77476503D01*
X161718314Y-77376498D01*
X161699397Y-77330827D01*
X161699390Y-77330814D01*
X161611789Y-77199711D01*
X161611786Y-77199707D01*
X161500292Y-77088213D01*
X161500288Y-77088210D01*
X161369185Y-77000609D01*
X161369172Y-77000602D01*
X161223501Y-76940264D01*
X161223489Y-76940261D01*
X161068845Y-76909500D01*
X161068842Y-76909500D01*
X160911158Y-76909500D01*
X160911155Y-76909500D01*
X160756510Y-76940261D01*
X160756498Y-76940264D01*
X160610827Y-77000602D01*
X160610814Y-77000609D01*
X160479711Y-77088210D01*
X160479707Y-77088213D01*
X160368213Y-77199707D01*
X160368210Y-77199711D01*
X160280609Y-77330814D01*
X160280602Y-77330827D01*
X160220264Y-77476498D01*
X160220261Y-77476510D01*
X160189500Y-77631153D01*
X149920500Y-77631153D01*
X149920500Y-77531158D01*
X149920500Y-77531155D01*
X149920499Y-77531153D01*
X149889738Y-77376510D01*
X149889737Y-77376503D01*
X149870812Y-77330814D01*
X149829397Y-77230827D01*
X149829390Y-77230814D01*
X149741789Y-77099711D01*
X149741786Y-77099707D01*
X149630289Y-76988210D01*
X149628158Y-76986461D01*
X149627342Y-76985263D01*
X149625982Y-76983903D01*
X149626240Y-76983644D01*
X149588827Y-76928713D01*
X149586960Y-76858868D01*
X149619147Y-76802930D01*
X149631789Y-76790289D01*
X149719394Y-76659179D01*
X149779737Y-76513497D01*
X149810500Y-76358842D01*
X149810500Y-76201158D01*
X149810500Y-76201155D01*
X149810499Y-76201153D01*
X149779738Y-76046510D01*
X149779737Y-76046503D01*
X149779735Y-76046498D01*
X149719397Y-75900827D01*
X149719390Y-75900814D01*
X149631789Y-75769711D01*
X149631786Y-75769707D01*
X149520292Y-75658213D01*
X149520288Y-75658210D01*
X149389185Y-75570609D01*
X149389172Y-75570602D01*
X149243501Y-75510264D01*
X149243489Y-75510261D01*
X149088845Y-75479500D01*
X149088842Y-75479500D01*
X148931158Y-75479500D01*
X148931155Y-75479500D01*
X148776510Y-75510261D01*
X148776498Y-75510264D01*
X148630827Y-75570602D01*
X148630814Y-75570609D01*
X148499711Y-75658210D01*
X148499707Y-75658213D01*
X148388213Y-75769707D01*
X148388210Y-75769711D01*
X148300609Y-75900814D01*
X148300602Y-75900827D01*
X148240264Y-76046498D01*
X148240261Y-76046510D01*
X148209500Y-76201153D01*
X142010500Y-76201153D01*
X142010500Y-69751758D01*
X159421794Y-69751758D01*
X159421794Y-69751759D01*
X159453431Y-69772898D01*
X159632681Y-69847145D01*
X159632693Y-69847148D01*
X159822981Y-69884999D01*
X159822984Y-69885000D01*
X160017016Y-69885000D01*
X160017018Y-69884999D01*
X160207306Y-69847148D01*
X160207318Y-69847145D01*
X160386565Y-69772899D01*
X160418204Y-69751758D01*
X168181794Y-69751758D01*
X168181794Y-69751759D01*
X168213431Y-69772898D01*
X168392681Y-69847145D01*
X168392693Y-69847148D01*
X168582981Y-69884999D01*
X168582984Y-69885000D01*
X168777016Y-69885000D01*
X168777018Y-69884999D01*
X168967306Y-69847148D01*
X168967318Y-69847145D01*
X169146565Y-69772899D01*
X169178204Y-69751758D01*
X168680001Y-69253554D01*
X168680000Y-69253554D01*
X168181794Y-69751758D01*
X160418204Y-69751758D01*
X159920001Y-69253554D01*
X159920000Y-69253554D01*
X159421794Y-69751758D01*
X142010500Y-69751758D01*
X142010500Y-66862567D01*
X142030185Y-66795528D01*
X142082989Y-66749773D01*
X142152147Y-66739829D01*
X142215703Y-66768854D01*
X142253159Y-66826569D01*
X142315005Y-67030446D01*
X142341614Y-67118165D01*
X142480754Y-67454078D01*
X142480756Y-67454083D01*
X142652140Y-67774720D01*
X142652144Y-67774727D01*
X142652147Y-67774732D01*
X142854143Y-68077040D01*
X142854150Y-68077049D01*
X143084807Y-68358106D01*
X143341893Y-68615192D01*
X143341898Y-68615196D01*
X143341899Y-68615197D01*
X143622956Y-68845854D01*
X143925268Y-69047853D01*
X143925277Y-69047858D01*
X143925279Y-69047859D01*
X144245916Y-69219243D01*
X144245918Y-69219243D01*
X144245924Y-69219247D01*
X144581836Y-69358386D01*
X144929767Y-69463930D01*
X144929773Y-69463931D01*
X144929776Y-69463932D01*
X144929787Y-69463935D01*
X145286369Y-69534862D01*
X145648206Y-69570500D01*
X145648209Y-69570500D01*
X146011791Y-69570500D01*
X146011794Y-69570500D01*
X146373631Y-69534862D01*
X146443045Y-69521054D01*
X146730212Y-69463935D01*
X146730223Y-69463932D01*
X146730223Y-69463931D01*
X146730233Y-69463930D01*
X147078164Y-69358386D01*
X147414076Y-69219247D01*
X147734732Y-69047853D01*
X148037044Y-68845854D01*
X148089284Y-68802981D01*
X158935000Y-68802981D01*
X158935000Y-68997018D01*
X158972851Y-69187306D01*
X158972853Y-69187314D01*
X159047102Y-69366568D01*
X159047106Y-69366575D01*
X159068240Y-69398204D01*
X159068241Y-69398205D01*
X159566446Y-68900000D01*
X159520696Y-68854250D01*
X159690000Y-68854250D01*
X159690000Y-68945750D01*
X159725015Y-69030285D01*
X159789715Y-69094985D01*
X159874250Y-69130000D01*
X159965750Y-69130000D01*
X160050285Y-69094985D01*
X160114985Y-69030285D01*
X160150000Y-68945750D01*
X160150000Y-68899999D01*
X160273554Y-68899999D01*
X160273554Y-68900000D01*
X160771758Y-69398204D01*
X160792899Y-69366565D01*
X160867145Y-69187318D01*
X160867148Y-69187306D01*
X160904999Y-68997018D01*
X160905000Y-68997016D01*
X160905000Y-68802983D01*
X160904999Y-68802981D01*
X167695000Y-68802981D01*
X167695000Y-68997018D01*
X167732851Y-69187306D01*
X167732853Y-69187314D01*
X167807102Y-69366568D01*
X167807106Y-69366575D01*
X167828240Y-69398204D01*
X167828241Y-69398205D01*
X168326446Y-68900000D01*
X168280696Y-68854250D01*
X168450000Y-68854250D01*
X168450000Y-68945750D01*
X168485015Y-69030285D01*
X168549715Y-69094985D01*
X168634250Y-69130000D01*
X168725750Y-69130000D01*
X168810285Y-69094985D01*
X168874985Y-69030285D01*
X168910000Y-68945750D01*
X168910000Y-68899999D01*
X169033554Y-68899999D01*
X169033554Y-68900000D01*
X169531758Y-69398204D01*
X169552899Y-69366565D01*
X169627145Y-69187318D01*
X169627148Y-69187306D01*
X169664999Y-68997018D01*
X169665000Y-68997016D01*
X169665000Y-68802983D01*
X169664999Y-68802981D01*
X169627148Y-68612693D01*
X169627145Y-68612681D01*
X169552898Y-68433431D01*
X169531758Y-68401794D01*
X169033554Y-68899999D01*
X168910000Y-68899999D01*
X168910000Y-68854250D01*
X168874985Y-68769715D01*
X168810285Y-68705015D01*
X168725750Y-68670000D01*
X168634250Y-68670000D01*
X168549715Y-68705015D01*
X168485015Y-68769715D01*
X168450000Y-68854250D01*
X168280696Y-68854250D01*
X167828240Y-68401794D01*
X167807104Y-68433426D01*
X167807103Y-68433428D01*
X167732853Y-68612685D01*
X167732851Y-68612693D01*
X167695000Y-68802981D01*
X160904999Y-68802981D01*
X160867148Y-68612693D01*
X160867145Y-68612681D01*
X160792898Y-68433431D01*
X160771758Y-68401794D01*
X160273554Y-68899999D01*
X160150000Y-68899999D01*
X160150000Y-68854250D01*
X160114985Y-68769715D01*
X160050285Y-68705015D01*
X159965750Y-68670000D01*
X159874250Y-68670000D01*
X159789715Y-68705015D01*
X159725015Y-68769715D01*
X159690000Y-68854250D01*
X159520696Y-68854250D01*
X159068240Y-68401794D01*
X159047104Y-68433426D01*
X159047103Y-68433428D01*
X158972853Y-68612685D01*
X158972851Y-68612693D01*
X158935000Y-68802981D01*
X148089284Y-68802981D01*
X148161864Y-68743416D01*
X148213500Y-68701041D01*
X148251323Y-68670000D01*
X148318101Y-68615197D01*
X148575197Y-68358101D01*
X148805854Y-68077044D01*
X148825100Y-68048240D01*
X159421794Y-68048240D01*
X159920000Y-68546446D01*
X159920001Y-68546446D01*
X160418205Y-68048240D01*
X168181794Y-68048240D01*
X168680000Y-68546446D01*
X168680001Y-68546446D01*
X169178205Y-68048241D01*
X169178204Y-68048240D01*
X169146575Y-68027106D01*
X169146568Y-68027102D01*
X168967314Y-67952853D01*
X168967306Y-67952851D01*
X168777017Y-67915000D01*
X168582983Y-67915000D01*
X168392693Y-67952851D01*
X168392685Y-67952853D01*
X168213428Y-68027103D01*
X168213426Y-68027104D01*
X168181794Y-68048240D01*
X160418205Y-68048240D01*
X160386575Y-68027106D01*
X160386568Y-68027102D01*
X160207314Y-67952853D01*
X160207306Y-67952851D01*
X160017017Y-67915000D01*
X159822983Y-67915000D01*
X159632693Y-67952851D01*
X159632685Y-67952853D01*
X159453428Y-68027103D01*
X159453426Y-68027104D01*
X159421794Y-68048240D01*
X148825100Y-68048240D01*
X149007853Y-67774732D01*
X149179247Y-67454076D01*
X149318386Y-67118164D01*
X149423930Y-66770233D01*
X149423932Y-66770223D01*
X149423935Y-66770212D01*
X149494862Y-66413630D01*
X149530500Y-66051790D01*
X149530500Y-65688209D01*
X149494862Y-65326369D01*
X149423935Y-64969787D01*
X149423932Y-64969776D01*
X149423931Y-64969773D01*
X149423930Y-64969767D01*
X149318386Y-64621836D01*
X149179247Y-64285924D01*
X149007853Y-63965268D01*
X148805854Y-63662956D01*
X148575197Y-63381899D01*
X148575196Y-63381898D01*
X148575192Y-63381893D01*
X148318106Y-63124807D01*
X148037049Y-62894150D01*
X148037048Y-62894149D01*
X148037044Y-62894146D01*
X147734732Y-62692147D01*
X147734727Y-62692144D01*
X147734720Y-62692140D01*
X147414083Y-62520756D01*
X147414078Y-62520754D01*
X147078165Y-62381614D01*
X147065881Y-62377888D01*
X147050295Y-62373160D01*
X146991858Y-62334863D01*
X146963402Y-62271051D01*
X146973962Y-62201984D01*
X147020186Y-62149590D01*
X147086292Y-62130500D01*
X170485500Y-62130500D01*
X170552539Y-62150185D01*
G37*
%TD.AperFunction*%
%TD*%
M02*
